<?xml version="1.0" encoding="utf-8"?>
<!-- Generator: Adobe Illustrator 26.3.1, SVG Export Plug-In . SVG Version: 6.00 Build 0)  -->
<svg version="1.1" xmlns="http://www.w3.org/2000/svg" xmlns:xlink="http://www.w3.org/1999/xlink" x="0px" y="0px"
	 viewBox="0 0 1366 768" style="enable-background:new 0 0 1366 768;" xml:space="preserve">
<style type="text/css">
	.vol1_7_st0{fill:#ffffff;}
	.vol1_7_st1{fill:none;stroke:#ffffff;stroke-width:59.5276;stroke-miterlimit:10;}
</style>
<g id="base">
	<g>
		<path class="vol1_7_st0" d="M901,722.75c-150,0-300,0-450,0c0-209.25,0-418.5,0-627.75c150,0,300,0,450,0
			C901,304.25,901,513.5,901,722.75z M509.09,267.83c0.92-1.15,0.86-1.09,2.23,0.39c0.52,0.56,1.35,0.96,2.11,1.15
			c3.71,0.95,6.83-0.46,9.75-2.58c0.43-0.31,1.17-0.81,1.39-0.66c0.49,0.33,1.04,1.01,1.05,1.56c0.09,3.56,0.05,7.12,0.05,10.42
			c-1.66,0.38-3.07,0.54-4.35,1.03c-2.65,1-5.24,2.16-7.84,3.29c-3.38,1.47-4.74,0.75-5.16-2.86c-0.18-1.5-0.2-3.02-0.32-4.96
			c-0.7,0.55-1.28,0.8-1.28,1.04c0.01,2.35-0.04,4.71,0.24,7.03c0.29,2.41,2.29,2.67,4.57,1.95c1.54-0.49,2.9-1.54,4.43-2.06
			c2.98-1,5.49-3.42,9-2.89c2.87,0.44,3.08,0.17,2.89-2.77c-0.03-0.52-0.18-1.02-0.22-1.54c-0.23-3.03-0.48-6.07-0.62-9.1
			c-0.02-0.5,0.34-1.2,0.75-1.5c2.14-1.56,4.37-2.98,6.52-4.51c4.91-3.48,8.04-8.33,10.2-13.81c1.06-2.69,1.71-5.55,2.48-8.35
			c0.36-1.31,0.75-2.65,0.8-3.99c0.09-2.49-0.09-4.99-0.09-7.49c0-1.18,0.47-2.43,0.19-3.52c-1.29-5.01-2.72-9.98-4.21-14.93
			c-0.69-2.29-1.65-4.5-2.48-6.73c30.28-0.12,60.39-0.12,91,2.41c-1.14,0.96-1.88,1.45-2.47,2.09c-2.01,2.18-4.52,4.14-5.82,6.7
			c-1.8,3.54-2.67,7.56-3.95,11.36c-1.76,5.22-1.63,10.66-1.15,15.97c0.42,4.7,1.93,9.29,2.83,13.95c0.81,4.19,2.09,8.12,4.2,11.9
			c2.31,4.13,4.01,8.6,5.91,12.95c0.27,0.62,0.26,1.43,0.17,2.13c-0.22,1.75-0.78,3.49-0.8,5.24c-0.07,5.49,0.73,7.4,7.58,7.32
			c0.45-0.01,0.89-0.13,1.34-0.13c2.59,0.01,5.18-0.02,7.76,0.07c1.61,0.05,2.82-0.19,2.84-2.19c0.05-3.17,0.15-6.35,0.26-9.52
			c0.03-0.76,0.14-1.51,0.26-2.68c0.92,1.08,1.52,1.77,2.38,2.77c0.41-1.03,1.06-1.84,0.91-2.46c-0.78-3.27,1.85-5.06,3.07-7.42
			c2.58-5,5.53-9.83,7.84-14.94c1.13-2.5,1.39-5.47,1.65-8.27c0.52-5.37,0.67-10.78,1.15-16.16c0.28-3.1,0.91-6.18,1.36-9.27
			c0.21-1.47,0.51-2.95,0.5-4.42c-0.04-4.7,0.08-9.46-3.61-13.73c5.69,0.26,10.68,0.52,15.67,0.71c6.65,0.26,13.29,0.46,19.94,0.68
			c5.67,0.19,11.34,0.44,17.01,0.53c11.13,0.18,22.27,0.26,33.41,0.39c1.37,0.02,1.64,0.89,0.89,1.75
			c-2.52,2.91-4.17,6.33-5.53,9.83c-2.73,7.01-3.85,14.37-3.97,21.88c-0.07,4.85-0.24,9.7-0.09,14.55
			c0.12,3.95-0.01,7.98,2.88,11.37c2.16,2.53,3.87,5.44,5.87,8.29c-1.06,0.84-0.67,3.63-3.52,2.69c-0.43,1.55-1.05,2.95-1.18,4.38
			c-0.45,5,0.74,7.12,5.99,6.24c2.93-0.49,5.72-1.92,8.51-3.09c3.11-1.3,3.94-3.05,3.22-6.39c-0.31-1.45-0.1-2.33,1.41-3.24
			c3.46-2.08,6.4-4.81,8.35-8.49c1.18-2.24,2.51-4.41,3.89-6.53c0.93-1.44,2.41-2.62,3.05-4.16c3.05-7.32,3.55-15.16,4.13-22.93
			c0.24-3.18-0.36-6.42-0.25-9.62c0.19-5.18,0.65-10.34,1.01-15.73c4.91,0,9.29-0.08,13.67,0.02c5.44,0.13,10.88,0.39,16.32,0.65
			c3.27,0.16,6.53,0.49,9.8,0.62c4.6,0.19,9.21,0.25,13.81,0.42c3.05,0.11,6.11,0.51,9.16,0.44c6.76-0.16,13.51-0.51,20.27-0.84
			c0.74-0.04,1.45-0.41,2.18-0.62c-2.11-0.72-4.14-1.11-6.17-1.12c-7.61-0.02-15.23,0.26-22.84,0.09
			c-6.23-0.14-12.45-0.82-18.68-1.19c-6.81-0.41-13.62-0.8-20.43-1.08c-2.83-0.12-5.67,0.09-8.51,0.12
			c-2.83,0.03-5.67,0.01-8.78,0.01c0.35-1.41,0.42-2.48,0.88-3.35c1.2-2.28,2.88-4.34,3.82-6.71c2.49-6.31,3.19-13.02,3.79-19.72
			c0.19-2.14-0.62-2.74-2.78-2.73c-5.22,0.03-10.45-0.03-15.67,0.02c-0.5,0.01-1.11,0.46-1.46,0.88c-0.45,0.54-0.62,1.32-1.04,1.9
			c-2.13,2.97-4.06,6.02-5.1,9.58c-0.68,2.33-1.62,4.59-2.22,6.94c-0.44,1.75,0.62,2.39,2.49,2.3c0.22-1.6,0.1-3.29,0.71-4.64
			c2.07-4.6,4.39-9.08,6.67-13.58c0.23-0.46,0.81-1.06,1.23-1.07c4.9-0.08,9.79-0.05,14.96-0.05c-1.09,7.84-1.31,15.73-6.41,22.86
			c-0.26-1.17-0.38-1.87-0.57-2.55c-0.17-0.62-0.4-1.23-0.6-1.84c-0.18,0.04-0.36,0.08-0.53,0.12c-0.09,1.52-0.17,3.05-0.26,4.67
			c-4.46-0.88-8.74-1.92-13.08-2.52c-4.28-0.6-8.48-2.13-12.88-1.59c-0.08,0.29-0.16,0.58-0.24,0.87c1.97,0.58,3.94,1.15,6.1,1.78
			c-1.23,1.15-2.28,2.08-3.27,3.06c-3.5,3.47-7.4,5.7-12.64,5.42c-8.09-0.44-16.2-0.47-24.3-0.71c-4.03-0.12-8.05-0.39-12.07-0.41
			c-5.67-0.04-11.35,0.18-17.02,0.1c-5.83-0.08-11.66-0.34-17.49-0.62c-3.81-0.18-7.61-0.48-11.41-0.86
			c-0.79-0.08-1.51-0.73-2.27-1.12c0.39-0.59,0.81-1.16,1.17-1.76c0.89-1.52,2.4-3,2.51-4.59c0.35-4.91,0.48-9.87-0.92-14.72
			c-0.72-2.48-1.5-3.09-4-2.68c-5.01,0.83-10.01,1.67-15.01,2.52c-5.83,1-9.55,5.25-10.1,11.21c-0.31,3.31-0.93,6.59-1.45,10.11
			c-1.01,0-1.97,0.05-2.93-0.01c-8.57-0.49-17.13-1.12-25.7-1.46c-9.34-0.37-18.68-0.57-28.02-0.68
			c-10.74-0.12-21.49-0.03-32.23-0.08c-2.53-0.01-5.32,0.37-7.53-0.54c-2.47-1.01-4.42-3.29-6.59-5.01
			c3.13-2.01,3.37-2.72,1.05-4.04c-5.24-2.98-10.54-5.87-15.91-8.62c-2.67-1.37-4.53-1-6.34,1.4c-2.14,2.85-3.96,5.95-5.78,9.02
			c-0.35,0.59-0.07,1.54-0.08,2.33c0.63-0.47,1.43-0.82,1.85-1.44c2.07-3.08,3.97-6.28,6.09-9.32c0.35-0.5,1.72-0.83,2.27-0.56
			c5.36,2.71,10.65,5.56,16.38,8.59c-4.21,1.71-7.78,3.29-11.44,4.62c-2.51,0.92-5.1,1.88-7.72,2.15c-3.68,0.39-7.43,0.09-11.15,0.2
			c-6.42,0.19-12.84,0.41-19.25,0.74c-8.82,0.45-17.63,1-26.44,1.55c-0.79,0.05-1.56,0.4-2.34,0.62c0.04,0.28,0.09,0.56,0.13,0.84
			c7.99,0.66,15.93-0.8,23.9-1.09c8.09-0.29,16.17-0.94,24.66-1.46c-0.36,1.77-0.5,2.87-0.81,3.92c-0.76,2.57-1.77,5.08-2.35,7.69
			c-0.99,4.43-1.73,8.92-2.56,13.39c-0.38,2.03-0.72,4.06-1.05,6.09c-0.98,6.07-1.07,12.01,1.92,17.69c1.55,2.94,2.7,6.08,2.11,9.55
			c-0.17,1.01-0.48,2.02-0.52,3.03c-0.09,2.06-0.31,4.18,0.06,6.18c0.2,1.07,1.98,1.84,2.2,2.91c0.35,1.76,1.5,1.54,2.51,1.88
			c-0.58-1.18-1.3-2.18-1.94-3.24c-1.41-2.34-0.88-4.94-0.69-7.42c0.06-0.77,1.14-1.47,1.7-2.13
			C505.79,262.63,507.43,265.22,509.09,267.83z M645.33,395.3c1.39,0,2.72-0.03,4.06,0.01c4.79,0.14,9.57,0.3,14.36,0.47
			c7.18,0.26,14.43-0.05,21.51,0.93c10.41,1.44,20.7,3.81,31.04,5.78c7.63,1.46,15.21,3.24,22.89,4.3
			c9.2,1.26,17.78,3.73,25.36,9.35c1.81,1.34,3.9,2.44,6.55,2.41c3.22-0.04,3.76-0.12,3.67-3.4c-0.11-4.4-0.27-8.79-0.49-13.19
			c-0.44-8.64-0.9-17.28-1.42-25.92c-0.17-2.81-0.38-5.64-0.84-8.42c-0.6-3.6-1.56-7.13-2.2-10.73c-0.56-3.2-1.9-3.9-4.63-1.96
			c-5.04,3.6-9.97,7.34-14.97,10.99c-4.7,3.43-9.46,6.78-14.14,10.24c-5.4,3.99-10.74,8.06-16.1,12.11
			c-1.56,1.18-3.12,1.26-5.03,0.71c-4.58-1.32-9.18-2.86-13.88-3.41c-9.57-1.11-19.2-1.7-28.81-2.36c-3.57-0.24-7.18-0.2-10.76-0.07
			c-6.34,0.24-12.73,0.22-18.98,1.12c-5.88,0.85-11.6,2.78-17.42,4.13c-0.86,0.2-2.07,0.2-2.72-0.26c-5-3.52-9.97-7.08-14.81-10.81
			c-6.39-4.92-12.6-10.06-18.98-15c-2.41-1.87-5.01-3.52-7.64-5.09c-2.17-1.29-3.12-0.67-3.23,1.76c-0.03,0.73-0.18,1.47-0.38,2.18
			c-1.03,3.74-2.26,7.42-3.11,11.2c-2.25,10.02-1.69,20.15-0.94,30.28c0.72,9.63,3.01,18.94,5.34,28.25
			c2.09,8.36,3.72,16.87,6.37,25.05c2.33,7.2,5.74,14.05,8.8,21.01c0.5,1.13,0.49,1.72-0.26,2.74c-1.98,2.68-4.19,5.34-5.47,8.37
			c-2.74,6.52-5.05,13.22-7.32,19.93c-0.49,1.46-0.48,3.35-0.01,4.82c0.96,2.99,2.14,5.97,3.67,8.71c2.46,4.37,7.36,5.85,11.76,3.52
			c3.28-1.74,6.31-3.95,9.42-6.01c6.52-4.31,10.13-10.31,10.45-18.19c0-0.09,0.21-0.16,0.09-0.08c5.44,2.41,10.73,4.77,16.05,7.09
			c1.69,0.74,3.37,1.67,5.14,1.99c4.63,0.83,9.31,1.35,13.96,2.02c7.86,1.14,15.78,1.72,23.66,0.81c6.12-0.7,12.14-2.32,18.21-3.49
			c7.06-1.36,14.17-2.6,20.51-6.25c3.46-2,6.93-4.03,10.14-6.41c3.7-2.75,7.26-5.74,10.61-8.9c3.12-2.94,5.91-6.24,8.8-9.42
			c0.68-0.75,1.21-1.64,1.75-2.5c2.22-3.51,4.64-6.92,6.55-10.59c1.91-3.66,3.24-7.62,4.95-11.39c1.38-3.04,2.94-5.99,4.42-8.99
			c0.92-1.86,1.77-3.76,2.78-5.57c1.29-2.3,2.99-4.41,3.99-6.82c1.19-2.85,1.94-5.91,2.65-8.93c0.26-1.13,0.68-2.71-0.83-3.3
			c-0.53,1.98-1.03,3.87-1.55,5.76c-0.28,1.02-0.36,2.17-0.89,3.04c-1.43,2.35-3.24,4.47-4.53,6.88c-0.87,1.63-1.81,1.65-3.23,1.13
			c-2.98-1.08-5.92-2.3-8.97-3.13c-5.53-1.51-11.09-2.89-16.69-4.09c-4.08-0.87-8.24-1.34-12.35-2.04
			c-7.29-1.23-14.55-2.59-21.85-3.71c-10.79-1.66-21.6-3.15-32.4-4.75c-0.69-0.1-1.43-0.38-1.98-0.8c-1.54-1.19-2.83-2.79-4.51-3.71
			c-5.46-3-10.73-6.19-14.66-11.18c-0.32-0.41-0.57-0.87-1.14-1.76c4.72,0,8.88-0.02,13.03,0.01c1.97,0.01,3.92,0.05,5.19-1.97
			c0.59,0.52,1.02,1.09,1.59,1.38c1.51,0.76,3.06,1.46,4.65,2.01c0.36,0.12,1-0.43,1.42-0.78c0.1-0.08-0.12-0.85-0.3-0.91
			c-2.69-0.79-4.28-5.3-8.05-2.42c-5.51,0-11.01,0-16.53,0C645.59,397.6,645.47,396.56,645.33,395.3z M709.8,505.22
			c-0.02,0.42-0.03,0.83-0.05,1.25c1.43,0.24,2.86,0.72,4.28,0.7c7.99-0.15,15.97-0.54,23.96-0.61c8.14-0.07,16.28,0.16,24.43,0.24
			c9.18,0.08,18.37,0.04,27.55,0.22c8.87,0.17,17.74,0.7,26.61,0.79c11.3,0.11,22.6-0.03,33.9-0.15c0.93-0.01,2.1-0.44,2.73-1.09
			c1.6-1.63,2.8-3.67,4.44-5.24c4.21-4.03,8.98-7.26,14.21-9.91c3.68-1.87,7.44-1.41,11.92-1.68c-4.1,9.49-4.86,19.57-10.45,28.13
			c1.62,0.77,1.53,1.92,0.91,3.32c-0.41,0.94-0.57,2.01-0.74,3.04c-0.94,5.6-2.07,11.16-5.05,16.08c-1.91,3.15-4.19,6.09-6.32,9.1
			c-3.55,5.01-7.12,10-10.65,15.02c-0.37,0.53-0.63,1.17-0.83,1.8c-0.49,1.53-1.02,3.05-1.34,4.62c-0.38,1.86-0.56,3.77-0.84,5.66
			c-0.32,2.11-0.54,4.24-1.03,6.31c-0.78,3.28-1.65,6.54-2.66,9.76c-0.52,1.66-1.39,3.2-2.12,4.79c-0.37,0.81-0.69,1.66-1.17,2.4
			c-1.74,2.65-3.06,5.85-5.41,7.76c-4.3,3.49-12.34,2.21-15.6-2.73c-3.11-4.73-5.69-10.01-7.43-15.39
			c-1.96-6.07-2.74-12.52-3.97-18.81c-0.47-2.41-1.24-4.43-4.03-4.94c-4.59-0.84-9.15-1.84-13.76-2.58
			c-3.97-0.64-8.05-0.7-11.98-1.54c-7.1-1.52-14.2-2.72-21.5-2.6c-3.02,0.05-4.66,0.96-5.75,3.77c-0.96,2.49-1.72,5.06-2.78,7.51
			c-2.08,4.84-4.42,9.56-6.44,14.43c-2.2,5.3-4.77,10.33-8.82,14.48c-0.46,0.48-1,0.9-1.55,1.26c-5.1,3.35-10.35,3.03-15.53,0.34
			c-1.29-0.67-2.56-1.85-3.24-3.12c-1.85-3.44-3.48-6.96-6.85-9.27c-0.52-0.36-0.89-1-1.21-1.59c-4.15-7.77-5.78-16.29-6.86-24.88
			c-0.89-7.1-1.13-14.29-1.6-21.44c-0.33-5.03-1.93-9.52-5.6-13.05c-1.65-1.59-3.49-3.05-5.45-4.23c-4.58-2.79-9.29-5.38-14.15-8.17
			c-0.36,2.23,1.1,2.84,2.25,3.53c3.78,2.27,7.68,4.34,11.4,6.7c3.29,2.09,6.33,4.75,7.26,8.65c1.44,6.05,2.52,12.21,3.4,18.38
			c0.59,4.12,0.11,8.41,0.91,12.47c1.24,6.35,2.97,12.62,4.87,18.8c0.76,2.48,2.04,5.3,3.98,6.8c2.77,2.15,4.74,4.74,5.84,7.74
			c1.12,3.02,3.15,4.57,5.76,5.78c0.73,0.34,1.6,0.35,2.34,0.68c4.64,2.1,9.01,0.52,12.61-1.98c6.09-4.22,9.93-10.52,12.88-17.21
			c3.16-7.16,5.94-14.49,8.79-21.78c0.63-1.6,1.4-2.54,3.24-2.35c5.17,0.53,10.37,0.92,15.53,1.53c5.17,0.61,10.32,1.38,15.47,2.15
			c1.91,0.29,3.89,1.37,5.64,1.05c2.8-0.52,5.09,0.6,7.52,1.29c2.75,0.78,4.9,2.17,5.38,5.47c0.73,4.97,1.73,9.9,2.72,14.82
			c0.38,1.88,0.89,3.78,1.68,5.52c1.11,2.46,2.82,4.67,3.77,7.17c1.5,3.96,3.63,7.1,7.46,9.25c4.12,2.31,12.84,1.9,16.16-1.46
			c3.31-3.35,5.7-7.37,7.44-11.75c0.81-2.05,1.09-4.37,2.16-6.24c1.96-3.42,1.99-7.23,2.8-10.88c1.22-5.49,0.81-11.37,4.7-16.17
			c3.31-4.1,6.1-8.62,9.32-12.8c4.96-6.41,8.65-13.26,9.94-21.46c0.73-4.65,0.5-9.71,3.63-13.8c0.16-0.22,0.14-0.57,0.22-0.86
			c1.49-4.9,2.96-9.8,4.48-14.69c0.64-2.06,1.51-4.06,2.08-6.14c0.93-3.44-0.49-5.19-4.13-5.27c-4.77-0.1-9.29,0.62-13.61,2.95
			c-5.94,3.21-11.09,7.26-15.23,12.57c-1.26,1.62-2.63,2.7-4.84,2.71c-6.36,0.02-12.72,0.42-19.07,0.27
			c-12.55-0.3-25.09-0.86-37.64-1.33c-4.33-0.16-8.65-0.49-12.98-0.54c-6.8-0.09-13.6-0.01-20.39,0c-9.5,0.01-18.99,0.02-28.49,0.06
			c-3.66,0.01-7.31,0.07-10.97,0.18C715.47,504.87,712.64,505.07,709.8,505.22z M860.55,477.95c-0.32-0.05-0.67-0.2-1.01-0.16
			c-3.03,0.33-5.79,1.3-8.6,2.63c-5.57,2.63-10.55,5.73-13.99,10.99c-1.21,1.84-1.01,4.04,0.84,5.02c0.16-0.32,0.37-0.62,0.48-0.95
			c1.63-4.82,4.83-8.36,9.2-10.79C851.73,482.33,856.12,480.22,860.55,477.95z M843.75,501.81c1.25-1.01,2.22-1.59,2.92-2.41
			c1.05-1.22,1.71-2.82,2.87-3.89c4.97-4.57,10.06-9,14.64-13.07C859.47,482.72,843.65,494.39,843.75,501.81z M508.6,269.84
			c-0.24-0.05-0.49-0.09-0.73-0.14c-0.39,1.16-0.83,2.31-1.14,3.49c-0.07,0.28,0.32,0.68,0.5,1.02c0.28-0.16,0.78-0.28,0.82-0.48
			C508.29,272.44,508.43,271.13,508.6,269.84z"/>
		<path d="M509.09,267.83c-1.66-2.61-3.3-5.2-5.24-8.25c-0.56,0.67-1.64,1.36-1.7,2.13c-0.19,2.48-0.72,5.07,0.69,7.42
			c0.64,1.06,1.36,2.06,1.94,3.24c-1.01-0.34-2.16-0.12-2.51-1.88c-0.21-1.07-2-1.84-2.2-2.91c-0.37-2-0.15-4.12-0.06-6.18
			c0.04-1.02,0.35-2.02,0.52-3.03c0.59-3.47-0.56-6.61-2.11-9.55c-3-5.68-2.9-11.62-1.92-17.69c0.33-2.03,0.68-4.07,1.05-6.09
			c0.83-4.47,1.57-8.96,2.56-13.39c0.58-2.61,1.6-5.11,2.35-7.69c0.31-1.05,0.45-2.15,0.81-3.92c-8.49,0.52-16.57,1.17-24.66,1.46
			c-7.97,0.29-15.91,1.74-23.9,1.09c-0.04-0.28-0.09-0.56-0.13-0.84c0.78-0.21,1.55-0.57,2.34-0.62c8.81-0.55,17.62-1.1,26.44-1.55
			c6.41-0.33,12.83-0.55,19.25-0.74c3.72-0.11,7.47,0.19,11.15-0.2c2.62-0.27,5.21-1.24,7.72-2.15c3.66-1.34,7.24-2.91,11.44-4.62
			c-5.73-3.03-11.02-5.88-16.38-8.59c-0.55-0.28-1.92,0.06-2.27,0.56c-2.12,3.04-4.02,6.24-6.09,9.32
			c-0.41,0.62-1.22,0.97-1.85,1.44c0.01-0.78-0.26-1.74,0.08-2.33c1.82-3.07,3.63-6.18,5.78-9.02c1.81-2.4,3.66-2.77,6.34-1.4
			c5.37,2.75,10.67,5.64,15.91,8.62c2.32,1.32,2.08,2.03-1.05,4.04c2.17,1.72,4.12,3.99,6.59,5.01c2.21,0.91,5,0.52,7.53,0.54
			c10.74,0.06,21.49-0.04,32.23,0.08c9.34,0.1,18.69,0.3,28.02,0.68c8.57,0.34,17.13,0.97,25.7,1.46c0.95,0.05,1.91,0.01,2.93,0.01
			c0.52-3.52,1.14-6.8,1.45-10.11c0.55-5.96,4.27-10.21,10.1-11.21c5-0.86,10.01-1.7,15.01-2.52c2.5-0.41,3.28,0.2,4,2.68
			c1.4,4.84,1.27,9.81,0.92,14.72c-0.11,1.58-1.62,3.07-2.51,4.59c-0.36,0.61-0.78,1.18-1.17,1.76c0.75,0.39,1.48,1.04,2.27,1.12
			c3.79,0.38,7.6,0.68,11.41,0.86c5.83,0.28,11.66,0.54,17.49,0.62c5.67,0.08,11.35-0.14,17.02-0.1c4.03,0.03,8.05,0.3,12.07,0.41
			c8.1,0.23,16.21,0.27,24.3,0.71c5.24,0.28,9.13-1.95,12.64-5.42c0.99-0.98,2.04-1.91,3.27-3.06c-2.16-0.63-4.13-1.2-6.1-1.78
			c0.08-0.29,0.16-0.58,0.24-0.87c4.4-0.54,8.6,0.99,12.88,1.59c4.34,0.61,8.62,1.64,13.08,2.52c0.09-1.62,0.18-3.14,0.26-4.67
			c0.18-0.04,0.36-0.08,0.53-0.12c0.2,0.61,0.43,1.22,0.6,1.84c0.18,0.68,0.31,1.38,0.57,2.55c5.1-7.14,5.32-15.02,6.41-22.86
			c-5.17,0-10.07-0.03-14.96,0.05c-0.42,0.01-1,0.61-1.23,1.07c-2.28,4.5-4.59,8.99-6.67,13.58c-0.61,1.35-0.49,3.04-0.71,4.64
			c-1.86,0.08-2.93-0.56-2.49-2.3c0.6-2.35,1.54-4.61,2.22-6.94c1.04-3.56,2.97-6.61,5.1-9.58c0.42-0.58,0.59-1.36,1.04-1.9
			c0.35-0.42,0.96-0.88,1.46-0.88c5.22-0.05,10.45,0.01,15.67-0.02c2.16-0.01,2.97,0.59,2.78,2.73c-0.6,6.7-1.3,13.41-3.79,19.72
			c-0.94,2.37-2.62,4.43-3.82,6.71c-0.46,0.87-0.53,1.94-0.88,3.35c3.11,0,5.94,0.02,8.78-0.01c2.84-0.03,5.68-0.23,8.51-0.12
			c6.81,0.28,13.63,0.67,20.43,1.08c6.23,0.37,12.45,1.05,18.68,1.19c7.61,0.18,15.22-0.11,22.84-0.09c2.03,0.01,4.06,0.4,6.17,1.12
			c-0.73,0.22-1.45,0.59-2.18,0.62c-6.75,0.33-13.51,0.68-20.27,0.84c-3.05,0.07-6.1-0.33-9.16-0.44c-4.6-0.17-9.21-0.23-13.81-0.42
			c-3.27-0.14-6.53-0.47-9.8-0.62c-5.44-0.26-10.88-0.52-16.32-0.65c-4.38-0.11-8.76-0.02-13.67-0.02
			c-0.36,5.39-0.82,10.55-1.01,15.73c-0.12,3.2,0.48,6.44,0.25,9.62c-0.58,7.78-1.08,15.61-4.13,22.93
			c-0.64,1.54-2.12,2.71-3.05,4.16c-1.38,2.13-2.71,4.29-3.89,6.53c-1.94,3.68-4.89,6.41-8.35,8.49c-1.51,0.91-1.73,1.79-1.41,3.24
			c0.72,3.34-0.1,5.1-3.22,6.39c-2.79,1.16-5.58,2.6-8.51,3.09c-5.25,0.88-6.44-1.24-5.99-6.24c0.13-1.44,0.75-2.83,1.18-4.38
			c2.84,0.93,2.46-1.86,3.52-2.69c-1.99-2.85-3.71-5.76-5.87-8.29c-2.89-3.39-2.75-7.42-2.88-11.37c-0.15-4.84,0.01-9.7,0.09-14.55
			c0.11-7.51,1.24-14.87,3.97-21.88c1.36-3.5,3.01-6.92,5.53-9.83c0.75-0.86,0.48-1.73-0.89-1.75c-11.14-0.13-22.27-0.21-33.41-0.39
			c-5.67-0.09-11.34-0.35-17.01-0.53c-6.65-0.22-13.3-0.43-19.94-0.68c-4.99-0.19-9.97-0.45-15.67-0.71
			c3.7,4.27,3.58,9.03,3.61,13.73c0.01,1.47-0.29,2.95-0.5,4.42c-0.44,3.09-1.08,6.16-1.36,9.27c-0.48,5.38-0.64,10.79-1.15,16.16
			c-0.27,2.79-0.53,5.77-1.65,8.27c-2.31,5.12-5.25,9.94-7.84,14.94c-1.22,2.37-3.85,4.15-3.07,7.42c0.15,0.62-0.5,1.43-0.91,2.46
			c-0.86-1-1.46-1.69-2.38-2.77c-0.12,1.17-0.23,1.92-0.26,2.68c-0.11,3.17-0.21,6.35-0.26,9.52c-0.03,2-1.23,2.24-2.84,2.19
			c-2.59-0.08-5.18-0.06-7.76-0.07c-0.45,0-0.89,0.13-1.34,0.13c-6.85,0.08-7.65-1.83-7.58-7.32c0.02-1.75,0.58-3.49,0.8-5.24
			c0.09-0.7,0.1-1.51-0.17-2.13c-1.9-4.35-3.6-8.82-5.91-12.95c-2.11-3.78-3.38-7.71-4.2-11.9c-0.91-4.66-2.41-9.25-2.83-13.95
			c-0.48-5.31-0.61-10.74,1.15-15.97c1.28-3.81,2.15-7.82,3.95-11.36c1.3-2.56,3.81-4.51,5.82-6.7c0.59-0.64,1.33-1.14,2.47-2.09
			c-30.61-2.53-60.72-2.53-91-2.41c0.83,2.22,1.79,4.43,2.48,6.73c1.49,4.95,2.92,9.93,4.21,14.93c0.28,1.08-0.19,2.34-0.19,3.52
			c0,2.5,0.18,5,0.09,7.49c-0.05,1.34-0.44,2.68-0.8,3.99c-0.77,2.8-1.42,5.66-2.48,8.35c-2.16,5.48-5.29,10.33-10.2,13.81
			c-2.16,1.53-4.39,2.96-6.52,4.51c-0.41,0.3-0.78,1-0.75,1.5c0.14,3.04,0.39,6.07,0.62,9.1c0.04,0.52,0.19,1.02,0.22,1.54
			c0.19,2.94-0.02,3.21-2.89,2.77c-3.51-0.54-6.01,1.89-9,2.89c-1.53,0.51-2.89,1.57-4.43,2.06c-2.28,0.72-4.28,0.46-4.57-1.95
			c-0.28-2.32-0.23-4.69-0.24-7.03c0-0.24,0.58-0.49,1.28-1.04c0.12,1.93,0.15,3.45,0.32,4.96c0.42,3.62,1.78,4.33,5.16,2.86
			c2.6-1.13,5.19-2.28,7.84-3.29c1.28-0.49,2.69-0.65,4.35-1.03c0-3.31,0.04-6.87-0.05-10.42c-0.01-0.55-0.56-1.23-1.05-1.56
			c-0.22-0.15-0.96,0.35-1.39,0.66c-2.92,2.13-6.05,3.53-9.75,2.58c-0.76-0.19-1.59-0.59-2.11-1.15
			C509.95,266.74,510.01,266.68,509.09,267.83z M505.49,201.78c-0.01,0.05-0.02,0.65-0.16,1.22c-1.57,6.53-3.24,13.04-4.73,19.59
			c-1.62,7.11-2.57,14.27-1.08,21.56c1.1,5.4,2.96,10.48,6.5,14.73c2.36,2.84,5.04,5.43,7.68,8.02c0.45,0.44,1.55,0.61,2.2,0.41
			c3.62-1.1,7.23-2.28,10.78-3.59c1.71-0.63,2.86-1.84,2.52-3.96c-0.25-1.57-0.43-3.16-0.48-4.75c-0.23-7.07-0.52-14.14-0.56-21.22
			c-0.04-8.5,0.12-16.99,0.29-25.49c0.01-0.71,0.75-1.41,1.16-2.11c0.29,0.12,0.57,0.23,0.86,0.35c0.18,4.15,0.49,8.31,0.52,12.46
			c0.05,6.17-0.09,12.34-0.15,18.51c-0.02,1.89-0.08,3.78,0.01,5.66c0.17,3.64,0.37,7.27,0.7,10.9c0.16,1.77,0.64,3.5,1.11,5.91
			c2.16-2.38,4.16-4.05,5.48-6.14c2.92-4.62,5.09-9.54,6.12-15.04c1.85-9.81,0.63-19.31-2.02-28.73c-0.64-2.27-1.65-4.5-2.84-6.54
			c-0.62-1.06-1.95-2.2-3.1-2.38c-2.78-0.44-5.65-0.39-8.48-0.44c-4.18-0.07-8.36-0.18-12.53-0.01
			C512.13,200.83,508.99,201.38,505.49,201.78z M628.53,264.78c0.31-0.06,0.62-0.12,0.93-0.17c2.47-19.22,4.95-38.44,7.46-57.91
			c2.18,0.28,1.32,2.01,1.25,2.97c-0.25,3.5-0.87,6.97-1.07,10.47c-0.83,14.76-3.04,29.36-4.96,44
			c-1.08,8.24,2.65,12.74,10.49,15.28c3.01,0.98,4.53,0.05,5.93-2.66c0.3-0.58,0.94-0.99,1.25-1.56c0.45-0.83,1.06-1.76,1.05-2.63
			c-0.07-3.94-0.5-7.87-0.51-11.8c-0.02-8.22,0.08-16.45,0.25-24.67c0.15-7.02,0.5-14.03,0.69-21.04c0.09-3.11,0.01-6.23,0.01-9.42
			c-0.66-0.04-1.02-0.11-1.37-0.07c-4.93,0.59-9.83,0.72-14.72-0.38c-0.65-0.15-1.62-0.05-2.1,0.34c-1.84,1.51-3.85,2.97-5.23,4.86
			c-5.33,7.31-6.87,15.74-6.65,24.61c0.14,5.65,1.28,11.09,3.02,16.46c1.01,3.12,1.6,6.36,2.53,9.51
			C627.16,262.29,627.93,263.51,628.53,264.78z M765.26,274.84c0.64-1.05,1.47-1.88,1.68-2.84c2.3-10.67,2.16-21.54,2.52-32.37
			c0.28-8.57,0.4-17.15,2.14-25.6c0.29-1.39,0.57-2.78,0.69-4.18c0.05-0.55-0.25-1.57-0.53-1.63c-0.82-0.16-1.92-0.22-2.54,0.22
			c-0.52,0.36-0.6,1.45-0.74,2.24c-0.99,5.47-2.02,10.93-2.9,16.42c-1.23,7.66-2.51,15.32-3.47,23.01
			c-0.88,7.07-1.41,14.18-2.01,21.29c-0.12,1.39-0.46,2.45-1.93,2.36c-0.31-0.02-0.8-1.55-0.74-2.36
			c0.84-11.69,1.19-23.42,3.47-34.97c0.84-4.24,1.35-8.54,2.09-12.8c0.89-5.13,1.85-10.26,2.85-15.78c-2.49,0-4.73-0.11-6.95,0.06
			c-0.76,0.06-1.68,0.62-2.18,1.23c-5.15,6.44-7.45,14.08-8.54,22.05c-0.84,6.2-1.29,12.49-1.47,18.75c-0.12,4.27-0.19,8.77,1,12.79
			c1.57,5.31,5.31,9.61,9.89,12.8c1,0.7,3.03-0.08,4.58-0.18c-0.17-1.09-0.33-2.18-0.52-3.27c-0.12-0.67-0.29-1.33-0.44-1.99
			c0.26-0.09,0.52-0.19,0.78-0.28C762.95,271.3,763.93,272.8,765.26,274.84z M653.77,272.39c0.31,0.07,0.62,0.14,0.94,0.21
			c1.27-1.77,2.8-3.41,3.77-5.33c3.6-7.16,6.08-14.58,6.42-22.76c0.33-7.88,1.49-15.73,2.28-23.59c0.41-4.11,0.78-8.26-1.01-12.14
			c-0.66-1.43-1.71-3.41-2.91-3.69c-2.63-0.62-5.47-0.34-8.23-0.35c-1.16,0-1.37,0.75-1.34,1.84c0.13,3.73,0.19,7.47,0.19,11.2
			c-0.01,9.19-0.08,18.37-0.1,27.56C653.75,254.35,653.77,263.37,653.77,272.39z M770.15,269.86c0.18,0.2,0.36,0.41,0.55,0.61
			c0.28-0.57,0.51-1.18,0.86-1.71c2.13-3.32,4.23-6.66,6.43-9.93c2.86-4.27,4.43-9.05,4.87-14.05c0.57-6.53,0.49-13.12,0.83-19.68
			c0.25-4.77,0.68-9.53,1.12-14.29c0.23-2.44,0.03-2.77-2.41-2.78c-1.35-0.01-2.69,0-4.04,0.01c-2.79,0.02-3.63,0.75-3.95,3.58
			c-0.42,3.62-0.88,7.25-1.11,10.88c-0.17,2.53,0.11,5.08,0.01,7.62c-0.19,4.54-0.66,9.07-0.76,13.61
			C772.35,252.5,771.99,261.25,770.15,269.86z M653.53,196.14c2.62-0.3,4.91,0.39,6.7,2.24c1.34,1.38,2.31,1.15,3.2-0.28
			c0.58-0.93,1.38-1.97,1.4-2.98c0.08-4.31-0.1-8.62-0.19-12.93c-0.03-1.62-0.82-2.19-2.44-1.9c-5,0.89-10.03,1.59-15,2.61
			c-1.75,0.36-3.49,0.95-4.64,2.78c-2.79,4.45-3.03,9.47-3.47,14.41c-0.16,1.78,1.48,2.62,3.26,2.67c1.64,0.04,3.29,0.01,4.93,0.08
			c1.98,0.09,4.06,0.51,4.86-2.11c0.02-0.07,0.26-0.07,0.4-0.1c1.96,2.51,1.96,2.51,7.56-0.25
			C657.76,198.87,655.74,197.57,653.53,196.14z M648.22,281.11c-4.58,1.66-8.37,0.73-11.84-1.55c-1.41-0.93-1.95-0.51-2.08,0.82
			c-0.25,2.57-0.12,5.2-0.55,7.73c-0.42,2.5,0.81,3.37,2.85,3.46c3.41,0.14,6.82,0.1,10.23,0.02c0.47-0.01,1.31-0.62,1.32-0.97
			C648.27,287.55,648.22,284.47,648.22,281.11z M753.87,275.81c-1.24,3.08-2.37,5.73-3.35,8.43c-0.62,1.69,0.09,2.58,1.94,2.43
			c3.72-0.32,7.15-1.37,9.94-4.01c1.63-1.54,1.82-3.18,0.56-5.33C759.84,278.28,756.72,278.85,753.87,275.81z M770.24,205.63
			c1.78-0.13,3.46-0.37,5.13-0.33c2.58,0.06,5.17,0.43,7.75,0.42c0.67,0,1.74-0.83,1.92-1.48c0.32-1.08,0.32-2.48-1.29-2.86
			c-4.41-1.03-8.82-2.06-13.24-3.03c-0.53-0.12-1.14,0.17-2.36,0.37C771.23,200.63,769.76,203.09,770.24,205.63z M535.63,199.01
			c-3.94-4.16-6.54-3.36-13.12,0C526.82,199.01,531.13,199.01,535.63,199.01z M767.86,198.79c-0.22-0.09-0.44-0.18-0.66-0.27
			c-2.22,2.11-4.45,4.21-6.67,6.32c1.75,0.62,3.15,0.79,4.54,0.74c0.57-0.02,1.51-0.42,1.61-0.82
			C767.2,202.8,767.49,200.79,767.86,198.79z"/>
		<path d="M645.33,395.3c0.14,1.26,0.26,2.3,0.43,3.8c5.52,0,11.03,0,16.53,0c3.77-2.88,5.36,1.63,8.05,2.42
			c0.19,0.05,0.4,0.83,0.3,0.91c-0.42,0.35-1.07,0.9-1.42,0.78c-1.59-0.55-3.14-1.25-4.65-2.01c-0.57-0.29-1.01-0.86-1.59-1.38
			c-1.28,2.02-3.22,1.99-5.19,1.97c-4.16-0.03-8.31-0.01-13.03-0.01c0.57,0.89,0.82,1.35,1.14,1.76c3.93,4.98,9.2,8.18,14.66,11.18
			c1.67,0.92,2.97,2.52,4.51,3.71c0.54,0.42,1.29,0.69,1.98,0.8c10.8,1.6,21.61,3.09,32.4,4.75c7.3,1.12,14.57,2.48,21.85,3.71
			c4.12,0.69,8.28,1.16,12.35,2.04c5.6,1.2,11.17,2.59,16.69,4.09c3.05,0.83,5.99,2.05,8.97,3.13c1.42,0.52,2.35,0.5,3.23-1.13
			c1.29-2.41,3.1-4.54,4.53-6.88c0.53-0.87,0.62-2.01,0.89-3.04c0.51-1.89,1.01-3.78,1.55-5.76c1.51,0.59,1.1,2.17,0.83,3.3
			c-0.71,3.02-1.46,6.08-2.65,8.93c-1.01,2.41-2.71,4.52-3.99,6.82c-1.01,1.81-1.86,3.71-2.78,5.57c-1.48,2.99-3.04,5.95-4.42,8.99
			c-1.71,3.77-3.04,7.73-4.95,11.39c-1.92,3.67-4.34,7.07-6.55,10.59c-0.54,0.86-1.07,1.76-1.75,2.5c-2.89,3.18-5.68,6.48-8.8,9.42
			c-3.35,3.16-6.91,6.15-10.61,8.9c-3.2,2.38-6.67,4.41-10.14,6.41c-6.34,3.66-13.45,4.89-20.51,6.25
			c-6.07,1.17-12.09,2.79-18.21,3.49c-7.87,0.9-15.8,0.32-23.66-0.81c-4.65-0.67-9.33-1.19-13.96-2.02
			c-1.78-0.32-3.46-1.25-5.14-1.99c-5.31-2.32-10.61-4.68-16.05-7.09c0.12-0.09-0.09-0.01-0.09,0.08
			c-0.32,7.89-3.93,13.88-10.45,18.19c-3.11,2.05-6.14,4.27-9.42,6.01c-4.4,2.33-9.31,0.85-11.76-3.52
			c-1.54-2.73-2.72-5.71-3.67-8.71c-0.47-1.47-0.49-3.36,0.01-4.82c2.27-6.7,4.57-13.41,7.32-19.93c1.27-3.03,3.49-5.69,5.47-8.37
			c0.75-1.02,0.76-1.61,0.26-2.74c-3.06-6.95-6.47-13.81-8.8-21.01c-2.65-8.18-4.28-16.69-6.37-25.05
			c-2.33-9.31-4.63-18.62-5.34-28.25c-0.75-10.14-1.31-20.26,0.94-30.28c0.85-3.78,2.08-7.46,3.11-11.2
			c0.2-0.71,0.35-1.45,0.38-2.18c0.11-2.43,1.07-3.06,3.23-1.76c2.62,1.57,5.22,3.22,7.64,5.09c6.38,4.93,12.59,10.08,18.98,15
			c4.84,3.73,9.81,7.29,14.81,10.81c0.66,0.46,1.87,0.46,2.72,0.26c5.81-1.36,11.54-3.29,17.42-4.13c6.25-0.9,12.64-0.88,18.98-1.12
			c3.58-0.14,7.18-0.18,10.76,0.07c9.61,0.66,19.24,1.25,28.81,2.36c4.7,0.55,9.3,2.09,13.88,3.41c1.91,0.55,3.47,0.46,5.03-0.71
			c5.36-4.05,10.7-8.12,16.1-12.11c4.68-3.46,9.44-6.81,14.14-10.24c5-3.65,9.94-7.39,14.97-10.99c2.73-1.95,4.07-1.24,4.63,1.96
			c0.63,3.59,1.6,7.13,2.2,10.73c0.46,2.78,0.67,5.61,0.84,8.42c0.52,8.64,0.98,17.28,1.42,25.92c0.22,4.39,0.37,8.79,0.49,13.19
			c0.09,3.28-0.45,3.36-3.67,3.4c-2.65,0.04-4.74-1.06-6.55-2.41c-7.57-5.62-16.16-8.08-25.36-9.35c-7.68-1.06-15.26-2.84-22.89-4.3
			c-10.34-1.98-20.63-4.34-31.04-5.78c-7.08-0.98-14.33-0.67-21.51-0.93c-4.79-0.17-9.57-0.33-14.36-0.47
			C648.05,395.27,646.72,395.3,645.33,395.3z M761.59,439.59c-2.66-1-4.83-2.06-7.13-2.62c-9.2-2.27-18.39-4.64-27.69-6.47
			c-8.79-1.73-17.7-2.89-26.57-4.21c-11-1.63-21.99-3.35-33.02-4.69c-10.71-1.3-21.49-1.41-32.26-0.75
			c-8.64,0.53-17.3,0.99-25.93,1.72c-9.34,0.79-18.33,3.09-27.15,7.04c0.61,2.02,1.3,3.98,1.77,6c1.01,4.36,1.62,8.85,2.92,13.11
			c1.94,6.33,4.2,12.57,6.6,18.74c1.26,3.25,3.01,6.33,4.74,9.36c0.39,0.69,1.64,1.27,2.48,1.25c5.47-0.11,12.05,5.44,12.9,10.83
			c0.36,2.27,0.37,4.78,2.91,6.17c4.29,2.34,8.4,5.05,12.79,7.17c3.47,1.68,7.16,3.17,10.91,3.95c6.85,1.42,13.79,2.4,20.73,3.28
			c8.78,1.12,17.54,0.87,26.2-1.17c6.27-1.47,12.58-2.85,18.8-4.52c7.11-1.91,13.54-5.25,19.08-10.17c2.5-2.22,4.95-4.5,7.42-6.76
			c2.64-2.41,5.55-4.6,7.83-7.31c3.05-3.64,5.66-7.66,8.33-11.61c1.1-1.62,2-3.4,2.77-5.2c1.11-2.59,1.87-5.35,3.06-7.9
			C756.46,449.77,759.02,444.79,761.59,439.59z M579.55,358.74c-1.63,7.68-3.36,14.55-4.49,21.51c-1.14,7.01-0.55,14.07,0.43,21.11
			c3.67-1.18,6.91-2.51,10.28-3.26c10.74-2.41,21.64-3.56,32.65-3.89c8.05-0.24,16.1-0.99,24.15-0.97
			c11.89,0.03,23.78,0.6,35.67,0.81c10.17,0.18,19.96,2.66,29.81,4.77c5.31,1.14,10.57,2.59,15.9,3.59
			c6.96,1.31,13.98,2.36,20.99,3.44c4.01,0.62,7.92,1.49,11.49,3.54c0.5,0.29,1.15,0.32,1.51,0.41c-0.35-9.21-0.69-18.17-1.04-27.46
			c-6.66,5.15-11.46,11.81-17.51,17.09c-0.27-0.25-0.55-0.5-0.82-0.74c1.49-2.07,2.76-4.34,4.51-6.16
			c4.49-4.68,9.15-9.19,13.85-13.66c0.63-0.6,1.91-0.96,2.71-0.75c0.52,0.14,0.97,1.49,1.02,2.33c0.38,6.04,0.77,12.08,0.92,18.13
			c0.1,4.26-0.19,8.54-0.31,13.28c2.82,1.67,6.21,3.68,9.6,5.68c0.2-0.17,0.4-0.34,0.61-0.51c-1.89-19.83-0.29-39.94-5.11-59.87
			c-1.21,0.72-2.33,1.28-3.33,2.01c-4.58,3.32-9.13,6.67-13.67,10.04c-9.11,6.76-18.19,13.54-27.31,20.29
			c-2.14,1.58-4.19,2.49-7.19,1.59c-8.3-2.47-16.73-4.57-25.44-4.99c-9.19-0.44-18.38-0.67-27.57-1.05
			c-11.64-0.48-23.02,0.86-34.03,4.77c-3.36,1.2-6.33,1.47-9.4-1.01c-8.61-6.95-17.35-13.73-26.09-20.53
			C588.28,365.17,584.14,362.17,579.55,358.74z M580.93,427.17c1.21-0.43,1.96-0.74,2.74-0.98c4.96-1.51,9.83-3.58,14.9-4.37
			c9.35-1.47,18.79-2.67,28.23-3.1c10.97-0.5,21.98-0.04,32.97-0.01c0.37,0,0.73-0.17,1.67-0.39c-7.16-3.56-13.98-6.68-18.39-13.21
			c-0.73,0.61-1.16,1-1.62,1.36c-3.34,2.56-6.84,4.81-11.12,5.41c-2.55,0.36-3.84-0.59-4.15-2.94c6.01,1.05,13.34-2.23,14.84-6.96
			c-4.29,0.41-8.43,0.83-12.58,1.17c-0.57,0.05-1.17-0.31-1.75-0.48c0.31-0.54,0.5-1.41,0.94-1.58c1.73-0.64,3.51-1.3,5.33-1.5
			c3.15-0.35,6.34-0.38,9.48-0.54c0.14-3.57,0.13-3.68-3.01-3.52c-13.22,0.66-26.45,1.11-39.63,2.21c-7.4,0.62-14.82,1.85-21.8,4.79
			c-1.26,0.53-1.75,1.25-1.55,2.53c0.64,4.12,1.17,8.26,1.98,12.35C579.04,420.61,580.03,423.74,580.93,427.17z M610.96,506.06
			c-0.2-0.09-0.4-0.17-0.6-0.26c0.04-0.94,0-1.9,0.14-2.82c0.67-4.51,0.45-8.65-4.19-11.19c-0.82-0.45-1.48-1.24-2.15-1.94
			c-2.57-2.67-5.1-5.37-7.95-8.37c-1.16,1.32-2.52,2.51-3.43,3.97c-3.79,6.06-6.08,12.77-8.26,19.54
			c-1.81,5.63-0.29,10.46,2.94,14.96c2.33,3.25,4.74,4.06,8.33,2.27c3.7-1.84,7.02-4.43,10.64-6.45c4.22-2.35,5.76-6.26,6.69-10.59
			c0.17-0.77,0.02-1.6,0.02-2.85C612.23,503.88,611.59,504.97,610.96,506.06z M610.61,490.85c-0.51-4.46-6.98-10.5-10.69-10.4
			C603.44,483.87,606.8,487.14,610.61,490.85z"/>
		<path d="M709.8,505.22c2.84-0.15,5.67-0.35,8.51-0.44c3.65-0.11,7.31-0.17,10.97-0.18c9.5-0.04,18.99-0.04,28.49-0.06
			c6.8-0.01,13.6-0.08,20.39,0c4.33,0.06,8.65,0.38,12.98,0.54c12.55,0.47,25.09,1.03,37.64,1.33c6.35,0.15,12.71-0.24,19.07-0.27
			c2.22-0.01,3.58-1.09,4.84-2.71c4.14-5.31,9.29-9.37,15.23-12.57c4.32-2.33,8.84-3.05,13.61-2.95c3.64,0.08,5.06,1.83,4.13,5.27
			c-0.56,2.08-1.43,4.08-2.08,6.14c-1.52,4.89-2.99,9.79-4.48,14.69c-0.09,0.28-0.06,0.64-0.22,0.86c-3.12,4.09-2.89,9.15-3.63,13.8
			c-1.29,8.2-4.98,15.04-9.94,21.46c-3.23,4.17-6.01,8.7-9.32,12.8c-3.89,4.81-3.48,10.69-4.7,16.17c-0.81,3.65-0.84,7.46-2.8,10.88
			c-1.08,1.87-1.35,4.19-2.16,6.24c-1.73,4.38-4.13,8.4-7.44,11.75c-3.32,3.36-12.04,3.77-16.16,1.46
			c-3.82-2.15-5.95-5.29-7.46-9.25c-0.95-2.5-2.65-4.71-3.77-7.17c-0.79-1.74-1.3-3.64-1.68-5.52c-1-4.92-1.99-9.85-2.72-14.82
			c-0.48-3.29-2.64-4.69-5.38-5.47c-2.43-0.69-4.71-1.81-7.52-1.29c-1.75,0.33-3.74-0.76-5.64-1.05c-5.15-0.77-10.3-1.54-15.47-2.15
			c-5.17-0.61-10.36-1-15.53-1.53c-1.84-0.19-2.62,0.75-3.24,2.35c-2.85,7.29-5.63,14.62-8.79,21.78
			c-2.95,6.68-6.79,12.99-12.88,17.21c-3.6,2.5-7.97,4.08-12.61,1.98c-0.73-0.33-1.61-0.35-2.34-0.68
			c-2.61-1.21-4.64-2.76-5.76-5.78c-1.11-3-3.08-5.59-5.84-7.74c-1.94-1.51-3.22-4.32-3.98-6.8c-1.91-6.18-3.63-12.46-4.87-18.8
			c-0.79-4.06-0.32-8.35-0.91-12.47c-0.88-6.16-1.96-12.32-3.4-18.38c-0.93-3.9-3.96-6.56-7.26-8.65c-3.72-2.36-7.62-4.44-11.4-6.7
			c-1.15-0.69-2.61-1.3-2.25-3.53c4.86,2.79,9.57,5.38,14.15,8.17c1.95,1.19,3.8,2.65,5.45,4.23c3.67,3.53,5.27,8.02,5.6,13.05
			c0.46,7.15,0.7,14.34,1.6,21.44c1.08,8.58,2.71,17.1,6.86,24.88c0.31,0.58,0.68,1.23,1.21,1.59c3.37,2.31,5,5.83,6.85,9.27
			c0.68,1.27,1.95,2.45,3.24,3.12c5.18,2.69,10.43,3.01,15.53-0.34c0.56-0.37,1.09-0.79,1.55-1.26c4.04-4.15,6.62-9.18,8.82-14.48
			c2.02-4.86,4.36-9.59,6.44-14.43c1.05-2.45,1.81-5.02,2.78-7.51c1.09-2.81,2.73-3.72,5.75-3.77c7.3-0.12,14.4,1.08,21.5,2.6
			c3.92,0.84,8,0.91,11.98,1.54c4.6,0.74,9.17,1.74,13.76,2.58c2.79,0.51,3.56,2.53,4.03,4.94c1.23,6.3,2.01,12.74,3.97,18.81
			c1.74,5.38,4.31,10.66,7.43,15.39c3.25,4.94,11.29,6.22,15.6,2.73c2.35-1.91,3.67-5.11,5.41-7.76c0.48-0.74,0.8-1.59,1.17-2.4
			c0.73-1.59,1.6-3.13,2.12-4.79c1-3.22,1.88-6.48,2.66-9.76c0.49-2.07,0.71-4.2,1.03-6.31c0.29-1.89,0.46-3.79,0.84-5.66
			c0.32-1.57,0.85-3.09,1.34-4.62c0.2-0.62,0.45-1.26,0.83-1.8c3.53-5.02,7.1-10.01,10.65-15.02c2.13-3.02,4.41-5.95,6.32-9.1
			c2.98-4.92,4.11-10.48,5.05-16.08c0.17-1.03,0.33-2.1,0.74-3.04c0.61-1.41,0.71-2.56-0.91-3.32c5.59-8.56,6.35-18.64,10.45-28.13
			c-4.48,0.28-8.24-0.18-11.92,1.68c-5.23,2.65-10,5.88-14.21,9.91c-1.64,1.58-2.84,3.61-4.44,5.24c-0.64,0.65-1.8,1.08-2.73,1.09
			c-11.3,0.12-22.6,0.26-33.9,0.15c-8.87-0.09-17.74-0.62-26.61-0.79c-9.18-0.18-18.37-0.14-27.55-0.22
			c-8.14-0.07-16.29-0.3-24.43-0.24c-7.99,0.07-15.97,0.46-23.96,0.61c-1.42,0.03-2.85-0.45-4.28-0.7
			C709.77,506.06,709.79,505.64,709.8,505.22z"/>
		<path d="M860.55,477.95c-4.43,2.27-8.82,4.38-13.08,6.74c-4.37,2.42-7.57,5.96-9.2,10.79c-0.11,0.33-0.32,0.63-0.48,0.95
			c-1.85-0.98-2.05-3.18-0.84-5.02c3.44-5.26,8.42-8.36,13.99-10.99c2.81-1.33,5.57-2.3,8.6-2.63
			C859.88,477.75,860.24,477.9,860.55,477.95z"/>
		<path d="M843.75,501.81c-0.11-7.42,15.72-19.09,20.43-19.37c-4.58,4.07-9.67,8.5-14.64,13.07c-1.16,1.07-1.83,2.67-2.87,3.89
			C845.97,500.21,845,500.8,843.75,501.81z"/>
		<path d="M508.6,269.84c-0.17,1.3-0.3,2.61-0.54,3.89c-0.04,0.21-0.54,0.33-0.82,0.48c-0.18-0.34-0.58-0.74-0.5-1.02
			c0.3-1.18,0.75-2.33,1.14-3.49C508.11,269.74,508.35,269.79,508.6,269.84z"/>
		<path class="vol1_7_st0" d="M505.49,201.78c3.5-0.4,6.64-0.95,9.79-1.08c4.17-0.17,8.35-0.06,12.53,0.01c2.83,0.04,5.7,0,8.48,0.44
			c1.15,0.18,2.48,1.31,3.1,2.38c1.2,2.04,2.2,4.27,2.84,6.54c2.65,9.42,3.87,18.92,2.02,28.73c-1.04,5.5-3.21,10.42-6.12,15.04
			c-1.32,2.09-3.31,3.76-5.48,6.14c-0.46-2.41-0.95-4.14-1.11-5.91c-0.33-3.62-0.52-7.26-0.7-10.9c-0.09-1.88-0.03-3.77-0.01-5.66
			c0.05-6.17,0.2-12.34,0.15-18.51c-0.03-4.15-0.34-8.31-0.52-12.46c-0.29-0.12-0.57-0.23-0.86-0.35c-0.4,0.7-1.14,1.4-1.16,2.11
			c-0.17,8.5-0.33,16.99-0.29,25.49c0.04,7.07,0.33,14.15,0.56,21.22c0.05,1.59,0.23,3.18,0.48,4.75c0.34,2.12-0.81,3.33-2.52,3.96
			c-3.55,1.31-7.16,2.49-10.78,3.59c-0.65,0.2-1.75,0.03-2.2-0.41c-2.64-2.59-5.32-5.18-7.68-8.02c-3.54-4.26-5.4-9.34-6.5-14.73
			c-1.49-7.29-0.54-14.45,1.08-21.56c1.5-6.55,3.16-13.06,4.73-19.59C505.48,202.43,505.49,201.83,505.49,201.78z M505.32,246.05
			c2.34-4.47,5.9-39.21,4.33-41.41C508.34,205.97,504.23,244.14,505.32,246.05z"/>
		<path class="vol1_7_st0" d="M628.53,264.78c-0.6-1.27-1.36-2.49-1.76-3.82c-0.93-3.14-1.53-6.39-2.53-9.51
			c-1.73-5.37-2.87-10.81-3.02-16.46c-0.22-8.87,1.32-17.3,6.65-24.61c1.38-1.89,3.39-3.34,5.23-4.86c0.48-0.4,1.44-0.49,2.1-0.34
			c4.89,1.11,9.8,0.98,14.72,0.38c0.35-0.04,0.72,0.03,1.37,0.07c0,3.19,0.07,6.31-0.01,9.42c-0.2,7.01-0.55,14.02-0.69,21.04
			c-0.17,8.22-0.27,16.45-0.25,24.67c0.01,3.93,0.44,7.87,0.51,11.8c0.02,0.87-0.6,1.8-1.05,2.63c-0.31,0.58-0.95,0.98-1.25,1.56
			c-1.4,2.7-2.92,3.63-5.93,2.66c-7.84-2.54-11.57-7.05-10.49-15.28c1.92-14.64,4.14-29.24,4.96-44c0.2-3.5,0.82-6.97,1.07-10.47
			c0.07-0.96,0.93-2.69-1.25-2.97c-2.51,19.47-4.98,38.69-7.46,57.91C629.15,264.67,628.84,264.72,628.53,264.78z"/>
		<path class="vol1_7_st0" d="M765.26,274.84c-1.33-2.04-2.3-3.54-3.28-5.03c-0.26,0.09-0.52,0.19-0.78,0.28c0.15,0.66,0.33,1.32,0.44,1.99
			c0.19,1.09,0.35,2.18,0.52,3.27c-1.55,0.1-3.58,0.87-4.58,0.18c-4.58-3.19-8.32-7.49-9.89-12.8c-1.19-4.02-1.12-8.52-1-12.79
			c0.18-6.26,0.63-12.55,1.47-18.75c1.08-7.97,3.39-15.61,8.54-22.05c0.49-0.62,1.41-1.18,2.18-1.23c2.22-0.16,4.46-0.06,6.95-0.06
			c-1,5.52-1.96,10.64-2.85,15.78c-0.73,4.26-1.25,8.56-2.09,12.8c-2.28,11.55-2.63,23.28-3.47,34.97c-0.06,0.8,0.43,2.34,0.74,2.36
			c1.47,0.1,1.82-0.97,1.93-2.36c0.59-7.1,1.12-14.22,2.01-21.29c0.96-7.7,2.24-15.35,3.47-23.01c0.88-5.49,1.91-10.95,2.9-16.42
			c0.14-0.79,0.22-1.88,0.74-2.24c0.62-0.43,1.71-0.38,2.54-0.22c0.29,0.06,0.58,1.08,0.53,1.63c-0.13,1.4-0.41,2.8-0.69,4.18
			c-1.74,8.45-1.86,17.03-2.14,25.6c-0.35,10.83-0.21,21.7-2.52,32.37C766.73,272.96,765.9,273.79,765.26,274.84z"/>
		<path class="vol1_7_st0" d="M653.77,272.39c0-9.02-0.02-18.04,0-27.06c0.02-9.19,0.1-18.37,0.1-27.56c0-3.74-0.06-7.47-0.19-11.2
			c-0.04-1.09,0.18-1.84,1.34-1.84c2.76,0.01,5.6-0.27,8.23,0.35c1.21,0.28,2.26,2.27,2.91,3.69c1.78,3.88,1.42,8.03,1.01,12.14
			c-0.79,7.86-1.95,15.71-2.28,23.59c-0.34,8.18-2.83,15.61-6.42,22.76c-0.97,1.92-2.5,3.56-3.77,5.33
			C654.39,272.53,654.08,272.46,653.77,272.39z"/>
		<path class="vol1_7_st0" d="M770.15,269.86c1.84-8.61,2.19-17.36,2.39-26.13c0.1-4.54,0.57-9.07,0.76-13.61
			c0.11-2.53-0.17-5.09-0.01-7.62c0.24-3.64,0.7-7.26,1.11-10.88c0.33-2.83,1.16-3.56,3.95-3.58c1.35-0.01,2.69-0.02,4.04-0.01
			c2.43,0.02,2.63,0.35,2.41,2.78c-0.44,4.76-0.87,9.52-1.12,14.29c-0.34,6.56-0.26,13.15-0.83,19.68c-0.44,5-2.01,9.79-4.87,14.05
			c-2.2,3.28-4.3,6.61-6.43,9.93c-0.34,0.53-0.57,1.14-0.86,1.71C770.52,270.27,770.33,270.06,770.15,269.86z"/>
		<path class="vol1_7_st0" d="M653.53,196.14c2.21,1.43,4.23,2.73,6.56,4.23c-5.6,2.76-5.6,2.76-7.56,0.25c-0.14,0.03-0.38,0.03-0.4,0.1
			c-0.8,2.62-2.88,2.2-4.86,2.11c-1.64-0.08-3.28-0.04-4.93-0.08c-1.78-0.05-3.42-0.89-3.26-2.67c0.44-4.94,0.68-9.96,3.47-14.41
			c1.15-1.83,2.9-2.42,4.64-2.78c4.97-1.01,10-1.72,15-2.61c1.62-0.29,2.41,0.28,2.44,1.9c0.09,4.31,0.27,8.63,0.19,12.93
			c-0.02,1-0.81,2.05-1.4,2.98c-0.89,1.42-1.86,1.66-3.2,0.28C658.44,196.54,656.15,195.85,653.53,196.14z"/>
		<path class="vol1_7_st0" d="M648.22,281.11c0,3.36,0.04,6.44-0.06,9.52c-0.01,0.35-0.85,0.96-1.32,0.97c-3.41,0.07-6.83,0.12-10.23-0.02
			c-2.04-0.08-3.26-0.96-2.85-3.46c0.42-2.54,0.29-5.16,0.55-7.73c0.13-1.33,0.67-1.76,2.08-0.82
			C639.85,281.84,643.64,282.77,648.22,281.11z"/>
		<path class="vol1_7_st0" d="M753.87,275.81c2.85,3.04,5.96,2.47,9.09,1.52c1.26,2.15,1.07,3.79-0.56,5.33c-2.79,2.64-6.22,3.69-9.94,4.01
			c-1.85,0.16-2.56-0.73-1.94-2.43C751.51,281.54,752.64,278.89,753.87,275.81z"/>
		<path class="vol1_7_st0" d="M770.24,205.63c-0.48-2.54,0.98-5-2.1-6.9c1.22-0.21,1.83-0.49,2.36-0.37c4.42,0.97,8.83,1.99,13.24,3.03
			c1.61,0.38,1.61,1.77,1.29,2.86c-0.19,0.65-1.25,1.47-1.92,1.48c-2.58,0.01-5.16-0.36-7.75-0.42
			C773.7,205.26,772.02,205.51,770.24,205.63z"/>
		<path class="vol1_7_st0" d="M535.63,199.01c-4.5,0-8.81,0-13.12,0C529.09,195.65,531.69,194.85,535.63,199.01z"/>
		<path class="vol1_7_st0" d="M767.86,198.79c-0.37,2-0.66,4.01-1.18,5.97c-0.11,0.4-1.04,0.8-1.61,0.82c-1.39,0.05-2.78-0.12-4.54-0.74
			c2.22-2.11,4.45-4.21,6.67-6.32C767.43,198.61,767.64,198.7,767.86,198.79z"/>
		<path class="vol1_7_st0" d="M761.59,439.59c-2.57,5.2-5.13,10.18-7.49,15.26c-1.19,2.55-1.94,5.31-3.06,7.9c-0.77,1.8-1.67,3.59-2.77,5.2
			c-2.67,3.94-5.28,7.96-8.33,11.61c-2.27,2.72-5.19,4.9-7.83,7.31c-2.47,2.26-4.92,4.54-7.42,6.76
			c-5.54,4.91-11.97,8.26-19.08,10.17c-6.22,1.67-12.53,3.04-18.8,4.52c-8.66,2.03-17.42,2.28-26.2,1.17
			c-6.94-0.88-13.89-1.86-20.73-3.28c-3.76-0.78-7.44-2.27-10.91-3.95c-4.39-2.13-8.49-4.84-12.79-7.17
			c-2.54-1.39-2.56-3.9-2.91-6.17c-0.85-5.39-7.43-10.94-12.9-10.83c-0.84,0.02-2.09-0.57-2.48-1.25c-1.73-3.04-3.48-6.11-4.74-9.36
			c-2.4-6.17-4.66-12.41-6.6-18.74c-1.31-4.27-1.91-8.75-2.92-13.11c-0.47-2.01-1.17-3.97-1.77-6c8.82-3.94,17.81-6.25,27.15-7.04
			c8.63-0.73,17.28-1.19,25.93-1.72c10.77-0.66,21.55-0.55,32.26,0.75c11.03,1.34,22.02,3.05,33.02,4.69
			c8.87,1.32,17.78,2.48,26.57,4.21c9.29,1.83,18.48,4.21,27.69,6.47C756.75,437.53,758.92,438.59,761.59,439.59z M642.74,459.73
			c-0.16-5.81-0.56-9.81-3.68-12.9c-0.56-0.55-1.54-1.04-2.28-0.98c-2.51,0.2-4.58,1.28-5.6,3.78c-1.16,2.82-3,5.34-3.08,8.63
			c-0.06,2.65-0.72,5.24,0.21,7.9c1.35,3.85,6.11,6.15,8.29,3.61C639.48,466.4,643.49,463.41,642.74,459.73z"/>
		<path class="vol1_7_st0" d="M579.55,358.74c4.59,3.43,8.73,6.43,12.76,9.56c8.74,6.79,17.48,13.57,26.09,20.53
			c3.07,2.48,6.04,2.2,9.4,1.01c11.01-3.92,22.39-5.25,34.03-4.77c9.19,0.38,18.39,0.61,27.57,1.05c8.71,0.42,17.14,2.52,25.44,4.99
			c3.01,0.89,5.06-0.01,7.19-1.59c9.11-6.75,18.2-13.54,27.31-20.29c4.54-3.37,9.09-6.72,13.67-10.04c1-0.73,2.12-1.29,3.33-2.01
			c4.82,19.93,3.22,40.04,5.11,59.87c-0.2,0.17-0.4,0.34-0.61,0.51c-3.39-2.01-6.79-4.02-9.6-5.68c0.13-4.74,0.41-9.02,0.31-13.28
			c-0.14-6.05-0.54-12.09-0.92-18.13c-0.05-0.84-0.5-2.19-1.02-2.33c-0.8-0.21-2.09,0.15-2.71,0.75
			c-4.69,4.47-9.36,8.99-13.85,13.66c-1.75,1.82-3.02,4.1-4.51,6.16c0.27,0.25,0.55,0.5,0.82,0.74
			c6.06-5.28,10.85-11.94,17.51-17.09c0.35,9.29,0.69,18.25,1.04,27.46c-0.36-0.09-1.01-0.12-1.51-0.41
			c-3.57-2.05-7.47-2.92-11.49-3.54c-7.01-1.08-14.02-2.13-20.99-3.44c-5.34-1.01-10.59-2.46-15.9-3.59
			c-9.85-2.11-19.63-4.59-29.81-4.77c-11.89-0.21-23.78-0.78-35.67-0.81c-8.05-0.02-16.1,0.73-24.15,0.97
			c-11,0.33-21.91,1.48-32.65,3.89c-3.37,0.75-6.61,2.08-10.28,3.26c-0.98-7.03-1.57-14.09-0.43-21.11
			C576.2,373.29,577.92,366.43,579.55,358.74z M600.85,391.48c-1.46-1.03-3.14-1.92-4.42-3.2c-1.47-1.46-2.51-3.34-3.87-4.92
			c-1.6-1.86-3.26-3.7-5.06-5.35c-1.34-1.23-3.57-0.66-3.69,0.98c-0.3,3.99-0.3,8-0.24,12c0.01,0.56,1.06,1.1,1.63,1.65
			c0.3-0.76,0.88-1.52,0.85-2.27c-0.11-3-0.41-5.99-0.63-8.98c0.26-0.11,0.52-0.22,0.77-0.33c2.43,3.16,5.01,6.21,7.24,9.51
			C595.41,393.53,596.83,394.98,600.85,391.48z"/>
		<path class="vol1_7_st0" d="M580.93,427.17c-0.9-3.43-1.89-6.56-2.53-9.76c-0.81-4.09-1.33-8.23-1.98-12.35c-0.2-1.28,0.29-2,1.55-2.53
			c6.98-2.94,14.39-4.17,21.8-4.79c13.18-1.1,26.42-1.54,39.63-2.21c3.14-0.16,3.15-0.05,3.01,3.52c-3.14,0.16-6.33,0.18-9.48,0.54
			c-1.81,0.2-3.6,0.86-5.33,1.5c-0.45,0.17-0.64,1.03-0.94,1.58c0.58,0.17,1.18,0.53,1.75,0.48c4.15-0.34,8.29-0.76,12.58-1.17
			c-1.5,4.73-8.83,8.01-14.84,6.96c0.31,2.35,1.6,3.29,4.15,2.94c4.28-0.6,7.78-2.85,11.12-5.41c0.46-0.35,0.9-0.75,1.62-1.36
			c4.41,6.53,11.23,9.64,18.39,13.21c-0.93,0.23-1.3,0.4-1.67,0.39c-10.99-0.03-22-0.49-32.97,0.01c-9.44,0.43-18.89,1.63-28.23,3.1
			c-5.07,0.8-9.94,2.87-14.9,4.37C582.89,426.43,582.14,426.74,580.93,427.17z"/>
		<path class="vol1_7_st0" d="M610.96,506.06c0.64-1.09,1.27-2.18,2.18-3.72c0,1.24,0.14,2.08-0.02,2.85c-0.93,4.33-2.47,8.24-6.69,10.59
			c-3.62,2.02-6.94,4.6-10.64,6.45c-3.59,1.79-6.01,0.98-8.33-2.27c-3.22-4.5-4.75-9.33-2.94-14.96c2.18-6.77,4.47-13.48,8.26-19.54
			c0.91-1.46,2.27-2.65,3.43-3.97c2.85,3,5.39,5.7,7.95,8.37c0.67,0.7,1.33,1.49,2.15,1.94c4.65,2.55,4.86,6.68,4.19,11.19
			c-0.14,0.93-0.1,1.88-0.14,2.82C610.56,505.89,610.76,505.97,610.96,506.06z M597.95,502.4c0.14,0.11,0.29,0.23,0.43,0.34
			c-0.07,0.19-0.11,0.4-0.21,0.57c-1.78,3.01-3.6,5.98-5.3,9.03c-0.28,0.5-0.03,1.3-0.02,1.96c0.49-0.23,1.13-0.33,1.44-0.71
			c3.89-4.71,6.89-9.92,8.39-15.89c0.15-0.61-0.16-1.34-0.26-2.01c-0.65,0.25-1.57,0.31-1.91,0.79c-3,4.16-5.94,8.38-8.8,12.64
			c-0.43,0.64-0.34,1.62-0.48,2.44c0.24,0.11,0.47,0.23,0.71,0.34C593.93,508.75,595.94,505.57,597.95,502.4z"/>
		<path class="vol1_7_st0" d="M610.61,490.85c-3.81-3.71-7.17-6.98-10.69-10.4C603.63,480.35,610.1,486.39,610.61,490.85z"/>
		<path d="M505.32,246.05c-1.1-1.91,3.02-40.08,4.33-41.41C511.22,206.84,507.67,241.58,505.32,246.05z"/>
		<path d="M642.74,459.73c0.76,3.68-3.26,6.66-6.15,10.04c-2.18,2.55-6.94,0.25-8.29-3.61c-0.93-2.67-0.27-5.25-0.21-7.9
			c0.08-3.29,1.92-5.81,3.08-8.63c1.03-2.5,3.09-3.58,5.6-3.78c0.74-0.06,1.72,0.43,2.28,0.98
			C642.18,449.92,642.58,453.93,642.74,459.73z M635.1,457.36c-0.28-0.08-0.57-0.16-0.85-0.24c-0.55,2.03-1.09,4.06-1.64,6.09
			c0.25,0.07,0.49,0.14,0.74,0.2C633.93,461.39,634.51,459.38,635.1,457.36z"/>
		<path d="M600.85,391.48c-4.02,3.5-5.44,2.05-7.42-0.89c-2.22-3.3-4.81-6.35-7.24-9.51c-0.26,0.11-0.52,0.22-0.77,0.33
			c0.23,2.99,0.52,5.98,0.63,8.98c0.03,0.74-0.55,1.51-0.85,2.27c-0.57-0.55-1.62-1.09-1.63-1.65c-0.06-4-0.06-8.02,0.24-12
			c0.13-1.64,2.35-2.21,3.69-0.98c1.81,1.66,3.46,3.49,5.06,5.35c1.36,1.58,2.4,3.46,3.87,4.92
			C597.71,389.57,599.39,390.45,600.85,391.48z"/>
		<path d="M597.95,502.4c-2.01,3.17-4.02,6.35-6.03,9.52c-0.24-0.11-0.47-0.23-0.71-0.34c0.15-0.82,0.06-1.81,0.48-2.44
			c2.86-4.27,5.79-8.48,8.8-12.64c0.34-0.48,1.26-0.54,1.91-0.79c0.1,0.67,0.42,1.4,0.26,2.01c-1.5,5.97-4.5,11.18-8.39,15.89
			c-0.31,0.38-0.95,0.48-1.44,0.71c-0.01-0.66-0.26-1.46,0.02-1.96c1.7-3.05,3.53-6.03,5.3-9.03c0.1-0.17,0.14-0.38,0.21-0.57
			C598.23,502.63,598.09,502.51,597.95,502.4z"/>
		<path class="vol1_7_st0" d="M635.1,457.36c-0.58,2.02-1.17,4.04-1.75,6.05c-0.25-0.07-0.49-0.14-0.74-0.2c0.55-2.03,1.09-4.06,1.64-6.09
			C634.53,457.2,634.81,457.28,635.1,457.36z"/>
	</g>
</g>
</svg>
