<?xml version="1.0" encoding="utf-8"?>
<!-- Generator: Adobe Illustrator 26.3.1, SVG Export Plug-In . SVG Version: 6.00 Build 0)  -->
<svg version="1.1" xmlns="http://www.w3.org/2000/svg" xmlns:xlink="http://www.w3.org/1999/xlink" x="0px" y="0px"
	 viewBox="0 0 1366 768" style="enable-background:new 0 0 1366 768;" xml:space="preserve">
<style type="text/css">
	.st0{fill:#FFFFFF;}
	.st1{fill:none;stroke:#000000;stroke-width:345.8268;stroke-miterlimit:10;}
	.st2{fill:none;stroke:#000000;stroke-width:59.5276;stroke-miterlimit:10;}
	.st3{fill:none;stroke:#000000;stroke-width:45.3543;stroke-miterlimit:10;}
	.st4{fill:none;stroke:#000000;stroke-width:48.189;stroke-miterlimit:10;}
	.st5{fill:none;stroke:#000000;stroke-width:42.5197;stroke-miterlimit:10;}
</style>
<g id="base">
	<g>
		<path class="st0" d="M889,649.97c0,34.78,0,69.55,0,104.33c-150,0-300,0-450,0c0-230.1,0-460.2,0-690.3c150,0,300,0,450,0
			c0,194.57,0,389.15,0,583.72c-1.65-1.02-3.3-2.04-4.96-3.07c-0.21,0.29-0.41,0.59-0.62,0.88
			C884.78,647.57,886.41,649.3,889,649.97z M704.92,161.79c0.77,0.96,1.69,1.84,2.26,2.91c0.92,1.72,1.16,1.84,2.96,0.38
			c-1.14-1.42-2.27-2.84-3.38-4.22C706.06,161.22,705.49,161.51,704.92,161.79c0.32-0.79,0.64-1.59,1.12-2.76
			c-1.02-0.27-1.91-0.51-2.45-0.65c-0.63-0.86-1.19-1.62-1.74-2.39c-0.61,0.83-1.48,1.57-1.75,2.5c-0.4,1.33-0.44,2.79-0.46,4.2
			c-0.01,0.57,0.47,1.15,0.72,1.72c0.21-0.03,0.41-0.07,0.62-0.1c0.28-1.76,0.55-3.53,0.94-5.95
			C703.21,159.85,704.06,160.82,704.92,161.79z M843.57,578c-0.4-6.89-0.79-13.78-1.22-20.67c-0.25-3.95-0.68-7.89-0.88-11.84
			c-0.38-7.52-0.62-15.05-0.97-22.58c-0.41-8.73-0.83-17.46-1.35-26.18c-0.37-6.22-1.32-12.35-4.09-18.04
			c-1.09-2.23-5.12-3.93-7.38-3.1c-0.53,0.19-1.06,0.4-1.59,0.61c0.23,0.22,0.47,0.43,0.7,0.65c2.36-0.03,4.84-0.08,6.46,1.95
			c0.9,1.12,1.33,2.67,1.8,4.08c2.13,6.38,2.36,13.03,2.65,19.66c0.21,4.85,0.1,9.7,0.28,14.55c0.33,8.33,0.78,16.65,1.17,24.98
			c0.37,7.94,0.72,15.89,1.1,23.83c0.05,1.12,0.03,2.31,0.43,3.32c1.87,4.7,1.79,9.45,0.79,14.3c-0.19,0.94,0.25,2.01,0.4,3.02
			c0.13-0.06,0.26-0.12,0.39-0.17c0.46-2.8,0.91-5.61,1.37-8.41c0.01,2.61,0.22,5.25,0,7.84c-0.62,7.17-1.5,14.31-2.14,21.48
			c-0.63,7.05-1.04,14.12-1.64,21.17c-0.62,7.26-1.53,14.49-2.02,21.76c-0.43,6.43-0.38,12.88-0.67,19.32
			c-0.41,8.96-1.08,17.91-1.4,26.87c-0.27,7.66-0.24,15.33-0.25,22.99c0,1.09,0.49,2.18,0.75,3.27c0.24-0.01,0.48-0.02,0.73-0.03
			c0.14-0.8,0.38-1.6,0.41-2.41c0.19-4.56,0.29-9.12,0.49-13.68c0.5-11.65,1.02-23.31,1.57-34.96c0.46-9.6,0.92-19.21,1.5-28.81
			c0.39-6.47,0.96-12.93,1.53-19.39c0.59-6.84,1.26-13.67,1.91-20.5c0.34-3.55,0.84-7.1,1.07-10.66c0.28-4.24,0.37-8.5,0.53-12.75
			C846.06,577.54,845.13,577.23,843.57,578z M795.75,703.27c0.39-0.52,1.06-1.01,1.12-1.57c0.76-7.17,1.56-14.34,2.11-21.53
			c0.51-6.69,0.69-13.4,1.11-20.09c0.51-8.16,1.22-16.3,1.66-24.46c0.31-5.67,0.09-11.38,0.5-17.04
			c0.73-10.03,1.85-20.03,2.62-30.06c0.55-7.21,0.82-14.45,1.15-21.67c0.25-5.33,0.45-10.67,0.57-16
			c0.13-5.56,0.18-11.13,0.19-16.69c0-6.86-0.08-13.73-0.12-20.59c-0.07-10.56-1.63-21.17,0.99-31.66c0.11-0.45-0.36-1.05-0.56-1.58
			c-0.5,0.31-1.3,0.52-1.46,0.96c-0.44,1.24-0.65,2.56-0.9,3.86c-0.39,2.03-0.99,4.06-1.05,6.11c-0.14,4.4,0.01,8.81,0.01,13.22
			c0.01,4.98-0.1,9.97,0,14.95c0.11,5.55,0.52,11.1,0.56,16.66c0.05,7.26-0.11,14.53-0.27,21.79c-0.05,2.16-0.47,4.3-0.54,6.46
			c-0.1,3.26,0.17,6.53-0.1,9.77c-0.75,9.07-1.75,18.12-2.53,27.18c-0.48,5.54-0.77,11.1-1.11,16.65c-0.21,3.5-0.39,7-0.52,10.5
			c-0.11,3.25-0.1,6.51-0.19,9.76c-0.1,3.72-0.14,7.45-0.39,11.16c-0.29,4.21-0.88,8.39-1.18,12.6c-0.27,3.75-0.27,7.52-0.46,11.28
			c-0.27,5.41-0.67,10.81-0.89,16.22c-0.19,4.62-0.19,9.24-0.26,13.87c-0.27,1.95-0.54,3.9-0.81,5.84c0.35,0.01,0.69,0.02,1.04,0.04
			C795.94,707.23,795.85,705.25,795.75,703.27z M701.82,147.7c0.17,0.53,0.2,1.2,0.55,1.57c1.73,1.86,3.5,3.7,5.38,5.41
			c0.32,0.29,1.28-0.11,2.02-0.2c-0.88-1.32-1.33-2.62-2.24-3.2c-1.41-0.9-1.61-3.71-4.19-2.77c0.04-0.29,0.23-0.72,0.1-0.84
			c-2.23-2.17-4.45-4.35-6.81-6.36c-0.26-0.22-1.87,0.46-2.1,1.03c-2.83,6.87-2.36,14.16-2.56,21.37c-0.05,1.77,0.2,3.39-1.03,5.24
			c-2.1,3.15-5.99,5.91-3.99,10.68c0.04,0.1-0.15,0.28-0.14,0.41c0.19,1.68,0.31,3.37,0.65,5.02c0.12,0.6,1.26,1.3,1.12,1.58
			c-0.77,1.64,0.8,2.05,1.35,2.97c0.28,0.47,0.83,0.83,0.99,1.32c1.34,4.21,3.27,8.15,6.01,11.59c2.51,3.15,5.37,6.02,8.25,9.21
			c-0.96,0.53-2.06,1.23-3.24,1.79c-2.83,1.34-2.9,1.47-1.47,4.34c0.2,0.4,0.45,0.77,0.63,1.18c1.43,3.23,4.7,4.13,6.91,5.48
			c-1.34,0.42-3.07,0.63-4.42,1.47c-2.37,1.47-4.54,3.29-6.74,5.02c-2.44,1.92-3.17,4.75-2.09,7.68c1.88,5.09,3.67,10.21,5.69,15.25
			c0.54,1.36,0.76,3.35,2.99,3.37c6.33,0.06,12.65,0.17,18.98,0.14c1.02-0.01,2.22-0.46,3.01-1.11c1.25-1.03,2.54-2.24,3.27-3.66
			c2.62-5.1,5.08-10.28,7.39-15.52c0.26-0.59-0.59-2.06-1.32-2.63c-1.92-1.5-4.17-2.59-6.07-4.1c-2.27-1.8-4.32-3.88-6.46-5.84
			c0.16-0.26,0.31-0.52,0.47-0.78c1.32,0.15,2.94-0.14,3.9,0.53c2.8,1.95,5.76,3.06,9.14,3.12c1.04,0.02,2.11-0.21,3.12-0.04
			c3.49,0.58,6.84-0.17,10.03-1.31c3.4-1.21,6.62-2.95,9.92-4.47c1.26,2.61,0.58,5.35-1.33,7.45c-4.01,4.39-9.2,7.48-12.68,12.5
			c-2.87,4.13-3.7,8.54-3.52,13.25c0.08,2.07,0.89,4.17,1.66,6.13c0.66,1.67,1.78,3.16,2.63,4.76c1.32,2.49,2.88,3.2,5.73,2.76
			c3.21-0.5,5.8-2.33,7.73-4.58c4.09-4.77,8.17-9.62,10.16-15.83c0.65-2.02,2.09-3.78,3.36-5.99c0.57,2.14,0.99,3.69,1.39,5.24
			c1.04,4.01,1.78,8.13,3.19,12.01c2.16,5.92,8.22,6.28,12.05,4.47c3.27-1.55,5.33-4.72,6.58-8.16c0.73-2-0.83-4.2-2.97-4.64
			c-0.95-0.2-1.98-0.23-2.83-0.63c-1.18-0.56-2.81-1.17-3.2-2.16c-0.98-2.51-1.34-5.26-2.02-7.9c-0.42-1.62,0.15-2.14,1.76-2.17
			c7.79-0.15,15.54,0.16,23.23,1.51c0.99,0.17,1.98,0.28,3.64,0.5c-2.6,2.21-4.67,4-6.78,5.77c-3.96,3.31-6.71,7.46-5.46,12.75
			c0.74,3.16,2.72,5.41,5.03,5.04c2.14-0.35,4.49-0.89,6.19-2.12c2.64-1.9,4.8-4.44,7.15-6.69c3.11,3.95,4.65,6.3,10.71,8.33
			c6.46,2.17,12.11,0.54,16.65-4.04c2.83-2.86,4.9-6.53,7.02-10.02c2.69-4.44,4.53-9.28,5.1-14.47c0.49-4.45,0.58-8.93,0.86-13.4
			c0.43-6.85,2.57-12.99,7.7-17.79c4.75-4.45,7.65-9.77,8.52-16.27c0.81-6.11-1.12-11.78-7.8-14.06c-2.85-0.97-6.16-1.96-8.97,0.42
			c-1.36,1.15-2.56,2.52-3.65,3.93c-4.09,5.3-7.42,11.02-9.17,17.55c-0.17,0.65-0.34,1.36-0.74,1.87c-0.34,0.43-1.03,0.88-1.54,0.86
			c-9.55-0.48-19.09-1.13-28.64-1.52c-3.49-0.14-7,0.29-10.5,0.49c-3.12,0.18-6.23,0.49-9.34,0.58c-3.47,0.1-6.94,0.02-10.98,0.02
			c1.38-2.6,2.73-4.45,3.39-6.52c1.52-4.74,3.09-9.53,3.91-14.42c0.77-4.59,1.58-9.57-3.99-12.46c-0.9-0.47-1.39-2.36-1.49-3.64
			c-0.4-5.11-0.51-10.24-0.89-15.35c-0.07-0.88-0.82-1.79-1.45-2.51c-0.15-0.17-1.25,0.19-1.66,0.58
			c-5.03,4.69-9.97,9.46-15.03,14.1c-0.69,0.63-1.96,1.1-2.84,0.94c-2.83-0.51-5.61-1.3-8.39-2.07c-5.42-1.51-10.96-2.24-16.56-2.07
			c-7.42,0.22-14.49,2.48-21.66,4.13c-4.29,0.98-4.29,0.97-6.75-2.84c-0.07-0.11-0.25-0.13-0.49-0.25c-0.47,0.36-0.99,0.74-1.46,1.1
			c0.23,2.61,3.76,2.69,3.88,5.32c0,0.06,0.65,0.1,1.11,0.16c-0.05-0.65-0.09-1.17-0.1-1.26c2.06-0.2,3.97-0.23,5.82-0.6
			c1.78-0.35,3.45-1.26,5.23-1.53c4.56-0.69,9.14-1.34,13.73-1.68c3.72-0.27,7.53-0.47,11.19,0.04c3.4,0.47,6.62,2.16,10.01,2.88
			c3.41,0.72,7.31,2.96,9.81-1.8c0.12-0.23,0.5-0.33,0.71-0.52c2.43-2.2,4.88-4.37,7.26-6.61c1.76-1.65,3.45-3.4,5.16-5.1
			c0.21,0.07,0.42,0.14,0.63,0.22c0,5.4,0,10.81,0,16.27c-1.43-0.07-2.76-0.13-4.15-0.19c-0.37-2.02-0.75-4.07-1.14-6.17
			c-2.57,1.07-4.52,3.6-4.05,5.38c0.9-0.74,1.71-1.4,2.84-2.32c0.16,2.26,0.3,4.21,0.46,6.31c-5.34,0.4-10.68,0.76-16.01,1.22
			c-2.07,0.18-4.12,0.69-6.19,0.88c-5.25,0.46-10.53,0.74-15.77,1.25c-7.64,0.75-15.27,1.62-22.89,2.46
			c-5.2,0.58-10.42,1.08-15.59,1.85c-3.51,0.52-6.95,1.47-10.43,2.19c-0.52,0.11-1.07,0.06-2.18,0.12c0.86-1.13,1.48-1.75,1.89-2.49
			c1.28-2.33,3.22-4.59,3.56-7.07c0.61-4.47,0.08-9.09,0.36-13.63c0.16-2.5,1.02-4.95,1.7-8.06c0.89,0.97,1.14,1.43,1.54,1.64
			C699.11,146.06,699.69,148.21,701.82,147.7z M671.97,479.19l-0.05-0.05c0.66,0.25,1.31,0.71,1.97,0.73
			c3.66,0.09,7.32,0.13,10.98,0.09c6.4-0.07,12.8-0.26,19.2-0.32c6.04-0.06,12.07-0.04,18.11-0.05c4.72-0.01,9.44,0,14.17,0
			c1.5,4.42,0.99,8.95,0.61,13.45c-0.3,3.53-0.73,7.05-1.06,10.58c-0.33,3.54-0.46,7.1-0.92,10.62c-0.51,3.87-1.31,7.7-1.97,11.56
			c-0.61,3.55-1.11,7.12-1.81,10.65c-0.9,4.57-2.02,9.1-2.91,13.68c-0.92,4.76-1.82,9.54-2.47,14.35c-0.77,5.64-1.36,11.32-1.84,17
			c-0.52,6.15-0.91,12.32-1.2,18.48c-0.56,11.76-0.34,23.54-1.69,35.3c-0.96,8.32-0.4,16.82-0.48,25.24
			c-0.08,8.27-0.13,16.54-0.13,24.81c0,0.79,0.46,1.59,0.71,2.38c0.74-0.48,0.96-0.81,0.98-1.15c0.24-3.55,0.66-7.11,0.64-10.66
			c-0.05-9.75-0.43-19.51-0.39-29.26c0.02-5.27,0.64-10.54,0.95-15.81c0.46-7.88,1.03-15.76,1.29-23.65
			c0.41-12.36,0.81-24.71,2.81-36.94c0.95-5.81,1.64-11.66,2.68-17.44c1.12-6.22,2.71-12.36,3.76-18.59
			c1.45-8.53,2.85-17.08,3.79-25.68c1.04-9.54,2.6-19.11,0.83-28.95c3.15,0,6.27,0.16,9.37-0.06c1.93-0.14,3.08,0.43,3.9,2.13
			c0.99,2.06,2.65,3.23,5,2.59c2.35-0.64,4.64-1.52,6.95-2.3c2.79-0.95,5.35-2.88,8.53-2.14c0.07,0.29,0.14,0.43,0.14,0.58
			c-0.01,10.95,0.08,21.91-0.1,32.86c-0.05,3.09-1,6.15-1.38,9.24c-0.57,4.56-0.89,9.15-1.54,13.69c-0.7,4.9-1.82,9.74-2.43,14.65
			c-0.64,5.1-2.56,9.38-6.44,12.8c-0.85,0.75-1.4,1.84-2.35,3.13c3.63,0.91,4.23-2.2,6.21-3.79c-0.08,1.01-0.07,1.71-0.19,2.4
			c-0.64,3.66-1.31,7.32-1.98,10.98c-0.98,5.42-1.58,10.94-3.05,16.22c-2.35,8.45-3.56,17-4.09,25.72c-0.31,5.18-1,10.34-1.6,15.5
			c-0.31,2.64-1.04,5.25-1.17,7.9c-0.33,6.56,0.08,13.19-0.76,19.66c-0.71,5.5-0.18,10.66,1.18,15.88c0.41,1.57,1.19,3.16,1.1,4.7
			c-0.17,3.19-0.85,6.35-1.21,9.53c-0.1,0.84,0.21,1.72,0.33,2.58c0.29,0.02,0.59,0.03,0.88,0.05c0.24-0.86,0.64-1.72,0.71-2.6
			c0.28-3.35,0.46-6.72,0.65-10.08c0.03-0.51-0.07-1.04-0.16-1.55c-0.9-4.97-2.94-9.67-2.16-15.01c0.72-4.9,0.49-9.94,0.73-14.92
			c0.17-3.42,0.31-6.86,0.7-10.26c0.78-6.95,1.71-13.88,2.59-20.82c0.88-6.94,1.54-13.92,2.72-20.81c1.28-7.54,3.05-15,4.59-22.5
			c1.31-6.38,1.23-13.11,5.02-19.23c-2.27,0.04-1.31-1.35-1.14-2.31c0.73-4.11,1.66-8.18,2.29-12.3c1.03-6.79,1.71-13.64,2.86-20.41
			c1.5-8.82,1.89-17.66,1.57-26.57c-0.18-4.89-0.03-9.8-0.03-14.81c2.51,0,5.17,0.03,7.83-0.01c2.69-0.04,5.37-0.17,8.06-0.19
			c2.69-0.02,5.38,0.11,8.06,0.08c2.54-0.04,5.16,0.53,7.62-0.39c-0.01-0.26-0.03-0.53-0.04-0.79c-11.71,0-23.43,0-35.57,0
			c14.24-10.02,16.45-13.68,19.94-27.98c0.38,0.5,0.67,0.9,0.99,1.28c3.33,4.01,6.4,8.28,10.07,11.94
			c4.09,4.08,9.13,6.99,14.66,8.79c4.05,1.32,6.76,0.36,8.27-2.59c0.54-1.06,0.79-2.26,1.29-3.34c2.03-4.33,0.03-9.58-4.28-11.66
			c-5.98-2.89-11.97-5.78-17.76-9.03c-3.54-1.99-6.43-4.72-7.11-9.25c-0.41-2.75-1.58-5.38-2.42-8.06
			c-0.35-1.11-1.09-2.24-1.01-3.31c0.51-6.65-0.2-13.61,3.9-19.5c3-4.31,5.79-8.91,9.47-12.58c7.34-7.33,14.28-14.84,18.54-24.44
			c2.54-5.72,2.98-10.45-1.46-13.96c-2.44-1.93-5.16-4.2-8.5-2.89c-6.16,2.42-12.67,4.25-17.86,8.68
			c-4.74,4.04-9.79,7.75-12.87,13.45c-1.53,2.84-3.76,5.3-5.3,8.14c-1.83,3.39-4.69,2.96-7.67,2.74
			c-5.57-0.41-11.15-0.98-16.73-1.06c-7.03-0.11-14.06,0.14-21.09,0.35c-6.87,0.2-13.73,0.43-20.59,0.89
			c-2.96,0.2-5.86,1.13-8.82,1.46c-4.7,0.51-9.43,0.74-14.14,1.17c-5.77,0.53-11.56,1.08-16.96,3.33c-1.17,0.49-3.25,0.04-3.38,2.24
			c1.46-0.02,2.96,0.18,4.36-0.1c4.28-0.89,8.48-2.28,12.79-2.89c6.42-0.9,12.91-1.23,19.36-1.91c3.25-0.34,6.46-1.19,9.71-1.36
			c5.24-0.28,10.51-0.15,15.76-0.29c5.68-0.15,11.37-0.29,17.04-0.64c8.45-0.52,16.78,0.69,25.15,1.44c1.73,0.16,3.7,0.61,4.96-1.19
			c2.19-3.12,4.54-6.17,6.39-9.49c3.56-6.38,8.99-10.97,14.73-15.02c4.15-2.93,9.09-4.75,13.74-6.95c1.11-0.53,2.57-1.09,3.65-0.8
			c5.75,1.54,9.23,3.99,6.89,10.7c-2.73,7.83-7.24,14.66-13.03,20.66c-3.93,4.07-7.57,8.44-11.48,12.53
			c-6.9,7.22-8.63,16.27-9.18,25.69c-0.28,4.84,0.04,9.72-0.11,14.57c-0.07,2.39-0.6,4.77-0.94,7.34c-1.37-0.71-2.42-1.26-3.48-1.81
			c-0.18,0.2-0.35,0.4-0.53,0.6c0.78,0.89,1.65,1.72,2.32,2.68c0.41,0.58,0.87,1.45,0.73,2.05c-0.64,2.79-1.21,5.65-2.33,8.26
			c-1.46,3.39-3.21,6.7-5.22,9.8c-2.88,4.45-7.54,6.98-11.88,9.71c-1.57,0.99-3.73,1.26-5.66,1.43c-2.94,0.26-5.95-0.07-8.88,0.28
			c-1.74,0.21-2.87-0.13-3.76-1.51c-1.04-1.63-2.03-3.3-3.09-4.93c-2.4-3.68-5.17-7.17-7.15-11.07c-2.46-4.85-3.03-10.28-3.22-15.7
			c-0.12-3.57-1.32-5.45-4.69-6.14c-4.07-0.83-8.22-1.3-12.37-1.62c-3.27-0.25-6.59,0.23-9.85-0.07c-6.57-0.61-11.59,2.58-15.93,6.7
			c-4.44,4.22-8.47,8.92-12.32,13.7c-2.53,3.15-4.35,6.87-6.62,10.24c-2.18,3.25-4.47,6.43-6.85,9.54c-0.46,0.61-1.52,1.1-2.29,1.09
			c-4.16-0.06-8.34-0.61-12.47-0.34c-2.79,0.18-3.77-1.53-5.04-3.15c-0.68-0.87-1.11-1.95-1.58-2.96c-3.9-8.41-4.13-17.5-4.72-26.49
			c-0.3-4.6,0.07-9.25-0.1-13.86c-0.39-10.51-4.33-19.38-12.72-26.39c1.41-0.18,2.69-0.18,3.88-0.52c5.35-1.53,10.73-2.97,15.99-4.8
			c5.44-1.89,10.76-4.13,16.07-6.34c1.54-0.64,2.85-1.82,4.36-2.57c4.21-2.1,7.83-4.8,9.91-9.18c0.92-1.94,1.81-3.89,2.66-5.86
			c2.15-5.01,4.6-9.92,6.3-15.08c1.93-5.86-0.14-11.79-0.8-17.66c-0.17-1.51-0.19-1.98,1.41-2.14c0.53-0.05,0.97-1.1,1.45-1.7
			c-0.56-0.35-1.09-0.81-1.7-1.01c-0.53-0.17-1.15-0.04-1.59-0.04c-0.64-3.17-1.13-6.23-1.91-9.21c-0.58-2.2-1.47-4.33-2.35-6.44
			c-0.7-1.67-1.44-3.35-2.44-4.85c-1.53-2.3-3.54-0.13-5.31-0.33c-0.14-0.02-0.27-0.09-0.37-0.12c-0.91-4.47-1.82-8.92-2.71-13.37
			c-0.87-4.35-1.7-8.71-2.55-13.07c-0.31-1.59-1.68-1.98-3.05-0.67c-5.48,5.22-10.91,10.5-16.34,15.77
			c-3.52,3.42-6.97,6.93-10.57,10.27c-0.65,0.6-1.91,0.83-2.86,0.77c-1.52-0.1-3.01-0.6-4.52-0.92c-2.47-0.52-4.94-1.06-7.41-1.56
			c-3.36-0.67-6.7-1.58-10.09-1.9c-3.91-0.37-7.87-0.29-11.82-0.29c-4.44,0-8.97-0.39-13.31,0.3c-6.62,1.06-13.12,2.92-19.88,4.48
			c-0.08-0.09-0.42-0.39-0.66-0.76c-3.44-5.07-6.8-10.19-10.31-15.2c-3.54-5.07-7.16-10.08-12.53-13.51
			c-1.37-0.88-1.95-0.44-2.28,0.75c-0.74,2.7-1.5,5.41-2,8.16c-1.58,8.71-3,17.45-4.56,26.17c-0.66,3.69-1.38,7.38-2.3,11.01
			c-1.1,4.31-2.67,8.55-2.12,13.07c0.66,5.43,1.05,11,2.62,16.18c1.45,4.78,3.95,9.35,6.65,13.59c2.37,3.71,5.65,6.84,8.34,9.99
			c-0.84,0.69-2.02,1.69-3.23,2.62c-0.26,0.2-0.71,0.29-1.05,0.23c-2.05-0.32-4.2-0.4-6.11-1.11c-7.1-2.65-11.34-8.3-14.77-14.7
			c-0.8-1.49-1.42-3.09-2.24-4.57c-1.75-3.19-3.4-6.47-5.43-9.48c-1.34-1.98-3.93-3.27-4.82-5.36c-2.65-6.21-5.75-12.49-6.8-19.04
			c-1.52-9.44-1.56-19.14-1.91-28.75c-0.18-5.06,1.03-10.06,5.18-13.36c4.31-3.43,8.88-6.64,13.72-9.25
			c9.95-5.37,20.28-10.05,30.21-15.47c6.89-3.76,12.84-8.81,18.1-14.78c8.25-9.36,12.22-20.88,16.79-32.07
			c2.08-5.1,2.99-10.68,4.33-16.07c1.98-8.02,2.6-16.01,0.33-24.18c-2.1-7.56-5.25-14.32-11.21-19.64
			c-6.62-5.91-13.6-11.19-21.69-15.05c-6.43-3.07-12.51-6.89-18.68-10.48c-4.42-2.57-8.88-5.07-14.13-2.92
			c-3.22,1.31-6.32,3-9.28,4.84c-2.64,1.64-5.04,3.67-7.48,5.61c-1.52,1.21-2.92,2.59-4.37,3.89c0.7,0.24,1.21,0.19,1.57-0.08
			c3.79-2.75,7.5-5.62,11.35-8.29c7.52-5.21,12.3-6.81,19.79-2.4c6.82,4.02,13.76,7.82,20.53,11.91c5.42,3.27,10.68,6.82,16,10.26
			c6.99,4.51,11.52,10.91,14.46,18.61c4.07,10.66,2.66,21.32-0.02,31.9c-1.35,5.33-3.33,10.5-5.14,15.7
			c-2.51,7.2-5.66,14.1-9.63,20.63c-5.62,9.23-13.28,16.34-22.57,21.62c-6.03,3.42-12.44,6.17-18.64,9.28
			c-7.47,3.74-15.11,7.17-21.81,12.27c-3.91,2.97-7.51,6.32-8.26,11.48c-0.58,3.96-0.89,7.99-0.89,11.99
			c0.01,11.91,0.98,23.7,5.24,34.98c0.45,1.19,0.96,2.35,1.44,3.52c-0.16,0.13-0.32,0.25-0.49,0.38c-0.96-0.65-2.04-1.17-2.86-1.97
			c-3.89-3.78-7.61-7.75-11.58-11.44c-3.41-3.17-7.06-6.08-10.64-9.05c-4.53-3.76-10.1-5.99-13.58-11.36
			c-4.3-6.63-7.78-13.46-9.87-21.06c-2.31-8.4-4.62-16.81-7.18-25.14c-2.04-6.64-4.33-13.18-4.66-20.22
			c-0.45-9.47,0.07-18.93,2.78-27.96c2.19-7.31,5.64-14.26,8.73-21.28c1.58-3.6,3.21-7.3,5.51-10.46
			c4.69-6.45,9.69-12.69,14.85-18.77c3.31-3.9,7.04-7.46,10.76-10.98c3.23-3.05,6.73-5.8,10.08-8.72c1.56-1.36,3.05-2.82,4.57-4.23
			c-0.18-0.19-0.35-0.38-0.53-0.57c-0.51,0.36-1.05,0.67-1.51,1.08c-4.67,4.05-9.5,7.93-13.95,12.22
			c-4.72,4.54-9.05,9.48-13.57,14.23c-7.26,7.64-13.16,16.14-17.64,25.74c-3.7,7.93-7.72,15.77-9.46,24.34
			c-1.38,6.81-1.85,13.87-2.03,20.84c-0.13,4.95,0.44,10.04,1.52,14.88c1.43,6.38,3.69,12.57,5.54,18.86
			c1.34,4.55,2.53,9.15,3.86,13.71c1.15,3.92,2.09,7.94,3.7,11.67c1.79,4.14,3.94,8.19,6.46,11.93c2.01,2.98,4.35,6.23,7.35,7.95
			c8.34,4.77,15.13,11.24,21.87,17.87c2.81,2.77,5.75,5.4,8.62,8.1c2.01,1.89,4.25,3.62,5.92,5.77c1.39,1.79,2.15,4.08,3.13,6.18
			c4.44,9.49,9.65,18.31,18.96,24.03c3.7,2.27,7.53,3.96,11.74,4.67c1.81,0.31,3.62,0.11,4.54,2.2c0.95,2.18,2.02,4.31,3.11,6.61
			c-0.61,0.29-1.13,0.53-1.64,0.79c-0.53,0.27-1.04,0.56-1.56,0.83c0.67,0.3,1.32,0.79,2.01,0.86c1.3,0.14,2.62,0.04,3.86,0.04
			c1.31-3.2,5.38-2.47,7.54-4.63c0.25-0.25,1.33,0.31,1.73,0.42c-0.36,1.08-0.61,1.82-0.92,2.75c0.8,0.04,1.24,0.13,1.66,0.07
			c2.46-0.39,4.87-0.14,6.87,1.35c3.04,2.28,5.87,4.83,8.86,7.17c1.55,1.21,1.66,2.52,1.12,4.31c-1.52,5.07-2.91,10.19-4.25,15.31
			c-0.55,2.1-1.82,2.97-3.88,2.88c-2.53-0.12-5.07-0.28-7.6-0.43c-6.72-0.4-13.43-0.82-20.15-1.19c-1.6-0.09-2.4-0.77-2.67-2.4
			c-0.22-1.3-0.81-2.54-1.31-3.78c-1.97-4.9-3.98-9.78-6.16-15.13c5-1.89,9.9-3.75,14.79-5.6c0.01-0.19,0.02-0.38,0.03-0.58
			c-1.37,0-2.9-0.4-4.08,0.07c-3.84,1.55-7.55,3.43-11.32,5.17c-1.53,0.7-1.51,1.67-0.89,3.09c2.27,5.17,4.44,10.39,6.62,15.61
			c0.19,0.47,0.22,1.01,0.3,1.51c0.45,2.76,1.54,3.83,4.36,4.09c2.08,0.19,4.18,0.25,6.26,0.39c6.63,0.45,13.27,0.85,19.9,1.4
			c3.52,0.29,6.26-0.92,6.99-3.42c1.65-5.69,3.36-11.38,4.96-17.09c0.56-2.01,0.9-4.04-1.3-5.55c-1.71-1.18-3.34-2.51-4.84-3.95
			c-3.03-2.92-6.31-5.27-10.74-5.51c1.43-2.1,2.97-0.98,4.56-0.41c3.52,1.26,7,2.71,10.63,3.54c4.68,1.07,9.54,1.33,14.2,2.44
			c9.79,2.33,19.58,1.23,28.97,0.58c13.01,9.1,15.03,22.32,14.19,36.59c-0.56-0.17-1.22-0.38-1.44-0.45
			c-1.83,3.27-3.05,6.73-5.33,9.24c-5.26,5.8-12.27,8.4-19.93,9.73c-3.68,0.64-7.2,2.33-10.75,3.65c-0.63,0.23-1.31,0.89-1.55,1.51
			c-0.9,2.3,0.62,7.06,2.58,8.6c0.79,0.62,1.54,1.31,2.49,2.12c-7.77-0.39-15.17-0.71-22.56-1.17c-3.42-0.21-6.82-0.81-10.25-0.99
			c-4.3-0.22-8.62-0.13-12.92-0.29c-6.97-0.26-13.93-0.64-20.9-0.94c-4.02-0.17-8.04-0.15-12.05-0.42
			c-8.13-0.54-16.25-1.22-24.37-1.85c-5.33-0.41-10.66-0.82-15.99-1.25c-2.97-0.24-5.95-0.42-8.91-0.79
			c-6.7-0.84-13.39-1.84-20.09-2.65c-1.25-0.15-2.56,0.24-3.84,0.39c0.03,0.27,0.06,0.53,0.09,0.8c1.21,0,2.44-0.08,3.64,0.02
			c3.33,0.26,6.65,0.6,9.97,0.9c1.56,0.14,3.13,0.19,4.68,0.42c4.81,0.7,9.59,1.56,14.4,2.19c4.39,0.57,8.81,0.93,13.22,1.38
			c2.58,0.26,5.15,0.62,7.73,0.77c4.49,0.26,8.99,0.37,13.49,0.58c6.16,0.3,12.32,0.73,18.49,0.94c5.28,0.18,10.58-0.07,15.86,0.2
			c6.68,0.35,13.33,1.2,20,1.55c11.47,0.61,22.95,0.97,34.42,1.51c5.01,0.24,10,0.69,15,1.04c0.67,0.05,1.34,0,2.01-0.01
			c5.79-0.05,11.58-0.1,17.38-0.16c0.98-0.01,2.13-0.42,2.92-0.04c2.2,1.05,4.25,2.4,6.35,3.65c0.34,0.2,0.62,0.68,0.95,0.7
			c1.9,0.12,3.81,0.2,5.72,0.17c1.36-0.03,2.93,0.13,4.03-0.49C668.03,482.39,669.94,480.69,671.97,479.19z M547.95,176.99
			c-0.11-0.16-0.22-0.32-0.33-0.48c4.05-4.34,8.12-8.65,12.11-13.03c0.49-0.54,0.58-1.46,0.85-2.21c-0.81-0.03-1.77-0.36-2.4-0.04
			c-4.1,2.1-8.14,4.32-12.16,6.56c-0.54,0.3-0.89,0.95-1.34,1.43c0.15,0.21,0.3,0.43,0.45,0.64c3.9-0.81,6.83-3.86,10.23-5.23
			c-3.93,4.95-7.89,9.94-11.78,14.83c1.32,1.76,2.25,1.5,3.37,0.62c3.09-2.41,6.67-3.77,10.76-5c-0.55,1.87-1.13,3.25-1.34,4.7
			c-0.49,3.32-1.82,6.63,0.19,9.97c1.42,2.36,6.55,2.73,8.31,0.09c-0.83,0-1.45,0-2.07,0c-0.67,0-1.35,0.03-2.02-0.03
			c-2.48-0.22-3.59-1.31-3.33-3.77c0.24-2.27,0.8-4.52,1.39-6.73c0.43-1.62,1.17-3.16,1.71-4.75c0.23-0.68,0.33-1.41,0.49-2.12
			c-0.73-0.09-1.55-0.44-2.17-0.21c-2.38,0.87-4.69,1.91-7.01,2.92C550.54,175.73,549.25,176.38,547.95,176.99z M771.47,600.54
			c1.39,0.56,2.21,1.11,3.06,1.17c1.09,0.07,2.21-0.35,3.32-0.37c0.47-0.01,1.31,0.4,1.36,0.71c0.3,1.9,0.5,3.83,0.54,5.75
			c0.01,0.42-0.69,1.17-1.15,1.24c-1.75,0.27-3.54,0.3-5.3,0.49c-0.71,0.08-1.41,0.35-2.31,0.58c2.37,3.15,5.28,1.68,8.5,1.79
			c-0.58,1.85-0.94,3.61-1.74,5.14c-0.21,0.41-1.74,0.14-2.66,0.17c-0.3,0.01-0.65-0.12-0.89,0c-0.66,0.33-1.71,0.68-1.78,1.15
			c-0.08,0.59,0.56,1.75,1.06,1.86c1.16,0.24,2.42-0.01,3.64-0.04c0.89-0.02,1.83-0.15,2.68,0.06c2.16,0.54,4.26,1.33,6.43,1.82
			c0.64,0.14,1.42-0.39,2.14-0.61c-0.5-0.53-0.9-1.3-1.51-1.54c-1.73-0.69-3.59-1.04-5.29-1.79c-0.5-0.22-0.85-1.29-0.86-1.98
			c-0.02-0.74,0.62-1.48,0.66-2.23c0.1-1.9,0.69-3.12,2.82-3.48c1.52-0.26,2.89-1.11,2.35-3.23c-1.51,0.51-2.9,0.99-4.57,1.56
			c0-2.01,0.42-3.73-0.09-5.1c-1.06-2.9,0.64-3.16,2.64-3.34c1.33-0.12,2.27-0.68,1.96-2.05c-0.08-0.34-1.59-0.7-2.27-0.49
			c-1.58,0.49-2.53,0.31-3.05-1.42c-0.21-0.7-0.88-1.25-1.34-1.87c-0.21,0.1-0.42,0.2-0.63,0.3c0.12,1.21,0.24,2.41,0.37,3.69
			C777.31,599.83,774.25,598.05,771.47,600.54z M871.02,653.39c-0.11-0.95,0.04-1.81-0.32-2.22c-0.54-0.62-1.43-0.94-2.17-1.38
			c-0.05,0.69-0.35,1.5-0.1,2.06c0.6,1.38,0.49,2.29-1.06,2.78c-1.13,0.35-2.22,0.9-3.37,1.1c-1.74,0.31-3.52,0.39-5.72,0.61
			c0.65,0.81,1.09,1.83,1.52,1.82c2.61-0.05,5.22-0.32,7.84-0.52c-1.74,5.13-4.96,9.15-10.35,11.46c0.61,1.56,2.14,2.31,3.24,1.24
			c3.48-3.41,8.18-5.87,9.32-11.03c3.2,2.95,6.32,5.91,9.57,8.72c0.64,0.55,1.77,0.53,2.68,0.78c0.1-0.27,0.21-0.55,0.31-0.82
			c-0.57-0.54-1.16-1.06-1.72-1.61c-2.65-2.6-5.38-5.12-7.89-7.85c-1.21-1.32-0.54-2.95,1.23-3.36c1.44-0.33,2.96-0.31,4.4-0.66
			c0.79-0.19,1.49-0.79,2.22-1.21c-0.78-0.6-1.5-1.3-2.35-1.75c-0.34-0.18-0.98,0.22-1.49,0.35
			C874.96,652.38,873.11,652.85,871.02,653.39z M784.39,568.47c-0.14,0.2-0.28,0.41-0.42,0.61c0.87,0.64,1.68,1.39,2.62,1.9
			c1.42,0.76,2.42,0.09,2.09-1.49c-0.43-2.09-0.89-4.25-1.82-6.15c-0.91-1.86-0.26-2.56,1.29-3.22c1.65-0.7,3.28-1.44,4.87-2.27
			c0.36-0.18,0.5-0.79,0.74-1.2c-0.42-0.24-0.85-0.69-1.25-0.66c-0.72,0.06-1.44,0.37-2.12,0.65c-1.74,0.74-3.46,1.52-5.23,2.31
			c-0.45-2.26-0.85-4.25-1.24-6.26c4.73-0.29,7.85-1.88,8.08-4.35c-0.67,0.07-1.33,0.03-1.93,0.21c-1.71,0.5-3.38,1.11-5.08,1.64
			c-1.06,0.33-2.2,0.9-2.69-0.81c-0.64-2.24-1.58-1.26-2.66-0.21c0.95,1.49,1.81,2.69-0.99,3.25c-2.13,0.43-4.07,1.84-6.09,2.82
			c0.09,0.26,0.18,0.52,0.27,0.78c3.21,1.11,5.71-1.44,8.8-1.98c0.39,1.63,0.91,3.41,1.19,5.22c0.06,0.38-0.62,1.08-1.12,1.32
			c-2.25,1.1-4.55,2.09-6.83,3.12c0.05,0.23,0.11,0.47,0.16,0.7c3.23,1.63,5.69-1.86,8.7-1.86c0.77,2.06,1.53,4.12,2.37,6.39
			C785.4,568.76,784.9,568.61,784.39,568.47z M882.18,576.1c-1.11-1.78-2.5-1.55-4-1.11c-1.69,0.49-3.38,1.09-5.11,1.32
			c-2.51,0.33-5.05,0.38-8.01,0.57c-0.7-0.57-1.57-2.34-3.78-0.68c3.54,2.78,5.63,6.3,5.84,10.77c-4.5,1.94-5.5,3.07-5,5.64
			c0.3,1.55,2.16,2.56,4.54,2.48c2.2-0.08,3.16-1.6,3.9-6.54c1.79,0.29,3.61,0.47,5.37,0.89c1.79,0.42,3.51,1.16,5.3,1.57
			c0.45,0.1,1.06-0.54,1.6-0.84c-0.26-0.39-0.45-1.03-0.79-1.12c-3.44-0.89-6.91-1.68-10.35-2.54c-0.66-0.17-1.62-0.37-1.84-0.85
			c-1.17-2.47-2.14-5.04-3.11-7.4C871.76,578.63,877.08,578.89,882.18,576.1z M749.98,512.65c1.95,1.86,2.43,1.91,3.62-0.14
			c2.81-4.88,5.54-9.81,8.14-14.8c0.9-1.74,1.54-3.7,1.88-5.64c0.52-2.93-0.58-4.13-3.64-3.85c-3.47,0.32-6.92,0.97-10.35,1.62
			c-0.95,0.18-3.52-0.99-2.21,1.95c0.01,0.02-0.46,0.18-0.62,0.36c-0.31,0.33-0.76,0.7-0.82,1.09c-0.25,1.68-0.37,3.38-0.53,5.04
			c2.45,1.47,2.77,1.3,2.82-1.47c0.03-1.55,0.01-3.1,0.01-4.82c4.43-0.7,8.67-1.38,13.05-2.07
			C760.51,495.37,755.57,505.14,749.98,512.65z M870.64,512.52c-0.9-0.27-1.63-0.49-2.35-0.71c-0.01,0.74-0.17,1.52,0,2.22
			c0.53,2.17,1.26,4.29,1.75,6.47c0.28,1.27-0.03,2.19-1.51,2.96c-1.38,0.72-2.36,2.3-3.4,3.6c-0.97,1.22-0.31,2.37,0.67,3.11
			c1.04,0.79,2.41,1.13,3.42-0.1c1.12-1.37,2.02-2.91,3.1-4.31c0.37-0.49,1.02-1.17,1.47-1.12c2.2,0.25,4.36,0.81,6.55,1.06
			c1,0.11,2.05-0.25,3.07-0.39c-0.82-0.56-1.57-1.44-2.46-1.63c-2.73-0.56-5.52-0.86-8.07-1.23c-0.34-2.01-0.66-4.04-1.03-6.06
			c-0.25-1.38,0.04-2.37,1.63-2.59c2.25-0.31,4.52-0.59,6.75-0.98c0.75-0.13,1.43-0.59,2.15-0.91
			C877.95,509.59,874.2,511.5,870.64,512.52z M775.41,635.33c-3.29,0.67-6.73-0.54-9.24,2.63c3.14-0.15,6.28-0.3,9.48-0.46
			c0,0.98,0,1.72,0,2.45c-0.09-0.22-0.19-0.43-0.28-0.65c-1.27,0.17-2.88-0.09-3.73,0.6c-1.65,1.35-3.27,3.26-2.56,5.59
			c0.87,2.86,3.77,1.17,5.99,2.04c-0.96,1.98-1.88,3.89-2.81,5.8c0.16,0.13,0.32,0.26,0.47,0.4c0.51-0.2,1.17-0.25,1.51-0.62
			c2.08-2.2,3.44-4.83,3.65-7.86c0.18-2.52,0.04-5.06,0.04-7.53c1.75-0.35,3.4-0.68,5.05-1.01c-0.03-0.34-0.07-0.69-0.1-1.03
			c-1.65,0-3.29,0-4.58,0c-1.91-1.9-0.42-5.68-4.46-6.31C774.44,631.62,774.9,633.38,775.41,635.33z M822.96,502.86
			c0.22-1.75,0.52-3.28,0.56-4.81c0.04-1.8,0.78-2.96,2.47-3.55c0.42-0.15,0.95-0.28,1.18-0.59c0.43-0.57,0.67-1.28,0.99-1.93
			c-0.6-0.05-1.23-0.24-1.81-0.13c-0.89,0.16-1.74,0.52-2.68,0.81c0.05-1.06,0.09-1.77,0.12-2.48c-0.2-0.1-0.39-0.2-0.59-0.3
			c-0.45,0.71-1.22,1.4-1.29,2.14c-0.15,1.61-1.03,2.36-2.37,2.87c-0.7,0.26-1.44,0.5-2.03,0.93c-0.39,0.28-0.53,0.89-0.78,1.36
			c0.55,0.23,1.12,0.68,1.63,0.63c0.89-0.09,1.74-0.51,2.6-0.79c0.21,0.15,0.42,0.29,0.63,0.44c-0.82,3.04-1.68,6.07-2.41,9.13
			c-0.15,0.61,0.18,1.34,0.28,2.02c0.76-0.23,1.64-0.29,2.24-0.73c1.24-0.91,2.2-2.29,3.53-2.98c1.07-0.55,2.41-1.87,3.78-0.48
			c1.37,1.39,1.19,2.96,0.23,4.51c-0.39,0.64-0.87,1.22-1.19,1.89c-0.27,0.57-0.38,1.21-0.56,1.83c0.67-0.01,1.45,0.19,2.01-0.06
			c2.22-1.02,3.93-4.91,3.21-7c-0.91-2.63-4.01-4.18-6.94-3.46C824.93,502.32,824.09,502.56,822.96,502.86z M790.6,518.96
			c-1.66,2.64-4.18,4.16-4.57,7.56c-0.52,4.49,1.37,10.27,5.08,11.96c0.55,0.25,1.32,0,1.99-0.02c-0.25-0.55-0.36-1.39-0.78-1.62
			c-5.72-3.02-4.99-12.04-0.51-15.33c1.61-1.18,3.05-2.64,4.36-4.16c0.45-0.52,0.26-1.59,0.36-2.4c-0.7-0.05-1.48-0.32-2.09-0.1
			c-3.14,1.11-6.27,2.29-9.35,3.57c-2.44,1.01-4.82,2.19-7.36,3.37c0.85,1.67,1.87,1.65,3.12,1.14
			C784,521.62,787.16,520.35,790.6,518.96z M862.43,691.47c-2.48,4.25-4.78,8.1-6.95,12.02c-0.32,0.57-0.04,1.47-0.04,2.67
			c0.85-0.59,1.19-0.7,1.32-0.93c2.08-3.48,4.46-6.82,6.11-10.5c1.45-3.25,1.64-3.85,5.2-4.21c1.11-0.11,2.28-0.13,3.28-0.54
			c0.63-0.25,1-1.14,1.49-1.74c-0.69-0.29-1.4-0.84-2.08-0.8c-1.43,0.08-2.84,0.47-3.97,0.68c-0.4-1.61-0.72-2.85-1.03-4.09
			c-0.25,0.05-0.5,0.1-0.75,0.15c-0.09,0.26-0.26,0.52-0.27,0.79c-0.07,2.3-1.02,3.49-3.54,3.53c-1.79,0.03-3.58,0.65-5.39,1.01
			C856.24,690.86,856.24,690.86,862.43,691.47z M835.51,621.13c-0.68-0.82-0.87-1.28-1.13-1.33c-2.06-0.37-3.83-1.08-4.84-3.11
			c-0.08-0.16-0.76-0.02-1.37-0.02c0.28,1.04,0.5,1.87,0.67,2.47c-1.1,0.46-2.13,0.9-3.16,1.33c1.15,0.5,2.3,1.01,3.84,1.68
			c-0.03-0.16,0.14,0.28,0.11,0.69c-0.18,2.14-0.07,4.41-0.81,6.35c-0.28,0.73-2.53,0.71-3.88,1.06c-0.28,0.07-0.56,0.2-0.81,0.36
			c-1.54,0.98-2.09,3.69-1.04,5.11c0.99,1.35,3.25,1.41,4.73-0.02c0.78-0.76,1.54-1.71,1.88-2.71c0.61-1.8,1.69-1.98,3.28-1.57
			c1.35,0.36,2.75,0.55,4.12,0.82c0.1-0.34,0.2-0.67,0.3-1.01c-1.91-0.74-3.82-1.48-5.81-2.24c0-2.38,0-5.01,0-7.86
			C832.79,621.13,833.84,621.13,835.51,621.13z M822.36,673.06c0.1,0.16,0.21,0.31,0.31,0.47c0.57-0.2,1.26-0.25,1.69-0.62
			c3.14-2.69,5.84-5.76,7.31-9.71c0.91-2.43,1.21-4.95-1.32-6.57c-1.38-0.88-3.13-1.57-4.74-1.63c-2.19-0.08-4.45,0.31-6.59,0.87
			c-3.28,0.85-6.48,2.02-9.72,3.06c0,0.32,0,0.64,0,0.96c0.85,0.19,1.78,0.71,2.54,0.52c2.15-0.54,4.21-1.48,6.36-2.04
			c2.45-0.64,4.93-1.23,7.44-1.52c2.58-0.29,4.82,1.56,4.33,3.61c-0.52,2.2-1.38,4.41-2.58,6.32
			C825.99,669.04,824.07,670.98,822.36,673.06z M829.82,535.64c-2.92-0.06-4.48,1.28-5.25,3.53c-0.18,0.53-0.09,1.42,0.26,1.79
			c0.43,0.46,1.37,0.89,1.88,0.72c1.09-0.36,2.19-0.97,3.03-1.76c2.42-2.27,2.34-2.27,5.13-0.37c0.52,0.35,1.46,0.07,2.21,0.08
			c-0.39-0.58-0.67-1.52-1.18-1.67c-3.58-1.02-4.79-3.52-4.74-6.97c0.01-0.69-0.23-1.38-0.33-1.96c1.36-0.67,2.62-1.3,4.3-2.14
			c-2.95-1.92-5.8,1.23-8.15-0.83c-0.04-0.03-0.24,0.12-0.48,0.24c0.15,0.51,0.3,1.01,0.41,1.36c-1.11,0.56-2.11,1.06-3.1,1.55
			c0.06,0.25,0.11,0.5,0.17,0.75c1.52,0,3.04,0,4.93,0C829.2,531.79,829.5,533.63,829.82,535.64z M825.87,588.36
			c0.29,1.48,0.53,2.75,0.77,3.97c3.02,0.94,2.7-1.57,3.2-3.2c2.96,2.36,2.54,5.13,1.37,8.17c0.85-0.3,1.61-0.62,1.81-1.16
			c1.02-2.74,2.17-5.49,2.75-8.34c0.55-2.69-2.1-4.17-3.35-6.15c-0.24-0.38-2.23-0.23-2.78,0.31c-0.62,0.62-0.85,2-0.7,2.97
			C829.5,588.49,829.32,588.8,825.87,588.36z M818.7,564.98c-2.01-0.21-2.57,0.99-2.69,2.22c-0.18,1.9-0.22,3.84-0.02,5.73
			c0.22,2.06,0.7,4.1,1.2,6.12c0.56,2.28,2.7,3.75,4.99,3.97c4.26,0.41,5.91-3.13,8.41-5.38c0.19-0.17,0.01-0.76-0.01-1.16
			c-0.45,0.09-1.01,0.03-1.34,0.28c-1.3,1-2.44,2.2-3.79,3.13c-2.8,1.93-5.11,0.99-5.72-2.31c-0.45-2.4-0.78-4.84-1-7.28
			C818.58,568.56,818.7,566.8,818.7,564.98z M870.41,621.31c0.74-0.1,1.31-0.01,1.56-0.25c2.41-2.31,4.81-4.64,7.09-7.08
			c0.39-0.42,0.46-1.54,0.17-2.06c-0.2-0.36-1.28-0.39-1.93-0.32c-1.4,0.16-2.81,0.39-4.17,0.77c-3.42,0.94-6.85,1.9-10.21,3.03
			c-0.59,0.2-0.88,1.28-1.3,1.95c0.85,0.13,1.77,0.53,2.52,0.33c3.75-1,7.46-2.15,11.59-3.37
			C874.09,616.99,870.81,617.83,870.41,621.31z M821.67,538.5c-0.3-0.24-0.6-0.48-0.9-0.73c-0.9,1.27-1.81,2.54-2.89,4.07
			c-0.47-0.87-0.83-1.28-0.9-1.73c-0.41-2.65-0.81-5.3-1.11-7.97c-0.3-2.67-0.52-2.86-3.23-2.1c0.12,1.77,0.11,3.57,0.4,5.32
			c0.51,3.15,1.09,6.3,1.85,9.4c0.41,1.69,2.57,2.09,3.42,0.63C819.6,543.19,820.56,540.8,821.67,538.5z M764.35,526.04
			c-0.25-0.11-0.5-0.21-0.74-0.32c-0.28,0.2-0.65,0.33-0.82,0.6c-1.7,2.62-3.33,5.28-5.06,7.88c-1.75,2.63-3.61,5.2-5.4,7.8
			c-1.14,1.65-2.4,2.31-4.25,0.9c-0.42-0.32-1.29-0.04-1.95-0.03c0.44,0.59,0.81,1.25,1.32,1.76c0.69,0.69,1.5,1.26,2.64,2.2
			c5.73-3.74,9.35-10.04,13.07-16.22C763.93,529.32,763.97,527.58,764.35,526.04z M814.92,638.33c-0.2-2.8-0.4-5.47-0.56-8.14
			c-0.21-3.35-0.33-6.71-0.62-10.05c-0.05-0.55-0.76-1.05-1.16-1.57c-0.33,0.42-0.93,0.84-0.93,1.26
			c-0.02,3.41,0.04,6.82,0.15,10.23c0.04,1.2,0.28,2.39,0.41,3.58c0.25,2.35,0.43,4.72,0.76,7.06c0.17,1.21,0.82,1.93,2.19,1.2
			c1.21-0.65,3.12-4.55,2.89-6.21C817,636.57,816.02,637.4,814.92,638.33z M865.26,495.12c-0.65-3.1-1.37-5.93-1.82-8.8
			c-0.43-2.77-0.59-5.59-0.85-8.28c-0.96,0.81-1.74,1.45-2.62,2.19c2.39,0.39,0.66,2.04,0.88,3.17c0.89,4.67,1.7,9.36,2.61,14.03
			c0.1,0.5,0.58,1.17,1.01,1.28c0.42,0.11,1.15-0.28,1.47-0.67c1.16-1.45,2.31-2.94,3.27-4.53c0.68-1.13,1.03-2.45,1.52-3.69
			c-0.19-0.11-0.38-0.23-0.58-0.34C868.58,491.3,867.01,493.11,865.26,495.12z M775.22,655.3c-0.84,0.72-1.63,1.05-1.75,1.54
			c-0.4,1.65-1.46,2.3-3,2.58c-1.09,0.2-2.2,0.47-3.21,0.91c-0.45,0.2-0.69,0.88-1.03,1.35c0.49,0.34,1.01,0.99,1.46,0.95
			c1.15-0.12,2.27-0.55,4.12-1.05c-0.67,1.25-1.16,2.03-1.52,2.87c-0.7,1.66-1.38,3.33-1.94,5.04c-0.11,0.34,0.34,0.87,0.53,1.32
			c0.42-0.2,1.04-0.28,1.24-0.61c0.6-1.01,1.09-2.09,1.51-3.19c2.1-5.51,0.84-6.08,7.08-6.43c0.66-0.04,1.29-0.5,1.94-0.76
			c-1.28-2.84-3.76-0.82-5.44-1.73C775.22,657.34,775.22,656.62,775.22,655.3z M523.13,177.74c0.22,0.06,0.59,0.06,0.76,0.24
			c2.57,2.62,5.16,5.22,7.63,7.94c0.95,1.04,1.58,2.4,3.58,0.9c-2.9-2.97-5.62-5.91-8.52-8.64c-1.2-1.12-1.18-2.03-0.5-3.28
			c1.61-2.98,3.21-5.97,4.75-8.99c0.4-0.78,0.67-1.68,0.74-2.55c0.03-0.39-0.55-0.9-0.98-1.18c-0.12-0.08-0.82,0.44-0.99,0.8
			C527.44,167.81,525.34,172.67,523.13,177.74z M790.48,502.41c-4.09-0.51-4.61,3.78-7.58,4.14c-0.34-2.77-0.47-5.44-1.06-7.99
			c-0.36-1.56,0.2-4.29-3.29-3.77c0.83,4.86,1.55,9.68,2.53,14.46c0.27,1.31,1.37,1.65,2.53,0.46c1.24-1.28,2.64-2.4,3.88-3.67
			C788.43,505.05,789.23,503.94,790.48,502.41z M863.8,563.48c2.49-0.16,5.21-2.26,7.52-5.86c-2.49-0.15-3.47,2.22-5.82,2.96
			c-0.54-3.04-1.06-5.9-1.57-8.77c-0.42-2.36-1.46-2.8-3.48-1.45C861.56,554.73,862.68,559.12,863.8,563.48z M492.45,183.82
			c-0.49-4.34-0.91-8.37-1.43-12.38c-0.08-0.59-0.65-1.12-0.99-1.68c-0.33,0.48-0.93,0.95-0.95,1.44c-0.17,4.71,0.59,9.3,2.2,13.72
			c0.17,0.47,1.17,1.15,1.31,1.05c2.56-1.81,5.04-3.72,7.54-5.61c-0.17-0.23-0.35-0.46-0.52-0.69
			C496.66,179.43,495.6,182.62,492.45,183.82z M863.34,635.21c0.07,0.42,0.15,0.83,0.22,1.25c6.19,1.14,11.06-3.68,16.88-4.27
			c-0.51-2.02-1.59-2.37-3.71-1.54c-3.41,1.33-6.84,2.6-10.28,3.83C865.45,634.84,864.38,634.98,863.34,635.21z M882.7,702.27
			c-0.55-1.84-1.73-2.2-3.18-2.06c-2.74,0.26-5.48,0.53-8.22,0.84c-0.31,0.03-0.59,0.32-1.39,0.79
			C874.37,704.15,878.45,701.59,882.7,702.27z M836.88,608.74c0.17,0.15,0.34,0.3,0.5,0.45c0.4-0.88,0.98-1.74,1.12-2.66
			c0.09-0.6-0.33-1.74-0.75-1.87c-2.01-0.6-4.15-0.95-5.95,0.56c-0.7,0.59-1.13,1.51-1.69,2.28c0.85-0.24,1.7-0.47,2.55-0.74
			c0.28-0.09,0.53-0.38,0.8-0.39c0.99-0.04,2.09-0.26,2.92,0.11C836.8,606.66,836.73,607.95,836.88,608.74z M880.19,692.81
			c-0.67-0.21-1.24-0.57-1.8-0.55c-2,0.08-4.01,0.2-5.99,0.48c-0.61,0.09-1.14,0.74-1.71,1.13c0.62,0.41,1.22,1.09,1.87,1.16
			c1.2,0.11,2.43-0.24,3.64-0.23C877.71,694.81,879.23,695.02,880.19,692.81z M801.57,499.34c-1.63-2.89-2.93-5.26-4.33-7.57
			c-0.18-0.29-0.87-0.27-1.32-0.39c-0.02,0.46-0.19,0.98-0.04,1.37c0.69,1.78,1.44,3.54,2.25,5.26c0.33,0.71,0.78,1.44,1.37,1.93
			C799.74,500.13,800.5,499.67,801.57,499.34z M790.41,580.55c-2.42-1.51-8.75-2.6-9.88-1.7
			C782.57,581.28,788.44,582.29,790.41,580.55z M576.51,175.54c0.08-0.19,0.16-0.37,0.24-0.56c0.89,0,1.83,0.19,2.65-0.05
			c0.79-0.24,1.43-0.92,2.14-1.41c-0.78-0.33-1.53-0.84-2.34-0.95c-0.85-0.12-1.78,0.05-2.63,0.27c-1.09,0.28-2.12,0.75-3.18,1.14
			C574.43,174.49,575.47,175.02,576.51,175.54z M780.06,671.67c-0.22,1.99,0.86,3.11,2.62,3.7c2.35,0.78,4.66,0.16,5.87-1.53
			C785.99,672.3,782.27,675.05,780.06,671.67z M778.27,663.64c0.13,0.54,0.19,1.04,0.26,1.05c2.6,0.07,5.2,0.12,7.8,0.06
			c0.21,0,0.4-0.81,0.59-1.24c-0.44-0.17-0.89-0.52-1.32-0.49C783.24,663.17,780.88,663.41,778.27,663.64z M839.47,617.06
			c0.47-1.88-0.53-3.03-2-3.74c-0.5-0.24-1.77,0.01-1.9,0.34c-0.35,0.89-0.7,2.23-0.28,2.89
			C836.31,618.14,837.96,617.59,839.47,617.06z M878.45,544.43c0.63,0.71,1.28,1.32,1.78,2.04c0.51,0.72,0.76,1.66,1.35,2.29
			c0.4,0.43,1.18,0.52,1.8,0.76c0.11-0.66,0.52-1.49,0.26-1.93c-0.71-1.2-1.78-2.17-2.56-3.33
			C880.07,542.78,879.34,543.35,878.45,544.43z M790.64,657.14c0.67-2.32-2.39-5.51-4.78-5.09
			C786.04,654.34,788.25,656.78,790.64,657.14z M877.89,476.06c2.96,3.34,5.6,4.97,6.92,4.37
			C883.72,477.5,881.07,475.77,877.89,476.06z M791.06,649.16c-0.26,0.22-0.51,0.43-0.77,0.65c0.82,1.55,1.59,3.13,2.51,4.62
			c0.32,0.52,1.04,0.79,1.58,1.18c0.15-0.76,0.69-1.81,0.38-2.24C793.68,651.85,792.31,650.54,791.06,649.16z M825.19,479.42
			c0-0.16,0-0.32,0-0.48c-5.93,0-11.86,0-17.8,0c0,0.16,0,0.32,0,0.48C813.32,479.42,819.26,479.42,825.19,479.42z M760.93,553.21
			c-0.06,0.81-0.28,1.37-0.09,1.67c0.44,0.68,1.09,1.22,1.65,1.82c0.27-0.66,0.66-1.3,0.78-1.99c0.12-0.71,0.12-1.51-0.11-2.18
			c-0.22-0.63-0.81-1.13-1.23-1.69c-0.36,0.55-0.78,1.06-1.04,1.65C760.75,552.78,760.93,553.21,760.93,553.21z M743.89,523.91
			c1.2,4.04,2.43,5.21,5.13,4.74C747.23,527.12,747.53,523.76,743.89,523.91z M754.48,553.5c0.21,0.9,0.24,1.84,0.65,2.56
			c0.47,0.82,1.27,1.45,1.93,2.17c0.09-0.78,0.24-1.55,0.25-2.33c0-0.42-0.29-0.84-0.35-1.28
			C756.74,553.03,755.85,552.92,754.48,553.5z M510.12,165.86c1.8,1.89,3.31,3.48,5.09,5.34
			C515.4,168.27,512.91,165.67,510.12,165.86z M835.89,551.06c-0.33-2.3-2.44-3.91-3.69-3.43c-0.28,0.11-0.5,1.3-0.38,1.38
			C832.97,549.68,834.19,550.23,835.89,551.06z M783.15,685.81c0.05,0.09,0.1,0.19,0.16,0.28c0.49-2.26,1.01-4.52,1.41-6.8
			c0.04-0.22-0.61-0.57-0.94-0.86c-0.21,0.38-0.59,0.75-0.6,1.13C783.12,681.63,783.15,683.72,783.15,685.81z M566.28,165.78
			c-1.22-1.43-2.34-2.99-4.48-3.14C562.76,164.42,563.83,166.05,566.28,165.78z M567.97,158.93c-0.07,2.66,1.32,4.22,3.38,4.15
			C570.25,161.74,569.31,160.59,567.97,158.93z"/>
		<path d="M889,649.97c-2.59-0.67-4.22-2.39-5.57-4.43c0.21-0.29,0.41-0.59,0.62-0.88c1.65,1.02,3.3,2.04,4.96,3.07
			C889,648.47,889,649.22,889,649.97z"/>
		<path d="M671.97,479.19c-2.03,1.5-3.94,3.19-6.12,4.42c-1.09,0.61-2.67,0.46-4.03,0.49c-1.91,0.04-3.82-0.05-5.72-0.17
			c-0.33-0.02-0.61-0.5-0.95-0.7c-2.1-1.25-4.15-2.61-6.35-3.65c-0.79-0.38-1.94,0.03-2.92,0.04c-5.79,0.06-11.58,0.11-17.38,0.16
			c-0.67,0.01-1.35,0.05-2.01,0.01c-5-0.34-10-0.8-15-1.04c-11.47-0.55-22.95-0.9-34.42-1.51c-6.68-0.36-13.33-1.2-20-1.55
			c-5.27-0.28-10.57-0.03-15.86-0.2c-6.17-0.21-12.32-0.64-18.49-0.94c-4.49-0.22-8.99-0.32-13.49-0.58
			c-2.58-0.15-5.15-0.51-7.73-0.77c-4.41-0.45-8.83-0.8-13.22-1.38c-4.81-0.63-9.6-1.49-14.4-2.19c-1.55-0.23-3.12-0.27-4.68-0.42
			c-3.32-0.3-6.64-0.64-9.97-0.9c-1.21-0.09-2.43-0.02-3.64-0.02c-0.03-0.27-0.06-0.53-0.09-0.8c1.28-0.14,2.6-0.54,3.84-0.39
			c6.71,0.82,13.39,1.81,20.09,2.65c2.96,0.37,5.94,0.55,8.91,0.79c5.33,0.43,10.66,0.84,15.99,1.25
			c8.12,0.63,16.24,1.31,24.37,1.85c4.01,0.27,8.04,0.25,12.05,0.42c6.97,0.29,13.93,0.67,20.9,0.94c4.31,0.16,8.62,0.07,12.92,0.29
			c3.42,0.18,6.82,0.78,10.25,0.99c7.39,0.45,14.79,0.77,22.56,1.17c-0.96-0.82-1.7-1.5-2.49-2.12c-1.96-1.54-3.48-6.3-2.58-8.6
			c0.25-0.62,0.92-1.28,1.55-1.51c3.55-1.32,7.06-3.01,10.75-3.65c7.66-1.34,14.67-3.93,19.93-9.73c2.27-2.5,3.49-5.97,5.33-9.24
			c0.22,0.07,0.88,0.27,1.44,0.45c0.84-14.26-1.18-27.48-14.19-36.59c-9.4,0.65-19.18,1.75-28.97-0.58
			c-4.66-1.11-9.53-1.37-14.2-2.44c-3.62-0.83-7.11-2.27-10.63-3.54c-1.59-0.57-3.13-1.69-4.56,0.41c4.43,0.24,7.71,2.59,10.74,5.51
			c1.5,1.44,3.13,2.78,4.84,3.95c2.2,1.51,1.86,3.54,1.3,5.55c-1.6,5.71-3.3,11.39-4.96,17.09c-0.72,2.49-3.47,3.71-6.99,3.42
			c-6.62-0.55-13.26-0.95-19.9-1.4c-2.09-0.14-4.18-0.2-6.26-0.39c-2.82-0.26-3.91-1.33-4.36-4.09c-0.08-0.51-0.1-1.05-0.3-1.51
			c-2.18-5.21-4.35-10.43-6.62-15.61c-0.62-1.41-0.64-2.38,0.89-3.09c3.77-1.73,7.48-3.61,11.32-5.17c1.18-0.48,2.71-0.07,4.08-0.07
			c-0.01,0.19-0.02,0.38-0.03,0.58c-4.89,1.85-9.79,3.71-14.79,5.6c2.18,5.35,4.18,10.23,6.16,15.13c0.5,1.24,1.09,2.48,1.31,3.78
			c0.28,1.63,1.07,2.31,2.67,2.4c6.72,0.37,13.44,0.79,20.15,1.19c2.53,0.15,5.07,0.31,7.6,0.43c2.06,0.1,3.33-0.78,3.88-2.88
			c1.34-5.12,2.73-10.24,4.25-15.31c0.54-1.79,0.43-3.1-1.12-4.31c-2.99-2.34-5.82-4.9-8.86-7.17c-1.99-1.49-4.4-1.74-6.87-1.35
			c-0.42,0.07-0.86-0.03-1.66-0.07c0.31-0.94,0.56-1.68,0.92-2.75c-0.41-0.11-1.48-0.67-1.73-0.42c-2.16,2.16-6.23,1.43-7.54,4.63
			c-1.23,0-2.56,0.1-3.86-0.04c-0.69-0.07-1.34-0.56-2.01-0.86c0.52-0.28,1.04-0.57,1.56-0.83c0.51-0.26,1.03-0.5,1.64-0.79
			c-1.09-2.3-2.16-4.43-3.11-6.61c-0.91-2.09-2.72-1.89-4.54-2.2c-4.22-0.71-8.04-2.4-11.74-4.67
			c-9.31-5.72-14.52-14.54-18.96-24.03c-0.98-2.1-1.74-4.39-3.13-6.18c-1.68-2.15-3.91-3.88-5.92-5.77
			c-2.87-2.71-5.81-5.34-8.62-8.1c-6.74-6.63-13.53-13.1-21.87-17.87c-3-1.72-5.34-4.97-7.35-7.95c-2.52-3.74-4.68-7.79-6.46-11.93
			c-1.61-3.73-2.55-7.75-3.7-11.67c-1.33-4.55-2.53-9.15-3.86-13.71c-1.84-6.29-4.11-12.48-5.54-18.86
			c-1.08-4.84-1.65-9.92-1.52-14.88c0.18-6.97,0.65-14.03,2.03-20.84c1.74-8.57,5.76-16.41,9.46-24.34
			c4.48-9.6,10.38-18.1,17.64-25.74c4.52-4.75,8.85-9.69,13.57-14.23c4.45-4.28,9.28-8.17,13.95-12.22c0.47-0.4,1.01-0.72,1.51-1.08
			c0.18,0.19,0.35,0.38,0.53,0.57c-1.52,1.41-3.01,2.86-4.57,4.23c-3.35,2.92-6.85,5.67-10.08,8.72
			c-3.73,3.52-7.45,7.08-10.76,10.98c-5.16,6.08-10.16,12.32-14.85,18.77c-2.29,3.16-3.92,6.86-5.51,10.46
			c-3.09,7.02-6.54,13.97-8.73,21.28c-2.7,9.03-3.22,18.49-2.78,27.96c0.33,7.04,2.63,13.58,4.66,20.22
			c2.55,8.33,4.87,16.74,7.18,25.14c2.09,7.6,5.56,14.43,9.87,21.06c3.48,5.37,9.05,7.6,13.58,11.36c3.59,2.97,7.23,5.88,10.64,9.05
			c3.97,3.69,7.69,7.66,11.58,11.44c0.82,0.8,1.9,1.32,2.86,1.97c0.16-0.13,0.32-0.25,0.49-0.38c-0.48-1.17-0.99-2.34-1.44-3.52
			c-4.26-11.28-5.23-23.07-5.24-34.98c0-4,0.31-8.04,0.89-11.99c0.75-5.15,4.35-8.5,8.26-11.48c6.7-5.09,14.34-8.53,21.81-12.27
			c6.21-3.11,12.62-5.86,18.64-9.28c9.29-5.27,16.96-12.39,22.57-21.62c3.98-6.53,7.12-13.43,9.63-20.63
			c1.81-5.2,3.8-10.37,5.14-15.7c2.68-10.58,4.09-21.24,0.02-31.9c-2.94-7.7-7.47-14.09-14.46-18.61c-5.32-3.44-10.58-6.99-16-10.26
			c-6.77-4.09-13.72-7.9-20.53-11.91c-7.48-4.41-12.27-2.81-19.79,2.4c-3.85,2.67-7.56,5.54-11.35,8.29
			c-0.36,0.26-0.88,0.31-1.57,0.08c1.45-1.3,2.85-2.67,4.37-3.89c2.44-1.94,4.84-3.98,7.48-5.61c2.96-1.84,6.06-3.52,9.28-4.84
			c5.25-2.14,9.72,0.35,14.13,2.92c6.17,3.6,12.25,7.42,18.68,10.48c8.1,3.86,15.07,9.14,21.69,15.05
			c5.96,5.31,9.1,12.08,11.21,19.64c2.27,8.17,1.65,16.16-0.33,24.18c-1.33,5.39-2.24,10.98-4.33,16.07
			c-4.58,11.18-8.54,22.71-16.79,32.07c-5.26,5.97-11.21,11.02-18.1,14.78c-9.93,5.41-20.26,10.09-30.21,15.47
			c-4.83,2.61-9.41,5.82-13.72,9.25c-4.15,3.3-5.36,8.3-5.18,13.36c0.35,9.6,0.39,19.31,1.91,28.75c1.06,6.55,4.15,12.84,6.8,19.04
			c0.89,2.09,3.48,3.38,4.82,5.36c2.03,3.01,3.68,6.28,5.43,9.48c0.81,1.49,1.43,3.08,2.24,4.57c3.43,6.4,7.66,12.06,14.77,14.7
			c1.91,0.71,4.06,0.79,6.11,1.11c0.33,0.05,0.79-0.03,1.05-0.23c1.22-0.93,2.39-1.93,3.23-2.62c-2.68-3.15-5.97-6.27-8.34-9.99
			c-2.7-4.24-5.2-8.81-6.65-13.59c-1.57-5.18-1.96-10.75-2.62-16.18c-0.55-4.51,1.02-8.76,2.12-13.07c0.92-3.63,1.64-7.32,2.3-11.01
			c1.56-8.72,2.98-17.46,4.56-26.17c0.5-2.75,1.25-5.46,2-8.16c0.33-1.2,0.91-1.63,2.28-0.75c5.37,3.42,8.98,8.44,12.53,13.51
			c3.51,5.02,6.87,10.14,10.31,15.2c0.25,0.36,0.58,0.67,0.66,0.76c6.76-1.57,13.26-3.42,19.88-4.48c4.34-0.7,8.87-0.3,13.31-0.3
			c3.94,0,7.9-0.09,11.82,0.29c3.39,0.32,6.73,1.23,10.09,1.9c2.48,0.5,4.94,1.03,7.41,1.56c1.51,0.32,3,0.82,4.52,0.92
			c0.95,0.06,2.21-0.16,2.86-0.77c3.6-3.34,7.05-6.85,10.57-10.27c5.43-5.27,10.86-10.55,16.34-15.77c1.37-1.3,2.74-0.92,3.05,0.67
			c0.85,4.36,1.69,8.72,2.55,13.07c0.89,4.45,1.8,8.89,2.71,13.37c0.1,0.03,0.23,0.1,0.37,0.12c1.78,0.2,3.78-1.97,5.31,0.33
			c0.99,1.5,1.74,3.18,2.44,4.85c0.88,2.11,1.77,4.24,2.35,6.44c0.78,2.98,1.27,6.04,1.91,9.21c0.44,0,1.07-0.13,1.59,0.04
			c0.61,0.2,1.14,0.66,1.7,1.01c-0.48,0.59-0.92,1.64-1.45,1.7c-1.59,0.16-1.58,0.63-1.41,2.14c0.66,5.87,2.73,11.81,0.8,17.66
			c-1.7,5.16-4.15,10.07-6.3,15.08c-0.85,1.97-1.74,3.93-2.66,5.86c-2.08,4.37-5.7,7.08-9.91,9.18c-1.51,0.75-2.82,1.93-4.36,2.57
			c-5.32,2.21-10.64,4.45-16.07,6.34c-5.25,1.83-10.64,3.27-15.99,4.8c-1.18,0.34-2.46,0.34-3.88,0.52
			c8.39,7.01,12.33,15.88,12.72,26.39c0.17,4.62-0.21,9.26,0.1,13.86c0.59,8.99,0.82,18.08,4.72,26.49c0.47,1.02,0.9,2.09,1.58,2.96
			c1.26,1.62,2.25,3.33,5.04,3.15c4.13-0.27,8.31,0.29,12.47,0.34c0.77,0.01,1.83-0.48,2.29-1.09c2.37-3.11,4.66-6.29,6.85-9.54
			c2.27-3.38,4.09-7.09,6.62-10.24c3.85-4.78,7.87-9.49,12.32-13.7c4.35-4.12,9.36-7.31,15.93-6.7c3.26,0.3,6.58-0.18,9.85,0.07
			c4.14,0.32,8.3,0.79,12.37,1.62c3.38,0.69,4.57,2.57,4.69,6.14c0.19,5.42,0.76,10.85,3.22,15.7c1.98,3.9,4.75,7.39,7.15,11.07
			c1.06,1.62,2.04,3.3,3.09,4.93c0.89,1.39,2.02,1.72,3.76,1.51c2.93-0.35,5.93-0.02,8.88-0.28c1.93-0.17,4.09-0.44,5.66-1.43
			c4.34-2.74,9-5.26,11.88-9.71c2.01-3.1,3.76-6.41,5.22-9.8c1.12-2.61,1.69-5.47,2.33-8.26c0.14-0.6-0.32-1.47-0.73-2.05
			c-0.68-0.96-1.54-1.79-2.32-2.68c0.18-0.2,0.35-0.4,0.53-0.6c1.05,0.55,2.11,1.1,3.48,1.81c0.34-2.57,0.87-4.95,0.94-7.34
			c0.15-4.85-0.17-9.73,0.11-14.57c0.55-9.42,2.28-18.47,9.18-25.69c3.91-4.09,7.54-8.46,11.48-12.53c5.79-6,10.3-12.83,13.03-20.66
			c2.34-6.71-1.14-9.16-6.89-10.7c-1.08-0.29-2.54,0.27-3.65,0.8c-4.64,2.2-9.59,4.02-13.74,6.95c-5.74,4.05-11.17,8.64-14.73,15.02
			c-1.85,3.32-4.2,6.37-6.39,9.49c-1.26,1.8-3.23,1.35-4.96,1.19c-8.37-0.75-16.7-1.96-25.15-1.44c-5.67,0.35-11.36,0.49-17.04,0.64
			c-5.25,0.14-10.52,0.01-15.76,0.29c-3.25,0.18-6.46,1.02-9.71,1.36c-6.45,0.68-12.94,1.01-19.36,1.91c-4.31,0.6-8.51,2-12.79,2.89
			c-1.4,0.29-2.9,0.08-4.36,0.1c0.13-2.2,2.2-1.75,3.38-2.24c5.4-2.25,11.2-2.8,16.96-3.33c4.71-0.43,9.44-0.66,14.14-1.17
			c2.96-0.32,5.86-1.26,8.82-1.46c6.85-0.45,13.72-0.68,20.59-0.89c7.03-0.21,14.06-0.46,21.09-0.35
			c5.58,0.09,11.16,0.65,16.73,1.06c2.98,0.22,5.84,0.65,7.67-2.74c1.53-2.84,3.76-5.3,5.3-8.14c3.08-5.69,8.13-9.41,12.87-13.45
			c5.2-4.43,11.7-6.26,17.86-8.68c3.34-1.31,6.06,0.96,8.5,2.89c4.45,3.51,4,8.23,1.46,13.96c-4.26,9.6-11.2,17.11-18.54,24.44
			c-3.68,3.67-6.47,8.27-9.47,12.58c-4.09,5.89-3.39,12.85-3.9,19.5c-0.08,1.07,0.66,2.2,1.01,3.31c0.84,2.68,2.01,5.31,2.42,8.06
			c0.68,4.52,3.57,7.26,7.11,9.25c5.79,3.25,11.78,6.13,17.76,9.03c4.31,2.08,6.31,7.34,4.28,11.66c-0.51,1.08-0.75,2.28-1.29,3.34
			c-1.51,2.95-4.22,3.91-8.27,2.59c-5.53-1.8-10.57-4.71-14.66-8.79c-3.67-3.66-6.74-7.94-10.07-11.94
			c-0.32-0.38-0.6-0.78-0.99-1.28c-3.49,14.3-5.7,17.96-19.94,27.98c12.14,0,23.86,0,35.57,0c0.01,0.26,0.03,0.53,0.04,0.79
			c-2.45,0.92-5.07,0.36-7.62,0.39c-2.69,0.04-5.38-0.09-8.06-0.08c-2.69,0.02-5.37,0.16-8.06,0.19c-2.66,0.04-5.32,0.01-7.83,0.01
			c0,5.02-0.15,9.92,0.03,14.81c0.33,8.92-0.07,17.76-1.57,26.57c-1.15,6.77-1.82,13.62-2.86,20.41c-0.63,4.12-1.56,8.19-2.29,12.3
			c-0.17,0.96-1.13,2.35,1.14,2.31c-3.78,6.12-3.71,12.85-5.02,19.23c-1.54,7.5-3.31,14.96-4.59,22.5
			c-1.17,6.89-1.84,13.87-2.72,20.81c-0.88,6.94-1.81,13.87-2.59,20.82c-0.38,3.4-0.53,6.83-0.7,10.26
			c-0.25,4.98-0.01,10.02-0.73,14.92c-0.79,5.34,1.26,10.04,2.16,15.01c0.09,0.51,0.19,1.04,0.16,1.55
			c-0.19,3.36-0.38,6.72-0.65,10.08c-0.07,0.88-0.46,1.73-0.71,2.6c-0.29-0.02-0.59-0.03-0.88-0.05c-0.12-0.86-0.43-1.74-0.33-2.58
			c0.36-3.18,1.04-6.34,1.21-9.53c0.08-1.54-0.7-3.14-1.1-4.7c-1.36-5.22-1.89-10.38-1.18-15.88c0.84-6.48,0.43-13.11,0.76-19.66
			c0.13-2.64,0.86-5.25,1.17-7.9c0.6-5.16,1.29-10.32,1.6-15.5c0.52-8.72,1.73-17.27,4.09-25.72c1.47-5.28,2.07-10.81,3.05-16.22
			c0.67-3.66,1.33-7.32,1.98-10.98c0.12-0.69,0.12-1.39,0.19-2.4c-1.98,1.59-2.58,4.7-6.21,3.79c0.95-1.29,1.5-2.38,2.35-3.13
			c3.88-3.42,5.8-7.71,6.44-12.8c0.62-4.91,1.74-9.75,2.43-14.65c0.65-4.55,0.97-9.14,1.54-13.69c0.39-3.09,1.33-6.15,1.38-9.24
			c0.18-10.95,0.09-21.91,0.1-32.86c0-0.14-0.07-0.29-0.14-0.58c-3.18-0.74-5.74,1.19-8.53,2.14c-2.31,0.78-4.6,1.66-6.95,2.3
			c-2.35,0.64-4.01-0.53-5-2.59c-0.82-1.71-1.97-2.27-3.9-2.13c-3.1,0.22-6.23,0.06-9.37,0.06c1.76,9.84,0.21,19.41-0.83,28.95
			c-0.94,8.6-2.34,17.15-3.79,25.68c-1.06,6.23-2.64,12.37-3.76,18.59c-1.05,5.79-1.74,11.64-2.68,17.44
			c-2,12.24-2.4,24.58-2.81,36.94c-0.26,7.89-0.83,15.77-1.29,23.65c-0.31,5.27-0.93,10.54-0.95,15.81
			c-0.04,9.75,0.34,19.5,0.39,29.26c0.02,3.55-0.39,7.11-0.64,10.66c-0.02,0.34-0.24,0.67-0.98,1.15c-0.25-0.79-0.71-1.59-0.71-2.38
			c0-8.27,0.05-16.54,0.13-24.81c0.08-8.42-0.47-16.92,0.48-25.24c1.35-11.76,1.13-23.53,1.69-35.3c0.29-6.17,0.68-12.33,1.2-18.48
			c0.48-5.68,1.07-11.35,1.84-17c0.65-4.81,1.55-9.58,2.47-14.35c0.89-4.58,2.01-9.11,2.91-13.68c0.7-3.53,1.2-7.1,1.81-10.65
			c0.66-3.85,1.46-7.69,1.97-11.56c0.46-3.52,0.6-7.08,0.92-10.62c0.32-3.53,0.76-7.05,1.06-10.58c0.38-4.51,0.89-9.03-0.61-13.45
			c-4.72,0-9.45-0.01-14.17,0c-6.04,0.01-12.07-0.01-18.11,0.05c-6.4,0.07-12.8,0.25-19.2,0.32c-3.66,0.04-7.32,0.01-10.98-0.09
			c-0.66-0.02-1.31-0.47-1.97-0.73c1.81-0.14,3.62-0.38,5.43-0.41c6.95-0.1,13.91-0.14,20.87-0.17c2.59-0.01,5.18,0.1,7.76,0.05
			c2.69-0.05,5.39-0.32,8.08-0.33c2.65-0.01,5.3,0.29,7.95,0.27c3.46-0.03,6.91-0.34,10.37-0.36c5.35-0.03,10.7,0.07,16.04,0.12
			c0.33,0,0.66-0.04,1.46-0.09c-1.92-2.91-3.4-5.67-5.36-8.03c-5.96-7.14-8.37-15.47-8.9-24.56c-0.06-1.08-0.68-2.21-1.3-3.15
			c-1.65-2.46-4.67-2.21-6.9-2.35c-6.08-0.38-12.21,0.02-18.31,0.25c-3.49,0.13-7,0.64-9.77,2.97c-3.01,2.54-5.93,5.23-8.61,8.11
			c-4.19,4.5-8.45,8.98-11.48,14.42c-1.71,3.07-3.41,6.14-5.1,9.23C673.39,476.45,672.69,477.83,671.97,479.19z M571.87,397.01
			c5.37,3.09,11.16,4.39,16.93,5.36c7.34,1.24,14.76,2.28,22.18,2.66c5.23,0.27,10.58-0.38,15.78-1.19
			c6.37-0.99,12.79-2.11,18.92-4.04c8.35-2.62,16.62-5.71,24.16-10.3c3.61-2.2,7.17-4.56,8.98-8.71c1.79-4.1,3.55-8.22,5.55-12.22
			c2.84-5.69,4.21-11.53,2.92-17.9c-0.63-3.1-0.92-6.27-1.33-9.22c-4.67-0.3-9.15-0.85-13.63-0.82c-4.97,0.03-9.95,0.57-14.91,0.94
			c-5.41,0.41-10.82,0.82-16.22,1.34c-6.07,0.58-12.12,1.3-18.18,1.89c-3.49,0.33-7.01,0.46-10.5,0.76
			c-6.31,0.55-12.62,1.21-18.94,1.72c-4.17,0.34-8.35,0.41-12.52,0.76c-4.67,0.4-9.32,1.07-13.98,1.47c-4.74,0.41-9.54,0.36-14.24,1
			c-5.62,0.76-11.16,2.03-17.11,3.15c0.67,3.36,0.77,6.54,1.95,9.25c3.45,7.96,7.49,15.61,14.16,21.51
			c1.18,1.04,1.82,2.23,3.82,1.36c1.81-0.78,2.43-1.69,2.47-3.63c0.03-1.22,0.66-2.79,1.56-3.56c2.8-2.4,10.61-1.76,13.3,0.92
			c2.1,2.09,4.02,4.37,6.87,5.53c1.29,0.52,1.48,1.31,0.5,2.41C577.53,390.59,574.75,393.75,571.87,397.01z M668.08,292.07
			c-4.06,3.95-7.71,7.44-11.28,11.01c-1.26,1.26-2.25,2.79-3.51,4.05c-3.59,3.57-7.19,7.13-10.92,10.55
			c-1.6,1.46-3.24,3.04-5.9,2.27c-3.39-0.98-6.88-1.61-10.3-2.5c-9.8-2.56-19.88-1.75-29.83-2.26c-8.87-0.46-17.37,2.37-25.72,5.26
			c-0.51,0.18-1.57-0.25-1.92-0.73c-1.48-2.04-2.73-4.25-4.18-6.31c-3.98-5.66-7.96-11.34-12.09-16.89
			c-1.6-2.15-3.63-3.99-5.79-6.33c-4.92,14.45-6.04,28.87-8.09,43.12c0.82-0.11,1.76-0.24,2.7-0.38c4.78-0.69,9.56-1.34,14.33-2.07
			c2.94-0.45,5.84-1.13,8.79-1.49c4.06-0.5,8.19-0.58,12.22-1.24c5.21-0.86,10.34-2.17,15.52-3.19c5.27-1.04,10.56-1.98,15.85-2.94
			c3.81-0.69,7.61-1.85,11.44-1.91c7.3-0.11,14.61,0.41,21.92,0.68c7.7,0.28,15.39,0.56,22.52,0.81c-0.4-3.95-0.81-7.96-1.22-11.95
			c-3.08,1.75-3.17,6.35-7.3,7.11c2.18-3.57,4.66-6.92,7.25-10.17c0.43-0.55,1.35-0.7,2.05-1.04c0.17,0.68,0.42,1.34,0.48,2.03
			c0.4,4.65,0.77,9.3,1.15,14c1.61,0.08,3.09,0.07,4.55,0.27c1.08,0.14,2.22,0.49,2.47-0.95c0.05-0.29-1.17-0.8-1.88-1.26
			c2.84-0.76,1.94-3.03,1.58-4.83c-1.36-6.7-2.91-13.36-4.38-20.04C668.41,294.04,668.31,293.33,668.08,292.07z M601.33,334.97
			c0.01,0.22-0.08,0.6,0.07,0.78c2.21,2.61,4.43,5.21,6.71,7.76c0.22,0.25,0.83,0.24,1.25,0.21c4.31-0.36,8.61-0.69,12.91-1.14
			c7.02-0.73,14.03-1.53,21.05-2.31c1.32-0.14,2.63-0.31,3.95-0.42c4.07-0.34,8.13-0.71,12.2-0.98c4.79-0.32,9.58-0.71,14.37-0.79
			c3.79-0.06,7.59,0.31,11.55,0.5c-0.64-3.47-1.27-6.58-1.79-9.72c-0.61-3.67-1.81-4.9-5.23-4.91c-6.43-0.03-12.86,0.08-19.29-0.01
			c-6.4-0.09-12.8-0.31-19.19-0.53c-5.2-0.19-10.39-0.55-15.58-0.68c-3.11-0.08-6.33-0.3-9.33,0.35c-4.57,0.99-8.99,2.61-13.78,2.31
			c-0.55-0.03-1.12,0.23-1.27,0.27c0.72,2.34,1.41,4.6,2.15,7.02c1.82-0.23,3.61-0.47,5.57-0.72c-0.08,0.62-0.05,1.11-0.17,1.15
			C605.47,333.75,603.44,334.34,601.33,334.97z M590.7,335.49c-0.02-0.45-0.04-0.9-0.07-1.34c2.91-0.49,5.83-0.99,8.94-1.51
			c-0.4-2.01-0.85-4.22-1.33-6.59c-5.05,0.97-9.94,1.87-14.8,2.85c-1.8,0.36-3.54,1.08-5.35,1.34c-3.54,0.5-7.1,0.82-10.66,1.17
			c-2.74,0.27-5.58,0.1-8.2,0.8c-6.93,1.85-14,2.64-21.09,3.41c-0.55,0.06-1.37,0.7-1.47,1.2c-0.6,2.77-1.24,5.55-1.45,8.37
			c-0.18,2.34,0.22,4.73,0.34,6.81c3.84-1.12,7.14-2.43,10.56-2.98c4.25-0.68,8.61-0.62,12.9-1.06c6.28-0.64,12.53-1.61,18.81-2.11
			c7.35-0.57,14.72-0.77,22.08-1.16c1.74-0.09,3.48-0.31,5.56-0.5c-1.08-1.34-1.9-2.38-2.76-3.39c-0.85-1-1.75-1.97-2.63-2.95
			c-5.94,5.82-9.04,7.19-11.39,4.7c4.77-0.58,7.9-3.14,10.19-7.63C595.84,335.14,593.27,335.32,590.7,335.49z M640.97,444.8
			c-0.2,0.46-0.41,0.89-0.59,1.34c-1.48,3.61-3.26,6.95-6.52,9.38c-3.49,2.6-6.94,5.21-11.26,6.19c-2.84,0.65-5.78,0.9-8.57,1.67
			c-2.86,0.79-5.61,1.97-8.38,3.06c-0.49,0.19-1.07,0.7-1.22,1.18c-1.17,3.79,2.8,9.22,6.87,9.24c4.62,0.02,9.24-0.33,13.86-0.32
			c6.37,0.02,12.26-2.33,18.41-3.43c0.64-0.11,1.24-0.44,1.9-0.69C641.94,463.49,641.8,454.14,640.97,444.8z M793.6,430.09
			c-0.2,0.04-0.41,0.08-0.61,0.13c0.52,5.8,0.14,11.53-1.33,17.18c-0.13,0.49-0.09,1.21,0.18,1.6c2.2,3.18,4.32,6.43,6.76,9.41
			c4.5,5.49,10.47,9.04,16.86,11.9c4.58,2.05,6.43,1.25,8.4-3.36c0.03-0.07,0.04-0.14,0.08-0.21c2.9-4.85-0.06-8.44-3.88-10.38
			c-5.96-3.03-12.18-5.64-17.88-9.09c-3.12-1.89-5.96-4.69-6.66-8.84C795.05,435.62,794.25,432.86,793.6,430.09z M564.35,397.3
			c-2.3-1.8-3.95-3.67-6.02-4.55c-2.05-0.87-4.52-0.73-6.73-1.02c1.49,3.1,2.92,6.08,4.45,9.28
			C558.64,399.85,561.13,398.74,564.35,397.3z M565.97,387.57c0.71-1.37,1.15-3.59,2.43-4.31c1.49-0.84,3.72-0.36,5.69-0.45
			c-4.56-3.69-8.58-3.7-12.89-2.14c-1.44,0.52-1.91,1.67-1.62,3.32C563.63,382.66,564.66,385.94,565.97,387.57z M648.88,478.41
			c0.03-0.19,0.06-0.37,0.09-0.56c-0.64-0.48-1.49-0.82-1.88-1.46c-0.66-1.1-0.95-2.1-2.72-1.63c-4.23,1.12-8.52,2.05-12.82,2.88
			c-1.82,0.35-3.73,0.27-5.6,0.38c0.01,0.13,0.03,0.26,0.04,0.38C633.62,478.41,641.25,478.41,648.88,478.41z M569.09,386.14
			c-0.27,1.22-0.53,2.23-0.71,3.25c-0.17,1-0.25,2.02-0.38,3.07c5.11-0.47,7.58-2.96,6.83-6.59
			C572.96,385.96,571.1,386.05,569.09,386.14z M565.34,392.77c-0.32-4.78-3.14-7.84-5.67-6.29
			C559.58,391.02,561.45,393.32,565.34,392.77z M763.83,479.83c-0.04-0.08-0.08-0.16-0.11-0.24c-3.62,0-7.23,0-11.08,0
			c1.06,1.59,1.69,3.34,3.69,2.78C758.86,481.66,761.33,480.69,763.83,479.83z M527.11,378.99c-3.3-5.94-6.6-11.88-9.89-17.82
			c-0.21,0.12-0.43,0.25-0.64,0.37C519.32,367.81,522.6,373.76,527.11,378.99z M653.79,479.81c3.64,2.66,7.56,2.75,12.5,0
			C661.85,479.81,657.8,479.81,653.79,479.81z M679.8,321.33c-0.29-1.92-1.61-2.14-3.09-1.89c-0.44,0.08-0.81,0.59-1.21,0.91
			c0.42,0.33,0.81,0.86,1.28,0.94C677.71,321.44,678.68,321.33,679.8,321.33z"/>
		<path d="M701.82,147.7c-2.12,0.52-2.71-1.64-4.1-2.39c-0.39-0.21-0.65-0.67-1.54-1.64c-0.68,3.11-1.54,5.56-1.7,8.06
			c-0.29,4.54,0.25,9.15-0.36,13.63c-0.34,2.47-2.28,4.74-3.56,7.07c-0.41,0.74-1.02,1.37-1.89,2.49c1.1-0.05,1.66-0.01,2.18-0.12
			c3.48-0.73,6.92-1.67,10.43-2.19c5.17-0.77,10.39-1.27,15.59-1.85c7.63-0.85,15.26-1.72,22.89-2.46
			c5.25-0.51,10.52-0.79,15.77-1.25c2.07-0.18,4.12-0.7,6.19-0.88c5.33-0.46,10.68-0.82,16.01-1.22c-0.15-2.1-0.29-4.05-0.46-6.31
			c-1.13,0.93-1.94,1.59-2.84,2.32c-0.47-1.77,1.48-4.3,4.05-5.38c0.39,2.1,0.77,4.15,1.14,6.17c1.39,0.07,2.73,0.13,4.15,0.19
			c0-5.46,0-10.86,0-16.27c-0.21-0.07-0.42-0.14-0.63-0.22c-1.72,1.7-3.4,3.45-5.16,5.1c-2.39,2.24-4.84,4.41-7.26,6.61
			c-0.22,0.2-0.59,0.29-0.71,0.52c-2.5,4.76-6.41,2.52-9.81,1.8c-3.39-0.72-6.61-2.41-10.01-2.88c-3.66-0.51-7.47-0.31-11.19-0.04
			c-4.6,0.34-9.17,0.98-13.73,1.68c-1.78,0.27-3.46,1.18-5.23,1.53c-1.85,0.36-3.75,0.4-5.82,0.6c0.01,0.1,0.05,0.61,0.1,1.26
			c-0.46-0.06-1.1-0.1-1.11-0.16c-0.12-2.62-3.65-2.71-3.88-5.32c0.48-0.36,0.99-0.74,1.46-1.1c0.23,0.12,0.42,0.14,0.49,0.25
			c2.46,3.81,2.47,3.83,6.75,2.84c7.17-1.65,14.24-3.91,21.66-4.13c5.6-0.17,11.14,0.56,16.56,2.07c2.78,0.77,5.56,1.56,8.39,2.07
			c0.88,0.16,2.15-0.32,2.84-0.94c5.06-4.65,10.01-9.42,15.03-14.1c0.41-0.38,1.5-0.75,1.66-0.58c0.63,0.72,1.39,1.62,1.45,2.51
			c0.38,5.11,0.49,10.24,0.89,15.35c0.1,1.28,0.58,3.17,1.49,3.64c5.58,2.89,4.76,7.88,3.99,12.46c-0.82,4.89-2.39,9.67-3.91,14.42
			c-0.66,2.07-2.01,3.92-3.39,6.52c4.04,0,7.51,0.08,10.98-0.02c3.12-0.09,6.23-0.4,9.34-0.58c3.5-0.2,7.01-0.63,10.5-0.49
			c9.55,0.39,19.09,1.03,28.64,1.52c0.51,0.03,1.2-0.42,1.54-0.86c0.4-0.5,0.56-1.22,0.74-1.87c1.75-6.54,5.08-12.25,9.17-17.55
			c1.09-1.41,2.3-2.78,3.65-3.93c2.81-2.38,6.12-1.39,8.97-0.42c6.68,2.28,8.61,7.95,7.8,14.06c-0.86,6.5-3.76,11.83-8.52,16.27
			c-5.13,4.79-7.27,10.93-7.7,17.79c-0.28,4.47-0.37,8.96-0.86,13.4c-0.57,5.18-2.41,10.03-5.1,14.47
			c-2.12,3.49-4.18,7.17-7.02,10.02c-4.54,4.58-10.19,6.21-16.65,4.04c-6.06-2.04-7.6-4.39-10.71-8.33
			c-2.34,2.25-4.51,4.8-7.15,6.69c-1.7,1.23-4.05,1.77-6.19,2.12c-2.31,0.37-4.29-1.88-5.03-5.04c-1.25-5.29,1.5-9.44,5.46-12.75
			c2.11-1.76,4.18-3.56,6.78-5.77c-1.66-0.23-2.65-0.33-3.64-0.5c-7.69-1.35-15.44-1.65-23.23-1.51c-1.61,0.03-2.18,0.55-1.76,2.17
			c0.69,2.64,1.04,5.39,2.02,7.9c0.39,1,2.03,1.61,3.2,2.16c0.85,0.4,1.88,0.44,2.83,0.63c2.14,0.44,3.7,2.64,2.97,4.64
			c-1.25,3.44-3.31,6.6-6.58,8.16c-3.82,1.81-9.89,1.45-12.05-4.47c-1.41-3.87-2.14-8-3.19-12.01c-0.4-1.55-0.82-3.1-1.39-5.24
			c-1.27,2.21-2.71,3.97-3.36,5.99c-1.99,6.21-6.07,11.06-10.16,15.83c-1.93,2.25-4.52,4.08-7.73,4.58
			c-2.86,0.45-4.41-0.27-5.73-2.76c-0.85-1.6-1.97-3.09-2.63-4.76c-0.77-1.97-1.58-4.06-1.66-6.13c-0.19-4.71,0.65-9.12,3.52-13.25
			c3.48-5.02,8.68-8.12,12.68-12.5c1.91-2.1,2.59-4.84,1.33-7.45c-3.3,1.51-6.52,3.25-9.92,4.47c-3.19,1.14-6.54,1.89-10.03,1.31
			c-1.01-0.17-2.08,0.06-3.12,0.04c-3.38-0.06-6.34-1.17-9.14-3.12c-0.96-0.67-2.58-0.38-3.9-0.53c-0.16,0.26-0.31,0.52-0.47,0.78
			c2.14,1.96,4.19,4.04,6.46,5.84c1.91,1.52,4.15,2.6,6.07,4.1c0.72,0.57,1.58,2.03,1.32,2.63c-2.31,5.24-4.77,10.42-7.39,15.52
			c-0.73,1.41-2.01,2.63-3.27,3.66c-0.79,0.65-1.99,1.1-3.01,1.11c-6.33,0.04-12.65-0.08-18.98-0.14c-2.23-0.02-2.45-2-2.99-3.37
			c-2.01-5.04-3.81-10.16-5.69-15.25c-1.08-2.93-0.35-5.76,2.09-7.68c2.2-1.73,4.37-3.55,6.74-5.02c1.35-0.84,3.08-1.05,4.42-1.47
			c-2.21-1.35-5.49-2.25-6.91-5.48c-0.18-0.41-0.43-0.78-0.63-1.18c-1.43-2.88-1.37-3,1.47-4.34c1.17-0.56,2.28-1.25,3.24-1.79
			c-2.88-3.19-5.74-6.06-8.25-9.21c-2.74-3.44-4.67-7.38-6.01-11.59c-0.16-0.49-0.7-0.85-0.99-1.32c-0.55-0.92-2.13-1.33-1.35-2.97
			c0.13-0.28-1-0.98-1.12-1.58c-0.34-1.65-0.46-3.34-0.65-5.02c-0.02-0.13,0.18-0.31,0.14-0.41c-2-4.77,1.89-7.53,3.99-10.68
			c1.23-1.85,0.98-3.47,1.03-5.24c0.21-7.21-0.27-14.5,2.56-21.37c0.24-0.57,1.85-1.25,2.1-1.03c2.37,2.01,4.59,4.19,6.81,6.36
			c0.12,0.12-0.06,0.56-0.1,0.84C702.83,148.23,702.32,147.97,701.82,147.7z M716.85,204.44c0.52-0.41,1.04-0.82,1.64-1.29
			c0.73,0.42,1.53,0.89,2.09,1.21c1.06-1.03,2.58-1.81,2.63-2.68c0.18-2.82,1.91-4.78,3.34-6.81c0.96-1.36,2.67-2.35,4.25-3.03
			c0.78-0.33,2.26,0.14,3,0.76c0.93,0.77,1.59,1.99,2.06,3.14c0.71,1.71,1.49,3.05,3.61,2.37c0.94,2.64-0.98,3.99-2.2,5.56
			c-2.12,2.73-3.99,5.84-8.11,5.9c-1.31,0.02-2.62,0.36-3.93,0.55c0.01,0.26,0.03,0.52,0.04,0.78c0.88,0.17,1.76,0.35,2.64,0.52
			c0.03,0.15,0.07,0.3,0.1,0.44c-1.18,0.33-2.36,0.67-3,0.85c-0.53,1.84-0.96,3.26-1.33,4.71c-0.08,0.33-0.06,0.77,0.09,1.06
			c1.1,2.14,2.44,4.05,4.78,5.05c6.92,2.98,13.85,2.88,20.9,0.36c9.01-3.23,15.54-10.13,23.04-15.55
			c4.21-3.04,7.55-7.12,10.41-11.56c2.93-4.55,4.12-9.63,5.52-14.61c-3.02,0.33-5.82,0.61-8.6,0.95c-4.59,0.56-9.16,1.33-13.76,1.7
			c-7.85,0.63-15.71,1.15-23.57,1.48c-7.82,0.33-15.65,0.4-23.48,0.53c-1.4,0.02-2.82-0.37-4.21-0.29
			c-3.56,0.2-7.12,0.46-10.66,0.87c-4.2,0.48-8.38,1.15-12.91,1.78c2.28,3.86,4.18,7.69,6.67,11.08c2.51,3.43,5.62,6.42,8.53,9.66
			c1.54-1.63,2.64-2.85,3.81-4c1.91-1.88,4.93-2.52,6.64-1.49c-0.39,0.29-0.75,0.64-1.17,0.85c-1.77,0.88-3.57,1.72-5.36,2.58
			c3.59,1.32,3.13,4.43,4.05,6.45c1.85-1,3.69-2.05,5.58-2.99c0.32-0.16,1.02,0,1.29,0.27c0.28,0.28,0.31,0.86,0.34,1.32
			c0.07,0.95,0.08,1.9,0.11,2.86c0.34-0.02,0.67-0.05,1.01-0.07c-0.12-2.39-0.24-4.79-0.32-6.47
			C720.35,207.47,718.6,205.95,716.85,204.44z M760.55,219.83c2.28,4.16,1.44,7.7-1.66,10.76c-3.56,3.51-7.32,6.82-10.8,10.4
			c-2.59,2.67-4.45,5.83-4.62,9.72c-0.22,5.17,0.97,9.88,4.08,14.15c1.33,1.82,2.75,2.24,4.58,1.38c2.63-1.24,5.15-2.66,6.83-5.22
			c1.34-2.05,2.89-3.96,4.2-6.02c1.36-2.13,2.99-4.22,3.75-6.57c2.21-6.87,6.13-11.48,13.77-11.86c3.47-0.17,6.94-0.36,10.41-0.28
			c4.77,0.1,9.53,0.51,14.3,0.68c3.87,0.14,7.74,2.48,11.63-0.19c0.55,2.8,0.94,5.41,1.6,7.96c0.81,3.16,1.35,6.53,2.88,9.33
			c2.81,5.13,7.83,7.69,13.43,8.24c4.94,0.49,9.21-1.78,12.29-5.72c1.68-2.15,3.14-4.54,4.34-7c1.73-3.53,3.8-7.09,4.55-10.88
			c1.23-6.2,1.63-12.57,2.15-18.88c0.57-6.85,3.24-12.62,8.1-17.45c4.9-4.87,7.96-10.53,7.96-17.68c0-4.82-2.27-8.04-6.48-9.74
			c-2.39-0.96-5.45-2.24-7.58,0.19c-3.22,3.68-6.33,7.57-8.79,11.78c-1.83,3.14-2.66,6.89-3.76,10.42c-0.8,2.56-1.58,2.95-4.21,2.64
			c-3.91-0.47-7.86-0.62-11.8-0.84c-2.3-0.13-4.6-0.05-6.9-0.17c-4.48-0.24-8.95-0.72-13.43-0.77c-3.65-0.04-7.31,0.51-10.96,0.59
			c-4.71,0.1-9.43-0.12-14.13,0.07c-1.22,0.05-2.64,0.83-3.55,1.71c-2.67,2.59-4.91,5.67-7.73,8.07
			C770.42,212.53,765.5,216.03,760.55,219.83z M687.48,176.89c0.32,2.05,0.35,4.08,0.99,5.9c1.47,4.2,1.58,4.08,6.1,3.46
			c3.33-0.45,6.68-0.81,10.04-0.96c6.21-0.28,12.42-0.37,18.64-0.54c3.89-0.1,5.85-1.74,6.52-5.64c-1.63-0.09-3.24-0.19-5.37-0.31
			c0.44-0.61,0.69-1.35,1.1-1.46c0.91-0.23,1.91-0.22,2.87-0.17c1.37,0.08,2.2-0.27,2.03-1.86c-0.04-0.39,0.14-0.8,0.25-1.34
			c0.44,0.22,0.86,0.29,0.93,0.48c1,2.74,3.11,2.23,5.2,1.84c0.88-0.16,1.77-0.39,2.66-0.39c0.67,0,1.35,0.32,2.02,0.5
			c-2.81,2.17-6.67,0.9-8.84,3.64c0.91,0.84,1.7,1.7,2.62,2.39c0.81,0.61,1.74,1.46,2.64,1.5c4.01,0.17,8.05,0.39,12.03,0.05
			c12.56-1.06,25.11-2.35,37.65-3.63c0.64-0.07,1.67-0.87,1.73-1.42c0.34-2.88,0.58-5.8,0.57-8.7c-0.01-2.3-1.39-3.54-3.66-3.76
			c-0.97-0.09-1.95-0.11-2.92-0.04c-10.99,0.84-21.99,1.6-32.96,2.62c-7.5,0.7-14.95,1.86-22.44,2.68c-3.99,0.44-8.01,0.5-12.01,0.9
			c-4.52,0.46-9.03,1.07-13.53,1.7c-1.67,0.23-3.3,0.75-4.96,1.03C694.2,175.9,691.04,176.35,687.48,176.89z M719.96,224.79
			c-2.63,0.69-5.19,1.82-7.8,1.93c-4.03,0.17-7.72,0.55-11.18,3.06c-3.57,2.58-5.24,4.95-4.1,8.04c2,5.46,4.2,10.86,6.19,16.33
			c0.47,1.28,1.2,1.51,2.35,1.51c5.07,0.03,10.15-0.1,15.2,0.25c2.4,0.16,3.73-0.87,5.07-2.44c3.75-4.4,5.54-9.81,7.78-14.99
			c0.21-0.48-0.33-1.56-0.83-2c-1.23-1.08-2.69-1.87-3.97-2.9C725.32,230.91,721.36,228.82,719.96,224.79z M785.4,262.71
			c3.28-0.07,5.72-1.79,7.57-4.93c1.61-2.73,0.93-4.17-2.21-4.52c-2.63-0.3-4.96-1.37-5.89-3.82c-1-2.65-1.31-5.55-1.99-8.33
			c-0.22-0.87-0.75-2.43-1.02-2.4c-2.33,0.22-4.67,0.61-6.89,1.32c-0.27,0.09,0.13,2.32,0.23,3.56c0.02,0.3,0.05,0.6,0.1,0.89
			c0.88,4.75,1.47,9.56,3.71,13.99C780.53,261.47,783.01,262.42,785.4,262.71z M815.71,240.8c-0.28-0.05-0.55-0.1-0.83-0.15
			c-3.55,3.58-7.01,7.25-10.67,10.71c-2.46,2.33-2,5.01-1.26,7.68c0.44,1.6,1.78,2.5,3.59,2.51c3.81,0.02,6.48-1.99,8.6-4.86
			c1.62-2.19,3.84-4.31,1.98-7.49c-0.2-0.35-0.06-0.89-0.14-1.33C816.57,245.51,816.13,243.15,815.71,240.8z M705.91,213.23
			c-0.61,0.34-1,0.56-1.38,0.77c-2.9,1.58-3.25,1.9-1.06,4.37c2.04,2.3,4.88,3.91,7.49,5.65c0.29,0.19,1.81-0.65,1.98-1.23
			c0.58-1.99-0.94-4.73-3.07-5.27C707.59,216.95,706.42,215.64,705.91,213.23z M731.4,181.03c-2.02,3.23-2.02,3.23,1.23,3.77
			c0.41,0.07,0.83,0.11,1.72,0.22C733.25,183.54,732.41,182.4,731.4,181.03z M718.5,220.31c-0.2-0.1-0.4-0.2-0.6-0.29
			c-0.72,1.07-1.44,2.13-2.54,3.76c1.51-0.16,2.26-0.24,3.14-0.34C718.5,222.24,718.5,221.28,718.5,220.31z M779.61,164.72
			c1.29-0.06,2.52-0.12,3.93-0.18C781.29,162.56,780.3,162.61,779.61,164.72z"/>
		<path d="M795.79,703.31c0.08-4.62,0.09-9.24,0.27-13.86c0.22-5.41,0.62-10.81,0.89-16.22c0.19-3.76,0.2-7.53,0.46-11.28
			c0.3-4.21,0.89-8.39,1.18-12.6c0.26-3.71,0.3-7.44,0.39-11.16c0.09-3.25,0.08-6.51,0.19-9.76c0.12-3.5,0.3-7,0.52-10.5
			c0.34-5.55,0.63-11.11,1.11-16.65c0.79-9.07,1.79-18.11,2.53-27.18c0.27-3.24-0.01-6.51,0.1-9.77c0.07-2.16,0.49-4.3,0.54-6.46
			c0.15-7.26,0.31-14.53,0.27-21.79c-0.03-5.55-0.45-11.1-0.56-16.66c-0.1-4.98,0.01-9.97,0-14.95c0-4.41-0.16-8.82-0.01-13.22
			c0.07-2.05,0.66-4.08,1.05-6.11c0.25-1.3,0.46-2.62,0.9-3.86c0.16-0.44,0.95-0.65,1.46-0.96c0.2,0.53,0.67,1.13,0.56,1.58
			c-2.62,10.49-1.06,21.09-0.99,31.66c0.05,6.86,0.13,13.73,0.12,20.59c0,5.56-0.06,11.13-0.19,16.69c-0.12,5.34-0.33,10.67-0.57,16
			c-0.33,7.23-0.6,14.46-1.15,21.67c-0.77,10.03-1.89,20.03-2.62,30.06c-0.41,5.66-0.19,11.37-0.5,17.04
			c-0.44,8.16-1.15,16.31-1.66,24.46c-0.42,6.69-0.6,13.4-1.11,20.09c-0.55,7.19-1.34,14.36-2.11,21.53
			c-0.06,0.56-0.73,1.05-1.12,1.57L795.79,703.31z"/>
		<path d="M843.57,577.99c1.56-0.77,2.48-0.46,2.41,1.46c-0.16,4.25-0.25,8.51-0.53,12.75c-0.24,3.56-0.73,7.1-1.07,10.66
			c-0.66,6.83-1.32,13.66-1.91,20.5c-0.56,6.46-1.13,12.92-1.53,19.39c-0.58,9.6-1.04,19.2-1.5,28.81
			c-0.56,11.65-1.07,23.31-1.57,34.96c-0.2,4.56-0.3,9.12-0.49,13.68c-0.03,0.81-0.27,1.61-0.41,2.41
			c-0.24,0.01-0.48,0.02-0.73,0.03c-0.26-1.09-0.76-2.18-0.75-3.27c0.01-7.66-0.02-15.33,0.25-22.99c0.32-8.96,0.99-17.91,1.4-26.87
			c0.3-6.44,0.24-12.9,0.67-19.32c0.49-7.26,1.39-14.5,2.02-21.76c0.61-7.05,1.01-14.12,1.64-21.17c0.64-7.17,1.52-14.31,2.14-21.48
			c0.23-2.59,0.01-5.23,0-7.84L843.57,577.99z"/>
		<path d="M843.62,577.93c-0.46,2.8-0.91,5.61-1.37,8.41c-0.13,0.06-0.26,0.12-0.39,0.17c-0.15-1.01-0.59-2.08-0.4-3.02
			c1-4.86,1.08-9.6-0.79-14.3c-0.4-1.01-0.38-2.2-0.43-3.32c-0.38-7.94-0.73-15.89-1.1-23.83c-0.39-8.33-0.85-16.65-1.17-24.98
			c-0.19-4.85-0.08-9.7-0.28-14.55c-0.28-6.63-0.52-13.28-2.65-19.66c-0.47-1.41-0.9-2.96-1.8-4.08c-1.62-2.03-4.09-1.98-6.46-1.95
			c-0.23-0.22-0.47-0.43-0.7-0.65c0.53-0.2,1.06-0.41,1.59-0.61c2.27-0.82,6.3,0.87,7.38,3.1c2.77,5.69,3.72,11.82,4.09,18.04
			c0.52,8.72,0.94,17.45,1.35,26.18c0.35,7.52,0.59,15.06,0.97,22.58c0.2,3.95,0.63,7.89,0.88,11.84
			c0.44,6.89,0.82,13.78,1.22,20.67C843.57,577.99,843.62,577.93,843.62,577.93z"/>
		<path d="M547.95,176.99c1.3-0.62,2.59-1.26,3.91-1.84c2.32-1.01,4.64-2.05,7.01-2.92c0.61-0.23,1.44,0.13,2.17,0.21
			c-0.16,0.71-0.25,1.43-0.49,2.12c-0.55,1.59-1.28,3.13-1.71,4.75c-0.59,2.21-1.14,4.46-1.39,6.73c-0.26,2.46,0.85,3.55,3.33,3.77
			c0.67,0.06,1.35,0.03,2.02,0.03c0.62,0,1.24,0,2.07,0c-1.77,2.64-6.89,2.27-8.31-0.09c-2-3.34-0.68-6.66-0.19-9.97
			c0.21-1.44,0.8-2.83,1.34-4.7c-4.09,1.23-7.66,2.59-10.76,5c-1.12,0.87-2.06,1.13-3.37-0.62c3.89-4.89,7.85-9.88,11.78-14.83
			c-3.41,1.38-6.34,4.42-10.23,5.23c-0.15-0.21-0.3-0.43-0.45-0.64c0.44-0.49,0.79-1.13,1.34-1.43c4.02-2.24,8.06-4.46,12.16-6.56
			c0.63-0.32,1.59,0.01,2.4,0.04c-0.27,0.75-0.35,1.66-0.85,2.21c-3.99,4.38-8.06,8.7-12.11,13.03
			C547.73,176.67,547.84,176.83,547.95,176.99z"/>
		<path d="M771.47,600.54c2.79-2.49,5.85-0.72,8.09-2.07c-0.13-1.28-0.25-2.49-0.37-3.69c0.21-0.1,0.42-0.2,0.63-0.3
			c0.46,0.62,1.13,1.18,1.34,1.87c0.52,1.73,1.47,1.91,3.05,1.42c0.68-0.21,2.19,0.15,2.27,0.49c0.31,1.37-0.63,1.93-1.96,2.05
			c-1.99,0.18-3.7,0.44-2.64,3.34c0.51,1.38,0.09,3.09,0.09,5.1c1.66-0.57,3.06-1.04,4.57-1.56c0.54,2.12-0.83,2.98-2.35,3.23
			c-2.14,0.36-2.73,1.57-2.82,3.48c-0.04,0.76-0.68,1.5-0.66,2.23c0.01,0.69,0.36,1.76,0.86,1.98c1.7,0.74,3.56,1.1,5.29,1.79
			c0.61,0.24,1.01,1.01,1.51,1.54c-0.72,0.22-1.5,0.75-2.14,0.61c-2.17-0.49-4.27-1.28-6.43-1.82c-0.85-0.21-1.78-0.08-2.68-0.06
			c-1.22,0.02-2.48,0.28-3.64,0.04c-0.5-0.11-1.14-1.27-1.06-1.86c0.06-0.46,1.12-0.82,1.78-1.15c0.24-0.12,0.59,0.01,0.89,0
			c0.92-0.03,2.45,0.24,2.66-0.17c0.79-1.54,1.16-3.29,1.74-5.14c-3.22-0.11-6.13,1.36-8.5-1.79c0.9-0.23,1.6-0.5,2.31-0.58
			c1.77-0.19,3.55-0.22,5.3-0.49c0.46-0.07,1.16-0.82,1.15-1.24c-0.04-1.92-0.24-3.85-0.54-5.75c-0.05-0.32-0.89-0.72-1.36-0.71
			c-1.11,0.02-2.23,0.44-3.32,0.37C773.67,601.65,772.85,601.1,771.47,600.54z"/>
		<path d="M871.02,653.39c2.1-0.54,3.94-1.01,5.79-1.48c0.51-0.13,1.15-0.53,1.49-0.35c0.86,0.44,1.58,1.15,2.35,1.75
			c-0.74,0.42-1.43,1.02-2.22,1.21c-1.44,0.34-2.96,0.32-4.4,0.66c-1.77,0.41-2.45,2.04-1.23,3.36c2.51,2.72,5.24,5.25,7.89,7.85
			c0.56,0.55,1.14,1.07,1.72,1.61c-0.1,0.27-0.21,0.55-0.31,0.82c-0.91-0.24-2.04-0.22-2.68-0.78c-3.25-2.81-6.37-5.78-9.57-8.72
			c-1.14,5.16-5.84,7.61-9.32,11.03c-1.1,1.08-2.62,0.32-3.24-1.24c5.38-2.31,8.61-6.34,10.35-11.46c-2.62,0.2-5.23,0.48-7.84,0.52
			c-0.42,0.01-0.87-1.01-1.52-1.82c2.21-0.22,3.98-0.3,5.72-0.61c1.15-0.2,2.24-0.75,3.37-1.1c1.55-0.49,1.66-1.4,1.06-2.78
			c-0.25-0.57,0.05-1.37,0.1-2.06c0.74,0.45,1.64,0.76,2.17,1.38C871.05,651.58,870.9,652.44,871.02,653.39z"/>
		<path d="M784.39,568.47c0.5,0.14,1,0.29,1.72,0.49c-0.84-2.27-1.61-4.33-2.37-6.39c-3.01,0.01-5.47,3.49-8.7,1.86
			c-0.05-0.23-0.11-0.47-0.16-0.7c2.28-1.03,4.58-2.02,6.83-3.12c0.49-0.24,1.18-0.94,1.12-1.32c-0.28-1.81-0.8-3.58-1.19-5.22
			c-3.08,0.54-5.59,3.09-8.8,1.98c-0.09-0.26-0.18-0.52-0.27-0.78c2.02-0.98,3.96-2.39,6.09-2.82c2.8-0.56,1.94-1.76,0.99-3.25
			c1.07-1.06,2.01-2.03,2.66,0.21c0.49,1.72,1.64,1.14,2.69,0.81c1.7-0.53,3.38-1.14,5.08-1.64c0.6-0.18,1.26-0.14,1.93-0.21
			c-0.24,2.47-3.35,4.07-8.08,4.35c0.4,2,0.79,4,1.24,6.26c1.77-0.79,3.49-1.57,5.23-2.31c0.68-0.29,1.4-0.59,2.12-0.65
			c0.39-0.03,0.83,0.42,1.25,0.66c-0.24,0.41-0.38,1.01-0.74,1.2c-1.59,0.82-3.22,1.57-4.87,2.27c-1.55,0.66-2.2,1.36-1.29,3.22
			c0.93,1.9,1.39,4.06,1.82,6.15c0.33,1.58-0.67,2.25-2.09,1.49c-0.94-0.51-1.75-1.26-2.62-1.9
			C784.12,568.88,784.26,568.67,784.39,568.47z"/>
		<path d="M882.18,576.1c-5.1,2.8-10.42,2.53-15.44,2.16c0.97,2.36,1.95,4.92,3.11,7.4c0.22,0.47,1.18,0.68,1.84,0.85
			c3.45,0.86,6.91,1.64,10.35,2.54c0.34,0.09,0.53,0.73,0.79,1.12c-0.54,0.3-1.15,0.94-1.6,0.84c-1.79-0.41-3.51-1.14-5.3-1.57
			c-1.76-0.42-3.58-0.6-5.37-0.89c-0.74,4.94-1.7,6.46-3.9,6.54c-2.38,0.09-4.24-0.93-4.54-2.48c-0.5-2.57,0.5-3.7,5-5.64
			c-0.22-4.47-2.31-7.99-5.84-10.77c2.21-1.66,3.08,0.11,3.78,0.68c2.96-0.19,5.5-0.24,8.01-0.57c1.73-0.23,3.42-0.82,5.11-1.32
			C879.68,574.55,881.07,574.31,882.18,576.1z M868.13,589.28c-2.05-0.17-3.5,0.36-3.94,2.21c-0.1,0.42,0.92,1.6,1.41,1.59
			C867.86,593.04,867.71,591.09,868.13,589.28z"/>
		<path d="M749.98,512.65c5.6-7.5,10.53-17.27,11.34-22.74c-4.38,0.7-8.62,1.37-13.05,2.07c0,1.72,0.02,3.27-0.01,4.82
			c-0.05,2.77-0.37,2.94-2.82,1.47c0.16-1.66,0.29-3.36,0.53-5.04c0.06-0.4,0.5-0.76,0.82-1.09c0.16-0.17,0.63-0.34,0.62-0.36
			c-1.32-2.94,1.26-1.77,2.21-1.95c3.43-0.66,6.88-1.3,10.35-1.62c3.06-0.28,4.16,0.93,3.64,3.85c-0.34,1.93-0.98,3.9-1.88,5.64
			c-2.59,5-5.33,9.92-8.14,14.8C752.41,514.56,751.93,514.5,749.98,512.65z"/>
		<path d="M870.64,512.52c3.56-1.01,7.3-2.92,11.75-0.63c-0.71,0.31-1.4,0.77-2.15,0.91c-2.24,0.4-4.5,0.67-6.75,0.98
			c-1.59,0.22-1.88,1.21-1.63,2.59c0.36,2.02,0.69,4.06,1.03,6.06c2.55,0.37,5.33,0.66,8.07,1.23c0.89,0.18,1.65,1.07,2.46,1.63
			c-1.03,0.15-2.08,0.51-3.07,0.39c-2.2-0.25-4.36-0.81-6.55-1.06c-0.45-0.05-1.1,0.63-1.47,1.12c-1.08,1.41-1.98,2.95-3.1,4.31
			c-1.01,1.24-2.37,0.89-3.42,0.1c-0.97-0.74-1.64-1.89-0.67-3.11c1.04-1.3,2.01-2.88,3.4-3.6c1.48-0.77,1.79-1.69,1.51-2.96
			c-0.49-2.18-1.22-4.3-1.75-6.47c-0.17-0.7-0.01-1.48,0-2.22C869.02,512.03,869.74,512.25,870.64,512.52z"/>
		<path d="M775.41,635.33c-0.51-1.95-0.97-3.71-1.55-5.95c4.04,0.63,2.55,4.41,4.46,6.31c1.29,0,2.94,0,4.58,0
			c0.03,0.34,0.07,0.69,0.1,1.03c-1.65,0.33-3.3,0.66-5.05,1.01c0,2.47,0.14,5.01-0.04,7.53c-0.22,3.03-1.57,5.66-3.65,7.86
			c-0.34,0.36-1,0.42-1.51,0.62c-0.16-0.13-0.32-0.26-0.47-0.4c0.92-1.91,1.85-3.82,2.81-5.8c-2.22-0.87-5.12,0.83-5.99-2.04
			c-0.71-2.33,0.9-4.25,2.56-5.59c0.85-0.69,2.46-0.43,3.73-0.6c0.09,0.22,0.19,0.43,0.28,0.65c0-0.73,0-1.47,0-2.45
			c-3.2,0.16-6.34,0.31-9.48,0.46C768.68,634.79,772.12,636,775.41,635.33z M773.7,641.26c-0.34,0.05-0.68,0.1-1.03,0.15
			c-0.5,1.17-1.01,2.35-1.51,3.52c0.5,0.22,1.14,0.74,1.49,0.59c0.9-0.38,2.2-0.94,2.35-1.64
			C775.16,643.13,774.18,642.15,773.7,641.26z"/>
		<path d="M822.96,502.86c1.13-0.3,1.97-0.54,2.81-0.75c2.93-0.72,6.03,0.83,6.94,3.46c0.73,2.09-0.99,5.99-3.21,7
			c-0.56,0.26-1.33,0.05-2.01,0.06c0.18-0.61,0.29-1.26,0.56-1.83c0.32-0.67,0.8-1.26,1.19-1.89c0.96-1.56,1.14-3.13-0.23-4.51
			c-1.37-1.39-2.71-0.07-3.78,0.48c-1.33,0.69-2.29,2.06-3.53,2.98c-0.6,0.44-1.48,0.5-2.24,0.73c-0.11-0.68-0.43-1.4-0.28-2.02
			c0.74-3.06,1.6-6.09,2.41-9.13c-0.21-0.15-0.42-0.29-0.63-0.44c-0.87,0.28-1.72,0.7-2.6,0.79c-0.52,0.06-1.09-0.4-1.63-0.63
			c0.25-0.46,0.4-1.08,0.78-1.36c0.59-0.43,1.33-0.66,2.03-0.93c1.34-0.51,2.22-1.26,2.37-2.87c0.07-0.75,0.84-1.43,1.29-2.14
			c0.2,0.1,0.39,0.2,0.59,0.3c-0.03,0.71-0.07,1.43-0.12,2.48c0.94-0.3,1.79-0.65,2.68-0.81c0.58-0.1,1.2,0.08,1.81,0.13
			c-0.32,0.65-0.56,1.36-0.99,1.93c-0.24,0.32-0.76,0.45-1.18,0.59c-1.69,0.59-2.43,1.74-2.47,3.55
			C823.49,499.58,823.18,501.11,822.96,502.86z"/>
		<path d="M790.6,518.96c-3.43,1.39-6.6,2.66-9.75,3.96c-1.24,0.51-2.27,0.53-3.12-1.14c2.55-1.17,4.92-2.35,7.36-3.37
			c3.08-1.28,6.21-2.45,9.35-3.57c0.61-0.22,1.39,0.05,2.09,0.1c-0.1,0.82,0.09,1.89-0.36,2.4c-1.31,1.52-2.75,2.98-4.36,4.16
			c-4.48,3.28-5.22,12.3,0.51,15.33c0.43,0.23,0.53,1.06,0.78,1.62c-0.67,0.02-1.45,0.27-1.99,0.02c-3.71-1.69-5.6-7.47-5.08-11.96
			C786.42,523.12,788.94,521.6,790.6,518.96z"/>
		<path d="M862.43,691.47c-6.19-0.61-6.19-0.61-6.6-1.96c1.81-0.36,3.59-0.98,5.39-1.01c2.52-0.04,3.47-1.23,3.54-3.53
			c0.01-0.26,0.18-0.52,0.27-0.79c0.25-0.05,0.5-0.1,0.75-0.15c0.31,1.24,0.62,2.48,1.03,4.09c1.13-0.21,2.54-0.6,3.97-0.68
			c0.68-0.04,1.39,0.51,2.08,0.8c-0.49,0.6-0.86,1.49-1.49,1.74c-1.01,0.4-2.18,0.42-3.28,0.54c-3.56,0.36-3.75,0.96-5.2,4.21
			c-1.65,3.67-4.02,7.02-6.11,10.5c-0.14,0.23-0.47,0.34-1.32,0.93c0-1.19-0.27-2.09,0.04-2.67
			C857.65,699.57,859.95,695.71,862.43,691.47z"/>
		<path d="M835.51,621.13c-1.68,0-2.73,0-3.92,0c0,2.85,0,5.48,0,7.86c1.99,0.77,3.9,1.51,5.81,2.24c-0.1,0.34-0.2,0.67-0.3,1.01
			c-1.38-0.27-2.77-0.46-4.12-0.82c-1.59-0.42-2.67-0.24-3.28,1.57c-0.34,1.01-1.1,1.95-1.88,2.71c-1.47,1.44-3.73,1.37-4.73,0.02
			c-1.05-1.42-0.51-4.13,1.04-5.11c0.25-0.16,0.53-0.29,0.81-0.36c1.35-0.34,3.61-0.32,3.88-1.06c0.73-1.94,0.62-4.21,0.81-6.35
			c0.04-0.42-0.14-0.85-0.11-0.69c-1.54-0.67-2.69-1.18-3.84-1.68c1.03-0.44,2.06-0.87,3.16-1.33c-0.16-0.61-0.39-1.43-0.67-2.47
			c0.61,0,1.29-0.14,1.37,0.02c1,2.03,2.78,2.74,4.84,3.11C834.65,619.86,834.84,620.32,835.51,621.13z M824.86,635.03
			c1.12-1.02,2.23-2.04,3.35-3.05C826.35,632.1,824.01,631.57,824.86,635.03z"/>
		<path d="M822.36,673.06c1.7-2.08,3.63-4.02,5.04-6.28c1.19-1.91,2.06-4.12,2.58-6.32c0.48-2.05-1.75-3.9-4.33-3.61
			c-2.51,0.28-4.99,0.87-7.44,1.52c-2.15,0.57-4.2,1.5-6.36,2.04c-0.76,0.19-1.69-0.33-2.54-0.52c0-0.32,0-0.64,0-0.96
			c3.23-1.03,6.43-2.2,9.72-3.06c2.14-0.56,4.4-0.95,6.59-0.87c1.61,0.06,3.36,0.75,4.74,1.63c2.53,1.62,2.23,4.14,1.32,6.57
			c-1.47,3.94-4.17,7.01-7.31,9.71c-0.43,0.37-1.12,0.42-1.69,0.62C822.57,673.37,822.47,673.22,822.36,673.06z"/>
		<path d="M829.82,535.64c-0.32-2.01-0.62-3.85-0.91-5.67c-1.89,0-3.41,0-4.93,0c-0.06-0.25-0.11-0.5-0.17-0.75
			c0.99-0.5,1.99-1,3.1-1.55c-0.1-0.35-0.26-0.85-0.41-1.36c0.24-0.12,0.44-0.28,0.48-0.24c2.35,2.07,5.2-1.09,8.15,0.83
			c-1.68,0.83-2.95,1.46-4.3,2.14c0.1,0.58,0.34,1.27,0.33,1.96c-0.05,3.45,1.16,5.95,4.74,6.97c0.51,0.15,0.79,1.09,1.18,1.67
			c-0.75-0.01-1.69,0.27-2.21-0.08c-2.8-1.9-2.71-1.9-5.13,0.37c-0.84,0.78-1.94,1.39-3.03,1.76c-0.51,0.17-1.45-0.26-1.88-0.72
			c-0.35-0.37-0.44-1.26-0.26-1.79C825.34,536.92,826.9,535.58,829.82,535.64z"/>
		<path d="M825.87,588.36c3.46,0.44,3.64,0.13,3.08-3.42c-0.15-0.96,0.07-2.35,0.7-2.97c0.55-0.54,2.54-0.69,2.78-0.31
			c1.25,1.98,3.9,3.45,3.35,6.15c-0.58,2.85-1.73,5.59-2.75,8.34c-0.2,0.53-0.96,0.85-1.81,1.16c1.17-3.05,1.59-5.81-1.37-8.17
			c-0.5,1.64-0.17,4.14-3.2,3.2C826.4,591.11,826.15,589.84,825.87,588.36z"/>
		<path d="M818.7,564.98c0,1.82-0.13,3.58,0.03,5.32c0.22,2.44,0.55,4.87,1,7.28c0.62,3.31,2.92,4.24,5.72,2.31
			c1.34-0.92,2.49-2.13,3.79-3.13c0.33-0.25,0.89-0.2,1.34-0.28c0.01,0.4,0.2,0.99,0.01,1.16c-2.5,2.26-4.14,5.8-8.41,5.38
			c-2.29-0.22-4.43-1.69-4.99-3.97c-0.5-2.02-0.98-4.06-1.2-6.12c-0.2-1.89-0.17-3.83,0.02-5.73
			C816.13,565.97,816.69,564.77,818.7,564.98z"/>
		<path d="M870.41,621.31c0.4-3.48,3.68-4.32,5.32-6.99c-4.13,1.22-7.84,2.37-11.59,3.37c-0.76,0.2-1.68-0.2-2.52-0.33
			c0.43-0.67,0.72-1.76,1.3-1.95c3.36-1.13,6.78-2.1,10.21-3.03c1.36-0.37,2.77-0.6,4.17-0.77c0.66-0.08,1.73-0.05,1.93,0.32
			c0.29,0.52,0.22,1.64-0.17,2.06c-2.28,2.44-4.68,4.77-7.09,7.08C871.72,621.3,871.15,621.2,870.41,621.31z"/>
		<path d="M821.67,538.5c-1.1,2.31-2.07,4.69-3.36,6.89c-0.86,1.46-3.01,1.06-3.42-0.63c-0.76-3.1-1.34-6.25-1.85-9.4
			c-0.28-1.75-0.27-3.55-0.4-5.32c2.71-0.75,2.93-0.57,3.23,2.1c0.3,2.66,0.7,5.32,1.11,7.97c0.07,0.45,0.44,0.86,0.9,1.73
			c1.09-1.53,1.99-2.8,2.89-4.07C821.07,538.01,821.37,538.26,821.67,538.5z"/>
		<path d="M764.35,526.04c-0.38,1.54-0.41,3.28-1.19,4.57c-3.71,6.18-7.34,12.47-13.07,16.22c-1.15-0.94-1.95-1.52-2.64-2.2
			c-0.52-0.51-0.89-1.17-1.32-1.76c0.66,0,1.53-0.28,1.95,0.03c1.85,1.42,3.11,0.75,4.25-0.9c1.8-2.6,3.65-5.17,5.4-7.8
			c1.73-2.6,3.36-5.26,5.06-7.88c0.17-0.27,0.54-0.4,0.82-0.6C763.85,525.83,764.1,525.93,764.35,526.04z"/>
		<path d="M814.92,638.33c1.1-0.93,2.07-1.76,3.12-2.65c0.22,1.66-1.68,5.56-2.89,6.21c-1.37,0.73-2.02,0.01-2.19-1.2
			c-0.33-2.34-0.5-4.71-0.76-7.06c-0.13-1.2-0.38-2.38-0.41-3.58c-0.11-3.41-0.17-6.82-0.15-10.23c0-0.42,0.61-0.84,0.93-1.26
			c0.4,0.52,1.12,1.02,1.16,1.57c0.29,3.34,0.41,6.7,0.62,10.05C814.52,632.86,814.73,635.53,814.92,638.33z"/>
		<path d="M865.26,495.12c1.74-2.01,3.32-3.82,4.89-5.63c0.19,0.11,0.38,0.23,0.58,0.34c-0.5,1.24-0.85,2.56-1.52,3.69
			c-0.95,1.59-2.1,3.08-3.27,4.53c-0.32,0.39-1.05,0.78-1.47,0.67c-0.43-0.11-0.91-0.79-1.01-1.28c-0.91-4.67-1.72-9.36-2.61-14.03
			c-0.22-1.13,1.51-2.78-0.88-3.17c0.88-0.74,1.65-1.38,2.62-2.19c0.26,2.68,0.42,5.5,0.85,8.28
			C863.89,489.19,864.61,492.02,865.26,495.12z"/>
		<path d="M775.22,655.3c0,1.32,0,2.04,0,2.8c1.68,0.91,4.15-1.11,5.44,1.73c-0.65,0.27-1.29,0.73-1.94,0.76
			c-6.25,0.35-4.98,0.92-7.08,6.43c-0.42,1.1-0.92,2.18-1.51,3.19c-0.2,0.33-0.81,0.41-1.24,0.61c-0.19-0.44-0.64-0.97-0.53-1.32
			c0.56-1.71,1.24-3.38,1.94-5.04c0.35-0.84,0.85-1.61,1.52-2.87c-1.85,0.5-2.97,0.93-4.12,1.05c-0.45,0.05-0.97-0.61-1.46-0.95
			c0.34-0.46,0.58-1.15,1.03-1.35c1.01-0.44,2.12-0.71,3.21-0.91c1.53-0.28,2.59-0.93,3-2.58
			C773.59,656.35,774.38,656.02,775.22,655.3z"/>
		<path d="M523.13,177.74c2.21-5.06,4.31-9.92,6.47-14.76c0.16-0.37,0.87-0.88,0.99-0.8c0.42,0.27,1.01,0.79,0.98,1.18
			c-0.06,0.87-0.34,1.77-0.74,2.55c-1.54,3.02-3.14,6.01-4.75,8.99c-0.68,1.25-0.7,2.16,0.5,3.28c2.91,2.73,5.62,5.67,8.52,8.64
			c-2,1.5-2.63,0.14-3.58-0.9c-2.47-2.71-5.06-5.32-7.63-7.94C523.72,177.79,523.35,177.8,523.13,177.74z"/>
		<path d="M790.48,502.41c-1.25,1.52-2.04,2.64-2.99,3.62c-1.24,1.28-2.64,2.4-3.88,3.67c-1.16,1.19-2.26,0.86-2.53-0.46
			c-0.98-4.78-1.7-9.61-2.53-14.46c3.49-0.52,2.93,2.21,3.29,3.77c0.59,2.56,0.72,5.22,1.06,7.99
			C785.86,506.19,786.39,501.9,790.48,502.41z"/>
		<path d="M863.8,563.48c-1.12-4.36-2.24-8.75-3.36-13.13c2.02-1.34,3.06-0.91,3.48,1.45c0.51,2.87,1.03,5.74,1.57,8.77
			c2.35-0.73,3.33-3.11,5.82-2.96C869.01,561.22,866.29,563.32,863.8,563.48z"/>
		<path d="M492.45,183.82c3.15-1.19,4.21-4.38,7.17-4.13c0.17,0.23,0.35,0.46,0.52,0.69c-2.5,1.89-4.98,3.8-7.54,5.61
			c-0.14,0.1-1.14-0.58-1.31-1.05c-1.61-4.43-2.38-9.01-2.2-13.72c0.02-0.49,0.62-0.96,0.95-1.44c0.34,0.56,0.91,1.08,0.99,1.68
			C491.54,175.45,491.96,179.47,492.45,183.82z"/>
		<path d="M863.34,635.21c1.04-0.24,2.11-0.38,3.11-0.73c3.44-1.23,6.88-2.5,10.28-3.83c2.12-0.83,3.19-0.48,3.71,1.54
			c-5.81,0.59-10.69,5.41-16.88,4.27C863.49,636.05,863.41,635.63,863.34,635.21z"/>
		<path d="M882.7,702.27c-4.25-0.68-8.33,1.88-12.79-0.43c0.8-0.47,1.08-0.76,1.39-0.79c2.74-0.31,5.48-0.58,8.22-0.84
			C880.97,700.07,882.15,700.43,882.7,702.27z"/>
		<path d="M704.92,161.8c-0.85-0.97-1.71-1.95-3.01-3.43c-0.38,2.42-0.66,4.19-0.94,5.95c-0.21,0.03-0.41,0.07-0.62,0.1
			c-0.26-0.57-0.73-1.15-0.72-1.72c0.01-1.41,0.06-2.87,0.46-4.2c0.27-0.92,1.15-1.67,1.75-2.5c0.56,0.76,1.11,1.52,1.74,2.39
			c0.54,0.14,1.43,0.38,2.45,0.65C705.56,160.21,705.24,161,704.92,161.8L704.92,161.8z"/>
		<path d="M701.82,147.7c0.51,0.27,1.01,0.54,1.52,0.8c2.58-0.94,2.78,1.87,4.19,2.77c0.91,0.58,1.36,1.88,2.24,3.2
			c-0.75,0.09-1.7,0.5-2.02,0.2c-1.88-1.7-3.65-3.55-5.38-5.41C702.02,148.9,701.99,148.23,701.82,147.7z"/>
		<path d="M836.88,608.74c-0.15-0.79-0.08-2.08-0.5-2.26c-0.83-0.36-1.93-0.15-2.92-0.11c-0.27,0.01-0.52,0.3-0.8,0.39
			c-0.84,0.27-1.7,0.5-2.55,0.74c0.55-0.77,0.98-1.69,1.69-2.28c1.8-1.51,3.94-1.16,5.95-0.56c0.42,0.13,0.84,1.27,0.75,1.87
			c-0.14,0.92-0.73,1.78-1.12,2.66C837.22,609.05,837.05,608.89,836.88,608.74z"/>
		<path d="M880.19,692.81c-0.96,2.21-2.48,2-3.98,1.99c-1.22-0.01-2.45,0.34-3.64,0.23c-0.66-0.06-1.25-0.75-1.87-1.16
			c0.57-0.39,1.1-1.05,1.71-1.13c1.98-0.28,3.99-0.4,5.99-0.48C878.95,692.24,879.52,692.59,880.19,692.81z"/>
		<path d="M801.57,499.34c-1.07,0.34-1.83,0.79-2.06,0.6c-0.59-0.49-1.04-1.22-1.37-1.93c-0.81-1.73-1.56-3.49-2.25-5.26
			c-0.15-0.39,0.02-0.91,0.04-1.37c0.45,0.12,1.15,0.1,1.32,0.39C798.64,494.08,799.94,496.45,801.57,499.34z"/>
		<path d="M790.41,580.55c-1.97,1.74-7.84,0.73-9.88-1.7C781.66,577.95,787.99,579.03,790.41,580.55z"/>
		<path d="M576.51,175.54c-1.04-0.52-2.08-1.05-3.13-1.57c1.06-0.39,2.1-0.85,3.18-1.14c0.85-0.22,1.78-0.39,2.63-0.27
			c0.81,0.11,1.56,0.62,2.34,0.95c-0.71,0.49-1.36,1.18-2.14,1.41c-0.81,0.25-1.76,0.05-2.65,0.05
			C576.67,175.17,576.59,175.35,576.51,175.54z"/>
		<path d="M780.06,671.67c2.21,3.38,5.93,0.63,8.5,2.17c-1.22,1.69-3.53,2.31-5.87,1.53C780.92,674.78,779.84,673.66,780.06,671.67z
			"/>
		<path d="M778.27,663.64c2.61-0.23,4.97-0.48,7.33-0.63c0.43-0.03,0.88,0.32,1.32,0.49c-0.2,0.43-0.39,1.23-0.59,1.24
			c-2.6,0.06-5.2,0.01-7.8-0.06C778.46,664.69,778.4,664.18,778.27,663.64z"/>
		<path d="M839.47,617.06c-1.51,0.53-3.16,1.08-4.18-0.51c-0.43-0.66-0.07-2,0.28-2.89c0.13-0.34,1.4-0.58,1.9-0.34
			C838.94,614.03,839.94,615.18,839.47,617.06z"/>
		<path d="M878.45,544.43c0.9-1.08,1.62-1.65,2.62-0.18c0.79,1.16,1.85,2.13,2.56,3.33c0.26,0.44-0.15,1.28-0.26,1.93
			c-0.61-0.24-1.39-0.32-1.8-0.76c-0.59-0.64-0.84-1.57-1.35-2.29C879.73,545.75,879.08,545.14,878.45,544.43z"/>
		<path d="M790.64,657.14c-2.39-0.36-4.59-2.8-4.78-5.09C788.25,651.63,791.31,654.82,790.64,657.14z"/>
		<path d="M877.89,476.06c3.18-0.3,5.83,1.44,6.92,4.37C883.49,481.03,880.85,479.4,877.89,476.06z"/>
		<path d="M791.06,649.16c1.26,1.39,2.63,2.69,3.7,4.21c0.31,0.44-0.23,1.48-0.38,2.24c-0.54-0.39-1.26-0.66-1.58-1.18
			c-0.92-1.49-1.68-3.07-2.51-4.62C790.54,649.59,790.8,649.37,791.06,649.16z"/>
		<path d="M825.19,479.42c-5.93,0-11.86,0-17.79,0c0-0.16,0-0.32,0-0.48c5.93,0,11.86,0,17.8,0
			C825.19,479.11,825.19,479.27,825.19,479.42z"/>
		<path d="M760.93,553.21c0,0-0.17-0.43-0.04-0.72c0.26-0.59,0.68-1.1,1.04-1.65c0.43,0.56,1.01,1.06,1.23,1.69
			c0.23,0.66,0.23,1.47,0.11,2.18c-0.11,0.69-0.51,1.33-0.78,1.99c-0.56-0.6-1.21-1.14-1.65-1.82
			C760.65,554.58,760.87,554.02,760.93,553.21z"/>
		<path d="M743.89,523.91c3.64-0.15,3.34,3.21,5.13,4.74C746.32,529.12,745.09,527.95,743.89,523.91z"/>
		<path d="M704.91,161.8c0.58-0.29,1.15-0.58,1.84-0.94c1.1,1.38,2.24,2.8,3.38,4.22c-1.8,1.46-2.04,1.34-2.96-0.38
			C706.6,163.64,705.68,162.76,704.91,161.8C704.92,161.8,704.91,161.8,704.91,161.8z"/>
		<path d="M754.48,553.5c1.37-0.58,2.26-0.47,2.48,1.12c0.06,0.43,0.36,0.85,0.35,1.28c-0.01,0.78-0.16,1.55-0.25,2.33
			c-0.66-0.71-1.47-1.34-1.93-2.17C754.72,555.34,754.69,554.4,754.48,553.5z"/>
		<path d="M510.12,165.86c2.79-0.19,5.29,2.4,5.09,5.34C513.43,169.34,511.92,167.75,510.12,165.86z"/>
		<path d="M835.89,551.06c-1.69-0.83-2.92-1.37-4.07-2.05c-0.12-0.07,0.1-1.27,0.38-1.38C833.45,547.14,835.56,548.76,835.89,551.06
			z"/>
		<path d="M783.15,685.81c0-2.09-0.03-4.17,0.03-6.26c0.01-0.38,0.39-0.75,0.6-1.13c0.33,0.29,0.98,0.64,0.94,0.86
			c-0.41,2.28-0.93,4.54-1.41,6.8C783.26,685.99,783.21,685.9,783.15,685.81z"/>
		<path d="M566.28,165.78c-2.45,0.27-3.52-1.36-4.48-3.14C563.94,162.79,565.06,164.35,566.28,165.78z"/>
		<path d="M567.97,158.93c1.35,1.65,2.29,2.81,3.38,4.15C569.28,163.15,567.9,161.59,567.97,158.93z"/>
		<path d="M795.75,703.27c0.09,1.98,0.18,3.96,0.27,5.94c-0.35-0.01-0.69-0.02-1.04-0.04c0.27-1.95,0.54-3.9,0.81-5.85
			C795.79,703.31,795.75,703.27,795.75,703.27z"/>
		<path class="st0" d="M571.87,397.01c2.89-3.25,5.67-6.42,8.49-9.55c0.98-1.09,0.79-1.88-0.5-2.41c-2.85-1.16-4.77-3.44-6.87-5.53
			c-2.69-2.68-10.5-3.32-13.3-0.92c-0.9,0.78-1.54,2.34-1.56,3.56c-0.04,1.93-0.67,2.84-2.47,3.63c-2,0.87-2.64-0.32-3.82-1.36
			c-6.67-5.9-10.71-13.55-14.16-21.51c-1.18-2.71-1.28-5.89-1.95-9.25c5.95-1.12,11.49-2.39,17.11-3.15c4.71-0.64,9.5-0.59,14.24-1
			c4.67-0.4,9.32-1.07,13.98-1.47c4.16-0.36,8.35-0.42,12.52-0.76c6.32-0.51,12.62-1.18,18.94-1.72c3.5-0.3,7.01-0.43,10.5-0.76
			c6.07-0.58,12.12-1.31,18.18-1.89c5.4-0.51,10.81-0.93,16.22-1.34c4.97-0.37,9.94-0.9,14.91-0.94c4.48-0.03,8.96,0.52,13.63,0.82
			c0.41,2.94,0.7,6.11,1.33,9.22c1.29,6.37-0.08,12.21-2.92,17.9c-2,4-3.76,8.12-5.55,12.22c-1.81,4.15-5.37,6.51-8.98,8.71
			c-7.54,4.59-15.81,7.67-24.16,10.3c-6.13,1.93-12.55,3.04-18.92,4.04c-5.2,0.81-10.55,1.46-15.78,1.19
			c-7.42-0.38-14.84-1.42-22.18-2.66C583.02,401.39,577.24,400.1,571.87,397.01z M584.69,370.59c-0.09,2.73,2.62,6.51,5.18,7.17
			c0.61,0.16,1.4-0.04,2.02-0.29c3.33-1.35,4.78-4.31,5.88-7.39c1.27-3.58,1.13-7.21-1.1-10.4c-1.65-2.36-4.06-3.1-5.39-1.78
			C587.7,361.42,584.47,365.19,584.69,370.59z"/>
		<path class="st0" d="M671.97,479.19c0.72-1.37,1.42-2.74,2.16-4.09c1.69-3.08,3.39-6.16,5.1-9.23c3.03-5.44,7.29-9.92,11.48-14.42
			c2.68-2.88,5.6-5.57,8.61-8.11c2.77-2.33,6.28-2.84,9.77-2.97c6.1-0.23,12.24-0.63,18.31-0.25c2.23,0.14,5.25-0.11,6.9,2.35
			c0.62,0.93,1.24,2.07,1.3,3.15c0.53,9.09,2.94,17.42,8.9,24.56c1.97,2.36,3.45,5.13,5.36,8.03c-0.8,0.05-1.13,0.09-1.46,0.09
			c-5.35-0.04-10.7-0.15-16.04-0.12c-3.46,0.02-6.91,0.33-10.37,0.36c-2.65,0.02-5.3-0.28-7.95-0.27c-2.69,0.01-5.38,0.28-8.08,0.33
			c-2.59,0.05-5.18-0.07-7.76-0.05c-6.96,0.04-13.91,0.08-20.87,0.17c-1.81,0.03-3.62,0.26-5.43,0.41
			C671.92,479.14,671.97,479.19,671.97,479.19z"/>
		<path class="st0" d="M668.08,292.07c0.23,1.27,0.33,1.98,0.49,2.67c1.47,6.68,3.02,13.34,4.38,20.04
			c0.37,1.81,1.26,4.08-1.58,4.83c0.71,0.46,1.93,0.98,1.88,1.26c-0.26,1.44-1.39,1.09-2.47,0.95c-1.46-0.19-2.94-0.18-4.55-0.27
			c-0.38-4.71-0.74-9.36-1.15-14c-0.06-0.68-0.32-1.35-0.48-2.03c-0.69,0.34-1.61,0.5-2.05,1.04c-2.59,3.25-5.06,6.6-7.25,10.17
			c4.13-0.75,4.22-5.36,7.3-7.11c0.41,3.99,0.82,7.99,1.22,11.95c-7.13-0.26-14.83-0.54-22.52-0.81
			c-7.31-0.26-14.62-0.79-21.92-0.68c-3.82,0.06-7.63,1.22-11.44,1.91c-5.29,0.96-10.58,1.9-15.85,2.94
			c-5.18,1.02-10.31,2.33-15.52,3.19c-4.03,0.66-8.16,0.74-12.22,1.24c-2.95,0.36-5.85,1.04-8.79,1.49
			c-4.77,0.73-9.55,1.39-14.33,2.07c-0.94,0.13-1.88,0.26-2.7,0.38c2.05-14.25,3.17-28.67,8.09-43.12c2.16,2.34,4.18,4.18,5.79,6.33
			c4.13,5.55,8.1,11.23,12.09,16.89c1.45,2.06,2.7,4.27,4.18,6.31c0.35,0.48,1.41,0.91,1.92,0.73c8.35-2.89,16.85-5.72,25.72-5.26
			c9.94,0.51,20.03-0.3,29.83,2.26c3.42,0.89,6.91,1.52,10.3,2.5c2.66,0.77,4.31-0.81,5.9-2.27c3.73-3.42,7.33-6.98,10.92-10.55
			c1.26-1.26,2.25-2.79,3.51-4.05C660.37,299.51,664.02,296.02,668.08,292.07z M560.42,325.42c-1.45-1.47-2.73-2.66-3.88-3.96
			c-2.32-2.61-4.52-5.33-6.91-7.87c-0.55-0.58-1.68-0.82-2.53-0.81c-0.26,0-0.64,1.33-0.74,2.07c-0.21,1.62-0.3,3.25-0.4,4.89
			c-0.18,2.86-0.36,5.72-0.45,8.59c-0.01,0.43,0.52,0.88,0.8,1.33c0.25-0.45,0.64-0.87,0.73-1.34c0.18-0.94,0.2-1.92,0.28-2.88
			c0.25-3.14,0.49-6.29,0.74-9.44c0.22-0.06,0.44-0.13,0.65-0.19c1.23,1.6,2.7,3.07,3.65,4.82
			C554.14,323.91,557.1,325.96,560.42,325.42z"/>
		<path class="st0" d="M601.33,334.97c2.11-0.63,4.14-1.22,6.15-1.87c0.12-0.04,0.09-0.53,0.17-1.15c-1.96,0.25-3.75,0.48-5.57,0.72
			c-0.74-2.41-1.43-4.67-2.15-7.02c0.14-0.03,0.72-0.3,1.27-0.27c4.79,0.3,9.21-1.32,13.78-2.31c3-0.65,6.21-0.43,9.33-0.35
			c5.2,0.13,10.39,0.5,15.58,0.68c6.4,0.23,12.79,0.45,19.19,0.53c6.43,0.09,12.86-0.02,19.29,0.01c3.42,0.02,4.62,1.24,5.23,4.91
			c0.52,3.13,1.15,6.25,1.79,9.72c-3.96-0.19-7.76-0.56-11.55-0.5c-4.79,0.08-9.59,0.46-14.37,0.79c-4.07,0.27-8.13,0.64-12.2,0.98
			c-1.32,0.11-2.64,0.27-3.95,0.42c-7.02,0.77-14.03,1.58-21.05,2.31c-4.3,0.45-8.6,0.78-12.91,1.14c-0.42,0.03-1.03,0.04-1.25-0.21
			c-2.28-2.55-4.5-5.15-6.71-7.76C601.25,335.58,601.35,335.19,601.33,334.97z M608.67,329.59c-0.03,0.26-0.07,0.52-0.1,0.78
			c1.53,0.87,3.05,1.78,4.63,2.56c0.17,0.08,0.72-0.62,1.09-0.95c-0.87-0.74-1.65-1.7-2.65-2.15
			C610.79,329.44,609.67,329.65,608.67,329.59z"/>
		<path class="st0" d="M590.7,335.49c2.57-0.17,5.14-0.34,8.19-0.55c-2.29,4.48-5.42,7.05-10.19,7.63c2.35,2.49,5.44,1.12,11.39-4.7
			c0.88,0.98,1.78,1.95,2.63,2.95c0.86,1.01,1.67,2.05,2.76,3.39c-2.09,0.19-3.82,0.41-5.56,0.5c-7.36,0.39-14.74,0.58-22.08,1.16
			c-6.29,0.49-12.53,1.47-18.81,2.11c-4.29,0.44-8.65,0.38-12.9,1.06c-3.42,0.55-6.72,1.86-10.56,2.98
			c-0.12-2.08-0.52-4.47-0.34-6.81c0.21-2.81,0.84-5.6,1.45-8.37c0.11-0.5,0.93-1.14,1.47-1.2c7.09-0.77,14.16-1.56,21.09-3.41
			c2.62-0.7,5.46-0.53,8.2-0.8c3.56-0.35,7.12-0.67,10.66-1.17c1.81-0.26,3.55-0.98,5.35-1.34c4.87-0.98,9.75-1.88,14.8-2.85
			c0.48,2.37,0.92,4.58,1.33,6.59c-3.11,0.53-6.03,1.02-8.94,1.51C590.65,334.59,590.68,335.04,590.7,335.49z"/>
		<path class="st0" d="M640.97,444.8c0.83,9.35,0.97,18.7,4.49,27.62c-0.66,0.25-1.26,0.58-1.9,0.69
			c-6.14,1.1-12.04,3.45-18.41,3.43c-4.62-0.01-9.24,0.34-13.86,0.32c-4.08-0.02-8.04-5.44-6.87-9.24c0.15-0.48,0.72-0.98,1.22-1.18
			c2.77-1.09,5.52-2.27,8.38-3.06c2.8-0.77,5.74-1.02,8.57-1.67c4.33-0.98,7.78-3.59,11.26-6.19c3.26-2.43,5.04-5.77,6.52-9.38
			C640.56,445.69,640.76,445.25,640.97,444.8z"/>
		<path class="st0" d="M793.6,430.09c0.65,2.78,1.46,5.53,1.93,8.33c0.7,4.15,3.54,6.95,6.66,8.84c5.71,3.45,11.92,6.06,17.88,9.09
			c3.82,1.94,6.78,5.53,3.88,10.38c-0.04,0.06-0.05,0.14-0.08,0.21c-1.97,4.61-3.83,5.41-8.4,3.36c-6.39-2.86-12.36-6.41-16.86-11.9
			c-2.45-2.98-4.56-6.24-6.76-9.41c-0.27-0.39-0.31-1.11-0.18-1.6c1.47-5.65,1.86-11.37,1.33-17.18
			C793.19,430.17,793.4,430.13,793.6,430.09z"/>
		<path class="st0" d="M564.35,397.3c-3.22,1.44-5.71,2.55-8.29,3.7c-1.54-3.2-2.96-6.17-4.45-9.28c2.21,0.29,4.68,0.16,6.73,1.02
			C560.4,393.63,562.05,395.5,564.35,397.3z"/>
		<path class="st0" d="M565.97,387.57c-1.31-1.64-2.34-4.92-6.39-3.57c-0.29-1.65,0.18-2.8,1.62-3.32
			c4.31-1.57,8.33-1.56,12.89,2.14c-1.97,0.09-4.2-0.38-5.69,0.45C567.12,383.99,566.69,386.2,565.97,387.57z"/>
		<path class="st0" d="M648.88,478.41c-7.63,0-15.26,0-22.89,0c-0.01-0.13-0.03-0.26-0.04-0.38c1.87-0.11,3.77-0.03,5.6-0.38
			c4.3-0.83,8.59-1.76,12.82-2.88c1.77-0.47,2.07,0.53,2.72,1.63c0.38,0.63,1.23,0.98,1.88,1.46
			C648.94,478.03,648.91,478.22,648.88,478.41z"/>
		<path class="st0" d="M569.09,386.14c2.01-0.09,3.87-0.18,5.75-0.27c0.75,3.63-1.72,6.12-6.83,6.59c0.13-1.05,0.21-2.07,0.38-3.07
			C568.56,388.37,568.82,387.36,569.09,386.14z"/>
		<path class="st0" d="M565.34,392.77c-3.9,0.55-5.76-1.75-5.67-6.29C562.21,384.93,565.02,387.99,565.34,392.77z"/>
		<path class="st0" d="M763.83,479.83c-2.5,0.86-4.97,1.82-7.51,2.53c-1.99,0.56-2.63-1.18-3.69-2.78c3.85,0,7.47,0,11.08,0
			C763.75,479.67,763.79,479.75,763.83,479.83z"/>
		<path class="st0" d="M527.11,378.99c-4.5-5.23-7.79-11.18-10.54-17.46c0.21-0.12,0.43-0.25,0.64-0.37
			C520.51,367.11,523.81,373.05,527.11,378.99z"/>
		<path class="st0" d="M653.79,479.81c4.01,0,8.06,0,12.5,0C661.36,482.56,657.43,482.46,653.79,479.81z"/>
		<path class="st0" d="M679.8,321.33c-1.13,0-2.1,0.1-3.02-0.04c-0.46-0.07-0.85-0.61-1.28-0.94c0.4-0.31,0.76-0.83,1.21-0.91
			C678.19,319.19,679.51,319.41,679.8,321.33z"/>
		<path class="st0" d="M760.55,219.83c4.95-3.8,9.87-7.3,14.46-11.19c2.82-2.4,5.06-5.48,7.73-8.07c0.91-0.88,2.33-1.66,3.55-1.71
			c4.7-0.18,9.42,0.04,14.13-0.07c3.66-0.08,7.31-0.63,10.96-0.59c4.48,0.05,8.95,0.53,13.43,0.77c2.3,0.12,4.6,0.05,6.9,0.17
			c3.94,0.22,7.89,0.37,11.8,0.84c2.63,0.32,3.41-0.08,4.21-2.64c1.1-3.53,1.93-7.28,3.76-10.42c2.46-4.21,5.57-8.1,8.79-11.78
			c2.12-2.43,5.19-1.16,7.58-0.19c4.21,1.7,6.48,4.93,6.48,9.74c0,7.15-3.06,12.81-7.96,17.68c-4.86,4.83-7.53,10.6-8.1,17.45
			c-0.52,6.32-0.93,12.69-2.15,18.88c-0.75,3.78-2.81,7.34-4.55,10.88c-1.21,2.46-2.66,4.85-4.34,7c-3.08,3.94-7.36,6.2-12.29,5.72
			c-5.61-0.55-10.62-3.11-13.43-8.24c-1.53-2.8-2.07-6.17-2.88-9.33c-0.65-2.55-1.05-5.17-1.6-7.96c-3.88,2.66-7.75,0.33-11.63,0.19
			c-4.77-0.17-9.53-0.57-14.3-0.68c-3.47-0.08-6.94,0.11-10.41,0.28c-7.65,0.38-11.56,5-13.77,11.86c-0.76,2.35-2.39,4.44-3.75,6.57
			c-1.32,2.06-2.86,3.98-4.2,6.02c-1.68,2.55-4.2,3.97-6.83,5.22c-1.83,0.86-3.26,0.45-4.58-1.38c-3.11-4.27-4.3-8.98-4.08-14.15
			c0.16-3.89,2.03-7.05,4.62-9.72c3.48-3.58,7.24-6.89,10.8-10.4C761.99,227.53,762.83,223.99,760.55,219.83z"/>
		<path class="st0" d="M716.86,204.44c-1.7-1.04-4.73-0.39-6.64,1.48c-1.17,1.15-2.27,2.38-3.81,4c-2.91-3.25-6.01-6.24-8.53-9.66
			c-2.49-3.39-4.38-7.23-6.67-11.08c4.53-0.63,8.71-1.3,12.91-1.78c3.54-0.41,7.1-0.67,10.66-0.87c1.39-0.08,2.81,0.31,4.21,0.29
			c7.83-0.13,15.66-0.2,23.48-0.53c7.87-0.33,15.73-0.85,23.57-1.48c4.6-0.37,9.17-1.14,13.76-1.7c2.79-0.34,5.58-0.62,8.6-0.95
			c-1.4,4.98-2.59,10.07-5.52,14.61c-2.86,4.44-6.21,8.52-10.41,11.56c-7.5,5.43-14.03,12.33-23.04,15.55
			c-7.04,2.52-13.97,2.62-20.9-0.36c-2.34-1.01-3.68-2.91-4.78-5.05c-0.15-0.3-0.18-0.73-0.09-1.06c0.37-1.44,0.8-2.87,1.33-4.71
			c0.64-0.18,1.82-0.52,3-0.85c-0.03-0.15-0.07-0.3-0.1-0.44c-0.88-0.17-1.76-0.35-2.64-0.52c-0.01-0.26-0.03-0.52-0.04-0.78
			c1.31-0.19,2.62-0.53,3.93-0.55c4.13-0.06,5.99-3.18,8.11-5.9c1.22-1.56,3.14-2.92,2.2-5.56c-2.12,0.69-2.89-0.66-3.61-2.37
			c-0.48-1.15-1.14-2.37-2.06-3.14c-0.74-0.62-2.22-1.09-3-0.76c-1.58,0.68-3.29,1.67-4.25,3.03c-1.43,2.03-3.17,3.99-3.34,6.81
			c-0.05,0.87-1.57,1.65-2.63,2.68c-0.56-0.32-1.36-0.79-2.09-1.21C717.89,203.63,717.37,204.03,716.86,204.44L716.86,204.44z"/>
		<path class="st0" d="M687.48,176.89c3.56-0.54,6.73-0.99,9.88-1.52c1.66-0.28,3.29-0.79,4.96-1.03c4.5-0.62,9.01-1.24,13.53-1.7
			c3.99-0.4,8.02-0.47,12.01-0.9c7.49-0.82,14.94-1.98,22.44-2.68c10.97-1.02,21.97-1.77,32.96-2.62c0.97-0.07,1.95-0.05,2.92,0.04
			c2.28,0.21,3.65,1.46,3.66,3.76c0.01,2.9-0.22,5.82-0.57,8.7c-0.07,0.55-1.09,1.36-1.73,1.42c-12.54,1.28-25.09,2.57-37.65,3.63
			c-3.98,0.34-8.02,0.12-12.03-0.05c-0.9-0.04-1.83-0.88-2.64-1.5c-0.91-0.69-1.71-1.55-2.62-2.39c2.17-2.75,6.03-1.47,8.84-3.64
			c-0.67-0.18-1.35-0.5-2.02-0.5c-0.89,0-1.78,0.22-2.66,0.39c-2.09,0.39-4.2,0.9-5.2-1.84c-0.07-0.19-0.48-0.26-0.93-0.48
			c-0.11,0.55-0.29,0.96-0.25,1.34c0.17,1.58-0.66,1.93-2.03,1.86c-0.96-0.05-1.96-0.06-2.87,0.17c-0.41,0.1-0.66,0.85-1.1,1.46
			c2.13,0.12,3.74,0.21,5.37,0.31c-0.67,3.89-2.63,5.53-6.52,5.64c-6.21,0.17-12.43,0.26-18.64,0.54
			c-3.35,0.15-6.71,0.51-10.04,0.96c-4.52,0.62-4.63,0.74-6.1-3.46C687.82,180.97,687.8,178.94,687.48,176.89z M745.08,175.48
			c0.01-0.25,0.03-0.5,0.04-0.74c-0.75-0.7-1.43-1.5-2.28-2.06c-0.3-0.2-0.98,0.17-1.49,0.29c0.59,0.81,1.06,1.75,1.81,2.37
			C743.56,175.67,744.42,175.45,745.08,175.48z"/>
		<path class="st0" d="M719.96,224.79c1.4,4.03,5.36,6.12,8.7,8.8c1.28,1.03,2.74,1.82,3.97,2.9c0.51,0.44,1.04,1.53,0.83,2
			c-2.24,5.17-4.04,10.59-7.78,14.99c-1.34,1.58-2.67,2.61-5.07,2.44c-5.05-0.34-10.13-0.22-15.2-0.25
			c-1.14-0.01-1.88-0.23-2.35-1.51c-1.99-5.47-4.19-10.86-6.19-16.33c-1.13-3.1,0.53-5.46,4.1-8.04c3.46-2.51,7.15-2.89,11.18-3.06
			C714.77,226.61,717.33,225.48,719.96,224.79z"/>
		<path class="st0" d="M785.4,262.71c-2.4-0.29-4.87-1.24-6.4-4.25c-2.24-4.43-2.83-9.23-3.71-13.99c-0.05-0.29-0.08-0.59-0.1-0.89
			c-0.1-1.24-0.5-3.47-0.23-3.56c2.22-0.71,4.56-1.1,6.89-1.32c0.27-0.03,0.81,1.53,1.02,2.4c0.69,2.77,0.99,5.68,1.99,8.33
			c0.93,2.46,3.27,3.53,5.89,3.82c3.14,0.35,3.83,1.79,2.21,4.52C791.12,260.92,788.69,262.64,785.4,262.71z"/>
		<path class="st0" d="M815.71,240.8c0.43,2.36,0.86,4.71,1.28,7.07c0.08,0.44-0.06,0.98,0.14,1.33c1.86,3.18-0.36,5.3-1.98,7.49
			c-2.12,2.87-4.79,4.88-8.6,4.86c-1.82-0.01-3.15-0.91-3.59-2.51c-0.74-2.67-1.21-5.35,1.26-7.68c3.66-3.46,7.12-7.13,10.67-10.71
			C815.15,240.7,815.43,240.75,815.71,240.8z"/>
		<path class="st0" d="M716.85,204.44c1.75,1.51,3.5,3.02,5.55,4.79c0.08,1.68,0.2,4.08,0.32,6.47c-0.34,0.02-0.67,0.05-1.01,0.07
			c-0.03-0.95-0.04-1.91-0.11-2.86c-0.04-0.46-0.07-1.04-0.34-1.32c-0.27-0.27-0.96-0.43-1.29-0.27c-1.89,0.94-3.73,1.98-5.58,2.99
			c-0.93-2.02-0.46-5.13-4.05-6.45c1.79-0.86,3.58-1.69,5.36-2.58c0.43-0.21,0.78-0.56,1.17-0.85
			C716.86,204.44,716.85,204.44,716.85,204.44z"/>
		<path class="st0" d="M705.91,213.23c0.52,2.41,1.68,3.72,3.95,4.29c2.14,0.54,3.66,3.28,3.07,5.27c-0.17,0.59-1.69,1.43-1.98,1.23
			c-2.61-1.74-5.45-3.35-7.49-5.65c-2.19-2.47-1.84-2.79,1.06-4.37C704.91,213.79,705.3,213.57,705.91,213.23z"/>
		<path class="st0" d="M731.4,181.03c1.01,1.37,1.85,2.5,2.94,3.99c-0.89-0.11-1.3-0.15-1.72-0.22
			C729.39,184.27,729.39,184.26,731.4,181.03z"/>
		<path class="st0" d="M718.5,220.31c0,0.97,0,1.93,0,3.13c-0.88,0.09-1.63,0.17-3.14,0.34c1.1-1.63,1.82-2.69,2.54-3.76
			C718.1,220.11,718.3,220.21,718.5,220.31z"/>
		<path class="st0" d="M779.61,164.72c0.69-2.11,1.68-2.17,3.93-0.18C782.13,164.61,780.9,164.66,779.61,164.72z"/>
		<path class="st0" d="M868.13,589.28c-0.42,1.8-0.27,3.75-2.54,3.8c-0.49,0.01-1.51-1.17-1.41-1.59
			C864.63,589.64,866.08,589.11,868.13,589.28z"/>
		<path class="st0" d="M773.7,641.26c0.48,0.89,1.45,1.87,1.3,2.63c-0.14,0.7-1.45,1.26-2.35,1.64c-0.35,0.15-0.98-0.37-1.49-0.59
			c0.5-1.17,1.01-2.35,1.51-3.52C773.02,641.36,773.36,641.31,773.7,641.26z"/>
		<path class="st0" d="M824.86,635.03c-0.85-3.46,1.49-2.93,3.35-3.05C827.09,632.99,825.98,634.01,824.86,635.03z"/>
		<path d="M584.69,370.59c-0.22-5.4,3.01-9.17,6.59-12.7c1.33-1.31,3.74-0.58,5.39,1.78c2.23,3.2,2.37,6.82,1.1,10.4
			c-1.09,3.08-2.55,6.04-5.88,7.39c-0.62,0.25-1.41,0.45-2.02,0.29C587.3,377.1,584.6,373.32,584.69,370.59z M593.2,366.55
			c-0.17-0.09-0.35-0.19-0.52-0.28c-0.47,0.72-1.36,1.48-1.29,2.14c0.08,0.78,1,1.46,1.81,2.52
			C593.2,369.05,593.2,367.8,593.2,366.55z"/>
		<path d="M560.42,325.42c-3.32,0.54-6.28-1.51-8.07-4.78c-0.96-1.75-2.42-3.22-3.65-4.82c-0.22,0.06-0.44,0.13-0.65,0.19
			c-0.25,3.15-0.49,6.29-0.74,9.44c-0.08,0.96-0.1,1.93-0.28,2.88c-0.09,0.48-0.48,0.9-0.73,1.34c-0.28-0.44-0.81-0.89-0.8-1.33
			c0.08-2.86,0.27-5.73,0.45-8.59c0.1-1.63,0.19-3.27,0.4-4.89c0.1-0.75,0.48-2.07,0.74-2.07c0.86-0.01,1.98,0.22,2.53,0.81
			c2.39,2.54,4.59,5.26,6.91,7.87C557.69,322.76,558.97,323.95,560.42,325.42z"/>
		<path d="M608.67,329.59c1,0.06,2.12-0.14,2.97,0.24c1,0.45,1.78,1.41,2.65,2.15c-0.37,0.34-0.93,1.04-1.09,0.95
			c-1.58-0.78-3.1-1.69-4.63-2.56C608.6,330.11,608.63,329.85,608.67,329.59z"/>
		<path d="M745.08,175.48c-0.66-0.03-1.52,0.19-1.92-0.14c-0.74-0.62-1.22-1.56-1.81-2.37c0.51-0.11,1.19-0.49,1.49-0.29
			c0.84,0.56,1.53,1.36,2.28,2.06C745.1,174.98,745.09,175.23,745.08,175.48z"/>
		<path class="st0" d="M593.2,366.55c0,1.25,0,2.5,0,4.38c-0.81-1.05-1.73-1.74-1.81-2.52c-0.07-0.66,0.82-1.42,1.29-2.14
			C592.85,366.36,593.03,366.45,593.2,366.55z"/>
	</g>
</g>
<g id="mask">
	<path class="st1" d="M899,297c-60.73-1.14-94.27,2.77-114,7c-5.54,1.19-16.47,3.79-32,5c-21.51,1.68-28.21-1.14-48,0
		c-21.58,1.25-23.34,5.17-42,7c-22.18,2.17-34.18-1.95-59-6c-19.65-3.21-41.77-4.14-86-6c-23.44-0.99-53.99-1.7-90-1"/>
	<path class="st2" d="M851,461c11.88,28.33,16.25,52.3,18,69c1.78,16.95,1.45,32.24,1,56c-0.15,7.98-0.77,21.32-2,48
		c-1.05,22.71-1.32,26.84-2,42c-0.55,12.24-1.29,30.08-2,52"/>
	<path class="st3" d="M824.5,470.5c0.4,19.2,0.26,35.52,0,48c-0.42,20.09-0.87,41.66-3.5,69.5c-2.4,25.34-3.98,28.07-4,44
		c-0.03,19.64,2.35,25.39,2,42c-0.23,10.94-1.66,26.94-7.5,46.5"/>
	<path class="st4" d="M792,479c0.15,7.54,0.26,18.61,0,32c-0.57,29.74-0.85,44.6-4,63c-4.17,24.34-7.87,23.7-11.5,49.5
		c-2.47,17.53-2.82,32.53-3,41c-0.31,15.01,0.26,27.92,1,38"/>
	<path class="st5" d="M749,475c0,11.69-0.22,26.63-1,44c-0.55,12.15-1.17,26.02-3,44c-2.03,19.96-3.06,20.68-6,46
		c-1.83,15.79-3.28,28.49-4,45c-0.72,16.52-0.43,30.29,0,40"/>
</g>
</svg>
