<?xml version="1.0" encoding="utf-8"?>
<!-- Generator: Adobe Illustrator 26.3.1, SVG Export Plug-In . SVG Version: 6.00 Build 0)  -->
<svg version="1.1" xmlns="http://www.w3.org/2000/svg" xmlns:xlink="http://www.w3.org/1999/xlink" x="0px" y="0px"
	 viewBox="0 0 1366 768" style="enable-background:new 0 0 1366 768;" xml:space="preserve">
<style type="text/css">
	.vol1_3_st0{fill:#FFFFFF;}
	.vol1_3_st1{fill:none;stroke:#ffffff;stroke-width:155.9055;stroke-miterlimit:10;}
	.vol1_3_st2{fill:none;stroke:#ffffff;stroke-width:229.6063;stroke-miterlimit:10;}
	.vol1_3_st3{fill:none;stroke:#ffffff;stroke-width:51.0236;stroke-miterlimit:10;}
	.vol1_3_st4{fill:none;stroke:#ffffff;stroke-width:62.3622;stroke-miterlimit:10;}
	.vol1_3_st5{fill:none;stroke:#ffffff;stroke-width:56.6929;stroke-miterlimit:10;}
	.vol1_3_st6{fill:none;stroke:#ffffff;stroke-width:45.3543;stroke-miterlimit:10;}
	.vol1_3_st7{fill:none;stroke:#ffffff;stroke-width:31.1811;stroke-miterlimit:10;}
	.vol1_3_st8{fill:none;stroke:#ffffff;stroke-width:28.3465;stroke-miterlimit:10;}
	.vol1_3_st9{fill:none;stroke:#ffffff;stroke-width:36.8504;stroke-miterlimit:10;}
</style>
<g id="base">
	<g>
		<path class="vol1_3_st0" d="M908,166.31c0,192.3,0,384.61,0,576.94c-149.98,0-299.96,0-450,0c0-213.73,0-427.49,0-641.25
			c150,0,300,0,450,0c0,20.84,0,41.67,0,62.5c-1.4-0.14-2.8-0.29-4.2-0.42c-3.78-0.35-7.57-0.96-11.35-0.99
			c-5.06-0.04-10.12,0.42-15.18,0.59c-7.39,0.25-14.79,0.45-22.19,0.62c-3.74,0.09-5.47-1.75-5.48-5.47
			c-0.02-5.83-0.21-11.67-0.17-17.5c0.01-2.21-1.13-3.02-3-3.37c-7.79-1.46-15.59-1.27-23.41-0.2c-1.79,0.25-3.14,0.9-3.89,2.57
			c-2.99,6.66-6.19,13.25-8.86,20.03c-0.92,2.33-1.92,2.91-4.19,2.79c-5.45-0.27-10.92-0.56-16.37-0.39
			c-11.95,0.39-23.9,1.14-35.85,1.61c-7.85,0.31-15.71,0.18-23.55,0.6c-9.78,0.53-19.54,1.36-29.3,2.21
			c-2.48,0.21-3.95-0.23-4.91-2.83c-1.25-3.39-3.47-5.93-7.74-5.29c-1.84,0.28-3.73,0.2-5.58,0.43c-4.48,0.54-9.25,0.27-12.83,3.75
			c-1.7,1.66-3.08,3.65-4.78,5.31c-0.81,0.79-2,1.56-3.08,1.65c-10.56,0.89-21.14,1.63-31.71,2.43c-7.53,0.57-15.05,1.21-22.59,1.75
			c-8.81,0.63-17.62,1.3-26.44,1.7c-5.6,0.26-11.22,0.12-16.83,0.04c-0.58-0.01-1.22-0.68-1.72-1.17c-0.42-0.41-0.66-0.99-0.98-1.5
			c-0.55,0.41-1.38,0.71-1.6,1.26c-0.47,1.15-1.1,1.23-2.25,1.17c-4.71-0.26-9.42-0.42-14.14-0.45c-5.2-0.04-10.41,0.1-15.61,0.16
			c-1.7,0.02-2.65-0.4-2.77-2.51c-0.18-3.25-1.75-5.22-4.02-5.46c-4.53-0.48-8.7,0.16-11.99,3.91c-1.09,1.24-2.83,2.15-4.44,2.64
			c-2.99,0.91-6.09,1.48-9.18,2.04c-4.47,0.81-8.95,1.76-13.46,2.15c-4.38,0.38-8.81,0.12-13.23,0.13c-3.55,0.01-7.11,0-10.6,0
			c-0.43,1.5,0.13,2.08,1.5,2.07c6.18-0.02,12.35-0.01,18.97-0.01c-0.32,1.16-0.38,1.9-0.7,2.5c-4.35,7.82-6.13,16.16-5.04,25.06
			c1.12,9.18,2.31,18.34,3.45,27.52c1.22,9.79,2.32,19.6,3.65,29.38c0.7,5.17,3.18,9.46,7.39,12.64c4.16,3.15,8.64,5.6,13.89,6.41
			c1.62,0.25,2.8,0.69,2.75,2.94c-0.07,3.17,0.34,6.38,0.74,9.54c0.31,2.44,1.34,3.22,3.67,2.66c2.22-0.54,4.39-1.41,6.49-2.33
			c2.34-1.02,2.92-2.9,2.24-5.33c-0.64-2.28-1.1-4.6-1.67-7.03c3.09-0.68,5.97-1.14,8.74-1.97c3.92-1.16,7.99-2.15,11.6-4
			c5.71-2.93,6.42-8.94,7.01-14.44c0.79-7.35,0.74-14.78,1.19-22.16c0.46-7.53,0.83-15.08,1.77-22.56c0.64-5.07,1.65-10.23,3.44-15
			c2.9-7.75,6.63-15.19,9.86-22.82c0.83-1.96,1.85-2.59,4-2.61c11.22-0.12,22.44-0.28,33.65-0.78c9.33-0.42,18.64-1.3,27.96-2.06
			c6.03-0.49,12.03-1.18,18.06-1.65c5.11-0.4,10.23-0.61,15.28-0.91c-0.29,3.37-0.67,6.46-0.79,9.57c-0.1,2.54,0.15,5.09,0.17,7.64
			c0.03,4.64-0.08,9.28,0.04,13.92c0.12,4.93,0.54,9.85,0.62,14.77c0.09,5.3-0.17,10.61-0.09,15.92c0.08,4.83,3.31,8.95,7.97,10.26
			c2.85,0.8,5.79,1.33,8.47,1.93c0.59,3.94,1.32,7.96,1.73,12.02c0.2,1.97,1.09,3.06,2.87,2.97c3.32-0.17,6.62-0.86,9.95-0.99
			c4.57-0.18,5.91-3.05,6.36-6.88c0.04-0.37,0.09-0.74,0.18-1.11c0.44-1.88,0.77-3.8,1.35-5.64c0.66-2.09,2.08-2.32,3.5-0.73
			c0.36,0.4,0.82,0.7,1.55,1.3c0.08-2.73,1.6-3.12,3.49-3.08c1.04,0.02,2.09-0.1,3.14-0.19c4.39-0.36,8.16-1.63,10.93-5.52
			c2.1-2.95,4.62-5.77,7.48-7.96c4.77-3.65,6.82-8.48,7.03-14.11c0.17-4.6,0.11-9.3-0.67-13.82c-1.87-10.95-5.12-21.37-13.67-29.29
			c-1.48-1.38-2.52-3.24-3.76-4.88c0.07-0.25,0.15-0.51,0.22-0.76c29.16-1.25,58.31-3.11,87.63-2.73
			c-6.26,6.34-7.17,14.35-7.93,22.34c-0.59,6.22-0.59,12.5-1.28,18.71c-1.05,9.48-1.83,18.96,0.28,28.35
			c1.24,5.53,3.5,10.06,11.12,10.15c0.75,0.01,1.51,0.24,2.24,0.14c2.53-0.35,3.46,0.74,3.78,3.23c0.58,4.52,3.2,6.2,7.73,5.39
			c1.03-0.18,2.07-0.32,3.09-0.51c7.59-1.43,7.5,0.22,9.76-7.98c0.42-1.53,1.35-2.11,2.82-2.44c2.31-0.53,4.67-1.09,6.83-2.03
			c6.23-2.72,11.34-7.16,16.52-11.42c2.05-1.69,4.13-3.59,5.49-5.83c3.15-5.21,4.62-11.12,4.77-17.13
			c0.16-6.38-0.53-12.78-0.74-19.18c-0.16-4.93-2.67-8.31-6.57-11.03c-3.16-2.21-6.68-4.11-8.32-7.93c-0.22-0.51-0.3-1.08-0.45-1.62
			c0.55-0.12,1.1-0.32,1.65-0.33c2.99-0.03,5.99,0.09,8.98-0.04c7.16-0.31,14.31-0.94,21.47-1.06
			C892.92,165.84,900.46,166.17,908,166.31z M654.64,540.95c0.19,0.78,0.3,1.35,0.46,1.92c0.54,1.9,0.55,4.34,1.77,5.57
			c3.12,3.18,6.59,6.12,10.3,8.58c3.14,2.08,6.9,3.2,10.25,5.01c2.92,1.58,5.76,3.37,8.42,5.35c1.7,1.27,1.78,3.44,0.64,5.23
			c-1.81,2.83-3.73,5.59-5.51,8.45c-6.54,10.5-16.47,15.38-28.24,17.49c-8.6,1.54-17.23,2.99-25.42,6.31
			c-5.19,2.1-8.16,7.82-6.5,13.13c1,3.2,3.2,4.94,6.57,5.08c1.34,0.05,2.69-0.06,4.04-0.14c4.4-0.28,8.8-0.65,13.2-0.86
			c10.83-0.52,21.68-0.8,32.49-1.54c4.32-0.29,8.88-0.02,12.83-2.53c0.32-0.2,1.07,0.29,1.41,0.1c1.2-0.68,3.21-1.45,3.27-2.3
			c0.14-2.09,0.81-1.87,1.84-0.85c4.42,4.32,10.09,5.53,15.83,6.79c7.96,1.75,14.83-0.06,20.66-5.7c5.87-5.68,6.19-13.14,6.3-20.59
			c0.04-2.69-0.41-5.38-0.47-8.07c-0.13-5.39,0.7-10.44,5.54-13.88c9.92-7.03,20.88-11.39,33.05-11.91
			c7.14-0.31,14.34,0.17,21.49,0.59c4.67,0.27,9.39,0.72,13.35,3.82c1.88,1.48,2.09,1.99,0.17,3.52c-2.8,2.23-5.55,4.63-8.64,6.38
			c-4.13,2.34-8.42,4.67-12.93,5.99c-3.71,1.08-7.86,0.95-11.81,0.87c-4.8-0.09-7.96,2.01-9.89,6.21c-0.93,2.03-0.93,4.08,0.5,5.94
			c2.98,3.88,7.15,5.24,11.82,5.42c6.82,0.26,13.56-0.29,20.24-1.87c5.42-1.28,10.8-2.52,14.95-6.62c0.15-0.15,0.53-0.07,0.85-0.1
			c0.09,0.71,0.18,1.3,0.23,1.89c0.5,6.11,2.51,11.68,6.25,16.52c0.88,1.14,2.59,2.52,3.75,2.38c3.2-0.38,6.38-1.33,9.44-2.4
			c2.87-1,5.52-2.59,8.38-3.64c2.66-0.98,4.87-2.48,6.05-4.99c1.67-3.55,3.43-7.17,4.35-10.95c1.74-7.16,3.2-14.42,4.24-21.72
			c1.23-8.58,1.7-17.26,2.88-25.84c0.46-3.33,1.28-6.88,4.26-9.14c3.32-2.52,6.64-5.08,10.17-7.26c4.81-2.97,9.83-5.58,14.74-8.38
			c3.91-2.23,6.19-5.38,5.36-10.1c-0.83-4.78-1.69-9.55-2.68-14.3c-0.9-4.34-3.37-7.18-7.74-8.73c-8.61-3.05-12.43-1.91-18.12,3.95
			c-6.22,6.41-11.92,13.27-20.36,17.26c-5.98,2.83-11.91,5.48-18.39,6.84c-4.9,1.02-9.85,1.84-14.69,3.07
			c-8.08,2.06-16.25,2.33-24.51,2.03c-11.59-0.41-23.18-0.89-34.77-0.96c-9.86-0.06-19.73,0.48-29.59,0.61
			c-11.21,0.15-22.43,0.13-33.65,0.24c-1.8,0.02-3.6,0.36-5.66,0.58c0.2-0.69,0.22-1.08,0.4-1.36c3.41-5.34,6.72-10.76,10.3-15.98
			c3.16-4.62,5.71-9.56,7.14-14.89c1.18-4.41,2.95-8.37,5.27-12.25c1.63-2.72,2.81-5.74,3.95-8.72c1.12-2.92,1.71-6.06,4.25-8.26
			c0.39-0.34,0.62-1.04,0.65-1.58c0.33-7.1,0.64-14.2,0.9-21.3c0.07-1.87-0.62-3.85,1.29-5.34c0.36-0.28,0.33-1.28,0.23-1.9
			c-0.87-5.14-1.72-10.28-2.73-15.39c-0.95-4.81-2.12-9.58-3.15-14.37c-0.89-4.16-1.63-8.35-2.63-12.49
			c-0.68-2.8-1.71-3.02-4.07-1.4c-3.69,2.54-7.48,4.93-11.14,7.51c-4.8,3.38-9.68,6.66-14.21,10.37
			c-5.37,4.39-10.41,9.19-15.58,13.83c-3.92,3.52-7.55,7.58-13.62,6.85c-1.02-0.12-2.11-0.01-3.13,0.18
			c-10.87,1.99-21.81,0.61-32.72,0.69c-5.81,0.04-11.63,0.02-17.42,0.34c-7.83,0.43-15.64,1.24-23.46,1.77
			c-9.67,0.65-18.81,3.18-27.5,7.42c-0.53,0.26-1.32,0.34-1.87,0.16c-1.19-0.4-2.39-0.9-3.45-1.57c-11.64-7.45-24.1-13.2-37-18.04
			c-2.63-0.99-3.52-0.44-3.3,2.45c0.75,9.62-0.04,19.37,2.21,28.86c0.85,3.6,2.19,7.08,3.29,10.61c0.2,0.64,0.46,1.29,0.48,1.94
			c0.08,3.29,0.66,6.47-0.11,9.9c-2.06,9.24-2.17,18.71-1.52,28.13c0.55,7.99,2.59,15.62,7.16,22.37c3.31,4.89,6.62,9.78,9.96,14.65
			c2.05,2.99,3.56,6.47,7.11,8.15c3.35,1.58,6.66,3.26,10.08,4.68c7.92,3.29,16.26,5.07,24.73,6.03c7.41,0.84,14.88,1.27,22.33,1.59
			c2.24,0.1,2.8,1.22,3.2,2.91c0.58,2.39,0.91,4.86,1.78,7.14c0.77,2.03,1.73,4.38,4.42,4.5c1.83,0.08,3.86,0.06,5.5-0.64
			c6.52-2.8,11.93-7.06,15.68-13.2c0.86-1.41,1.86-2.37,3.58-2.7c7.79-1.48,15.43-3.49,22.77-6.56
			C649.81,542.77,652.17,541.91,654.64,540.95z M759.73,471.36c2.1,0.54,2.73-0.19,2.88-1.67c0.84-8.24,1.65-16.49,2.58-24.72
			c1.09-9.63,2.06-19.29,3.52-28.87c1.3-8.54,3.16-16.99,4.83-25.47c1.02-5.18,2.29-10.32,3.13-15.53c0.53-3.31,0.3-6.73,0.74-10.06
			c1.12-8.52,2.46-17.01,3.65-25.52c1.57-11.25,3.02-22.52,4.64-33.77c0.86-5.99,2.23-11.91,2.93-17.92
			c0.66-5.63,0.69-11.34,1.09-17.01c0.12-1.76,0.63-3.49,0.81-5.25c0.05-0.56-0.4-1.65-0.64-1.66c-0.67-0.01-1.49,0.26-1.99,0.71
			c-0.43,0.4-0.64,1.18-0.7,1.82c-0.53,5.27-1.01,10.54-1.49,15.81c-0.27,3.04-0.34,6.11-0.77,9.13
			c-1.16,7.97-2.51,15.92-3.71,23.89c-1.09,7.23-2.14,14.48-3.07,21.73c-0.78,6.08-1.22,12.21-2.1,18.28
			c-0.92,6.34-2.36,12.59-2.43,19.05c-0.03,2.52-0.5,5.06-1.03,7.54c-0.6,2.82-1.61,5.56-2.22,8.38
			c-1.09,5.03-2.12,10.09-2.98,15.17c-1.35,8.02-2.71,16.05-3.72,24.12c-0.99,7.86-1.56,15.76-2.29,23.65
			C760.81,459.22,760.28,465.23,759.73,471.36z M811,483.23c0.23,0.2,0.46,0.41,0.69,0.61c0.78-0.82,1.93-1.5,2.27-2.47
			c1.11-3.17,2.16-6.39,2.79-9.68c0.93-4.9,1.18-9.93,2.27-14.79c1.33-5.91,1.62-11.79,1.53-17.81c-0.12-7.94,2.1-15.48,4.77-22.91
			c0.93-2.58,1.41-5.34,1.81-8.07c0.91-6.05,1.73-12.13,2.43-18.21c0.47-4.07,0.76-8.17,0.94-12.26c0.2-4.63,0.16-9.28,0.27-13.91
			c0.14-5.45,0.26-10.9,0.51-16.35c0.22-4.84,0.39-9.7,0.98-14.51c0.58-4.66,1.73-9.24,2.51-13.87c0.84-5,1.65-10.01,2.28-15.05
			c0.77-6.22,1.68-12.45,1.92-18.7c0.32-8.35,0.07-16.73,0.01-25.1c0-0.47-0.49-0.93-0.75-1.39c-0.43,0.44-1.17,0.84-1.24,1.34
			c-0.28,1.76-0.45,3.56-0.46,5.35c-0.02,8.52,0.37,17.05-0.08,25.54c-0.3,5.61-1.78,11.16-2.7,16.74
			c-1.14,6.92-2.4,13.83-3.31,20.79c-0.79,6.05-1.32,12.14-1.71,18.23c-0.32,5.07-0.24,10.16-0.41,15.23
			c-0.12,3.58-0.44,7.16-0.54,10.75c-0.1,3.74,0.31,7.51-0.1,11.21c-0.82,7.42-1.96,14.82-3.13,22.2
			c-0.58,3.68-1.05,7.48-2.37,10.91c-3.26,8.44-4.6,17.12-4.77,26.1c-0.08,4.16-0.62,8.32-1.14,12.46
			c-0.64,5.18-1.31,10.38-2.27,15.51C813.24,475.2,812.02,479.2,811,483.23z M747.81,257.89c-0.28-0.14-0.55-0.28-0.83-0.42
			c-0.63,0.93-1.61,1.78-1.84,2.8c-0.76,3.35-1.32,6.75-1.82,10.15c-0.98,6.66-1.77,13.34-2.82,19.98
			c-1.02,6.49-2.78,12.9-3.27,19.42c-0.74,9.75-0.51,19.57-0.96,29.34c-0.3,6.57-0.96,13.12-1.61,19.66
			c-0.91,9.14-1.97,18.27-2.93,27.41c-0.52,4.9-0.69,9.86-1.5,14.71c-1.16,6.94-1.84,13.89-2.05,20.93
			c-0.26,8.52-0.97,17.02-1.34,25.53c-0.31,7.24-0.47,14.49-0.56,21.74c-0.01,1.13,0.71,2.28,1.09,3.41
			c0.22-0.07,0.44-0.14,0.66-0.21c0.04-0.43,0.1-0.86,0.12-1.29c0.54-10.76,1.06-21.53,1.63-32.29c0.37-6.94,0.82-13.88,1.2-20.83
			c0.19-3.36,0.14-6.74,0.5-10.08c0.59-5.42,1.55-10.8,2.12-16.23c1.07-10.11,2-20.24,2.95-30.37c0.7-7.37,1.48-14.73,1.96-22.12
			c0.26-3.95-0.22-7.94-0.08-11.9c0.22-5.9,0.42-11.82,1.14-17.67c0.92-7.48,2.4-14.89,3.56-22.34c1.23-7.9,2.36-15.81,3.57-23.71
			C747.01,261.65,747.45,259.77,747.81,257.89z M677.71,383.72c0.26,0.18,0.51,0.35,0.77,0.53c0.54-0.59,1.47-1.14,1.54-1.78
			c0.27-2.33,0.32-4.7,0.35-7.06c0.06-4.86,0-9.73,0.11-14.59c0.17-7.25,0.36-14.5,0.71-21.74c0.41-8.5,1.15-16.99,1.48-25.49
			c0.3-7.61,0.5-15.24,0.27-22.85c-0.23-7.79-0.87-15.53,2.58-22.88c0.19-0.4-0.09-1.02-0.15-1.54c-0.22-0.07-0.45-0.14-0.67-0.21
			c-1.33,1.97-3.35,3.78-3.85,5.95c-0.79,3.43-0.74,7.1-0.75,10.66c-0.02,7.24,0.21,14.49,0.23,21.73c0.01,4.85-0.1,9.69-0.28,14.54
			c-0.11,3.08-0.46,6.16-0.73,9.65c-0.78-0.74-1.15-1.25-1.64-1.52c-0.57-0.31-1.25-0.4-1.88-0.59c-0.05,0.68-0.38,1.52-0.09,2
			c0.84,1.39,1.92,2.64,2.94,3.97C678.34,349.4,678.03,366.56,677.71,383.72z M816.08,275.22c0.45-2.07,0.95-3.98,1.24-5.93
			c0.08-0.52-0.5-1.14-0.78-1.72c-0.61,0.41-1.4,0.71-1.79,1.27c-0.39,0.57-0.4,1.41-0.56,2.14c-0.9,4-2.59,5.77-5.5,5.63
			c-2.45-0.12-3.74-1.93-5.02-3.69c-0.63-0.86-1.24-1.74-1.94-2.72c-1.51,1.24-1.86,2.35-0.86,3.69c0.8,1.07,1.65,2.12,2.67,3.42
			c-4.47,0.63-7.94,2.03-10.86,4.91c-1.84,1.82-1.32,4.27,0.61,5.19c3.31,1.57,6.78,2.72,10.33,1.04c1.9-0.89,3.53-2.36,5.51-3.73
			c1,1.6,1.96,3.37,3.18,4.94c0.39,0.51,1.57,0.84,2.2,0.64c1.25-0.4,0.75-1.34,0.23-2.16c-0.48-0.75-0.91-1.55-1.37-2.32
			c-2.29-3.78-2.4-4.71,1.05-7.42c1.44-1.13,3.88-1.16,5.9-1.31c2.05-0.15,3.6,1.57,3.73,3.61c0.16,2.51-1.22,3.88-3.76,3.91
			c-1.26,0.01-2.53,0.16-3.76,0.44c-1.39,0.32-1.52,1.21-0.77,2.36c1.82,2.8,5,3.33,7.46,1.07c1.15-1.05,2.03-1.07,3.03,0.04
			c0.2,0.22,0.41,0.56,0.65,0.59c0.75,0.09,1.51,0.07,2.27,0.09c-0.31-0.66-0.46-1.49-0.96-1.93c-0.75-0.67-1.75-1.07-2.62-1.57
			C828.68,278.49,825.15,274.39,816.08,275.22z M717.14,258.54c-0.31-0.11-0.62-0.21-0.93-0.32c-0.45,0.82-1.19,1.61-1.29,2.47
			c-0.46,3.86-0.53,7.77-1.14,11.6c-1,6.33-2.27,12.63-3.49,18.92c-0.89,4.61-1.95,9.19-2.8,13.81c-0.57,3.08-1.03,6.19-1.34,9.31
			c-0.57,5.72-1.05,11.45-1.44,17.19c-0.81,11.85-1.52,23.7-2.33,35.54c-0.25,3.59-0.76,7.17-0.98,10.76
			c-0.05,0.79,0.64,1.63,0.99,2.44c0.47-0.67,1.04-1.3,1.39-2.03c0.25-0.51,0.24-1.17,0.28-1.76c0.52-7.68,1.01-15.36,1.55-23.03
			c0.63-8.94,1.3-17.88,1.96-26.83c0.35-4.7,0.47-9.43,1.14-14.08c0.91-6.27,2.51-12.45,3.34-18.73c1.36-10.3,4.77-20.24,5.08-30.7
			C717.18,261.58,717.14,260.06,717.14,258.54z M656.9,374.64c-0.2-0.18-0.39-0.37-0.59-0.55c0.47-0.84,0.87-1.73,1.43-2.51
			c1.22-1.7,2.59-3.3,3.74-5.04c0.33-0.49,0.11-1.34,0.14-2.03c-0.62-0.01-1.26-0.12-1.86-0.01c-1.13,0.21-2.23,0.55-3.16,0.78
			c-0.54-1.17-0.95-2.05-1.46-3.17c-0.55,0.51-1.02,0.74-1.04,1c-0.2,3.28-2.99,3.78-5.19,4.92c-0.4,0.21-0.87,0.41-1.1,0.75
			c-0.45,0.68-0.76,1.45-1.12,2.19c0.8-0.02,1.67,0.14,2.4-0.09c1.37-0.44,2.67-1.1,4.18-1.75c0.38,2.48,0.18,4.38-1.39,6
			c-1.67,1.72-3.31,3.46-4.88,5.26c-0.67,0.78-1.13,1.75-1.83,2.89c3.79,0.93,4.98-2.66,7.53-3.33c0,1.7-0.1,3.27,0.04,4.81
			c0.06,0.68,0.61,1.32,0.93,1.98c0.7-0.57,1.73-1.01,2.01-1.74c0.36-0.91-0.03-2.08,0.15-3.1c0.26-1.49,0.26-3.55,1.21-4.3
			c2.53-2,5.52-3.42,8.68-5.28c-0.16,0.99-0.28,1.48-0.32,1.98c-0.21,2.53-0.53,5.06-0.5,7.58c0.01,0.67,1.49,2,1.76,1.87
			c2.46-1.17,4.83-2.53,7.14-3.97c0.47-0.29,0.59-1.16,0.87-1.76c-0.14-0.12-0.28-0.24-0.42-0.37c-2.07,1.07-4.14,2.14-6.8,3.52
			c0.14-2.16,0.06-3.51,0.33-4.78c0.5-2.32,1.24-4.59,1.77-6.91c0.11-0.49-0.16-1.11-0.42-1.59c-0.06-0.12-0.82,0-1.15,0.19
			C664.28,370.26,660.59,372.45,656.9,374.64z M720.59,305.35c-0.18,2.55-0.29,4.73-0.49,6.91c-0.35,3.75-0.41,3.55-3.83,4.3
			c-1.21,0.26-2.88,1.64-3.04,2.7c-0.19,1.23,0.74,3.07,1.77,3.91c0.63,0.51,2.41-0.27,3.62-0.66c0.51-0.16,0.96-0.74,1.27-1.23
			c0.89-1.4,2.05-1.46,3.49-1.04c2.14,0.63,4.3,1.32,6.5,1.57c0.91,0.1,1.95-0.88,2.93-1.37c-0.68-0.54-1.29-1.35-2.06-1.58
			c-2.15-0.62-4.35-1.11-6.56-1.42c-1.85-0.26-2.1-1.15-1.83-2.78c0.41-2.49,0.78-5.02,0.8-7.53c0.02-1.82,0-3.04,2.38-2.9
			c0.69,0.04,1.45-1.01,2.17-1.55c-0.79-0.34-1.57-0.68-2.36-1.01c-0.78-0.32-1.98-0.43-2.25-0.99c-0.75-1.55,0.3-3.1,1.98-3.61
			c1.31-0.4,2.56-1,3.84-1.5c-0.07-0.27-0.13-0.54-0.2-0.81c-0.54-0.13-1.08-0.34-1.63-0.36c-1.63-0.08-3.47,0.79-4.67-1.17
			c-0.06-0.09-0.98,0.32-1.49,0.53c-0.95,0.4-1.85,0.93-2.83,1.21c-0.92,0.26-2,0.07-2.86,0.43c-0.61,0.26-0.96,1.11-1.42,1.7
			c0.6,0.29,1.19,0.79,1.8,0.81c1.59,0.05,3.19-0.1,4.78-0.18c0.18,5.27,0.07,5.15-3.41,5.6c-0.85,0.11-1.77,0.53-2.44,1.07
			c-0.59,0.49-0.88,1.35-1.3,2.05c0.18,0.13,0.36,0.26,0.54,0.39C715.83,306.38,717.91,305.93,720.59,305.35z M804.67,394.11
			c0.22,0.16,0.44,0.32,0.66,0.48c0.59-0.34,1.49-0.54,1.72-1.05c1.53-3.36,3.49-6.66,4.22-10.21c1.04-5.05,0.31-8.18-4.2-9.73
			c-3.92-1.34-7.96-0.65-11.93-0.07c-0.54,0.08-1.13,0.5-1.49,0.94c-3.73,4.57-7.2,9.08-5,15.73c1.48,4.47,5.53,5.99,9.12,2.88
			c2.57-2.23,3.44-5.24,3.61-8.38c0.17-3.07-0.19-6.16-0.33-9.3c0.47-0.04,1.13-0.1,1.79-0.14c4.02-0.26,5.87,1.11,5.48,5.09
			c-0.33,3.39-1.67,6.69-2.58,10.02C805.41,391.62,805.03,392.86,804.67,394.11z M865.58,296.94c-2.28,0.68-2.89,3-2.02,5.66
			c0.97,2.96,1.67,6.02,2.31,9.07c0.1,0.49-0.62,1.27-1.13,1.72c-0.34,0.3-1.01,0.18-1.5,0.35c-2.37,0.79-3.41,2.2-3.2,4.26
			c0.18,1.8,2.2,3.73,4.08,3.92c2.27,0.22,3.67-0.83,4.36-3.26c0.28-0.99,0.56-1.98,0.76-2.71c5.77-1.01,11.43,0.87,16.98-1.18
			c-1.21-0.79-2.47-1.28-3.75-1.33c-3.8-0.13-7.61-0.04-11.42-0.14c-0.65-0.02-1.75-0.4-1.85-0.81c-0.65-2.72-1.09-5.5-1.63-8.42
			c4.4-1.06,8.79-2.15,13.19-3.15c1.67-0.38,3.33-0.63,4.35-2.84c-1.07-0.06-1.93-0.29-2.7-0.12c-3.94,0.85-7.88,1.7-11.77,2.74
			C865.86,301.98,865.88,302.06,865.58,296.94z M799.62,348.52c0.7-1.7,1.4-3.01,1.77-4.41c1.29-4.84,4.25-7.2,9.35-7.01
			c0.8,0.03,1.64-1.06,2.46-1.64c-0.84-0.25-1.68-0.72-2.52-0.72c-1.81,0.01-3.62,0.27-4.76,0.37c-0.85-1.33-1.35-2.11-1.86-2.9
			c-0.65,0.7-1.28,1.43-1.97,2.1c-0.75,0.73-1.44,1.64-2.35,2.04c-1.48,0.65-3.17,0.83-4.67,1.46c-0.59,0.25-0.89,1.17-1.32,1.78
			c0.72,0.21,1.47,0.64,2.16,0.57c1.28-0.14,2.52-0.58,4.25-1.02c-0.51,1.16-0.83,1.81-1.08,2.47c-1.14,2.97-2.3,5.93-3.37,8.92
			c-0.46,1.27,0.25,1.87,1.49,1.75c0.65-0.06,1.29-0.33,1.9-0.57c3.04-1.21,6.06-2.48,9.12-3.64c1.49-0.57,2.5-0.02,2.71,1.63
			c0.38,2.9,0.72,5.78-1.22,8.4c-0.53,0.72-0.64,1.74-0.95,2.63c4.54-2.97,6.7-6.78,5.24-12.07c-0.67-2.43-1.72-3.4-4.15-2.87
			C806.61,346.52,803.4,347.51,799.62,348.52z M699.87,276.15c-2.64-1.06-4.31-0.04-5.59,1.67c-0.78,1.05-1.41,2.27-1.88,3.5
			c-1.61,4.19-0.91,5.13,3.68,4.84c-1.57,3.34-3.11,6.5-5.71,9.04c-0.49,0.48-0.73,1.2-1.09,1.81c0.23,0.21,0.47,0.43,0.7,0.64
			c0.91-0.52,2.14-0.81,2.67-1.58c5.64-8.24,11.65-16.4,9.26-27.26c1.26-0.45,2.27-0.63,3.04-1.15c0.5-0.34,0.67-1.18,0.99-1.79
			c-0.6-0.15-1.22-0.45-1.81-0.4c-0.88,0.08-1.73,0.41-2.3,0.55c-0.9-0.56-2.01-1.49-2.21-1.32c-0.75,0.61-1.2,1.59-1.93,2.68
			c-2.39,0.58-5.42,0.7-7.64,3.81c3.37,0.94,5.92-0.99,8.99-1.53C699.32,271.78,699.58,273.79,699.87,276.15z M664.28,285.41
			c-0.29,0-0.59,0-0.88,0c0,2.78-0.07,5.56,0.05,8.33c0.03,0.62,0.73,1.21,1.12,1.82c0.58-0.38,1.38-0.63,1.69-1.16
			c2.34-3.98,4.58-8.03,6.89-12.03c0.3-0.51,0.83-1.31,1.22-1.28c1.98,0.12,2.97-0.55,2.9-2.64c-0.01-0.36,0.53-0.87,0.93-1.09
			c1.48-0.81,1.37-2.17,0.8-3.25c-0.25-0.48-1.61-0.58-2.43-0.49c-1.26,0.14-2.52,0.9-3.73,0.8c-1.23-0.1-2.4-0.92-3.66-1.45
			c0.21-0.63,0.49-1.25,0.62-1.89c0.07-0.37-0.1-0.79-0.16-1.19c-0.45,0.14-1.13,0.15-1.31,0.46c-1.31,2.2-3.2,3.43-5.69,3.95
			c-0.83,0.17-1.71,0.7-2.3,1.33c-0.48,0.52-0.55,1.41-0.97,2.62c1.19-0.39,1.61-0.56,2.04-0.66c0.46-0.11,0.93-0.14,1.53-0.23
			c-2.69,4.54-2.69,4.54-2.37,6.92c0.94-1.09,1.65-1.84,2.29-2.66c1.19-1.53,2.28-3.15,3.53-4.63c0.42-0.49,1.19-0.89,1.84-0.95
			c2.67-0.24,4.13,1.87,2.9,4.92c-1.48,3.69-3.5,7.16-5.29,10.73c-0.27-0.05-0.55-0.09-0.82-0.14
			C664.78,289.5,664.53,287.46,664.28,285.41z M713.58,361.66c-1.61,0.77-3.11,1.49-4.61,2.21c0.11,0.34,0.21,0.68,0.32,1.03
			c1.58-0.23,3.15-0.45,4.67-0.67c0.97,2.18,0.22,3.31-1.78,3.97c-1.05,0.35-2.04,0.94-2.96,1.56c-0.47,0.32-0.73,0.96-1.08,1.46
			c0.58,0.07,1.23,0.35,1.72,0.18c1.67-0.57,3.29-1.3,4.98-1.99c0.62,1.41,0.34,2.14-0.91,3c-1.48,1.03-2.75,2.48-3.83,3.95
			c-0.91,1.25-0.56,2.32,1.16,2.82c3.61,1.06,6.14-0.72,6.87-5.4c2.6,0.3,5.24,0.56,7.85,0.94c1.1,0.16,2.24,0.46,2.5-0.98
			c0.26-1.42-0.83-1.73-1.99-1.77c-2.16-0.07-4.33-0.16-6.49-0.17c-1.46-0.01-2.07-0.63-2.31-2.1c-0.31-1.85,0.88-2.1,2.09-2.54
			c1.68-0.61,3.71-0.79,4.36-3.85c-1.83,0.7-3.17,1.33-4.58,1.69c-0.74,0.19-2,0.21-2.32-0.22c-0.78-1.07-0.72-2.23,0.92-2.76
			c0.99-0.32,1.91-0.86,2.87-1.3c-0.02-0.21-0.05-0.41-0.07-0.62c-0.58-0.18-1.2-0.59-1.74-0.5c-1.49,0.24-2.95,0.9-4.28-0.48
			c-0.06-0.07-1.02,0.45-1.22,0.86C713.49,360.49,713.62,361.16,713.58,361.66z M798.28,310.8c-0.81,1.5-1.53,2.94-2.34,4.33
			c-1.85,3.16-3.81,6.25-5.55,9.46c-0.34,0.63,0.13,1.69,0.23,2.55c0.67-0.29,1.62-0.38,1.95-0.89c3.08-4.75,6.03-9.59,9.09-14.35
			c0.6-0.94,1.38-2.16,2.3-2.42c3.22-0.89,6.55-1.42,9.84-2.07c1.25-0.25,2.5-0.45,3.75-0.68c-0.03-0.34-0.05-0.69-0.08-1.03
			c-3.99-2.42-8.19,1.25-12.4,0.24c0.35-0.8,0.74-1.45,0.92-2.15c0.17-0.66,0.12-1.38,0.17-2.08c-0.94,0.17-2.06,0.09-2.78,0.59
			c-0.73,0.51-0.99,1.64-1.59,2.4c-0.81,1.03-1.57,2.31-2.66,2.88c-1.76,0.91-3.81,1.25-5.69,1.97c-0.97,0.37-1.83,1.05-2.74,1.59
			c0.13,0.3,0.25,0.61,0.38,0.91C793.41,311.65,795.74,311.24,798.28,310.8z M866.9,379.88c-0.71-3.62-1.37-7.05-2.09-10.71
			c0.21-0.07,0.75-0.29,1.31-0.41c3.05-0.65,6.12-1.2,9.13-1.97c0.72-0.19,1.26-1.09,1.89-1.66c-0.84-0.25-1.74-0.81-2.52-0.69
			c-3.76,0.59-7.53,1.22-11.22,2.13c-1.51,0.37-2.29-0.16-3.33-0.98c-0.83-0.66-2.01-0.88-3.03-1.29c-0.14,0.25-0.28,0.5-0.42,0.75
			c0.54,0.68,1.02,1.42,1.64,2.02c2.54,2.41,4.58,5.05,5.16,8.68c0.64,3.99,0.14,5.38-3.33,7.4c-0.58,0.34-1.26,0.56-1.74,1
			c-0.39,0.35-0.74,0.93-0.76,1.42c-0.01,0.26,0.71,0.69,1.15,0.78c1.73,0.37,3.17-0.1,4.4-1.48c3.06-3.43,7.01-4.22,11.42-3.79
			c2.21,0.22,4.47,0.12,6.7,0.04c0.37-0.01,0.73-0.65,1.09-1c-0.4-0.23-0.81-0.67-1.19-0.65
			C876.29,379.68,871.39,377.76,866.9,379.88z M791.58,440.35c-1,0.85-2.13,1.58-2.98,2.57c-4.54,5.32-9,10.7-13.51,16.04
			c-0.77,0.91-1.7,1.68-2.43,2.62c-0.3,0.39-0.26,1.05-0.37,1.59c0.54,0.03,1.24,0.28,1.59,0.04c1.15-0.8,2.23-1.74,3.24-2.72
			c2.52-2.44,4.94-4.98,7.5-7.36c0.58-0.54,1.57-0.63,2.8-1.08c-0.3,2.84-1.78,4.93,0.31,7.29c1.18,1.34,1.84,2.38,3.64,1.79
			c1.55-0.51,3.26-0.85,4.54-1.77c1.7-1.21,3.79-2.4,3.75-5.68c-1.34,0.99-2.26,1.69-3.18,2.37c-1.08,0.79-2.09,1.72-3.27,2.33
			c-1.34,0.7-2.48,0.6-2.51-1.4c-0.02-1.42-0.31-2.83-0.25-4.24c0.08-2.02-0.71-2.96-2.77-2.75c-0.26,0.03-0.54-0.11-1.02-0.22
			c1.77-2.13,3.41-4.11,5.05-6.08C792.55,442.68,792.9,441.64,791.58,440.35z M771.62,283.36c-1.11-1.88-2.36-1.32-3.49-0.83
			c-2.46,1.07-4.86,2.28-7.34,3.32c-2.13,0.89-3.33,0.07-3.29-2.23c0.02-0.95,0.23-1.93,0.54-2.83c1.6-4.56,4.12-8.56,7.44-12.09
			c0.74-0.79,1.56-2.81,1.36-2.97c-1.57-1.2-2.43,0.47-3.51,1.24c-0.11,0.08-0.16,0.25-0.25,0.37c-2.04,2.45-4.08,4.89-6.26,7.51
			c-0.75-0.99-1.51-1.96-2.26-2.95c-1.64-2.18-2.07-2.24-4.76-0.49c0.81,1.07,1.48,2.26,2.43,3.15c2.38,2.22,2.89,4.88,2.22,7.92
			c-0.06,0.29-0.16,0.58-0.19,0.87c-0.36,2.95,1.31,5.06,4.31,4.96C763.43,288.15,767.3,285.35,771.62,283.36z M883.97,191.71
			c-0.49,0.13-0.99,0.27-1.48,0.4c0.35,1.27,0.87,2.51,1.03,3.81c0.55,4.51,1.27,9.03,1.36,13.56c0.08,3.89-0.51,7.72-2.05,11.5
			c-1.81,4.45-2.76,9.25-3.98,13.92c-0.15,0.56,0.36,1.3,0.56,1.95c0.54-0.44,1.3-0.76,1.57-1.33c0.59-1.19,0.97-2.49,1.36-3.77
			c1.02-3.35,1.92-6.74,3.03-10.06c1.32-3.96,2.96-7.82,2.4-12.15c-0.39-3.03-0.45-6.12-1.08-9.09
			C886.06,197.48,884.9,194.62,883.97,191.71z M754.45,439.33c0.67-0.06,1.37,0,1.97-0.22c0.9-0.33,1.72-0.86,2.57-1.3
			c-0.88-0.31-1.77-0.89-2.65-0.87c-1.54,0.03-2.2-0.38-2.14-2.02c0.03-0.82-0.44-1.65-0.69-2.48c-0.29,0.04-0.58,0.08-0.87,0.11
			c-0.08,0.97-0.27,1.95-0.21,2.91c0.09,1.33-0.23,1.93-1.72,1.81c-1.09-0.08-2.27,0.1-3.3,0.47c-0.54,0.19-0.83,1.05-1.24,1.61
			c0.59,0.28,1.18,0.79,1.77,0.79c1.31,0.01,2.62-0.23,4.33-0.41c-0.39,2.09-0.66,3.9-1.11,5.67c-0.09,0.37-0.82,0.76-1.3,0.83
			c-3.99,0.53-5.58,3.76-3.57,7.35c0.92,1.64,2.24,1.79,3.27,0.22c0.85-1.29,1.46-2.74,2.35-4.47c1.96,0.98,3.97,1.91,5.9,2.97
			c0.97,0.53,1.97,0.93,2.39-0.29c0.2-0.58-0.37-1.81-0.95-2.19c-1.62-1.04-3.47-1.71-5.15-2.67c-0.48-0.28-0.99-1.12-0.92-1.63
			C753.48,443.5,753.99,441.48,754.45,439.33z M663.46,356.16c1.34-2.4,2.5-4.47,3.78-6.75c0.56,0.36,1.31,0.94,2.14,1.35
			c0.75,0.37,1.81,0.97,2.35,0.7c0.75-0.37,1.15-1.46,1.72-2.27c-1.85-1.01-3.28-1.79-4.7-2.57c-2.05-1.13-1.16-3.07-1.03-4.63
			c0.05-0.58,1.34-1.2,2.17-1.53c0.96-0.38,2.11-0.3,3.02-0.74c0.59-0.28,0.9-1.15,1.33-1.75c-0.61-0.23-1.24-0.7-1.83-0.65
			c-1.44,0.13-2.85,0.5-3.82,0.69c-0.73-1.02-1.24-1.72-1.74-2.43c-0.52,1.05-1.05,2.1-1.58,3.17c-1.46,0.24-3.03,0.51-4.6,0.77
			c-0.02,0.31-0.05,0.62-0.07,0.93c0.74,0.37,1.44,0.93,2.22,1.07c0.83,0.15,1.72-0.1,3.3-0.23c-0.69,1.74-0.85,3.56-1.82,4.29
			C661.07,348,660.28,352.3,663.46,356.16z M746.02,409.69c-1.43,2.93-3.8,4.75-4.01,7.55c0.25,0.16,0.5,0.32,0.75,0.49
			c2.12-2.94,4.24-5.87,6.37-8.81c1.47,5.15,1.39,9.89-1.29,14.76c-0.61-1.7-1.07-2.98-1.52-4.27c-0.24,0.02-0.48,0.05-0.72,0.07
			c0.09,1.77,0.1,3.56,0.32,5.32c0.09,0.72,0.66,1.38,1,2.07c0.7-0.46,1.68-0.77,2.06-1.42c2.03-3.5,3.85-7.15,3.54-11.36
			c-0.27-3.59-0.75-7.16-1.19-11.16c-0.74,0.64-1.3,1.14-1.87,1.63c-1.02,0.88-1.94,1.92-3.07,2.6c-2.17,1.3-4.5,2.33-6.68,3.62
			c-0.58,0.34-0.84,1.22-1.24,1.85c0.72-0.06,1.52,0.07,2.15-0.2C742.28,411.68,743.88,410.78,746.02,409.69z M674.97,314.11
			c-2.16,1.15-3.83,2.09-5.54,2.95c-2.07,1.05-4.12,1.02-5.75-0.75c-1.69-1.83-1.79-3.93-0.72-6.22c0.91-1.95,1.66-4,2.27-6.07
			c0.21-0.7-0.21-1.58-0.34-2.38c-0.57,0.57-1.38,1.03-1.68,1.72c-2.7,6.06-5.34,12.15-7.92,18.27c-0.3,0.72-0.08,1.67-0.09,2.51
			c0.8-0.5,1.84-0.83,2.34-1.54c1.03-1.49,1.77-3.17,2.68-4.86c3.33,4.11,5.58,3.56,10.87,1.03
			C672.76,317.98,674.97,317.01,674.97,314.11z M743.36,233.3c0.25,0.11,0.5,0.22,0.75,0.34c0.56-0.62,1.39-1.15,1.63-1.88
			c1.2-3.59,2.77-7.17,3.2-10.87c0.54-4.69,0.43-9.53-0.04-14.24c-0.28-2.77-1.61-5.5-2.84-8.07c-0.76-1.58-2.42-1.6-4.36-0.69
			c3.02,1.5,3.61,4.15,4.1,6.78c0.4,2.12,0.86,4.31,0.75,6.44c-0.25,4.9-0.68,9.79-1.32,14.65
			C744.91,228.3,744.01,230.78,743.36,233.3z M752.18,360.11c-0.8,2.03-0.03,7.75,1.18,8.97c0.27,0.27,1.17,0.27,1.5,0.02
			c0.57-0.43,1.07-1.09,1.33-1.76c1.88-4.74,3.26-9.61,2.96-14.78c-0.05-0.8-0.64-2.03-1.27-2.25c-1.31-0.46-3.05-0.91-4.18-0.4
			c-2.12,0.95-3.96,2.54-5.84,3.96c-0.72,0.54-1.25,1.35-1.87,2.03c0.18,0.22,0.36,0.44,0.55,0.66c1.18-0.53,2.37-1.06,3.83-1.71
			c-1.25,2.44-2.33,4.56-3.41,6.67c0.26,0.19,0.51,0.38,0.77,0.57c0.7-0.74,1.55-1.38,2.07-2.23c1.28-2.09,2.34-4.33,3.67-6.39
			c0.34-0.53,1.36-0.86,2.07-0.85c0.41,0,1.14,0.84,1.17,1.32c0.18,3.97-0.53,7.79-1.93,11.47c-0.22,0.03-0.44,0.06-0.65,0.09
			C753.49,363.77,752.87,362.04,752.18,360.11z M784.52,420.13c0.19,1.82,1.14,1.64,2.51,1.25c1.82-0.52,3.73-1.01,5.59-0.99
			c2.62,0.03,3.37,1.7,2.4,4.14c-1.68,4.22-4.8,7.09-8.4,9.63c-1.25,0.88-2.23,2.14-3.33,3.22c0.17,0.29,0.34,0.58,0.51,0.87
			c0.99-0.22,2.12-0.22,2.96-0.71c4.85-2.79,8.61-6.76,10.94-11.78c1.79-3.88,1.18-6.46-3.87-7.3
			C790.52,417.91,787.45,418.5,784.52,420.13z M859.54,264.63c-2.18,0.47-2.43,1.89-2.61,3.29c-0.53,4.12-1.23,8.24-1.43,12.38
			c-0.16,3.17,0.22,6.39,0.58,9.56c0.2,1.74,2.16,2.69,3.28,1.64c2.13-2,4.05-4.23,6.14-6.44c-3.29-1.25-4.76,1.71-7.26,2.71
			C857.59,279.93,858.23,272.37,859.54,264.63z M731.82,274.88c-0.79,0.59-1.54,1.23-2.37,1.75c-1.94,1.22-3.82,2.57-5.89,3.5
			c-2.14,0.97-3.1,0.34-2.94-1.93c0.19-2.64,0.48-5.38,1.37-7.84c1.03-2.84,2.8-5.41,4.19-8.13c0.28-0.56,0.29-1.26,0.42-1.9
			c-5.47,4.48-9.63,13.07-8.47,20.19c0.18,1.13,1.7,2.79,2.75,2.91C725,283.92,730.89,279.46,731.82,274.88z M561,214.26
			c-0.24,0.16-0.48,0.32-0.71,0.49c0.16,0.52,0.31,1.04,0.48,1.56c0.88,2.66,2.24,5.27,2.54,7.99c0.66,5.87,0.49,11.77-1.47,17.49
			c-0.47,1.36-0.41,2.9-0.59,4.36c0.24,0.13,0.49,0.25,0.73,0.38c0.71-0.99,1.74-1.88,2.06-2.98c0.91-3.12,1.7-6.29,2.23-9.49
			c1.01-6.09-0.3-11.88-2.92-17.38C562.91,215.72,561.8,215.06,561,214.26z M894.37,196.96c0.35,5.17,0.78,9.81,0.93,14.46
			c0.09,2.78-0.04,5.61-0.47,8.35c-0.45,2.91-1.43,5.74-2.05,8.63c-0.17,0.8,0.12,1.7,0.24,2.99
			C898.69,224.32,899.79,200.73,894.37,196.96z M845.65,457.88c-0.19-4.96-0.38-9.72-0.55-14.48c-0.03-0.9,0.2-1.84-0.03-2.68
			c-0.15-0.55-0.89-0.95-1.37-1.41c-0.33,0.49-0.84,0.95-0.96,1.49c-0.18,0.79-0.12,1.64-0.1,2.46c0.14,5.04,0.3,10.09,0.43,15.13
			c0.06,2.14,1.86,2.53,3.11,2.23c1.8-0.44,3.4-1.69,5.32-2.72c-0.7-0.56-0.89-0.84-1.04-0.82
			C849.09,457.29,847.72,457.53,845.65,457.88z M759.82,195.74c4.61,10.27,3.08,19.82-2.2,29.53c2.76-0.65,3.5-2.77,4.34-4.49
			c2.92-5.96,3.14-12.39,2.47-18.83c-0.21-1.98-1.16-3.92-2.01-5.77C761.84,194.93,760.75,194.82,759.82,195.74z M848.31,404.96
			c-0.08,0.28-0.17,0.55-0.25,0.83c1.01,0.25,2.08,0.87,3.01,0.7c4.02-0.73,8-1.71,12-2.56c1.53-0.33,3.55-1.3,4.53-0.69
			c2.03,1.27,3.18-0.05,4.55-0.71c0.57-0.27,0.83-1.2,1.22-1.83c-0.65-0.21-1.34-0.69-1.94-0.59c-5.06,0.86-10.12,1.77-15.16,2.8
			C853.59,403.46,850.97,404.27,848.31,404.96z M585.29,240.4c0.32,0.13,0.64,0.26,0.96,0.39c0.94-1.95,2.51-3.84,2.7-5.85
			c0.47-5.1,0.39-10.26,0.38-15.4c0-1.24-0.58-2.48-0.9-3.73c-0.28-0.01-0.55-0.01-0.83-0.02c-0.25,1-0.66,1.99-0.71,2.99
			c-0.34,6.17-0.58,12.35-0.92,18.52C585.89,238.35,585.52,239.37,585.29,240.4z M861.83,350.35c-0.38-0.29-0.5-0.46-0.6-0.45
			c-1.54,0.21-3.08,0.49-4.62,0.66c-3.03,0.33-3.29,0.22-3.79-2.8c-0.44-2.64-0.56-5.34-0.96-7.98c-0.08-0.55-0.73-1.23-1.26-1.4
			c-0.31-0.1-1.34,0.74-1.3,1.09c0.35,3.76,0.68,7.53,1.38,11.23c0.29,1.56,1.67,2.79,3.5,2.5
			C856.82,352.77,859.55,352.4,861.83,350.35z M652.73,335.74c-3.43,0.85-5.21,13.95-2.8,18.71c2.73-0.61,4.75-2.92,4.74-5.56
			c-0.93,0.58-1.8,1.13-3.28,2.06C651.85,345.65,652.28,340.81,652.73,335.74z M702.12,307.89c-0.03-2.52-1.86-4.8-3.81-4.73
			c-2.06,0.07-5.28,3.5-5.35,5.7c-0.04,1.27,2.99,4.57,4.2,4.57C699.28,313.43,702.15,310.24,702.12,307.89z M875.36,418.08
			c-0.14-0.23-0.28-0.45-0.41-0.68c-0.71,0.04-1.49-0.09-2.12,0.16c-6.58,2.66-13.42,4.02-20.5,4.28c-0.64,0.02-1.26,0.44-1.89,0.68
			c0.02,0.2,0.04,0.4,0.06,0.61c0.83,0.17,1.65,0.42,2.49,0.5c7.36,0.74,14.12-1.8,20.95-3.9
			C874.52,419.56,874.89,418.65,875.36,418.08z M756.35,336.62c0.21,0.16,0.42,0.32,0.63,0.48c0.6-0.59,1.33-1.1,1.78-1.79
			c0.83-1.23,1.72-2.5,2.18-3.88c1.06-3.22,1.98-6.5,2.7-9.81c0.12-0.54-1-1.78-1.73-1.95c-0.97-0.23-2.26,0.01-3.16,0.51
			c-2.66,1.49-4.62,3.67-5.64,6.61c0.71-0.2,1.2-0.62,1.66-1.07c1.07-1.04,2.02-2.24,3.22-3.09c0.75-0.53,1.88-0.53,2.83-0.76
			c0.19,0.89,0.69,1.85,0.5,2.65c-0.42,1.8-1.11,3.56-1.84,5.27C758.51,332.1,757.4,334.35,756.35,336.62z M711.58,355.46
			c0.21,0.18,0.43,0.36,0.64,0.53c0.64-0.56,1.57-1,1.87-1.7c1.57-3.69,3.37-7.35,4.33-11.21c0.66-2.66,0.19-5.64,0.01-8.46
			c-0.03-0.55-1.01-1.03-1.55-1.55c-0.31,0.71-0.99,1.48-0.89,2.13c0.95,6.4-0.27,12.33-3.47,17.91
			C712.1,353.84,711.89,354.67,711.58,355.46z M737.4,436.59c-0.21-0.11-0.42-0.22-0.63-0.33c-0.54,0.95-1.46,1.87-1.55,2.86
			c-0.44,4.82-0.7,9.66-0.89,14.5c-0.02,0.39,1.29,1.26,1.4,1.18c2.18-1.74,4.2-3.64,5.08-6.35c-0.15-0.15-0.29-0.31-0.44-0.46
			c-1.18,0.96-2.36,1.92-4.1,3.32C736.69,445.98,737.05,441.29,737.4,436.59z M656.99,408.24c2.22-0.78,3.18-1.92,2.74-4.01
			c-0.17-0.79-0.12-1.63-0.21-2.45c-0.3-2.89-0.55-5.79-0.98-8.66c-0.09-0.59-0.9-1.07-1.37-1.61c-0.43,0.72-1.18,1.41-1.22,2.15
			c-0.08,1.55,0.22,3.12,0.34,4.68C656.52,401.6,656.75,404.84,656.99,408.24z M881.51,263.28c-0.69,1.17-1.51,1.92-1.38,2.43
			c1.07,4.16,3.37,7.62,6.49,10.52c0.3,0.28,1.41,0.24,1.64-0.06c0.35-0.45,0.59-1.57,0.32-1.84c-2.2-2.16-3.36-4.84-4.4-7.67
			C883.79,265.59,882.71,264.76,881.51,263.28z M744.45,391.88c-0.11-2.28-0.19-4.59-0.35-6.9c-0.07-1.08-0.29-2.16-0.44-3.24
			c-0.62,1.06-1.54,2.05-1.8,3.19c-0.83,3.54-0.42,7.01,1.28,10.56c2.48-1.47,4.79-2.85,7.48-4.45
			C748.05,389.58,746.78,391.85,744.45,391.88z M711.41,339.6c-0.24-1.72-0.39-3.55-0.78-5.32c-0.12-0.54-0.88-0.94-1.35-1.4
			c-0.35,0.49-1.01,0.97-1.01,1.46c-0.03,2.37,0.05,4.76,0.24,7.12c0.09,1.11,0.51,2.2,0.79,3.33c3.43-0.84,3.92-3.54,4.98-5.82
			c-0.15-0.19-0.29-0.38-0.44-0.56C713.08,338.78,712.32,339.15,711.41,339.6z M816.94,315.59c0.09-0.28,0.18-0.56,0.27-0.83
			c-0.69-0.37-1.43-1.13-2.06-1.05c-3.67,0.51-7.32,1.19-10.95,1.9c-0.32,0.06-0.52,0.71-0.78,1.08c0.42,0.24,0.84,0.69,1.26,0.69
			c0.88,0.01,1.76-0.2,2.65-0.34C810.54,316.56,813.74,316.07,816.94,315.59z M872.29,447.58c1.06-0.38,3.03-0.06,2.25-2.03
			c-0.85-2.14-2.22-4.1-3.57-6.01c-0.33-0.47-1.42-0.41-2.16-0.59c0.02,0.75-0.18,1.6,0.11,2.22
			C869.9,443.26,871.05,445.26,872.29,447.58z M875.08,333.38c-1.57,0.11-1.89,1.06-1.12,2.29c1.11,1.75,2.12,3.57,3.37,5.21
			c0.46,0.61,1.48,0.79,2.24,1.17c0.14-0.79,0.64-1.77,0.34-2.34c-0.94-1.83-2.11-3.56-3.32-5.24
			C876.2,333.91,875.44,333.63,875.08,333.38z M805.09,323.52c1.91,1.73,8.01,2.71,9.54,1.78c0.31-0.19,0.72-0.86,0.63-0.98
			c-0.32-0.43-0.81-0.98-1.27-1.02c-2.23-0.23-4.47-0.34-6.71-0.4C806.68,322.88,806.07,323.23,805.09,323.52z M792.41,404.75
			c-0.41,0.71-0.61,0.9-0.61,1.08c0.02,1.53,3.89,5.95,5.41,6.11c0.46,0.05,1.12-0.13,1.37-0.45c0.23-0.29,0.21-1.14-0.04-1.37
			C796.6,408.33,794.58,406.63,792.41,404.75z M728.7,267.64c0.32,0.21,0.64,0.43,0.97,0.64c0.82-0.77,2.04-1.4,2.38-2.35
			c1.39-3.86,1.33-5.89-0.11-7.22C730.82,261.79,729.76,264.71,728.7,267.64z M762.82,386.02c-1.44-1.52-2.68-2.93-4.06-4.19
			c-0.21-0.19-1.21,0.12-1.5,0.48c-0.23,0.29-0.11,1.1,0.13,1.51c0.7,1.14,1.5,2.23,2.36,3.25c0.32,0.39,1.09,0.87,1.35,0.74
			C761.69,387.5,762.09,386.83,762.82,386.02z M759.51,309.81c1.28-2.1,1.27-2.25,0.07-3.59c-0.55-0.61-1-1.37-1.67-1.79
			c-0.6-0.38-1.44-0.38-2.17-0.54c-0.04,0.79-0.43,1.86-0.07,2.31C756.75,307.5,758.13,308.55,759.51,309.81z M762.44,352.64
			c0.51,1.28,0.75,2.34,1.32,3.16c0.38,0.55,1.24,0.76,1.89,1.13c0.3-0.8,0.9-1.62,0.83-2.38c-0.07-0.81-0.71-1.61-1.21-2.34
			c-0.37-0.55-0.91-0.98-1.37-1.47C763.4,351.38,762.91,352.03,762.44,352.64z M760.85,410.27c-0.59-1.56-0.9-2.72-1.46-3.74
			c-0.25-0.46-1.24-1.02-1.49-0.87c-0.5,0.31-1.06,1.11-1,1.64c0.12,1.07,0.56,2.13,1.03,3.11c0.3,0.63,0.88,1.12,1.33,1.68
			C759.82,411.44,760.39,410.79,760.85,410.27z M736.37,258.94c-0.5-0.04-1-0.08-1.5-0.12c-0.26,1.43-0.61,2.86-0.72,4.3
			c-0.03,0.4,0.72,1.23,1.03,1.19c0.55-0.07,1.46-0.63,1.48-1.01C736.72,261.85,736.49,260.39,736.37,258.94z M773.02,263.6
			c-1.01-1.06-1.77-1.86-2.52-2.66c-0.36,0.46-1.13,1.1-1.02,1.36c0.43,1.02,1.14,1.92,1.75,2.86
			C771.71,264.74,772.19,264.32,773.02,263.6z M776.17,257.17c-2.03,1.36-1.88,2.91-1.7,4.86
			C776.62,260.83,776.87,259.4,776.17,257.17z M673.86,332.7c0.32-0.07,0.64-0.13,0.95-0.2c0-0.77,0.26-1.7-0.08-2.28
			c-0.28-0.48-1.27-0.54-1.94-0.79c-0.16,0.18-0.32,0.36-0.49,0.55C672.82,330.89,673.34,331.79,673.86,332.7z"/>
		<path d="M908,166.31c-7.54-0.13-15.08-0.46-22.62-0.34c-7.16,0.11-14.31,0.74-21.47,1.06c-2.99,0.13-5.99,0.01-8.98,0.04
			c-0.55,0.01-1.1,0.21-1.65,0.33c0.15,0.54,0.23,1.11,0.45,1.62c1.63,3.83,5.16,5.72,8.32,7.93c3.89,2.72,6.4,6.1,6.57,11.03
			c0.21,6.4,0.9,12.8,0.74,19.18c-0.15,6.01-1.62,11.92-4.77,17.13c-1.35,2.24-3.43,4.14-5.49,5.83
			c-5.18,4.26-10.29,8.7-16.52,11.42c-2.16,0.94-4.52,1.5-6.83,2.03c-1.47,0.34-2.4,0.92-2.82,2.44c-2.26,8.19-2.17,6.54-9.76,7.98
			c-1.03,0.19-2.07,0.33-3.09,0.51c-4.53,0.8-7.16-0.87-7.73-5.39c-0.32-2.49-1.24-3.58-3.78-3.23c-0.73,0.1-1.49-0.13-2.24-0.14
			c-7.62-0.09-9.87-4.62-11.12-10.15c-2.11-9.38-1.33-18.87-0.28-28.35c0.68-6.21,0.68-12.49,1.28-18.71
			c0.76-7.99,1.68-16,7.93-22.34c-29.32-0.39-58.46,1.48-87.63,2.73c-0.07,0.25-0.15,0.51-0.22,0.76c1.24,1.64,2.27,3.5,3.76,4.88
			c8.55,7.92,11.8,18.34,13.67,29.29c0.77,4.52,0.84,9.22,0.67,13.82c-0.21,5.63-2.26,10.46-7.03,14.11
			c-2.86,2.19-5.38,5.01-7.48,7.96c-2.78,3.89-6.55,5.17-10.93,5.52c-1.04,0.08-2.09,0.21-3.14,0.19c-1.89-0.04-3.41,0.35-3.49,3.08
			c-0.73-0.6-1.2-0.91-1.55-1.3c-1.43-1.59-2.84-1.37-3.5,0.73c-0.58,1.84-0.92,3.75-1.35,5.64c-0.08,0.36-0.13,0.74-0.18,1.11
			c-0.45,3.83-1.79,6.71-6.36,6.88c-3.32,0.13-6.62,0.81-9.95,0.99c-1.78,0.09-2.67-1-2.87-2.97c-0.41-4.05-1.14-8.07-1.73-12.02
			c-2.68-0.6-5.62-1.13-8.47-1.93c-4.66-1.31-7.89-5.43-7.97-10.26c-0.08-5.3,0.17-10.61,0.09-15.92c-0.08-4.93-0.5-9.85-0.62-14.77
			c-0.11-4.64,0-9.28-0.04-13.92c-0.02-2.55-0.27-5.1-0.17-7.64c0.12-3.1,0.5-6.19,0.79-9.57c-5.05,0.29-10.18,0.51-15.28,0.91
			c-6.03,0.47-12.04,1.17-18.06,1.65c-9.31,0.75-18.63,1.63-27.96,2.06c-11.21,0.51-22.43,0.66-33.65,0.78
			c-2.15,0.02-3.18,0.65-4,2.61c-3.23,7.63-6.96,15.07-9.86,22.82c-1.78,4.77-2.8,9.93-3.44,15c-0.94,7.48-1.3,15.03-1.77,22.56
			c-0.46,7.39-0.4,14.82-1.19,22.16c-0.59,5.49-1.3,11.51-7.01,14.44c-3.6,1.85-7.67,2.84-11.6,4c-2.77,0.82-5.65,1.29-8.74,1.97
			c0.57,2.43,1.03,4.76,1.67,7.03c0.69,2.44,0.11,4.31-2.24,5.33c-2.11,0.92-4.27,1.79-6.49,2.33c-2.33,0.57-3.36-0.22-3.67-2.66
			c-0.4-3.16-0.81-6.37-0.74-9.54c0.05-2.24-1.13-2.69-2.75-2.94c-5.25-0.81-9.73-3.26-13.89-6.41c-4.21-3.18-6.69-7.48-7.39-12.64
			c-1.33-9.78-2.44-19.58-3.65-29.38c-1.14-9.17-2.33-18.34-3.45-27.52c-1.09-8.9,0.69-17.24,5.04-25.06
			c0.33-0.59,0.39-1.33,0.7-2.5c-6.61,0-12.79-0.01-18.97,0.01c-1.38,0-1.94-0.57-1.5-2.07c3.49,0,7.05,0.01,10.6,0
			c4.41-0.01,8.85,0.25,13.23-0.13c4.52-0.39,8.99-1.34,13.46-2.15c3.08-0.56,6.19-1.13,9.18-2.04c1.61-0.49,3.35-1.4,4.44-2.64
			c3.29-3.75,7.45-4.39,11.99-3.91c2.27,0.24,3.85,2.2,4.02,5.46c0.11,2.11,1.07,2.53,2.77,2.51c5.2-0.06,10.41-0.2,15.61-0.16
			c4.71,0.03,9.43,0.2,14.14,0.45c1.15,0.06,1.78-0.02,2.25-1.17c0.22-0.55,1.05-0.85,1.6-1.26c0.32,0.51,0.57,1.09,0.98,1.5
			c0.5,0.49,1.14,1.16,1.72,1.17c5.61,0.07,11.23,0.22,16.83-0.04c8.82-0.41,17.63-1.08,26.44-1.7c7.53-0.54,15.06-1.18,22.59-1.75
			c10.57-0.8,21.15-1.54,31.71-2.43c1.08-0.09,2.27-0.86,3.08-1.65c1.7-1.66,3.08-3.65,4.78-5.31c3.58-3.48,8.35-3.2,12.83-3.75
			c1.85-0.22,3.74-0.15,5.58-0.43c4.27-0.64,6.48,1.9,7.74,5.29c0.96,2.6,2.43,3.05,4.91,2.83c9.76-0.85,19.52-1.68,29.3-2.21
			c7.84-0.42,15.7-0.3,23.55-0.6c11.95-0.47,23.89-1.21,35.85-1.61c5.45-0.18,10.92,0.12,16.37,0.39c2.27,0.11,3.27-0.47,4.19-2.79
			c2.68-6.79,5.87-13.37,8.86-20.03c0.75-1.68,2.1-2.33,3.89-2.57c7.82-1.07,15.62-1.26,23.41,0.2c1.87,0.35,3.02,1.15,3,3.37
			c-0.04,5.83,0.15,11.67,0.17,17.5c0.01,3.72,1.75,5.56,5.48,5.47c7.4-0.18,14.79-0.38,22.19-0.62c5.06-0.17,10.12-0.63,15.18-0.59
			c3.79,0.03,7.57,0.63,11.35,0.99c1.4,0.13,2.8,0.28,4.2,0.42C908,165.11,908,165.71,908,166.31z M526.17,280.26
			c1.16-0.3,2.37-0.48,3.46-0.93c3.29-1.35,7.08-2.27,8.67-5.85c1.19-2.69,2.02-5.67,2.33-8.59c0.48-4.45,0.25-8.97,0.53-13.45
			c0.54-8.66,1.05-17.33,1.92-25.96c0.59-5.86,1.17-11.84,2.8-17.46c1.81-6.25,4.82-12.16,7.3-18.21c1.43-3.48,2.84-6.96,4.26-10.43
			c-5.5,0-10.72-0.11-15.94,0.03c-5.75,0.16-11.48,0.66-17.23,0.81c-5.45,0.14-10.9-0.09-16.35,0.05c-6.8,0.17-13.6,0.8-20.4,0.76
			c-4.06-0.03-6.15,2.11-7.87,5.18c-0.32,0.58-0.46,1.27-0.77,1.85c-3.66,6.78-4.42,14.04-3.45,21.54
			c0.95,7.4,2.18,14.77,3.07,22.18c1.17,9.79,1.92,19.62,3.24,29.39c0.75,5.54,1.97,11.16,6.92,14.82c4.81,3.56,9.72,6.96,16.2,6.33
			c0.44-0.04,0.91,0.41,1.39,0.48c2.1,0.28,4.22,0.72,6.31,0.6c0.48-0.03,0.79-2.03,1.31-3.06c0.35-0.69,0.92-1.26,1.39-1.89
			c0.22,0.12,0.43,0.24,0.65,0.37c0.06,1.29,0.12,2.58,0.19,4.07c3.51-0.93,6.81-1.8,10.12-2.68L526.17,280.26z M811.38,244.53
			c0-1.46,0.02-2.34,0-3.22c-0.19-7.69-0.61-15.38-0.5-23.07c0.12-8.37,0.62-16.73,1.17-25.08c0.48-7.31,1.26-14.59,1.96-21.88
			c0.05-0.55,0.52-1.06,0.8-1.59c0.48,0.57,1.33,1.11,1.37,1.7c0.15,2.76,0.29,5.55,0.05,8.3c-0.79,9-2.24,17.98-2.5,26.99
			c-0.33,11.72,0.27,23.46,0.4,35.2c0.02,1.65,0.65,2.25,2.24,2.31c7.45,0.28,14.77-0.84,21.83-2.97
			c7.96-2.41,14.04-8.03,20.29-13.23c4.9-4.08,6.79-9.81,7.94-15.71c1.67-8.6,1.06-17.32,0.1-25.95c-0.35-3.11-2.4-5.72-5.24-7.46
			c-4.4-2.69-8.33-5.83-10.26-10.87c-0.15-0.38-0.45-0.71-0.79-1.24c-0.89,1.05-1.66,1.97-2.96,3.51c-0.35-5.36-4.01-3.67-6.45-3.76
			c-9.42-0.33-18.86-0.11-28.28-0.53c-4.62-0.21-7.6,1.86-9.27,5.58c-1.72,3.82-3.39,7.94-3.77,12.04
			c-1.28,13.93-2.25,27.9-2.73,41.87c-0.15,4.4,1.35,8.96,2.65,13.27c0.51,1.7,2.3,3.53,3.96,4.25
			C805.67,244.01,808.42,244.03,811.38,244.53z M697.63,170.55c0.8,3.79,2.07,7.1,2.11,10.42c0.1,10.24-0.02,20.5-0.53,30.73
			c-0.44,8.87-0.48,17.65,1.57,26.34c1.24,5.27,1.26,5.27,6.53,5.26c0.67,0,1.34-0.1,2.02-0.1c3.46-0.01,6.24-1.3,8.21-4.21
			c2.74-4.07,6.29-7.37,10.02-10.5c2.4-2.02,3.72-4.72,4.26-7.72c2.24-12.42-0.17-24.25-5.95-35.16
			c-2.97-5.59-7.65-10.28-11.65-15.3c-0.43-0.54-1.46-0.93-2.18-0.89C707.12,169.73,702.21,170.17,697.63,170.55z M697.84,241.39
			c-0.72-7.97-1.89-15.54-1.95-23.12c-0.06-8.21,1.15-16.42,1.36-24.65c0.16-6.11-0.25-12.25-0.7-18.35
			c-0.17-2.27-1.71-4.44-4.9-4.04c-3.19,0.4-6.41,0.51-9.62,0.75c-1.69,0.12-3.37,0.25-5.21,0.39c0.44,2.63,1.11,5.03,1.19,7.44
			c0.2,5.98,0.09,11.97,0.18,17.96c0.19,11.74,0.33,23.49,0.71,35.23c0.13,3.99,0.92,7.95,1.38,11.63c4.82,0,9.22,0.06,13.61-0.05
			c0.76-0.02,1.61-0.62,2.23-1.17C696.93,242.68,697.55,241.74,697.84,241.39z M661.23,222.96c-0.19,0.01-0.38,0.03-0.56,0.04
			c0,3.97-0.15,7.94,0.04,11.89c0.19,4.1,1.94,7.56,6.01,8.92c2.84,0.95,5.95,1.14,8.95,1.59c2.07,0.31,2.5-0.65,2.16-2.62
			c-0.76-4.42-1.77-8.86-1.85-13.31c-0.24-13.24,0.04-26.49-0.15-39.73c-0.07-5.12-0.85-10.24-1.33-15.35
			c-0.13-1.37-0.87-1.88-2.3-1.71c-2.15,0.26-4.33,0.26-6.49,0.49c-5.52,0.58-5.89,0.9-6.08,6.59c-0.12,3.66,0.14,7.33,0.19,11
			c0.05,4.56-0.1,9.14,0.11,13.69C660.22,210.64,660.79,216.8,661.23,222.96z M811.93,163.45c1.51-0.1,2.4-0.22,3.29-0.2
			c9.64,0.23,19.28,0.4,28.92,0.8c2.2,0.09,2.76-0.63,2.74-2.57c-0.08-6.13-0.1-12.27-0.13-18.4c-0.02-3.11-0.33-3.65-3.36-3.72
			c-5.67-0.13-11.34,0-17.01-0.06c-2.77-0.03-4.73,1.16-5.98,3.54c-1.24,2.37-2.47,4.76-3.55,7.22c-1.32,3-2.51,6.07-3.68,9.14
			C812.68,160.46,812.4,161.82,811.93,163.45z M695.11,246.29c-4.99,0.24-9.55,0.46-14.53,0.7c0.61,1.37,1.21,2.15,1.26,2.96
			c0.05,0.83-0.44,1.7-0.7,2.55c-0.67-0.57-1.54-1.02-1.95-1.74c-0.42-0.74-0.36-1.74-0.6-2.61c-0.11-0.39-0.45-0.71-1.01-1.56
			c-0.62,5.02,0.22,9.22,1.44,13.36c0.13,0.44,1.22,0.92,1.8,0.85c3.39-0.44,6.78-1,10.14-1.62c0.5-0.09,1.19-0.64,1.3-1.09
			C693.25,254.28,694.12,250.47,695.11,246.29z M694.84,167.59c-0.84-1.55-1.56-2.75-2.16-4c-0.88-1.84-2.2-2.65-4.3-2.42
			c-4.31,0.48-8.69,0.49-12.92,1.31c-3.98,0.77-6.44,3.82-8.75,7.56c5.02-0.38,9.49-0.67,13.96-1.06
			C685.2,168.59,689.72,168.1,694.84,167.59z M507.59,297.21c1.27-0.24,2.08-0.32,2.86-0.55c4.95-1.43,5.57-2.57,4.18-7.5
			c-0.26-0.93-0.46-1.89-0.82-2.79c-0.2-0.5-0.65-1.25-1.02-1.28c-2.04-0.13-4.1-0.06-6.43-0.06
			C506.79,289.23,507.18,293.07,507.59,297.21z M831.16,244.65c-4.87,0.52-9.69,1.03-14.72,1.56c0.08,1.54,0.16,3.16,0.24,4.78
			c0.07,1.42,0.73,2.01,2.2,1.66c2.32-0.54,4.66-1,6.99-1.52C830.14,250.18,830.68,249.53,831.16,244.65z M510.34,173.9
			c0.15,0.19,0.29,0.38,0.44,0.58c3.46,0.27,6.92,0.58,10.39,0.79c0.58,0.04,1.46-0.13,1.73-0.53c1.01-1.5-0.67-5.19-2.52-5.17
			c-2.41,0.02-4.91,0.33-7.17,1.11C512.02,171.1,511.28,172.79,510.34,173.9z"/>
		<path d="M654.64,540.95c-2.47,0.96-4.83,1.82-7.15,2.79c-7.34,3.06-14.98,5.08-22.77,6.56c-1.72,0.33-2.72,1.29-3.58,2.7
			c-3.75,6.14-9.16,10.41-15.68,13.2c-1.63,0.7-3.67,0.72-5.5,0.64c-2.69-0.12-3.65-2.47-4.42-4.5c-0.87-2.27-1.2-4.75-1.78-7.14
			c-0.41-1.69-0.96-2.81-3.2-2.91c-7.46-0.33-14.92-0.75-22.33-1.59c-8.47-0.96-16.81-2.74-24.73-6.03
			c-3.42-1.42-6.73-3.1-10.08-4.68c-3.55-1.68-5.06-5.16-7.11-8.15c-3.34-4.87-6.65-9.76-9.96-14.65
			c-4.57-6.76-6.61-14.38-7.16-22.37c-0.65-9.42-0.54-18.89,1.52-28.13c0.76-3.43,0.19-6.61,0.11-9.9c-0.02-0.65-0.28-1.3-0.48-1.94
			c-1.1-3.54-2.44-7.02-3.29-10.61c-2.25-9.49-1.46-19.24-2.21-28.86c-0.22-2.89,0.67-3.44,3.3-2.45c12.9,4.85,25.37,10.59,37,18.04
			c1.06,0.68,2.25,1.18,3.45,1.57c0.55,0.18,1.33,0.1,1.87-0.16c8.69-4.24,17.83-6.77,27.5-7.42c7.83-0.53,15.63-1.33,23.46-1.77
			c5.8-0.32,11.61-0.3,17.42-0.34c10.91-0.08,21.85,1.3,32.72-0.69c1.02-0.19,2.11-0.3,3.13-0.18c6.08,0.73,9.7-3.32,13.62-6.85
			c5.17-4.64,10.21-9.43,15.58-13.83c4.53-3.71,9.42-6.99,14.21-10.37c3.66-2.58,7.45-4.97,11.14-7.51c2.36-1.62,3.39-1.4,4.07,1.4
			c1,4.13,1.74,8.33,2.63,12.49c1.03,4.79,2.19,9.56,3.15,14.37c1.01,5.11,1.86,10.25,2.73,15.39c0.11,0.62,0.13,1.62-0.23,1.9
			c-1.91,1.49-1.21,3.47-1.29,5.34c-0.27,7.1-0.57,14.2-0.9,21.3c-0.03,0.54-0.26,1.24-0.65,1.58c-2.54,2.2-3.13,5.34-4.25,8.26
			c-1.14,2.98-2.33,5.99-3.95,8.72c-2.32,3.87-4.09,7.83-5.27,12.25c-1.42,5.33-3.98,10.27-7.14,14.89
			c-3.58,5.23-6.89,10.64-10.3,15.98c-0.18,0.28-0.2,0.67-0.4,1.36c2.05-0.22,3.85-0.56,5.66-0.58c11.22-0.11,22.43-0.09,33.65-0.24
			c9.86-0.13,19.73-0.68,29.59-0.61c11.59,0.08,23.18,0.55,34.77,0.96c8.26,0.29,16.43,0.03,24.51-2.03
			c4.84-1.23,9.79-2.05,14.69-3.07c6.48-1.35,12.41-4.01,18.39-6.84c8.44-3.99,14.13-10.85,20.36-17.26c5.69-5.86,9.51-7,18.12-3.95
			c4.37,1.55,6.84,4.39,7.74,8.73c0.98,4.75,1.84,9.52,2.68,14.3c0.82,4.72-1.46,7.88-5.36,10.1c-4.91,2.8-9.93,5.41-14.74,8.38
			c-3.54,2.19-6.85,4.74-10.17,7.26c-2.99,2.26-3.81,5.82-4.26,9.14c-1.18,8.58-1.66,17.27-2.88,25.84
			c-1.04,7.3-2.5,14.56-4.24,21.72c-0.92,3.78-2.68,7.4-4.35,10.95c-1.18,2.5-3.39,4.01-6.05,4.99c-2.85,1.05-5.51,2.64-8.38,3.64
			c-3.07,1.07-6.24,2.01-9.44,2.4c-1.16,0.14-2.87-1.25-3.75-2.38c-3.74-4.84-5.75-10.42-6.25-16.52c-0.05-0.59-0.14-1.18-0.23-1.89
			c-0.32,0.03-0.7-0.05-0.85,0.1c-4.15,4.1-9.53,5.33-14.95,6.62c-6.68,1.58-13.42,2.14-20.24,1.87c-4.66-0.18-8.84-1.54-11.82-5.42
			c-1.43-1.86-1.43-3.91-0.5-5.94c1.93-4.2,5.08-6.3,9.89-6.21c3.95,0.07,8.1,0.21,11.81-0.87c4.52-1.32,8.8-3.65,12.93-5.99
			c3.09-1.75,5.84-4.15,8.64-6.38c1.92-1.53,1.71-2.04-0.17-3.52c-3.96-3.1-8.67-3.54-13.35-3.82c-7.15-0.42-14.35-0.89-21.49-0.59
			c-12.17,0.53-23.14,4.88-33.05,11.91c-4.84,3.43-5.67,8.48-5.54,13.88c0.07,2.69,0.51,5.38,0.47,8.07
			c-0.11,7.45-0.44,14.91-6.3,20.59c-5.83,5.64-12.69,7.46-20.66,5.7c-5.74-1.26-11.41-2.46-15.83-6.79
			c-1.03-1.01-1.7-1.24-1.84,0.85c-0.06,0.85-2.07,1.63-3.27,2.3c-0.34,0.19-1.09-0.3-1.41-0.1c-3.96,2.51-8.51,2.24-12.83,2.53
			c-10.82,0.74-21.66,1.02-32.49,1.54c-4.41,0.21-8.8,0.58-13.2,0.86c-1.34,0.09-2.7,0.2-4.04,0.14c-3.37-0.13-5.57-1.88-6.57-5.08
			c-1.66-5.31,1.31-11.03,6.5-13.13c8.19-3.32,16.82-4.77,25.42-6.31c11.76-2.11,21.7-6.99,28.24-17.49
			c1.78-2.85,3.7-5.62,5.51-8.45c1.14-1.78,1.06-3.96-0.64-5.23c-2.66-1.98-5.49-3.78-8.42-5.35c-3.35-1.81-7.1-2.93-10.25-5.01
			c-3.71-2.46-7.18-5.4-10.3-8.58c-1.22-1.24-1.22-3.68-1.77-5.57C654.94,542.3,654.83,541.73,654.64,540.95z M689.25,568.42
			c0.73,0,1.33,0,1.94,0c-0.1,0.63-0.15,1.27-0.3,1.89c-0.21,0.91-0.71,1.82-0.69,2.72c0.09,4.53,0.37,9.06,0.48,13.59
			c0.1,4.19-0.34,8.44,0.22,12.55c0.57,4.18,2.03,7.92,5.07,11.52c3.23,3.83,6.65,6.54,11.2,7.8c3.64,1.01,7.47,1.43,11.24,1.87
			c4.97,0.58,12.79-3.88,15.31-8.24c2.99-5.17,3.14-10.82,3.1-16.5c-0.02-2.99-0.54-5.98-0.51-8.96c0.05-4.92,1.12-9.73,5.16-12.9
			c8.35-6.57,17.86-10.91,28.3-12.91c11.91-2.29,23.85-1.28,35.75,0.28c3.59,0.47,6.97,1.62,9.71,4.24
			c0.38,0.36,1.49-0.03,2.26-0.12c0.61-0.07,1.2-0.21,1.81-0.32c-0.1,0.67,0.04,1.61-0.34,1.95c-1.37,1.2-1.14,2.53-0.93,4.09
			c0.49,3.78,0.77,7.58,1.1,11.38c0.2,2.27-0.97,4.99,1.64,5.85c-0.5,1.3-1.34,2.4-1.22,3.37c0.64,4.97,1.67,9.91,4.22,14.29
			c0.93,1.6,2.48,3.41,4.1,3.89c1.64,0.48,3.8-0.37,5.6-1.02c3.72-1.35,7.46-2.73,10.97-4.54c1.96-1.01,3.8-2.65,5.13-4.43
			c4.24-5.69,5.26-12.64,6.65-19.33c1.13-5.47,1.38-11.11,2.09-16.67c0.93-7.27,1.73-14.56,2.97-21.78
			c0.49-2.86,1.41-6.05,3.21-8.18c2.74-3.24,6.18-6.06,9.75-8.4c5.54-3.64,11.47-6.66,17.16-10.07c2.91-1.74,5.35-3.92,4.78-7.88
			c-0.38-2.59-0.5-5.23-1.07-7.77c-1.21-5.38-2.18-10.64-8.83-12.76c-6.47-2.07-10.85-1.18-15.68,3.83
			c-5.05,5.24-10.62,10-16.11,14.8c-1.35,1.19-3.32,1.65-4.93,2.57c-7.16,4.03-14.74,6.82-22.9,8.02c-2.51,0.37-5,0.94-7.45,1.62
			c-9.61,2.66-19.4,3.29-29.32,2.84c-9.48-0.43-18.97-0.95-28.46-1c-12.88-0.07-25.75,0.32-38.63,0.41
			c-9.93,0.07-19.87-0.13-29.81,0.02c-4.37,0.07-8.62,0.96-11.41,4.95c-0.16,0.23-0.46,0.37-0.71,0.54
			c-7.57,5.05-14.89,10.51-23.35,14.11c-0.7,0.3-1.73,1.54-1.57,1.9c0.96,2.22,1.81,4.73,3.46,6.36
			c5.69,5.61,12.36,9.72,19.95,12.43C683.52,561.77,687.42,563.95,689.25,568.42z M715.03,458.88c-6.74,0.5-13.57,1.12-20.4,1.47
			c-6.93,0.35-13.88,0.38-20.82,0.65c-4.85,0.18-9.68,0.53-14.53,0.8c-7.9,0.43-15.81,1.06-23.72,1.21
			c-8.67,0.16-17.35-0.43-26.01-0.14c-12.34,0.42-24.56,2.19-36.75,4.15c-4.71,0.76-9.52,1.39-14.27,1.35
			c-8.59-0.08-17.19-0.58-25.74,0.6c-6.08,0.84-12.04,0.66-17.95-1.12c-0.47-0.14-1.47,0.46-1.76,0.97
			c-0.42,0.74-0.51,1.71-0.56,2.59c-0.32,5.37-0.67,10.74-0.84,16.12c-0.29,9.11,1.08,17.96,5.79,25.88
			c3.43,5.76,7.5,11.15,11.33,16.67c1.56,2.24,2.92,4.75,4.92,6.53c6.43,5.74,14.74,7.46,22.71,9.57c7.86,2.08,15.9,3.49,24.11,3.59
			c3.94,0.05,7.87,0.35,11.88,0.54c0.05-0.53,0.17-0.85,0.09-1.1c-1.36-4.49-0.95-9.03-0.24-13.54c0.44-2.8,1.45-5.22,4.6-6.26
			c3.68-1.21,7.16-3.06,10.88-4.08c4.88-1.33,9.89-2.17,14.87-3.08c1.65-0.3,2.72,0.58,2.72,2.41c0.02,8.03,0.7,16.11-1.82,23.9
			c0.13,0.09,0.2,0.19,0.24,0.17c2.09-0.49,4.16-1.09,6.27-1.47c11-1.99,21.19-6.28,31.03-11.32c5.76-2.95,11.17-6.61,16.54-10.26
			c2.42-1.65,4.71-3.77,6.41-6.14c3.82-5.33,7.29-10.91,10.79-16.46c2.95-4.67,6.13-9.21,7.59-14.68c0.82-3.09,1.76-6.2,3.09-9.1
			c1.36-2.97,3.51-5.57,4.87-8.53C712.17,466.81,713.57,462.65,715.03,458.88z M717.41,430.3c-10.82,0.67-21.23,1.43-31.65,1.93
			c-5.14,0.24-10.3-0.11-15.45,0.02c-2.83,0.07-5.64,0.65-8.46,0.86c-5.96,0.44-11.99,0.38-17.88,1.27
			c-11.35,1.71-22.63,3.86-33.91,6c-4.98,0.94-9.86,2.4-14.82,3.44c-5.25,1.1-10.51,2.36-15.83,2.89c-9.08,0.91-18.2,1.29-27.31,1.9
			c-7.38,0.49-14.77,0.95-22.15,1.49c-5.07,0.37-10.13,0.86-15.2,1.29c-1.73,0.15-2.46,0.99-2.21,2.8c0.39,2.74,0.56,5.5,0.94,8.24
			c0.22,1.59,1.07,2.86,2.8,3.1c4.06,0.55,8.15,1.49,12.2,1.4c8.28-0.2,16.54-1.04,24.82-1.48c5.97-0.32,11.99-0.13,17.93-0.72
			c8.31-0.81,16.57-2.23,24.87-3.22c13.37-1.59,26.75-2.05,40.24-1.41c8.55,0.4,17.16-0.72,25.74-0.97
			c8.67-0.25,17.34-0.19,26.01-0.4c8.66-0.2,17.37,0.19,25.89-2c1.17-0.3,2.23-0.26,2.32-2.02c0.26-5.23,0.8-10.44,1.09-15.66
			C717.55,436.03,717.41,433,717.41,430.3z M710.95,385.37c-0.54,0.22-0.83,0.29-1.06,0.45c-10.95,7.39-22.13,14.45-31.59,23.84
			c-4.01,3.98-8.7,7.3-12.62,11.36c-2.58,2.66-5.54,3.24-8.82,3.56c-0.96,0.1-1.93,0.11-2.9,0.18c-5.51,0.41-11.02,1.11-16.54,1.17
			c-11.05,0.12-22.11-0.43-33.14-0.09c-9.93,0.3-19.84,1.38-29.74,2.21c-7.51,0.63-14.8,2.43-21.39,6.04
			c-3.74,2.05-6.53,1.52-9.84-0.67c-8.56-5.67-17.73-10.21-27.23-14.09c-2.98-1.22-6.04-2.24-9.41-3.49
			c0.96,12.16,0.3,24,3.27,34.93c4.01-0.84,7.6-1.99,11.25-2.28c10.18-0.83,20.4-1.25,30.6-1.94c5.96-0.4,11.91-1.21,17.87-1.49
			c9.45-0.44,18.72-2.05,27.95-3.89c8.34-1.66,16.57-3.85,24.9-5.53c6.42-1.3,12.91-2.34,19.41-3.21c5.7-0.76,11.44-1.17,17.17-1.67
			c5.5-0.47,11.01-1.21,16.51-1.2c13.16,0.01,26.31,0.14,39.4-1.63c2.42-0.33,4.07-1.97,3.76-4.33c-0.41-3.11-0.98-6.2-1.59-9.28
			c-1.57-7.83-3.18-15.66-4.81-23.48C711.95,389.05,711.44,387.28,710.95,385.37z M688.07,574.88c-2.45,3.54-4.26,6.78-6.68,9.47
			c-3.17,3.53-6.41,7.29-10.37,9.75c-6.42,4-13.83,5.72-21.3,7.16c-6.95,1.34-13.81,3.19-20.61,5.18c-1.94,0.57-3.86,2.1-5.16,3.7
			c-2.03,2.49-2.16,5.59-0.53,8.41c1.4,2.42,3.83,2.77,6.46,2.53c5.51-0.5,11.02-1.08,16.55-1.3c8.22-0.33,16.46-0.19,24.67-0.6
			c5.88-0.29,11.75-0.98,17.59-1.78c3.61-0.5,5.28-4.78,3.47-7.92c-2.38-4.16-3.49-8.66-3.55-13.47
			C688.54,589.17,688.27,582.33,688.07,574.88z M815.47,570.5c-3.99,2.87-7.69,5.73-11.6,8.27c-2.86,1.86-5.82,4.02-9.03,4.76
			c-4.87,1.13-9.99,1.39-15.02,1.55c-3.98,0.12-6.96,1.47-8.84,4.95c-0.87,1.61-0.92,3.17,0.57,4.67c2.21,2.22,4.97,3.08,7.9,3.28
			c9.1,0.63,18.03-0.42,26.83-2.87c3.85-1.07,7.03-3.21,9.95-5.8c0.52-0.47,0.97-1.38,0.93-2.06c-0.35-5.29-0.82-10.57-1.28-15.85
			C815.82,571,815.52,570.63,815.47,570.5z M605.46,550.73c-0.35-2.47-0.66-4.67-0.97-6.86c-0.28-1.99-0.67-3.98-0.8-5.98
			c-0.04-0.67,0.59-1.38,0.91-2.08c0.53,0.46,1.11,0.88,1.55,1.41c0.26,0.32,0.34,0.83,0.42,1.26c0.64,3.38,1.33,6.75,1.85,10.14
			c0.18,1.2,0.42,2.05,1.82,1.97c2.31-0.13,4.62-0.29,6.94-0.38c1.93-0.08,3.11-1.11,3.48-2.9c0.65-3.19,1.32-6.4,1.66-9.64
			c0.38-3.63,0.4-7.3,0.57-10.95c0.06-1.27-0.39-2.02-1.81-1.87c-0.67,0.07-1.35,0.01-2.01,0.1c-8.14,1.09-15.74,3.93-23.18,7.26
			c-0.55,0.25-1.08,1.23-1.08,1.88c-0.01,4.83,0.04,9.67,0.26,14.5c0.03,0.73,0.96,1.99,1.55,2.03
			C599.44,550.85,602.26,550.73,605.46,550.73z M595.88,552.85c0.83,3.28,1.48,6.41,2.46,9.43c0.28,0.86,1.47,1.94,2.31,2
			c1.66,0.13,3.54,0,5.03-0.69c4.67-2.16,8.7-5.24,11.72-9.49c0.42-0.59,0.57-1.37,0.96-2.37c-1.83,0.24-3.22,0.46-4.61,0.58
			c-1.47,0.13-2.95,0.15-4.72,0.24c0.11,1.52,0.38,2.86,0.22,4.14c-0.1,0.76-0.8,1.94-1.37,2.03c-1.14,0.19-2.2-0.43-2.13-1.94
			c0.02-0.37,0.07-0.75,0.08-1.12c0.05-1.9-0.38-3.13-2.78-2.87C600.86,553.04,598.61,552.85,595.88,552.85z"/>
		<path d="M759.73,471.36c0.55-6.13,1.08-12.15,1.64-18.16c0.73-7.89,1.3-15.79,2.29-23.65c1.01-8.07,2.38-16.1,3.72-24.12
			c0.85-5.08,1.89-10.13,2.98-15.17c0.61-2.82,1.62-5.56,2.22-8.38c0.53-2.48,1-5.02,1.03-7.54c0.07-6.46,1.51-12.71,2.43-19.05
			c0.88-6.07,1.31-12.19,2.1-18.28c0.94-7.26,1.99-14.5,3.07-21.73c1.2-7.97,2.55-15.91,3.71-23.89c0.44-3.02,0.5-6.09,0.77-9.13
			c0.47-5.27,0.96-10.54,1.49-15.81c0.06-0.64,0.27-1.42,0.7-1.82c0.49-0.45,1.31-0.73,1.99-0.71c0.24,0,0.7,1.1,0.64,1.66
			c-0.17,1.76-0.68,3.49-0.81,5.25c-0.4,5.67-0.43,11.37-1.09,17.01c-0.7,6-2.07,11.93-2.93,17.92
			c-1.62,11.24-3.07,22.51-4.64,33.77c-1.19,8.51-2.53,17-3.65,25.52c-0.44,3.33-0.21,6.75-0.74,10.06
			c-0.84,5.21-2.11,10.35-3.13,15.53c-1.66,8.48-3.53,16.93-4.83,25.47c-1.46,9.58-2.43,19.23-3.52,28.87
			c-0.93,8.23-1.74,16.48-2.58,24.72C762.45,471.17,761.82,471.9,759.73,471.36z"/>
		<path d="M811,483.23c1.02-4.03,2.23-8.03,3-12.11c0.96-5.13,1.63-10.32,2.27-15.51c0.51-4.14,1.06-8.3,1.14-12.46
			c0.17-8.98,1.52-17.66,4.77-26.1c1.32-3.43,1.79-7.23,2.37-10.91c1.17-7.38,2.31-14.77,3.13-22.2c0.41-3.69,0-7.47,0.1-11.21
			c0.09-3.58,0.42-7.16,0.54-10.75c0.17-5.08,0.09-10.17,0.41-15.23c0.39-6.09,0.91-12.18,1.71-18.23
			c0.91-6.95,2.17-13.86,3.31-20.79c0.92-5.58,2.4-11.13,2.7-16.74c0.45-8.49,0.06-17.03,0.08-25.54c0-1.79,0.18-3.59,0.46-5.35
			c0.08-0.5,0.81-0.89,1.24-1.34c0.26,0.46,0.75,0.92,0.75,1.39c0.06,8.37,0.31,16.74-0.01,25.1c-0.24,6.25-1.15,12.48-1.92,18.7
			c-0.63,5.03-1.44,10.04-2.28,15.05c-0.78,4.64-1.93,9.22-2.51,13.87c-0.59,4.8-0.76,9.66-0.98,14.51
			c-0.25,5.44-0.38,10.9-0.51,16.35c-0.12,4.64-0.07,9.28-0.27,13.91c-0.18,4.09-0.47,8.19-0.94,12.26
			c-0.7,6.08-1.52,12.15-2.43,18.21c-0.41,2.72-0.89,5.49-1.81,8.07c-2.67,7.43-4.89,14.97-4.77,22.91
			c0.09,6.02-0.2,11.91-1.53,17.81c-1.1,4.85-1.34,9.89-2.27,14.79c-0.63,3.29-1.68,6.51-2.79,9.68c-0.34,0.97-1.49,1.65-2.27,2.47
			C811.46,483.63,811.23,483.43,811,483.23z"/>
		<path d="M747.81,257.89c-0.37,1.88-0.8,3.76-1.09,5.65c-1.21,7.9-2.34,15.82-3.57,23.71c-1.16,7.45-2.64,14.86-3.56,22.34
			c-0.72,5.85-0.92,11.77-1.14,17.67c-0.15,3.96,0.33,7.95,0.08,11.9c-0.48,7.38-1.26,14.75-1.96,22.12
			c-0.96,10.13-1.88,20.25-2.95,30.37c-0.58,5.42-1.54,10.8-2.12,16.23c-0.36,3.34-0.31,6.72-0.5,10.08
			c-0.39,6.94-0.84,13.88-1.2,20.83c-0.57,10.76-1.08,21.52-1.63,32.29c-0.02,0.43-0.08,0.86-0.12,1.29
			c-0.22,0.07-0.44,0.14-0.66,0.21c-0.38-1.14-1.11-2.28-1.09-3.41c0.09-7.25,0.25-14.5,0.56-21.74c0.37-8.51,1.08-17.01,1.34-25.53
			c0.22-7.04,0.89-13.99,2.05-20.93c0.81-4.85,0.99-9.81,1.5-14.71c0.96-9.14,2.02-18.26,2.93-27.41c0.65-6.54,1.31-13.1,1.61-19.66
			c0.44-9.78,0.22-19.59,0.96-29.34c0.49-6.52,2.25-12.93,3.27-19.42c1.04-6.64,1.84-13.33,2.82-19.98c0.5-3.4,1.06-6.8,1.82-10.15
			c0.23-1.02,1.21-1.87,1.84-2.8C747.26,257.61,747.54,257.75,747.81,257.89z"/>
		<path d="M677.71,383.72c0.32-17.16,0.63-34.31,0.94-51.22c-1.01-1.33-2.1-2.58-2.94-3.97c-0.29-0.47,0.04-1.32,0.09-2
			c0.63,0.19,1.31,0.28,1.88,0.59c0.49,0.27,0.86,0.77,1.64,1.52c0.27-3.49,0.61-6.57,0.73-9.65c0.18-4.84,0.29-9.69,0.28-14.54
			c-0.02-7.24-0.25-14.49-0.23-21.73c0.01-3.57-0.04-7.23,0.75-10.66c0.5-2.16,2.51-3.98,3.85-5.95c0.22,0.07,0.45,0.14,0.67,0.21
			c0.06,0.52,0.34,1.14,0.15,1.54c-3.45,7.35-2.82,15.09-2.58,22.88c0.23,7.61,0.03,15.24-0.27,22.85
			c-0.33,8.5-1.07,16.99-1.48,25.49c-0.35,7.24-0.54,14.49-0.71,21.74c-0.12,4.86-0.05,9.73-0.11,14.59
			c-0.03,2.36-0.07,4.72-0.35,7.06c-0.08,0.65-1,1.19-1.54,1.78C678.23,384.07,677.97,383.9,677.71,383.72z"/>
		<path d="M816.08,275.22c9.07-0.83,12.59,3.27,9.51,10.5c0.87,0.5,1.87,0.9,2.62,1.57c0.5,0.44,0.65,1.27,0.96,1.93
			c-0.76-0.02-1.52,0.01-2.27-0.09c-0.24-0.03-0.45-0.37-0.65-0.59c-1-1.1-1.88-1.09-3.03-0.04c-2.46,2.25-5.64,1.72-7.46-1.07
			c-0.75-1.15-0.61-2.04,0.77-2.36c1.22-0.28,2.5-0.43,3.76-0.44c2.54-0.03,3.92-1.4,3.76-3.91c-0.13-2.04-1.68-3.76-3.73-3.61
			c-2.02,0.15-4.46,0.18-5.9,1.31c-3.45,2.72-3.34,3.65-1.05,7.42c0.47,0.77,0.89,1.56,1.37,2.32c0.52,0.82,1.02,1.76-0.23,2.16
			c-0.63,0.2-1.81-0.13-2.2-0.64c-1.22-1.57-2.18-3.34-3.18-4.94c-1.98,1.37-3.61,2.83-5.51,3.73c-3.56,1.67-7.02,0.53-10.33-1.04
			c-1.93-0.92-2.45-3.37-0.61-5.19c2.92-2.88,6.39-4.28,10.86-4.91c-1.02-1.3-1.87-2.35-2.67-3.42c-1-1.34-0.65-2.45,0.86-3.69
			c0.7,0.98,1.31,1.85,1.94,2.72c1.29,1.76,2.58,3.57,5.02,3.69c2.91,0.15,4.6-1.63,5.5-5.63c0.16-0.72,0.17-1.56,0.56-2.14
			c0.39-0.57,1.17-0.86,1.79-1.27c0.28,0.57,0.85,1.19,0.78,1.72C817.04,271.24,816.54,273.15,816.08,275.22z M794.18,284.43
			c3.76,3.93,10.56,2.83,12.59-1.81c0.5-1.14-0.55-3-1.82-2.91C800.87,280,797,280.87,794.18,284.43z"/>
		<path d="M717.14,258.54c0,1.52,0.04,3.04-0.01,4.56c-0.32,10.46-3.73,20.41-5.08,30.7c-0.83,6.28-2.43,12.46-3.34,18.73
			c-0.67,4.65-0.8,9.38-1.14,14.08c-0.66,8.94-1.33,17.88-1.96,26.83c-0.54,7.68-1.03,15.35-1.55,23.03
			c-0.04,0.6-0.03,1.25-0.28,1.76c-0.35,0.73-0.92,1.36-1.39,2.03c-0.35-0.82-1.04-1.65-0.99-2.44c0.22-3.59,0.73-7.17,0.98-10.76
			c0.81-11.85,1.51-23.7,2.33-35.54c0.39-5.74,0.88-11.47,1.44-17.19c0.31-3.12,0.77-6.23,1.34-9.31c0.86-4.62,1.91-9.2,2.8-13.81
			c1.22-6.3,2.49-12.59,3.49-18.92c0.61-3.83,0.67-7.74,1.14-11.6c0.1-0.86,0.85-1.65,1.29-2.47
			C716.52,258.33,716.83,258.44,717.14,258.54z"/>
		<path d="M656.9,374.64c3.69-2.19,7.38-4.38,11.09-6.54c0.33-0.19,1.09-0.31,1.15-0.19c0.26,0.48,0.53,1.11,0.42,1.59
			c-0.53,2.32-1.28,4.59-1.77,6.91c-0.27,1.27-0.2,2.62-0.33,4.78c2.67-1.38,4.74-2.45,6.8-3.52c0.14,0.12,0.28,0.24,0.42,0.37
			c-0.28,0.6-0.39,1.47-0.87,1.76c-2.31,1.44-4.69,2.8-7.14,3.97c-0.26,0.12-1.75-1.2-1.76-1.87c-0.04-2.52,0.29-5.06,0.5-7.58
			c0.04-0.5,0.16-0.99,0.32-1.98c-3.16,1.86-6.14,3.29-8.68,5.28c-0.95,0.75-0.95,2.81-1.21,4.3c-0.18,1.02,0.21,2.19-0.15,3.1
			c-0.29,0.73-1.31,1.17-2.01,1.74c-0.33-0.66-0.87-1.3-0.93-1.98c-0.14-1.55-0.04-3.12-0.04-4.81c-2.56,0.67-3.74,4.26-7.53,3.33
			c0.71-1.14,1.16-2.11,1.83-2.89c1.57-1.81,3.21-3.55,4.88-5.26c1.57-1.61,1.76-3.51,1.39-6c-1.51,0.65-2.81,1.31-4.18,1.75
			c-0.74,0.23-1.6,0.07-2.4,0.09c0.37-0.74,0.67-1.51,1.12-2.19c0.23-0.34,0.71-0.54,1.1-0.75c2.2-1.14,4.99-1.64,5.19-4.92
			c0.02-0.26,0.49-0.49,1.04-1c0.51,1.11,0.92,2,1.46,3.17c0.93-0.24,2.03-0.57,3.16-0.78c0.6-0.11,1.24,0,1.86,0.01
			c-0.03,0.69,0.18,1.53-0.14,2.03c-1.15,1.74-2.52,3.34-3.74,5.04c-0.56,0.78-0.96,1.67-1.43,2.51
			C656.5,374.27,656.7,374.46,656.9,374.64z"/>
		<path d="M720.59,305.35c-2.68,0.58-4.75,1.03-6.83,1.49c-0.18-0.13-0.36-0.26-0.54-0.39c0.42-0.7,0.7-1.56,1.3-2.05
			c0.66-0.55,1.58-0.96,2.44-1.07c3.48-0.46,3.59-0.34,3.41-5.6c-1.59,0.07-3.19,0.23-4.78,0.18c-0.61-0.02-1.2-0.53-1.8-0.81
			c0.47-0.59,0.82-1.44,1.42-1.7c0.86-0.36,1.93-0.17,2.86-0.43c0.98-0.27,1.89-0.81,2.83-1.21c0.5-0.21,1.43-0.62,1.49-0.53
			c1.2,1.96,3.04,1.09,4.67,1.17c0.55,0.03,1.09,0.24,1.63,0.36c0.07,0.27,0.13,0.54,0.2,0.81c-1.28,0.51-2.53,1.11-3.84,1.5
			c-1.68,0.51-2.73,2.06-1.98,3.61c0.27,0.56,1.48,0.66,2.25,0.99c0.79,0.33,1.58,0.67,2.36,1.01c-0.73,0.55-1.48,1.59-2.17,1.55
			c-2.38-0.14-2.36,1.08-2.38,2.9c-0.02,2.51-0.39,5.04-0.8,7.53c-0.27,1.64-0.02,2.52,1.83,2.78c2.21,0.31,4.42,0.8,6.56,1.42
			c0.77,0.22,1.38,1.03,2.06,1.58c-0.98,0.49-2.01,1.48-2.93,1.37c-2.2-0.24-4.36-0.94-6.5-1.57c-1.44-0.42-2.6-0.36-3.49,1.04
			c-0.31,0.49-0.76,1.07-1.27,1.23c-1.21,0.39-2.99,1.17-3.62,0.66c-1.04-0.84-1.96-2.67-1.77-3.91c0.17-1.07,1.83-2.44,3.04-2.7
			c3.42-0.74,3.49-0.54,3.83-4.3C720.3,310.08,720.41,307.89,720.59,305.35z"/>
		<path d="M804.67,394.11c0.36-1.24,0.74-2.48,1.08-3.74c0.91-3.33,2.25-6.63,2.58-10.02c0.39-3.98-1.46-5.35-5.48-5.09
			c-0.66,0.04-1.33,0.1-1.79,0.14c0.13,3.14,0.49,6.24,0.33,9.3c-0.17,3.14-1.04,6.16-3.61,8.38c-3.59,3.11-7.65,1.59-9.12-2.88
			c-2.2-6.65,1.27-11.16,5-15.73c0.36-0.44,0.95-0.86,1.49-0.94c3.98-0.58,8.02-1.27,11.93,0.07c4.51,1.55,5.24,4.67,4.2,9.73
			c-0.73,3.55-2.69,6.85-4.22,10.21c-0.23,0.51-1.13,0.71-1.72,1.05C805.11,394.43,804.89,394.27,804.67,394.11z M799.03,379.3
			c0,0.15,0.1-0.25-0.02-0.59c-0.37-1.08-0.82-2.13-1.23-3.19c-1.11,0.48-2.69,0.65-3.24,1.5c-1.63,2.52-3.14,5.21-4.17,8.03
			c-0.86,2.36,1.14,6.92,2.67,7.34c1.74,0.48,4.45-2.16,5.38-5.25c0.11-0.35,0.23-0.72,0.25-1.08
			C798.8,383.98,798.9,381.9,799.03,379.3z"/>
		<path d="M865.58,296.94c0.3,5.12,0.28,5.04,5.07,3.76c3.89-1.04,7.83-1.89,11.77-2.74c0.77-0.17,1.63,0.06,2.7,0.12
			c-1.02,2.21-2.68,2.46-4.35,2.84c-4.41,1-8.79,2.09-13.19,3.15c0.54,2.92,0.98,5.7,1.63,8.42c0.1,0.41,1.2,0.79,1.85,0.81
			c3.8,0.1,7.61,0.01,11.42,0.14c1.28,0.04,2.54,0.54,3.75,1.33c-5.54,2.05-11.21,0.17-16.98,1.18c-0.21,0.73-0.48,1.72-0.76,2.71
			c-0.69,2.44-2.09,3.49-4.36,3.26c-1.89-0.19-3.9-2.12-4.08-3.92c-0.21-2.06,0.83-3.47,3.2-4.26c0.49-0.16,1.16-0.05,1.5-0.35
			c0.51-0.45,1.23-1.23,1.13-1.72c-0.64-3.05-1.34-6.11-2.31-9.07C862.69,299.94,863.3,297.62,865.58,296.94z M866.4,316.01
			c-0.31-0.24-0.62-0.47-0.92-0.71c-1.02,0.76-2.37,1.35-2.89,2.37c-0.24,0.47,1.15,1.78,1.8,2.71c0.27-0.08,0.53-0.16,0.8-0.24
			C865.58,318.75,865.99,317.38,866.4,316.01z"/>
		<path d="M799.62,348.52c3.78-1.02,6.99-2,10.25-2.71c2.43-0.53,3.48,0.44,4.15,2.87c1.46,5.29-0.7,9.1-5.24,12.07
			c0.3-0.88,0.42-1.91,0.95-2.63c1.94-2.61,1.59-5.49,1.22-8.4c-0.21-1.65-1.22-2.2-2.71-1.63c-3.06,1.17-6.08,2.44-9.12,3.64
			c-0.62,0.24-1.26,0.51-1.9,0.57c-1.24,0.12-1.94-0.48-1.49-1.75c1.07-2.99,2.23-5.95,3.37-8.92c0.26-0.67,0.57-1.31,1.08-2.47
			c-1.73,0.44-2.97,0.88-4.25,1.02c-0.69,0.08-1.44-0.36-2.16-0.57c0.43-0.61,0.73-1.54,1.32-1.78c1.5-0.63,3.19-0.81,4.67-1.46
			c0.91-0.4,1.6-1.32,2.35-2.04c0.69-0.67,1.32-1.39,1.97-2.1c0.5,0.78,1,1.57,1.86,2.9c1.14-0.1,2.95-0.36,4.76-0.37
			c0.84-0.01,1.68,0.46,2.52,0.72c-0.82,0.57-1.66,1.67-2.46,1.64c-5.1-0.19-8.07,2.17-9.35,7.01
			C801.03,345.51,800.32,346.82,799.62,348.52z"/>
		<path d="M699.87,276.15c-0.3-2.36-0.55-4.37-0.82-6.5c-3.07,0.55-5.63,2.47-8.99,1.53c2.22-3.11,5.25-3.23,7.64-3.81
			c0.73-1.08,1.18-2.06,1.93-2.68c0.2-0.17,1.31,0.77,2.21,1.32c0.56-0.15,1.42-0.47,2.3-0.55c0.59-0.05,1.2,0.25,1.81,0.4
			c-0.32,0.61-0.49,1.45-0.99,1.79c-0.78,0.52-1.78,0.7-3.04,1.15c2.39,10.86-3.62,19.02-9.26,27.26c-0.53,0.77-1.76,1.07-2.67,1.58
			c-0.23-0.21-0.47-0.43-0.7-0.64c0.36-0.61,0.6-1.33,1.09-1.81c2.61-2.54,4.15-5.7,5.71-9.04c-4.6,0.29-5.29-0.65-3.68-4.84
			c0.47-1.23,1.09-2.45,1.88-3.5C695.56,276.11,697.23,275.09,699.87,276.15z M698.43,279.6c-0.27-0.3-0.85-0.93-1.42-1.56
			c-0.88,1.38-1.82,2.72-2.57,4.16c-0.11,0.21,0.68,1.27,1.12,1.31C697.07,283.65,698.42,281.99,698.43,279.6z"/>
		<path d="M664.28,285.41c0.25,2.04,0.5,4.08,0.74,6.12c0.27,0.05,0.55,0.09,0.82,0.14c1.79-3.57,3.82-7.04,5.29-10.73
			c1.22-3.05-0.23-5.17-2.9-4.92c-0.65,0.06-1.42,0.45-1.84,0.95c-1.25,1.48-2.34,3.1-3.53,4.63c-0.63,0.82-1.35,1.57-2.29,2.66
			c-0.32-2.38-0.32-2.38,2.37-6.92c-0.6,0.09-1.07,0.12-1.53,0.23c-0.43,0.1-0.85,0.27-2.04,0.66c0.42-1.2,0.49-2.1,0.97-2.62
			c0.58-0.63,1.46-1.15,2.3-1.33c2.49-0.52,4.38-1.75,5.69-3.95c0.18-0.3,0.86-0.31,1.31-0.46c0.06,0.4,0.24,0.82,0.16,1.19
			c-0.13,0.65-0.41,1.27-0.62,1.89c1.26,0.53,2.43,1.35,3.66,1.45c1.21,0.1,2.47-0.67,3.73-0.8c0.82-0.09,2.17,0.02,2.43,0.49
			c0.57,1.08,0.69,2.43-0.8,3.25c-0.4,0.22-0.94,0.73-0.93,1.09c0.07,2.1-0.92,2.76-2.9,2.64c-0.38-0.02-0.92,0.77-1.22,1.28
			c-2.31,4-4.54,8.05-6.89,12.03c-0.31,0.53-1.12,0.78-1.69,1.16c-0.39-0.61-1.09-1.2-1.12-1.82c-0.12-2.77-0.05-5.55-0.05-8.33
			C663.7,285.41,663.99,285.41,664.28,285.41z"/>
		<path d="M713.58,361.66c0.03-0.51-0.09-1.17,0.15-1.66c0.21-0.41,1.16-0.93,1.22-0.86c1.32,1.38,2.79,0.72,4.28,0.48
			c0.54-0.09,1.16,0.32,1.74,0.5c0.02,0.21,0.05,0.41,0.07,0.62c-0.95,0.44-1.87,0.98-2.87,1.3c-1.64,0.53-1.7,1.69-0.92,2.76
			c0.31,0.43,1.58,0.41,2.32,0.22c1.41-0.37,2.76-1,4.58-1.69c-0.65,3.05-2.68,3.24-4.36,3.85c-1.22,0.44-2.4,0.69-2.09,2.54
			c0.25,1.47,0.85,2.09,2.31,2.1c2.16,0.01,4.33,0.1,6.49,0.17c1.16,0.04,2.25,0.35,1.99,1.77c-0.26,1.44-1.4,1.14-2.5,0.98
			c-2.62-0.39-5.25-0.64-7.85-0.94c-0.73,4.68-3.26,6.46-6.87,5.4c-1.72-0.5-2.07-1.57-1.16-2.82c1.08-1.47,2.35-2.92,3.83-3.95
			c1.24-0.87,1.53-1.6,0.91-3c-1.69,0.69-3.31,1.42-4.98,1.99c-0.5,0.17-1.14-0.1-1.72-0.18c0.35-0.5,0.61-1.13,1.08-1.46
			c0.92-0.63,1.91-1.22,2.96-1.56c2-0.66,2.75-1.79,1.78-3.97c-1.52,0.22-3.09,0.44-4.67,0.67c-0.11-0.34-0.21-0.68-0.32-1.03
			C710.48,363.16,711.98,362.44,713.58,361.66z M711.97,376.53c3.11,0.5,3.47,0.2,3.33-2.66
			C714.15,374.79,713.21,375.53,711.97,376.53z"/>
		<path d="M798.28,310.8c-2.53,0.44-4.87,0.85-7.2,1.26c-0.13-0.3-0.25-0.61-0.38-0.91c0.91-0.54,1.77-1.21,2.74-1.59
			c1.87-0.72,3.92-1.06,5.69-1.97c1.09-0.56,1.85-1.84,2.66-2.88c0.59-0.76,0.86-1.89,1.59-2.4c0.72-0.5,1.83-0.41,2.78-0.59
			c-0.05,0.69,0,1.41-0.17,2.08c-0.18,0.7-0.57,1.35-0.92,2.15c4.21,1.01,8.41-2.66,12.4-0.24c0.03,0.34,0.05,0.69,0.08,1.03
			c-1.25,0.22-2.51,0.43-3.75,0.68c-3.29,0.65-6.61,1.18-9.84,2.07c-0.93,0.25-1.7,1.48-2.3,2.42c-3.06,4.77-6,9.6-9.09,14.35
			c-0.33,0.51-1.29,0.6-1.95,0.89c-0.1-0.86-0.56-1.92-0.23-2.55c1.74-3.21,3.7-6.3,5.55-9.46
			C796.75,313.74,797.47,312.3,798.28,310.8z"/>
		<path d="M866.9,379.88c4.49-2.12,9.4-0.2,14.26-0.42c0.39-0.02,0.8,0.43,1.19,0.65c-0.36,0.35-0.72,0.99-1.09,1
			c-2.23,0.08-4.48,0.18-6.7-0.04c-4.41-0.44-8.36,0.35-11.42,3.79c-1.23,1.38-2.67,1.85-4.4,1.48c-0.44-0.09-1.16-0.53-1.15-0.78
			c0.02-0.49,0.37-1.07,0.76-1.42c0.49-0.44,1.16-0.66,1.74-1c3.47-2.03,3.97-3.41,3.33-7.4c-0.58-3.63-2.62-6.27-5.16-8.68
			c-0.62-0.59-1.1-1.34-1.64-2.02c0.14-0.25,0.28-0.5,0.42-0.75c1.02,0.42,2.2,0.64,3.03,1.29c1.05,0.82,1.82,1.35,3.33,0.98
			c3.69-0.91,7.46-1.54,11.22-2.13c0.79-0.12,1.68,0.44,2.52,0.69c-0.62,0.57-1.16,1.47-1.89,1.66c-3.01,0.77-6.09,1.32-9.13,1.97
			c-0.56,0.12-1.1,0.34-1.31,0.41C865.52,372.82,866.19,376.26,866.9,379.88z"/>
		<path d="M791.58,440.35c1.32,1.29,0.97,2.32,0.12,3.35c-1.64,1.97-3.28,3.94-5.05,6.08c0.49,0.11,0.76,0.25,1.02,0.22
			c2.06-0.22,2.85,0.72,2.77,2.75c-0.05,1.41,0.23,2.83,0.25,4.24c0.03,2,1.17,2.09,2.51,1.4c1.17-0.61,2.19-1.54,3.27-2.33
			c0.93-0.68,1.85-1.38,3.18-2.37c0.04,3.27-2.05,4.47-3.75,5.68c-1.28,0.91-2.99,1.26-4.54,1.77c-1.8,0.59-2.46-0.45-3.64-1.79
			c-2.09-2.36-0.61-4.45-0.31-7.29c-1.22,0.45-2.22,0.54-2.8,1.08c-2.56,2.39-4.99,4.93-7.5,7.36c-1.01,0.98-2.09,1.91-3.24,2.72
			c-0.35,0.24-1.05-0.01-1.59-0.04c0.11-0.54,0.07-1.2,0.37-1.59c0.73-0.94,1.66-1.71,2.43-2.62c4.51-5.34,8.97-10.73,13.51-16.04
			C789.44,441.94,790.58,441.2,791.58,440.35z"/>
		<path d="M771.62,283.36c-4.32,1.99-8.19,4.79-13.05,4.95c-3,0.1-4.67-2.01-4.31-4.96c0.04-0.29,0.13-0.58,0.19-0.87
			c0.67-3.03,0.16-5.69-2.22-7.92c-0.95-0.89-1.63-2.08-2.43-3.15c2.69-1.76,3.12-1.69,4.76,0.49c0.74,0.99,1.5,1.96,2.26,2.95
			c2.18-2.62,4.22-5.06,6.26-7.51c0.1-0.11,0.14-0.29,0.25-0.37c1.08-0.77,1.94-2.44,3.51-1.24c0.21,0.16-0.62,2.18-1.36,2.97
			c-3.32,3.53-5.84,7.52-7.44,12.09c-0.32,0.9-0.53,1.88-0.54,2.83c-0.04,2.29,1.16,3.12,3.29,2.23c2.47-1.04,4.87-2.25,7.34-3.32
			C769.26,282.05,770.5,281.48,771.62,283.36z"/>
		<path d="M883.97,191.71c0.93,2.91,2.08,5.77,2.72,8.74c0.63,2.97,0.69,6.06,1.08,9.09c0.56,4.33-1.09,8.19-2.4,12.15
			c-1.1,3.32-2,6.71-3.03,10.06c-0.39,1.28-0.77,2.58-1.36,3.77c-0.28,0.56-1.03,0.89-1.57,1.33c-0.2-0.65-0.71-1.39-0.56-1.95
			c1.22-4.68,2.17-9.48,3.98-13.92c1.54-3.78,2.13-7.61,2.05-11.5c-0.09-4.53-0.81-9.05-1.36-13.56c-0.16-1.29-0.68-2.54-1.03-3.81
			C882.98,191.98,883.48,191.85,883.97,191.71z"/>
		<path d="M754.45,439.33c-0.46,2.14-0.98,4.16-1.27,6.21c-0.07,0.5,0.44,1.35,0.92,1.63c1.67,0.97,3.52,1.64,5.15,2.67
			c0.58,0.37,1.15,1.61,0.95,2.19c-0.42,1.23-1.42,0.82-2.39,0.29c-1.93-1.06-3.94-1.99-5.9-2.97c-0.9,1.73-1.5,3.18-2.35,4.47
			c-1.03,1.57-2.35,1.42-3.27-0.22c-2.01-3.59-0.42-6.82,3.57-7.35c0.48-0.06,1.21-0.45,1.3-0.83c0.45-1.77,0.72-3.58,1.11-5.67
			c-1.71,0.18-3.02,0.42-4.33,0.41c-0.59-0.01-1.18-0.51-1.77-0.79c0.41-0.56,0.7-1.41,1.24-1.61c1.03-0.37,2.21-0.55,3.3-0.47
			c1.5,0.11,1.81-0.49,1.72-1.81c-0.06-0.96,0.13-1.94,0.21-2.91c0.29-0.04,0.58-0.08,0.87-0.11c0.25,0.83,0.72,1.66,0.69,2.48
			c-0.06,1.64,0.6,2.05,2.14,2.02c0.88-0.02,1.77,0.56,2.65,0.87c-0.85,0.44-1.67,0.97-2.57,1.3
			C755.83,439.33,755.12,439.27,754.45,439.33z M749.95,449.2c-0.13-0.21-0.25-0.42-0.38-0.63c-0.7,0.14-1.99,0.24-2,0.42
			c-0.06,0.98,0.19,1.98,0.34,2.98c0.24,0.01,0.48,0.02,0.72,0.03C749.07,451.07,749.51,450.13,749.95,449.2z"/>
		<path d="M663.46,356.16c-3.17-3.85-2.39-8.16,0.84-10.57c0.97-0.73,1.13-2.55,1.82-4.29c-1.58,0.13-2.48,0.38-3.3,0.23
			c-0.78-0.14-1.48-0.7-2.22-1.07c0.02-0.31,0.05-0.62,0.07-0.93c1.57-0.26,3.14-0.52,4.6-0.77c0.53-1.07,1.06-2.12,1.58-3.17
			c0.51,0.7,1.01,1.41,1.74,2.43c0.97-0.19,2.39-0.56,3.82-0.69c0.59-0.05,1.22,0.42,1.83,0.65c-0.43,0.6-0.74,1.46-1.33,1.75
			c-0.91,0.44-2.07,0.36-3.02,0.74c-0.83,0.33-2.12,0.95-2.17,1.53c-0.13,1.56-1.02,3.5,1.03,4.63c1.42,0.78,2.85,1.56,4.7,2.57
			c-0.57,0.81-0.97,1.9-1.72,2.27c-0.54,0.27-1.6-0.34-2.35-0.7c-0.83-0.41-1.58-0.99-2.14-1.35
			C665.96,351.69,664.8,353.76,663.46,356.16z"/>
		<path d="M746.02,409.69c-2.14,1.1-3.73,2-5.4,2.72c-0.63,0.27-1.43,0.15-2.15,0.2c0.41-0.63,0.67-1.51,1.24-1.85
			c2.18-1.29,4.51-2.32,6.68-3.62c1.13-0.68,2.06-1.72,3.07-2.6c0.57-0.49,1.13-0.98,1.87-1.63c0.43,3.99,0.92,7.57,1.19,11.16
			c0.31,4.21-1.51,7.86-3.54,11.36c-0.38,0.65-1.36,0.95-2.06,1.42c-0.35-0.69-0.91-1.35-1-2.07c-0.22-1.76-0.23-3.54-0.32-5.32
			c0.24-0.02,0.48-0.05,0.72-0.07c0.46,1.28,0.92,2.56,1.52,4.27c2.68-4.88,2.76-9.61,1.29-14.76c-2.12,2.94-4.24,5.87-6.37,8.81
			c-0.25-0.16-0.5-0.32-0.75-0.49C742.22,414.44,744.59,412.61,746.02,409.69z"/>
		<path d="M674.97,314.11c-0.01,2.9-2.21,3.87-3.89,4.67c-5.3,2.53-7.55,3.08-10.87-1.03c-0.9,1.69-1.65,3.37-2.68,4.86
			c-0.49,0.71-1.54,1.04-2.34,1.54c0.02-0.84-0.21-1.79,0.09-2.51c2.57-6.12,5.21-12.21,7.92-18.27c0.31-0.69,1.11-1.15,1.68-1.72
			c0.13,0.8,0.55,1.68,0.34,2.38c-0.61,2.07-1.36,4.11-2.27,6.07c-1.07,2.29-0.97,4.39,0.72,6.22c1.63,1.77,3.68,1.81,5.75,0.75
			C671.14,316.2,672.81,315.26,674.97,314.11z"/>
		<path d="M743.36,233.3c0.65-2.51,1.55-4.99,1.89-7.55c0.63-4.86,1.07-9.76,1.32-14.65c0.11-2.13-0.35-4.31-0.75-6.44
			c-0.49-2.63-1.08-5.28-4.1-6.78c1.93-0.91,3.6-0.89,4.36,0.69c1.23,2.57,2.56,5.31,2.84,8.07c0.47,4.71,0.58,9.55,0.04,14.24
			c-0.43,3.7-2,7.28-3.2,10.87c-0.24,0.73-1.07,1.26-1.63,1.88C743.86,233.52,743.61,233.41,743.36,233.3z"/>
		<path d="M752.18,360.11c0.69,1.93,1.31,3.66,1.93,5.39c0.22-0.03,0.44-0.06,0.65-0.09c1.4-3.68,2.12-7.5,1.93-11.47
			c-0.02-0.49-0.76-1.32-1.17-1.32c-0.71,0-1.72,0.32-2.07,0.85c-1.33,2.06-2.38,4.3-3.67,6.39c-0.52,0.85-1.37,1.49-2.07,2.23
			c-0.26-0.19-0.51-0.38-0.77-0.57c1.08-2.11,2.16-4.23,3.41-6.67c-1.46,0.65-2.65,1.18-3.83,1.71c-0.18-0.22-0.36-0.44-0.55-0.66
			c0.62-0.68,1.15-1.49,1.87-2.03c1.89-1.42,3.73-3.01,5.84-3.96c1.13-0.51,2.87-0.06,4.18,0.4c0.63,0.22,1.22,1.44,1.27,2.25
			c0.29,5.16-1.09,10.04-2.96,14.78c-0.26,0.67-0.77,1.33-1.33,1.76c-0.33,0.25-1.23,0.25-1.5-0.02
			C752.15,367.86,751.38,362.14,752.18,360.11z"/>
		<path d="M784.52,420.13c2.94-1.63,6.01-2.22,9.31-1.67c5.05,0.84,5.67,3.43,3.87,7.3c-2.33,5.02-6.09,9-10.94,11.78
			c-0.84,0.48-1.97,0.48-2.96,0.71c-0.17-0.29-0.34-0.58-0.51-0.87c1.1-1.08,2.09-2.34,3.33-3.22c3.6-2.54,6.72-5.41,8.4-9.63
			c0.97-2.44,0.22-4.11-2.4-4.14c-1.86-0.02-3.78,0.47-5.59,0.99C785.66,421.77,784.71,421.96,784.52,420.13z"/>
		<path d="M859.54,264.63c-1.31,7.74-1.95,15.3-1.3,23.13c2.5-1,3.97-3.96,7.26-2.71c-2.09,2.22-4,4.45-6.14,6.44
			c-1.12,1.05-3.08,0.1-3.28-1.64c-0.36-3.17-0.74-6.39-0.58-9.56c0.21-4.14,0.9-8.26,1.43-12.38
			C857.11,266.52,857.36,265.1,859.54,264.63z"/>
		<path d="M731.82,274.88c-0.93,4.59-6.82,9.05-10.94,8.57c-1.05-0.12-2.57-1.78-2.75-2.91c-1.16-7.12,3-15.71,8.47-20.19
			c-0.13,0.64-0.14,1.34-0.42,1.9c-1.39,2.72-3.16,5.29-4.19,8.13c-0.89,2.46-1.18,5.2-1.37,7.84c-0.16,2.27,0.79,2.9,2.94,1.93
			c2.07-0.94,3.96-2.29,5.89-3.5C730.27,276.1,731.03,275.46,731.82,274.88z"/>
		<path d="M561,214.26c0.81,0.8,1.91,1.45,2.37,2.42c2.62,5.5,3.92,11.29,2.92,17.38c-0.53,3.2-1.32,6.37-2.23,9.49
			c-0.32,1.1-1.35,1.99-2.06,2.98c-0.24-0.13-0.49-0.25-0.73-0.38c0.18-1.46,0.12-3,0.59-4.36c1.96-5.72,2.13-11.62,1.47-17.49
			c-0.31-2.73-1.67-5.33-2.54-7.99c-0.17-0.52-0.32-1.04-0.48-1.56C560.52,214.59,560.76,214.42,561,214.26z"/>
		<path d="M894.37,196.96c5.42,3.77,4.32,27.36-1.35,34.43c-0.12-1.29-0.41-2.19-0.24-2.99c0.62-2.89,1.59-5.72,2.05-8.63
			c0.43-2.74,0.56-5.57,0.47-8.35C895.14,206.77,894.71,202.13,894.37,196.96z"/>
		<path d="M845.65,457.88c2.07-0.35,3.44-0.6,4.82-0.79c0.15-0.02,0.34,0.25,1.04,0.82c-1.92,1.03-3.52,2.28-5.32,2.72
			c-1.24,0.3-3.05-0.09-3.11-2.23c-0.13-5.04-0.3-10.09-0.43-15.13c-0.02-0.82-0.08-1.67,0.1-2.46c0.12-0.54,0.63-1,0.96-1.49
			c0.48,0.47,1.22,0.86,1.37,1.41c0.22,0.83-0.01,1.78,0.03,2.68C845.27,448.16,845.46,452.92,845.65,457.88z"/>
		<path d="M759.82,195.74c0.93-0.92,2.02-0.81,2.6,0.44c0.85,1.85,1.8,3.8,2.01,5.77c0.67,6.44,0.45,12.86-2.47,18.83
			c-0.84,1.71-1.58,3.83-4.34,4.49C762.9,215.56,764.43,206.01,759.82,195.74z"/>
		<path d="M848.31,404.96c2.65-0.69,5.28-1.5,7.96-2.05c5.03-1.03,10.09-1.93,15.16-2.8c0.6-0.1,1.29,0.38,1.94,0.59
			c-0.4,0.63-0.65,1.55-1.22,1.83c-1.37,0.66-2.52,1.98-4.55,0.71c-0.98-0.62-3,0.36-4.53,0.69c-4,0.85-7.98,1.83-12,2.56
			c-0.93,0.17-2-0.45-3.01-0.7C848.15,405.51,848.23,405.24,848.31,404.96z"/>
		<path d="M585.29,240.4c0.23-1.03,0.61-2.05,0.67-3.09c0.34-6.17,0.58-12.35,0.92-18.52c0.06-1.01,0.47-2,0.71-2.99
			c0.28,0.01,0.55,0.01,0.83,0.02c0.32,1.24,0.9,2.48,0.9,3.73c0.01,5.14,0.09,10.3-0.38,15.4c-0.19,2.02-1.76,3.91-2.7,5.85
			C585.92,240.66,585.61,240.53,585.29,240.4z"/>
		<path d="M861.83,350.35c-2.28,2.05-5.01,2.42-7.67,2.85c-1.83,0.29-3.21-0.93-3.5-2.5c-0.69-3.7-1.03-7.47-1.38-11.23
			c-0.03-0.35,1-1.19,1.3-1.09c0.53,0.17,1.18,0.86,1.26,1.4c0.4,2.65,0.52,5.34,0.96,7.98c0.5,3.01,0.76,3.13,3.79,2.8
			c1.55-0.17,3.08-0.45,4.62-0.66C861.32,349.89,861.45,350.06,861.83,350.35z"/>
		<path d="M652.73,335.74c-0.45,5.08-0.87,9.91-1.34,15.21c1.48-0.93,2.35-1.48,3.28-2.06c0.01,2.64-2.01,4.95-4.74,5.56
			C647.52,349.68,649.29,336.58,652.73,335.74z"/>
		<path d="M702.12,307.89c0.03,2.35-2.83,5.55-4.97,5.54c-1.21,0-4.24-3.3-4.2-4.57c0.07-2.19,3.29-5.63,5.35-5.7
			C700.26,303.09,702.09,305.36,702.12,307.89z M697.31,310.85c2.72-1.27,3.08-3.97,1.11-5.26c-0.28-0.18-1.44,0.3-1.44,0.46
			C696.99,307.6,697.17,309.13,697.31,310.85z"/>
		<path d="M875.36,418.08c-0.47,0.57-0.84,1.47-1.43,1.65c-6.83,2.1-13.59,4.64-20.95,3.9c-0.84-0.08-1.66-0.33-2.49-0.5
			c-0.02-0.2-0.04-0.4-0.06-0.61c0.63-0.24,1.25-0.66,1.89-0.68c7.08-0.26,13.92-1.63,20.5-4.28c0.63-0.25,1.41-0.12,2.12-0.16
			C875.08,417.63,875.22,417.86,875.36,418.08z"/>
		<path d="M756.35,336.62c1.05-2.27,2.16-4.52,3.14-6.83c0.72-1.71,1.41-3.47,1.84-5.27c0.19-0.8-0.31-1.76-0.5-2.65
			c-0.96,0.24-2.08,0.23-2.83,0.76c-1.2,0.84-2.15,2.05-3.22,3.09c-0.46,0.45-0.94,0.86-1.66,1.07c1.02-2.94,2.99-5.12,5.64-6.61
			c0.89-0.5,2.19-0.74,3.16-0.51c0.72,0.17,1.84,1.42,1.73,1.95c-0.72,3.31-1.64,6.59-2.7,9.81c-0.46,1.39-1.35,2.65-2.18,3.88
			c-0.46,0.69-1.18,1.2-1.78,1.79C756.77,336.95,756.56,336.78,756.35,336.62z"/>
		<path d="M711.58,355.46c0.31-0.78,0.52-1.62,0.93-2.34c3.21-5.58,4.43-11.51,3.47-17.91c-0.1-0.65,0.57-1.42,0.89-2.13
			c0.54,0.51,1.52,1,1.55,1.55c0.17,2.82,0.65,5.8-0.01,8.46c-0.96,3.86-2.76,7.52-4.33,11.21c-0.3,0.71-1.23,1.14-1.87,1.7
			C712.01,355.81,711.79,355.64,711.58,355.46z"/>
		<path d="M737.4,436.59c-0.36,4.7-0.71,9.39-1.12,14.74c1.73-1.4,2.91-2.36,4.1-3.32c0.15,0.15,0.29,0.31,0.44,0.46
			c-0.89,2.71-2.91,4.61-5.08,6.35c-0.11,0.09-1.41-0.78-1.4-1.18c0.19-4.84,0.45-9.68,0.89-14.5c0.09-0.99,1.01-1.91,1.55-2.86
			C736.98,436.37,737.19,436.48,737.4,436.59z"/>
		<path d="M656.99,408.24c-0.24-3.4-0.47-6.65-0.71-9.89c-0.12-1.56-0.42-3.13-0.34-4.68c0.04-0.74,0.79-1.43,1.22-2.15
			c0.48,0.53,1.28,1.02,1.37,1.61c0.43,2.87,0.68,5.77,0.98,8.66c0.09,0.82,0.04,1.65,0.21,2.45
			C660.17,406.33,659.2,407.46,656.99,408.24z"/>
		<path d="M881.51,263.28c1.2,1.48,2.28,2.31,2.68,3.39c1.04,2.83,2.2,5.51,4.4,7.67c0.27,0.27,0.03,1.39-0.32,1.84
			c-0.23,0.29-1.33,0.34-1.64,0.06c-3.12-2.9-5.43-6.37-6.49-10.52C880,265.2,880.81,264.45,881.51,263.28z"/>
		<path d="M744.45,391.88c2.32-0.04,3.59-2.31,6.17-0.84c-2.7,1.6-5.01,2.98-7.48,4.45c-1.7-3.55-2.11-7.02-1.28-10.56
			c0.27-1.14,1.18-2.13,1.8-3.19c0.15,1.08,0.37,2.15,0.44,3.24C744.26,387.29,744.34,389.61,744.45,391.88z"/>
		<path d="M711.41,339.6c0.91-0.45,1.67-0.82,2.43-1.19c0.15,0.19,0.29,0.38,0.44,0.56c-1.06,2.28-1.55,4.98-4.98,5.82
			c-0.28-1.13-0.71-2.22-0.79-3.33c-0.19-2.37-0.26-4.75-0.24-7.12c0.01-0.49,0.66-0.97,1.01-1.46c0.47,0.46,1.23,0.86,1.35,1.4
			C711.01,336.05,711.17,337.88,711.41,339.6z"/>
		<path d="M816.94,315.59c-3.2,0.49-6.41,0.97-9.61,1.45c-0.88,0.13-1.77,0.35-2.65,0.34c-0.42-0.01-0.84-0.45-1.26-0.69
			c0.26-0.37,0.46-1.02,0.78-1.08c3.64-0.71,7.29-1.39,10.95-1.9c0.62-0.09,1.37,0.68,2.06,1.05
			C817.12,315.03,817.03,315.31,816.94,315.59z"/>
		<path d="M872.29,447.58c-1.24-2.32-2.39-4.32-3.37-6.4c-0.29-0.62-0.08-1.47-0.11-2.22c0.74,0.18,1.83,0.12,2.16,0.59
			c1.34,1.9,2.72,3.86,3.57,6.01C875.32,447.52,873.35,447.2,872.29,447.58z"/>
		<path d="M875.08,333.38c0.37,0.25,1.12,0.54,1.52,1.08c1.2,1.68,2.38,3.4,3.32,5.24c0.29,0.57-0.21,1.55-0.34,2.34
			c-0.76-0.38-1.78-0.56-2.24-1.17c-1.25-1.64-2.26-3.46-3.37-5.21C873.18,334.44,873.51,333.48,875.08,333.38z"/>
		<path d="M805.09,323.52c0.98-0.29,1.59-0.64,2.19-0.62c2.24,0.06,4.48,0.17,6.71,0.4c0.47,0.05,0.95,0.59,1.27,1.02
			c0.09,0.12-0.31,0.79-0.63,0.98C813.1,326.23,807,325.25,805.09,323.52z"/>
		<path d="M792.41,404.75c2.17,1.88,4.19,3.58,6.14,5.37c0.25,0.23,0.27,1.08,0.04,1.37c-0.25,0.32-0.92,0.5-1.37,0.45
			c-1.53-0.16-5.39-4.58-5.41-6.11C791.8,405.65,792,405.46,792.41,404.75z"/>
		<path d="M728.7,267.64c1.06-2.92,2.12-5.85,3.24-8.93c1.43,1.33,1.5,3.36,0.11,7.22c-0.34,0.95-1.56,1.57-2.38,2.35
			C729.34,268.06,729.02,267.85,728.7,267.64z"/>
		<path d="M762.82,386.02c-0.73,0.8-1.13,1.48-1.71,1.78c-0.26,0.14-1.03-0.35-1.35-0.74c-0.86-1.02-1.66-2.11-2.36-3.25
			c-0.25-0.4-0.37-1.22-0.13-1.51c0.29-0.36,1.29-0.67,1.5-0.48C760.14,383.1,761.39,384.51,762.82,386.02z"/>
		<path d="M759.51,309.81c-1.38-1.26-2.76-2.31-3.83-3.61c-0.37-0.45,0.02-1.52,0.07-2.31c0.73,0.17,1.57,0.17,2.17,0.54
			c0.67,0.42,1.12,1.18,1.67,1.79C760.78,307.57,760.78,307.71,759.51,309.81z"/>
		<path d="M762.44,352.64c0.47-0.61,0.96-1.26,1.46-1.91c0.46,0.48,1,0.92,1.37,1.47c0.5,0.73,1.14,1.53,1.21,2.34
			c0.07,0.76-0.53,1.59-0.83,2.38c-0.65-0.36-1.51-0.58-1.89-1.13C763.19,354.97,762.95,353.92,762.44,352.64z"/>
		<path d="M760.85,410.27c-0.46,0.52-1.03,1.17-1.6,1.82c-0.45-0.55-1.03-1.05-1.33-1.68c-0.47-0.99-0.9-2.05-1.03-3.11
			c-0.06-0.53,0.49-1.33,1-1.64c0.25-0.15,1.24,0.41,1.49,0.87C759.95,407.55,760.26,408.71,760.85,410.27z"/>
		<path d="M736.37,258.94c0.12,1.45,0.35,2.91,0.28,4.36c-0.02,0.39-0.93,0.95-1.48,1.01c-0.31,0.04-1.06-0.79-1.03-1.19
			c0.11-1.44,0.46-2.87,0.72-4.3C735.37,258.86,735.87,258.9,736.37,258.94z"/>
		<path d="M773.02,263.6c-0.83,0.73-1.31,1.15-1.8,1.57c-0.61-0.94-1.32-1.84-1.75-2.86c-0.11-0.26,0.65-0.9,1.02-1.36
			C771.26,261.74,772.01,262.53,773.02,263.6z"/>
		<path d="M776.17,257.17c0.7,2.23,0.45,3.66-1.7,4.86C774.29,260.08,774.13,258.53,776.17,257.17z"/>
		<path d="M673.86,332.7c-0.52-0.9-1.04-1.81-1.55-2.71c0.16-0.18,0.32-0.36,0.49-0.55c0.67,0.25,1.66,0.31,1.94,0.79
			c0.34,0.57,0.08,1.5,0.08,2.28C674.49,332.56,674.17,332.63,673.86,332.7z"/>
		<path class="vol1_3_st0" d="M526.22,280.19c-3.31,0.88-6.61,1.75-10.12,2.68c-0.07-1.49-0.13-2.78-0.19-4.07
			c-0.22-0.12-0.43-0.24-0.65-0.37c-0.47,0.63-1.05,1.2-1.39,1.89c-0.52,1.03-0.83,3.03-1.31,3.06c-2.09,0.12-4.21-0.32-6.31-0.6
			c-0.48-0.06-0.95-0.52-1.39-0.48c-6.48,0.64-11.39-2.76-16.2-6.33c-4.95-3.66-6.17-9.28-6.92-14.82
			c-1.33-9.76-2.08-19.6-3.24-29.39c-0.88-7.41-2.12-14.78-3.07-22.18c-0.96-7.5-0.21-14.76,3.45-21.54
			c0.32-0.59,0.45-1.27,0.77-1.85c1.72-3.08,3.81-5.21,7.87-5.18c6.8,0.04,13.59-0.58,20.4-0.76c5.45-0.14,10.9,0.09,16.35-0.05
			c5.75-0.15,11.48-0.65,17.23-0.81c5.22-0.14,10.44-0.03,15.94-0.03c-1.42,3.47-2.84,6.95-4.26,10.43
			c-2.48,6.06-5.49,11.96-7.3,18.21c-1.63,5.62-2.21,11.59-2.8,17.46c-0.86,8.63-1.37,17.3-1.92,25.96c-0.28,4.48-0.05,9-0.53,13.45
			c-0.31,2.92-1.14,5.9-2.33,8.59c-1.59,3.58-5.38,4.5-8.67,5.85c-1.1,0.45-2.31,0.63-3.46,0.92c0.04-2.97,0.27-5.94,0.05-8.89
			c-0.17-2.37-1.07-4.67-1.34-7.04c-0.96-8.69-2.03-17.39-2.62-26.11c-0.76-11.2-1.12-22.42-1.59-33.63
			c-0.28-6.65-0.43-13.3-0.73-19.95c-0.03-0.62-0.75-1.21-1.15-1.81c-0.32,0.63-0.94,1.26-0.93,1.88
			c0.23,10.69,0.56,21.37,0.82,32.06c0.08,3.37-0.12,6.75,0.1,10.1c0.5,7.68,1.11,15.36,1.81,23.02c0.46,4.98,1.05,9.96,1.78,14.91
			c0.62,4.21,1.64,8.36,2.22,12.57C524.78,278.68,524.99,279.63,526.22,280.19z M505.12,279.45c-1.51-7.4-3.21-14.66-4.42-22.01
			c-1.56-9.41-2.99-18.87-3.97-28.35c-0.73-7.13-0.72-14.34-0.92-21.51c-0.22-7.91-0.28-15.82-0.47-23.73
			c-0.01-0.59-0.5-1.17-0.77-1.76c-0.38,0.52-1.1,1.05-1.1,1.57c-0.08,7.01-0.16,14.03-0.02,21.05c0.09,4.33,0.92,8.66,0.78,12.97
			c-0.37,11.85,0.52,23.58,2.7,35.21c1.57,8.43,3.39,16.81,5.06,25.22C502.32,279.72,503.28,279.91,505.12,279.45z"/>
		<path class="vol1_3_st0" d="M811.38,244.53c-2.96-0.51-5.71-0.53-8.02-1.53c-1.66-0.72-3.44-2.55-3.96-4.25
			c-1.3-4.32-2.8-8.87-2.65-13.27c0.48-13.98,1.45-27.95,2.73-41.87c0.38-4.11,2.05-8.22,3.77-12.04c1.68-3.72,4.65-5.79,9.27-5.58
			c9.42,0.42,18.86,0.21,28.28,0.53c2.44,0.08,6.1-1.6,6.45,3.76c1.3-1.55,2.07-2.46,2.96-3.51c0.35,0.54,0.65,0.86,0.79,1.24
			c1.93,5.04,5.86,8.18,10.26,10.87c2.84,1.74,4.89,4.35,5.24,7.46c0.97,8.63,1.58,17.35-0.1,25.95
			c-1.15,5.89-3.04,11.63-7.94,15.71c-6.25,5.21-12.33,10.83-20.29,13.23c-7.06,2.13-14.37,3.26-21.83,2.97
			c-1.59-0.06-2.22-0.66-2.24-2.31c-0.13-11.73-0.73-23.48-0.4-35.2c0.25-9.01,1.71-17.99,2.5-26.99c0.24-2.75,0.11-5.54-0.05-8.3
			c-0.03-0.59-0.89-1.14-1.37-1.7c-0.27,0.53-0.74,1.04-0.8,1.59c-0.7,7.29-1.48,14.58-1.96,21.88c-0.55,8.35-1.05,16.72-1.17,25.08
			c-0.11,7.68,0.32,15.38,0.5,23.07C811.4,242.2,811.38,243.07,811.38,244.53z M836.81,238.89c0-7.15-0.24-14.02,0.06-20.88
			c0.33-7.6,1.55-15.18,1.66-22.78c0.1-7.44,0.77-14.76,1.93-22.07c0.12-0.73,0.23-1.55,0.03-2.22c-0.17-0.56-0.81-0.99-1.24-1.47
			c-0.42,0.49-1.13,0.93-1.22,1.46c-0.69,4.5-1.46,9-1.83,13.53c-0.34,4.16,0.08,8.39-0.34,12.54c-1.14,11.23-2.11,22.45-1.96,33.75
			c0.02,1.79,0.05,3.6,0.33,5.36C834.46,237.59,835.13,238.95,836.81,238.89z"/>
		<path class="vol1_3_st0" d="M697.63,170.55c4.59-0.37,9.49-0.81,14.4-1.12c0.72-0.04,1.74,0.34,2.18,0.89c3.99,5.03,8.68,9.71,11.65,15.3
			c5.79,10.91,8.19,22.74,5.95,35.16c-0.54,3-1.86,5.7-4.26,7.72c-3.73,3.13-7.27,6.43-10.02,10.5c-1.97,2.91-4.75,4.21-8.21,4.21
			c-0.67,0-1.34,0.1-2.02,0.1c-5.27,0.01-5.29,0.01-6.53-5.26c-2.05-8.69-2.01-17.47-1.57-26.34c0.51-10.23,0.63-20.49,0.53-30.73
			C699.7,177.65,698.43,174.34,697.63,170.55z"/>
		<path class="vol1_3_st0" d="M697.84,241.39c-0.29,0.34-0.91,1.29-1.72,2.01c-0.62,0.55-1.47,1.15-2.23,1.17
			c-4.39,0.11-8.79,0.05-13.61,0.05c-0.45-3.68-1.25-7.65-1.38-11.63c-0.38-11.74-0.52-23.49-0.71-35.23
			c-0.1-5.99,0.02-11.98-0.18-17.96c-0.08-2.41-0.75-4.81-1.19-7.44c1.84-0.14,3.53-0.26,5.21-0.39c3.21-0.24,6.43-0.35,9.62-0.75
			c3.18-0.4,4.73,1.77,4.9,4.04c0.45,6.1,0.86,12.24,0.7,18.35c-0.21,8.22-1.43,16.44-1.36,24.65
			C695.94,225.85,697.12,233.42,697.84,241.39z"/>
		<path class="vol1_3_st0" d="M661.23,222.96c-0.45-6.16-1.01-12.32-1.3-18.49c-0.22-4.56-0.06-9.13-0.11-13.69
			c-0.04-3.67-0.31-7.34-0.19-11c0.19-5.7,0.57-6.01,6.08-6.59c2.16-0.23,4.34-0.23,6.49-0.49c1.43-0.17,2.17,0.35,2.3,1.71
			c0.48,5.12,1.26,10.23,1.33,15.35c0.19,13.24-0.09,26.49,0.15,39.73c0.08,4.45,1.08,8.89,1.85,13.31
			c0.34,1.97-0.09,2.93-2.16,2.62c-3-0.45-6.1-0.65-8.95-1.59c-4.07-1.36-5.82-4.82-6.01-8.92c-0.19-3.96-0.04-7.93-0.04-11.89
			C660.86,222.99,661.05,222.97,661.23,222.96z"/>
		<path class="vol1_3_st0" d="M811.93,163.45c0.46-1.63,0.75-2.99,1.24-4.27c1.17-3.07,2.36-6.13,3.68-9.14c1.08-2.45,2.31-4.84,3.55-7.22
			c1.25-2.38,3.21-3.57,5.98-3.54c5.67,0.06,11.35-0.07,17.01,0.06c3.03,0.07,3.35,0.61,3.36,3.72c0.03,6.13,0.05,12.27,0.13,18.4
			c0.02,1.95-0.54,2.67-2.74,2.57c-9.63-0.4-19.28-0.57-28.92-0.8C814.33,163.23,813.44,163.36,811.93,163.45z"/>
		<path class="vol1_3_st0" d="M695.11,246.29c-0.99,4.17-1.86,7.99-2.84,11.78c-0.12,0.46-0.81,1-1.3,1.09c-3.37,0.62-6.75,1.18-10.14,1.62
			c-0.58,0.07-1.67-0.41-1.8-0.85c-1.22-4.13-2.06-8.33-1.44-13.36c0.57,0.85,0.9,1.18,1.01,1.56c0.24,0.86,0.17,1.87,0.6,2.61
			c0.41,0.72,1.28,1.17,1.95,1.74c0.25-0.85,0.75-1.71,0.7-2.55c-0.05-0.81-0.65-1.59-1.26-2.96
			C685.56,246.75,690.11,246.53,695.11,246.29z"/>
		<path class="vol1_3_st0" d="M694.84,167.59c-5.12,0.51-9.64,0.99-14.17,1.39c-4.47,0.39-8.94,0.68-13.96,1.06
			c2.31-3.74,4.77-6.79,8.75-7.56c4.23-0.82,8.62-0.83,12.92-1.31c2.1-0.23,3.42,0.58,4.3,2.42
			C693.28,164.84,694,166.04,694.84,167.59z"/>
		<path class="vol1_3_st0" d="M507.59,297.21c-0.42-4.14-0.8-7.98-1.22-12.17c2.33,0,4.38-0.07,6.43,0.06c0.37,0.02,0.82,0.78,1.02,1.28
			c0.36,0.9,0.56,1.86,0.82,2.79c1.39,4.93,0.76,6.07-4.18,7.5C509.68,296.89,508.86,296.97,507.59,297.21z"/>
		<path class="vol1_3_st0" d="M831.16,244.65c-0.49,4.88-1.02,5.53-5.29,6.48c-2.33,0.52-4.67,0.97-6.99,1.52
			c-1.46,0.34-2.12-0.24-2.2-1.66c-0.08-1.62-0.16-3.24-0.24-4.78C821.47,245.68,826.3,245.16,831.16,244.65z"/>
		<path class="vol1_3_st0" d="M510.34,173.9c0.94-1.11,1.69-2.81,2.87-3.22c2.25-0.78,4.76-1.09,7.17-1.11c1.84-0.02,3.53,3.67,2.52,5.17
			c-0.27,0.4-1.15,0.57-1.73,0.53c-3.47-0.21-6.93-0.52-10.39-0.79C510.63,174.29,510.48,174.09,510.34,173.9z"/>
		<path class="vol1_3_st0" d="M689.25,568.42c-1.83-4.47-5.73-6.64-9.87-8.12c-7.6-2.71-14.27-6.83-19.95-12.43
			c-1.65-1.63-2.5-4.14-3.46-6.36c-0.16-0.36,0.87-1.6,1.57-1.9c8.46-3.6,15.78-9.06,23.35-14.11c0.25-0.17,0.55-0.31,0.71-0.54
			c2.79-3.99,7.04-4.88,11.41-4.95c9.93-0.16,19.87,0.05,29.81-0.02c12.88-0.09,25.75-0.48,38.63-0.41c9.49,0.05,18.98,0.57,28.46,1
			c9.92,0.45,19.7-0.18,29.32-2.84c2.44-0.68,4.94-1.25,7.45-1.62c8.16-1.2,15.74-3.99,22.9-8.02c1.62-0.91,3.58-1.38,4.93-2.57
			c5.49-4.8,11.05-9.56,16.11-14.8c4.83-5.01,9.21-5.9,15.68-3.83c6.65,2.12,7.62,7.38,8.83,12.76c0.57,2.54,0.7,5.18,1.07,7.77
			c0.57,3.95-1.87,6.13-4.78,7.88c-5.69,3.41-11.62,6.43-17.16,10.07c-3.57,2.35-7.01,5.16-9.75,8.4c-1.8,2.13-2.71,5.32-3.21,8.18
			c-1.24,7.22-2.04,14.51-2.97,21.78c-0.71,5.56-0.96,11.2-2.09,16.67c-1.39,6.69-2.41,13.64-6.65,19.33
			c-1.32,1.78-3.17,3.42-5.13,4.43c-3.51,1.81-7.25,3.19-10.97,4.54c-1.79,0.65-3.96,1.5-5.6,1.02c-1.63-0.47-3.17-2.29-4.1-3.89
			c-2.55-4.38-3.58-9.32-4.22-14.29c-0.13-0.97,0.72-2.07,1.22-3.37c-2.61-0.85-1.44-3.57-1.64-5.85c-0.33-3.8-0.61-7.6-1.1-11.38
			c-0.2-1.56-0.43-2.89,0.93-4.09c0.39-0.34,0.24-1.29,0.34-1.95c-0.6,0.11-1.2,0.25-1.81,0.32c-0.77,0.09-1.88,0.48-2.26,0.12
			c-2.74-2.62-6.13-3.77-9.71-4.24c-11.9-1.56-23.84-2.56-35.75-0.28c-10.44,2.01-19.95,6.34-28.3,12.91
			c-4.04,3.18-5.11,7.98-5.16,12.9c-0.03,2.98,0.48,5.97,0.51,8.96c0.05,5.69-0.11,11.33-3.1,16.5c-2.52,4.36-10.33,8.82-15.31,8.24
			c-3.77-0.44-7.6-0.86-11.24-1.87c-4.55-1.26-7.98-3.97-11.2-7.8c-3.03-3.6-4.49-7.34-5.07-11.52c-0.57-4.12-0.12-8.37-0.22-12.55
			c-0.11-4.53-0.38-9.06-0.48-13.59c-0.02-0.9,0.48-1.81,0.69-2.72c0.14-0.62,0.2-1.26,0.3-1.89
			C690.58,568.42,689.98,568.42,689.25,568.42z"/>
		<path class="vol1_3_st0" d="M715.03,458.88c-1.46,3.76-2.85,7.93-4.68,11.9c-1.36,2.96-3.51,5.57-4.87,8.53c-1.33,2.9-2.26,6.01-3.09,9.1
			c-1.46,5.47-4.64,10.02-7.59,14.68c-3.51,5.55-6.97,11.13-10.79,16.46c-1.7,2.37-3.99,4.49-6.41,6.14
			c-5.36,3.64-10.78,7.3-16.54,10.26c-9.84,5.05-20.03,9.33-31.03,11.32c-2.11,0.38-4.18,0.98-6.27,1.47
			c-0.05,0.01-0.12-0.08-0.24-0.17c2.52-7.8,1.84-15.88,1.82-23.9c0-1.83-1.07-2.71-2.72-2.41c-4.98,0.91-9.99,1.75-14.87,3.08
			c-3.72,1.01-7.2,2.87-10.88,4.08c-3.14,1.04-4.16,3.46-4.6,6.26c-0.71,4.51-1.12,9.05,0.24,13.54c0.08,0.25-0.04,0.56-0.09,1.1
			c-4.01-0.19-7.94-0.49-11.88-0.54c-8.21-0.1-16.25-1.52-24.11-3.59c-7.97-2.11-16.28-3.83-22.71-9.57c-2-1.78-3.36-4.29-4.92-6.53
			c-3.83-5.52-7.9-10.9-11.33-16.67c-4.71-7.91-6.08-16.77-5.79-25.88c0.17-5.38,0.53-10.75,0.84-16.12
			c0.05-0.88,0.14-1.86,0.56-2.59c0.29-0.52,1.29-1.12,1.76-0.97c5.91,1.78,11.87,1.96,17.95,1.12c8.55-1.18,17.14-0.68,25.74-0.6
			c4.76,0.04,9.56-0.59,14.27-1.35c12.19-1.96,24.41-3.73,36.75-4.15c8.66-0.29,17.34,0.3,26.01,0.14
			c7.91-0.15,15.81-0.78,23.72-1.21c4.84-0.26,9.68-0.61,14.53-0.8c6.94-0.26,13.89-0.29,20.82-0.65
			C701.46,460.01,708.28,459.38,715.03,458.88z M653.49,485.27c-0.15-1.39-0.24-2.58-0.42-3.75c-0.19-1.25-0.36-2.52-0.71-3.73
			c-1.04-3.61-4.8-6.28-7.73-5.24c-1.7,0.6-3.57,1.57-4.64,2.94c-4.73,6.03-5.63,13-4.13,20.34c0.15,0.74,0.99,1.45,1.68,1.95
			c1.37,1.01,2.87,1.85,4.29,2.79c3.45,2.28,7.04,1.34,8.99-2.23C653.1,494.17,653.12,489.61,653.49,485.27z M586.05,493.82
			c0.47-5.71-1.94-10.5-4.74-15.14c-0.38-0.64-1.15-1.22-1.87-1.45c-2.91-0.91-6.61,0.71-8.1,3.32c-2.54,4.44-3.29,9.11-2.59,14.21
			c0.57,4.14,1.19,7.59,5.74,9.62c5.83,2.61,10.65-1.02,11.12-6.12C585.74,496.79,585.9,495.31,586.05,493.82z M610.16,500.36
			c-0.26,0.21-1.42,0.67-1.53,1.31c-0.24,1.43-0.51,3.73,0.24,4.26c1.43,1.02,3.56,1.09,5.42,1.47c0.17,0.04,0.54-0.48,0.69-0.79
			C616.18,504.03,613.71,500.3,610.16,500.36z"/>
		<path class="vol1_3_st0" d="M717.41,430.3c0,2.7,0.13,5.73-0.03,8.75c-0.28,5.22-0.83,10.43-1.09,15.66c-0.09,1.76-1.15,1.71-2.32,2.02
			c-8.51,2.19-17.23,1.8-25.89,2c-8.67,0.2-17.34,0.15-26.01,0.4c-8.59,0.25-17.2,1.37-25.74,0.97
			c-13.49-0.64-26.87-0.18-40.24,1.41c-8.3,0.99-16.55,2.4-24.87,3.22c-5.94,0.58-11.96,0.39-17.93,0.72
			c-8.28,0.45-16.54,1.29-24.82,1.48c-4.05,0.1-8.14-0.85-12.2-1.4c-1.73-0.23-2.57-1.51-2.8-3.1c-0.38-2.74-0.56-5.5-0.94-8.24
			c-0.26-1.81,0.47-2.65,2.21-2.8c5.07-0.43,10.13-0.92,15.2-1.29c7.38-0.54,14.76-1,22.15-1.49c9.11-0.61,18.23-1,27.31-1.9
			c5.32-0.53,10.58-1.79,15.83-2.89c4.96-1.04,9.84-2.5,14.82-3.44c11.28-2.14,22.56-4.29,33.91-6c5.89-0.89,11.92-0.82,17.88-1.27
			c2.83-0.21,5.64-0.79,8.46-0.86c5.15-0.13,10.31,0.23,15.45-0.02C696.18,431.74,706.59,430.98,717.41,430.3z M586.45,456.84
			c3.26,0.09,5.85-0.07,7.86-1.82c1.65-1.43,2.83-1.09,4.54-0.13c1.72,0.97,3.74,1.44,5.69,1.93c0.5,0.13,1.2-0.52,1.81-0.82
			c-0.45-0.48-0.82-1.14-1.37-1.4c-1.2-0.58-2.58-0.81-3.74-1.45c-1.12-0.62-2.06-1.57-3.08-2.38c0.11-0.21,0.23-0.41,0.34-0.62
			c1.31-0.17,2.67-0.19,3.93-0.54c1.27-0.35,2.44-1.03,3.66-1.56c-0.05-0.32-0.09-0.63-0.14-0.95c-0.78-0.15-1.58-0.49-2.35-0.42
			c-1.02,0.1-2.04,0.44-3.01,0.82c-1.39,0.56-2.21,0.18-2.85-1.17c-0.75-1.58-1.96-1.83-3.51-0.72c0.38,0.91,0.74,1.74,1.17,2.74
			c-2.39,0.42-4.52,0.71-6.61,1.2c-0.53,0.13-0.91,0.89-1.36,1.36c0.56,0.15,1.12,0.45,1.67,0.43c1.82-0.08,3.63-0.27,5.68-0.44
			C593.35,454.82,588.8,453.69,586.45,456.84z M607.03,445.51c0.07,0.21,0.14,0.42,0.2,0.63c1.29,0.29,2.57,0.7,3.87,0.8
			c0.29,0.02,0.67-1.03,1.01-1.59c-1.12-0.26-2.23-0.67-3.35-0.73C608.2,444.59,607.6,445.2,607.03,445.51z"/>
		<path class="vol1_3_st0" d="M710.95,385.37c0.49,1.92,1.01,3.69,1.38,5.49c1.63,7.82,3.25,15.64,4.81,23.48
			c0.62,3.08,1.18,6.17,1.59,9.28c0.31,2.37-1.34,4.01-3.76,4.33c-13.09,1.77-26.24,1.64-39.4,1.63c-5.5-0.01-11.01,0.73-16.51,1.2
			c-5.73,0.49-11.47,0.9-17.17,1.67c-6.5,0.87-12.98,1.91-19.41,3.21c-8.33,1.69-16.56,3.87-24.9,5.53
			c-9.23,1.84-18.5,3.45-27.95,3.89c-5.97,0.28-11.91,1.08-17.87,1.49c-10.2,0.69-20.41,1.11-30.6,1.94
			c-3.66,0.3-7.25,1.44-11.25,2.28c-2.96-10.94-2.31-22.78-3.27-34.93c3.37,1.24,6.43,2.27,9.41,3.49
			c9.49,3.88,18.67,8.43,27.23,14.09c3.3,2.19,6.09,2.71,9.84,0.67c6.6-3.61,13.88-5.41,21.39-6.04c9.91-0.83,19.82-1.9,29.74-2.21
			c11.04-0.34,22.1,0.21,33.14,0.09c5.52-0.06,11.03-0.77,16.54-1.17c0.97-0.07,1.94-0.08,2.9-0.18c3.28-0.32,6.25-0.9,8.82-3.56
			c3.93-4.06,8.61-7.38,12.62-11.36c9.46-9.39,20.64-16.46,31.59-23.84C710.12,385.66,710.41,385.59,710.95,385.37z M703.68,421.01
			c0.32,0.14,0.65,0.28,0.97,0.42c0.55-0.83,1.65-1.71,1.57-2.47c-0.43-4.37-1.14-8.71-1.73-13.07c-0.17-1.26-0.08-2.56-0.38-3.78
			c-0.4-1.61-1.51-2.02-2.88-1.01c-3.24,2.39-6.6,4.64-9.58,7.33c-2.3,2.08-4.17,4.67-6.04,7.18c-0.48,0.64-0.22,1.84-0.31,2.78
			c0.97-0.33,1.95-0.65,2.91-0.99c0.12-0.04,0.21-0.21,0.3-0.32c1.9-2.44,3.65-5.03,5.76-7.28c2.03-2.16,4.43-3.97,7.11-6.32
			C702.23,409.85,702.96,415.43,703.68,421.01z M519.25,433.48c1.04,0.58,1.67,0.93,2.3,1.28c3.78,2.1,7.53,4.24,11.36,6.24
			c0.6,0.31,1.99,0.27,2.24-0.11c0.68-1.03-0.13-1.63-1.12-2.15c-3.73-1.98-7.32-4.26-11.15-6.04c-1.95-0.91-3.8-2.85-6.56-1.8
			c0.58,4.07,1.16,8.08,1.73,12.09c0.3,0,0.59-0.01,0.89-0.01C520.64,440.16,519.87,437.08,519.25,433.48z"/>
		<path class="vol1_3_st0" d="M688.07,574.88c0.21,7.45,0.47,14.29,0.56,21.13c0.06,4.82,1.16,9.32,3.55,13.47
			c1.8,3.15,0.14,7.42-3.47,7.92c-5.84,0.81-11.71,1.5-17.59,1.78c-8.21,0.4-16.45,0.27-24.67,0.6c-5.52,0.22-11.04,0.79-16.55,1.3
			c-2.63,0.24-5.06-0.11-6.46-2.53c-1.64-2.83-1.5-5.92,0.53-8.41c1.3-1.6,3.23-3.13,5.16-3.7c6.8-1.99,13.66-3.84,20.61-5.18
			c7.46-1.44,14.88-3.16,21.3-7.16c3.96-2.47,7.2-6.22,10.37-9.75C683.81,581.66,685.61,578.41,688.07,574.88z"/>
		<path class="vol1_3_st0" d="M815.47,570.5c0.06,0.13,0.36,0.5,0.39,0.9c0.47,5.28,0.93,10.56,1.28,15.85c0.04,0.67-0.41,1.59-0.93,2.06
			c-2.92,2.59-6.1,4.73-9.95,5.8c-8.79,2.44-17.73,3.5-26.83,2.87c-2.93-0.2-5.69-1.06-7.9-3.28c-1.49-1.5-1.44-3.07-0.57-4.67
			c1.88-3.48,4.86-4.82,8.84-4.95c5.03-0.16,10.15-0.42,15.02-1.55c3.21-0.74,6.18-2.9,9.03-4.76
			C807.77,576.22,811.47,573.37,815.47,570.5z"/>
		<path class="vol1_3_st0" d="M605.46,550.73c-3.2,0-6.02,0.12-8.82-0.1c-0.59-0.05-1.51-1.3-1.55-2.03c-0.22-4.83-0.27-9.67-0.26-14.5
			c0-0.64,0.53-1.63,1.08-1.88c7.43-3.34,15.04-6.18,23.18-7.26c0.66-0.09,1.35-0.03,2.01-0.1c1.42-0.15,1.88,0.6,1.81,1.87
			c-0.18,3.65-0.2,7.32-0.57,10.95c-0.34,3.24-1,6.44-1.66,9.64c-0.37,1.79-1.55,2.83-3.48,2.9c-2.31,0.09-4.63,0.26-6.94,0.38
			c-1.41,0.08-1.64-0.77-1.82-1.97c-0.52-3.4-1.21-6.77-1.85-10.14c-0.08-0.44-0.16-0.94-0.42-1.26c-0.44-0.53-1.03-0.95-1.55-1.41
			c-0.32,0.69-0.96,1.41-0.91,2.08c0.12,2,0.51,3.99,0.8,5.98C604.8,546.06,605.11,548.25,605.46,550.73z"/>
		<path class="vol1_3_st0" d="M595.88,552.85c2.73,0,4.98,0.19,7.18-0.05c2.4-0.26,2.83,0.97,2.78,2.87c-0.01,0.37-0.06,0.75-0.08,1.12
			c-0.08,1.51,0.99,2.13,2.13,1.94c0.58-0.1,1.28-1.28,1.37-2.03c0.16-1.28-0.12-2.61-0.22-4.14c1.77-0.08,3.25-0.11,4.72-0.24
			c1.39-0.12,2.77-0.35,4.61-0.58c-0.39,0.99-0.54,1.78-0.96,2.37c-3.01,4.26-7.05,7.33-11.72,9.49c-1.49,0.69-3.37,0.82-5.03,0.69
			c-0.84-0.07-2.03-1.14-2.31-2C597.36,559.25,596.71,556.12,595.88,552.85z"/>
		<path class="vol1_3_st0" d="M794.18,284.43c2.82-3.56,6.7-4.43,10.77-4.72c1.27-0.09,2.32,1.77,1.82,2.91
			C804.74,287.26,797.93,288.36,794.18,284.43z"/>
		<path class="vol1_3_st0" d="M799.03,379.3c-0.13,2.6-0.23,4.69-0.35,6.77c-0.02,0.36-0.15,0.73-0.25,1.08c-0.93,3.08-3.64,5.72-5.38,5.25
			c-1.54-0.42-3.53-4.98-2.67-7.34c1.02-2.82,2.53-5.5,4.17-8.03c0.55-0.84,2.13-1.02,3.24-1.5c0.42,1.06,0.86,2.11,1.23,3.19
			C799.12,379.04,799.03,379.45,799.03,379.3z"/>
		<path class="vol1_3_st0" d="M866.4,316.01c-0.41,1.37-0.82,2.75-1.22,4.12c-0.27,0.08-0.53,0.16-0.8,0.24c-0.65-0.93-2.04-2.24-1.8-2.71
			c0.52-1.02,1.88-1.6,2.89-2.37C865.78,315.54,866.09,315.77,866.4,316.01z"/>
		<path class="vol1_3_st0" d="M698.43,279.6c-0.01,2.4-1.36,4.06-2.88,3.91c-0.43-0.04-1.23-1.1-1.12-1.31c0.75-1.44,1.69-2.79,2.57-4.16
			C697.59,278.67,698.16,279.3,698.43,279.6z"/>
		<path class="vol1_3_st0" d="M711.97,376.53c1.24-0.99,2.18-1.74,3.33-2.66C715.44,376.72,715.08,377.02,711.97,376.53z"/>
		<path class="vol1_3_st0" d="M749.95,449.2c-0.44,0.94-0.88,1.87-1.32,2.81c-0.24-0.01-0.48-0.02-0.72-0.03c-0.15-1-0.4-2-0.34-2.98
			c0.01-0.18,1.3-0.28,2-0.42C749.7,448.78,749.82,448.99,749.95,449.2z"/>
		<path class="vol1_3_st0" d="M697.31,310.85c-0.15-1.72-0.32-3.25-0.34-4.79c0-0.17,1.16-0.65,1.44-0.46
			C700.39,306.88,700.03,309.58,697.31,310.85z"/>
		<path d="M526.22,280.19c-1.23-0.56-1.44-1.51-1.62-2.83c-0.58-4.21-1.6-8.36-2.22-12.57c-0.73-4.95-1.33-9.93-1.78-14.91
			c-0.7-7.67-1.31-15.34-1.81-23.02c-0.22-3.36-0.02-6.74-0.1-10.1c-0.27-10.69-0.59-21.37-0.82-32.06
			c-0.01-0.62,0.6-1.25,0.93-1.88c0.4,0.6,1.13,1.19,1.15,1.81c0.3,6.65,0.45,13.3,0.73,19.95c0.47,11.21,0.83,22.44,1.59,33.63
			c0.59,8.72,1.66,17.42,2.62,26.11c0.26,2.37,1.16,4.67,1.34,7.04c0.22,2.94-0.01,5.92-0.05,8.89
			C526.17,280.26,526.22,280.19,526.22,280.19z"/>
		<path d="M505.12,279.45c-1.84,0.47-2.81,0.27-3.13-1.35c-1.67-8.41-3.48-16.79-5.06-25.22c-2.17-11.63-3.07-23.36-2.7-35.21
			c0.13-4.31-0.69-8.64-0.78-12.97c-0.14-7.01-0.06-14.03,0.02-21.05c0.01-0.53,0.72-1.05,1.1-1.57c0.27,0.59,0.76,1.17,0.77,1.76
			c0.19,7.91,0.25,15.82,0.47,23.73c0.2,7.18,0.19,14.38,0.92,21.51c0.97,9.49,2.41,18.94,3.97,28.35
			C501.92,264.78,503.62,272.05,505.12,279.45z"/>
		<path d="M836.81,238.89c-1.69,0.06-2.35-1.3-2.58-2.78c-0.28-1.76-0.3-3.57-0.33-5.36c-0.15-11.3,0.83-22.52,1.96-33.75
			c0.42-4.15,0-8.38,0.34-12.54c0.37-4.53,1.14-9.03,1.83-13.53c0.08-0.54,0.8-0.98,1.22-1.46c0.43,0.48,1.07,0.91,1.24,1.47
			c0.2,0.68,0.09,1.49-0.03,2.22c-1.16,7.31-1.83,14.64-1.93,22.07c-0.1,7.6-1.32,15.18-1.66,22.78
			C836.57,224.86,836.81,231.74,836.81,238.89z"/>
		<path d="M653.49,485.27c-0.37,4.34-0.39,8.9-2.67,13.07c-1.95,3.56-5.54,4.5-8.99,2.23c-1.42-0.94-2.92-1.78-4.29-2.79
			c-0.68-0.5-1.52-1.21-1.68-1.95c-1.5-7.35-0.6-14.31,4.13-20.34c1.07-1.37,2.94-2.34,4.64-2.94c2.93-1.03,6.69,1.64,7.73,5.24
			c0.35,1.21,0.52,2.48,0.71,3.73C653.25,482.69,653.34,483.88,653.49,485.27z"/>
		<path d="M586.05,493.82c-0.15,1.48-0.3,2.96-0.44,4.44c-0.48,5.1-5.29,8.73-11.12,6.12c-4.54-2.03-5.17-5.47-5.74-9.62
			c-0.7-5.1,0.05-9.77,2.59-14.21c1.49-2.61,5.19-4.23,8.1-3.32c0.71,0.22,1.48,0.81,1.87,1.45
			C584.11,483.33,586.52,488.12,586.05,493.82z"/>
		<path d="M610.16,500.36c3.55-0.06,6.02,3.67,4.82,6.25c-0.15,0.32-0.51,0.83-0.69,0.79c-1.86-0.38-3.99-0.45-5.42-1.47
			c-0.75-0.53-0.48-2.83-0.24-4.26C608.74,501.03,609.9,500.57,610.16,500.36z"/>
		<path d="M586.45,456.84c2.35-3.15,6.9-2.01,8.3-5.93c-2.05,0.17-3.86,0.36-5.68,0.44c-0.55,0.02-1.11-0.28-1.67-0.43
			c0.45-0.47,0.83-1.23,1.36-1.36c2.09-0.49,4.22-0.79,6.61-1.2c-0.43-1.01-0.78-1.84-1.17-2.74c1.55-1.11,2.75-0.86,3.51,0.72
			c0.65,1.35,1.46,1.73,2.85,1.17c0.96-0.38,1.99-0.72,3.01-0.82c0.76-0.08,1.56,0.26,2.35,0.42c0.05,0.32,0.09,0.63,0.14,0.95
			c-1.21,0.53-2.39,1.21-3.66,1.56c-1.26,0.35-2.61,0.37-3.93,0.54c-0.11,0.21-0.23,0.41-0.34,0.62c1.02,0.81,1.96,1.76,3.08,2.38
			c1.16,0.64,2.54,0.87,3.74,1.45c0.55,0.26,0.92,0.92,1.37,1.4c-0.61,0.29-1.31,0.94-1.81,0.82c-1.94-0.48-3.97-0.96-5.69-1.93
			c-1.7-0.96-2.89-1.3-4.54,0.13C592.3,456.77,589.71,456.93,586.45,456.84z"/>
		<path d="M607.03,445.51c0.58-0.32,1.17-0.92,1.73-0.89c1.13,0.06,2.24,0.47,3.35,0.73c-0.34,0.56-0.71,1.61-1.01,1.59
			c-1.3-0.1-2.58-0.5-3.87-0.8C607.16,445.93,607.09,445.72,607.03,445.51z"/>
		<path d="M703.68,421.01c-0.73-5.58-1.45-11.16-2.28-17.55c-2.68,2.35-5.08,4.16-7.11,6.32c-2.11,2.25-3.85,4.84-5.76,7.28
			c-0.09,0.12-0.18,0.28-0.3,0.32c-0.97,0.34-1.94,0.66-2.91,0.99c0.08-0.94-0.17-2.13,0.31-2.78c1.87-2.51,3.74-5.1,6.04-7.18
			c2.97-2.69,6.34-4.94,9.58-7.33c1.36-1.01,2.48-0.6,2.88,1.01c0.3,1.22,0.21,2.53,0.38,3.78c0.59,4.36,1.3,8.7,1.73,13.07
			c0.07,0.77-1.02,1.65-1.57,2.47C704.33,421.29,704.01,421.15,703.68,421.01z"/>
		<path d="M519.25,433.48c0.62,3.6,1.4,6.68-0.31,9.49c-0.3,0-0.59,0.01-0.89,0.01c-0.57-4.01-1.15-8.02-1.73-12.09
			c2.75-1.04,4.6,0.89,6.56,1.8c3.82,1.78,7.41,4.06,11.15,6.04c0.99,0.53,1.8,1.12,1.12,2.15c-0.25,0.38-1.64,0.42-2.24,0.11
			c-3.83-2-7.58-4.14-11.36-6.24C520.91,434.41,520.28,434.06,519.25,433.48z"/>
	</g>
</g>
</svg>
