<?xml version="1.0" encoding="utf-8"?>
<!-- Generator: Adobe Illustrator 26.3.1, SVG Export Plug-In . SVG Version: 6.00 Build 0)  -->
<svg version="1.1" xmlns="http://www.w3.org/2000/svg" xmlns:xlink="http://www.w3.org/1999/xlink" x="0px" y="0px"
	 viewBox="0 0 1366 768" style="enable-background:new 0 0 1366 768;" xml:space="preserve">
<style type="text/css">
	.vol1_3_st0{fill:#FFFFFF;}
	.vol1_3_st1{fill:none;stroke:#ffffff;stroke-width:85.0394;stroke-miterlimit:10;}
	.vol1_3_st2{fill:none;stroke:#ffffff;stroke-width:51.0236;stroke-miterlimit:10;}
	.vol1_3_st3{fill:none;stroke:#ffffff;stroke-width:39.685;stroke-miterlimit:10;}
	.vol1_3_st4{fill:none;stroke:#ffffff;stroke-width:34.0157;stroke-miterlimit:10;}
	.vol1_3_st5{fill:none;stroke:#ffffff;stroke-width:22.6772;stroke-miterlimit:10;}
	.vol1_3_st6{fill:none;stroke:#ffffff;stroke-width:19.8425;stroke-miterlimit:10;}
	.vol1_3_st7{fill:none;stroke:#ffffff;stroke-width:25.5118;stroke-miterlimit:10;}
	.vol1_3_st8{fill:none;stroke:#ffffff;stroke-width:209.7638;stroke-miterlimit:10;}
</style>
<g id="base">
	<g>
		<path class="vol1_3_st0" d="M508,227.15c0-19.72,0-39.43,0-59.15c116.63,0,233.27,0,349.92,0c0,166.23,0,332.47,0,498.75
			c-116.63,0-233.27,0-349.92,0c0-146.07,0-292.13,0-438.2c5.24,0.29,10.49,0.57,15.89,0.86c-0.11,0.36-0.19,0.94-0.45,1.41
			c-3.28,5.93-4.7,12.25-3.92,18.99c0.85,7.32,1.82,14.63,2.72,21.94c0.94,7.56,1.8,15.14,2.82,22.69
			c0.56,4.15,2.55,7.57,5.96,10.09c3.17,2.34,6.55,4.2,10.51,4.81c1.35,0.21,2.27,0.6,2.24,2.38c-0.04,2.47,0.27,4.96,0.59,7.43
			c0.23,1.81,0.99,2.38,2.74,2c1.57-0.34,3.14-0.86,4.59-1.56c2.63-1.28,2.81-1.79,2.22-4.66c-0.36-1.73-0.8-3.45-1.22-5.23
			c0.54-0.12,0.82-0.18,1.09-0.25c4.36-1.18,8.75-2.28,13.08-3.57c2.04-0.61,4.01-1.75,4.78-3.8c1.16-3.07,2.57-6.1,2.42-9.56
			c-0.13-3.08-0.08-6.18,0.14-9.26c0.58-8.06,1.13-16.13,2.04-24.16c0.45-3.95,1.25-7.97,2.63-11.68
			c2.27-6.09,5.21-11.93,7.74-17.92c0.66-1.57,1.55-1.93,3.16-1.95c8.66-0.1,17.33-0.21,25.99-0.61c6.27-0.29,12.51-1.05,18.77-1.56
			c6.54-0.54,13.08-1.06,19.62-1.53c3.15-0.23,6.32-0.32,9.19-0.47c-0.13,3.4-0.26,6.58-0.35,9.75c-0.03,1.16,0.06,2.33,0.06,3.5
			c0,3.61-0.08,7.23,0.01,10.84c0.09,3.83,0.44,7.66,0.51,11.5c0.07,4.13-0.14,8.26-0.08,12.39c0.06,3.87,2.56,7.07,6.27,8.11
			c2.21,0.62,4.48,1.02,6.51,1.47c0.47,3.15,1.03,6.28,1.36,9.44c0.15,1.46,0.83,2.28,2.12,2.22c2.53-0.1,5.05-0.4,7.57-0.73
			c4.2-0.55,4.24-0.47,5.33-6.15c0.06-0.29,0.02-0.59,0.09-0.87c0.34-1.29,0.6-2.61,1.07-3.85c0.54-1.42,1.57-1.53,2.58-0.42
			c0.31,0.34,0.7,0.61,1.32,1.14c-0.01-2.03,0.98-2.45,2.38-2.42c0.87,0.01,1.74-0.1,2.61-0.16c3.48-0.26,6.46-1.28,8.65-4.36
			c1.6-2.25,3.5-4.42,5.69-6.08c3.76-2.87,5.4-6.65,5.55-11.11c0.12-3.52-0.13-7.08-0.48-10.59c-0.5-5.09-2.24-9.91-4.47-14.42
			c-1.51-3.06-4.08-5.6-6.17-8.37c-0.99-1.31-1.98-2.61-2.97-3.92c0.08-0.19,0.15-0.39,0.23-0.58c22.66-0.96,45.3-2.41,68.41-2.36
			c-0.96,1.2-1.64,1.97-2.24,2.79c-3.23,4.45-3.75,9.7-4.25,14.91c-0.57,5.93-1.04,11.88-1.41,17.83c-0.4,6.28-0.86,12.59,0.64,18.8
			c0.58,2.42,1.5,4.69,3.63,6.39c1.8,1.44,3.82,1.25,5.79,1.46c3.37,0.36,3.37,0.28,4,3.71c0.23,1.26,2.64,3.37,3.91,3.26
			c1.73-0.15,3.45-0.63,5.18-0.66c4.07-0.06,6.34-1.98,6.83-6.04c0.16-1.31,1.04-1.75,2.26-2.01c1.75-0.37,3.52-0.8,5.15-1.52
			c4.88-2.17,8.81-5.76,13.03-8.93c3.92-2.95,5.79-7,6.89-11.57c1.66-6.89,1.22-13.81,0.53-20.79c-0.4-4.13-2.2-7.04-5.57-9.27
			c-2.36-1.56-4.87-3.04-6.07-5.84c-0.17-0.41-0.31-0.84-0.46-1.26c0.47-0.11,0.94-0.32,1.41-0.33c5.92-0.16,11.85-0.26,17.77-0.43
			c4.65-0.13,9.29-0.38,13.93-0.5c3.11-0.08,6.22-0.01,9.89-0.01c-0.66-0.51-1.02-0.95-1.47-1.09c-0.71-0.21-1.47-0.22-2.22-0.29
			c-2.94-0.28-5.88-0.75-8.83-0.77c-3.93-0.03-7.87,0.33-11.8,0.46c-5.75,0.19-11.5,0.35-17.25,0.48c-2.9,0.07-4.25-1.37-4.26-4.26
			c-0.02-4.54-0.17-9.08-0.14-13.62c0.01-1.73-0.89-2.34-2.34-2.62c-6.12-1.15-12.24-0.99-18.37-0.13
			c-1.25,0.17-2.06,0.76-2.78,1.82c-3.28,4.83-4.92,10.4-6.96,15.76c-0.7,1.83-1.5,2.25-3.26,2.17c-4.24-0.21-8.49-0.44-12.73-0.3
			c-9.29,0.3-18.58,0.89-27.87,1.25c-6.1,0.24-12.22,0.14-18.31,0.47c-7.6,0.41-15.19,1.06-22.78,1.72
			c-1.94,0.17-3.07-0.2-3.81-2.21c-0.98-2.64-2.71-4.61-6.02-4.11c-1.43,0.22-2.9,0.16-4.34,0.33c-3.48,0.42-7.19,0.21-9.97,2.92
			c-1.32,1.29-2.39,2.84-3.72,4.13c-0.63,0.61-1.56,1.21-2.39,1.28c-8.21,0.69-16.44,1.27-24.66,1.89
			c-5.85,0.44-11.71,0.94-17.56,1.36c-6.79,0.48-13.58,1-20.38,1.31c-4.41,0.2-8.84,0.1-13.26,0.05c-0.45-0.01-0.95-0.54-1.33-0.92
			c-0.32-0.32-0.52-0.77-0.77-1.16c-0.43,0.32-1.07,0.56-1.24,0.99c-0.37,0.91-0.87,0.95-1.75,0.9c-3.66-0.2-7.33-0.32-10.99-0.35
			c-4.1-0.03-8.21,0.09-12.31,0.11c-1.15,0.01-1.88-0.24-1.95-1.77c-0.12-2.62-1.35-4.22-3.16-4.41c-3.53-0.37-6.77,0.12-9.31,3.05
			c-0.81,0.93-2.09,1.66-3.29,2.01c-2.55,0.76-5.19,1.24-7.81,1.77c-2.5,0.51-5,1.29-7.52,1.37
			C522.06,227.18,515.03,227.11,508,227.15z M686.21,491.92c0.09-0.43,0.06-0.8,0.23-1.05c2.54-4.02,5.25-7.95,7.63-12.06
			c2.14-3.71,4.45-7.46,5.73-11.49c1.23-3.88,2.7-7.48,4.87-10.89c1.1-1.73,1.73-3.79,2.44-5.74c0.85-2.34,1.34-4.84,3.37-6.58
			c0.3-0.26,0.46-0.82,0.47-1.24c0.25-5.7,0.49-11.4,0.68-17.11c0.04-1.26-0.28-2.51,0.95-3.48c0.29-0.23,0.33-0.98,0.25-1.46
			c-0.66-4-1.33-8-2.09-11.99c-0.93-4.83-1.94-9.65-2.96-14.46c-0.48-2.27-0.98-4.55-1.62-6.78c-0.56-1.94-1.38-2.15-3-0.95
			c-0.19,0.14-0.37,0.28-0.57,0.41c-7.5,5.13-15.4,9.68-22.02,16.04c-3.94,3.77-8.18,7.23-12.2,10.92c-1.85,1.7-3.87,2.6-6.39,2.58
			c-1.56-0.01-3.14,0.18-4.68,0.42c-8.3,1.32-16.62,0.35-24.93,0.33c-2.9-0.01-5.8-0.22-8.68-0.05c-5.39,0.32-10.78,0.78-16.15,1.32
			c-5.42,0.55-10.91,0.91-16.22,2.04c-4.03,0.85-7.84,2.77-11.76,4.18c-0.45,0.16-1.03,0.24-1.46,0.09
			c-0.93-0.32-1.85-0.71-2.67-1.24c-9.05-5.8-18.74-10.27-28.77-14.04c-1.95-0.73-2.7-0.28-2.53,1.79
			c0.61,7.55-0.06,15.2,1.73,22.64c0.67,2.8,1.71,5.5,2.57,8.25c0.15,0.49,0.34,1.01,0.36,1.51c0.08,2.56,0.5,5.04-0.09,7.71
			c-1.6,7.19-1.68,14.57-1.18,21.9c0.43,6.28,2.08,12.26,5.68,17.55c2.52,3.71,5.14,7.34,7.52,11.13c1.98,3.15,4.09,6.1,7.56,7.7
			c1.94,0.9,3.96,1.62,5.94,2.41c6.19,2.48,12.66,3.91,19.24,4.66c5.76,0.65,11.57,0.98,17.37,1.24c1.65,0.07,2.11,0.88,2.42,2.12
			c0.46,1.85,0.75,3.76,1.37,5.56c0.58,1.7,1.39,3.5,3.52,3.63c1.42,0.08,3,0.03,4.27-0.52c4.9-2.11,9.07-5.24,11.86-9.88
			c1.01-1.68,2.34-2.39,4.14-2.72c5.55-1.01,10.96-2.54,16.19-4.7c1.96-0.81,3.96-1.54,6.1-2.37c0.2,1.3,0.29,2.4,0.56,3.46
			c0.23,0.87,0.45,1.93,1.06,2.48c2.6,2.32,5.16,4.74,8.07,6.62c2.71,1.75,5.89,2.74,8.76,4.27c2.02,1.08,3.94,2.39,5.75,3.81
			c1.28,1.01,1.34,2.68,0.44,4.08c-1.38,2.15-2.83,4.26-4.2,6.43c-4.28,6.81-10.37,11.08-18.17,12.87
			c-4.64,1.07-9.34,1.85-13.97,2.96c-3.38,0.81-6.72,1.83-10,2.99c-3.78,1.34-5.94,6.05-4.76,9.91c0.81,2.66,2.58,4.03,5.37,4.08
			c1.1,0.02,2.21-0.08,3.31-0.15c3.48-0.21,6.96-0.45,10.44-0.64c9.64-0.53,19.28-0.99,28.91-1.6c1.7-0.11,3.37-0.76,5.06-1.14
			c0.61-0.14,1.33-0.06,1.85-0.34c0.93-0.5,2.14-1.03,2.53-1.88c0.58-1.27,0.44-1.51,1.43-0.56c3.46,3.33,7.86,4.28,12.32,5.26
			c7.02,1.54,12.84-0.45,17.31-5.92c3.44-4.21,3.6-9.44,3.61-14.59c0.01-2.09-0.32-4.18-0.37-6.28c-0.09-4.13,0.52-8.03,4.21-10.67
			c7.43-5.32,15.67-8.47,24.8-9.36c6.54-0.64,13.02-0.05,19.5,0.59c3.03,0.3,6.1,0.76,8.64,2.85c1.38,1.14,1.58,1.51,0.19,2.63
			c-2.17,1.75-4.3,3.62-6.71,4.99c-3.26,1.85-6.64,3.7-10.21,4.75c-2.88,0.85-6.11,0.71-9.18,0.67c-3.56-0.04-5.98,1.44-7.52,4.55
			c-0.91,1.83-0.87,3.58,0.5,5.21c2.3,2.75,5.39,3.76,8.82,3.91c5.36,0.23,10.67-0.18,15.91-1.47c3.5-0.87,7.07-1.51,10.01-3.82
			c0.65-0.51,1.31-1.03,1.9-1.5c0.24,0.17,0.32,0.2,0.33,0.24c0.07,0.46,0.15,0.92,0.19,1.38c0.41,4.75,1.96,9.09,4.88,12.85
			c0.68,0.88,2.03,1.94,2.93,1.83c2.49-0.31,4.95-1.06,7.33-1.89c2.12-0.74,4.07-1.96,6.19-2.7c2.32-0.81,4.19-2.11,5.19-4.33
			c1.21-2.68,2.53-5.39,3.2-8.22c1.33-5.58,2.47-11.23,3.28-16.91c0.95-6.68,1.32-13.43,2.25-20.11c0.35-2.53,0.94-5.25,3.21-6.98
			c2.63-2,5.24-4.03,8.04-5.77c3.73-2.32,7.64-4.35,11.46-6.52c3.12-1.78,4.8-4.34,4.12-8.06c-0.65-3.6-1.29-7.2-2.03-10.79
			c-0.71-3.43-2.61-5.72-6.09-6.94c-6.68-2.34-9.64-1.45-14.08,3.12c-4.8,4.94-9.18,10.25-15.68,13.34
			c-4.75,2.26-9.46,4.38-14.63,5.42c-3.7,0.75-7.43,1.38-11.08,2.33c-6.33,1.64-12.74,1.85-19.23,1.61
			c-9.01-0.32-18.02-0.69-27.04-0.75c-7.61-0.05-15.22,0.4-22.83,0.47c-7.79,0.08-15.59-0.08-23.38-0.03
			C691.05,491.31,688.7,491.69,686.21,491.92z M742.3,455.18c1.71,0.36,2.13-0.27,2.24-1.4c0.65-6.42,1.28-12.84,2-19.24
			c0.84-7.44,1.6-14.9,2.73-22.29c1.02-6.7,2.47-13.34,3.77-20c0.79-4.03,1.78-8.03,2.43-12.09c0.42-2.57,0.24-5.24,0.58-7.83
			c0.87-6.63,1.91-13.24,2.83-19.86c1.21-8.7,2.34-17.41,3.57-26.11c0.75-5.24,1.79-10.43,2.41-15.68
			c0.47-3.98,0.46-8.01,0.74-12.02c0.08-1.2,0.51-2.37,0.62-3.56c0.04-0.47-0.36-0.98-0.56-1.48c-0.58,0.31-1.23,0.55-1.73,0.97
			c-0.25,0.21-0.28,0.75-0.32,1.15c-0.39,4.1-0.77,8.2-1.14,12.31c-0.2,2.31-0.24,4.64-0.57,6.93c-0.91,6.26-1.98,12.5-2.92,18.76
			c-0.84,5.57-1.65,11.15-2.37,16.74c-0.61,4.73-0.93,9.51-1.62,14.23c-0.74,5.05-1.86,10.03-1.92,15.18
			c-0.02,1.9-0.39,3.82-0.8,5.69c-0.47,2.2-1.25,4.33-1.73,6.53c-0.85,3.92-1.66,7.85-2.32,11.8c-1.05,6.24-2.1,12.49-2.88,18.78
			c-0.76,6.06-1.19,12.15-1.76,18.24C743.16,445.64,742.73,450.37,742.3,455.18z M782.16,464.37c0.18,0.16,0.36,0.32,0.53,0.48
			c0.61-0.62,1.51-1.14,1.77-1.89c0.86-2.46,1.69-4.97,2.17-7.53c0.73-3.81,0.91-7.73,1.76-11.51c1.03-4.6,1.26-9.18,1.19-13.86
			c-0.1-6.18,1.62-12.05,3.7-17.84c0.72-2.01,1.1-4.16,1.42-6.28c0.71-4.71,1.35-9.44,1.89-14.17c0.36-3.17,0.59-6.36,0.73-9.55
			c0.16-3.61,0.12-7.22,0.21-10.83c0.11-4.24,0.21-8.48,0.4-12.72c0.17-3.77,0.3-7.55,0.76-11.29c0.45-3.62,1.35-7.19,1.95-10.8
			c0.56-3.38,0.78-6.82,1.5-10.16c1.24-5.72,1.91-11.48,1.84-17.33c-0.07-6.1-0.02-12.21-0.07-18.31c0-0.37-0.37-0.73-0.56-1.1
			c-0.34,0.34-0.92,0.63-0.99,1.01c-0.22,1.37-0.35,2.77-0.36,4.17c-0.05,7.21,0.18,14.43-0.16,21.63c-0.18,3.84-1.35,7.64-2,11.46
			c-0.9,5.33-1.74,10.66-2.6,16c-0.8,4.99-1.53,9.96-1.34,15.07c0.15,4.06-0.25,8.13-0.42,12.2c-0.09,2.09-0.32,4.19-0.29,6.28
			c0.07,5.48,0.38,10.95-1.14,16.32c-0.46,1.61-0.67,3.31-0.8,4.99c-0.43,5.82-1.25,11.5-3.35,17.06c-1.42,3.74-1.88,7.9-2.39,11.91
			c-0.43,3.34-0.1,6.77-0.48,10.11c-0.44,3.86-1.31,7.68-1.93,11.52c-0.36,2.23-0.44,4.52-0.88,6.73
			C783.67,458.9,782.86,461.62,782.16,464.37z M732.95,288.92c-0.19-0.08-0.39-0.17-0.58-0.25c-0.48,0.69-1.22,1.32-1.39,2.09
			c-0.59,2.61-1.03,5.25-1.42,7.9c-1.05,7.14-1.74,14.34-3.15,21.4c-1.39,6.94-2.28,13.89-2.34,20.95
			c-0.07,8.55-0.01,17.09-1.08,25.6c-0.93,7.38-1.65,14.79-2.43,22.19c-0.4,3.82-0.52,7.68-1.16,11.45
			c-0.92,5.46-1.44,10.93-1.61,16.47c-0.2,6.57-0.75,13.13-1.03,19.7c-0.24,5.69-0.37,11.39-0.44,17.09
			c-0.01,0.85,0.54,1.71,0.83,2.56c0.17-0.04,0.35-0.09,0.52-0.13c0.03-0.61,0.08-1.22,0.1-1.83c0.17-4.89,0.23-9.79,0.52-14.68
			c0.47-7.96,1.13-15.91,1.64-23.87c0.21-3.25,0.09-6.53,0.41-9.77c0.42-4.28,1.21-8.52,1.67-12.8c0.82-7.76,1.53-15.52,2.25-23.29
			c0.57-6.14,1.47-12.29,1.51-18.43c0.04-8.22-0.08-16.43,1.17-24.57c1.22-7.93,2.65-15.83,3.94-23.75
			c0.64-3.9,1.17-7.81,1.75-11.72C732.72,290.46,732.84,289.69,732.95,288.92z M684.55,295.64c-0.19-0.08-0.38-0.17-0.58-0.25
			c-1.04,1.53-2.61,2.95-3,4.63c-0.62,2.67-0.58,5.52-0.59,8.3c-0.02,5.64,0.16,11.27,0.18,16.91c0.01,3.77-0.08,7.54-0.22,11.31
			c-0.09,2.4-0.35,4.8-0.57,7.51c-0.61-0.58-0.89-0.97-1.27-1.18c-0.44-0.24-0.97-0.31-1.46-0.46c-0.04,0.53-0.3,1.19-0.08,1.56
			c0.65,1.08,1.5,2.05,2.28,3.09c-0.24,13.19-0.49,26.58-0.73,39.98c0.2,0.1,0.4,0.2,0.6,0.3c0.42-0.46,1.14-0.88,1.2-1.38
			c0.21-1.82,0.25-3.66,0.27-5.49c0.05-3.79,0-7.57,0.09-11.36c0.13-5.64,0.28-11.28,0.56-16.92c0.32-6.62,0.89-13.22,1.15-19.84
			c0.23-5.92,0.39-11.86,0.21-17.78c-0.18-6.06-0.68-12.09,2.01-17.81C684.75,296.45,684.58,296.01,684.55,295.64z M780.66,309.77
			c0.88,1.41,1.62,2.8,2.58,4.02c0.29,0.38,1.15,0.32,1.75,0.47c0.05-0.54,0.32-1.17,0.12-1.59c-0.6-1.25-1.46-2.38-2.06-3.64
			c-0.24-0.51-0.29-1.37-0.02-1.84c1.61-2.79,4.02-3.82,7.15-3.22c1.28,0.24,2.27,1.85,2.08,3.37c-0.23,1.87-0.9,2.45-2.59,2.48
			c-1.09,0.01-2.2,0.12-3.26,0.38c-0.36,0.09-0.85,0.85-0.78,1.21c0.37,1.9,3.81,3.31,5.27,2.03c1.36-1.19,2.35-1.73,3.72-0.11
			c0.23,0.28,1.11,0.01,1.69-0.01c-0.22-0.47-0.42-0.95-0.67-1.41c-0.07-0.14-0.27-0.24-0.43-0.29c-1.55-0.47-1.84-1.23-1.18-2.83
			c1.09-2.6-0.19-5.12-2.92-5.9c-1.6-0.46-3.33-0.46-4.92-0.66c0.29-1.42,0.65-2.92,0.88-4.43c0.06-0.39-0.32-0.84-0.5-1.26
			c-0.5,0.28-1.16,0.46-1.45,0.88c-0.34,0.49-0.36,1.2-0.5,1.82c-0.73,3.12-2.04,4.47-4.32,4.31c-1.89-0.13-2.88-1.55-3.88-2.92
			c-0.48-0.67-0.96-1.33-1.47-2.05c-0.81,0.9-0.81,0.9,1.1,5.54c-2.97,0.49-5.75,1.37-7.91,3.64c-1.73,1.82-1.55,3.46,0.77,4.49
			c2.67,1.18,5.48,1.8,8.23,0.29C778.35,311.88,779.32,310.84,780.66,309.77z M709.19,289.47c-0.25-0.08-0.5-0.16-0.75-0.23
			c-0.34,0.65-0.91,1.28-0.99,1.96c-0.36,3-0.41,6.05-0.88,9.03c-0.78,4.93-1.79,9.82-2.71,14.73c-0.5,2.68-1.03,5.35-1.51,8.04
			c-0.59,3.31-1.3,6.62-1.69,9.96c-0.52,4.44-0.83,8.91-1.14,13.38c-0.32,4.52-0.52,9.06-0.8,13.58
			c-0.31,5.05-0.63,10.09-1.01,15.13c-0.19,2.45-0.59,4.88-0.76,7.33c-0.04,0.6,0.42,1.23,0.64,1.85c0.42-0.53,0.88-1.03,1.23-1.59
			c0.17-0.27,0.17-0.68,0.19-1.02c0.54-8.48,1.01-16.96,1.61-25.43c0.58-8.18,1.11-16.37,2.01-24.52c0.55-4.95,1.96-9.8,2.62-14.75
			c1.07-8.01,3.7-15.76,3.95-23.9C709.23,291.83,709.19,290.65,709.19,289.47z M659.45,375.54c0.46,2.11,0.07,3.6-1.15,4.88
			c-1.24,1.31-2.51,2.59-3.69,3.95c-0.52,0.6-0.84,1.36-1.36,2.21c2.94,0.69,3.81-2.02,5.83-2.61c0,1.31-0.08,2.57,0.04,3.81
			c0.05,0.52,0.5,1,0.78,1.5c0.52-0.41,1.3-0.71,1.5-1.24c0.27-0.72,0.01-1.62,0.13-2.41c0.18-1.17,0.11-2.82,0.84-3.39
			c2-1.58,4.35-2.71,6.85-4.18c-0.1,0.7-0.14,0.98-0.17,1.26c-0.19,2.02-0.49,4.04-0.52,6.07c-0.02,1.1,0.46,2.2,1.98,1.42
			c1.58-0.82,3.18-1.62,4.68-2.58c0.5-0.32,0.69-1.12,1.02-1.7c-0.13-0.1-0.26-0.2-0.39-0.3c-1.58,0.84-3.16,1.67-5.06,2.68
			c0-1.52-0.16-2.57,0.03-3.55c0.36-1.81,0.97-3.57,1.38-5.38c0.1-0.42-0.2-0.94-0.31-1.41c-0.35,0.12-0.74,0.18-1.05,0.36
			c-2.84,1.62-5.66,3.27-8.48,4.91c-0.13-0.13-0.26-0.26-0.39-0.4c0.29-0.58,0.5-1.22,0.88-1.74c0.98-1.37,2.09-2.66,3.04-4.05
			c0.27-0.4,0.18-1.05,0.26-1.59c-0.53-0.03-1.07-0.15-1.58-0.07c-0.88,0.13-1.74,0.39-2.42,0.55c-0.43-0.92-0.75-1.6-1.28-2.7
			c-0.53,0.99-1.04,1.51-1.06,2.05c-0.04,1.18-0.71,1.49-1.64,1.87c-1.12,0.45-2.17,1.12-3.14,1.84c-0.35,0.26-0.38,0.95-0.56,1.45
			c0.53,0.02,1.12,0.2,1.59,0.04C657.14,376.68,658.2,376.12,659.45,375.54z M711.89,325.92c-0.16,2.33-0.29,4.33-0.44,6.33
			c-0.12,1.54-0.55,2.76-2.51,2.31c-0.11-0.03-0.27-0.05-0.34,0.01c-0.88,0.74-2.23,1.36-2.47,2.27c-0.22,0.84,0.51,2.37,1.29,2.88
			c0.63,0.41,1.97-0.19,2.96-0.49c0.39-0.12,0.74-0.58,0.99-0.96c0.65-1,1.51-1.08,2.56-0.78c1.67,0.47,3.34,1.01,5.05,1.22
			c0.73,0.09,1.56-0.6,2.34-0.94c-0.54-0.46-1.02-1.14-1.64-1.33c-1.61-0.49-3.26-0.87-4.93-1.08c-1.52-0.19-1.78-0.89-1.51-2.25
			c0.32-1.64,0.56-3.32,0.64-4.99c0.08-1.58-0.46-3.43,2.22-3.09c0.19,0.02,0.47-0.14,0.61-0.3c0.26-0.28,0.69-0.74,0.61-0.92
			c-0.16-0.34-0.6-0.64-0.98-0.77c-0.36-0.12-0.81-0.04-1.21,0.04c-1.13,0.23-1.48-0.38-1.47-1.35c0-1.18,0.27-2.08,1.74-2.3
			c1.03-0.16,2.36-0.18,2.8-1.74c-0.39-0.11-0.7-0.26-1.02-0.29c-1.36-0.12-2.92,0.66-3.97-0.94c-0.05-0.08-0.86,0.12-0.99,0.37
			c-0.58,1.1-1.54,1.03-2.54,1.05c-0.69,0.02-1.46,0.01-2.05,0.3c-0.46,0.23-0.69,0.9-1.03,1.37c0.43,0.2,0.83,0.49,1.28,0.58
			c0.44,0.09,0.93,0,1.39-0.04c2.77-0.22,2.84-0.2,2.4,2.46c-0.09,0.55-0.79,1.16-1.35,1.44c-0.92,0.46-2.03,0.55-2.93,1.05
			c-0.56,0.31-0.87,1.06-1.29,1.62c0.13,0.14,0.26,0.27,0.39,0.41C708.1,326.74,709.71,326.39,711.89,325.92z M777.23,394.97
			c0.17,0.15,0.35,0.31,0.52,0.46c0.48-0.31,1.11-0.52,1.41-0.96c2.2-3.22,3.6-6.72,3.45-10.72c-0.07-1.88-0.77-3.4-2.5-4.25
			c-3.38-1.66-6.91-0.94-10.4-0.45c-0.41,0.06-0.86,0.42-1.14,0.77c-2.91,3.57-5.5,7.15-3.79,12.28c1.06,3.17,4.15,4.47,6.79,2.39
			c2.19-1.72,2.95-4.17,3.1-6.74c0.14-2.39-0.14-4.81-0.24-7.29c0.36-0.03,0.93-0.1,1.51-0.13c3-0.18,4.43,0.91,4.14,3.92
			c-0.26,2.64-1.27,5.21-1.97,7.81C777.86,393.04,777.53,394,777.23,394.97z M826.16,324.93c3.42-0.82,6.84-1.67,10.26-2.45
			c1.3-0.29,2.59-0.49,3.38-2.21c-0.83-0.05-1.5-0.22-2.1-0.1c-3.12,0.67-6.24,1.34-9.32,2.16c-3.58,0.95-3.56,1.02-3.69-2.68
			c0-0.08-0.13-0.16-0.19-0.24c-1.66,0.5-2.13,2.31-1.45,4.37c0.75,2.3,1.3,4.68,1.8,7.06c0.08,0.38-0.48,0.99-0.88,1.34
			c-0.26,0.23-0.78,0.14-1.16,0.27c-1.84,0.61-2.65,1.71-2.49,3.32c0.15,1.4,1.71,2.91,3.18,3.05c1.76,0.17,2.85-0.65,3.39-2.54
			c0.22-0.77,0.43-1.54,0.59-2.1c4.49-0.79,8.89,0.68,13.2-0.92c-0.94-0.61-1.92-1-2.92-1.03c-2.96-0.1-5.92-0.03-8.88-0.11
			c-0.5-0.01-1.36-0.31-1.43-0.63C826.92,329.36,826.58,327.2,826.16,324.93z M773.72,359.42c-0.14-0.09-0.29-0.18-0.43-0.27
			c1.23-2.47,2.09-5.24,3.83-7.27c0.91-1.07,3.34-0.84,5.08-1.2c0.06-0.01,0.13,0,0.17-0.03c0.52-0.38,1.03-0.77,1.54-1.16
			c-0.56-0.24-1.12-0.69-1.68-0.69c-1.48,0.01-2.96,0.22-4.05,0.31c-0.61-0.97-1.03-1.62-1.44-2.28c-0.51,0.62-0.99,1.27-1.55,1.84
			c-0.49,0.51-1.01,1.11-1.63,1.36c-1.07,0.42-2.3,0.46-3.34,0.94c-0.6,0.28-0.96,1.09-1.42,1.66c0.69,0.12,1.38,0.39,2.05,0.34
			c0.87-0.07,1.71-0.41,2.95-0.74c-0.44,0.94-0.7,1.44-0.91,1.97c-0.87,2.25-1.75,4.5-2.56,6.78c-0.44,1.23,0.26,1.61,1.35,1.48
			c0.45-0.05,0.87-0.28,1.3-0.46c2.31-0.92,4.61-1.87,6.93-2.78c0.9-0.35,1.92-0.38,2.09,0.77c0.3,2.03,0.92,4.11-0.34,6.11
			c-0.55,0.88-0.87,1.9-1.49,3.3c4.09-2.44,5.31-5.49,4.33-9.8c-0.43-1.88-1.34-2.6-3.25-2.18
			C778.71,357.98,776.22,358.75,773.72,359.42z M687.52,319.45c0.23,0.18,0.45,0.36,0.68,0.54c0.73-0.49,1.71-0.82,2.16-1.49
			c4.24-6.37,8.87-12.64,6.96-21.01c0.86-0.29,1.54-0.38,2.03-0.74c0.49-0.36,0.78-1,1.16-1.51c-0.58-0.1-1.18-0.35-1.72-0.26
			c-0.99,0.17-2,0.78-2.64-0.61c-0.01-0.03-1.07,0.27-1.44,0.62c-0.25,0.24-0.15,0.85-0.21,1.28c-2.28,0.58-4.7,0.64-6.39,3.11
			c2.65,0.67,4.61-0.8,7-1.23c0.21,1.63,0.42,3.19,0.65,5c-2.35-0.78-3.7,0.21-4.68,1.92c-0.46,0.79-0.92,1.6-1.25,2.45
			c-1.12,2.88-0.41,3.79,2.58,3.4c0.07-0.01,0.16,0.13,0.62,0.53c-1.58,2.19-3.2,4.4-4.79,6.64
			C687.95,318.5,687.76,318.99,687.52,319.45z M668.11,310.42c-0.24-0.01-0.47-0.02-0.71-0.02c0,2.15-0.07,4.31,0.05,6.46
			c0.03,0.5,0.66,0.98,1.01,1.46c0.43-0.34,1-0.59,1.27-1.03c2.04-3.37,4.02-6.77,6.09-10.29c1.28,0.21,2.45,0,2.38-1.98
			c-0.01-0.32,0.47-0.78,0.83-0.97c1.13-0.62,0.91-1.65,0.52-2.4c-0.2-0.38-1.23-0.48-1.86-0.43c-1.03,0.09-2.05,0.62-3.05,0.57
			c-0.91-0.05-1.79-0.65-2.75-1.03c0.12-0.32,0.31-0.63,0.36-0.96c0.07-0.48,0.04-0.97,0.06-1.45c-0.46,0.24-1.08,0.36-1.35,0.74
			c-0.92,1.28-1.97,2.2-3.61,2.49c-0.81,0.14-1.64,0.66-2.28,1.21c-0.4,0.35-0.46,1.09-0.79,1.94c1.26-0.29,1.96-0.46,2.62-0.61
			c-0.78,1.62-1.51,3.15-2.25,4.69c0.24,0.16,0.48,0.31,0.72,0.47c0.51-0.54,1.06-1.05,1.52-1.63c0.86-1.1,1.77-2.18,2.48-3.37
			c0.79-1.33,2.09-1.61,3.1-0.99c0.71,0.44,1.27,1.91,1.12,2.79c-0.6,3.46-2.75,6.22-4.46,9.17c-0.16-0.03-0.32-0.06-0.48-0.09
			C668.45,313.56,668.28,311.99,668.11,310.42z M706.42,369.76c-1.25,0.6-2.42,1.16-3.58,1.72c0.08,0.27,0.16,0.53,0.25,0.8
			c1.23-0.18,2.45-0.35,3.63-0.52c0.75,1.7,0.17,2.57-1.38,3.09c-0.81,0.27-1.59,0.73-2.3,1.22c-0.37,0.25-0.56,0.75-0.84,1.13
			c0.45,0.06,0.95,0.27,1.34,0.14c1.3-0.45,2.56-1.01,3.87-1.55c0.48,1.09,0.26,1.66-0.7,2.34c-1.15,0.8-2.14,1.93-2.98,3.08
			c-0.71,0.97-0.43,1.81,0.9,2.2c2.81,0.82,4.77-0.56,5.34-4.2c2.02,0.24,4.07,0.43,6.11,0.73c0.86,0.13,1.74,0.36,1.94-0.76
			c0.2-1.11-0.65-1.35-1.55-1.38c-1.68-0.05-3.36-0.13-5.05-0.13c-1.13,0-1.61-0.49-1.8-1.63c-0.24-1.44,0.68-1.63,1.63-1.98
			c1.3-0.47,2.88-0.62,3.39-2.99c-1.42,0.54-2.47,1.03-3.56,1.32c-0.57,0.15-1.56,0.16-1.8-0.17c-0.61-0.83-0.56-1.73,0.72-2.15
			c0.77-0.25,1.49-0.67,2.23-1.01c-0.02-0.16-0.04-0.32-0.06-0.48c-0.45-0.14-0.93-0.46-1.35-0.39c-1.16,0.18-2.29,0.7-3.32-0.37
			c-0.05-0.05-0.79,0.35-0.95,0.67C706.35,368.85,706.45,369.37,706.42,369.76z M772.31,330.17c-0.69,1.24-1.28,2.38-1.93,3.48
			c-1.44,2.45-2.96,4.86-4.32,7.36c-0.24,0.45,0.13,1.23,0.21,1.85c0.52-0.2,1.28-0.25,1.53-0.62c2.4-3.69,4.69-7.46,7.08-11.16
			c0.49-0.76,1.17-1.75,1.93-1.94c2.91-0.75,5.9-1.21,8.85-1.81c0.55-0.11,1.08-0.34,1.61-0.51c-0.03-0.22-0.06-0.44-0.09-0.65
			c-3.13-1.74-6.34,0.96-9.67,0.27c0.31-0.66,0.6-1.22,0.83-1.8c0.16-0.4,0.39-1.15,0.31-1.2c-0.48-0.25-1.11-0.56-1.56-0.41
			c-0.52,0.17-1.08,0.7-1.3,1.21c-1.1,2.58-3.13,3.91-5.73,4.55c-0.56,0.14-1.17,0.2-1.68,0.45c-0.7,0.33-1.34,0.81-2.01,1.22
			c0.09,0.23,0.18,0.47,0.28,0.7C768.46,330.83,770.27,330.52,772.31,330.17z M818.05,371.76c-0.14,0.22-0.27,0.43-0.41,0.65
			c0.43,0.53,0.8,1.11,1.29,1.57c1.98,1.88,3.55,3.94,4,6.76c0.5,3.1,0.1,4.17-2.61,5.75c-0.45,0.26-0.98,0.44-1.35,0.78
			c-0.3,0.27-0.56,0.74-0.56,1.11c0,0.21,0.63,0.63,0.9,0.57c1.08-0.22,2.46-0.27,3.13-0.96c2.68-2.78,5.83-3.56,9.53-3.07
			c1.54,0.2,3.13,0.06,4.69-0.01c0.34-0.02,0.67-0.42,1-0.65c-0.32-0.23-0.65-0.66-0.96-0.65c-3.78,0.14-7.59-1.32-11.06,0.32
			c-0.56-2.84-1.08-5.51-1.64-8.34c0.19-0.06,0.62-0.22,1.05-0.31c2.37-0.51,4.76-0.94,7.1-1.54c0.55-0.14,0.96-0.86,1.43-1.31
			c-0.66-0.18-1.36-0.6-1.98-0.5c-2.92,0.46-5.86,0.94-8.72,1.66c-1.2,0.3-1.78-0.16-2.58-0.79
			C819.67,372.3,818.81,372.09,818.05,371.76z M763.68,440.44c0.25,1.75-1.23,3.13,0.27,5.07c1.16,1.5,1.85,2.12,3.49,1.54
			c1.14-0.4,2.4-0.71,3.31-1.44c1.16-0.94,2.73-1.81,2.57-4.13c-0.91,0.64-1.56,1.08-2.19,1.54c-0.94,0.68-1.8,1.49-2.81,2.04
			c-1.05,0.57-1.92,0.42-1.93-1.11c-0.01-1.16-0.2-2.32-0.2-3.48c0-1.28-0.44-2.01-1.82-1.95c-0.32,0.02-0.64-0.07-1.15-0.13
			c1.42-1.71,2.69-3.25,3.96-4.79c0.66-0.8,0.93-1.6-0.12-2.59c-0.78,0.67-1.65,1.25-2.31,2.01c-3.53,4.14-7,8.33-10.51,12.49
			c-0.63,0.75-1.4,1.4-2.01,2.16c-0.2,0.25-0.1,0.73-0.14,1.11c0.37,0.03,0.76,0.17,1.09,0.07c0.37-0.11,0.72-0.38,1-0.66
			c2.01-2.01,3.98-4.07,6.02-6.06C761.1,441.25,761.96,440.1,763.68,440.44z M751.68,308.75c-1.15-1.33-2.07-0.92-2.97-0.52
			c-1.8,0.8-3.57,1.67-5.39,2.44c-1.98,0.83-2.98,0.03-2.75-2.13c0.06-0.57,0.2-1.15,0.39-1.69c1.29-3.59,3.26-6.76,5.9-9.54
			c0.55-0.58,1.18-2.02,0.99-2.2c-1.1-0.99-1.8,0.27-2.62,0.79c-0.14,0.09-0.2,0.28-0.31,0.41c-1.59,1.91-3.18,3.82-4.89,5.87
			c-0.6-0.79-1.22-1.59-1.84-2.4c-1.22-1.6-1.82-1.65-3.53-0.18c0.42,0.6,0.76,1.32,1.3,1.81c2.26,2.03,2.81,4.41,2.12,7.36
			c-0.55,2.36,1.12,4.09,3.61,3.89C745.33,312.39,748.27,310.35,751.68,308.75z M838.91,237.48c-0.38,0.11-0.77,0.21-1.15,0.32
			c0.27,0.98,0.68,1.95,0.8,2.96c0.43,3.51,0.99,7.03,1.05,10.55c0.06,3.03-0.4,6.01-1.59,8.95c-1.41,3.46-2.15,7.2-3.1,10.84
			c-0.11,0.44,0.28,1.01,0.44,1.52c0.42-0.34,1.01-0.59,1.22-1.03c0.46-0.93,0.75-1.94,1.05-2.93c0.8-2.61,1.5-5.24,2.35-7.83
			c1.02-3.08,2.3-6.09,1.87-9.46c-0.3-2.36-0.35-4.76-0.84-7.07C840.53,241.97,839.63,239.74,838.91,237.48z M736.51,430.54
			c-0.3,1.63-0.5,3-0.83,4.33c-0.08,0.31-0.59,0.68-0.95,0.74c-3.18,0.52-4.35,2.6-2.96,5.45c0.25,0.51,0.83,1.14,1.31,1.19
			c0.46,0.05,1.15-0.48,1.46-0.95c0.62-0.95,1.04-2.04,1.67-3.31c1.6,0.81,3.17,1.54,4.67,2.38c0.79,0.45,1.56,0.61,1.83-0.32
			c0.13-0.45-0.37-1.37-0.84-1.67c-1.27-0.8-2.7-1.34-4-2.08c-0.35-0.2-0.75-0.8-0.69-1.15c0.27-1.64,0.68-3.27,1.05-4.9
			c0.92-0.13,1.79-0.17,2.62-0.4c0.35-0.1,0.6-0.58,0.9-0.89c-0.36-0.22-0.7-0.5-1.1-0.63c-0.32-0.1-0.7-0.06-1.04-0.01
			c-1.1,0.14-1.6-0.24-1.59-1.43c0.01-0.67-0.37-1.35-0.57-2.02c-0.22,0.04-0.45,0.08-0.67,0.12c-0.05,0.77-0.18,1.54-0.14,2.3
			c0.05,0.93-0.14,1.4-1.24,1.34c-0.91-0.04-1.87,0.1-2.73,0.39c-0.4,0.14-0.6,0.84-0.89,1.29c0.42,0.19,0.85,0.56,1.27,0.55
			C734.06,430.86,735.1,430.68,736.51,430.54z M667.5,365.34c0.97-1.72,1.88-3.32,2.89-5.1c0.4,0.25,1.03,0.61,1.61,1.04
			c1.7,1.24,2.6,0.82,2.9-1.39c-1.1-0.6-2.21-1.21-3.31-1.82c-1.68-0.92-0.88-2.49-0.82-3.76c0.02-0.38,1.02-0.82,1.64-1.05
			c0.86-0.32,1.82-0.37,2.67-0.73c0.36-0.15,0.52-0.77,0.77-1.17c-0.41-0.2-0.83-0.59-1.22-0.55c-1.18,0.11-2.35,0.39-3.23,0.55
			c-0.52-0.76-0.9-1.32-1.28-1.89c-0.28,0.56-0.46,1.2-0.85,1.66c-0.38,0.43-0.94,0.8-1.49,0.98c-0.8,0.26-1.66,0.33-2.7,0.51
			c1.11,1.47,1.11,1.47,3.87,1.43c0.28,2.16,0.15,2.46-1.51,3.7C665.41,359.25,665.25,363.06,667.5,365.34z M731.92,414.76
			c-0.21,0.01-0.43,0.02-0.64,0.03c0.11,1.44,0.17,2.9,0.37,4.33c0.07,0.49,0.5,0.93,0.76,1.4c0.5-0.33,1.2-0.55,1.48-1.02
			c1.56-2.67,3-5.44,2.81-8.65c-0.17-2.9-0.56-5.79-0.89-9.01c-0.56,0.46-1.13,0.7-1.27,1.09c-0.54,1.51-1.83,1.91-3.12,2.49
			c-1.68,0.76-3.28,1.73-4.85,2.71c-0.38,0.24-0.52,0.89-0.76,1.34c0.52-0.04,1.1,0.06,1.55-0.15c1.33-0.6,2.61-1.32,4.36-2.22
			c-1.22,2.3-3.02,3.74-3.13,5.93c0.18,0.12,0.37,0.23,0.55,0.35c1.65-2.29,3.3-4.57,4.96-6.86c1.1,4.05,1.08,7.74-1.04,11.52
			C732.59,416.71,732.25,415.73,731.92,414.76z M676.45,332.71c-1.74,0.92-3.08,1.66-4.45,2.36c-1.56,0.8-3.1,0.73-4.32-0.57
			c-1.27-1.33-1.5-2.91-0.71-4.66c0.69-1.53,1.32-3.1,1.81-4.71c0.19-0.61-0.09-1.37-0.15-2.06c-0.48,0.46-1.15,0.84-1.41,1.41
			c-2.11,4.71-4.17,9.45-6.18,14.2c-0.23,0.53-0.06,1.23-0.08,1.85c0.64-0.36,1.49-0.57,1.86-1.1c0.81-1.16,1.37-2.5,2.05-3.8
			c2.69,2.79,4.25,3.01,8.29,0.88C674.55,335.77,676.29,335.07,676.45,332.71z M728.23,242.22c2.51,1.33,2.96,3.5,3.31,5.68
			c1.04,6.45,0.97,12.83-1.34,19.07c-0.34,0.93-0.34,1.98-0.49,2.97c0.21,0.06,0.43,0.12,0.64,0.18c0.47-0.7,1.03-1.36,1.38-2.11
			c2.94-6.29,3.05-12.91,2.06-19.6c-0.23-1.58-0.73-3.17-1.38-4.63C731.59,241.94,730.58,241.6,728.23,242.22z M735.03,364.44
			c-0.97,1.92-1.81,3.56-2.65,5.21c0.2,0.14,0.4,0.29,0.59,0.43c0.54-0.57,1.2-1.06,1.6-1.72c1-1.63,1.82-3.37,2.85-4.97
			c0.27-0.42,1.08-0.72,1.6-0.66c0.37,0.04,0.94,0.76,0.95,1.18c0.06,3.02-0.44,5.96-1.53,8.77c-0.17,0.02-0.34,0.05-0.5,0.07
			c-0.48-1.35-0.97-2.7-1.59-4.42c-0.95,2.88,0.4,5,1.02,7.21c0.03,0.12,0.89,0.2,1.14,0.01c0.44-0.33,0.83-0.85,1.04-1.36
			c1.46-3.69,2.53-7.48,2.31-11.5c-0.03-0.63-0.49-1.58-0.98-1.75c-1.02-0.36-2.37-0.72-3.25-0.32c-1.65,0.74-3.08,1.98-4.54,3.08
			c-0.56,0.42-0.98,1.05-1.46,1.58c0.14,0.17,0.28,0.34,0.42,0.5C732.94,365.37,733.84,364.97,735.03,364.44z M761.57,415.28
			c0.16,1.45,0.92,1.26,1.97,0.96c1.41-0.4,2.9-0.78,4.35-0.76c2.04,0.03,2.6,1.32,1.83,3.24c-1.31,3.29-3.74,5.51-6.54,7.49
			c-0.96,0.68-1.72,1.66-2.57,2.51c0.14,0.22,0.28,0.45,0.41,0.67c0.77-0.18,1.65-0.19,2.3-0.57c3.77-2.17,6.69-5.28,8.49-9.18
			c1.39-3.02,0.9-5.02-3.04-5.67C766.22,413.54,763.84,414,761.57,415.28z M819.91,294.24c-1.7,0.36-1.89,1.47-2.03,2.55
			c-0.41,3.21-0.96,6.41-1.11,9.64c-0.12,2.47,0.17,4.97,0.45,7.44c0.15,1.35,1.68,2.09,2.55,1.28c1.66-1.55,3.15-3.29,4.78-5.02
			c-2.56-0.97-3.7,1.33-5.64,2.11C818.4,306.14,818.89,300.26,819.91,294.24z M716.62,290.67c-0.52,0.21-0.72,0.23-0.82,0.34
			c-3.85,4.44-6.45,9.37-5.95,15.48c0.13,1.54,1.63,2.74,3.14,2.39c3.17-0.75,5.8-2.37,7.54-5.21c0.21-0.35,0.26-0.8,0.38-1.2
			c-0.12-0.1-0.25-0.2-0.37-0.3c-0.69,0.56-1.32,1.21-2.07,1.67c-1.52,0.93-3.06,1.85-4.67,2.59c-1.13,0.52-2.05,0.04-1.92-1.32
			c0.2-2.06,0.28-4.21,0.96-6.12c0.83-2.32,2.27-4.43,3.39-6.65C716.45,291.92,716.46,291.39,716.62,290.67z M587.97,279.84
			c0.23,0.1,0.45,0.19,0.68,0.29c0.51-0.76,1.25-1.46,1.5-2.3c0.7-2.43,1.32-4.9,1.73-7.39c0.79-4.74-0.22-9.25-2.26-13.53
			c-0.36-0.77-1.27-1.27-1.93-1.9c-0.15,0.12-0.31,0.24-0.46,0.36c0.12,0.41,0.23,0.82,0.36,1.22c0.68,2.07,1.75,4.1,1.98,6.22
			c0.51,4.57,0.38,9.16-1.14,13.61C588.07,277.5,588.12,278.71,587.97,279.84z M845.76,267.89c0.22,0.06,0.44,0.12,0.66,0.19
			c0.31-0.65,0.69-1.27,0.91-1.95c0.7-2.21,1.42-4.42,1.98-6.67c0.36-1.44,0.75-2.97,0.65-4.43c-0.25-3.76-0.72-7.5-1.21-11.24
			c-0.09-0.72-0.65-1.39-0.99-2.08c-0.24,0.08-0.48,0.16-0.72,0.23c0.23,3.6,0.36,7.22,0.72,10.81c0.29,2.92,0.24,5.68-1.02,8.46
			C845.81,263.28,845.56,265.61,845.76,267.89z M809.11,444.65c-0.15-3.85-0.3-7.56-0.43-11.26c-0.02-0.7,0.15-1.43-0.02-2.08
			c-0.12-0.43-0.69-0.74-1.06-1.1c-0.26,0.38-0.65,0.74-0.75,1.16c-0.14,0.61-0.09,1.27-0.07,1.91c0.11,3.93,0.23,7.85,0.34,11.78
			c0.04,1.67,1.45,1.97,2.42,1.73c1.4-0.34,2.64-1.31,3.95-2.02c-0.1-0.27-0.2-0.54-0.3-0.82
			C812,444.16,810.83,444.36,809.11,444.65z M740.61,263.63c2.2-0.56,2.78-2.2,3.43-3.54c2.27-4.64,2.44-9.64,1.91-14.65
			c-0.16-1.54-0.89-3.06-1.57-4.49c-0.51-1.07-1.39-1.05-1.99-0.32C745.92,248.59,744.81,255.98,740.61,263.63z M811.11,403.33
			c-0.04,0.27-0.07,0.55-0.11,0.82c0.8,0.18,1.65,0.63,2.39,0.49c3.92-0.72,7.82-1.6,11.73-2.41c0.4-0.08,0.99-0.35,1.17-0.19
			c1.5,1.42,2.5-0.14,3.64-0.6c0.35-0.14,0.51-0.78,0.76-1.2c-0.42-0.2-0.87-0.62-1.25-0.57c-2.23,0.32-4.45,0.72-6.65,1.17
			C818.88,401.64,815,402.5,811.11,403.33z M606.65,275.36c0.25,0.1,0.49,0.21,0.74,0.31c0.73-1.5,2.01-2.97,2.1-4.51
			c0.28-4.44,0.09-8.9,0.04-13.35c-0.01-0.52-0.32-1.04-0.49-1.56c-0.19-0.01-0.38-0.02-0.57-0.03c-0.2,0.77-0.53,1.53-0.58,2.3
			c-0.27,4.8-0.46,9.61-0.72,14.42C607.13,273.75,606.83,274.55,606.65,275.36z M821.58,361.11c-0.05-0.21-0.11-0.41-0.16-0.62
			c-1.11,0.2-2.21,0.45-3.33,0.6c-2.9,0.37-3,0.34-3.47-2.54c-0.32-1.94-0.4-3.92-0.69-5.87c-0.06-0.4-0.52-1-0.85-1.04
			c-0.36-0.04-1.14,0.49-1.13,0.73c0.26,3.2-0.5,6.57,1.41,9.49c0.37,0.56,1.12,1.18,1.73,1.21
			C817.48,363.2,819.66,362.49,821.58,361.11z M656.83,364.17c2.22-0.49,3.78-2.29,3.79-4.35c-0.72,0.45-1.4,0.88-2.49,1.56
			c0.15-2.23,0.25-4.17,0.42-6.1c0.16-1.9,0.39-3.79,0.61-5.91C656.45,350.66,655.21,359.82,656.83,364.17z M697.52,327.97
			c0.03-1.9-1.42-3.76-2.9-3.75c-1.67,0.01-4.28,2.81-4.23,4.54c0.02,0.88,2.37,3.43,3.19,3.46
			C695.21,332.27,697.49,329.82,697.52,327.97z M812.96,417.28c-0.02,0.15-0.03,0.3-0.05,0.45c2.59,0.51,5.26,0.56,7.84,0.03
			c3.39-0.7,6.72-1.72,10.04-2.72c0.57-0.17,0.96-0.92,1.43-1.4c-0.11-0.1-0.23-0.2-0.34-0.3
			C825.57,414.65,819.26,415.96,812.96,417.28z M737.35,342.81c1.13-1.11,2.2-2.31,3.44-3.29c0.6-0.47,1.54-0.52,2.33-0.75
			c0.14,0.8,0.59,1.7,0.36,2.38c-0.78,2.3-1.8,4.52-2.74,6.77c-0.34,0.81-0.68,1.63-1.02,2.44c0.14,0.09,0.28,0.18,0.41,0.28
			c0.47-0.44,1.04-0.82,1.4-1.35c0.65-0.96,1.33-1.94,1.7-3.02c0.83-2.45,1.55-4.94,2.17-7.45c0.3-1.21-0.46-1.75-1.68-1.85
			C741.45,336.8,738.01,339.61,737.35,342.81z M704.84,364.83c0.18,0.17,0.36,0.35,0.54,0.52c0.49-0.44,1.21-0.79,1.45-1.34
			c1.22-2.87,2.58-5.73,3.37-8.73c0.51-1.96,0.22-4.16,0.08-6.25c-0.04-0.53-0.85-1.02-1.3-1.53c-0.23,0.62-0.72,1.27-0.64,1.85
			c0.68,4.8-0.28,9.25-2.55,13.48C705.43,363.48,705.15,364.16,704.84,364.83z M724.35,439.4c0-2.19-0.1-4.05,0.03-5.9
			c0.13-1.82,0.5-3.63,0.76-5.44c-0.23-0.08-0.45-0.16-0.68-0.24c-0.42,0.74-1.14,1.45-1.21,2.22c-0.34,3.75-0.53,7.52-0.72,11.29
			c-0.02,0.33,0.23,0.86,0.48,0.95c0.29,0.11,0.85-0.04,1.07-0.28c1.13-1.24,2.2-2.53,3.24-3.85c0.18-0.23,0.11-0.67,0.22-1.51
			C726.31,437.7,725.46,438.44,724.35,439.4z M662.42,406.07c1.78-0.74,2.5-1.66,2.1-3.27c-0.14-0.56-0.08-1.16-0.14-1.73
			c-0.23-2.25-0.41-4.51-0.74-6.74c-0.07-0.49-0.67-0.89-1.02-1.34c-0.36,0.59-0.97,1.17-1.01,1.79c-0.09,1.14,0.17,2.31,0.25,3.47
			C662.05,400.78,662.22,403.31,662.42,406.07z M841.52,303.76c1.34-0.73,1.54-1.36,0.61-2.54c-1.04-1.33-1.74-2.94-2.59-4.42
			c-0.49-0.85-0.91-1.77-1.54-2.5c-0.28-0.32-1.05-0.38-1.55-0.29c-0.25,0.04-0.64,0.75-0.56,1.04
			C836.88,298.53,838.77,301.44,841.52,303.76z M730.8,393.29c-1.09-2.1-0.64-4.31-0.6-6.49c0.01-0.47-0.29-0.94-0.45-1.41
			c-0.37,0.39-0.94,0.73-1.07,1.19c-0.82,2.85-0.76,5.72,0.22,8.53c0.1,0.29,0.86,0.66,1.08,0.55c1.66-0.88,3.27-1.87,5.3-3.07
			C733.27,391.54,732.27,393.18,730.8,393.29z M704.73,352.6c-0.18-1.36-0.32-2.79-0.6-4.18c-0.08-0.4-0.54-0.83-0.93-1
			c-0.16-0.07-0.88,0.49-0.88,0.75c0.07,2.79,0.23,5.58,0.37,8.46c2.58-0.63,3.8-2.2,4.08-5.05
			C706.01,351.96,705.42,352.25,704.73,352.6z M786.8,333.9c0.06-0.2,0.12-0.4,0.19-0.6c-0.48-0.3-1-0.9-1.43-0.85
			c-2.91,0.4-5.8,0.93-8.69,1.46c-0.24,0.04-0.41,0.45-0.62,0.69c0.28,0.24,0.56,0.68,0.85,0.69c0.68,0.03,1.37-0.15,2.06-0.25
			C781.71,334.66,784.25,334.28,786.8,333.9z M830.04,437.02c0.64-0.72,1.69-1.55,1.57-1.81c-0.82-1.74-1.85-3.39-2.94-4.97
			c-0.21-0.31-1.02-0.21-1.56-0.29c0,0.53-0.18,1.15,0.03,1.58C827.93,433.2,828.85,434.81,830.04,437.02z M836.41,353.25
			c-1.39-1.83-2.7-3.61-4.11-5.3c-0.16-0.19-1,0-1.35,0.25c-0.17,0.13-0.09,0.87,0.11,1.21c0.88,1.54,1.8,3.08,2.82,4.53
			c0.26,0.37,0.97,0.57,1.48,0.56C835.63,354.49,835.89,353.89,836.41,353.25z M777.82,340.24c1.17,1.17,6.05,1.96,7.22,1.2
			c0.22-0.14,0.52-0.51,0.46-0.64c-0.14-0.34-0.44-0.85-0.71-0.86c-2.06-0.15-4.12-0.21-6.19-0.24
			C778.36,339.69,778.09,340.04,777.82,340.24z M767.76,403.35c-0.31,0.45-0.48,0.58-0.49,0.72c-0.07,1.23,3.04,4.79,4.28,4.84
			c0.35,0.01,0.8-0.19,1.02-0.45c0.16-0.18,0.15-0.78-0.02-0.93C770.99,406.11,769.39,404.76,767.76,403.35z M720.65,289.72
			c-0.81,2.3-1.63,4.59-2.55,7.18C720.78,296.33,722.33,291.98,720.65,289.72z M744.71,388.72c-1.12-1.18-2.09-2.28-3.16-3.26
			c-0.16-0.15-0.94,0.09-1.17,0.37c-0.18,0.23-0.09,0.86,0.1,1.17c0.54,0.89,1.17,1.73,1.83,2.53c0.25,0.3,0.85,0.68,1.05,0.57
			C743.83,389.87,744.14,389.35,744.71,388.72z M742.08,329.36c1.1-1.08,0.98-1.94,0.06-2.81c-0.42-0.4-0.71-0.97-1.18-1.27
			c-0.48-0.3-1.11-0.37-1.68-0.54c-0.04,0.65-0.37,1.54-0.07,1.92C739.98,327.64,741.03,328.41,742.08,329.36z M744.43,362.71
			c0.37,0.98,0.58,1.83,1.03,2.55c0.26,0.41,0.89,0.58,1.36,0.86c0.28-0.6,0.84-1.23,0.78-1.8c-0.06-0.69-0.59-1.36-1.01-1.98
			c-0.28-0.41-0.72-0.71-1.09-1.06C745.14,361.75,744.78,362.23,744.43,362.71z M743.17,407.64c-0.42-1.15-0.65-2.06-1.09-2.84
			c-0.22-0.4-0.84-0.57-1.28-0.85c-0.24,0.52-0.72,1.05-0.68,1.54c0.07,0.77,0.43,1.54,0.79,2.25c0.24,0.48,0.71,0.84,1.07,1.26
			C742.39,408.53,742.81,408.06,743.17,407.64z M724.03,289.53c-1.85,0.97-1.72,2.26-1.64,3.44c0.03,0.38,0.6,0.99,0.92,0.99
			c0.37,0,1.07-0.55,1.07-0.87C724.41,291.99,724.19,290.87,724.03,289.53z M752.64,293.48c-0.78-0.85-1.36-1.49-1.94-2.12
			c-0.29,0.35-0.91,0.84-0.83,1.04c0.33,0.8,0.87,1.51,1.34,2.25C751.6,294.33,751.98,294.02,752.64,293.48z M753.83,292.02
			c1.67-0.9,1.95-1.85,1.1-3.3C753.72,289.47,753.52,290.03,753.83,292.02z M674.84,344.59c-0.18,0.19-0.37,0.38-0.55,0.57
			c0.44,0.69,0.88,1.38,1.32,2.07c0.2-0.04,0.4-0.09,0.6-0.13c0.06-0.54,0.35-1.22,0.13-1.59
			C676.06,345.07,675.36,344.89,674.84,344.59z"/>
		<path d="M508,227.15c7.03-0.04,14.06,0.03,21.08-0.2c2.52-0.08,5.02-0.85,7.52-1.37c2.62-0.54,5.25-1.02,7.81-1.77
			c1.2-0.36,2.48-1.08,3.29-2.01c2.55-2.93,5.79-3.43,9.31-3.05c1.81,0.19,3.04,1.8,3.16,4.41c0.07,1.53,0.8,1.78,1.95,1.77
			c4.1-0.03,8.21-0.14,12.31-0.11c3.66,0.03,7.33,0.15,10.99,0.35c0.89,0.05,1.39,0,1.75-0.9c0.17-0.43,0.81-0.66,1.24-0.99
			c0.25,0.39,0.45,0.84,0.77,1.16c0.39,0.38,0.88,0.91,1.33,0.92c4.42,0.05,8.85,0.15,13.26-0.05c6.8-0.31,13.59-0.83,20.38-1.31
			c5.86-0.42,11.71-0.92,17.56-1.36c8.22-0.62,16.44-1.2,24.66-1.89c0.84-0.07,1.76-0.67,2.39-1.28c1.32-1.29,2.39-2.84,3.72-4.13
			c2.78-2.71,6.49-2.5,9.97-2.92c1.44-0.17,2.91-0.12,4.34-0.33c3.31-0.5,5.04,1.47,6.02,4.11c0.75,2.02,1.88,2.38,3.81,2.21
			c7.59-0.66,15.18-1.31,22.78-1.72c6.09-0.33,12.21-0.23,18.31-0.47c9.29-0.36,18.58-0.94,27.87-1.25
			c4.24-0.14,8.49,0.09,12.73,0.3c1.76,0.09,2.56-0.34,3.26-2.17c2.04-5.36,3.67-10.93,6.96-15.76c0.72-1.06,1.54-1.64,2.78-1.82
			c6.13-0.86,12.26-1.02,18.37,0.13c1.45,0.27,2.35,0.89,2.34,2.62c-0.03,4.54,0.12,9.08,0.14,13.62c0.01,2.9,1.36,4.34,4.26,4.26
			c5.75-0.14,11.5-0.29,17.25-0.48c3.94-0.13,7.87-0.49,11.8-0.46c2.94,0.02,5.88,0.49,8.83,0.77c0.74,0.07,1.51,0.08,2.22,0.29
			c0.45,0.13,0.81,0.58,1.47,1.09c-3.67,0-6.78-0.06-9.89,0.01c-4.65,0.12-9.29,0.36-13.93,0.5c-5.92,0.17-11.85,0.27-17.77,0.43
			c-0.47,0.01-0.94,0.22-1.41,0.33c0.15,0.42,0.29,0.85,0.46,1.26c1.2,2.8,3.71,4.28,6.07,5.84c3.37,2.23,5.17,5.15,5.57,9.27
			c0.68,6.97,1.12,13.89-0.53,20.79c-1.1,4.57-2.97,8.63-6.89,11.57c-4.22,3.17-8.15,6.77-13.03,8.93c-1.62,0.72-3.4,1.15-5.15,1.52
			c-1.22,0.26-2.1,0.71-2.26,2.01c-0.49,4.05-2.75,5.98-6.83,6.04c-1.73,0.02-3.44,0.51-5.18,0.66c-1.27,0.11-3.68-2-3.91-3.26
			c-0.63-3.43-0.64-3.35-4-3.71c-1.97-0.21-3.99-0.03-5.79-1.46c-2.13-1.7-3.05-3.97-3.63-6.39c-1.5-6.2-1.04-12.52-0.64-18.8
			c0.38-5.95,0.84-11.9,1.41-17.83c0.5-5.21,1.02-10.46,4.25-14.91c0.6-0.83,1.28-1.6,2.24-2.79c-23.11-0.05-45.75,1.39-68.41,2.36
			c-0.08,0.19-0.15,0.39-0.23,0.58c0.99,1.31,1.99,2.61,2.97,3.92c2.1,2.77,4.66,5.31,6.17,8.37c2.23,4.51,3.97,9.33,4.47,14.42
			c0.35,3.52,0.59,7.07,0.48,10.59c-0.15,4.46-1.79,8.25-5.55,11.11c-2.18,1.66-4.09,3.83-5.69,6.08c-2.19,3.08-5.17,4.1-8.65,4.36
			c-0.87,0.06-1.74,0.18-2.61,0.16c-1.41-0.02-2.39,0.4-2.38,2.42c-0.62-0.53-1.01-0.8-1.32-1.14c-1.01-1.11-2.04-1-2.58,0.42
			c-0.47,1.24-0.73,2.56-1.07,3.85c-0.07,0.28-0.04,0.58-0.09,0.87c-1.1,5.68-1.13,5.59-5.33,6.15c-2.51,0.33-5.04,0.63-7.57,0.73
			c-1.29,0.05-1.97-0.76-2.12-2.22c-0.33-3.16-0.89-6.29-1.36-9.44c-2.02-0.45-4.3-0.85-6.51-1.47c-3.71-1.04-6.22-4.24-6.27-8.11
			c-0.06-4.13,0.15-8.26,0.08-12.39c-0.07-3.83-0.41-7.66-0.51-11.5c-0.09-3.61,0-7.23-0.01-10.84c0-1.17-0.09-2.33-0.06-3.5
			c0.09-3.17,0.23-6.35,0.35-9.75c-2.88,0.14-6.04,0.24-9.19,0.47c-6.54,0.47-13.08,0.99-19.62,1.53
			c-6.26,0.51-12.5,1.27-18.77,1.56c-8.65,0.4-17.32,0.51-25.99,0.61c-1.62,0.02-2.5,0.37-3.16,1.95c-2.53,6-5.46,11.84-7.74,17.92
			c-1.38,3.71-2.18,7.73-2.63,11.68c-0.91,8.03-1.46,16.1-2.04,24.16c-0.22,3.08-0.27,6.18-0.14,9.26c0.14,3.46-1.26,6.49-2.42,9.56
			c-0.78,2.05-2.74,3.19-4.78,3.8c-4.33,1.29-8.72,2.39-13.08,3.57c-0.28,0.07-0.56,0.13-1.09,0.25c0.42,1.78,0.86,3.5,1.22,5.23
			c0.59,2.88,0.4,3.39-2.22,4.66c-1.44,0.7-3.02,1.22-4.59,1.56c-1.76,0.38-2.51-0.19-2.74-2c-0.31-2.46-0.63-4.95-0.59-7.43
			c0.03-1.79-0.89-2.17-2.24-2.38c-3.96-0.61-7.34-2.47-10.51-4.81c-3.41-2.52-5.4-5.94-5.96-10.09
			c-1.02-7.55-1.89-15.13-2.82-22.69c-0.91-7.31-1.88-14.62-2.72-21.94c-0.78-6.74,0.64-13.06,3.92-18.99
			c0.26-0.47,0.34-1.04,0.45-1.41c-5.41-0.29-10.65-0.58-15.89-0.86C508,228.09,508,227.62,508,227.15z M560.69,306.4
			c0.9-0.23,1.84-0.37,2.69-0.72c2.56-1.05,5.5-1.77,6.74-4.56c0.93-2.09,1.57-4.41,1.82-6.68c0.37-3.46,0.19-6.98,0.41-10.47
			c0.42-6.74,0.82-13.49,1.49-20.2c0.46-4.56,0.91-9.21,2.18-13.59c1.41-4.87,3.75-9.46,5.68-14.18c1.11-2.71,2.21-5.42,3.31-8.12
			c-4.28,0-8.34-0.09-12.39,0.02c-4.47,0.12-8.93,0.51-13.4,0.63c-4.23,0.11-8.48-0.07-12.71,0.04c-5.29,0.14-10.57,0.62-15.86,0.59
			c-3.16-0.02-4.78,1.64-6.12,4.03c-0.25,0.45-0.36,0.98-0.6,1.44c-2.85,5.28-3.43,10.93-2.69,16.77c0.74,5.76,1.7,11.5,2.38,17.26
			c0.91,7.62,1.49,15.27,2.52,22.87c0.58,4.31,1.54,8.68,5.38,11.53c3.74,2.77,7.56,5.42,12.6,4.92c0.35-0.03,0.71,0.32,1.08,0.37
			c1.63,0.22,3.28,0.56,4.9,0.47c0.38-0.02,0.62-1.58,1.02-2.38c0.27-0.54,0.72-0.98,1.08-1.47c0.17,0.09,0.34,0.19,0.5,0.28
			c0.05,1,0.09,2.01,0.15,3.17c2.73-0.72,5.3-1.4,7.87-2.09L560.69,306.4z M810.34,220.92c-0.19-4.1-2.88-3-4.7-3.05
			c-7.44-0.23-14.9-0.09-22.34-0.41c-3.44-0.15-5.49,1.46-7.09,4.05c-1.89,3.07-2.79,6.5-3.1,10.06c-0.48,5.45-0.8,10.92-1.27,16.37
			c-0.65,7.54-1.39,15.05-0.04,22.63c0.97,5.47,5.15,8.68,10.66,7.51c0-0.66,0.01-1.35,0-2.04c-0.14-5.93-0.47-11.86-0.39-17.78
			c0.09-6.51,0.47-13.02,0.9-19.52c0.38-5.74,0.99-11.47,1.54-17.21c0.04-0.42,0.44-0.8,0.67-1.19c0.35,0.4,0.98,0.79,1,1.21
			c0.11,2.21,0.23,4.44,0.04,6.64c-0.61,7.12-1.74,14.23-1.94,21.36c-0.26,8.95,0.21,17.91,0.31,26.87c0.01,1.33,0.46,1.88,1.8,1.92
			c5.8,0.2,11.48-0.66,16.97-2.34c6.18-1.89,10.92-6.26,15.76-10.33c3.89-3.27,5.34-7.86,6.21-12.58c1.2-6.53,0.73-13.14,0.03-19.68
			c-0.25-2.38-1.73-4.45-3.85-5.76c-3.69-2.26-6.93-4.9-8.45-9.16c-0.04-0.12-0.28-0.17-0.53-0.31
			C811.97,218.88,811.41,219.58,810.34,220.92z M694.03,221c0.61,2.9,1.61,5.54,1.63,8.18c0.07,8.03-0.05,16.07-0.46,24.09
			c-0.41,7.91-0.2,15.72,2.1,23.35c0.15,0.5,0.87,1.15,1.35,1.17c1.62,0.05,3.24-0.2,4.87-0.26c2.28-0.08,4.08-0.94,5.59-2.74
			c2-2.39,4.1-4.73,6.35-6.89c2.34-2.25,4.59-4.47,5.17-7.85c1.67-9.74-0.2-18.99-4.77-27.52c-2.28-4.24-5.82-7.81-8.86-11.63
			c-0.34-0.43-1.11-0.79-1.66-0.76C701.45,220.37,697.59,220.71,694.03,221z M680.52,278.67c3.78,0,7.14,0.05,10.51-0.02
			c1.78-0.04,3.53-2.56,3.32-4.3c-0.65-5.42-1.63-10.85-1.67-16.29c-0.05-6.51,0.93-13.01,1.11-19.53c0.12-4.64-0.24-9.3-0.62-13.93
			c-0.14-1.74-1.39-3.36-3.71-3.06c-2.3,0.3-4.64,0.33-6.96,0.51c-1.53,0.11-3.06,0.27-4.64,0.41c0.35,2.16,0.86,4.08,0.93,6.03
			c0.15,4.6,0.05,9.2,0.12,13.8c0.14,9.14,0.26,18.29,0.55,27.42C679.55,272.76,680.16,275.8,680.52,278.67z M677.12,237.19
			c-0.02,0-0.04,0-0.06,0c0-2.21,0.13-4.43-0.04-6.63c-0.17-2.19-0.65-4.36-0.98-6.54c-0.16-1.04-0.66-1.48-1.79-1.35
			c-1.61,0.2-3.25,0.17-4.87,0.36c-4.48,0.5-4.84,0.76-4.91,5.32c-0.09,6.11,0.05,12.23,0.12,18.35c0.01,0.69,0.23,1.38,0.3,2.08
			c0.21,2.07,0.54,4.15,0.55,6.23c0.02,5.24-0.2,10.49-0.16,15.73c0.03,3.33,1.37,6.16,4.68,7.3c2.2,0.76,4.62,0.89,6.95,1.25
			c1.59,0.24,1.97-0.47,1.7-2.02c-0.6-3.38-1.37-6.78-1.44-10.18C677,257.11,677.12,247.15,677.12,237.19z M782.9,215.48
			c1.14-0.07,1.83-0.17,2.52-0.15c7.5,0.18,14.99,0.32,22.49,0.62c1.64,0.07,2.18-0.4,2.16-1.97c-0.07-4.83-0.08-9.67-0.1-14.5
			c-0.01-2.25-0.28-2.7-2.58-2.75c-4.47-0.1-8.94,0.01-13.4-0.03c-2.02-0.02-3.46,0.86-4.38,2.57c-0.99,1.83-1.97,3.68-2.82,5.59
			c-1.08,2.44-2.05,4.93-3,7.43C783.42,213.23,783.23,214.24,782.9,215.48z M678.89,280.58c-0.24,0.05-0.47,0.11-0.71,0.16
			c0.12,1.83,0.09,3.68,0.38,5.49c0.89,5.5,1.5,5.87,6.96,4.65c4.5-1.01,4.48-1.01,5.33-5.51c0.33-1.72,0.73-3.43,1.16-5.4
			c-3.84,0.18-7.34,0.34-11.04,0.51c0.35,1.25,0.69,2.15,0.81,3.09c0.05,0.38-0.41,0.81-0.64,1.22c-0.42-0.24-1.04-0.39-1.23-0.76
			c-0.34-0.65-0.41-1.44-0.61-2.17C679.18,281.43,679.02,281,678.89,280.58z M670.18,220.17c0.06,0.16,0.12,0.32,0.17,0.48
			c7.05-0.62,14.11-1.24,21.52-1.89c-0.7-1.3-1.25-2.24-1.73-3.22c-0.66-1.35-1.61-2.02-3.19-1.84c-3.06,0.34-6.13,0.59-9.19,0.87
			C674.05,214.92,672.1,217.53,670.18,220.17z M546.27,319.6c0.84-0.16,1.24-0.22,1.64-0.31c4.25-0.95,4.97-2.14,3.76-6.24
			c-0.2-0.67-0.33-1.37-0.61-2c-0.16-0.37-0.55-0.89-0.86-0.91c-1.54-0.09-3.08-0.04-4.89-0.04
			C545.63,313.38,545.94,316.41,546.27,319.6z M786.4,279.9c0.07,1.3,0.02,2.7,0.29,4.03c0.08,0.41,1.08,0.98,1.58,0.92
			c1.83-0.24,3.63-0.71,5.44-1.11c3.34-0.75,3.71-1.18,4.15-5.05C794.12,279.08,790.42,279.47,786.4,279.9z M548.38,223.61
			c0.11,0.15,0.23,0.3,0.34,0.45c2.69,0.21,5.38,0.45,8.08,0.62c0.45,0.03,1.14-0.1,1.35-0.41c0.79-1.17-0.52-4.04-1.96-4.03
			c-1.87,0.02-3.82,0.25-5.57,0.87C549.7,221.43,549.12,222.75,548.38,223.61z"/>
		<path d="M686.21,491.92c2.49-0.23,4.85-0.61,7.2-0.63c7.79-0.05,15.59,0.1,23.38,0.03c7.61-0.07,15.22-0.52,22.83-0.47
			c9.01,0.06,18.03,0.42,27.04,0.75c6.48,0.23,12.89,0.02,19.23-1.61c3.65-0.94,7.38-1.58,11.08-2.33
			c5.16-1.04,9.88-3.16,14.63-5.42c6.5-3.09,10.88-8.4,15.68-13.34c4.44-4.58,7.4-5.46,14.08-3.12c3.49,1.22,5.38,3.51,6.09,6.94
			c0.74,3.58,1.38,7.19,2.03,10.79c0.68,3.73-1,6.28-4.12,8.06c-3.82,2.18-7.73,4.21-11.46,6.52c-2.8,1.73-5.41,3.77-8.04,5.77
			c-2.27,1.73-2.86,4.45-3.21,6.98c-0.93,6.68-1.3,13.44-2.25,20.11c-0.81,5.68-1.95,11.33-3.28,16.91
			c-0.68,2.84-1.99,5.54-3.2,8.22c-1,2.22-2.87,3.51-5.19,4.33c-2.12,0.74-4.07,1.97-6.19,2.7c-2.38,0.83-4.85,1.59-7.33,1.89
			c-0.9,0.11-2.25-0.95-2.93-1.83c-2.92-3.76-4.47-8.1-4.88-12.85c-0.04-0.46-0.12-0.92-0.19-1.38c-0.01-0.04-0.09-0.06-0.33-0.24
			c-0.59,0.47-1.24,0.98-1.9,1.5c-2.94,2.31-6.51,2.96-10.01,3.82c-5.24,1.3-10.54,1.7-15.91,1.47c-3.43-0.14-6.52-1.16-8.82-3.91
			c-1.36-1.63-1.4-3.38-0.5-5.21c1.54-3.11,3.96-4.6,7.52-4.55c3.07,0.04,6.3,0.18,9.18-0.67c3.56-1.05,6.94-2.9,10.21-4.75
			c2.4-1.37,4.53-3.24,6.71-4.99c1.39-1.12,1.19-1.49-0.19-2.63c-2.54-2.1-5.61-2.55-8.64-2.85c-6.48-0.64-12.96-1.23-19.5-0.59
			c-9.13,0.89-17.36,4.04-24.8,9.36c-3.69,2.64-4.3,6.54-4.21,10.67c0.05,2.1,0.37,4.19,0.37,6.28c-0.01,5.15-0.17,10.39-3.61,14.59
			c-4.48,5.47-10.29,7.46-17.31,5.92c-4.46-0.98-8.86-1.93-12.32-5.26c-0.99-0.95-0.85-0.7-1.43,0.56c-0.39,0.84-1.6,1.37-2.53,1.88
			c-0.52,0.28-1.23,0.2-1.85,0.34c-1.69,0.38-3.35,1.03-5.06,1.14c-9.63,0.6-19.27,1.07-28.91,1.6c-3.48,0.19-6.96,0.43-10.44,0.64
			c-1.1,0.07-2.21,0.17-3.31,0.15c-2.79-0.05-4.56-1.42-5.37-4.08c-1.18-3.86,0.98-8.57,4.76-9.91c3.28-1.16,6.62-2.18,10-2.99
			c4.63-1.11,9.33-1.9,13.97-2.96c7.79-1.79,13.88-6.06,18.17-12.87c1.36-2.17,2.82-4.27,4.2-6.43c0.89-1.4,0.84-3.07-0.44-4.08
			c-1.8-1.42-3.73-2.73-5.75-3.81c-2.87-1.53-6.05-2.52-8.76-4.27c-2.91-1.87-5.47-4.3-8.07-6.62c-0.61-0.54-0.83-1.61-1.06-2.48
			c-0.27-1.06-0.36-2.16-0.56-3.46c-2.14,0.83-4.14,1.56-6.1,2.37c-5.23,2.15-10.64,3.68-16.19,4.7c-1.81,0.33-3.13,1.04-4.14,2.72
			c-2.79,4.64-6.96,7.77-11.86,9.88c-1.27,0.55-2.85,0.6-4.27,0.52c-2.13-0.12-2.94-1.93-3.52-3.63c-0.62-1.8-0.91-3.71-1.37-5.56
			c-0.31-1.25-0.77-2.05-2.42-2.12c-5.8-0.26-11.6-0.59-17.37-1.24c-6.58-0.75-13.05-2.18-19.24-4.66c-1.99-0.8-4-1.52-5.94-2.41
			c-3.47-1.61-5.58-4.56-7.56-7.7c-2.38-3.79-5-7.43-7.52-11.13c-3.6-5.3-5.25-11.27-5.68-17.55c-0.5-7.33-0.42-14.7,1.18-21.9
			c0.59-2.67,0.17-5.14,0.09-7.71c-0.02-0.51-0.2-1.02-0.36-1.51c-0.86-2.75-1.9-5.46-2.57-8.25c-1.79-7.44-1.12-15.09-1.73-22.64
			c-0.17-2.08,0.58-2.52,2.53-1.79c10.03,3.77,19.73,8.23,28.77,14.04c0.82,0.53,1.75,0.92,2.67,1.24c0.43,0.15,1.01,0.07,1.46-0.09
			c3.92-1.41,7.73-3.33,11.76-4.18c5.31-1.12,10.8-1.49,16.22-2.04c5.37-0.54,10.76-1,16.15-1.32c2.88-0.17,5.79,0.04,8.68,0.05
			c8.31,0.02,16.63,0.98,24.93-0.33c1.55-0.25,3.12-0.44,4.68-0.42c2.52,0.02,4.54-0.88,6.39-2.58c4.02-3.69,8.27-7.15,12.2-10.92
			c6.63-6.35,14.53-10.91,22.02-16.04c0.19-0.13,0.38-0.27,0.57-0.41c1.62-1.19,2.44-0.99,3,0.95c0.64,2.23,1.14,4.51,1.62,6.78
			c1.02,4.81,2.03,9.63,2.96,14.46c0.77,3.98,1.43,7.98,2.09,11.99c0.08,0.47,0.04,1.23-0.25,1.46c-1.23,0.96-0.91,2.22-0.95,3.48
			c-0.18,5.7-0.42,11.41-0.68,17.11c-0.02,0.43-0.18,0.99-0.47,1.24c-2.03,1.75-2.52,4.24-3.37,6.58c-0.71,1.96-1.34,4.01-2.44,5.74
			c-2.17,3.42-3.64,7.01-4.87,10.89c-1.28,4.03-3.59,7.78-5.73,11.49c-2.38,4.12-5.09,8.04-7.63,12.06
			C686.27,491.12,686.29,491.49,686.21,491.92z M790.57,546.43c-2.04,0.08-1.98,1.19-1.81,2.3c0.61,3.86,1.36,7.7,3.34,11.11
			c0.73,1.25,1.26,3.14,3.16,3.09c1.48-0.04,3-0.39,4.39-0.89c2.89-1.05,5.79-2.14,8.53-3.53c1.48-0.75,2.89-1.97,3.89-3.31
			c3.33-4.48,4.16-9.94,5.24-15.2c0.88-4.26,1.08-8.65,1.63-12.97c0.72-5.66,1.34-11.34,2.31-16.96c0.38-2.22,1.11-4.7,2.51-6.36
			c2.13-2.52,4.81-4.71,7.59-6.53c4.31-2.83,8.91-5.2,13.35-7.83c2.56-1.52,4.3-3.53,3.61-6.85c-0.57-2.73-1.04-5.48-1.49-8.23
			c-0.58-3.58-2.6-5.63-6.01-6.94c-5.1-1.95-8.56-1.02-12.33,2.91c-3.88,4.05-8.17,7.71-12.39,11.41c-1.1,0.96-2.61,1.47-3.98,2.09
			c-3.22,1.44-6.37,3.1-9.72,4.15c-4.03,1.27-8.21,2.09-12.35,2.98c-3.96,0.85-7.94,2.02-11.95,2.2
			c-6.89,0.32-13.81-0.05-20.72-0.08c-11.11-0.05-22.22-0.06-33.33-0.07c-4.19-0.01-8.38-0.01-12.58,0.01
			c-7.32,0.03-14.64-0.01-21.95,0.17c-3.04,0.08-5.98,0.86-7.87,3.66c-0.15,0.23-0.44,0.38-0.68,0.54
			c-5.9,3.92-11.57,8.19-18.16,10.97c-0.54,0.23-1.31,1.2-1.18,1.5c0.71,1.68,1.34,3.58,2.58,4.82c4.4,4.4,9.59,7.6,15.48,9.73
			c3.28,1.19,6.38,2.86,7.84,6.43c0.42-0.09,0.89-0.19,1.71-0.36c-0.23,0.82-0.4,1.38-0.55,1.95c-0.17,0.65-0.46,1.31-0.45,1.97
			c0.09,3.47,0.3,6.93,0.37,10.4c0.06,2.74-0.23,5.5,0.02,8.21c0.35,3.84,1.26,7.28,4.01,10.55c2.54,3.02,5.21,5.21,8.82,6.2
			c2.78,0.77,5.7,1.09,8.57,1.43c3.97,0.48,10.06-2.94,12.06-6.43c2.32-4.03,2.42-8.43,2.39-12.85c-0.02-2.33-0.41-4.65-0.39-6.98
			c0.04-3.77,0.84-7.48,3.9-9.92c6.51-5.19,13.96-8.58,22.14-10.15c9.26-1.78,18.55-0.98,27.8,0.22c2.61,0.34,5.15,1.11,7.11,3.02
			c0.79,0.77,1.35,0.89,2.22,0.21c0.33-0.25,0.91-0.17,1.38-0.25c-0.09,0.52,0,1.24-0.31,1.52c-0.97,0.89-0.88,1.84-0.74,3.02
			c0.39,3.29,0.65,6.6,0.88,9.91C788.58,543.94,788.01,545.68,790.57,546.43z M707.54,445.43c-5.24,0.39-10.55,0.87-15.87,1.14
			c-5.39,0.27-10.79,0.3-16.19,0.5c-3.77,0.14-7.53,0.42-11.29,0.62c-6.15,0.33-12.29,0.82-18.44,0.94
			c-6.74,0.13-13.49-0.34-20.22-0.11c-9.59,0.33-19.1,1.71-28.58,3.23c-3.66,0.59-7.4,1.08-11.1,1.05
			c-6.68-0.06-13.36-0.45-20.01,0.47c-4.73,0.65-9.36,0.51-13.96-0.87c-0.37-0.11-1.14,0.36-1.37,0.76
			c-0.32,0.57-0.39,1.33-0.43,2.02c-0.25,4.18-0.52,8.36-0.66,12.55c-0.22,7.09,0.84,13.98,4.5,20.14
			c2.67,4.49,5.83,8.68,8.81,12.97c1.21,1.75,2.27,3.7,3.82,5.09c5,4.47,11.46,5.81,17.66,7.45c6.11,1.62,12.36,2.72,18.75,2.8
			c3.06,0.04,6.12,0.27,9.24,0.42c0.04-0.42,0.13-0.66,0.07-0.85c-1.06-3.5-0.74-7.03-0.19-10.54c0.34-2.18,1.13-4.07,3.58-4.87
			c2.86-0.94,5.57-2.38,8.46-3.17c3.79-1.03,7.69-1.69,11.56-2.4c1.28-0.23,2.11,0.45,2.12,1.87c0.01,6.25,0.55,12.54-1.52,18.95
			c1.87-0.49,3.5-1.04,5.18-1.35c8.55-1.56,16.47-4.89,24.12-8.82c4.48-2.3,8.69-5.15,12.86-7.98c1.88-1.28,3.67-2.93,4.99-4.78
			c2.97-4.15,5.67-8.5,8.39-12.81c2.29-3.63,4.76-7.17,5.9-11.43c0.64-2.41,1.37-4.83,2.4-7.08c1.06-2.31,2.73-4.33,3.79-6.64
			C705.32,451.6,706.41,448.36,707.54,445.43z M709.4,423.15c-8.02,0.54-15.6,1.15-23.19,1.51c-4.52,0.21-9.05-0.06-13.58,0.04
			c-2.14,0.05-4.26,0.51-6.41,0.67c-4.63,0.34-9.32,0.29-13.9,0.98c-8.77,1.32-17.48,2.99-26.2,4.65
			c-3.99,0.76-7.89,1.91-11.87,2.74c-4.08,0.85-8.18,1.8-12.32,2.22c-6.71,0.68-13.46,0.95-20.19,1.42
			c-5.04,0.36-10.08,0.77-15.12,1.15c-4.93,0.37-9.86,0.71-14.78,1.07c-1.33,0.1-1.95,0.72-1.74,2.15c0.3,2.13,0.43,4.28,0.73,6.41
			c0.16,1.14,0.69,2.19,1.99,2.37c3.27,0.45,6.56,1.2,9.82,1.14c6.2-0.12,12.4-0.77,18.6-1.11c4.88-0.26,9.79-0.14,14.64-0.61
			c6.41-0.62,12.77-1.71,19.16-2.47c10.45-1.25,20.92-1.6,31.46-1.1c6.64,0.31,13.34-0.57,20.02-0.77
			c6.74-0.19,13.48-0.13,20.22-0.3c6.67-0.16,13.39,0.14,19.95-1.56c0.9-0.23,1.76-0.16,1.83-1.54c0.2-4.07,0.63-8.12,0.84-12.19
			C709.5,427.67,709.4,425.3,709.4,423.15z M546.02,411.8c-0.15,0.16-0.31,0.32-0.46,0.47c0.69,9.1,0.22,18.32,2.49,26.85
			c3.08-0.65,5.87-1.54,8.72-1.77c7.92-0.65,15.86-0.97,23.79-1.51c4.7-0.32,9.37-0.96,14.07-1.17c7.88-0.37,15.58-1.79,23.27-3.38
			c6.02-1.24,11.96-2.83,17.98-4.05c4.83-0.98,9.7-1.74,14.59-2.38c4.49-0.59,9.01-0.91,13.52-1.3c4.22-0.37,8.44-0.96,12.66-0.94
			c10.35,0.03,20.69,0.12,30.98-1.28c1.76-0.24,3.02-1.54,2.79-3.31c-0.3-2.37-0.71-4.72-1.18-7.06c-1.23-6.15-2.52-12.3-3.81-18.44
			c-0.3-1.43-0.72-2.84-1.16-4.55c-8.41,5.97-16.99,10.99-24.1,18.08c-3.48,3.48-7.54,6.39-11,9.88c-2.06,2.08-4.39,2.6-7.02,2.81
			c-0.69,0.05-1.39,0.08-2.08,0.13c-4.29,0.32-8.57,0.88-12.86,0.91c-6.21,0.05-12.43-0.59-18.63-0.39
			c-9.18,0.29-18.35,0.92-27.5,1.66c-6.97,0.56-13.84,1.92-20.05,5.34c-2.42,1.33-4.25,0.97-6.42-0.35
			c-4.17-2.53-8.36-5.05-12.73-7.2C556.7,416.28,551.32,414.13,546.02,411.8z M686.55,535.77c-1.78,2.57-3.33,4.79-4.88,7.01
			c-2.22,3.19-4.87,6.03-8.24,7.92c-5.15,2.88-10.79,4.4-16.59,5.53c-5.4,1.05-10.75,2.45-16.02,4.03
			c-1.64,0.49-3.28,1.86-4.33,3.27c-1.38,1.85-1.41,4.21-0.13,6.26c1.1,1.76,2.92,2.08,4.91,1.89c4.28-0.4,8.57-0.85,12.87-1.02
			c6.33-0.26,12.68-0.15,19.01-0.46c4.63-0.23,9.25-0.77,13.85-1.38c2.7-0.36,4.25-3.62,2.98-5.81c-2.07-3.55-2.96-7.36-2.96-11.49
			C687.01,546.44,686.73,541.33,686.55,535.77z M785.64,532.31c-3.11,2.23-5.98,4.46-9.02,6.43c-2.22,1.45-4.53,3.13-7.02,3.71
			c-3.79,0.88-7.77,1.08-11.68,1.21c-3.09,0.1-5.41,1.14-6.87,3.85c-0.68,1.25-0.72,2.47,0.44,3.64c1.72,1.73,3.86,2.4,6.14,2.56
			c7.07,0.49,14.02-0.33,20.86-2.23c2.99-0.83,5.47-2.49,7.73-4.51c0.41-0.36,0.76-1.08,0.72-1.6c-0.27-4.12-0.64-8.23-1-12.34
			C785.92,532.7,785.68,532.41,785.64,532.31z M622.35,516.92c-0.27-1.91-0.5-3.61-0.75-5.31c-0.22-1.55-0.53-3.1-0.62-4.66
			c-0.03-0.53,0.45-1.09,0.69-1.63c0.44,0.4,1.03,0.73,1.27,1.23c0.38,0.77,0.58,1.65,0.73,2.5c0.38,2.12,0.61,4.27,1.07,6.37
			c0.12,0.54,0.84,1.32,1.31,1.33c1.79,0.07,3.59-0.15,5.39-0.23c1.49-0.06,2.42-0.83,2.73-2.24c0.5-2.26,1.07-4.51,1.3-6.8
			c0.3-3.06,0.31-6.15,0.44-9.22c0.04-0.98-0.27-1.59-1.39-1.48c-0.64,0.06-1.28,0.04-1.91,0.13c-6.09,0.86-11.79,2.94-17.35,5.46
			c-0.53,0.24-1.16,1.04-1.16,1.58c-0.04,3.76,0.02,7.53,0.18,11.29c0.03,0.58,0.73,1.57,1.18,1.6
			C617.65,517.01,619.84,516.92,622.35,516.92z M614.9,518.57c0.64,2.55,1.15,4.99,1.92,7.34c0.22,0.67,1.14,1.51,1.8,1.56
			c1.29,0.1,2.76,0,3.91-0.54c3.63-1.68,6.77-4.08,9.11-7.39c0.33-0.46,0.44-1.07,0.75-1.84c-1.43,0.19-2.5,0.36-3.58,0.46
			c-1.14,0.1-2.29,0.12-3.67,0.18c0.08,1.19,0.3,2.22,0.17,3.22c-0.07,0.59-0.62,1.51-1.07,1.58c-0.88,0.15-1.71-0.33-1.65-1.51
			c0.02-0.29,0.05-0.58,0.06-0.87c0.04-1.48-0.29-2.44-2.16-2.23C618.77,518.72,617.02,518.57,614.9,518.57z"/>
		<path d="M742.3,455.18c0.44-4.81,0.86-9.54,1.3-14.27c0.57-6.08,1-12.18,1.76-18.24c0.79-6.28,1.84-12.53,2.88-18.78
			c0.66-3.95,1.47-7.88,2.32-11.8c0.48-2.2,1.25-4.33,1.73-6.53c0.4-1.87,0.78-3.79,0.8-5.69c0.06-5.14,1.18-10.13,1.92-15.18
			c0.69-4.72,1.02-9.49,1.62-14.23c0.72-5.59,1.53-11.17,2.37-16.74c0.94-6.26,2.01-12.5,2.92-18.76c0.33-2.29,0.37-4.62,0.57-6.93
			c0.36-4.1,0.75-8.21,1.14-12.31c0.04-0.4,0.07-0.94,0.32-1.15c0.49-0.42,1.14-0.65,1.73-0.97c0.2,0.49,0.6,1.01,0.56,1.48
			c-0.11,1.2-0.54,2.37-0.62,3.56c-0.28,4.01-0.27,8.04-0.74,12.02c-0.62,5.25-1.67,10.45-2.41,15.68
			c-1.24,8.7-2.36,17.41-3.57,26.11c-0.92,6.62-1.96,13.23-2.83,19.86c-0.34,2.59-0.16,5.26-0.58,7.83
			c-0.65,4.05-1.64,8.05-2.43,12.09c-1.3,6.66-2.75,13.29-3.77,20c-1.13,7.4-1.88,14.86-2.73,22.29c-0.73,6.41-1.36,12.83-2,19.24
			C744.43,454.91,744.01,455.54,742.3,455.18z"/>
		<path d="M782.16,464.37c0.7-2.74,1.52-5.47,2.08-8.24c0.45-2.21,0.53-4.5,0.88-6.73c0.61-3.85,1.49-7.66,1.93-11.52
			c0.38-3.35,0.05-6.78,0.48-10.11c0.51-4.02,0.97-8.17,2.39-11.91c2.1-5.56,2.92-11.23,3.35-17.06c0.12-1.67,0.34-3.38,0.8-4.99
			c1.52-5.37,1.21-10.85,1.14-16.32c-0.03-2.09,0.2-4.18,0.29-6.28c0.17-4.07,0.57-8.14,0.42-12.2c-0.19-5.1,0.54-10.08,1.34-15.07
			c0.86-5.33,1.7-10.67,2.6-16c0.65-3.83,1.82-7.62,2-11.46c0.34-7.2,0.11-14.42,0.16-21.63c0.01-1.39,0.14-2.79,0.36-4.17
			c0.06-0.38,0.64-0.68,0.99-1.01c0.2,0.37,0.56,0.73,0.56,1.1c0.05,6.1,0,12.21,0.07,18.31c0.06,5.86-0.61,11.61-1.84,17.33
			c-0.72,3.34-0.94,6.78-1.5,10.16c-0.6,3.61-1.5,7.17-1.95,10.8c-0.46,3.74-0.59,7.52-0.76,11.29c-0.19,4.24-0.3,8.48-0.4,12.72
			c-0.09,3.61-0.05,7.22-0.21,10.83c-0.14,3.19-0.37,6.38-0.73,9.55c-0.54,4.73-1.18,9.46-1.89,14.17c-0.32,2.12-0.7,4.27-1.42,6.28
			c-2.08,5.78-3.8,11.65-3.7,17.84c0.07,4.68-0.16,9.27-1.19,13.86c-0.85,3.78-1.04,7.7-1.76,11.51c-0.49,2.56-1.31,5.07-2.17,7.53
			c-0.26,0.75-1.16,1.27-1.77,1.89C782.52,464.69,782.34,464.53,782.16,464.37z"/>
		<path d="M732.95,288.92c-0.12,0.77-0.23,1.54-0.35,2.31c-0.58,3.91-1.11,7.82-1.75,11.72c-1.29,7.92-2.72,15.82-3.94,23.75
			c-1.25,8.14-1.12,16.35-1.17,24.57c-0.03,6.15-0.94,12.29-1.51,18.43c-0.72,7.77-1.42,15.54-2.25,23.29
			c-0.45,4.28-1.25,8.52-1.67,12.8c-0.32,3.24-0.2,6.52-0.41,9.77c-0.51,7.96-1.17,15.91-1.64,23.87
			c-0.29,4.89-0.35,9.78-0.52,14.68c-0.02,0.61-0.07,1.22-0.1,1.83c-0.17,0.04-0.35,0.09-0.52,0.13c-0.29-0.85-0.84-1.71-0.83-2.56
			c0.07-5.7,0.2-11.4,0.44-17.09c0.28-6.57,0.83-13.13,1.03-19.7c0.16-5.54,0.69-11,1.61-16.47c0.64-3.78,0.76-7.64,1.16-11.45
			c0.78-7.4,1.51-14.81,2.43-22.19c1.07-8.51,1.01-17.06,1.08-25.6c0.06-7.06,0.95-14.01,2.34-20.95c1.41-7.06,2.1-14.27,3.15-21.4
			c0.39-2.65,0.84-5.29,1.42-7.9c0.17-0.76,0.91-1.39,1.39-2.09C732.56,288.76,732.76,288.84,732.95,288.92z"/>
		<path d="M684.55,295.64c0.03,0.38,0.2,0.82,0.06,1.12c-2.69,5.72-2.19,11.75-2.01,17.81c0.18,5.92,0.02,11.86-0.21,17.78
			c-0.26,6.62-0.83,13.22-1.15,19.84c-0.27,5.64-0.42,11.28-0.56,16.92c-0.09,3.78-0.04,7.57-0.09,11.36
			c-0.02,1.83-0.06,3.68-0.27,5.49c-0.06,0.5-0.78,0.92-1.2,1.38c-0.2-0.1-0.4-0.2-0.6-0.3c0.24-13.39,0.49-26.78,0.73-39.98
			c-0.79-1.04-1.63-2.01-2.28-3.09c-0.22-0.37,0.04-1.03,0.08-1.56c0.49,0.15,1.02,0.22,1.46,0.46c0.38,0.21,0.67,0.6,1.27,1.18
			c0.21-2.72,0.48-5.11,0.57-7.51c0.14-3.77,0.23-7.54,0.22-11.31c-0.01-5.64-0.19-11.28-0.18-16.91c0.01-2.78-0.03-5.63,0.59-8.3
			c0.39-1.68,1.96-3.1,3-4.63C684.17,295.47,684.36,295.55,684.55,295.64z"/>
		<path d="M780.66,309.77c-1.34,1.08-2.32,2.12-3.51,2.77c-2.75,1.51-5.56,0.89-8.23-0.29c-2.32-1.02-2.5-2.67-0.77-4.49
			c2.16-2.27,4.94-3.15,7.91-3.64c-1.91-4.64-1.91-4.64-1.1-5.54c0.52,0.72,0.99,1.38,1.47,2.05c0.99,1.37,1.99,2.8,3.88,2.92
			c2.29,0.16,3.59-1.2,4.32-4.31c0.14-0.62,0.16-1.33,0.5-1.82c0.29-0.43,0.95-0.6,1.45-0.88c0.18,0.42,0.56,0.87,0.5,1.26
			c-0.22,1.52-0.58,3.01-0.88,4.43c1.59,0.2,3.32,0.2,4.92,0.66c2.73,0.78,4,3.3,2.92,5.9c-0.67,1.6-0.37,2.36,1.18,2.83
			c0.16,0.05,0.35,0.15,0.43,0.29c0.25,0.46,0.45,0.94,0.67,1.41c-0.58,0.02-1.46,0.29-1.69,0.01c-1.37-1.62-2.36-1.08-3.72,0.11
			c-1.46,1.28-4.9-0.13-5.27-2.03c-0.07-0.36,0.42-1.12,0.78-1.21c1.05-0.26,2.17-0.37,3.26-0.38c1.68-0.02,2.36-0.61,2.59-2.48
			c0.18-1.52-0.81-3.13-2.08-3.37c-3.14-0.6-5.55,0.43-7.15,3.22c-0.27,0.47-0.22,1.32,0.02,1.84c0.59,1.26,1.45,2.39,2.06,3.64
			c0.2,0.41-0.07,1.05-0.12,1.59c-0.6-0.14-1.45-0.09-1.75-0.47C782.28,312.56,781.54,311.18,780.66,309.77z M769.08,309.65
			c3.01,3.06,8.26,2.2,9.81-1.43c0.38-0.89-0.45-2.32-1.44-2.25C774.28,306.2,771.27,306.88,769.08,309.65z"/>
		<path d="M709.19,289.47c0,1.18,0.03,2.36-0.01,3.54c-0.26,8.14-2.88,15.89-3.95,23.9c-0.66,4.95-2.07,9.8-2.62,14.75
			c-0.9,8.15-1.43,16.34-2.01,24.52c-0.6,8.47-1.07,16.95-1.61,25.43c-0.02,0.35-0.02,0.75-0.19,1.02
			c-0.35,0.57-0.81,1.07-1.23,1.59c-0.23-0.62-0.69-1.25-0.64-1.85c0.18-2.45,0.58-4.88,0.76-7.33c0.38-5.04,0.7-10.09,1.01-15.13
			c0.28-4.53,0.48-9.06,0.8-13.58c0.32-4.46,0.62-8.93,1.14-13.38c0.39-3.34,1.1-6.64,1.69-9.96c0.48-2.68,1.01-5.36,1.51-8.04
			c0.92-4.91,1.93-9.8,2.71-14.73c0.47-2.98,0.53-6.03,0.88-9.03c0.08-0.68,0.65-1.31,0.99-1.96
			C708.69,289.32,708.94,289.4,709.19,289.47z"/>
		<path d="M659.45,375.54c-1.25,0.58-2.32,1.14-3.44,1.55c-0.46,0.17-1.05-0.01-1.59-0.04c0.18-0.5,0.21-1.19,0.56-1.45
			c0.97-0.72,2.02-1.38,3.14-1.84c0.93-0.38,1.61-0.69,1.64-1.87c0.02-0.54,0.53-1.07,1.06-2.05c0.52,1.11,0.84,1.78,1.28,2.7
			c0.68-0.16,1.54-0.42,2.42-0.55c0.51-0.08,1.05,0.04,1.58,0.07c-0.08,0.54,0.01,1.19-0.26,1.59c-0.95,1.39-2.05,2.68-3.04,4.05
			c-0.38,0.52-0.59,1.16-0.88,1.74c0.13,0.13,0.26,0.26,0.39,0.4c2.83-1.64,5.65-3.28,8.48-4.91c0.32-0.18,0.7-0.24,1.05-0.36
			c0.11,0.47,0.41,0.98,0.31,1.41c-0.41,1.8-1.02,3.57-1.38,5.38c-0.19,0.98-0.03,2.02-0.03,3.55c1.9-1.01,3.48-1.85,5.06-2.68
			c0.13,0.1,0.26,0.2,0.39,0.3c-0.33,0.58-0.53,1.38-1.02,1.7c-1.49,0.96-3.09,1.76-4.68,2.58c-1.52,0.79-2-0.31-1.98-1.42
			c0.03-2.02,0.33-4.05,0.52-6.07c0.03-0.28,0.07-0.56,0.17-1.26c-2.5,1.48-4.85,2.6-6.85,4.18c-0.72,0.57-0.66,2.22-0.84,3.39
			c-0.12,0.8,0.14,1.7-0.13,2.41c-0.2,0.53-0.98,0.83-1.5,1.24c-0.27-0.5-0.73-0.98-0.78-1.5c-0.11-1.24-0.04-2.5-0.04-3.81
			c-2.02,0.59-2.89,3.3-5.83,2.61c0.51-0.85,0.84-1.62,1.36-2.21c1.18-1.36,2.45-2.65,3.69-3.95
			C659.52,379.14,659.91,377.65,659.45,375.54z"/>
		<path d="M711.89,325.92c-2.18,0.47-3.79,0.82-5.4,1.17c-0.13-0.14-0.26-0.27-0.39-0.41c0.42-0.55,0.73-1.31,1.29-1.62
			c0.9-0.49,2.01-0.58,2.93-1.05c0.57-0.28,1.26-0.89,1.35-1.44c0.44-2.67,0.37-2.68-2.4-2.46c-0.46,0.04-0.95,0.13-1.39,0.04
			c-0.45-0.09-0.86-0.38-1.28-0.58c0.33-0.47,0.57-1.15,1.03-1.37c0.59-0.29,1.36-0.29,2.05-0.3c1-0.02,1.96,0.05,2.54-1.05
			c0.13-0.24,0.94-0.44,0.99-0.37c1.04,1.6,2.61,0.82,3.97,0.94c0.32,0.03,0.63,0.17,1.02,0.29c-0.43,1.57-1.77,1.59-2.8,1.74
			c-1.47,0.22-1.74,1.12-1.74,2.3c0,0.96,0.35,1.57,1.47,1.35c0.39-0.08,0.85-0.16,1.21-0.04c0.38,0.12,0.82,0.42,0.98,0.77
			c0.08,0.18-0.35,0.64-0.61,0.92c-0.15,0.16-0.42,0.32-0.61,0.3c-2.67-0.33-2.14,1.51-2.22,3.09c-0.08,1.67-0.32,3.35-0.64,4.99
			c-0.27,1.36,0,2.06,1.51,2.25c1.66,0.21,3.32,0.59,4.93,1.08c0.62,0.19,1.1,0.87,1.64,1.33c-0.78,0.34-1.61,1.03-2.34,0.94
			c-1.71-0.2-3.38-0.75-5.05-1.22c-1.05-0.3-1.91-0.22-2.56,0.78c-0.25,0.38-0.59,0.84-0.99,0.96c-0.98,0.3-2.33,0.89-2.96,0.49
			c-0.78-0.51-1.51-2.04-1.29-2.88c0.24-0.91,1.59-1.53,2.47-2.27c0.07-0.06,0.23-0.04,0.34-0.01c1.96,0.45,2.39-0.77,2.51-2.31
			C711.6,330.25,711.73,328.25,711.89,325.92z"/>
		<path d="M777.23,394.97c0.3-0.97,0.62-1.93,0.88-2.91c0.7-2.6,1.71-5.17,1.97-7.81c0.29-3.01-1.14-4.1-4.14-3.92
			c-0.57,0.03-1.14,0.1-1.51,0.13c0.1,2.48,0.39,4.9,0.24,7.29c-0.15,2.57-0.91,5.02-3.1,6.74c-2.64,2.07-5.73,0.78-6.79-2.39
			c-1.72-5.14,0.88-8.71,3.79-12.28c0.28-0.34,0.73-0.71,1.14-0.77c3.49-0.48,7.01-1.21,10.4,0.45c1.73,0.85,2.43,2.37,2.5,4.25
			c0.15,4-1.25,7.5-3.45,10.72c-0.3,0.44-0.93,0.65-1.41,0.96C777.58,395.28,777.41,395.12,777.23,394.97z M772.86,383.44
			c0,0.1,0.06-0.15-0.01-0.36c-0.28-0.85-0.61-1.68-0.92-2.52c-0.87,0.36-2.1,0.47-2.53,1.12c-1.28,1.96-2.66,4.02-3.19,6.24
			c-0.35,1.46,0.56,3.3,1.14,4.88c0.45,1.23,1.75,1.2,2.4,0.43c1.13-1.32,2.22-2.84,2.74-4.46
			C773.01,387.23,772.76,385.45,772.86,383.44z"/>
		<path d="M826.16,324.93c0.42,2.27,0.76,4.43,1.27,6.55c0.08,0.32,0.93,0.62,1.43,0.63c2.96,0.07,5.92,0.01,8.88,0.11
			c0.99,0.03,1.98,0.42,2.92,1.03c-4.31,1.6-8.71,0.13-13.2,0.92c-0.16,0.56-0.38,1.33-0.59,2.1c-0.53,1.9-1.62,2.71-3.39,2.54
			c-1.47-0.14-3.03-1.65-3.18-3.05c-0.17-1.6,0.64-2.7,2.49-3.32c0.38-0.13,0.9-0.04,1.16-0.27c0.4-0.35,0.96-0.96,0.88-1.34
			c-0.5-2.37-1.04-4.75-1.8-7.06c-0.68-2.07-0.2-3.88,1.45-4.37c0.07,0.08,0.19,0.16,0.19,0.24c0.13,3.7,0.11,3.63,3.69,2.68
			c3.08-0.82,6.21-1.49,9.32-2.16c0.6-0.13,1.27,0.05,2.1,0.1c-0.79,1.72-2.08,1.92-3.38,2.21
			C832.99,323.26,829.58,324.11,826.16,324.93z M824.83,333.97c-1.1,0.26-2.67-0.01-2.57,1.74c0.03,0.58,1.01,1.34,1.71,1.58
			C824.56,337.52,825.19,335.3,824.83,333.97z"/>
		<path d="M773.72,359.42c2.51-0.68,5-1.44,7.53-2c1.91-0.42,2.82,0.3,3.25,2.18c0.98,4.31-0.24,7.36-4.33,9.8
			c0.62-1.39,0.93-2.42,1.49-3.3c1.26-2,0.64-4.08,0.34-6.11c-0.17-1.14-1.19-1.12-2.09-0.77c-2.32,0.91-4.62,1.85-6.93,2.78
			c-0.43,0.17-0.86,0.4-1.3,0.46c-1.08,0.13-1.79-0.25-1.35-1.48c0.81-2.27,1.69-4.52,2.56-6.78c0.2-0.53,0.47-1.03,0.91-1.97
			c-1.24,0.33-2.08,0.66-2.95,0.74c-0.67,0.06-1.37-0.21-2.05-0.34c0.47-0.57,0.82-1.39,1.42-1.66c1.04-0.48,2.27-0.51,3.34-0.94
			c0.63-0.25,1.14-0.85,1.63-1.36c0.56-0.57,1.04-1.23,1.55-1.84c0.41,0.65,0.83,1.31,1.44,2.28c1.09-0.09,2.57-0.3,4.05-0.31
			c0.56,0,1.12,0.45,1.68,0.69c-0.51,0.39-1.02,0.78-1.54,1.16c-0.04,0.03-0.11,0.01-0.17,0.03c-1.74,0.36-4.17,0.13-5.08,1.2
			c-1.73,2.03-2.6,4.81-3.83,7.27C773.43,359.25,773.57,359.33,773.72,359.42z"/>
		<path d="M687.52,319.45c0.24-0.46,0.43-0.95,0.73-1.37c1.59-2.24,3.21-4.46,4.79-6.64c-0.46-0.4-0.55-0.54-0.62-0.53
			c-2.99,0.39-3.7-0.52-2.58-3.4c0.33-0.85,0.79-1.66,1.25-2.45c0.98-1.71,2.34-2.69,4.68-1.92c-0.24-1.81-0.44-3.38-0.65-5
			c-2.39,0.43-4.35,1.9-7,1.23c1.7-2.47,4.11-2.53,6.39-3.11c0.06-0.43-0.04-1.03,0.21-1.28c0.37-0.35,1.43-0.65,1.44-0.62
			c0.64,1.39,1.64,0.79,2.64,0.61c0.54-0.09,1.14,0.16,1.72,0.26c-0.38,0.51-0.67,1.15-1.16,1.51c-0.49,0.36-1.17,0.44-2.03,0.74
			c1.91,8.37-2.73,14.64-6.96,21.01c-0.45,0.68-1.43,1-2.16,1.49C687.97,319.81,687.75,319.63,687.52,319.45z M694.64,305.89
			c-0.21-0.23-0.65-0.73-1.1-1.22c-0.69,1.07-1.43,2.11-2.01,3.23c-0.09,0.17,0.52,1,0.86,1.03
			C693.57,309.05,694.63,307.76,694.64,305.89z"/>
		<path d="M668.11,310.42c0.17,1.57,0.34,3.14,0.52,4.71c0.16,0.03,0.32,0.06,0.48,0.09c1.71-2.95,3.85-5.7,4.46-9.17
			c0.15-0.88-0.41-2.35-1.12-2.79c-1-0.62-2.3-0.34-3.1,0.99c-0.71,1.19-1.62,2.27-2.48,3.37c-0.46,0.58-1.01,1.09-1.52,1.63
			c-0.24-0.16-0.48-0.31-0.72-0.47c0.74-1.54,1.47-3.07,2.25-4.69c-0.66,0.15-1.36,0.32-2.62,0.61c0.32-0.85,0.39-1.59,0.79-1.94
			c0.64-0.56,1.46-1.07,2.28-1.21c1.65-0.28,2.69-1.21,3.61-2.49c0.27-0.37,0.89-0.5,1.35-0.74c-0.01,0.48,0.01,0.98-0.06,1.45
			c-0.05,0.33-0.23,0.64-0.36,0.96c0.96,0.39,1.84,0.98,2.75,1.03c1,0.06,2.02-0.48,3.05-0.57c0.63-0.05,1.66,0.05,1.86,0.43
			c0.39,0.75,0.61,1.78-0.52,2.4c-0.36,0.2-0.84,0.65-0.83,0.97c0.07,1.98-1.1,2.19-2.38,1.98c-2.07,3.52-4.05,6.92-6.09,10.29
			c-0.26,0.44-0.84,0.69-1.27,1.03c-0.35-0.49-0.98-0.96-1.01-1.46c-0.11-2.15-0.05-4.31-0.05-6.46
			C667.63,310.41,667.87,310.42,668.11,310.42z"/>
		<path d="M706.42,369.76c0.02-0.4-0.07-0.91,0.12-1.29c0.16-0.32,0.9-0.72,0.95-0.67c1.03,1.07,2.17,0.56,3.32,0.37
			c0.42-0.07,0.9,0.25,1.35,0.39c0.02,0.16,0.04,0.32,0.06,0.48c-0.74,0.34-1.46,0.76-2.23,1.01c-1.28,0.41-1.32,1.32-0.72,2.15
			c0.24,0.33,1.23,0.32,1.8,0.17c1.1-0.28,2.14-0.78,3.56-1.32c-0.51,2.37-2.09,2.52-3.39,2.99c-0.95,0.35-1.87,0.54-1.63,1.98
			c0.19,1.15,0.66,1.63,1.8,1.63c1.68,0.01,3.36,0.08,5.05,0.13c0.9,0.03,1.75,0.27,1.55,1.38c-0.2,1.12-1.09,0.89-1.94,0.76
			c-2.04-0.3-4.09-0.5-6.11-0.73c-0.57,3.64-2.53,5.03-5.34,4.2c-1.33-0.39-1.61-1.23-0.9-2.2c0.84-1.15,1.82-2.27,2.98-3.08
			c0.96-0.67,1.19-1.24,0.7-2.34c-1.31,0.54-2.57,1.11-3.87,1.55c-0.39,0.13-0.89-0.08-1.34-0.14c0.27-0.39,0.47-0.88,0.84-1.13
			c0.71-0.49,1.49-0.95,2.3-1.22c1.55-0.51,2.14-1.39,1.38-3.09c-1.18,0.17-2.41,0.34-3.63,0.52c-0.08-0.27-0.16-0.53-0.25-0.8
			C704.01,370.92,705.17,370.36,706.42,369.76z M707.81,379.19c-0.95,0.78-1.68,1.37-2.72,2.22
			C707,381.72,708.04,381.57,707.81,379.19z"/>
		<path d="M772.31,330.17c-2.03,0.35-3.84,0.66-5.65,0.97c-0.09-0.23-0.18-0.47-0.28-0.7c0.67-0.41,1.31-0.89,2.01-1.22
			c0.52-0.24,1.12-0.31,1.68-0.45c2.61-0.64,4.63-1.96,5.73-4.55c0.22-0.51,0.78-1.04,1.3-1.21c0.44-0.14,1.08,0.16,1.56,0.41
			c0.09,0.05-0.15,0.8-0.31,1.2c-0.23,0.58-0.52,1.14-0.83,1.8c3.33,0.69,6.53-2.01,9.67-0.27c0.03,0.22,0.06,0.44,0.09,0.65
			c-0.54,0.17-1.06,0.4-1.61,0.51c-2.95,0.6-5.94,1.06-8.85,1.81c-0.77,0.2-1.44,1.18-1.93,1.94c-2.39,3.7-4.68,7.47-7.08,11.16
			c-0.25,0.38-1,0.42-1.53,0.62c-0.09-0.63-0.46-1.41-0.21-1.85c1.36-2.5,2.88-4.91,4.32-7.36
			C771.03,332.55,771.62,331.42,772.31,330.17z"/>
		<path d="M818.05,371.76c0.76,0.33,1.62,0.54,2.25,1.03c0.8,0.63,1.38,1.09,2.58,0.79c2.87-0.72,5.8-1.2,8.72-1.66
			c0.62-0.1,1.32,0.32,1.98,0.5c-0.47,0.45-0.88,1.16-1.43,1.31c-2.34,0.6-4.73,1.03-7.1,1.54c-0.44,0.09-0.86,0.26-1.05,0.31
			c0.56,2.83,1.08,5.5,1.64,8.34c3.47-1.63,7.28-0.17,11.06-0.32c0.31-0.01,0.64,0.42,0.96,0.65c-0.33,0.23-0.66,0.63-1,0.65
			c-1.56,0.08-3.15,0.22-4.69,0.01c-3.7-0.49-6.85,0.28-9.53,3.07c-0.67,0.69-2.05,0.74-3.13,0.96c-0.27,0.05-0.9-0.37-0.9-0.57
			c0-0.38,0.26-0.84,0.56-1.11c0.38-0.34,0.9-0.51,1.35-0.78c2.71-1.59,3.11-2.65,2.61-5.75c-0.45-2.82-2.02-4.88-4-6.76
			c-0.49-0.46-0.86-1.04-1.29-1.57C817.77,372.19,817.91,371.98,818.05,371.76z"/>
		<path d="M763.68,440.44c-1.72-0.33-2.58,0.81-3.49,1.7c-2.04,1.98-4.01,4.05-6.02,6.06c-0.28,0.28-0.63,0.55-1,0.66
			c-0.33,0.1-0.73-0.04-1.09-0.07c0.04-0.38-0.06-0.86,0.14-1.11c0.61-0.77,1.38-1.41,2.01-2.16c3.51-4.16,6.98-8.35,10.51-12.49
			c0.66-0.77,1.53-1.35,2.31-2.01c1.05,0.99,0.78,1.79,0.12,2.59c-1.27,1.54-2.55,3.08-3.96,4.79c0.52,0.06,0.84,0.14,1.15,0.13
			c1.39-0.07,1.83,0.67,1.82,1.95c0,1.16,0.19,2.32,0.2,3.48c0.02,1.53,0.89,1.68,1.93,1.11c1.01-0.55,1.87-1.36,2.81-2.04
			c0.64-0.46,1.29-0.9,2.19-1.54c0.16,2.33-1.41,3.2-2.57,4.13c-0.91,0.73-2.17,1.04-3.31,1.44c-1.64,0.58-2.33-0.04-3.49-1.54
			C762.45,443.57,763.93,442.19,763.68,440.44z"/>
		<path d="M751.68,308.75c-3.4,1.6-6.35,3.64-9.97,3.93c-2.49,0.2-4.16-1.53-3.61-3.89c0.69-2.95,0.13-5.33-2.12-7.36
			c-0.54-0.49-0.88-1.21-1.3-1.81c1.71-1.47,2.31-1.43,3.53,0.18c0.62,0.81,1.24,1.61,1.84,2.4c1.71-2.06,3.3-3.96,4.89-5.87
			c0.11-0.13,0.18-0.33,0.31-0.41c0.82-0.52,1.52-1.78,2.62-0.79c0.19,0.17-0.44,1.62-0.99,2.2c-2.64,2.78-4.61,5.95-5.9,9.54
			c-0.19,0.54-0.33,1.12-0.39,1.69c-0.24,2.16,0.77,2.96,2.75,2.13c1.82-0.76,3.59-1.64,5.39-2.44
			C749.6,307.83,750.53,307.42,751.68,308.75z"/>
		<path d="M838.91,237.48c0.72,2.26,1.62,4.49,2.11,6.81c0.49,2.31,0.54,4.72,0.84,7.07c0.43,3.37-0.84,6.38-1.87,9.46
			c-0.86,2.58-1.56,5.22-2.35,7.83c-0.3,0.99-0.6,2.01-1.05,2.93c-0.22,0.44-0.8,0.7-1.22,1.03c-0.16-0.51-0.55-1.08-0.44-1.52
			c0.95-3.64,1.69-7.38,3.1-10.84c1.2-2.94,1.65-5.93,1.59-8.95c-0.07-3.52-0.63-7.04-1.05-10.55c-0.12-1-0.53-1.97-0.8-2.96
			C838.14,237.69,838.52,237.58,838.91,237.48z"/>
		<path d="M736.51,430.54c-1.41,0.15-2.45,0.32-3.48,0.33c-0.42,0-0.85-0.36-1.27-0.55c0.29-0.45,0.49-1.15,0.89-1.29
			c0.86-0.3,1.82-0.44,2.73-0.39c1.09,0.05,1.28-0.41,1.24-1.34c-0.04-0.76,0.09-1.53,0.14-2.3c0.22-0.04,0.45-0.08,0.67-0.12
			c0.2,0.67,0.57,1.35,0.57,2.02c-0.01,1.19,0.48,1.57,1.59,1.43c0.34-0.04,0.72-0.09,1.04,0.01c0.39,0.13,0.73,0.41,1.1,0.63
			c-0.3,0.31-0.55,0.79-0.9,0.89c-0.83,0.23-1.7,0.27-2.62,0.4c-0.36,1.64-0.78,3.26-1.05,4.9c-0.06,0.35,0.34,0.95,0.69,1.15
			c1.31,0.74,2.74,1.28,4,2.08c0.47,0.3,0.98,1.21,0.84,1.67c-0.27,0.93-1.04,0.77-1.83,0.32c-1.5-0.85-3.07-1.57-4.67-2.38
			c-0.62,1.27-1.05,2.35-1.67,3.31c-0.3,0.47-0.99,1-1.46,0.95c-0.48-0.05-1.06-0.67-1.31-1.19c-1.4-2.85-0.22-4.93,2.96-5.45
			c0.36-0.06,0.87-0.42,0.95-0.74C736.01,433.53,736.21,432.16,736.51,430.54z M733.02,440.01c0.23,0.02,0.46,0.04,0.69,0.06
			c0.32-0.74,0.64-1.49,1.12-2.59c-0.89,0.07-1.45,0.11-2.02,0.15C732.89,438.42,732.95,439.21,733.02,440.01z"/>
		<path d="M667.5,365.34c-2.25-2.28-2.09-6.09-0.07-7.6c1.66-1.24,1.79-1.55,1.51-3.7c-2.76,0.04-2.76,0.04-3.87-1.43
			c1.03-0.18,1.9-0.25,2.7-0.51c0.55-0.18,1.11-0.54,1.49-0.98c0.4-0.46,0.58-1.1,0.85-1.66c0.38,0.56,0.76,1.13,1.28,1.89
			c0.88-0.16,2.04-0.44,3.23-0.55c0.39-0.04,0.81,0.35,1.22,0.55c-0.25,0.4-0.41,1.02-0.77,1.17c-0.84,0.35-1.81,0.41-2.67,0.73
			c-0.62,0.23-1.62,0.67-1.64,1.05c-0.06,1.28-0.85,2.84,0.82,3.76c1.1,0.61,2.21,1.21,3.31,1.82c-0.3,2.21-1.2,2.63-2.9,1.39
			c-0.58-0.43-1.22-0.78-1.61-1.04C669.38,362.02,668.47,363.62,667.5,365.34z"/>
		<path d="M731.92,414.76c0.33,0.98,0.66,1.95,1.12,3.28c2.12-3.78,2.15-7.47,1.04-11.52c-1.65,2.29-3.3,4.57-4.96,6.86
			c-0.18-0.12-0.37-0.23-0.55-0.35c0.11-2.19,1.91-3.63,3.13-5.93c-1.74,0.9-3.02,1.62-4.36,2.22c-0.45,0.2-1.03,0.11-1.55,0.15
			c0.25-0.46,0.38-1.1,0.76-1.34c1.57-0.98,3.17-1.95,4.85-2.71c1.29-0.58,2.57-0.98,3.12-2.49c0.14-0.39,0.71-0.63,1.27-1.09
			c0.33,3.22,0.72,6.11,0.89,9.01c0.19,3.21-1.24,5.98-2.81,8.65c-0.27,0.47-0.97,0.69-1.48,1.02c-0.26-0.46-0.69-0.91-0.76-1.4
			c-0.2-1.43-0.25-2.89-0.37-4.33C731.49,414.78,731.71,414.77,731.92,414.76z"/>
		<path d="M676.45,332.71c-0.16,2.35-1.89,3.06-3.29,3.8c-4.04,2.13-5.6,1.91-8.29-0.88c-0.68,1.3-1.25,2.63-2.05,3.8
			c-0.37,0.54-1.23,0.75-1.86,1.1c0.02-0.62-0.15-1.32,0.08-1.85c2.01-4.76,4.07-9.49,6.18-14.2c0.25-0.57,0.93-0.94,1.41-1.41
			c0.06,0.69,0.34,1.45,0.15,2.06c-0.49,1.6-1.12,3.18-1.81,4.71c-0.79,1.75-0.56,3.33,0.71,4.66c1.23,1.29,2.76,1.37,4.32,0.57
			C673.36,334.37,674.71,333.64,676.45,332.71z"/>
		<path d="M728.23,242.22c2.35-0.62,3.36-0.28,4.18,1.56c0.65,1.46,1.14,3.05,1.38,4.63c0.99,6.7,0.89,13.31-2.06,19.6
			c-0.35,0.75-0.92,1.41-1.38,2.11c-0.21-0.06-0.43-0.12-0.64-0.18c0.16-0.99,0.15-2.05,0.49-2.97c2.3-6.23,2.37-12.61,1.34-19.07
			C731.18,245.72,730.74,243.55,728.23,242.22z"/>
		<path d="M735.03,364.44c-1.18,0.53-2.09,0.93-2.99,1.34c-0.14-0.17-0.28-0.34-0.42-0.5c0.48-0.53,0.9-1.16,1.46-1.58
			c1.47-1.1,2.9-2.34,4.54-3.08c0.88-0.39,2.23-0.04,3.25,0.32c0.49,0.17,0.94,1.13,0.98,1.75c0.22,4.02-0.85,7.81-2.31,11.5
			c-0.21,0.52-0.6,1.03-1.04,1.36c-0.25,0.19-1.11,0.1-1.14-0.01c-0.62-2.21-1.96-4.34-1.02-7.21c0.62,1.73,1.1,3.07,1.59,4.42
			c0.17-0.02,0.34-0.05,0.5-0.07c1.09-2.81,1.59-5.75,1.53-8.77c-0.01-0.43-0.58-1.15-0.95-1.18c-0.52-0.05-1.33,0.25-1.6,0.66
			c-1.03,1.6-1.85,3.35-2.85,4.97c-0.4,0.65-1.06,1.15-1.6,1.72c-0.2-0.14-0.4-0.29-0.59-0.43
			C733.21,368,734.05,366.35,735.03,364.44z"/>
		<path d="M761.57,415.28c2.27-1.27,4.65-1.73,7.22-1.31c3.94,0.65,4.43,2.65,3.04,5.67c-1.81,3.91-4.72,7.01-8.49,9.18
			c-0.66,0.38-1.53,0.39-2.3,0.57c-0.14-0.22-0.28-0.45-0.41-0.67c0.85-0.84,1.61-1.82,2.57-2.51c2.79-1.98,5.23-4.2,6.54-7.49
			c0.76-1.92,0.21-3.21-1.83-3.24c-1.45-0.02-2.94,0.36-4.35,0.76C762.49,416.53,761.73,416.72,761.57,415.28z"/>
		<path d="M819.91,294.24c-1.02,6.02-1.51,11.91-1.01,18c1.94-0.78,3.09-3.08,5.64-2.11c-1.62,1.73-3.12,3.46-4.78,5.02
			c-0.87,0.82-2.39,0.08-2.55-1.28c-0.28-2.47-0.57-4.97-0.45-7.44c0.16-3.22,0.7-6.43,1.11-9.64
			C818.02,295.71,818.21,294.6,819.91,294.24z"/>
		<path d="M716.62,290.67c-0.16,0.72-0.16,1.25-0.38,1.67c-1.13,2.22-2.56,4.33-3.39,6.65c-0.69,1.91-0.77,4.06-0.96,6.12
			c-0.13,1.37,0.8,1.84,1.92,1.32c1.61-0.74,3.15-1.66,4.67-2.59c0.75-0.46,1.38-1.11,2.07-1.67c0.12,0.1,0.25,0.2,0.37,0.3
			c-0.12,0.4-0.17,0.85-0.38,1.2c-1.74,2.84-4.37,4.46-7.54,5.21c-1.51,0.36-3.01-0.85-3.14-2.39c-0.5-6.11,2.1-11.04,5.95-15.48
			C715.89,290.9,716.09,290.88,716.62,290.67z"/>
		<path d="M587.97,279.84c0.14-1.14,0.1-2.34,0.46-3.4c1.52-4.45,1.65-9.04,1.14-13.61c-0.24-2.12-1.3-4.15-1.98-6.22
			c-0.13-0.4-0.24-0.81-0.36-1.22c0.15-0.12,0.31-0.24,0.46-0.36c0.66,0.63,1.57,1.13,1.93,1.9c2.04,4.28,3.05,8.79,2.26,13.53
			c-0.41,2.49-1.04,4.96-1.73,7.39c-0.24,0.84-0.98,1.54-1.5,2.3C588.43,280.04,588.2,279.94,587.97,279.84z"/>
		<path d="M845.76,267.89c-0.19-2.28,0.06-4.62,0.99-6.68c1.25-2.78,1.31-5.53,1.02-8.46c-0.36-3.59-0.49-7.21-0.72-10.81
			c0.24-0.08,0.48-0.16,0.72-0.23c0.34,0.69,0.9,1.36,0.99,2.08c0.48,3.74,0.96,7.48,1.21,11.24c0.1,1.46-0.28,2.98-0.65,4.43
			c-0.57,2.25-1.28,4.46-1.98,6.67c-0.22,0.68-0.6,1.3-0.91,1.95C846.19,268.02,845.97,267.96,845.76,267.89z"/>
		<path d="M809.11,444.65c1.71-0.29,2.89-0.49,4.07-0.69c0.1,0.27,0.2,0.54,0.3,0.82c-1.31,0.7-2.55,1.68-3.95,2.02
			c-0.97,0.24-2.37-0.07-2.42-1.73c-0.1-3.93-0.23-7.85-0.34-11.78c-0.02-0.64-0.06-1.3,0.07-1.91c0.1-0.42,0.49-0.78,0.75-1.16
			c0.37,0.36,0.95,0.67,1.06,1.1c0.17,0.65,0,1.39,0.02,2.08C808.81,437.09,808.96,440.79,809.11,444.65z"/>
		<path d="M740.61,263.63c4.2-7.65,5.31-15.04,1.78-23c0.59-0.73,1.47-0.75,1.99,0.32c0.69,1.43,1.41,2.95,1.57,4.49
			c0.53,5.01,0.36,10.01-1.91,14.65C743.39,261.43,742.8,263.07,740.61,263.63z"/>
		<path d="M811.11,403.33c3.89-0.83,7.77-1.68,11.67-2.48c2.21-0.45,4.43-0.84,6.65-1.17c0.38-0.06,0.83,0.37,1.25,0.57
			c-0.25,0.41-0.4,1.06-0.76,1.2c-1.14,0.45-2.14,2.01-3.64,0.6c-0.17-0.17-0.77,0.1-1.17,0.19c-3.91,0.82-7.81,1.69-11.73,2.41
			c-0.74,0.14-1.59-0.31-2.39-0.49C811.04,403.87,811.08,403.6,811.11,403.33z"/>
		<path d="M606.65,275.36c0.18-0.81,0.48-1.61,0.53-2.43c0.27-4.8,0.45-9.61,0.72-14.42c0.04-0.78,0.38-1.53,0.58-2.3
			c0.19,0.01,0.38,0.02,0.57,0.03c0.17,0.52,0.48,1.04,0.49,1.56c0.05,4.45,0.23,8.92-0.04,13.35c-0.1,1.54-1.37,3.01-2.1,4.51
			C607.15,275.57,606.9,275.46,606.65,275.36z"/>
		<path d="M821.58,361.11c-1.92,1.39-4.1,2.1-6.49,1.96c-0.61-0.03-1.36-0.65-1.73-1.21c-1.91-2.92-1.16-6.29-1.41-9.49
			c-0.02-0.23,0.76-0.77,1.13-0.73c0.33,0.04,0.79,0.63,0.85,1.04c0.29,1.95,0.37,3.93,0.69,5.87c0.47,2.87,0.57,2.91,3.47,2.54
			c1.12-0.14,2.22-0.39,3.33-0.6C821.47,360.7,821.53,360.9,821.58,361.11z"/>
		<path d="M656.83,364.17c-1.61-4.35-0.38-13.51,2.33-14.79c-0.22,2.12-0.45,4.01-0.61,5.91c-0.17,1.93-0.27,3.86-0.42,6.1
			c1.09-0.69,1.77-1.11,2.49-1.56C660.61,361.88,659.04,363.67,656.83,364.17z"/>
		<path d="M697.52,327.97c-0.03,1.85-2.3,4.3-3.95,4.25c-0.82-0.03-3.17-2.58-3.19-3.46c-0.05-1.72,2.57-4.53,4.23-4.54
			C696.1,324.21,697.54,326.08,697.52,327.97z M693.85,330.04c0.32,0.19,0.64,0.38,0.96,0.57c0.21-0.49,0.6-0.98,0.58-1.46
			c-0.03-0.91-0.23-1.84-0.5-2.72c-0.07-0.24-0.61-0.35-0.93-0.52c-0.15,0.73-0.39,1.46-0.42,2.2
			C693.52,328.75,693.74,329.4,693.85,330.04z"/>
		<path d="M812.96,417.28c6.31-1.32,12.61-2.63,18.92-3.95c0.11,0.1,0.23,0.2,0.34,0.3c-0.47,0.48-0.86,1.23-1.43,1.4
			c-3.32,1-6.65,2.02-10.04,2.72c-2.58,0.53-5.25,0.48-7.84-0.03C812.93,417.58,812.94,417.43,812.96,417.28z"/>
		<path d="M737.35,342.81c0.65-3.2,4.1-6.01,6.36-5.84c1.22,0.1,1.98,0.64,1.68,1.85c-0.62,2.51-1.34,5-2.17,7.45
			c-0.37,1.08-1.05,2.06-1.7,3.02c-0.35,0.52-0.92,0.9-1.4,1.35c-0.14-0.09-0.28-0.18-0.41-0.28c0.34-0.81,0.69-1.62,1.02-2.44
			c0.93-2.25,1.95-4.47,2.74-6.77c0.23-0.67-0.22-1.58-0.36-2.38c-0.79,0.24-1.72,0.28-2.33,0.75
			C739.55,340.5,738.49,341.7,737.35,342.81z"/>
		<path d="M704.84,364.83c0.31-0.66,0.59-1.35,0.94-1.99c2.27-4.23,3.22-8.68,2.55-13.48c-0.08-0.57,0.41-1.23,0.64-1.85
			c0.46,0.51,1.27,0.99,1.3,1.53c0.14,2.08,0.43,4.28-0.08,6.25c-0.78,3-2.15,5.85-3.37,8.73c-0.24,0.55-0.95,0.9-1.45,1.34
			C705.2,365.18,705.02,365,704.84,364.83z"/>
		<path d="M724.35,439.4c1.11-0.97,1.96-1.7,3.19-2.77c-0.11,0.85-0.04,1.28-0.22,1.51c-1.04,1.32-2.11,2.61-3.24,3.85
			c-0.22,0.24-0.78,0.39-1.07,0.28c-0.25-0.1-0.5-0.63-0.48-0.95c0.19-3.77,0.38-7.54,0.72-11.29c0.07-0.77,0.79-1.48,1.21-2.22
			c0.23,0.08,0.45,0.16,0.68,0.24c-0.26,1.81-0.63,3.62-0.76,5.44C724.25,435.35,724.35,437.22,724.35,439.4z"/>
		<path d="M662.42,406.07c-0.2-2.76-0.37-5.3-0.56-7.83c-0.09-1.16-0.34-2.33-0.25-3.47c0.05-0.62,0.66-1.19,1.01-1.79
			c0.35,0.44,0.95,0.85,1.02,1.34c0.33,2.24,0.51,4.49,0.74,6.74c0.06,0.58,0,1.18,0.14,1.73
			C664.92,404.41,664.2,405.33,662.42,406.07z"/>
		<path d="M841.52,303.76c-2.75-2.32-4.64-5.23-5.63-8.72c-0.08-0.29,0.31-0.99,0.56-1.04c0.5-0.09,1.27-0.03,1.55,0.29
			c0.64,0.73,1.05,1.65,1.54,2.5c0.85,1.48,1.55,3.09,2.59,4.42C843.06,302.4,842.86,303.03,841.52,303.76z"/>
		<path d="M730.8,393.29c1.47-0.11,2.47-1.75,4.47-0.69c-2.03,1.2-3.64,2.19-5.3,3.07c-0.22,0.11-0.97-0.26-1.08-0.55
			c-0.98-2.81-1.04-5.68-0.22-8.53c0.13-0.46,0.7-0.8,1.07-1.19c0.16,0.47,0.46,0.94,0.45,1.41
			C730.16,388.98,729.71,391.18,730.8,393.29z"/>
		<path d="M704.73,352.6c0.69-0.35,1.28-0.65,2.04-1.03c-0.28,2.85-1.5,4.42-4.08,5.05c-0.14-2.88-0.3-5.67-0.37-8.46
			c-0.01-0.26,0.72-0.82,0.88-0.75c0.39,0.17,0.85,0.6,0.93,1C704.41,349.82,704.54,351.24,704.73,352.6z"/>
		<path d="M786.8,333.9c-2.55,0.38-5.1,0.76-7.64,1.14c-0.68,0.1-1.37,0.28-2.06,0.25c-0.29-0.01-0.57-0.45-0.85-0.69
			c0.2-0.24,0.38-0.64,0.62-0.69c2.89-0.53,5.78-1.06,8.69-1.46c0.43-0.06,0.95,0.55,1.43,0.85
			C786.93,333.5,786.86,333.7,786.8,333.9z"/>
		<path d="M830.04,437.02c-1.19-2.22-2.11-3.82-2.9-5.49c-0.21-0.43-0.03-1.05-0.03-1.58c0.53,0.09,1.34-0.02,1.56,0.29
			c1.1,1.58,2.12,3.24,2.94,4.97C831.73,435.48,830.68,436.3,830.04,437.02z"/>
		<path d="M836.41,353.25c-0.52,0.65-0.78,1.25-1.05,1.25c-0.5,0-1.22-0.19-1.48-0.56c-1.02-1.45-1.94-2.99-2.82-4.53
			c-0.19-0.34-0.28-1.08-0.11-1.21c0.35-0.25,1.19-0.44,1.35-0.25C833.72,349.64,835.02,351.42,836.41,353.25z"/>
		<path d="M777.82,340.24c0.28-0.2,0.54-0.55,0.79-0.54c2.06,0.03,4.13,0.1,6.19,0.24c0.27,0.02,0.57,0.52,0.71,0.86
			c0.05,0.13-0.25,0.5-0.46,0.64C783.87,342.2,778.99,341.41,777.82,340.24z"/>
		<path d="M767.76,403.35c1.63,1.41,3.24,2.76,4.79,4.17c0.17,0.15,0.18,0.75,0.02,0.93c-0.22,0.26-0.68,0.46-1.02,0.45
			c-1.24-0.05-4.35-3.61-4.28-4.84C767.27,403.93,767.44,403.8,767.76,403.35z"/>
		<path d="M720.65,289.72c1.68,2.26,0.13,6.6-2.55,7.18C719.02,294.31,719.84,292.02,720.65,289.72z"/>
		<path d="M744.71,388.72c-0.57,0.63-0.88,1.15-1.33,1.39c-0.2,0.11-0.8-0.27-1.05-0.57c-0.67-0.8-1.29-1.64-1.83-2.53
			c-0.19-0.31-0.29-0.95-0.1-1.17c0.23-0.28,1-0.52,1.17-0.37C742.62,386.44,743.59,387.54,744.71,388.72z"/>
		<path d="M742.08,329.36c-1.05-0.95-2.1-1.72-2.88-2.7c-0.3-0.38,0.03-1.26,0.07-1.92c0.57,0.17,1.2,0.24,1.68,0.54
			c0.47,0.3,0.76,0.87,1.18,1.27C743.05,327.42,743.18,328.28,742.08,329.36z"/>
		<path d="M744.43,362.71c0.36-0.48,0.71-0.96,1.06-1.44c0.37,0.35,0.81,0.65,1.09,1.06c0.42,0.62,0.95,1.29,1.01,1.98
			c0.05,0.57-0.5,1.2-0.78,1.8c-0.47-0.28-1.1-0.45-1.36-0.86C745.01,364.54,744.8,363.69,744.43,362.71z"/>
		<path d="M743.17,407.64c-0.36,0.41-0.78,0.89-1.19,1.36c-0.36-0.42-0.83-0.78-1.07-1.26c-0.36-0.71-0.72-1.48-0.79-2.25
			c-0.04-0.49,0.43-1.03,0.68-1.54c0.44,0.28,1.06,0.45,1.28,0.85C742.52,405.59,742.75,406.5,743.17,407.64z"/>
		<path d="M724.03,289.53c0.15,1.33,0.37,2.45,0.36,3.57c0,0.32-0.7,0.87-1.07,0.87c-0.32,0-0.9-0.62-0.92-0.99
			C722.31,291.79,722.18,290.5,724.03,289.53z"/>
		<path d="M752.64,293.48c-0.66,0.54-1.04,0.86-1.43,1.17c-0.46-0.74-1.01-1.45-1.34-2.25c-0.08-0.2,0.53-0.68,0.83-1.04
			C751.28,291.99,751.86,292.62,752.64,293.48z"/>
		<path d="M753.83,292.02c-0.31-1.99-0.11-2.55,1.1-3.3C755.78,290.16,755.49,291.11,753.83,292.02z"/>
		<path d="M674.84,344.59c0.52,0.3,1.22,0.48,1.49,0.92c0.22,0.37-0.07,1.05-0.13,1.59c-0.2,0.04-0.4,0.09-0.6,0.13
			c-0.44-0.69-0.88-1.38-1.32-2.07C674.47,344.97,674.66,344.78,674.84,344.59z"/>
		<path class="vol1_3_st0" d="M560.73,306.35c-2.57,0.68-5.14,1.36-7.87,2.09c-0.05-1.16-0.1-2.16-0.15-3.17c-0.17-0.09-0.34-0.19-0.5-0.28
			c-0.37,0.49-0.81,0.93-1.08,1.47c-0.4,0.8-0.64,2.36-1.02,2.38c-1.62,0.09-3.27-0.25-4.9-0.47c-0.37-0.05-0.74-0.41-1.08-0.37
			c-5.04,0.49-8.86-2.15-12.6-4.92c-3.85-2.85-4.8-7.22-5.38-11.53c-1.03-7.6-1.61-15.26-2.52-22.87
			c-0.69-5.77-1.64-11.5-2.38-17.26c-0.75-5.84-0.16-11.49,2.69-16.77c0.25-0.46,0.35-0.99,0.6-1.44c1.34-2.39,2.96-4.05,6.12-4.03
			c5.28,0.03,10.57-0.45,15.86-0.59c4.23-0.11,8.48,0.07,12.71-0.04c4.47-0.12,8.93-0.51,13.4-0.63c4.06-0.11,8.12-0.02,12.39-0.02
			c-1.1,2.7-2.2,5.41-3.31,8.12c-1.93,4.72-4.27,9.31-5.68,14.18c-1.27,4.37-1.72,9.02-2.18,13.59c-0.67,6.72-1.07,13.46-1.49,20.2
			c-0.22,3.49-0.04,7-0.41,10.47c-0.24,2.27-0.89,4.59-1.82,6.68c-1.24,2.79-4.18,3.5-6.74,4.56c-0.85,0.35-1.79,0.49-2.69,0.72
			c0.03-2.31,0.21-4.63,0.04-6.92c-0.14-1.84-0.83-3.64-1.04-5.48c-0.75-6.77-1.58-13.53-2.04-20.32
			c-0.59-8.71-0.87-17.45-1.24-26.18c-0.22-5.17-0.33-10.35-0.57-15.53c-0.02-0.48-0.59-0.94-0.9-1.41
			c-0.25,0.49-0.73,0.98-0.72,1.46c0.18,8.32,0.43,16.64,0.64,24.95c0.07,2.62-0.09,5.25,0.08,7.86c0.39,5.98,0.86,11.95,1.41,17.92
			c0.35,3.88,0.82,7.75,1.39,11.6c0.48,3.27,1.28,6.5,1.73,9.78C559.62,305.17,559.78,305.91,560.73,306.35z M544.33,305.76
			c-1.17-5.76-2.49-11.42-3.44-17.14c-1.21-7.27-2.33-14.57-3.07-21.9c-0.58-5.66-0.58-11.39-0.73-17.09
			c-0.16-6.15-0.18-12.31-0.32-18.47c-0.01-0.4-0.43-0.79-0.65-1.19c-0.3,0.41-0.84,0.82-0.85,1.24
			c-0.06,5.46-0.12,10.92-0.01,16.38c0.07,3.37,0.71,6.74,0.61,10.1c-0.3,9.22,0.42,18.35,2.1,27.41
			c1.22,6.56,2.63,13.09,3.93,19.63C542.15,305.99,542.91,306.13,544.33,305.76z"/>
		<path class="vol1_3_st0" d="M810.34,220.92c1.08-1.34,1.63-2.03,2.19-2.73c0.25,0.14,0.49,0.19,0.53,0.31c1.52,4.26,4.75,6.89,8.45,9.16
			c2.13,1.3,3.6,3.38,3.85,5.76c0.69,6.55,1.16,13.16-0.03,19.68c-0.87,4.72-2.31,9.31-6.21,12.58c-4.84,4.07-9.57,8.44-15.76,10.33
			c-5.49,1.67-11.17,2.53-16.97,2.34c-1.34-0.05-1.79-0.59-1.8-1.92c-0.1-8.96-0.57-17.93-0.31-26.87
			c0.21-7.13,1.33-14.23,1.94-21.36c0.19-2.2,0.07-4.43-0.04-6.64c-0.02-0.42-0.65-0.81-1-1.21c-0.23,0.4-0.63,0.78-0.67,1.19
			c-0.55,5.73-1.16,11.46-1.54,17.21c-0.43,6.5-0.81,13.01-0.9,19.52c-0.08,5.92,0.25,11.85,0.39,17.78c0.02,0.69,0,1.38,0,2.04
			c-5.51,1.17-9.69-2.04-10.66-7.51c-1.35-7.58-0.61-15.08,0.04-22.63c0.47-5.45,0.79-10.92,1.27-16.37
			c0.31-3.56,1.21-6.99,3.1-10.06c1.6-2.59,3.65-4.2,7.09-4.05c7.44,0.32,14.89,0.18,22.34,0.41
			C807.45,217.92,810.14,216.81,810.34,220.92z M802.24,274.19c0-5.59-0.19-10.94,0.05-16.28c0.26-5.92,1.22-11.82,1.29-17.73
			c0.07-5.79,0.62-11.49,1.5-17.18c0.09-0.57,0.18-1.21,0.02-1.73c-0.14-0.43-0.66-0.74-1.01-1.1c-0.31,0.33-0.84,0.63-0.89,1.01
			c-0.51,3.33-1.09,6.66-1.35,10.01c-0.27,3.47,0,6.99-0.35,10.46c-0.88,8.74-1.63,17.48-1.52,26.27c0.02,1.39,0.04,2.81,0.26,4.17
			C800.43,273.21,800.94,274.28,802.24,274.19z"/>
		<path class="vol1_3_st0" d="M694.03,221c3.56-0.28,7.43-0.62,11.3-0.86c0.55-0.03,1.32,0.33,1.66,0.76c3.04,3.82,6.58,7.38,8.86,11.63
			c4.58,8.53,6.44,17.78,4.77,27.52c-0.58,3.38-2.83,5.6-5.17,7.85c-2.25,2.16-4.35,4.5-6.35,6.89c-1.5,1.8-3.31,2.65-5.59,2.74
			c-1.62,0.06-3.25,0.3-4.87,0.26c-0.47-0.01-1.2-0.67-1.35-1.17c-2.3-7.63-2.51-15.44-2.1-23.35c0.41-8.02,0.53-16.06,0.46-24.09
			C695.64,226.53,694.64,223.9,694.03,221z"/>
		<path class="vol1_3_st0" d="M680.52,278.67c-0.36-2.87-0.97-5.91-1.07-8.97c-0.3-9.14-0.41-18.28-0.55-27.42
			c-0.07-4.6,0.03-9.21-0.12-13.8c-0.06-1.94-0.58-3.87-0.93-6.03c1.58-0.14,3.11-0.3,4.64-0.41c2.32-0.17,4.66-0.21,6.96-0.51
			c2.32-0.3,3.57,1.32,3.71,3.06c0.38,4.63,0.75,9.3,0.62,13.93c-0.17,6.52-1.16,13.02-1.11,19.53c0.04,5.43,1.03,10.87,1.67,16.29
			c0.21,1.74-1.54,4.27-3.32,4.3C687.66,278.72,684.3,278.67,680.52,278.67z"/>
		<path class="vol1_3_st0" d="M677.12,237.19c0,9.96-0.12,19.92,0.07,29.88c0.07,3.4,0.84,6.81,1.44,10.18c0.27,1.55-0.11,2.27-1.7,2.02
			c-2.33-0.35-4.75-0.49-6.95-1.25c-3.31-1.14-4.65-3.97-4.68-7.3c-0.04-5.24,0.17-10.49,0.16-15.73c-0.01-2.08-0.34-4.15-0.55-6.23
			c-0.07-0.7-0.29-1.38-0.3-2.08c-0.07-6.12-0.22-12.24-0.12-18.35c0.07-4.56,0.43-4.82,4.91-5.32c1.62-0.18,3.26-0.16,4.87-0.36
			c1.12-0.14,1.63,0.3,1.79,1.35c0.33,2.18,0.81,4.35,0.98,6.54c0.17,2.2,0.04,4.42,0.04,6.63
			C677.08,237.19,677.1,237.19,677.12,237.19z"/>
		<path class="vol1_3_st0" d="M782.9,215.48c0.33-1.23,0.52-2.25,0.88-3.19c0.95-2.49,1.92-4.99,3-7.43c0.84-1.91,1.83-3.75,2.82-5.59
			c0.93-1.72,2.36-2.59,4.38-2.57c4.47,0.04,8.94-0.07,13.4,0.03c2.3,0.05,2.57,0.49,2.58,2.75c0.02,4.83,0.03,9.67,0.1,14.5
			c0.02,1.57-0.52,2.03-2.16,1.97c-7.49-0.3-14.99-0.44-22.49-0.62C784.73,215.31,784.04,215.4,782.9,215.48z"/>
		<path class="vol1_3_st0" d="M678.89,280.58c0.14,0.43,0.29,0.85,0.41,1.28c0.2,0.73,0.27,1.52,0.61,2.17c0.19,0.37,0.8,0.51,1.23,0.76
			c0.23-0.41,0.69-0.85,0.64-1.22c-0.12-0.93-0.46-1.84-0.81-3.09c3.69-0.17,7.2-0.33,11.04-0.51c-0.42,1.97-0.83,3.68-1.16,5.4
			c-0.85,4.5-0.83,4.5-5.33,5.51c-5.46,1.22-6.07,0.85-6.96-4.65c-0.29-1.8-0.26-3.66-0.38-5.49
			C678.41,280.68,678.65,280.63,678.89,280.58z"/>
		<path class="vol1_3_st0" d="M670.18,220.17c1.92-2.64,3.87-5.26,7.58-5.6c3.07-0.28,6.14-0.52,9.19-0.87c1.58-0.18,2.53,0.49,3.19,1.84
			c0.48,0.98,1.03,1.92,1.73,3.22c-7.41,0.65-14.47,1.27-21.52,1.89C670.3,220.49,670.24,220.33,670.18,220.17z"/>
		<path class="vol1_3_st0" d="M546.27,319.6c-0.32-3.19-0.63-6.22-0.96-9.5c1.81,0,3.35-0.05,4.89,0.04c0.31,0.02,0.7,0.54,0.86,0.91
			c0.28,0.63,0.41,1.33,0.61,2c1.21,4.09,0.49,5.29-3.76,6.24C547.5,319.38,547.1,319.44,546.27,319.6z"/>
		<path class="vol1_3_st0" d="M786.4,279.9c4.02-0.43,7.72-0.82,11.46-1.22c-0.44,3.87-0.8,4.31-4.15,5.05c-1.81,0.4-3.61,0.87-5.44,1.11
			c-0.5,0.07-1.5-0.5-1.58-0.92C786.42,282.6,786.47,281.2,786.4,279.9z"/>
		<path class="vol1_3_st0" d="M548.38,223.61c0.73-0.87,1.31-2.18,2.24-2.51c1.75-0.61,3.7-0.85,5.57-0.87c1.43-0.01,2.74,2.86,1.96,4.03
			c-0.21,0.31-0.89,0.44-1.35,0.41c-2.69-0.17-5.39-0.4-8.08-0.62C548.61,223.91,548.5,223.76,548.38,223.61z"/>
		<path class="vol1_3_st0" d="M790.57,546.43c-2.56-0.76-1.99-2.5-2.1-4.01c-0.23-3.31-0.49-6.62-0.88-9.91c-0.14-1.17-0.24-2.13,0.74-3.02
			c0.31-0.28,0.22-1,0.31-1.52c-0.47,0.07-1.05-0.01-1.38,0.25c-0.87,0.68-1.42,0.56-2.22-0.21c-1.96-1.9-4.5-2.68-7.11-3.02
			c-9.25-1.2-18.54-2-27.8-0.22c-8.18,1.57-15.63,4.96-22.14,10.15c-3.06,2.44-3.87,6.15-3.9,9.92c-0.02,2.32,0.38,4.65,0.39,6.98
			c0.03,4.42-0.07,8.82-2.39,12.85c-2,3.48-8.09,6.91-12.06,6.43c-2.88-0.35-5.79-0.67-8.57-1.43c-3.61-0.99-6.28-3.18-8.82-6.2
			c-2.75-3.27-3.66-6.71-4.01-10.55c-0.25-2.72,0.04-5.48-0.02-8.21c-0.08-3.47-0.29-6.93-0.37-10.4c-0.02-0.65,0.28-1.31,0.45-1.97
			c0.15-0.57,0.32-1.13,0.55-1.95c-0.82,0.17-1.29,0.27-1.71,0.36c-1.46-3.57-4.55-5.24-7.84-6.43c-5.89-2.13-11.09-5.34-15.48-9.73
			c-1.24-1.24-1.87-3.14-2.58-4.82c-0.12-0.3,0.64-1.27,1.18-1.5c6.59-2.78,12.26-7.06,18.16-10.97c0.24-0.16,0.53-0.31,0.68-0.54
			c1.89-2.8,4.83-3.58,7.87-3.66c7.31-0.18,14.63-0.14,21.95-0.17c4.19-0.02,8.38-0.02,12.58-0.01c11.11,0.02,22.22,0.03,33.33,0.07
			c6.91,0.03,13.83,0.4,20.72,0.08c4.01-0.18,7.98-1.35,11.95-2.2c4.14-0.89,8.32-1.7,12.35-2.98c3.34-1.06,6.5-2.71,9.72-4.15
			c1.37-0.61,2.88-1.13,3.98-2.09c4.23-3.7,8.52-7.36,12.39-11.41c3.77-3.93,7.24-4.86,12.33-2.91c3.41,1.3,5.43,3.36,6.01,6.94
			c0.44,2.75,0.92,5.5,1.49,8.23c0.69,3.32-1.05,5.33-3.61,6.85c-4.44,2.63-9.04,5-13.35,7.83c-2.78,1.82-5.45,4.01-7.59,6.53
			c-1.4,1.66-2.13,4.14-2.51,6.36c-0.97,5.62-1.59,11.3-2.31,16.96c-0.55,4.33-0.75,8.72-1.63,12.97
			c-1.08,5.26-1.91,10.72-5.24,15.2c-1,1.34-2.4,2.56-3.89,3.31c-2.74,1.39-5.64,2.48-8.53,3.53c-1.4,0.51-2.92,0.86-4.39,0.89
			c-1.9,0.05-2.44-1.84-3.16-3.09c-1.98-3.41-2.74-7.25-3.34-11.11C788.59,547.62,788.54,546.51,790.57,546.43z"/>
		<path class="vol1_3_st0" d="M707.54,445.43c-1.13,2.93-2.22,6.17-3.64,9.26c-1.06,2.31-2.73,4.33-3.79,6.64
			c-1.03,2.26-1.76,4.68-2.4,7.08c-1.13,4.26-3.61,7.8-5.9,11.43c-2.73,4.32-5.42,8.67-8.39,12.81c-1.32,1.85-3.1,3.5-4.99,4.78
			c-4.17,2.84-8.38,5.68-12.86,7.98c-7.65,3.93-15.58,7.26-24.12,8.82c-1.67,0.31-3.3,0.85-5.18,1.35
			c2.07-6.42,1.54-12.7,1.52-18.95c0-1.42-0.83-2.11-2.12-1.87c-3.87,0.71-7.77,1.37-11.56,2.4c-2.89,0.79-5.6,2.23-8.46,3.17
			c-2.44,0.81-3.23,2.69-3.58,4.87c-0.55,3.51-0.87,7.04,0.19,10.54c0.06,0.2-0.03,0.44-0.07,0.85c-3.12-0.15-6.18-0.38-9.24-0.42
			c-6.38-0.08-12.64-1.18-18.75-2.8c-6.2-1.64-12.66-2.98-17.66-7.45c-1.55-1.39-2.61-3.34-3.82-5.09
			c-2.98-4.3-6.14-8.49-8.81-12.97c-3.66-6.16-4.73-13.05-4.5-20.14c0.13-4.18,0.41-8.37,0.66-12.55c0.04-0.69,0.11-1.44,0.43-2.02
			c0.23-0.4,1-0.87,1.37-0.76c4.6,1.38,9.23,1.52,13.96,0.87c6.65-0.92,13.33-0.53,20.01-0.47c3.7,0.03,7.43-0.46,11.1-1.05
			c9.48-1.52,18.98-2.9,28.58-3.23c6.73-0.23,13.48,0.23,20.22,0.11c6.15-0.12,12.29-0.61,18.44-0.94c3.77-0.2,7.53-0.48,11.29-0.62
			c5.39-0.21,10.8-0.23,16.19-0.5C696.99,446.31,702.3,445.82,707.54,445.43z M659.71,465.64c-0.21-1.49-0.39-3.1-0.66-4.69
			c-0.45-2.63-2.13-4.39-4.58-4.95c-2.29-0.52-4.2,0.84-5.53,2.65c-3.4,4.64-4.08,9.89-2.98,15.42c0.12,0.59,0.7,1.18,1.22,1.57
			c1.11,0.83,2.31,1.52,3.47,2.27c2.68,1.75,5.47,0.99,6.98-1.79C659.4,472.86,659.43,469.31,659.71,465.64z M607.25,472.56
			c0.34-4.37-1.48-8.07-3.61-11.64c-0.99-1.66-5.11-1.98-6.38-0.48c-0.92,1.09-1.61,2.38-2.29,3.64c-1.58,2.95-1.53,6.1-1.16,9.34
			c0.36,3.17,0.91,5.77,4.35,7.37c4.57,2.13,8.42-0.73,8.76-4.78C607.01,474.87,607.14,473.72,607.25,472.56z M629.92,481.69
			c-0.01-2.38-1.41-3.98-3.27-3.98c-1.49,0-2.35,0.95-2.31,2.58c0.04,1.82,1.69,3.03,4.11,3.06
			C629.79,483.36,629.9,482.48,629.92,481.69z"/>
		<path class="vol1_3_st0" d="M709.4,423.15c0,2.16,0.1,4.52-0.02,6.88c-0.22,4.07-0.64,8.12-0.84,12.19c-0.07,1.39-0.93,1.31-1.83,1.54
			c-6.56,1.7-13.28,1.4-19.95,1.56c-6.74,0.16-13.48,0.1-20.22,0.3c-6.68,0.19-13.37,1.08-20.02,0.77
			c-10.54-0.5-21.01-0.15-31.46,1.1c-6.4,0.76-12.76,1.86-19.16,2.47c-4.85,0.47-9.76,0.35-14.64,0.61
			c-6.2,0.33-12.4,0.99-18.6,1.11c-3.27,0.06-6.55-0.69-9.82-1.14c-1.3-0.18-1.83-1.22-1.99-2.37c-0.3-2.13-0.43-4.28-0.73-6.41
			c-0.2-1.44,0.42-2.06,1.74-2.15c4.93-0.36,9.86-0.71,14.78-1.07c5.04-0.37,10.08-0.79,15.12-1.15c6.73-0.47,13.48-0.74,20.19-1.42
			c4.14-0.42,8.23-1.37,12.32-2.22c3.97-0.83,7.88-1.98,11.87-2.74c8.71-1.66,17.43-3.32,26.2-4.65c4.58-0.69,9.27-0.64,13.9-0.98
			c2.14-0.16,4.27-0.62,6.41-0.67c4.52-0.1,9.06,0.17,13.58-0.04C693.8,424.3,701.37,423.68,709.4,423.15z M607.53,443.76
			c2.7,0.22,4.77-0.07,6.48-1.55c0.99-0.86,1.73-0.68,2.78-0.13c1.37,0.72,2.86,1.27,4.37,1.66c0.54,0.14,1.25-0.38,1.89-0.59
			c-0.48-0.38-0.91-0.88-1.45-1.12c-1.75-0.77-3.72-1.18-4.96-3.17c2.1-0.88,4.57-0.13,6.1-2.1c-0.78-1.46-1.88-0.87-2.87-0.53
			c-1.53,0.53-2.92,1.07-3.87-1.02c-0.5-1.1-1.49-0.73-2.39-0.1c0.31,0.72,0.59,1.36,0.91,2.11c-1.94,0.35-3.66,0.6-5.34,1
			c-0.35,0.08-0.57,0.68-0.85,1.04c0.39,0.12,0.78,0.35,1.16,0.33c1.46-0.08,2.91-0.23,4.61-0.38
			C612.82,442.18,609.5,441.48,607.53,443.76z M623.46,435.44c1.23,0.29,2.22,0.58,3.23,0.73c0.27,0.04,0.73-0.29,0.87-0.56
			c0.11-0.21-0.05-0.7-0.25-0.91C626.67,434.02,624.34,434.34,623.46,435.44z"/>
		<path class="vol1_3_st0" d="M546.02,411.8c5.3,2.33,10.69,4.48,15.88,7.03c4.37,2.15,8.56,4.67,12.73,7.2c2.18,1.32,4.01,1.68,6.42,0.35
			c6.21-3.42,13.08-4.77,20.05-5.34c9.15-0.74,18.33-1.37,27.5-1.66c6.2-0.2,12.42,0.44,18.63,0.39c4.29-0.03,8.57-0.59,12.86-0.91
			c0.69-0.05,1.39-0.08,2.08-0.13c2.63-0.2,4.96-0.72,7.02-2.81c3.46-3.5,7.51-6.4,11-9.88c7.1-7.09,15.69-12.11,24.1-18.08
			c0.44,1.7,0.86,3.11,1.16,4.55c1.29,6.14,2.57,12.28,3.81,18.44c0.47,2.34,0.88,4.7,1.18,7.06c0.22,1.77-1.04,3.08-2.79,3.31
			c-10.29,1.39-20.63,1.31-30.98,1.28c-4.22-0.01-8.45,0.58-12.66,0.94c-4.51,0.39-9.04,0.71-13.52,1.3
			c-4.88,0.64-9.76,1.41-14.59,2.38c-6.02,1.22-11.97,2.81-17.98,4.05c-7.68,1.58-15.39,3.01-23.27,3.38
			c-4.7,0.22-9.38,0.85-14.07,1.17c-7.93,0.54-15.87,0.87-23.79,1.51c-2.84,0.23-5.63,1.13-8.72,1.77
			c-2.28-8.53-1.81-17.75-2.49-26.85C545.71,412.12,545.86,411.96,546.02,411.8z M698.73,416.05c1.77-0.23,2.45-0.82,1.87-2.38
			c-0.25-0.68-0.18-1.49-0.27-2.24c-0.38-3.29-0.71-6.58-1.19-9.85c-0.23-1.59-1.22-1.95-2.48-1.02c-2.32,1.73-4.76,3.34-6.88,5.3
			c-1.94,1.8-3.57,3.95-5.21,6.05c-0.34,0.44-0.11,1.33-0.14,2.01c0.71-0.22,1.43-0.42,2.14-0.66c0.15-0.05,0.25-0.24,0.36-0.37
			c1.48-1.9,2.84-3.92,4.48-5.67c1.57-1.68,3.44-3.09,5.53-4.92C697.6,407.27,698.16,411.62,698.73,416.05z M555.39,425.73
			c0.72,0.39,1.26,0.68,1.79,0.98c2.94,1.63,5.86,3.29,8.84,4.84c0.44,0.23,1.17-0.1,1.76-0.17c-0.31-0.53-0.48-1.29-0.94-1.54
			c-3.63-2.02-7.29-3.99-10.99-5.88c-0.78-0.4-1.74-0.44-2.88-0.7c0.52,3.6,0.96,6.69,1.4,9.77c0.19,0,0.39,0,0.58,0
			C556.55,430.9,555.71,428.5,555.39,425.73z"/>
		<path class="vol1_3_st0" d="M686.55,535.77c0.17,5.56,0.45,10.66,0.46,15.77c0.01,4.12,0.9,7.93,2.96,11.49
			c1.28,2.19-0.28,5.45-2.98,5.81c-4.6,0.61-9.22,1.15-13.85,1.38c-6.33,0.31-12.68,0.21-19.01,0.46c-4.3,0.17-8.58,0.62-12.87,1.02
			c-1.99,0.18-3.81-0.13-4.91-1.89c-1.28-2.04-1.25-4.41,0.13-6.26c1.05-1.41,2.69-2.78,4.33-3.27c5.27-1.59,10.62-2.99,16.02-4.03
			c5.8-1.12,11.44-2.65,16.59-5.53c3.38-1.89,6.02-4.73,8.24-7.92C683.22,540.56,684.77,538.34,686.55,535.77z"/>
		<path class="vol1_3_st0" d="M785.64,532.31c0.04,0.1,0.28,0.39,0.3,0.7c0.36,4.11,0.73,8.22,1,12.34c0.03,0.53-0.31,1.24-0.72,1.6
			c-2.27,2.02-4.74,3.68-7.73,4.51c-6.84,1.9-13.78,2.72-20.86,2.23c-2.28-0.16-4.42-0.83-6.14-2.56c-1.16-1.17-1.12-2.39-0.44-3.64
			c1.47-2.71,3.78-3.75,6.87-3.85c3.91-0.12,7.89-0.33,11.68-1.21c2.5-0.58,4.8-2.26,7.02-3.71
			C779.66,536.77,782.53,534.54,785.64,532.31z"/>
		<path class="vol1_3_st0" d="M622.35,516.92c-2.5,0-4.7,0.09-6.88-0.08c-0.45-0.03-1.16-1.03-1.18-1.6c-0.17-3.76-0.22-7.52-0.18-11.29
			c0.01-0.54,0.63-1.34,1.16-1.58c5.56-2.52,11.27-4.6,17.35-5.46c0.63-0.09,1.28-0.07,1.91-0.13c1.12-0.11,1.43,0.5,1.39,1.48
			c-0.14,3.08-0.14,6.16-0.44,9.22c-0.23,2.29-0.8,4.55-1.3,6.8c-0.31,1.41-1.24,2.17-2.73,2.24c-1.8,0.08-3.6,0.3-5.39,0.23
			c-0.47-0.02-1.2-0.8-1.31-1.33c-0.46-2.1-0.69-4.25-1.07-6.37c-0.15-0.85-0.36-1.73-0.73-2.5c-0.24-0.5-0.84-0.83-1.27-1.23
			c-0.24,0.54-0.72,1.1-0.69,1.63c0.1,1.56,0.4,3.1,0.62,4.66C621.84,513.31,622.08,515.01,622.35,516.92z"/>
		<path class="vol1_3_st0" d="M614.9,518.57c2.12,0,3.87,0.15,5.58-0.04c1.87-0.21,2.2,0.76,2.16,2.23c-0.01,0.29-0.05,0.58-0.06,0.87
			c-0.06,1.18,0.77,1.66,1.65,1.51c0.45-0.07,0.99-0.99,1.07-1.58c0.12-1-0.09-2.03-0.17-3.22c1.38-0.07,2.53-0.08,3.67-0.18
			c1.08-0.09,2.16-0.27,3.58-0.46c-0.31,0.77-0.42,1.38-0.75,1.84c-2.34,3.31-5.48,5.71-9.11,7.39c-1.16,0.53-2.62,0.64-3.91,0.54
			c-0.66-0.05-1.58-0.89-1.8-1.56C616.05,523.56,615.54,521.12,614.9,518.57z"/>
		<path class="vol1_3_st0" d="M769.08,309.65c2.19-2.77,5.2-3.45,8.37-3.68c0.99-0.07,1.82,1.36,1.44,2.25
			C777.34,311.85,772.09,312.71,769.08,309.65z"/>
		<path class="vol1_3_st0" d="M772.86,383.44c-0.1,2.01,0.14,3.79-0.36,5.33c-0.53,1.62-1.62,3.14-2.74,4.46c-0.65,0.76-1.95,0.8-2.4-0.43
			c-0.58-1.58-1.49-3.42-1.14-4.88c0.54-2.22,1.91-4.28,3.19-6.24c0.42-0.65,1.66-0.76,2.53-1.12c0.31,0.84,0.63,1.67,0.92,2.52
			C772.92,383.29,772.86,383.54,772.86,383.44z"/>
		<path class="vol1_3_st0" d="M824.83,333.97c0.36,1.32-0.27,3.54-0.86,3.33c-0.7-0.25-1.67-1-1.71-1.58
			C822.16,333.97,823.73,334.24,824.83,333.97z"/>
		<path class="vol1_3_st0" d="M694.64,305.89c-0.02,1.87-1.07,3.16-2.25,3.04c-0.34-0.04-0.94-0.86-0.86-1.03
			c0.58-1.12,1.32-2.16,2.01-3.23C693.99,305.17,694.44,305.66,694.64,305.89z"/>
		<path class="vol1_3_st0" d="M707.81,379.19c0.23,2.38-0.81,2.53-2.72,2.22C706.13,380.56,706.85,379.97,707.81,379.19z"/>
		<path class="vol1_3_st0" d="M733.02,440.01c-0.07-0.79-0.14-1.58-0.2-2.38c0.56-0.04,1.13-0.08,2.02-0.15c-0.48,1.1-0.8,1.84-1.12,2.59
			C733.48,440.05,733.25,440.03,733.02,440.01z"/>
		<path class="vol1_3_st0" d="M693.85,330.04c-0.11-0.64-0.33-1.29-0.3-1.92c0.03-0.74,0.27-1.47,0.42-2.2c0.32,0.17,0.86,0.27,0.93,0.52
			c0.26,0.88,0.47,1.8,0.5,2.72c0.02,0.48-0.37,0.97-0.58,1.46C694.49,330.42,694.17,330.23,693.85,330.04z"/>
		<path d="M560.73,306.35c-0.95-0.44-1.12-1.18-1.26-2.2c-0.45-3.28-1.24-6.51-1.73-9.78c-0.57-3.85-1.03-7.73-1.39-11.6
			c-0.55-5.97-1.02-11.94-1.41-17.92c-0.17-2.61-0.01-5.24-0.08-7.86c-0.21-8.32-0.46-16.64-0.64-24.95
			c-0.01-0.48,0.47-0.98,0.72-1.46c0.31,0.47,0.88,0.93,0.9,1.41c0.24,5.17,0.35,10.35,0.57,15.53c0.37,8.73,0.65,17.46,1.24,26.18
			c0.46,6.79,1.29,13.56,2.04,20.32c0.2,1.84,0.9,3.64,1.04,5.48c0.17,2.29-0.01,4.61-0.04,6.92
			C560.69,306.4,560.73,306.35,560.73,306.35z"/>
		<path d="M544.33,305.76c-1.42,0.37-2.18,0.23-2.43-1.04c-1.3-6.55-2.71-13.07-3.93-19.63c-1.68-9.05-2.39-18.18-2.1-27.41
			c0.11-3.35-0.54-6.73-0.61-10.1c-0.11-5.46-0.05-10.92,0.01-16.38c0-0.41,0.55-0.82,0.85-1.24c0.23,0.4,0.64,0.79,0.65,1.19
			c0.13,6.16,0.15,12.31,0.32,18.47c0.15,5.7,0.15,11.43,0.73,17.09c0.75,7.33,1.87,14.63,3.07,21.9
			C541.84,294.34,543.16,300,544.33,305.76z"/>
		<path d="M802.24,274.19c-1.3,0.1-1.81-0.98-2-2.12c-0.23-1.37-0.25-2.78-0.26-4.17c-0.11-8.79,0.64-17.53,1.52-26.27
			c0.35-3.46,0.08-6.98,0.35-10.46c0.26-3.35,0.84-6.68,1.35-10.01c0.06-0.37,0.59-0.67,0.89-1.01c0.35,0.36,0.87,0.67,1.01,1.1
			c0.17,0.52,0.07,1.16-0.02,1.73c-0.89,5.69-1.43,11.39-1.5,17.18c-0.07,5.91-1.03,11.81-1.29,17.73
			C802.05,263.24,802.24,268.6,802.24,274.19z"/>
		<path d="M659.71,465.64c-0.28,3.67-0.31,7.22-2.07,10.47c-1.51,2.79-4.3,3.54-6.98,1.79c-1.16-0.76-2.37-1.45-3.47-2.27
			c-0.52-0.39-1.11-0.98-1.22-1.57c-1.1-5.53-0.42-10.77,2.98-15.42c1.32-1.81,3.24-3.17,5.53-2.65c2.45,0.56,4.14,2.31,4.58,4.95
			C659.32,462.54,659.5,464.15,659.71,465.64z"/>
		<path d="M607.25,472.56c-0.11,1.15-0.24,2.31-0.34,3.46c-0.33,4.05-4.19,6.9-8.76,4.78c-3.44-1.6-3.99-4.21-4.35-7.37
			c-0.37-3.24-0.41-6.39,1.16-9.34c0.67-1.26,1.37-2.56,2.29-3.64c1.27-1.5,5.38-1.18,6.38,0.48
			C605.78,464.49,607.6,468.19,607.25,472.56z"/>
		<path d="M629.92,481.69c-0.02,0.78-0.13,1.67-1.48,1.65c-2.42-0.03-4.07-1.23-4.11-3.06c-0.03-1.63,0.82-2.58,2.31-2.58
			C628.51,477.71,629.9,479.32,629.92,481.69z"/>
		<path d="M607.53,443.76c1.98-2.28,5.3-1.58,6.56-4.54c-1.7,0.15-3.15,0.31-4.61,0.38c-0.38,0.02-0.77-0.21-1.16-0.33
			c0.28-0.36,0.5-0.96,0.85-1.04c1.69-0.4,3.4-0.65,5.34-1c-0.32-0.75-0.6-1.39-0.91-2.11c0.9-0.63,1.89-1,2.39,0.1
			c0.95,2.09,2.34,1.54,3.87,1.02c0.99-0.34,2.09-0.94,2.87,0.53c-1.53,1.97-3.99,1.22-6.1,2.1c1.23,1.99,3.21,2.4,4.96,3.17
			c0.54,0.24,0.97,0.74,1.45,1.12c-0.63,0.22-1.35,0.74-1.89,0.59c-1.5-0.39-2.99-0.94-4.37-1.66c-1.05-0.55-1.79-0.73-2.78,0.13
			C612.3,443.68,610.22,443.98,607.53,443.76z"/>
		<path d="M623.46,435.44c0.88-1.1,3.21-1.42,3.85-0.75c0.2,0.21,0.36,0.7,0.25,0.91c-0.14,0.28-0.6,0.6-0.87,0.56
			C625.68,436.02,624.69,435.73,623.46,435.44z"/>
		<path d="M698.73,416.05c-0.57-4.43-1.14-8.78-1.78-13.75c-2.08,1.83-3.95,3.24-5.53,4.92c-1.64,1.75-2.99,3.77-4.48,5.67
			c-0.11,0.14-0.21,0.32-0.36,0.37c-0.71,0.24-1.42,0.44-2.14,0.66c0.03-0.68-0.2-1.57,0.14-2.01c1.64-2.1,3.27-4.25,5.21-6.05
			c2.11-1.96,4.55-3.57,6.88-5.3c1.25-0.93,2.25-0.57,2.48,1.02c0.47,3.27,0.8,6.57,1.19,9.85c0.09,0.75,0.02,1.55,0.27,2.24
			C701.19,415.22,700.5,415.81,698.73,416.05z"/>
		<path d="M555.39,425.73c0.33,2.77,1.16,5.18-0.44,7.3c-0.19,0-0.39,0-0.58,0c-0.44-3.09-0.88-6.17-1.4-9.77
			c1.14,0.27,2.1,0.31,2.88,0.7c3.7,1.89,7.36,3.86,10.99,5.88c0.46,0.25,0.63,1.01,0.94,1.54c-0.59,0.07-1.32,0.4-1.76,0.17
			c-2.98-1.55-5.9-3.22-8.84-4.84C556.64,426.41,556.1,426.12,555.39,425.73z"/>
	</g>
</g>
</svg>
