<?xml version="1.0" encoding="utf-8"?>
<!-- Generator: Adobe Illustrator 26.3.1, SVG Export Plug-In . SVG Version: 6.00 Build 0)  -->
<svg version="1.1" xmlns="http://www.w3.org/2000/svg" xmlns:xlink="http://www.w3.org/1999/xlink" x="0px" y="0px"
	 viewBox="0 0 1366 768" style="enable-background:new 0 0 1366 768;" xml:space="preserve">
<style type="text/css">
	.vol1_5_st0{fill:#FFFFFF;}
	.vol1_5_st1{fill:none;stroke:#ffffff;stroke-width:204.0945;stroke-miterlimit:10;}
	.vol1_5_st2{fill:none;stroke:#ffffff;stroke-width:68.0315;stroke-miterlimit:10;}
	.vol1_5_st3{fill:none;stroke:#ffffff;stroke-width:51.0236;stroke-miterlimit:10;}
	.vol1_5_st4{fill:none;stroke:#ffffff;stroke-width:31.1811;stroke-miterlimit:10;}
</style>
<g id="base">
	<g>
		<path class="vol1_5_st0" d="M849,233.73c0,129.18,0,258.37,0,387.57c-116.65,0-233.31,0-350,0c0-163.07,0-326.15,0-489.3
			c116.64,0,233.32,0,350,0c0,33.41,0,66.87,0,100.33c-5.03-0.46-10.06-0.88-15.08-1.41c-7.96-0.84-15.97-0.44-23.96-1.48
			c-8.22-1.06-16.6-0.85-24.91-1.26c-9.54-0.47-19.07-0.83-28.61,0.02c-0.33,0.03-0.67-0.05-1.13-0.09c0-0.6-0.04-1.11,0.01-1.62
			c0.21-2.09,0.53-4.16,0.64-6.25c0.11-2.17-0.84-3.04-2.99-3.02c-0.87,0.01-1.76-0.03-2.62,0.08c-2.28,0.3-4.32,0.89-4.98,3.57
			c-0.4,1.63-1.1,3.18-1.68,4.77c-0.75,2.06-1.85,3.6-4.43,3.25c-0.91-0.12-1.86,0.1-2.79,0.1c-9.31,0.05-18.62-0.05-27.92,0.18
			c-9.83,0.24-19.65,0.75-29.48,1.23c-4.12,0.2-8.23,0.67-12.35,0.94c-0.61,0.04-1.33-0.26-1.82-0.63
			c-0.16-0.12,0.23-0.97,0.37-1.49c0.5-1.84,1.23-3.66,1.43-5.54c0.25-2.39-0.93-3.67-3.27-3.79c-2.2-0.11-4.43-0.05-6.63,0.17
			c-0.83,0.08-1.8,0.67-2.34,1.32c-1.28,1.56-2.5,3.22-3.43,5c-0.84,1.6-1.19,3.44-1.89,5.11c-0.29,0.7-0.85,1.63-1.47,1.79
			c-1.45,0.37-2.99,0.38-4.5,0.48c-6.21,0.39-12.46,0.51-18.63,1.21c-7.39,0.85-14.72,2.17-22.07,3.33
			c-9.36,1.48-18.73,2.91-28.06,4.53c-9.23,1.6-18.55,1.2-27.84,1.44c-1.15,0.03-1.69-0.48-1.85-1.59
			c-0.16-1.09-0.37-2.18-0.64-3.26c-0.56-2.24-1.3-2.75-3.6-2.49c-1.68,0.19-3.35,0.43-5.01,0.7c-2.32,0.38-2.55,0.75-2.61,3.08
			c-0.02,0.66-0.3,1.75-0.72,1.9c-1.61,0.55-3.31,1.01-5.01,1.1c-1.6,0.09-3.22-0.35-4.83-0.48c-6.25-0.53-12.5-1.05-18.76-1.55
			c-1.37-0.11-2.74-0.16-4.1-0.24c-0.09,0.21-0.18,0.41-0.27,0.62c0.47,0.28,0.92,0.76,1.41,0.8c8.39,0.73,16.79,1.4,25.19,2.1
			c1.08,0.09,2.14,0.29,3.39,0.46c-0.44,1.14-0.75,2.07-1.14,2.96c-2.27,5.22-4.11,10.58-4.92,16.24c-0.83,5.79-0.77,11.6,0.3,17.34
			c0.55,2.95,1.52,5.83,2.29,8.74c1.33,5.02,4.27,8.92,8.71,11.45c1.81,1.03,2.94,1.68,1.81,3.83c-0.14,0.26-0.06,0.72,0.08,1.01
			c0.74,1.57,1.4,3.2,2.34,4.65c0.64,0.98,1.73,1.4,2.86,0.46c1.07-0.89,2.28-1.65,3.21-2.67c2.86-3.14,2.87-3.53,1.01-6.7
			c0.43-0.27,0.85-0.57,1.3-0.81c5.1-2.7,8.4-7.19,11-12.05c2.9-5.43,3.39-11.54,3.42-17.61c0.02-4.75-1.14-9.31-2.34-13.88
			c-1-3.8-2.71-7.02-6.04-9.26c-1.45-0.97-2.84-2.04-4.69-3.37c1.42,0,2.39,0.04,3.36-0.01c7.09-0.36,14.2-0.47,21.25-1.21
			c5.94-0.62,11.79-2.01,17.7-2.98c2.58-0.43,5.19-0.62,7.77-1.02c7.4-1.16,14.77-2.59,22.2-3.51c6.63-0.82,13.33-1.11,20-1.61
			c2.05-0.15,4.11-0.21,6.41-0.33c-0.7,1.34-1.25,2.41-1.81,3.48c-1.81,3.46-2.75,7.01-2.25,11.02c0.93,7.41,3.01,14.39,7.09,20.64
			c3.38,5.18,7.52,9.54,14.16,10.39c0.43,4.28,0.28,4.63-2.67,6.36c-1.61,0.95-2.35,0.88-3.03-0.8c-0.63-1.59-0.77-3.37-1.22-5.04
			c-0.12-0.46-0.6-0.82-0.91-1.22c-0.25,0.5-0.78,1.05-0.71,1.5c0.31,1.93,0.58,3.92,1.31,5.71c0.35,0.86,1.9,2.01,2.54,1.81
			c2.05-0.63,4.1-1.6,5.81-2.89c0.69-0.52,0.53-2.22,0.67-3.39c0.09-0.75-0.06-1.52,0.02-2.27c0.07-0.61,0.16-1.32,0.52-1.78
			c1.24-1.6,2.74-3.02,3.89-4.68c2.03-2.93,4.26-5.74,4.91-9.46c0.88-5.09-0.2-10.01-1.38-14.81c-1.01-4.1-2.96-7.99-4.68-11.89
			c-0.71-1.6-1.91-2.99-3.04-4.71c24.85-2.43,49.53-2.76,74.32-2.57c-0.06,0.47-0.04,0.71-0.12,0.91
			c-1.73,4.02-2.87,8.17-3.43,12.53c-0.69,5.38-0.31,10.67,1.04,15.85c1.03,3.95,3.27,7.35,6.17,10.32
			c-0.26,0.27-0.58,0.45-0.62,0.69c-0.6,3.21-0.97,6.44,0.09,9.63c0.14,0.41,0.67,0.87,1.09,0.97c3.28,0.76,7.67-2.79,7.69-6.18
			c0.01-0.99-0.15-1.99-0.04-2.96c0.21-1.81-0.27-3.9,1.96-5c1.71-0.84,3.31-1.94,5.02-2.79c3.59-1.78,5.68-4.92,6.13-8.57
			c0.64-5.18-0.09-10.4-3.71-14.59c-3.3-3.83-7.32-6.79-12.15-8.5c-0.6-0.21-1.33-0.03-2.01-0.03c-0.04,0.18-0.07,0.36-0.11,0.54
			c0.78,0.45,1.53,0.97,2.35,1.35c7.03,3.29,12.79,7.64,13.67,16.12c0.44,4.29,0.39,8.64-3.55,11.37
			c-3.56,2.46-7.47,4.45-11.32,6.45c-1.51,0.78-3.4,0.71-4.33-1.01c-1.67-3.09-3.64-6.19-4.48-9.53
			c-1.67-6.67-1.57-13.49,0.42-20.16c0.53-1.77,1.24-3.49,1.86-5.23c1.07,1.43,2.19,2.79,2.23,4.18c0.26,7.49,0.22,15,0.39,22.5
			c0.05,2.08,0.38,4.17,0.78,6.21c0.11,0.57,0.93,1,1.42,1.5c0.33-0.53,0.95-1.06,0.94-1.58c-0.04-1.24-0.5-2.46-0.58-3.71
			c-0.14-2.2-0.12-4.42-0.18-6.63c-0.25-8.23-0.51-16.45-0.76-24.66c3.42-0.64,3.4-0.59,6.27,0.84c0.42,0.21,1.24-0.22,1.81-0.49
			c0.62-0.3,1.16-1.07,1.75-1.09c6.03-0.16,12.07-0.4,18.09-0.24c7.67,0.2,15.34,0.65,22.99,1.17c6.84,0.46,13.66,1.22,20.5,1.7
			c3.53,0.24,7.1,0.06,10.64,0.23C835.31,232.91,842.16,233.35,849,233.73z M509.23,388.51c0,1.13-0.1,1.99,0.02,2.82
			c0.25,1.8,0.6,3.64,2.5,4.51c1.76,0.81,3.36,0.54,5.01-0.61c2.6-1.81,3.15-4.24,2.47-7.05c-0.4-1.66,0.18-2.5,1.61-3.05
			c0.33-0.13,0.62-0.38,1.11-0.69c-0.18,1.2-0.38,2.16-0.45,3.13c-0.09,1.26,0.02,2.71,1.46,3c1.06,0.22,2.5,0.06,3.35-0.53
			c1.14-0.79,1.92-2.14,2.75-3.31c0.61-0.85,1.24-1.12,2.29-0.51c-0.19,0.46-0.33,0.88-0.53,1.28c-2.5,5.12,0.62,10.25,6.31,10.18
			c1.65-0.02,3.29-0.64,4.95-0.86c0.46-0.06,1.38,0.28,1.41,0.54c0.36,2.46,1.76,4.23,3.46,5.89c1.28,1.24,2.89,1.64,4.32,0.97
			c2.74-1.28,5.47-2.92,6.76-5.77c0.87-1.92,2.03-2.82,3.97-3.1c0.8-0.12,1.61-0.35,2.34-0.67c1.11-0.49,1.85-0.24,2.76,0.6
			c1.35,1.24,2.82,2.62,4.49,3.18c4.13,1.38,10.76-4.43,10.23-8.76c-0.1-0.78-0.4-1.54-0.66-2.52c0.72-0.1,1.32-0.24,1.93-0.25
			c10.53-0.11,21.07-0.38,31.6-0.26c7.73,0.09,15.46,0.67,23.19,1.06c5.69,0.29,11.37,0.62,17.05,0.95
			c4.87,0.28,9.74,0.59,14.61,0.86c7.13,0.4,14.27,0.76,21.4,1.2c2.55,0.16,5.08,0.55,7.63,0.73c5.1,0.36,10.21,0.62,15.31,0.98
			c4.4,0.31,8.8,0.78,13.21,1.05c7.61,0.47,15.22,0.8,22.83,1.28c7.14,0.45,14.26,1.05,21.4,1.47c1.23,0.07,1.83,0.44,1.99,1.6
			c0.07,0.52,0.16,1.03,0.2,1.55c0.25,3.2,1.85,5.2,5.01,6.12c1.53,0.45,2.92,1.4,4.37,2.14c0.85,0.43,1.26,1.01,1.13,2.08
			c-0.24,1.93,0.54,3.45,2.16,4.61c1.44,1.02,2.65,0.81,2.96-0.94c0.76-4.21,4.21-5.21,8-5.71c0.12,0.72,0.29,1.44,0.35,2.17
			c0.17,2.1,1.37,3.53,3.22,3.75c1.77,0.21,3.39-1.01,3.78-3.1c0.4-2.16,0.58-4.36,0.85-6.54c0.27-2.15,2.85-4.08,5.37-3.86
			c-0.38,1.17-0.73,2.31-1.11,3.44c-0.73,2.16-0.73,4.34-0.03,6.5c0.4,1.24,1.13,1.88,2.61,1.63c3.76-0.63,7.55-1.14,11.33-1.67
			c1.13-0.16,1.78,0.23,2.03,1.53c0.22,1.16,0.81,2.31,1.45,3.33c1.52,2.43,3.91,2.92,6.56,2.63c2.19-0.24,3.11-1.91,3.42-3.69
			c0.46-2.65,0.88-5.42,0.6-8.06c-0.23-2.17,0.31-3.4,2.07-4.38c1.68-0.94,1.81-2.47,1.23-4.06c-0.47-1.28-1.17-2.47-1.68-3.53
			c1.39-2.26,2.75-4.47,4.34-7.06c2.17-0.68,2.5-1.48,1.55-4c-0.52-1.38-0.95-2.85-1.04-4.31c-0.18-3.11-0.87-6.04-2.24-8.84
			c-0.84-1.73-1.61-1.85-2.85-0.3c-2.21,2.77-4.37,5.59-6.65,8.3c-0.43,0.52-1.34,0.92-2.02,0.9c-3.31-0.07-6.62-0.22-9.91-0.53
			c-0.93-0.09-1.92-0.68-2.68-1.28c-2.14-1.69-4.13-3.56-6.27-5.25c-1.07-0.84-1.94-0.4-2.24,0.94c-0.16,0.73-0.23,1.5-0.54,2.16
			c-0.27,0.58-0.8,1.03-1.21,1.54c-0.45-0.48-0.96-0.92-1.34-1.46c-0.22-0.31-0.22-0.78-0.35-1.16c-0.59-1.76-1.14-3.54-1.83-5.26
			c-0.17-0.43-0.82-0.84-1.3-0.91c-0.26-0.04-0.78,0.58-0.94,1c-0.8,2.04-1.47,4.14-2.32,6.17c-0.23,0.55-0.85,1.18-1.41,1.33
			c-2.87,0.75-5.9,1.02-8.63,2.09c-3.38,1.33-5.23-0.29-7.04-2.6c-0.28-0.37-0.52-0.78-0.86-1.09c-0.96-0.92-1.92-1.86-2.97-2.68
			c-0.74-0.57-1.46-0.42-1.69,0.63c-0.46,2.15-1.01,4.3-1.3,6.48c-0.34,2.62-0.51,5.26-0.62,7.9c-0.1,2.35-0.02,4.71-0.02,7.06
			c-0.09,0.08-0.19,0.15-0.28,0.23c-0.46-0.81-0.93-1.62-1.64-2.87c-0.23,1.26-0.37,2.07-0.53,2.92c-0.3,0.04-0.59,0.11-0.87,0.1
			c-4.99-0.28-9.99-0.53-14.98-0.88c-5.1-0.35-10.19-0.86-15.28-1.19c-5.05-0.33-10.11-0.45-15.16-0.81
			c-6.91-0.49-13.8-1.22-20.71-1.68c-10.16-0.67-20.33-1.19-30.49-1.78c-11.96-0.69-23.92-1.47-35.88-2.05
			c-9.18-0.45-18.38-0.78-27.57-0.93c-8.31-0.13-16.63,0.11-24.94,0.08c-3.67-0.01-7.57,1.34-10.85-1.76
			c0.88-1.41,2.04-2.89,2.8-4.55c1.95-4.27,4.66-8.6,0.47-13.13c-0.14-0.16-0.15-0.43-0.23-0.65c-0.49-1.37-0.87-2.79-1.49-4.09
			c-1.4-2.92-2.9-5.8-4.42-8.66c-0.53-0.99-1.31-0.95-1.88-0.02c-2.37,3.79-4.83,7.53-6.98,11.44c-1.11,2.02-2.14,3.2-4.72,3.05
			c-5.71-0.32-10.77,2.04-15.8,4.4c-0.78,0.36-1.94,0.39-2.75,0.1c-3.38-1.22-6.67-2.69-10.04-3.93c-1.68-0.62-3.45-1.48-5.36,0.26
			c-0.55-1.77-0.95-3.28-1.51-4.72c-0.2-0.51-0.75-1.16-1.21-1.22c-0.48-0.06-1.29,0.4-1.51,0.85c-0.73,1.5-1.14,3.16-1.9,4.64
			c-0.46,0.89-1.2,1.83-2.07,2.27c-2,1.02-4.05,1.2-5.84-0.67c-0.63-0.66-1.44-1.21-2.26-1.61c-0.56-0.27-1.35-0.37-1.91-0.19
			c-0.3,0.1-0.47,0.97-0.48,1.5c-0.01,0.68,0.26,1.37,0.32,2.06c0.14,1.61,0.89,3.28-0.36,4.55c0.9,1.05,1.71,1.99,2.75,3.19
			c-2.28,0.87-4.32,1.52-6.25,2.42c-0.99,0.46-2.3,1.22-2.54,2.09c-0.58,2.08-0.06,4.13,1.63,5.73c1.6,1.52,3.36,1.94,5.41,1.03
			C507.96,388.91,508.41,388.79,509.23,388.51z M740.12,411.18c-0.26-0.07-0.51-0.15-0.77-0.22c-0.25,0.84-0.61,1.67-0.74,2.53
			c-0.19,1.31-0.29,2.65-0.32,3.98c-0.07,2.96-0.12,5.91-0.11,8.87c0.01,3.59,0.51,7.24,0.02,10.75c-0.7,4.98-2.09,9.87-3.21,14.79
			c-1.1,4.86-2.18,9.72-3.35,14.56c-1.67,6.93-3.56,13.8-5.08,20.76c-1.42,6.51-2.58,13.07-3.7,19.64
			c-0.96,5.64-1.79,11.31-2.49,16.99c-0.58,4.72-1.13,9.46-1.29,14.2c-0.24,7.02-0.15,14.05-0.12,21.07
			c0.01,2.15,0.29,4.31,0.45,6.46c0.64-0.31,1.1-0.7,1.14-1.13c0.37-3.92,0.95-7.85,0.92-11.77c-0.07-8.77-0.06-17.53,1.03-26.24
			c0.8-6.38,1.79-12.73,2.83-19.07c0.68-4.12,1.6-8.21,2.43-12.3c1-4.93,1.94-9.87,3.05-14.78c0.93-4.13,2.1-8.21,3.09-12.33
			c0.86-3.6,1.6-7.24,2.41-10.85c1.27-5.6,2.86-11.15,3.74-16.81c0.66-4.27,0.44-8.68,0.54-13.03c0.04-1.97-0.2-3.94-0.14-5.91
			C740.55,417.94,740.98,414.53,740.12,411.18z M777.97,575.76c0.16-0.02,0.33-0.05,0.49-0.07c-0.07-0.4-0.13-0.8-0.22-1.2
			c-0.44-1.84-1.11-3.66-1.29-5.53c-0.36-3.8-0.41-7.63-0.69-11.44c-0.42-5.86-1.18-11.7-1.32-17.56
			c-0.19-8.13-0.14-16.27,0.21-24.4c0.26-6.03,1.13-12.04,1.82-18.04c0.51-4.44,1.12-8.87,1.77-13.29
			c0.76-5.23,1.67-10.44,2.39-15.68c0.54-3.92,0.94-7.86,1.28-11.8c0.69-8.16,2.72-16.2,2.27-24.45c-0.18-3.28-0.72-6.54-1.17-9.79
			c-0.07-0.49-0.56-0.93-0.85-1.39c-0.18,0.06-0.37,0.12-0.55,0.19c0.14,2.28,0.5,4.58,0.39,6.85c-0.32,6.73-0.73,13.46-1.3,20.17
			c-0.3,3.58-1.1,7.11-1.53,10.68c-0.4,3.27-0.49,6.58-0.92,9.85c-0.64,4.87-1.5,9.72-2.18,14.58c-0.56,3.97-0.98,7.95-1.48,11.92
			c-0.43,3.39-1.05,6.77-1.29,10.18c-0.51,7.42-0.98,14.84-1.19,22.27c-0.14,4.93,0.07,9.88,0.36,14.81
			c0.39,6.49,1.33,12.96,1.44,19.44C774.49,567.05,776.54,571.28,777.97,575.76z M684.18,562.27c0.58-2.83,1.01-5.14,1.54-7.43
			c1.33-5.81,2.94-11.57,4-17.43c1.12-6.15,1.59-12.42,2.61-18.59c0.88-5.26,2.16-10.45,3.23-15.68c0.8-3.91,1.68-7.82,2.28-11.76
			c1.44-9.35,2.79-18.72,4.08-28.09c0.8-5.76,1.32-11.56,2.17-17.31c1.32-8.97,2.86-17.91,4.2-26.87c0.44-2.93,0.6-5.91,0.81-8.87
			c0.03-0.38-0.44-0.8-0.68-1.2c-0.24,0.38-0.49,0.75-0.71,1.13c-0.05,0.09,0,0.23-0.02,0.35c-0.77,6.52-1.46,13.05-2.36,19.55
			c-0.56,4.02-1.52,7.99-2.14,12c-0.64,4.13-0.95,8.32-1.63,12.44c-1.06,6.44-2.38,12.83-3.46,19.27c-0.55,3.3-0.96,6.63-1.16,9.97
			c-0.47,7.93-2.52,15.55-4.31,23.23c-1.15,4.91-2.24,9.83-3.11,14.8c-0.62,3.54-0.62,7.18-1.29,10.71
			c-1.51,7.98-3.29,15.9-4.89,23.87C683,558.22,683.26,560.09,684.18,562.27z M797.85,457.03c1.05-0.29,2.22-0.47,3.25-0.95
			c1.36-0.62,2.59-1.52,3.93-2.19c0.29-0.14,1.06,0.07,1.2,0.33c0.75,1.42,1.37,2.9,1.93,4.15c-2.35,2.91-6.13,3.7-8.17,6.67
			c1.96,0.39,3.45-0.47,4.92-1.37c1.45-0.89,2.87-1.84,4.35-2.8c1.93,2.72,3.65,5.24,3.35,8.58c2.26,0.1,3.36-0.82,2.77-2.42
			c-0.7-1.89-1.43-3.77-2.25-5.6c-1.22-2.72-1.18-2.87,1.45-4.24c1.3-0.68,2.54-1.47,3.84-2.24c-1.04-1.62-1.83-1.78-3.13-0.68
			c-3.85,3.24-5.3,2.8-6.59-1.82c-0.03-0.09,0.04-0.21,0.14-0.71c2.3-0.69,4.8-1.38,7.25-2.21c0.7-0.24,1.82-0.96,1.78-1.36
			c-0.14-1.39-1.32-0.96-2.18-0.72c-2.18,0.6-4.36,1.23-6.49,1.98c-1.22,0.43-2.03,0.38-2.74-0.85c-0.31-0.53-1.13-0.76-1.71-1.13
			c-0.05,0.69-0.33,1.48-0.09,2.06c0.54,1.29,0.15,1.88-1.04,2.43c-1.63,0.76-3.2,1.65-4.73,2.59
			C798.14,454.95,797.09,455.37,797.85,457.03z M752.91,527.44c-0.12,0.09-0.25,0.19-0.37,0.28c0.46,0.35,0.89,0.92,1.39,0.99
			c0.66,0.1,1.46-0.04,2.04-0.36c0.32-0.18,0.54-1.07,0.37-1.45c-0.91-2.06-1.94-4.06-2.97-6.07c-1.07-2.09-1.07-2.2,0.96-3.3
			c2.14-1.15,4.34-2.19,6.43-3.43c1.24-0.73,1.14-1.91-0.12-2.91c-0.17,0.34-0.24,0.85-0.5,0.98c-2.69,1.35-5.38,2.7-8.15,3.86
			c-0.29,0.12-1.07-0.92-1.63-1.43c0.35-0.36,0.64-0.93,1.06-1.05c1.5-0.41,3.11-0.51,4.56-1.04c1.3-0.47,3.13-0.12,3.92-2.43
			c-0.94-0.09-1.75-0.36-2.47-0.21c-2.39,0.48-4.73,1.2-7.13,1.61c-0.55,0.1-1.3-0.58-1.86-1.01c-0.74-0.56-1.39-1.24-2.07-1.86
			c-0.02,0.78-0.24,1.62-0.02,2.33c0.42,1.36,0.1,2-1.29,2.42c-1.09,0.33-2.08,1.01-3.06,1.62c-0.32,0.2-0.49,0.66-0.72,1
			c0.44,0.23,0.91,0.69,1.31,0.63c1.02-0.15,2.04-0.47,3.01-0.83c2.34-0.88,2.33-0.91,3.4,1.7c-1.95,0.94-3.91,1.89-5.89,2.85
			c0.48,1.14,1.29,1.33,2.3,0.98c1.04-0.36,2.13-0.64,3.12-1.11c1.23-0.59,1.86-0.07,2.33,0.97c0.62,1.38,1.27,2.74,1.79,4.16
			C752.89,525.97,752.83,526.73,752.91,527.44z M702.61,535.15c0.1,0.47,0.37,0.97,0.22,1.19c-0.51,0.77-1.1,1.51-1.8,2.12
			c-0.5,0.43-1.24,0.57-1.82,0.93c-0.91,0.57-1.67,1.44-0.66,2.34c0.5,0.45,1.86,0.61,2.38,0.25c1.91-1.34,3.93-1.61,6.11-1.22
			c1.03,0.18,2.01,0.65,3.03,0.76c0.91,0.1,2.25,0.87,2.57-0.66c0.07-0.36-1.16-1.23-1.92-1.47c-1.84-0.59-3.76-0.95-5.51-1.37
			c-0.16-2.89,0.98-4.6,3.58-5.22c0.23-0.05,0.52-0.06,0.66-0.21c0.47-0.49,0.89-1.02,1.33-1.54c-0.65-0.2-1.31-0.58-1.96-0.56
			c-0.76,0.02-1.51,0.39-2.29,0.62c-0.39-3.42-0.38-3.39,2.27-4.84c1-0.55,1.92-1.27,3.14-2.09c-2.52-1.58-3.91,1-5.73,0.62
			c-0.97-0.99,0.11-3.25-2.22-3.61c0,0.86-0.04,1.54,0.01,2.22c0.12,1.65-0.59,2.29-2.26,2.24c-0.59-0.02-1.2,0.6-1.79,0.92
			c0.04,0.26,0.09,0.53,0.13,0.79c0.84,0.19,1.7,0.3,2.5,0.6c0.54,0.2,1.21,0.58,1.41,1.05c0.73,1.73,0.07,2.83-1.73,3.43
			c-1.26,0.41-2.5,0.91-3.66,1.53c-0.38,0.21-0.48,0.94-0.71,1.44c0.46,0.12,0.93,0.37,1.37,0.32
			C700.34,535.6,701.41,535.36,702.61,535.15z M819.45,494.55c-0.23,0.51-0.48,0.8-0.43,1.01c0.4,1.72-0.53,2.14-1.98,2.25
			c-0.8,0.06-1.64,0.21-2.37,0.53c-0.45,0.19-0.72,0.78-1.07,1.2c0.48,0.26,0.96,0.73,1.44,0.73c1.03,0,2.09-0.16,3.09-0.41
			c1.52-0.38,2.07,0.47,2.24,1.69c0.2,1.43,0.32,2.88,0.32,4.32c0,2.37-0.43,2.67-2.84,2.32c-3.31-0.49-4.45,0.86-3.18,3.9
			c0.59,1.41,1.49,2.69,3.24,2.8c1.68,0.1,2.63-0.8,3.16-2.4c0.37-1.13,1.33-1.41,2.41-0.86c2.06,1.05,4.07,2.21,6.16,3.17
			c0.5,0.23,1.27-0.13,1.92-0.22c-0.26-0.5-0.39-1.22-0.8-1.48c-2.58-1.6-5.22-3.11-7.98-4.73c0.02-0.25,0.13-0.94,0.09-1.62
			c-0.12-1.87-0.26-3.74-0.48-5.61c-0.15-1.31,0.4-1.72,1.59-1.5c0.85,0.16,1.71,0.55,2.53,0.49c0.73-0.06,1.43-0.62,2.14-0.95
			c-0.48-0.43-0.9-1.03-1.46-1.25c-0.62-0.24-1.37-0.14-2.06-0.18c-1.84-0.11-3.72-0.13-4.62-2.23
			C820.35,495.19,819.93,494.99,819.45,494.55z M714.31,486.08c0.13-0.45,0.23-0.78,0.33-1.12c0.54-1.76,0.22-4.17,3.17-4.12
			c0.2,0,0.61-0.62,0.57-0.91c-0.03-0.26-0.51-0.61-0.84-0.67c-0.59-0.11-1.22-0.03-2.02-0.03c0-1.53,0-2.94,0-4.17
			c1.54-0.4,2.88-0.76,4.22-1.11c-0.01-0.3-0.03-0.61-0.04-0.91c-1.12-0.08-2.25-0.33-3.35-0.2c-1.26,0.16-1.79-0.13-1.99-1.44
			c-0.12-0.76-0.77-1.45-1.18-2.16c-0.18,0.08-0.35,0.16-0.53,0.24c0,1.16,0,2.32,0,3.51c-1.61,0.43-3.3,0.89-5.35,1.44
			c1.62,2.16,3.5,0.85,5.1,1.19c0.12,0.27,0.31,0.57,0.39,0.9c0.72,2.96,0.38,3.36-2.67,3.88c-1.39,0.24-2.71,0.83-4.07,1.26
			c0.01,0.21,0.01,0.42,0.02,0.63c1.9,1.56,4.07-0.38,6.06-0.01c0.42,2.11-0.08,2.68-2.11,2.39c-2.58-0.36-4.09,0.91-3.7,3.13
			c0.38,2.16,2.93,2.84,5.21,1.24c1.01-0.71,1.7-0.7,2.6,0.06c0.45,0.38,1.11,0.69,1.68,0.7c0.54,0,1.09-0.43,1.63-0.67
			c-0.32-0.49-0.56-1.06-0.97-1.45C715.84,487.1,715.09,486.64,714.31,486.08z M744.89,555.5c1.1,1.02,1.93,0.94,2.76-0.11
			c0.93-1.17,2.01-2.24,2.92-3.43c1.77-2.3,4.02-3.19,6.88-2.68c2.17,0.39,3.79,2.74,3.04,4.8c-1.18,3.23-3.04,6.09-5.55,8.44
			c-2.06,1.93-2.13,1.86-3.09-0.76c-0.01-0.04-0.1-0.05-0.35-0.16c-0.41,1.24-0.95,2.45-1.17,3.71c-0.08,0.49,0.46,1.22,0.91,1.62
			c0.27,0.23,1.03,0.21,1.38-0.01c3.73-2.38,6.7-5.57,9.08-9.26c2.3-3.57,1.81-8.05-2.8-9.8c-1.06-0.4-2.17-0.67-2.89-0.89
			c0-1.17,0-2.1,0-3.43c-0.91,0.52-1.52,0.67-1.76,1.04c-1.75,2.76-4.55,3.38-7.46,3.69c-1.36,0.14-1.62,0.8-1.45,2.11
			c0.99,0,1.93,0,3.1,0C747.18,552.21,746.07,553.81,744.89,555.5z M760.27,491.96c0.98,1.14,2.04,2.51,3.25,3.73
			c0.4,0.4,1.18,0.42,1.78,0.62c-0.04-0.64,0.15-1.46-0.18-1.89c-1.24-1.68-2.57-3.3-4.01-4.81c-1.66-1.75-2.33-1.45-3.1,0.84
			c-0.75,2.24-1.59,4.49-2.71,6.56c-0.98,1.81-2.53,3.2-4.81,3.34c-1.29,0.08-2.12-0.37-2.28-1.77c-0.36-3.25-0.2-6.35,2.39-8.8
			c0.79-0.75,1.28-1.63,0.67-2.74c-5.63,1.09-13.34,4.95-14.97,7.7c4.36,0.61,6.65-3.85,10.26-3.98c-0.15,2.74-0.38,5.37-0.4,8
			c-0.02,2.28,1.23,3.4,3.52,3.41c2.07,0.01,4.06-0.57,5.3-2.21C756.86,497.5,758.41,494.81,760.27,491.96z M693.29,567.79
			c0,0.19,0,0.37,0,0.56c0.5-0.16,1.16-0.17,1.45-0.51c0.66-0.78,1.04-1.79,1.71-2.56c1.09-1.24,2.36-2.32,3.48-3.55
			c1.28-1.41,2.9-2.65,2.82-4.85c-0.03-0.85-0.1-1.72-0.29-2.55c-0.32-1.42,0.09-2.18,1.61-2.41c1.07-0.16,2.17-0.48,3.14-0.95
			c0.56-0.28,0.9-1.01,1.34-1.54c-0.61-0.13-1.26-0.45-1.83-0.34c-1.75,0.33-3.47,0.82-5.14,1.24c-0.56-0.98-1.06-1.87-1.77-3.11
			c-0.24,0.75-0.39,1.02-0.39,1.28c0.02,2.6,0.02,2.58-2.6,3.06c-1.08,0.2-2.15,0.49-3.22,0.74c0.04,0.21,0.07,0.43,0.11,0.64
			c1.88,1.44,4.41-1.01,6.24,0.73c-0.99,0.3-2.02,0.16-2.89,0.48c-2.8,1.02-3.3,4.19-1.15,6.49c0.35,0.38,0.77,1.17,0.6,1.49
			C695.52,564.07,694.38,565.91,693.29,567.79z M813.11,439.15c4.06-0.72,7.61-6.81,6.13-10.24c-0.32-0.74-0.96-1.6-1.67-1.88
			c-1.32-0.51-2.79-0.88-4.19-0.88c-7.09-0.01-13.17,3.37-19.43,6.08c-0.42,0.18-0.59,0.96-0.87,1.46c0.64,0.21,1.39,0.75,1.9,0.58
			c1.64-0.55,3.17-1.39,4.77-2.07c4.7-1.99,9.37-4.1,14.71-3.48c1.84,0.21,2.71,1.07,2.2,2.82c-0.46,1.59-1.26,3.09-1.96,4.61
			C814.23,437.12,813.68,438.05,813.11,439.15z M764.7,424.73c4.14-0.09,4.68,0.81,3.77,3.87c-0.84,2.85-2.78,4.87-4.59,7.04
			c-0.29,0.35-0.33,0.91-0.48,1.37c0.52,0.01,1.2,0.24,1.54,0c1.07-0.77,2.04-1.69,2.99-2.61c2.22-2.15,3.49-4.74,3.49-7.9
			c0-1.8-1.16-3.28-2.93-3.56c-3.22-0.52-6.46-0.24-9.42,0.95c-3.53,1.42-6.87,3.34-10.25,5.12c-0.63,0.33-1.16,0.96-1.56,1.57
			c-0.18,0.27,0,0.87,0.19,1.23c0.06,0.11,0.74,0.03,1.03-0.14c1.15-0.68,2.25-1.43,3.37-2.17
			C756.03,426.72,760.5,424.77,764.7,424.73z M725.2,421.72c-0.03,0.2-0.06,0.4-0.09,0.6c0.52,0.23,1.04,0.67,1.55,0.64
			c1.16-0.06,1.38,0.66,1.53,1.49c0.33,1.87-0.41,2.92-2.25,3.28c-1.59,0.31-2.5,1.29-2.77,2.88c-0.29,1.71,0.76,2.78,2.06,3.24
			c1.53,0.55,2.37-0.77,3.1-1.92c1.35-2.14,1.33-2.09,3.53-0.9c0.44,0.24,1.17-0.06,1.76-0.11c-0.18-0.54-0.21-1.37-0.58-1.57
			c-2.18-1.19-3.35-2.55-2.47-5.33c0.43-1.35,0.65-2.09,2.17-2.22c1.73-0.14,1.96-0.44,2.49-1.98c-1.51-0.07-2.92-0.13-4.43-0.2
			c-0.32-0.69-0.64-1.51-1.09-2.24c-0.15-0.24-0.66-0.39-0.98-0.36c-0.18,0.02-0.42,0.49-0.44,0.77c-0.06,0.86-0.02,1.72-0.02,2.54
			C727.18,420.83,726.19,421.27,725.2,421.72z M748.41,457.35c-0.1,0.35-0.21,0.91-0.43,1.42c-0.73,1.7-1.58,3.35-2.22,5.08
			c-0.2,0.53,0.11,1.24,0.18,1.87c0.64-0.19,1.29-0.34,1.9-0.6c0.21-0.09,0.32-0.47,0.44-0.73c1.2-2.5,2.33-5.04,3.64-7.48
			c0.41-0.76,1.24-1.5,2.04-1.82c2.61-1.05,5.31-1.89,8.07-2.85c-0.76-1.44-1.67-1.8-3.08-1.32c-1.49,0.51-3.06,0.81-4.79,1.25
			c0.21-0.71,0.43-1.1,0.41-1.48c-0.03-0.55-0.22-1.1-0.34-1.65c-0.67,0.18-1.38,0.27-2,0.57c-0.29,0.14-0.45,0.66-0.58,1.04
			c-0.67,1.91-1.72,3.36-3.85,3.86c-0.99,0.23-2.26,0.65-1.81,2.01C746.14,456.95,747.38,457.02,748.41,457.35z M717.74,446.4
			c-0.19-0.14-0.39-0.28-0.58-0.41c-0.56,0.3-1.42,0.47-1.62,0.93c-0.81,1.91-1.79,3.86-2.01,5.87c-0.29,2.64,0,5.35,0.17,8.02
			c0.16,2.65,2.38,4.29,4.31,3.19c2.25-1.28,4.42-2.7,6.56-4.15c1.42-0.96,1.39-1.73,0.28-2.75c-2.55,1.64-5.05,3.24-7.87,5.05
			C715.16,456.55,716.7,451.48,717.74,446.4z M759.26,463.53c-0.05,0.34-0.1,0.51-0.09,0.67c0.27,2.65,0.25,2.59-2.31,3.31
			c-0.61,0.17-1.52,0.8-1.54,1.26c-0.06,1.35,0.1,2.76,0.47,4.06c0.41,1.41,1.52,1.64,2.71,0.75c0.46-0.34,1.09-0.66,1.28-1.13
			c1.14-2.78,3.12-2.39,5.27-1.52c0.37,0.15,0.79,0.37,1.16,0.33c0.72-0.07,1.42-0.31,2.13-0.48c-0.49-0.57-0.87-1.34-1.49-1.65
			c-1.12-0.56-2.36-0.98-3.6-1.22c-1.17-0.22-1.68-0.72-1.76-1.91C761.41,464.75,760.98,463.62,759.26,463.53z M753.85,241.07
			c-0.08,0-0.16,0-0.23,0c0.01-0.23,0.09-0.49,0.02-0.69c-0.29-0.89,0.62-2.51-0.83-2.6c-1.56-0.09-1.23,1.65-1.25,2.59
			c-0.21,7.34-0.59,14.69,0.34,22.01c0.07,0.56,0.72,1.05,1.1,1.58c0.38-0.54,1.08-1.08,1.1-1.63c0.06-1.7-0.22-3.42-0.23-5.13
			C753.82,251.82,753.85,246.44,753.85,241.07z M798.71,517.76c-0.21-0.75-0.56-1.46-0.6-2.18c-0.22-4.71-0.4-9.42-0.53-14.13
			c-0.03-0.97-0.1-1.83-1.25-1.9c-1.12-0.06-1.32,0.7-1.42,1.71c-0.64,6.24,0.43,12.31,1.65,18.37c0.2,1,0.94,1.54,2.07,1.23
			c1.68-0.45,2.25-1.48,1.83-3.51C799.93,517.48,799.38,517.6,798.71,517.76z M712.9,496.4c-0.09-0.02-0.17-0.03-0.26-0.05
			c0-0.29,0.1-0.64-0.02-0.86c-0.33-0.58-0.76-1.11-1.14-1.65c-0.42,0.48-1.08,0.9-1.21,1.45c-0.66,2.74-1.26,5.5-1.74,8.28
			c-0.61,3.59-2.13,6.82-3.66,10.07c-0.23,0.49-0.03,1.19-0.02,1.79c0.6-0.22,1.54-0.26,1.74-0.67c1.69-3.54,3.44-7.06,4.76-10.74
			C712.21,501.6,712.4,498.94,712.9,496.4z M717.53,433.1c0-0.72-0.03-1.29,0.01-1.87c0.33-4.61,0.67-9.22,0.98-13.83
			c0.02-0.35-0.08-0.91-0.3-1.02c-0.25-0.13-0.88,0.03-1.03,0.26c-0.46,0.69-1.03,1.47-1.09,2.25c-0.36,4.73-0.55,9.48-0.88,14.22
			c-0.09,1.26-0.4,2.78,1.09,3.01c0.7,0.1,1.64-1.31,2.42-2.09c0.17-0.16,0.13-0.53,0.22-0.93
			C718.47,433.1,718.11,433.1,717.53,433.1z M705.04,501.74c0.21-1.65,0.5-3.13,0.52-4.61c0.01-0.49-0.67-0.98-1.03-1.48
			c-0.5,0.41-1.3,0.73-1.44,1.23c-0.58,2.1-1,4.24-1.39,6.39c-0.1,0.54,0.01,1.52,0.3,1.64c0.66,0.28,1.72,0.47,2.21,0.12
			c1.07-0.75,1.89-1.86,3.01-3.02C706.24,501.89,705.67,501.82,705.04,501.74z M755.2,534.27c-2.66-0.67-5.16-1.33-7.68-1.9
			c-0.52-0.12-1.13,0.11-1.7,0.18c0.34,0.54,0.55,1.33,1.04,1.56c1.2,0.56,2.51,0.86,3.78,1.28
			C752.34,535.94,753.78,535.47,755.2,534.27z M768.85,550.06c-1.84-2.5-3.38-4.6-4.92-6.71c-0.29,0.22-0.86,0.6-0.84,0.63
			c1.29,2.21,2.6,4.4,4,6.54C767.15,550.65,767.92,550.32,768.85,550.06z M805.65,480.56c2.23,3.52,5.93,4.77,7.97,1.98
			C810.45,483.56,808.89,479.76,805.65,480.56z M703.35,570.17c-0.07,1.26,0.61,2.2,1.53,1.86c1-0.38,2.15-1.22,2.53-2.15
			c0.43-1.04-0.73-1.55-1.73-1.54C704.4,568.36,703.17,568.57,703.35,570.17z M767.24,446.31c-0.56,0.79-1.06,1.2-0.98,1.42
			c0.46,1.34,0.97,2.67,1.65,3.92c0.15,0.27,1.01,0.15,1.55,0.21c0.05-0.48,0.21-0.98,0.12-1.42c-0.14-0.67-0.38-1.34-0.72-1.93
			C768.45,447.82,767.91,447.21,767.24,446.31z M826.07,448.15c-1.05-1.48-1.85-2.62-2.65-3.75c-0.37,0.48-1.01,0.94-1.05,1.45
			c-0.12,1.56,1.09,3.53,1.99,3.41C824.81,449.2,825.21,448.73,826.07,448.15z M832.56,446.77c0.13-0.17,0.81-0.84,0.72-0.96
			c-0.71-0.97-1.56-1.84-2.36-2.74c-0.38,0.38-0.99,0.7-1.08,1.14C829.64,445.09,831.22,446.78,832.56,446.77z M721.98,449.16
			c0.51-0.48,1.13-0.88,1.08-1.06c-0.35-1.11-0.8-2.2-1.34-3.23c-0.1-0.18-0.81-0.05-1.24-0.05c-0.04,0-0.12,0.08-0.12,0.11
			c0.12,0.88,0.15,1.8,0.42,2.63C720.95,448.11,721.48,448.53,721.98,449.16z M833.66,525.77c-1.17-0.75-2-1.35-2.9-1.8
			c-0.16-0.08-0.62,0.44-0.95,0.69c0.81,0.74,1.59,1.51,2.45,2.19C832.34,526.91,832.9,526.37,833.66,525.77z M724.94,442.33
			c-0.39,0.27-0.63,0.35-0.74,0.53c-0.51,0.79,0.54,3.09,1.46,3.17c0.24,0.02,0.72-0.17,0.72-0.28c0.02-0.55,0.05-1.16-0.17-1.64
			C725.92,443.48,725.4,442.94,724.94,442.33z M767.06,543.55c0.67,0.71,1.33,1.43,2,2.14c0.22-0.21,0.67-0.48,0.63-0.63
			C769.42,543.97,769,542.96,767.06,543.55z M772.35,541.88c-0.66-0.52-1.15-0.95-1.69-1.29c-0.06-0.03-0.44,0.46-0.67,0.71
			c0.49,0.45,0.96,0.91,1.49,1.31C771.53,542.64,771.9,542.25,772.35,541.88z"/>
		<path d="M849,233.73c-6.84-0.39-13.69-0.82-20.53-1.14c-3.54-0.17-7.1,0.02-10.64-0.23c-6.84-0.47-13.66-1.24-20.5-1.7
			c-7.66-0.51-15.32-0.97-22.99-1.17c-6.03-0.16-12.06,0.08-18.09,0.24c-0.59,0.02-1.13,0.79-1.75,1.09
			c-0.57,0.27-1.39,0.7-1.81,0.49c-2.87-1.43-2.85-1.48-6.27-0.84c0.25,8.21,0.51,16.43,0.76,24.66c0.07,2.21,0.04,4.42,0.18,6.63
			c0.08,1.24,0.54,2.47,0.58,3.71c0.02,0.51-0.6,1.05-0.94,1.58c-0.49-0.49-1.31-0.93-1.42-1.5c-0.4-2.05-0.74-4.13-0.78-6.21
			c-0.17-7.5-0.12-15-0.39-22.5c-0.05-1.39-1.17-2.75-2.23-4.18c-0.62,1.74-1.33,3.46-1.86,5.23c-1.99,6.68-2.09,13.49-0.42,20.16
			c0.84,3.35,2.81,6.44,4.48,9.53c0.93,1.72,2.82,1.79,4.33,1.01c3.86-2,7.76-3.99,11.32-6.45c3.95-2.73,4-7.08,3.55-11.37
			c-0.87-8.48-6.64-12.84-13.67-16.12c-0.81-0.38-1.57-0.9-2.35-1.35c0.04-0.18,0.07-0.36,0.11-0.54c0.67,0,1.41-0.18,2.01,0.03
			c4.83,1.71,8.84,4.67,12.15,8.5c3.61,4.19,4.35,9.41,3.71,14.59c-0.45,3.64-2.55,6.79-6.13,8.57c-1.71,0.85-3.3,1.94-5.02,2.79
			c-2.23,1.1-1.74,3.18-1.96,5c-0.12,0.97,0.04,1.97,0.04,2.96c-0.02,3.39-4.41,6.94-7.69,6.18c-0.43-0.1-0.96-0.56-1.09-0.97
			c-1.06-3.19-0.68-6.42-0.09-9.63c0.04-0.23,0.36-0.41,0.62-0.69c-2.9-2.97-5.14-6.36-6.17-10.32c-1.35-5.18-1.73-10.47-1.04-15.85
			c0.56-4.36,1.71-8.51,3.43-12.53c0.09-0.2,0.06-0.44,0.12-0.91c-24.8-0.19-49.48,0.14-74.32,2.57c1.13,1.72,2.33,3.11,3.04,4.71
			c1.72,3.9,3.67,7.79,4.68,11.89c1.18,4.8,2.26,9.72,1.38,14.81c-0.64,3.72-2.87,6.53-4.91,9.46c-1.15,1.66-2.64,3.08-3.89,4.68
			c-0.35,0.46-0.45,1.17-0.52,1.78c-0.08,0.75,0.06,1.52-0.02,2.27c-0.14,1.17,0.02,2.87-0.67,3.39c-1.7,1.29-3.75,2.27-5.81,2.89
			c-0.64,0.19-2.19-0.96-2.54-1.81c-0.73-1.79-1-3.78-1.31-5.71c-0.07-0.45,0.46-1,0.71-1.5c0.31,0.4,0.79,0.77,0.91,1.22
			c0.45,1.67,0.58,3.45,1.22,5.04c0.67,1.69,1.41,1.75,3.03,0.8c2.95-1.73,3.1-2.08,2.67-6.36c-6.64-0.84-10.78-5.21-14.16-10.39
			c-4.08-6.25-6.16-13.24-7.09-20.64c-0.5-4.01,0.44-7.56,2.25-11.02c0.56-1.07,1.12-2.14,1.81-3.48c-2.31,0.11-4.37,0.17-6.41,0.33
			c-6.67,0.5-13.37,0.79-20,1.61c-7.43,0.92-14.8,2.35-22.2,3.51c-2.58,0.4-5.19,0.59-7.77,1.02c-5.9,0.98-11.76,2.37-17.7,2.98
			c-7.05,0.73-14.16,0.84-21.25,1.21c-0.97,0.05-1.94,0.01-3.36,0.01c1.85,1.33,3.24,2.4,4.69,3.37c3.33,2.24,5.04,5.46,6.04,9.26
			c1.2,4.57,2.37,9.13,2.34,13.88c-0.03,6.08-0.52,12.19-3.42,17.61c-2.6,4.86-5.9,9.35-11,12.05c-0.45,0.24-0.87,0.54-1.3,0.81
			c1.86,3.17,1.85,3.56-1.01,6.7c-0.93,1.02-2.14,1.78-3.21,2.67c-1.13,0.94-2.22,0.52-2.86-0.46c-0.94-1.45-1.6-3.08-2.34-4.65
			c-0.14-0.29-0.22-0.76-0.08-1.01c1.13-2.14,0-2.8-1.81-3.83c-4.44-2.53-7.38-6.43-8.71-11.45c-0.77-2.91-1.74-5.79-2.29-8.74
			c-1.08-5.75-1.13-11.56-0.3-17.34c0.81-5.66,2.65-11.02,4.92-16.24c0.39-0.89,0.7-1.82,1.14-2.96c-1.25-0.17-2.32-0.37-3.39-0.46
			c-8.4-0.7-16.8-1.37-25.19-2.1c-0.49-0.04-0.94-0.53-1.41-0.8c0.09-0.21,0.18-0.41,0.27-0.62c1.37,0.08,2.74,0.12,4.1,0.24
			c6.25,0.51,12.51,1.02,18.76,1.55c1.61,0.14,3.24,0.58,4.83,0.48c1.69-0.1,3.4-0.55,5.01-1.1c0.42-0.14,0.7-1.23,0.72-1.9
			c0.07-2.33,0.3-2.7,2.61-3.08c1.66-0.27,3.34-0.51,5.01-0.7c2.3-0.26,3.04,0.25,3.6,2.49c0.27,1.07,0.48,2.16,0.64,3.26
			c0.16,1.11,0.7,1.62,1.85,1.59c9.29-0.23,18.6,0.17,27.84-1.44c9.34-1.62,18.7-3.05,28.06-4.53c7.35-1.16,14.69-2.48,22.07-3.33
			c6.18-0.71,12.42-0.82,18.63-1.21c1.51-0.1,3.05-0.1,4.5-0.48c0.61-0.16,1.17-1.09,1.47-1.79c0.7-1.67,1.05-3.52,1.89-5.11
			c0.93-1.78,2.16-3.44,3.43-5c0.54-0.66,1.51-1.24,2.34-1.32c2.19-0.22,4.42-0.28,6.63-0.17c2.34,0.12,3.52,1.4,3.27,3.79
			c-0.2,1.88-0.93,3.69-1.43,5.54c-0.14,0.52-0.53,1.37-0.37,1.49c0.5,0.37,1.21,0.67,1.82,0.63c4.12-0.27,8.23-0.74,12.35-0.94
			c9.82-0.48,19.65-0.99,29.48-1.23c9.3-0.23,18.61-0.13,27.92-0.18c0.93-0.01,1.88-0.22,2.79-0.1c2.58,0.35,3.67-1.19,4.43-3.25
			c0.58-1.58,1.28-3.14,1.68-4.77c0.67-2.68,2.71-3.27,4.98-3.57c0.86-0.11,1.75-0.07,2.62-0.08c2.15-0.02,3.09,0.85,2.99,3.02
			c-0.1,2.09-0.43,4.17-0.64,6.25c-0.05,0.5-0.01,1.02-0.01,1.62c0.46,0.04,0.8,0.12,1.13,0.09c9.54-0.86,19.07-0.5,28.61-0.02
			c8.31,0.41,16.69,0.2,24.91,1.26c7.99,1.03,16,0.64,23.96,1.48c5.02,0.53,10.05,0.94,15.08,1.41C849,232.8,849,233.26,849,233.73z
			 M544.13,246.73c-0.57-0.28-1.26-0.89-1.99-0.95c-2.08-0.17-4.18-0.14-6.27-0.13c-0.73,0-1.49,0.33-2.18,0.2
			c-2.23-0.41-3.01-0.15-3.77,1.91c-2.6,7.09-4.95,14.24-5.36,21.89c-0.45,8.44,0.46,16.72,4.4,24.22
			c4.58,8.72,11.01,10.41,18.91,5.12c0.76-0.51,1.7-1.69,1.59-2.42c-0.61-4.06-1.62-8.06-2.29-12.11
			c-0.9-5.38-1.86-10.76-2.34-16.18c-0.56-6.46-0.64-12.97-0.9-19.45C543.89,248.18,544.05,247.53,544.13,246.73z M654.63,273.45
			c0.18-0.1,0.35-0.2,0.53-0.3c0-0.22,0.04-0.45-0.01-0.66c-0.75-3.57-1.77-7.1-2.23-10.7c-0.76-6.04-1.2-12.12-1.72-18.19
			c-0.16-1.84-0.19-3.71-0.14-5.56c0.01-0.47,0.57-0.92,0.88-1.38c0.34,0.45,0.94,0.87,0.99,1.35c0.19,2.02,0.14,4.07,0.32,6.09
			c0.23,2.67,0.67,5.31,0.87,7.98c0.53,7.32,1.35,14.59,3.67,21.6c0.27,0.82,0.27,1.74,0.43,2.83c0.9,0.58,1.99,1.37,3.16,2.01
			c1.53,0.84,2.3,0.5,3.01-1.04c0.18-0.38,0.65-0.66,1.03-0.91c0.44-0.29,0.93-0.49,1.02-0.53c-0.63-0.98-1.41-1.7-1.58-2.55
			c-0.99-4.78-1.78-9.61-2.76-14.4c-0.99-4.83-2.11-9.64-3.2-14.45c-0.55-2.43-1.21-4.84-1.75-7.27c-0.08-0.36,0.19-0.8,0.3-1.2
			c0.34,0.25,0.73,0.45,1,0.76c0.26,0.3,0.44,0.69,0.56,1.07c0.92,2.87,1.98,5.71,2.69,8.64c1.51,6.25,2.86,12.54,4.21,18.83
			c0.64,2.97,1.12,5.97,1.74,9.35c2.46-2.88,4.28-5.61,5.46-8.72c0.32-0.85,0.69-1.8,0.62-2.68c-0.33-4.08-0.52-8.19-1.32-12.19
			c-0.6-3.02-1.97-5.9-3.13-8.78c-0.77-1.93-1.6-3.89-2.72-5.63c-2.55-3.95-3.73-4.2-8.34-2.97c-1.58,0.42-3.31,0.27-4.94,0.54
			c-1.44,0.23-3.44,0.2-4.16,1.11c-3.36,4.28-5.13,9.2-4.32,14.78c0.92,6.39,2.91,12.44,6.15,18.02
			C652.02,270.12,653.4,271.74,654.63,273.45z M551.37,295.62c2.59-3.02,4.73-6.03,5.53-9.53c0.97-4.21,1.26-8.58,1.76-12.88
			c0.14-1.2,0.15-2.46-0.05-3.65c-0.57-3.49-1.5-6.93-1.88-10.43c-0.71-6.42-6.04-10.6-11.4-11.99
			C546.91,263.21,546.99,279.52,551.37,295.62z M651.33,232.42c1.6,0,3.13,0.2,4.58-0.06c1.45-0.26,2.94-0.76,4.18-1.54
			c1.1-0.69,1.45-2.41,3.13-2.48c0.1,0,0.26-0.25,0.28-0.41c0.3-1.64,0.66-3.28,0.8-4.94c0.04-0.43-0.64-1.33-0.95-1.31
			c-3.33,0.17-7.22-1.08-9.09,3.23c-0.16,0.36-0.58,0.59-0.77,0.94C652.45,227.84,650.51,229.53,651.33,232.42z M754.23,218.26
			c-2.22,0.4-3.83,0.61-5.39,1.01c-0.61,0.16-1.41,0.62-1.61,1.14c-0.81,2.08-1.42,4.24-2.22,6.75c2.52-0.46,4.7-0.58,6.62,0.89
			c0.17,0.13,1.19-0.35,1.24-0.64C753.38,224.52,753.75,221.61,754.23,218.26z M745.21,279.72c2.53-0.18,4.78-1.24,5.26-2.64
			c0.84-2.46,0.63-5.01,0.48-7.44c-2.11,0.34-3.87,0.63-5.74,0.94C745.21,273.53,745.21,276.56,745.21,279.72z M538.28,244.13
			c1.11,0,1.93-0.03,2.74,0.01c1.14,0.06,1.6-0.44,1.42-1.57c-0.09-0.57-0.02-1.18-0.17-1.73c-0.28-1.03-0.86-1.78-2.11-1.6
			c-1.49,0.21-3,0.35-4.46,0.69c-0.45,0.1-1.03,0.69-1.12,1.15c-0.46,2.2,0.16,2.89,2.44,2.96
			C537.54,244.06,538.06,244.12,538.28,244.13z M540.17,311.27c1.74-1.65,3.33-3.01,4.74-4.54c0.96-1.04,0.68-2.12-0.69-2.27
			c-1.77-0.2-3.61,0.06-5.39,0.29c-0.26,0.03-0.69,1.07-0.56,1.5C538.69,307.73,539.33,309.14,540.17,311.27z"/>
		<path d="M509.23,388.51c-0.83,0.28-1.28,0.39-1.7,0.58c-2.05,0.9-3.81,0.48-5.41-1.03c-1.69-1.6-2.21-3.65-1.63-5.73
			c0.24-0.88,1.55-1.63,2.54-2.09c1.93-0.9,3.97-1.56,6.25-2.42c-1.03-1.2-1.84-2.14-2.75-3.19c1.25-1.27,0.5-2.94,0.36-4.55
			c-0.06-0.69-0.33-1.37-0.32-2.06c0.01-0.53,0.17-1.4,0.48-1.5c0.57-0.19,1.36-0.08,1.91,0.19c0.82,0.4,1.63,0.95,2.26,1.61
			c1.79,1.87,3.84,1.69,5.84,0.67c0.86-0.44,1.61-1.38,2.07-2.27c0.76-1.48,1.17-3.14,1.9-4.64c0.22-0.45,1.03-0.91,1.51-0.85
			c0.46,0.05,1.01,0.71,1.21,1.22c0.56,1.44,0.96,2.95,1.51,4.72c1.9-1.74,3.68-0.88,5.36-0.26c3.37,1.24,6.66,2.71,10.04,3.93
			c0.81,0.29,1.98,0.26,2.75-0.1c5.03-2.36,10.09-4.72,15.8-4.4c2.58,0.15,3.61-1.03,4.72-3.05c2.15-3.91,4.61-7.65,6.98-11.44
			c0.58-0.93,1.36-0.97,1.88,0.02c1.52,2.86,3.01,5.74,4.42,8.66c0.62,1.3,1.01,2.72,1.49,4.09c0.08,0.22,0.09,0.49,0.23,0.65
			c4.19,4.53,1.47,8.85-0.47,13.13c-0.76,1.67-1.92,3.15-2.8,4.55c3.28,3.09,7.18,1.75,10.85,1.76c8.31,0.03,16.63-0.21,24.94-0.08
			c9.19,0.15,18.38,0.48,27.57,0.93c11.97,0.58,23.92,1.36,35.88,2.05c10.16,0.59,20.33,1.11,30.49,1.78
			c6.91,0.46,13.8,1.19,20.71,1.68c5.05,0.36,10.11,0.48,15.16,0.81c5.1,0.33,10.19,0.84,15.28,1.19c4.99,0.35,9.99,0.6,14.98,0.88
			c0.28,0.02,0.56-0.06,0.87-0.1c0.16-0.86,0.3-1.66,0.53-2.92c0.71,1.24,1.17,2.06,1.64,2.87c0.09-0.08,0.19-0.15,0.28-0.23
			c0-2.35-0.08-4.71,0.02-7.06c0.11-2.64,0.28-5.29,0.62-7.9c0.28-2.18,0.84-4.32,1.3-6.48c0.22-1.05,0.95-1.19,1.69-0.63
			c1.05,0.81,2,1.76,2.97,2.68c0.33,0.32,0.57,0.73,0.86,1.09c1.8,2.32,3.65,3.94,7.04,2.6c2.72-1.08,5.76-1.34,8.63-2.09
			c0.56-0.15,1.17-0.77,1.41-1.33c0.85-2.02,1.51-4.12,2.32-6.17c0.16-0.42,0.68-1.04,0.94-1c0.48,0.07,1.13,0.48,1.3,0.91
			c0.7,1.72,1.24,3.5,1.83,5.26c0.13,0.39,0.13,0.85,0.35,1.16c0.38,0.53,0.89,0.97,1.34,1.46c0.41-0.51,0.95-0.97,1.21-1.54
			c0.3-0.66,0.37-1.43,0.54-2.16c0.3-1.34,1.17-1.79,2.24-0.94c2.14,1.69,4.13,3.56,6.27,5.25c0.77,0.61,1.75,1.2,2.68,1.28
			c3.29,0.31,6.61,0.46,9.91,0.53c0.68,0.01,1.59-0.38,2.02-0.9c2.28-2.71,4.44-5.53,6.65-8.3c1.24-1.55,2.01-1.43,2.85,0.3
			c1.36,2.8,2.06,5.73,2.24,8.84c0.09,1.45,0.52,2.93,1.04,4.31c0.95,2.53,0.62,3.32-1.55,4c-1.59,2.58-2.95,4.79-4.34,7.06
			c0.51,1.05,1.21,2.25,1.68,3.53c0.59,1.59,0.45,3.12-1.23,4.06c-1.76,0.98-2.3,2.21-2.07,4.38c0.28,2.64-0.14,5.41-0.6,8.06
			c-0.31,1.78-1.23,3.45-3.42,3.69c-2.65,0.29-5.04-0.2-6.56-2.63c-0.64-1.02-1.23-2.17-1.45-3.33c-0.25-1.31-0.9-1.69-2.03-1.53
			c-3.78,0.53-7.56,1.04-11.33,1.67c-1.48,0.25-2.21-0.39-2.61-1.63c-0.69-2.16-0.7-4.33,0.03-6.5c0.38-1.13,0.74-2.27,1.11-3.44
			c-2.53-0.22-5.11,1.71-5.37,3.86c-0.27,2.18-0.45,4.38-0.85,6.54c-0.39,2.09-2.01,3.31-3.78,3.1c-1.84-0.22-3.05-1.65-3.22-3.75
			c-0.06-0.73-0.23-1.45-0.35-2.17c-3.79,0.49-7.24,1.5-8,5.71c-0.32,1.75-1.53,1.96-2.96,0.94c-1.62-1.15-2.4-2.67-2.16-4.61
			c0.13-1.07-0.28-1.65-1.13-2.08c-1.45-0.73-2.84-1.69-4.37-2.14c-3.16-0.92-4.76-2.92-5.01-6.12c-0.04-0.52-0.13-1.04-0.2-1.55
			c-0.16-1.16-0.76-1.53-1.99-1.6c-7.14-0.42-14.26-1.02-21.4-1.47c-7.61-0.48-15.22-0.81-22.83-1.28
			c-4.41-0.27-8.8-0.74-13.21-1.05c-5.1-0.36-10.21-0.62-15.31-0.98c-2.55-0.18-5.08-0.57-7.63-0.73c-7.13-0.44-14.26-0.8-21.4-1.2
			c-4.87-0.28-9.74-0.58-14.61-0.86c-5.68-0.33-11.37-0.66-17.05-0.95c-7.73-0.39-15.45-0.97-23.19-1.06
			c-10.53-0.12-21.07,0.14-31.6,0.26c-0.61,0.01-1.21,0.15-1.93,0.25c0.26,0.98,0.57,1.74,0.66,2.52c0.53,4.32-6.1,10.14-10.23,8.76
			c-1.67-0.56-3.14-1.94-4.49-3.18c-0.91-0.84-1.65-1.09-2.76-0.6c-0.74,0.32-1.55,0.56-2.34,0.67c-1.94,0.28-3.1,1.18-3.97,3.1
			c-1.29,2.85-4.02,4.49-6.76,5.77c-1.43,0.67-3.04,0.27-4.32-0.97c-1.71-1.66-3.1-3.43-3.46-5.89c-0.04-0.26-0.95-0.6-1.41-0.54
			c-1.66,0.22-3.3,0.84-4.95,0.86c-5.69,0.07-8.81-5.06-6.31-10.18c0.19-0.4,0.34-0.82,0.53-1.28c-1.05-0.61-1.68-0.35-2.29,0.51
			c-0.84,1.17-1.62,2.52-2.75,3.31c-0.85,0.59-2.29,0.75-3.35,0.53c-1.44-0.29-1.55-1.73-1.46-3c0.07-0.97,0.27-1.93,0.45-3.13
			c-0.49,0.31-0.78,0.56-1.11,0.69c-1.43,0.56-2.02,1.4-1.61,3.05c0.68,2.81,0.13,5.24-2.47,7.05c-1.65,1.15-3.25,1.42-5.01,0.61
			c-1.9-0.87-2.24-2.71-2.5-4.51C509.14,390.5,509.23,389.64,509.23,388.51z M536.52,386.89c-0.06-0.15-0.13-0.29-0.19-0.44
			c-1.21,0.52-2.67,0.77-3.56,1.62c-1.46,1.39-1.25,3.34-0.43,5.04c0.93,1.93,2.68,2.8,4.76,2.53c2.07-0.26,4.1-0.82,6.14-1.28
			c1.11-0.25,1.71-0.02,1.94,1.25c0.27,1.46,0.71,2.92,1.31,4.28c0.85,1.91,3.01,3.32,4.18,2.71c2.37-1.24,5.07-2.54,5.93-5.13
			c0.93-2.8,2.81-3.58,5.21-4.11c0.85-0.19,1.72-0.36,2.51-0.71c1.93-0.85,3.36-0.37,4.44,1.4c0.24,0.39,0.54,0.77,0.88,1.08
			c1.37,1.3,2.88,2.15,4.87,1.47c2.19-0.74,3.83-2.18,5.16-4c1.15-1.58,0.21-5.07-1.49-5.11c-2.89-0.07-5.94-0.78-8.58,1.31
			c-0.92,0.73-2.13,1.23-3.29,1.5c-2.43,0.55-4.89,1.02-7.37,1.25c-2.93,0.27-5.88,0.25-8.83,0.35c-0.58,0.02-1.2-0.16-1.72,0
			c-1.24,0.37-2.01-0.19-2.97-0.89C542.75,389.08,540.28,386.56,536.52,386.89z M812.66,399.2c-0.54,1.23-1.04,2.1-1.31,3.03
			c-0.64,2.21-1.53,4.46-0.43,6.76c0.2,0.43,0.9,0.95,1.31,0.9c3.34-0.36,6.65-0.89,9.99-1.29c3.49-0.42,3.95,0.02,5.22,3.31
			c0.48,1.24,1.36,2.47,2.38,3.33c2.18,1.86,5.34,0.65,5.61-2.18c0.29-2.99,0.13-6.02,0.31-9.02c0.05-0.81,0.51-1.67,1-2.35
			c0.39-0.53,1.08-0.9,1.7-1.18c1.98-0.89,1.32-2.33,0.71-3.62c-0.6-1.27-1.68-1.97-3.15-1.34c-1.81,0.77-3.71,1.42-5.36,2.46
			c-3.03,1.9-6.39,2.66-9.81,3.23C817.95,401.72,815.16,401.24,812.66,399.2z M811.2,373.84c-0.25,0.13-0.51,0.27-0.76,0.4
			c-0.19,3.04-0.37,6.08-0.56,9.2c0.8,0.08,1.31,0.2,1.82,0.18c5.1-0.2,10.21-0.41,15.31-0.64c0.34-0.02,0.67-0.25,1-0.25
			c0.72,0.02,1.45,0.09,2.17,0.23c0.37,0.07,0.69,0.41,1.06,0.45c3.45,0.44,6.91,0.83,10.36,1.28c1.13,0.15,1.66-0.09,1.43-1.38
			c-0.52-2.86-0.89-5.75-1.49-8.59c-0.25-1.19-0.94-2.29-1.53-3.65c-0.47,0.53-0.71,0.77-0.9,1.04c-1.53,2.11-3.06,4.22-4.57,6.36
			c-0.97,1.37-2.08,2.05-3.92,1.9c-3.29-0.27-6.62-0.34-9.91-0.18c-1.87,0.09-3.16-0.35-4.42-1.75
			C814.75,376.76,812.9,375.36,811.2,373.84z M542.82,384.66c0.67,0.28,0.88,0.44,1.08,0.44c8.79,0.06,17.58,0.12,26.36,0.12
			c0.56,0,1.27-0.39,1.64-0.83c1.38-1.63,2.65-3.35,4.03-5.14c-3.06,0.29-4.11-0.13-4.47-1.69c-0.37-1.61,0.5-3.47,2.05-3.71
			c2.48-0.39,2.57,1.86,3.27,3.66c1.7-2.59,2.5-5.11,2.18-8.37c-0.96,0.78-2.1,1.25-2.18,1.85c-0.22,1.68-1.39,1.67-2.41,1.58
			c-3.36-0.32-6.17,1.28-9.34,2.31c1.44,0.44,3.91,4.35,3.42,5.36c-0.41,0.86-1.07,2.09-1.78,2.21c-1.86,0.31-3.8,0.11-5.58,0.11
			c-0.42,0.52-0.92,1.14-1.41,1.76c-0.23-0.1-0.47-0.19-0.7-0.29c0.14-1.9,0.27-3.81,0.43-6.03
			C553.04,377.66,548.5,382.04,542.82,384.66z M776.62,384.91c0.16,2.67,0.26,5.21,0.5,7.74c0.1,1.05,0.65,1.64,1.97,1.63
			c3.31-0.02,6.63,0.11,9.93,0.36c3.7,0.28,7.39,0.73,11.08,1.16c1.15,0.14,2.02-0.21,2.41-1.24c0.97-2.51,1.89-5.05,2.69-7.62
			c0.32-1.04,0.27-2.21,0.38-3.23c-2.9,1.1-5.6,2.12-8.35,3.16c1.06,2.28,0.18,4.2-0.8,6.05c-0.62,1.16-2.19,1.56-2.74,0.69
			c-0.65-1.03-1.03-2.29-1.28-3.5c-0.23-1.15-0.13-2.37-0.18-3.72c-3.09,0-5.72,0-8.55,0c0.43,0.46,0.8,0.81,1.11,1.19
			c0.36,0.45,0.95,0.93,0.96,1.42c0.04,1.31,0.22,2.91-0.44,3.83c-0.41,0.58-2.42,0.51-3.39,0.05c-0.84-0.4-1.58-1.71-1.72-2.71
			c-0.16-1.15,0.4-2.4,0.63-3.52c-0.71,0.08-1.86,1.07-2.05-0.56C778.62,384.76,777.9,384.86,776.62,384.91z M511.06,384.43
			c0.17,0.13,0.33,0.27,0.5,0.4c0,0.5,0.03,1.01,0,1.51c-0.11,1.73-0.36,3.46-0.32,5.18c0.06,2.26,1.76,3.77,3.37,3.23
			c2.2-0.74,3.35-2.33,3.38-4.71c0.01-0.75,0.11-1.54-0.06-2.26c-0.45-1.95,0.2-3.25,2.04-4c0.06-0.02,0.05-0.2,0.09-0.42
			c-0.22-0.11-0.46-0.31-0.72-0.34c-4.7-0.61-9.4-1.3-14.12-1.69c-0.83-0.07-2.13,0.98-2.57,1.85c-0.71,1.37,0.5,3.7,1.9,4.45
			c1.32,0.71,3.01,0.13,4.28-1.31C509.47,385.61,510.31,385.06,511.06,384.43z M803.82,400.9c-2.7-1.47-3.32-1.55-4.62-0.97
			c-3.38,1.52-6.76,3.03-10.18,4.46c-1.55,0.64-3.19,1.07-5.18,1.73c2.6,1.78,0.48,5.2,3.32,6.89c0.57-1.24,0.88-2.46,1.6-3.35
			c2.35-2.89,5.85-3.32,9.22-3.79c1.15-0.16,1.47,0.73,1.27,1.91c-0.17,1.04-0.15,2.19,0.11,3.21c0.13,0.49,0.96,0.98,1.55,1.11
			c0.36,0.08,1.08-0.42,1.28-0.83c0.49-1.01,0.97-2.1,1.11-3.2C803.59,405.72,803.66,403.35,803.82,400.9z M783.82,397.06
			c-1.36-0.16-2.91-0.37-4.47-0.53c-1.32-0.13-1.84,0.48-1.55,1.78c0.11,0.51,0.16,1.05,0.35,1.52c1.11,2.69,2.83,5.05,6.2,4.16
			c2.36-0.62,4.77-1.16,7.01-2.11c2.29-0.97,4.39-2.38,6.69-3.67c-1.69-0.25-3.22-0.43-4.73-0.72c-1.95-0.38-3.64-0.18-4.79,1.7
			c-0.3,0.49-0.73,0.94-1.2,1.25c-0.33,0.22-1.12,0.38-1.23,0.22C785.32,399.6,784.67,398.44,783.82,397.06z M546.98,375.46
			c-0.08-0.01-0.31-0.1-0.5-0.05c-4.78,1.4-9.56,2.8-14.31,4.28c-0.32,0.1-0.67,0.93-0.58,1.32c0.39,1.61,2.8,3.37,4.5,3.2
			c1.6-0.15,3.34-0.24,4.71-0.96c2.74-1.45,5.26-3.29,7.85-5.01c0.21-0.14,0.23-0.55,0.46-1.13c-1,0.41-1.71,0.7-2.42,0.99
			c-0.16-0.07-0.32-0.15-0.47-0.22C546.47,377.09,546.72,376.29,546.98,375.46z M528.48,368.11c-0.26,0.21-0.52,0.41-0.78,0.62
			c0.64,2.55,1.27,5.1,1.91,7.65c0.24,0.95,0.59,1.64,1.79,1.15c1.25-0.52,0.56-1.18,0.32-1.95c-0.22-0.7-0.1-1.5-0.13-2.26
			c0.69,0.07,1.44,0,2.06,0.24c2.3,0.87,4.42,2,7.11,1.1c4.5-1.5,9.13-2.63,13.69-3.96c1.95-0.57,3.85-1.27,5.78-1.9
			c-0.01-0.17-0.03-0.33-0.04-0.5c-2.13,0.23-4.36,0.13-6.38,0.75c-3.2,0.97-6.32,2.28-9.36,3.71c-1.85,0.87-3.32,0.64-5.09-0.17
			C535.8,370.96,532.11,369.59,528.48,368.11z M572.1,354.1c-3.19,3.02-7.91,11.74-7.53,13.62c1.78,0.23,3.12-0.01,3.52-2.21
			c0.19-1.03,0.99-1.96,1.54-2.91c0.74-1.28,1.66-1.35,2.64-0.28c1.02,1.1,1.98,2.27,3.03,3.34c0.3,0.31,0.86,0.37,1.29,0.54
			c0.07-0.42,0.28-0.88,0.17-1.24c-0.33-1.17-0.7-2.34-1.19-3.44C574.49,359.07,573.31,356.66,572.1,354.1z M575.6,369.11
			c-0.02-0.11-0.04-0.22-0.06-0.33c-0.21-0.06-0.43-0.19-0.63-0.16c-4.06,0.63-8.13,1.25-12.18,1.94c-0.46,0.08-0.81,0.67-1.27,0.87
			c-0.73,0.3-1.56,0.76-2.26,0.65c-2.59-0.43-4.83,0.57-5.91,2.89c1.69,0.81,2.76,0.82,4.68,0.16c3.23-1.11,6.48-2.16,9.71-3.26
			C570.32,370.97,572.96,370.03,575.6,369.11z M841.62,386.87c-2.63-0.46-4.99-0.97-7.38-1.26c-2.18-0.26-4.39-0.28-6.59-0.42
			c-0.93-0.06-1.57,0.58-0.99,1.18c0.98,1.03,2.23,2.11,3.55,2.43c2.51,0.59,5.13,0.79,7.72,0.9
			C839.66,389.77,840.96,388.81,841.62,386.87z M545.32,387.59c2.53,2.74,17.38,3,21.29,0
			C559.26,387.59,552.29,387.59,545.32,387.59z M826.07,390.15c-1.07-0.08-2.28-0.32-3.46-0.19c-0.48,0.05-1.2,0.85-1.24,1.36
			c-0.16,1.73-0.06,3.49-0.06,5.32c-0.03-0.01,0.14,0.02,0.29,0.08c0.47,0.21,0.93,0.44,1.4,0.67c-0.45,0.38-0.84,0.89-1.36,1.1
			c-0.73,0.3-1.56,0.38-2.34,0.55c0.02,0.13,0.05,0.25,0.07,0.38c2.16-0.38,4.33-0.76,5.97-1.05
			C825.61,395.3,825.83,392.82,826.07,390.15z M529.84,383c-1.05-3.08-2.05-6.08-3.09-9.06c-0.13-0.38-0.45-0.69-0.68-1.03
			c-0.23,0.3-0.48,0.59-0.68,0.9c-0.22,0.34-0.36,0.73-0.6,1.05c-1.35,1.84-1.26,3.9-0.78,5.94c0.1,0.45,0.83,0.92,1.35,1.08
			C526.79,382.33,528.27,382.62,529.84,383z M817.83,396.54c-0.23-1.67-0.44-3.12-0.57-4.11c-0.85-0.81-1.45-1.39-2.06-1.97
			c-0.21-0.3-0.67-0.29-1.12-0.2c-3.87,0.72-3.86,0.73-2.15,4.22c0.13,0.26,0.2,0.59,0.41,0.76c0.56,0.47,1.13,1.14,1.77,1.24
			C815.35,396.68,816.63,396.54,817.83,396.54z M797.45,384.11c3.44,0.47,5.62-0.97,7.11-3.89c0.41-0.81,0.7-1.84-0.49-2.37
			c-1.27-0.56-3.37-0.16-3.77,0.63C799.34,380.38,798.37,382.29,797.45,384.11z M778.71,374.43c-0.25,0.07-0.5,0.15-0.75,0.22
			c-0.13,1.91-0.27,3.81-0.36,5.72c-0.01,0.2,0.36,0.61,0.5,0.58c1.69-0.29,3.37-0.64,5.49-1.07
			C781.67,377.74,780.19,376.09,778.71,374.43z M829.28,391.09c0,1.87,0,3.47,0,5.25c2.61-2.01,6.39-1.91,8.67-4.82
			c-1.52,0.06-2.94,0.68-4.36,0.66C832.18,392.16,830.78,391.5,829.28,391.09z M818.37,385.29c-2.55,0.2-5.08,0.4-7.62,0.58
			c-1.21,0.09-1.17,1.05-1.03,1.78c0.07,0.36,0.86,0.85,1.3,0.83c1.85-0.09,3.71-0.24,5.53-0.58
			C817.75,387.67,818.92,387.12,818.37,385.29z M528.71,385.43c-1.82-0.32-3.25-0.9-4.5-0.63c-0.56,0.12-0.9,1.94-1.04,3.03
			c-0.07,0.53,0.45,1.38,0.94,1.64c0.36,0.19,1.25-0.19,1.65-0.58C526.68,387.98,527.46,386.92,528.71,385.43z M524.11,369.92
			c-1.46,0.21-2.94,0.1-4.06,0.68c-1.05,0.55-2.51,1.13-2.75,2.76C521.41,373.81,524.26,372.31,524.11,369.92z M796.78,380.64
			c-0.06-0.18-0.12-0.36-0.18-0.54c-1.76,0.51-3.52,0.99-5.26,1.56c-0.41,0.13-0.74,0.54-1.1,0.82c0.39,0.3,0.73,0.75,1.17,0.88
			C793.38,383.93,795.45,382.85,796.78,380.64z M806.88,389.22c-0.83,2.11-1.55,3.86-2.17,5.65c-0.1,0.3,0.23,0.75,0.36,1.12
			c0.33-0.24,0.75-0.43,0.98-0.75c0.37-0.51,0.47-1.29,0.93-1.63C808.92,392.2,807.83,390.91,806.88,389.22z M515.28,374.32
			c-0.09-0.17-0.18-0.34-0.27-0.51c-0.89-0.04-1.8-0.24-2.66-0.09c-1.43,0.25-1.19,1.52-1.1,2.5c0.02,0.25,1.05,0.74,1.24,0.61
			C513.48,376.08,514.36,375.17,515.28,374.32z M804.3,375.65c-0.56-1.71-1-3.07-1.45-4.42c-0.21,0.04-0.42,0.08-0.63,0.12
			c-0.39,1.39-0.78,2.77-1.21,4.31C802.11,375.65,802.94,375.65,804.3,375.65z M520.52,378.09c-0.99-0.66-1.57-1.05-2.15-1.44
			c-0.51,0.95-1.02,1.91-1.54,2.86c0.16,0.16,0.33,0.31,0.49,0.47C518.24,379.44,519.16,378.9,520.52,378.09z M569.51,366.97
			c1.29-0.22,2.26-0.38,3.7-0.63c-0.9-0.96-1.51-1.61-2.36-2.53C570.34,365.02,569.99,365.84,569.51,366.97z M784.04,384.43
			c0.52-0.2,0.87-0.34,1.22-0.47c-0.76-1.27,0.64-1.3,1.08-1.88c0.25-0.32,0.48-0.64,0.98-1.31c-1.36,0.36-2.18,0.57-3.03,0.79
			C784.21,382.44,784.14,383.28,784.04,384.43z M777.26,402.79c-0.72-1.41-1.32-2.59-2.06-4.05
			C774.99,400.72,775,402.24,777.26,402.79z M808.93,393.91c-0.53,0.81-0.91,1.38-1.56,2.35c1.19-0.12,1.91-0.19,2.81-0.28
			C809.72,395.21,809.43,394.74,808.93,393.91z"/>
		<path d="M740.12,411.18c0.86,3.36,0.43,6.77,0.33,10.18c-0.06,1.97,0.18,3.94,0.14,5.91c-0.1,4.35,0.12,8.76-0.54,13.03
			c-0.87,5.66-2.47,11.21-3.74,16.81c-0.82,3.61-1.55,7.25-2.41,10.85c-0.99,4.12-2.16,8.2-3.09,12.33
			c-1.11,4.91-2.05,9.85-3.05,14.78c-0.83,4.1-1.75,8.18-2.43,12.3c-1.04,6.34-2.03,12.7-2.83,19.07
			c-1.09,8.71-1.1,17.47-1.03,26.24c0.03,3.92-0.55,7.85-0.92,11.77c-0.04,0.43-0.5,0.82-1.14,1.13c-0.16-2.15-0.44-4.3-0.45-6.46
			c-0.03-7.02-0.11-14.05,0.12-21.07c0.16-4.74,0.7-9.49,1.29-14.2c0.7-5.68,1.53-11.35,2.49-16.99c1.12-6.57,2.27-13.14,3.7-19.64
			c1.52-6.96,3.41-13.84,5.08-20.76c1.17-4.84,2.25-9.7,3.35-14.56c1.12-4.92,2.51-9.81,3.21-14.79c0.49-3.52-0.01-7.17-0.02-10.75
			c-0.01-2.96,0.04-5.91,0.11-8.87c0.03-1.33,0.13-2.66,0.32-3.98c0.13-0.86,0.48-1.69,0.74-2.53
			C739.6,411.03,739.86,411.1,740.12,411.18z"/>
		<path d="M777.97,575.76c-1.43-4.49-3.47-8.71-3.56-13.67c-0.11-6.49-1.05-12.95-1.44-19.44c-0.29-4.93-0.5-9.88-0.36-14.81
			c0.21-7.43,0.67-14.86,1.19-22.27c0.24-3.41,0.86-6.79,1.29-10.18c0.5-3.97,0.92-7.96,1.48-11.92c0.68-4.87,1.54-9.71,2.18-14.58
			c0.43-3.27,0.52-6.58,0.92-9.85c0.43-3.57,1.23-7.1,1.53-10.68c0.57-6.71,0.98-13.44,1.3-20.17c0.11-2.27-0.25-4.57-0.39-6.85
			c0.18-0.06,0.37-0.12,0.55-0.19c0.29,0.46,0.78,0.9,0.85,1.39c0.45,3.26,0.99,6.52,1.17,9.79c0.45,8.25-1.58,16.29-2.27,24.45
			c-0.33,3.94-0.74,7.88-1.28,11.8c-0.72,5.24-1.63,10.45-2.39,15.68c-0.64,4.42-1.26,8.85-1.77,13.29
			c-0.69,6.01-1.56,12.01-1.82,18.04c-0.35,8.12-0.4,16.27-0.21,24.4c0.14,5.86,0.9,11.7,1.32,17.56c0.27,3.81,0.32,7.64,0.69,11.44
			c0.18,1.87,0.85,3.69,1.29,5.53c0.09,0.4,0.15,0.8,0.22,1.2C778.3,575.72,778.13,575.74,777.97,575.76z"/>
		<path d="M684.18,562.27c-0.92-2.18-1.18-4.05-0.81-5.91c1.6-7.96,3.38-15.89,4.89-23.87c0.67-3.52,0.66-7.17,1.29-10.71
			c0.87-4.96,1.97-9.89,3.11-14.8c1.8-7.68,3.84-15.3,4.31-23.23c0.2-3.33,0.61-6.67,1.16-9.97c1.07-6.44,2.39-12.83,3.46-19.27
			c0.68-4.12,0.99-8.31,1.63-12.44c0.62-4.02,1.59-7.98,2.14-12c0.9-6.5,1.58-13.03,2.36-19.55c0.01-0.12-0.04-0.26,0.02-0.35
			c0.22-0.39,0.47-0.76,0.71-1.13c0.24,0.4,0.7,0.82,0.68,1.2c-0.21,2.96-0.37,5.93-0.81,8.87c-1.35,8.97-2.88,17.9-4.2,26.87
			c-0.85,5.75-1.37,11.55-2.17,17.31c-1.3,9.37-2.64,18.74-4.08,28.09c-0.61,3.95-1.48,7.85-2.28,11.76
			c-1.07,5.23-2.36,10.42-3.23,15.68c-1.03,6.17-1.5,12.44-2.61,18.59c-1.06,5.86-2.67,11.62-4,17.43
			C685.19,557.13,684.76,559.44,684.18,562.27z"/>
		<path d="M797.85,457.03c-0.77-1.66,0.28-2.08,1.02-2.53c1.54-0.93,3.1-1.83,4.73-2.59c1.18-0.55,1.57-1.14,1.04-2.43
			c-0.24-0.57,0.05-1.36,0.09-2.06c0.59,0.37,1.4,0.6,1.71,1.13c0.72,1.23,1.53,1.28,2.74,0.85c2.13-0.75,4.31-1.37,6.49-1.98
			c0.85-0.24,2.04-0.66,2.18,0.72c0.04,0.4-1.08,1.12-1.78,1.36c-2.45,0.83-4.95,1.52-7.25,2.21c-0.1,0.5-0.17,0.62-0.14,0.71
			c1.29,4.62,2.73,5.07,6.59,1.82c1.3-1.09,2.09-0.93,3.13,0.68c-1.31,0.77-2.54,1.56-3.84,2.24c-2.63,1.37-2.67,1.52-1.45,4.24
			c0.82,1.84,1.55,3.72,2.25,5.6c0.59,1.6-0.51,2.52-2.77,2.42c0.3-3.33-1.43-5.86-3.35-8.58c-1.48,0.96-2.9,1.91-4.35,2.8
			c-1.46,0.9-2.96,1.77-4.92,1.37c2.05-2.97,5.83-3.76,8.17-6.67c-0.57-1.25-1.18-2.73-1.93-4.15c-0.14-0.26-0.91-0.48-1.2-0.33
			c-1.34,0.67-2.57,1.57-3.93,2.19C800.07,456.55,798.9,456.73,797.85,457.03z"/>
		<path d="M752.91,527.44c-0.08-0.71-0.03-1.46-0.27-2.11c-0.52-1.41-1.17-2.78-1.79-4.16c-0.47-1.04-1.1-1.56-2.33-0.97
			c-0.99,0.48-2.07,0.75-3.12,1.11c-1.02,0.35-1.82,0.16-2.3-0.98c1.98-0.96,3.94-1.91,5.89-2.85c-1.07-2.61-1.06-2.58-3.4-1.7
			c-0.97,0.37-1.99,0.68-3.01,0.83c-0.4,0.06-0.87-0.4-1.31-0.63c0.24-0.34,0.4-0.8,0.72-1c0.98-0.61,1.98-1.29,3.06-1.62
			c1.39-0.42,1.71-1.06,1.29-2.42c-0.22-0.71,0-1.55,0.02-2.33c0.69,0.63,1.34,1.3,2.07,1.86c0.57,0.43,1.31,1.11,1.86,1.01
			c2.4-0.42,4.74-1.13,7.13-1.61c0.72-0.14,1.52,0.12,2.47,0.21c-0.79,2.32-2.63,1.96-3.92,2.43c-1.45,0.53-3.06,0.63-4.56,1.04
			c-0.42,0.11-0.71,0.69-1.06,1.05c0.55,0.5,1.34,1.55,1.63,1.43c2.77-1.16,5.46-2.51,8.15-3.86c0.26-0.13,0.33-0.63,0.5-0.98
			c1.25,1,1.35,2.18,0.12,2.91c-2.09,1.23-4.29,2.27-6.43,3.43c-2.03,1.1-2.03,1.21-0.96,3.3c1.03,2,2.06,4.01,2.97,6.07
			c0.17,0.38-0.06,1.27-0.37,1.45c-0.57,0.33-1.38,0.46-2.04,0.36c-0.5-0.08-0.93-0.65-1.39-0.99
			C752.67,527.63,752.79,527.53,752.91,527.44z"/>
		<path d="M702.61,535.15c-1.2,0.21-2.27,0.46-3.36,0.57c-0.44,0.04-0.91-0.21-1.37-0.32c0.23-0.49,0.33-1.23,0.71-1.44
			c1.16-0.63,2.41-1.12,3.66-1.53c1.8-0.59,2.46-1.69,1.73-3.43c-0.2-0.47-0.87-0.85-1.41-1.05c-0.79-0.3-1.66-0.41-2.5-0.6
			c-0.04-0.26-0.09-0.53-0.13-0.79c0.6-0.33,1.21-0.94,1.79-0.92c1.67,0.06,2.38-0.59,2.26-2.24c-0.05-0.67-0.01-1.35-0.01-2.22
			c2.33,0.36,1.25,2.61,2.22,3.61c1.82,0.38,3.22-2.19,5.73-0.62c-1.22,0.82-2.13,1.54-3.14,2.09c-2.65,1.46-2.66,1.43-2.27,4.84
			c0.79-0.23,1.53-0.6,2.29-0.62c0.65-0.02,1.31,0.36,1.96,0.56c-0.44,0.52-0.86,1.06-1.33,1.54c-0.14,0.15-0.43,0.16-0.66,0.21
			c-2.6,0.62-3.75,2.32-3.58,5.22c1.75,0.42,3.66,0.78,5.51,1.37c0.76,0.24,1.99,1.12,1.92,1.47c-0.32,1.53-1.65,0.76-2.57,0.66
			c-1.03-0.11-2.01-0.58-3.03-0.76c-2.18-0.38-4.2-0.12-6.11,1.22c-0.51,0.36-1.88,0.2-2.38-0.25c-1.01-0.9-0.25-1.77,0.66-2.34
			c0.58-0.36,1.32-0.5,1.82-0.93c0.69-0.6,1.29-1.35,1.8-2.12C702.98,536.12,702.71,535.61,702.61,535.15z"/>
		<path d="M819.45,494.55c0.48,0.44,0.9,0.64,1.04,0.96c0.91,2.1,2.78,2.12,4.62,2.23c0.69,0.04,1.45-0.06,2.06,0.18
			c0.56,0.22,0.98,0.82,1.46,1.25c-0.71,0.34-1.4,0.89-2.14,0.95c-0.82,0.07-1.68-0.33-2.53-0.49c-1.19-0.22-1.75,0.19-1.59,1.5
			c0.22,1.86,0.36,3.73,0.48,5.61c0.04,0.68-0.07,1.37-0.09,1.62c2.76,1.62,5.4,3.12,7.98,4.73c0.41,0.26,0.54,0.97,0.8,1.48
			c-0.65,0.09-1.42,0.45-1.92,0.22c-2.1-0.96-4.11-2.11-6.16-3.17c-1.08-0.55-2.04-0.28-2.41,0.86c-0.53,1.6-1.47,2.5-3.16,2.4
			c-1.74-0.1-2.65-1.39-3.24-2.8c-1.27-3.04-0.12-4.39,3.18-3.9c2.41,0.36,2.84,0.05,2.84-2.32c0-1.44-0.13-2.89-0.32-4.32
			c-0.17-1.22-0.71-2.07-2.24-1.69c-1.01,0.25-2.06,0.41-3.09,0.41c-0.48,0-0.96-0.47-1.44-0.73c0.35-0.41,0.62-1,1.07-1.2
			c0.73-0.32,1.57-0.47,2.37-0.53c1.45-0.11,2.38-0.53,1.98-2.25C818.97,495.35,819.22,495.06,819.45,494.55z M816.09,509.94
			c0.34,1.91,0.81,2.99,2.14,3.07c0.29,0.02,0.65-1.24,0.98-1.91C818.31,510.76,817.41,510.43,816.09,509.94z"/>
		<path d="M714.31,486.08c0.78,0.57,1.53,1.02,2.17,1.61c0.42,0.38,0.65,0.96,0.97,1.45c-0.54,0.24-1.09,0.68-1.63,0.67
			c-0.57-0.01-1.23-0.32-1.68-0.7c-0.9-0.76-1.59-0.77-2.6-0.06c-2.28,1.6-4.83,0.91-5.21-1.24c-0.39-2.22,1.12-3.5,3.7-3.13
			c2.03,0.29,2.53-0.28,2.11-2.39c-1.99-0.37-4.16,1.57-6.06,0.01c-0.01-0.21-0.01-0.42-0.02-0.63c1.35-0.43,2.68-1.02,4.07-1.26
			c3.05-0.53,3.39-0.93,2.67-3.88c-0.08-0.33-0.27-0.63-0.39-0.9c-1.6-0.35-3.47,0.96-5.1-1.19c2.05-0.55,3.74-1.01,5.35-1.44
			c0-1.19,0-2.35,0-3.51c0.18-0.08,0.35-0.16,0.53-0.24c0.41,0.72,1.06,1.4,1.18,2.16c0.21,1.31,0.74,1.59,1.99,1.44
			c1.09-0.13,2.23,0.12,3.35,0.2c0.01,0.3,0.03,0.61,0.04,0.91c-1.34,0.35-2.68,0.7-4.22,1.11c0,1.23,0,2.64,0,4.17
			c0.79,0,1.42-0.08,2.02,0.03c0.33,0.06,0.81,0.41,0.84,0.67c0.03,0.29-0.37,0.92-0.57,0.91c-2.95-0.05-2.64,2.36-3.17,4.12
			C714.53,485.29,714.44,485.63,714.31,486.08z"/>
		<path d="M744.89,555.5c1.18-1.69,2.29-3.29,3.56-5.1c-1.17,0-2.11,0-3.1,0c-0.17-1.32,0.09-1.97,1.45-2.11
			c2.91-0.31,5.71-0.93,7.46-3.69c0.24-0.38,0.85-0.52,1.76-1.04c0,1.33,0,2.26,0,3.43c0.72,0.22,1.83,0.49,2.89,0.89
			c4.61,1.74,5.1,6.23,2.8,9.8c-2.38,3.69-5.35,6.88-9.08,9.26c-0.34,0.22-1.11,0.24-1.38,0.01c-0.45-0.4-1-1.13-0.91-1.62
			c0.22-1.26,0.75-2.46,1.17-3.71c0.25,0.11,0.33,0.12,0.35,0.16c0.96,2.61,1.03,2.69,3.09,0.76c2.51-2.35,4.37-5.21,5.55-8.44
			c0.75-2.06-0.87-4.41-3.04-4.8c-2.86-0.51-5.11,0.38-6.88,2.68c-0.91,1.19-1.98,2.26-2.92,3.43
			C746.81,556.44,745.99,556.52,744.89,555.5z"/>
		<path d="M760.27,491.96c-1.86,2.85-3.41,5.54-5.27,7.98c-1.24,1.64-3.23,2.21-5.3,2.21c-2.29-0.01-3.54-1.13-3.52-3.41
			c0.02-2.63,0.26-5.26,0.4-8c-3.61,0.12-5.9,4.59-10.26,3.98c1.63-2.75,9.35-6.6,14.97-7.7c0.6,1.12,0.12,1.99-0.67,2.74
			c-2.59,2.46-2.75,5.55-2.39,8.8c0.15,1.4,0.99,1.85,2.28,1.77c2.28-0.15,3.83-1.53,4.81-3.34c1.12-2.07,1.96-4.32,2.71-6.56
			c0.76-2.28,1.44-2.59,3.1-0.84c1.43,1.51,2.77,3.13,4.01,4.81c0.32,0.44,0.13,1.25,0.18,1.89c-0.6-0.19-1.38-0.22-1.78-0.62
			C762.31,494.47,761.24,493.1,760.27,491.96z"/>
		<path d="M693.29,567.79c1.09-1.88,2.23-3.72,3.21-5.65c0.16-0.32-0.25-1.11-0.6-1.49c-2.15-2.31-1.66-5.48,1.15-6.49
			c0.87-0.32,1.91-0.18,2.89-0.48c-1.84-1.74-4.37,0.7-6.24-0.73c-0.04-0.21-0.07-0.43-0.11-0.64c1.07-0.25,2.14-0.54,3.22-0.74
			c2.62-0.48,2.62-0.47,2.6-3.06c0-0.26,0.16-0.53,0.39-1.28c0.71,1.24,1.21,2.13,1.77,3.11c1.68-0.42,3.4-0.91,5.14-1.24
			c0.57-0.11,1.21,0.21,1.83,0.34c-0.44,0.53-0.78,1.27-1.34,1.54c-0.97,0.48-2.06,0.79-3.14,0.95c-1.52,0.23-1.93,0.99-1.61,2.41
			c0.19,0.83,0.26,1.7,0.29,2.55c0.09,2.2-1.54,3.44-2.82,4.85c-1.11,1.22-2.39,2.3-3.48,3.55c-0.67,0.77-1.05,1.78-1.71,2.56
			c-0.29,0.34-0.96,0.35-1.45,0.51C693.29,568.16,693.29,567.98,693.29,567.79z M695.85,557.41c1.04,0.82,1.89,1.71,2.06,1.59
			c0.69-0.46,1.25-1.2,1.65-1.94c0.07-0.14-0.89-1.19-1.26-1.13C697.62,556.03,697.02,556.65,695.85,557.41z"/>
		<path d="M813.11,439.15c0.58-1.09,1.12-2.03,1.58-3c0.7-1.52,1.5-3.01,1.96-4.61c0.51-1.75-0.36-2.6-2.2-2.82
			c-5.33-0.62-10,1.49-14.71,3.48c-1.6,0.68-3.13,1.52-4.77,2.07c-0.51,0.17-1.26-0.36-1.9-0.58c0.28-0.5,0.45-1.28,0.87-1.46
			c6.26-2.71,12.34-6.08,19.43-6.08c1.41,0,2.88,0.37,4.19,0.88c0.7,0.27,1.34,1.13,1.67,1.88
			C820.72,432.33,817.17,438.43,813.11,439.15z"/>
		<path d="M764.7,424.73c-4.2,0.04-8.67,2-12.86,4.77c-1.11,0.74-2.22,1.49-3.37,2.17c-0.29,0.17-0.98,0.25-1.03,0.14
			c-0.19-0.36-0.37-0.96-0.19-1.23c0.4-0.61,0.93-1.24,1.56-1.57c3.38-1.78,6.72-3.7,10.25-5.12c2.96-1.19,6.2-1.47,9.42-0.95
			c1.77,0.29,2.93,1.76,2.93,3.56c0,3.15-1.27,5.74-3.49,7.9c-0.95,0.92-1.92,1.84-2.99,2.61c-0.34,0.24-1.01,0.01-1.54,0
			c0.15-0.46,0.19-1.02,0.48-1.37c1.8-2.17,3.75-4.18,4.59-7.04C769.37,425.53,768.84,424.63,764.7,424.73z"/>
		<path d="M725.2,421.72c0.99-0.44,1.98-0.88,3.08-1.37c0-0.82-0.04-1.68,0.02-2.54c0.02-0.28,0.26-0.76,0.44-0.77
			c0.32-0.03,0.83,0.12,0.98,0.36c0.45,0.73,0.77,1.55,1.09,2.24c1.51,0.07,2.92,0.13,4.43,0.2c-0.54,1.54-0.77,1.83-2.49,1.98
			c-1.52,0.13-1.75,0.87-2.17,2.22c-0.87,2.78,0.29,4.14,2.47,5.33c0.37,0.2,0.39,1.03,0.58,1.57c-0.6,0.05-1.32,0.35-1.76,0.11
			c-2.21-1.19-2.18-1.24-3.53,0.9c-0.73,1.15-1.57,2.47-3.1,1.92c-1.3-0.47-2.35-1.53-2.06-3.24c0.27-1.6,1.18-2.57,2.77-2.88
			c1.84-0.36,2.58-1.41,2.25-3.28c-0.15-0.83-0.37-1.55-1.53-1.49c-0.5,0.03-1.03-0.42-1.55-0.64
			C725.14,422.12,725.17,421.92,725.2,421.72z"/>
		<path d="M748.41,457.35c-1.03-0.33-2.27-0.41-2.41-0.84c-0.44-1.36,0.82-1.78,1.81-2.01c2.13-0.5,3.18-1.95,3.85-3.86
			c0.13-0.38,0.29-0.9,0.58-1.04c0.61-0.3,1.32-0.39,2-0.57c0.12,0.55,0.32,1.1,0.34,1.65c0.02,0.38-0.2,0.77-0.41,1.48
			c1.73-0.44,3.3-0.74,4.79-1.25c1.41-0.48,2.32-0.12,3.08,1.32c-2.76,0.96-5.45,1.8-8.07,2.85c-0.81,0.32-1.63,1.06-2.04,1.82
			c-1.32,2.44-2.44,4.98-3.64,7.48c-0.12,0.26-0.23,0.63-0.44,0.73c-0.61,0.26-1.26,0.41-1.9,0.6c-0.08-0.63-0.38-1.35-0.18-1.87
			c0.65-1.73,1.49-3.38,2.22-5.08C748.2,458.26,748.31,457.7,748.41,457.35z"/>
		<path d="M717.74,446.4c-1.04,5.08-2.57,10.15-0.75,15.75c2.82-1.81,5.31-3.41,7.87-5.05c1.11,1.02,1.14,1.79-0.28,2.75
			c-2.14,1.45-4.32,2.87-6.56,4.15c-1.93,1.1-4.15-0.54-4.31-3.19c-0.16-2.67-0.46-5.38-0.17-8.02c0.22-2.01,1.2-3.96,2.01-5.87
			c0.19-0.46,1.06-0.63,1.62-0.93C717.35,446.12,717.54,446.26,717.74,446.4z"/>
		<path d="M759.26,463.53c1.71,0.09,2.15,1.21,2.24,2.47c0.08,1.19,0.59,1.69,1.76,1.91c1.24,0.23,2.48,0.65,3.6,1.22
			c0.62,0.31,1,1.09,1.49,1.65c-0.71,0.17-1.41,0.41-2.13,0.48c-0.37,0.04-0.78-0.18-1.16-0.33c-2.15-0.87-4.13-1.26-5.27,1.52
			c-0.19,0.47-0.82,0.79-1.28,1.13c-1.18,0.89-2.3,0.66-2.71-0.75c-0.38-1.3-0.53-2.71-0.47-4.06c0.02-0.45,0.93-1.09,1.54-1.26
			c2.56-0.71,2.57-0.66,2.31-3.31C759.16,464.04,759.22,463.87,759.26,463.53z"/>
		<path d="M753.85,241.07c0,5.38-0.02,10.75,0.01,16.13c0.01,1.71,0.29,3.42,0.23,5.13c-0.02,0.56-0.71,1.09-1.1,1.63
			c-0.38-0.52-1.03-1.01-1.1-1.58c-0.93-7.32-0.54-14.67-0.34-22.01c0.03-0.94-0.3-2.69,1.25-2.59c1.45,0.08,0.54,1.7,0.83,2.6
			c0.07,0.21-0.01,0.46-0.02,0.69C753.69,241.06,753.77,241.06,753.85,241.07z"/>
		<path d="M798.71,517.76c0.67-0.15,1.22-0.28,1.76-0.4c0.42,2.03-0.15,3.06-1.83,3.51c-1.13,0.3-1.87-0.23-2.07-1.23
			c-1.22-6.06-2.29-12.13-1.65-18.37c0.1-1.02,0.3-1.78,1.42-1.71c1.15,0.06,1.22,0.93,1.25,1.9c0.13,4.71,0.31,9.42,0.53,14.13
			C798.15,516.3,798.5,517.01,798.71,517.76z"/>
		<path d="M712.9,496.4c-0.5,2.55-0.69,5.2-1.56,7.61c-1.32,3.68-3.07,7.21-4.76,10.74c-0.19,0.41-1.14,0.46-1.74,0.67
			c0-0.6-0.21-1.3,0.02-1.79c1.53-3.25,3.05-6.48,3.66-10.07c0.47-2.78,1.08-5.54,1.74-8.28c0.13-0.55,0.8-0.97,1.21-1.45
			c0.39,0.55,0.82,1.07,1.14,1.65c0.12,0.22,0.02,0.57,0.02,0.86C712.72,496.37,712.81,496.38,712.9,496.4z"/>
		<path d="M717.53,433.1c0.58,0,0.94,0,1.42,0c-0.09,0.41-0.05,0.77-0.22,0.93c-0.79,0.77-1.73,2.19-2.42,2.09
			c-1.5-0.22-1.18-1.75-1.09-3.01c0.33-4.74,0.52-9.48,0.88-14.22c0.06-0.78,0.63-1.55,1.09-2.25c0.16-0.24,0.78-0.39,1.03-0.26
			c0.22,0.11,0.32,0.67,0.3,1.02c-0.31,4.61-0.66,9.22-0.98,13.83C717.49,431.8,717.53,432.38,717.53,433.1z"/>
		<path d="M705.04,501.74c0.64,0.08,1.2,0.15,2.19,0.27c-1.12,1.17-1.94,2.28-3.01,3.02c-0.5,0.35-1.55,0.16-2.21-0.12
			c-0.29-0.12-0.4-1.1-0.3-1.64c0.38-2.14,0.81-4.29,1.39-6.39c0.14-0.51,0.94-0.83,1.44-1.23c0.36,0.49,1.04,0.99,1.03,1.48
			C705.53,498.61,705.24,500.09,705.04,501.74z"/>
		<path d="M755.2,534.27c-1.43,1.2-2.86,1.67-4.55,1.12c-1.27-0.41-2.59-0.71-3.78-1.28c-0.48-0.23-0.7-1.02-1.04-1.56
			c0.57-0.07,1.17-0.3,1.7-0.18C750.04,532.94,752.54,533.6,755.2,534.27z"/>
		<path d="M768.85,550.06c-0.93,0.26-1.7,0.59-1.77,0.47c-1.4-2.14-2.71-4.33-4-6.54c-0.02-0.04,0.55-0.42,0.84-0.63
			C765.47,545.45,767.01,547.56,768.85,550.06z"/>
		<path d="M805.65,480.56c3.24-0.8,4.8,3,7.97,1.98C811.57,485.33,807.87,484.08,805.65,480.56z"/>
		<path d="M703.35,570.17c-0.17-1.6,1.05-1.82,2.33-1.83c1-0.01,2.16,0.5,1.73,1.54c-0.39,0.93-1.53,1.77-2.53,2.15
			C703.96,572.38,703.28,571.43,703.35,570.17z"/>
		<path d="M767.24,446.31c0.67,0.9,1.22,1.51,1.61,2.2c0.34,0.59,0.58,1.26,0.72,1.93c0.09,0.45-0.07,0.95-0.12,1.42
			c-0.53-0.06-1.4,0.06-1.55-0.21c-0.67-1.24-1.19-2.58-1.65-3.92C766.18,447.51,766.67,447.09,767.24,446.31z"/>
		<path d="M826.07,448.15c-0.86,0.58-1.26,1.05-1.72,1.11c-0.9,0.12-2.11-1.85-1.99-3.41c0.04-0.51,0.68-0.97,1.05-1.45
			C824.22,445.54,825.02,446.67,826.07,448.15z"/>
		<path d="M832.56,446.77c-1.33,0.01-2.92-1.67-2.73-2.56c0.1-0.44,0.71-0.76,1.08-1.14c0.81,0.9,1.65,1.77,2.36,2.74
			C833.37,445.93,832.69,446.6,832.56,446.77z"/>
		<path d="M721.98,449.16c-0.5-0.64-1.03-1.05-1.2-1.58c-0.27-0.84-0.3-1.75-0.42-2.63c0-0.03,0.08-0.11,0.12-0.11
			c0.43,0,1.14-0.14,1.24,0.05c0.55,1.03,1,2.12,1.34,3.23C723.11,448.29,722.49,448.68,721.98,449.16z"/>
		<path d="M833.66,525.77c-0.76,0.6-1.32,1.14-1.4,1.07c-0.86-0.67-1.65-1.44-2.45-2.19c0.32-0.24,0.79-0.77,0.95-0.69
			C831.66,524.43,832.49,525.03,833.66,525.77z"/>
		<path d="M724.94,442.33c0.45,0.61,0.98,1.15,1.27,1.79c0.22,0.48,0.19,1.09,0.17,1.64c0,0.11-0.48,0.3-0.72,0.28
			c-0.92-0.08-1.97-2.38-1.46-3.17C724.31,442.69,724.56,442.6,724.94,442.33z"/>
		<path d="M767.06,543.55c1.94-0.59,2.36,0.42,2.63,1.51c0.04,0.15-0.41,0.42-0.63,0.63C768.39,544.98,767.73,544.27,767.06,543.55z
			"/>
		<path d="M772.35,541.88c-0.45,0.37-0.82,0.76-0.88,0.72c-0.53-0.39-1-0.86-1.49-1.31c0.23-0.25,0.62-0.74,0.67-0.71
			C771.2,540.93,771.69,541.36,772.35,541.88z"/>
		<path class="vol1_5_st0" d="M544.13,246.73c-0.09,0.81-0.24,1.45-0.21,2.09c0.26,6.49,0.34,12.99,0.9,19.45
			c0.47,5.42,1.44,10.81,2.34,16.18c0.67,4.05,1.68,8.05,2.29,12.11c0.11,0.72-0.83,1.91-1.59,2.42c-7.9,5.3-14.33,3.61-18.91-5.12
			c-3.93-7.5-4.85-15.78-4.4-24.22c0.4-7.65,2.76-14.79,5.36-21.89c0.76-2.07,1.54-2.32,3.77-1.91c0.69,0.13,1.45-0.2,2.18-0.2
			c2.09,0,4.19-0.04,6.27,0.13C542.88,245.83,543.57,246.44,544.13,246.73z M535.82,298.37c-0.38-0.96-0.96-1.89-1.1-2.88
			c-0.76-5.33-1.82-10.66-2-16.01c-0.26-7.71,0.22-15.45,0.25-23.18c0.01-3.18-0.3-6.36-0.46-9.54c-0.28,0-0.56,0-0.84,0
			c0,0.84,0,1.68,0,2.51c0.01,3.22,0.1,6.44,0.03,9.66c-0.13,5.75-0.5,11.49-0.52,17.23c-0.02,6.32,0.55,12.62,1.9,18.81
			C533.4,296.44,534.09,297.85,535.82,298.37z"/>
		<path class="vol1_5_st0" d="M654.63,273.45c-1.23-1.71-2.62-3.33-3.67-5.14c-3.24-5.59-5.23-11.63-6.15-18.02
			c-0.8-5.58,0.96-10.5,4.32-14.78c0.71-0.91,2.72-0.88,4.16-1.11c1.64-0.26,3.36-0.11,4.94-0.54c4.61-1.23,5.79-0.97,8.34,2.97
			c1.12,1.74,1.94,3.7,2.72,5.63c1.16,2.89,2.53,5.77,3.13,8.78c0.8,3.99,0.99,8.11,1.32,12.19c0.07,0.87-0.3,1.82-0.62,2.68
			c-1.18,3.12-2.99,5.85-5.46,8.72c-0.62-3.38-1.1-6.38-1.74-9.35c-1.35-6.29-2.7-12.58-4.21-18.83c-0.71-2.93-1.77-5.77-2.69-8.64
			c-0.12-0.38-0.3-0.78-0.56-1.07c-0.27-0.31-0.66-0.51-1-0.76c-0.11,0.4-0.38,0.84-0.3,1.2c0.54,2.43,1.2,4.84,1.75,7.27
			c1.09,4.81,2.21,9.62,3.2,14.45c0.98,4.79,1.76,9.61,2.76,14.4c0.18,0.85,0.96,1.57,1.58,2.55c-0.09,0.05-0.59,0.25-1.02,0.53
			c-0.38,0.25-0.85,0.53-1.03,0.91c-0.72,1.54-1.48,1.88-3.01,1.04c-1.17-0.64-2.26-1.43-3.16-2.01c-0.16-1.1-0.15-2.01-0.43-2.83
			c-2.33-7.02-3.14-14.28-3.67-21.6c-0.19-2.67-0.64-5.32-0.87-7.98c-0.17-2.02-0.13-4.07-0.32-6.09c-0.04-0.48-0.64-0.9-0.99-1.35
			c-0.31,0.46-0.87,0.91-0.88,1.38c-0.05,1.85-0.02,3.71,0.14,5.56c0.52,6.07,0.95,12.15,1.72,18.19c0.46,3.6,1.47,7.13,2.23,10.7
			c0.04,0.21,0.01,0.44,0.01,0.66C654.99,273.25,654.81,273.35,654.63,273.45z"/>
		<path class="vol1_5_st0" d="M551.37,295.62c-4.38-16.1-4.46-32.41-6.04-48.48c5.36,1.39,10.69,5.56,11.4,11.99
			c0.39,3.5,1.31,6.94,1.88,10.43c0.2,1.19,0.19,2.45,0.05,3.65c-0.5,4.31-0.79,8.68-1.76,12.88
			C556.1,289.58,553.96,292.6,551.37,295.62z"/>
		<path class="vol1_5_st0" d="M651.33,232.42c-0.82-2.89,1.12-4.58,2.17-6.56c0.19-0.35,0.61-0.59,0.77-0.94c1.87-4.31,5.76-3.06,9.09-3.23
			c0.31-0.02,0.99,0.89,0.95,1.31c-0.14,1.66-0.5,3.3-0.8,4.94c-0.03,0.15-0.18,0.4-0.28,0.41c-1.68,0.07-2.04,1.78-3.13,2.48
			c-1.23,0.78-2.73,1.29-4.18,1.54C654.47,232.62,652.93,232.42,651.33,232.42z"/>
		<path class="vol1_5_st0" d="M754.23,218.26c-0.48,3.35-0.85,6.26-1.35,9.15c-0.05,0.3-1.07,0.77-1.24,0.64c-1.92-1.48-4.1-1.36-6.62-0.89
			c0.8-2.51,1.41-4.67,2.22-6.75c0.2-0.52,1-0.98,1.61-1.14C750.4,218.87,752.01,218.66,754.23,218.26z"/>
		<path class="vol1_5_st0" d="M745.21,279.72c0-3.15,0-6.18,0-9.14c1.87-0.31,3.63-0.59,5.74-0.94c0.15,2.43,0.36,4.98-0.48,7.44
			C750,278.48,747.75,279.54,745.21,279.72z"/>
		<path class="vol1_5_st0" d="M538.28,244.13c-0.22-0.02-0.74-0.07-1.26-0.09c-2.28-0.08-2.9-0.76-2.44-2.96c0.09-0.45,0.67-1.04,1.12-1.15
			c1.46-0.34,2.97-0.48,4.46-0.69c1.24-0.18,1.82,0.57,2.11,1.6c0.15,0.55,0.08,1.16,0.17,1.73c0.18,1.13-0.27,1.63-1.42,1.57
			C540.21,244.1,539.39,244.13,538.28,244.13z"/>
		<path class="vol1_5_st0" d="M540.17,311.27c-0.84-2.13-1.48-3.55-1.92-5.02c-0.13-0.43,0.3-1.46,0.56-1.5c1.79-0.23,3.63-0.49,5.39-0.29
			c1.37,0.16,1.66,1.23,0.69,2.27C543.5,308.26,541.92,309.62,540.17,311.27z"/>
		<path class="vol1_5_st0" d="M536.52,386.89c3.76-0.33,6.23,2.19,8.92,4.14c0.96,0.7,1.74,1.26,2.97,0.89c0.53-0.16,1.15,0.02,1.72,0
			c2.94-0.09,5.9-0.08,8.83-0.35c2.48-0.23,4.94-0.7,7.37-1.25c1.16-0.26,2.36-0.77,3.29-1.5c2.65-2.1,5.69-1.39,8.58-1.31
			c1.7,0.04,2.64,3.53,1.49,5.11c-1.32,1.82-2.97,3.26-5.16,4c-1.99,0.68-3.5-0.17-4.87-1.47c-0.34-0.32-0.64-0.69-0.88-1.08
			c-1.08-1.77-2.51-2.25-4.44-1.4c-0.79,0.35-1.66,0.52-2.51,0.71c-2.4,0.53-4.28,1.31-5.21,4.11c-0.86,2.59-3.56,3.89-5.93,5.13
			c-1.17,0.61-3.33-0.8-4.18-2.71c-0.6-1.36-1.04-2.82-1.31-4.28c-0.24-1.27-0.83-1.5-1.94-1.25c-2.04,0.46-4.07,1.02-6.14,1.28
			c-2.08,0.26-3.83-0.6-4.76-2.53c-0.82-1.7-1.02-3.65,0.43-5.04c0.89-0.85,2.35-1.1,3.56-1.62
			C536.39,386.59,536.45,386.74,536.52,386.89z"/>
		<path class="vol1_5_st0" d="M812.66,399.2c2.5,2.05,5.29,2.52,8.17,2.04c3.41-0.57,6.78-1.33,9.81-3.23c1.65-1.04,3.55-1.69,5.36-2.46
			c1.47-0.63,2.55,0.07,3.15,1.34c0.61,1.29,1.26,2.73-0.71,3.62c-0.63,0.28-1.32,0.65-1.7,1.18c-0.49,0.68-0.95,1.54-1,2.35
			c-0.18,3-0.02,6.03-0.31,9.02c-0.28,2.83-3.43,4.04-5.61,2.18c-1.01-0.86-1.9-2.09-2.38-3.33c-1.27-3.29-1.73-3.73-5.22-3.31
			c-3.33,0.4-6.65,0.93-9.99,1.29c-0.41,0.04-1.1-0.47-1.31-0.9c-1.1-2.3-0.21-4.55,0.43-6.76
			C811.62,401.3,812.12,400.43,812.66,399.2z"/>
		<path class="vol1_5_st0" d="M811.2,373.84c1.71,1.52,3.55,2.92,5.07,4.6c1.27,1.4,2.55,1.84,4.42,1.75c3.3-0.16,6.62-0.09,9.91,0.18
			c1.84,0.15,2.95-0.52,3.92-1.9c1.5-2.13,3.04-4.24,4.57-6.36c0.19-0.27,0.43-0.5,0.9-1.04c0.58,1.36,1.28,2.45,1.53,3.65
			c0.6,2.84,0.97,5.73,1.49,8.59c0.24,1.29-0.3,1.52-1.43,1.38c-3.45-0.45-6.91-0.83-10.36-1.28c-0.37-0.05-0.69-0.38-1.06-0.45
			c-0.71-0.13-1.44-0.2-2.17-0.23c-0.33-0.01-0.66,0.23-1,0.25c-5.1,0.23-10.21,0.44-15.31,0.64c-0.51,0.02-1.03-0.1-1.82-0.18
			c0.19-3.12,0.38-6.16,0.56-9.2C810.69,374.11,810.94,373.97,811.2,373.84z"/>
		<path class="vol1_5_st0" d="M542.82,384.66c5.68-2.62,10.22-6.99,16.59-6.66c-0.16,2.22-0.29,4.12-0.43,6.03c0.23,0.1,0.47,0.19,0.7,0.29
			c0.5-0.62,1-1.24,1.41-1.76c1.78,0,3.72,0.21,5.58-0.11c0.71-0.12,1.37-1.35,1.78-2.21c0.49-1.02-1.98-4.92-3.42-5.36
			c3.17-1.03,5.98-2.63,9.34-2.31c1.02,0.1,2.19,0.1,2.41-1.58c0.08-0.61,1.22-1.07,2.18-1.85c0.32,3.26-0.47,5.77-2.18,8.37
			c-0.7-1.8-0.79-4.04-3.27-3.66c-1.54,0.24-2.42,2.09-2.05,3.71c0.36,1.56,1.4,1.98,4.47,1.69c-1.39,1.78-2.65,3.51-4.03,5.14
			c-0.37,0.44-1.08,0.83-1.64,0.83c-8.79,0-17.58-0.06-26.36-0.12C543.69,385.09,543.49,384.94,542.82,384.66z"/>
		<path class="vol1_5_st0" d="M776.62,384.91c1.27-0.05,2-0.15,2.15,1.2c0.19,1.63,1.34,0.64,2.05,0.56c-0.23,1.12-0.78,2.37-0.63,3.52
			c0.14,1,0.88,2.31,1.72,2.71c0.97,0.46,2.98,0.53,3.39-0.05c0.66-0.93,0.47-2.53,0.44-3.83c-0.01-0.48-0.6-0.96-0.96-1.42
			c-0.31-0.39-0.67-0.73-1.11-1.19c2.83,0,5.46,0,8.55,0c0.05,1.36-0.05,2.57,0.18,3.72c0.24,1.21,0.63,2.47,1.28,3.5
			c0.55,0.87,2.13,0.47,2.74-0.69c0.98-1.85,1.86-3.77,0.8-6.05c2.75-1.04,5.45-2.06,8.35-3.16c-0.11,1.02-0.06,2.18-0.38,3.23
			c-0.8,2.57-1.73,5.1-2.69,7.62c-0.4,1.03-1.26,1.37-2.41,1.24c-3.69-0.44-7.38-0.88-11.08-1.16c-3.3-0.25-6.62-0.38-9.93-0.36
			c-1.32,0.01-1.87-0.58-1.97-1.63C776.88,390.12,776.79,387.59,776.62,384.91z"/>
		<path class="vol1_5_st0" d="M511.06,384.43c-0.75,0.63-1.59,1.18-2.24,1.91c-1.27,1.43-2.96,2.01-4.28,1.31c-1.4-0.75-2.6-3.08-1.9-4.45
			c0.44-0.86,1.74-1.91,2.57-1.85c4.72,0.39,9.42,1.08,14.12,1.69c0.26,0.03,0.49,0.23,0.72,0.34c-0.04,0.21-0.04,0.39-0.09,0.42
			c-1.84,0.75-2.49,2.05-2.04,4c0.17,0.72,0.07,1.5,0.06,2.26c-0.03,2.38-1.18,3.97-3.38,4.71c-1.61,0.54-3.31-0.98-3.37-3.23
			c-0.05-1.72,0.21-3.45,0.32-5.18c0.03-0.5,0-1.01,0-1.51C511.39,384.69,511.23,384.56,511.06,384.43z"/>
		<path class="vol1_5_st0" d="M803.82,400.9c-0.16,2.45-0.23,4.82-0.51,7.16c-0.14,1.1-0.62,2.19-1.11,3.2c-0.2,0.41-0.92,0.91-1.28,0.83
			c-0.59-0.13-1.43-0.62-1.55-1.11c-0.26-1.02-0.28-2.17-0.11-3.21c0.2-1.18-0.12-2.07-1.27-1.91c-3.37,0.47-6.87,0.9-9.22,3.79
			c-0.72,0.89-1.03,2.11-1.6,3.35c-2.84-1.68-0.72-5.1-3.32-6.89c1.99-0.65,3.63-1.08,5.18-1.73c3.42-1.42,6.81-2.93,10.18-4.46
			C800.51,399.35,801.12,399.43,803.82,400.9z"/>
		<path class="vol1_5_st0" d="M783.82,397.06c0.84,1.38,1.5,2.54,2.28,3.62c0.11,0.15,0.89,0,1.23-0.22c0.47-0.31,0.9-0.77,1.2-1.25
			c1.15-1.88,2.83-2.08,4.79-1.7c1.51,0.29,3.04,0.47,4.73,0.72c-2.31,1.29-4.4,2.7-6.69,3.67c-2.23,0.94-4.65,1.49-7.01,2.11
			c-3.38,0.89-5.09-1.47-6.2-4.16c-0.2-0.48-0.24-1.01-0.35-1.52c-0.29-1.3,0.23-1.92,1.55-1.78
			C780.91,396.69,782.46,396.9,783.82,397.06z"/>
		<path class="vol1_5_st0" d="M546.98,375.46c-0.26,0.83-0.51,1.62-0.77,2.42c0.16,0.07,0.32,0.15,0.47,0.22c0.71-0.29,1.42-0.58,2.42-0.99
			c-0.23,0.58-0.25,0.99-0.46,1.13c-2.59,1.72-5.11,3.56-7.85,5.01c-1.36,0.72-3.11,0.81-4.71,0.96c-1.7,0.16-4.11-1.59-4.5-3.2
			c-0.09-0.39,0.26-1.22,0.58-1.32c4.75-1.48,9.53-2.88,14.31-4.28C546.67,375.36,546.9,375.45,546.98,375.46z"/>
		<path class="vol1_5_st0" d="M528.48,368.11c3.64,1.48,7.32,2.85,10.89,4.47c1.77,0.81,3.24,1.03,5.09,0.17c3.03-1.43,6.15-2.74,9.36-3.71
			c2.02-0.61,4.24-0.52,6.38-0.75c0.01,0.17,0.03,0.33,0.04,0.5c-1.93,0.64-3.83,1.33-5.78,1.9c-4.56,1.33-9.18,2.46-13.69,3.96
			c-2.7,0.9-4.81-0.23-7.11-1.1c-0.63-0.24-1.37-0.17-2.06-0.24c0.03,0.76-0.08,1.56,0.13,2.26c0.24,0.77,0.93,1.44-0.32,1.95
			c-1.2,0.49-1.56-0.2-1.79-1.15c-0.64-2.55-1.27-5.1-1.91-7.65C527.96,368.53,528.22,368.32,528.48,368.11z"/>
		<path class="vol1_5_st0" d="M572.1,354.1c1.21,2.56,2.39,4.96,3.48,7.41c0.49,1.11,0.86,2.27,1.19,3.44c0.1,0.37-0.11,0.83-0.17,1.24
			c-0.44-0.17-0.99-0.24-1.29-0.54c-1.06-1.07-2.01-2.24-3.03-3.34c-0.99-1.06-1.9-1-2.64,0.28c-0.55,0.96-1.35,1.88-1.54,2.91
			c-0.4,2.2-1.74,2.45-3.52,2.21C564.19,365.85,568.91,357.12,572.1,354.1z"/>
		<path class="vol1_5_st0" d="M575.6,369.11c-2.64,0.92-5.28,1.85-7.93,2.75c-3.23,1.1-6.48,2.15-9.71,3.26c-1.92,0.66-2.99,0.65-4.68-0.16
			c1.09-2.32,3.33-3.32,5.91-2.89c0.7,0.12,1.53-0.34,2.26-0.65c0.47-0.2,0.81-0.79,1.27-0.87c4.05-0.69,8.12-1.31,12.18-1.94
			c0.2-0.03,0.42,0.1,0.63,0.16C575.56,368.89,575.58,369,575.6,369.11z"/>
		<path class="vol1_5_st0" d="M841.62,386.87c-0.66,1.95-1.96,2.9-3.7,2.83c-2.59-0.11-5.21-0.31-7.72-0.9c-1.32-0.31-2.57-1.4-3.55-2.43
			c-0.57-0.6,0.06-1.24,0.99-1.18c2.2,0.14,4.41,0.16,6.59,0.42C836.63,385.89,838.99,386.4,841.62,386.87z"/>
		<path class="vol1_5_st0" d="M545.32,387.59c6.97,0,13.94,0,21.29,0C562.7,390.59,547.85,390.34,545.32,387.59z"/>
		<path class="vol1_5_st0" d="M826.07,390.15c-0.24,2.67-0.46,5.15-0.73,8.21c-1.64,0.29-3.8,0.67-5.97,1.05
			c-0.02-0.13-0.05-0.25-0.07-0.38c0.78-0.17,1.61-0.25,2.34-0.55c0.52-0.21,0.91-0.72,1.36-1.1c-0.46-0.22-0.93-0.45-1.4-0.67
			c-0.15-0.07-0.32-0.09-0.29-0.08c0-1.83-0.1-3.58,0.06-5.32c0.05-0.51,0.77-1.31,1.24-1.36
			C823.79,389.83,825,390.07,826.07,390.15z"/>
		<path class="vol1_5_st0" d="M529.84,383c-1.57-0.38-3.05-0.67-4.49-1.11c-0.53-0.17-1.25-0.63-1.35-1.08c-0.48-2.04-0.56-4.1,0.78-5.94
			c0.24-0.32,0.38-0.72,0.6-1.05c0.2-0.32,0.45-0.6,0.68-0.9c0.23,0.34,0.55,0.65,0.68,1.03C527.79,376.92,528.8,379.92,529.84,383z
			"/>
		<path class="vol1_5_st0" d="M817.83,396.54c-1.2,0-2.49,0.14-3.72-0.06c-0.64-0.1-1.22-0.77-1.77-1.24c-0.2-0.17-0.28-0.5-0.41-0.76
			c-1.72-3.49-1.72-3.5,2.15-4.22c0.45-0.08,0.91-0.1,1.12,0.2c0.6,0.58,1.21,1.16,2.06,1.97
			C817.4,393.42,817.6,394.87,817.83,396.54z"/>
		<path class="vol1_5_st0" d="M797.45,384.11c0.92-1.82,1.89-3.72,2.85-5.63c0.4-0.79,2.5-1.19,3.77-0.63c1.2,0.53,0.91,1.56,0.49,2.37
			C803.08,383.14,800.89,384.58,797.45,384.11z"/>
		<path class="vol1_5_st0" d="M778.71,374.43c1.48,1.65,2.96,3.31,4.88,5.45c-2.12,0.42-3.8,0.78-5.49,1.07c-0.14,0.02-0.51-0.39-0.5-0.58
			c0.09-1.91,0.23-3.81,0.36-5.72C778.21,374.58,778.46,374.5,778.71,374.43z"/>
		<path class="vol1_5_st0" d="M829.28,391.09c1.5,0.41,2.9,1.07,4.32,1.09c1.41,0.02,2.84-0.6,4.36-0.66c-2.28,2.9-6.07,2.8-8.67,4.82
			C829.28,394.56,829.28,392.96,829.28,391.09z"/>
		<path class="vol1_5_st0" d="M818.37,385.29c0.56,1.83-0.62,2.38-1.82,2.61c-1.82,0.34-3.68,0.49-5.53,0.58c-0.44,0.02-1.23-0.47-1.3-0.83
			c-0.14-0.73-0.18-1.69,1.03-1.78C813.29,385.68,815.82,385.48,818.37,385.29z"/>
		<path class="vol1_5_st0" d="M528.71,385.43c-1.25,1.49-2.02,2.55-2.95,3.45c-0.4,0.39-1.29,0.77-1.65,0.58c-0.49-0.26-1-1.11-0.94-1.64
			c0.13-1.09,0.48-2.91,1.04-3.03C525.45,384.53,526.89,385.11,528.71,385.43z"/>
		<path class="vol1_5_st0" d="M524.11,369.92c0.15,2.39-2.7,3.89-6.81,3.45c0.24-1.63,1.7-2.22,2.75-2.76
			C521.16,370.02,522.64,370.13,524.11,369.92z"/>
		<path class="vol1_5_st0" d="M796.78,380.64c-1.33,2.21-3.4,3.29-5.38,2.71c-0.44-0.13-0.78-0.58-1.17-0.88c0.36-0.28,0.69-0.69,1.1-0.82
			c1.74-0.56,3.5-1.04,5.26-1.56C796.65,380.28,796.71,380.46,796.78,380.64z"/>
		<path class="vol1_5_st0" d="M806.88,389.22c0.94,1.68,2.03,2.97,0.1,4.39c-0.46,0.34-0.56,1.12-0.93,1.63c-0.23,0.32-0.65,0.5-0.98,0.75
			c-0.13-0.38-0.46-0.83-0.36-1.12C805.33,393.09,806.06,391.34,806.88,389.22z"/>
		<path class="vol1_5_st0" d="M515.28,374.32c-0.92,0.85-1.8,1.76-2.79,2.5c-0.18,0.14-1.21-0.35-1.24-0.61c-0.08-0.98-0.32-2.25,1.1-2.5
			c0.85-0.15,1.77,0.05,2.66,0.09C515.1,373.98,515.19,374.15,515.28,374.32z"/>
		<path class="vol1_5_st0" d="M804.3,375.65c-1.36,0-2.2,0-3.3,0c0.43-1.53,0.82-2.92,1.21-4.31c0.21-0.04,0.42-0.08,0.63-0.12
			C803.3,372.58,803.74,373.94,804.3,375.65z"/>
		<path class="vol1_5_st0" d="M520.52,378.09c-1.36,0.8-2.28,1.35-3.19,1.89c-0.16-0.16-0.33-0.31-0.49-0.47c0.51-0.95,1.02-1.91,1.54-2.86
			C518.95,377.05,519.53,377.43,520.52,378.09z"/>
		<path class="vol1_5_st0" d="M569.51,366.97c0.48-1.14,0.83-1.95,1.34-3.16c0.86,0.92,1.46,1.57,2.36,2.53
			C571.76,366.59,570.79,366.76,569.51,366.97z"/>
		<path class="vol1_5_st0" d="M784.04,384.43c0.1-1.16,0.18-1.99,0.26-2.87c0.85-0.22,1.67-0.43,3.03-0.79c-0.5,0.66-0.74,0.99-0.98,1.31
			c-0.44,0.58-1.84,0.61-1.08,1.88C784.9,384.1,784.55,384.23,784.04,384.43z"/>
		<path class="vol1_5_st0" d="M777.26,402.79c-2.26-0.55-2.26-2.06-2.06-4.05C775.94,400.2,776.54,401.38,777.26,402.79z"/>
		<path class="vol1_5_st0" d="M808.93,393.91c0.5,0.83,0.79,1.31,1.25,2.07c-0.9,0.09-1.61,0.16-2.81,0.28
			C808.02,395.28,808.4,394.71,808.93,393.91z"/>
		<path class="vol1_5_st0" d="M816.09,509.94c1.31,0.49,2.22,0.82,3.12,1.15c-0.33,0.67-0.69,1.93-0.98,1.91
			C816.91,512.93,816.43,511.85,816.09,509.94z"/>
		<path class="vol1_5_st0" d="M695.85,557.41c1.17-0.75,1.77-1.38,2.46-1.49c0.37-0.06,1.33,0.99,1.26,1.13c-0.4,0.75-0.96,1.48-1.65,1.94
			C697.74,559.11,696.89,558.22,695.85,557.41z"/>
		<path d="M535.82,298.37c-1.73-0.52-2.42-1.94-2.74-3.4c-1.35-6.19-1.92-12.49-1.9-18.81c0.02-5.74,0.38-11.49,0.52-17.23
			c0.07-3.22-0.01-6.44-0.03-9.66c0-0.84,0-1.68,0-2.51c0.28,0,0.56,0,0.84,0c0.16,3.18,0.47,6.36,0.46,9.54
			c-0.04,7.73-0.51,15.47-0.25,23.18c0.18,5.36,1.24,10.69,2,16.01C534.86,296.49,535.44,297.41,535.82,298.37z"/>
	</g>
</g>
</svg>
