<?xml version="1.0" encoding="utf-8"?>
<!-- Generator: Adobe Illustrator 26.3.1, SVG Export Plug-In . SVG Version: 6.00 Build 0)  -->
<svg version="1.1" xmlns="http://www.w3.org/2000/svg" xmlns:xlink="http://www.w3.org/1999/xlink" x="0px" y="0px"
	 viewBox="0 0 1366 768" style="enable-background:new 0 0 1366 768;" xml:space="preserve">
<style type="text/css">
	.vol1_3_st0{fill:#ffffff;}
	.vol1_3_st1{fill:none;stroke:#ffffff;stroke-width:155.9055;stroke-miterlimit:10;}
	.vol1_3_st2{fill:none;stroke:#ffffff;stroke-width:62.3622;stroke-miterlimit:10;}
	.vol1_3_st3{fill:none;stroke:#ffffff;stroke-width:53.8583;stroke-miterlimit:10;}
	.vol1_3_st4{fill:none;stroke:#ffffff;stroke-width:45.3543;stroke-miterlimit:10;}
	.vol1_3_st5{fill:none;stroke:#ffffff;stroke-width:31.1811;stroke-miterlimit:10;}
	.vol1_3_st6{fill:none;stroke:#ffffff;stroke-width:25.5118;stroke-miterlimit:10;}
	.vol1_3_st7{fill:none;stroke:#ffffff;stroke-width:36.8504;stroke-miterlimit:10;}
	.vol1_3_st8{fill:none;stroke:#ffffff;stroke-width:263.622;stroke-miterlimit:10;}
</style>
<g id="base">
	<g>
		<path class="vol1_3_st0" d="M908,153.9c0,192.44,0,384.88,0,577.35c-149.98,0-299.96,0-450,0c0-213.73,0-427.49,0-641.25
			c150,0,300,0,450,0c0,20.7,0,41.4,0,62.1c-1.4-0.14-2.8-0.29-4.21-0.42c-3.78-0.35-7.57-0.96-11.35-0.99
			c-5.06-0.04-10.12,0.42-15.18,0.59c-7.39,0.25-14.79,0.45-22.19,0.62c-3.74,0.09-5.47-1.75-5.48-5.47
			c-0.02-5.84-0.21-11.68-0.17-17.52c0.01-2.22-1.13-3.02-3-3.37c-7.79-1.46-15.59-1.27-23.41-0.2c-1.79,0.25-3.14,0.9-3.89,2.57
			c-2.99,6.67-6.19,13.26-8.86,20.05c-0.92,2.33-1.92,2.91-4.19,2.8c-5.45-0.27-10.92-0.56-16.37-0.39
			c-11.95,0.39-23.9,1.14-35.85,1.61c-7.85,0.31-15.71,0.18-23.55,0.6c-9.78,0.53-19.54,1.36-29.3,2.21
			c-2.48,0.22-3.95-0.23-4.91-2.84c-1.25-3.39-3.47-5.94-7.74-5.29c-1.84,0.28-3.73,0.2-5.58,0.43c-4.48,0.54-9.25,0.27-12.83,3.75
			c-1.7,1.66-3.08,3.65-4.78,5.31c-0.81,0.79-2,1.56-3.08,1.65c-10.56,0.89-21.14,1.63-31.71,2.43c-7.53,0.57-15.05,1.21-22.59,1.75
			c-8.81,0.63-17.62,1.3-26.44,1.71c-5.6,0.26-11.22,0.12-16.83,0.04c-0.58-0.01-1.22-0.68-1.72-1.17c-0.42-0.41-0.66-1-0.98-1.5
			c-0.55,0.41-1.38,0.71-1.6,1.26c-0.47,1.15-1.1,1.23-2.25,1.17c-4.71-0.26-9.42-0.42-14.14-0.45c-5.2-0.04-10.41,0.1-15.61,0.16
			c-1.7,0.02-2.65-0.4-2.77-2.51c-0.18-3.25-1.75-5.22-4.02-5.46c-4.53-0.48-8.7,0.16-11.99,3.91c-1.09,1.24-2.83,2.15-4.44,2.64
			c-2.99,0.91-6.09,1.48-9.18,2.04c-4.47,0.81-8.95,1.76-13.46,2.15c-4.38,0.38-8.81,0.12-13.23,0.13c-3.55,0.01-7.11,0-10.66,0
			c0.05,1.85,0.05,2.02,1.57,2.04c6.18,0.07,12.35,0.03,18.96,0.03c-0.32,1.16-0.38,1.91-0.7,2.5c-4.35,7.83-6.13,16.17-5.04,25.07
			c1.12,9.18,2.31,18.36,3.45,27.54c1.22,9.8,2.32,19.61,3.65,29.4c0.7,5.17,3.18,9.46,7.39,12.65c4.16,3.15,8.64,5.6,13.89,6.41
			c1.62,0.25,2.8,0.7,2.75,2.94c-0.07,3.18,0.34,6.38,0.74,9.55c0.31,2.44,1.34,3.23,3.67,2.66c2.22-0.54,4.39-1.42,6.49-2.34
			c2.34-1.02,2.92-2.9,2.24-5.34c-0.64-2.28-1.1-4.61-1.67-7.04c3.09-0.68,5.97-1.15,8.74-1.97c3.92-1.16,7.99-2.15,11.6-4
			c5.71-2.93,6.42-8.95,7.01-14.45c0.79-7.35,0.74-14.79,1.19-22.18c0.46-7.53,0.83-15.09,1.77-22.57
			c0.64-5.08,1.65-10.24,3.44-15.01c2.9-7.76,6.63-15.2,9.86-22.84c0.83-1.96,1.85-2.59,4-2.61c11.22-0.12,22.44-0.28,33.65-0.78
			c9.33-0.42,18.64-1.3,27.96-2.06c6.03-0.49,12.03-1.18,18.06-1.66c5.11-0.4,10.23-0.61,15.28-0.91c-0.29,3.38-0.67,6.47-0.79,9.57
			c-0.1,2.54,0.15,5.09,0.17,7.64c0.03,4.64-0.08,9.29,0.04,13.93c0.12,4.93,0.54,9.85,0.62,14.79c0.09,5.31-0.17,10.62-0.09,15.93
			c0.08,4.84,3.31,8.96,7.97,10.27c2.85,0.81,5.79,1.33,8.47,1.94c0.59,3.95,1.32,7.97,1.73,12.02c0.2,1.97,1.09,3.06,2.87,2.97
			c3.32-0.17,6.62-0.86,9.95-0.99c4.57-0.18,5.91-3.05,6.36-6.89c0.04-0.37,0.09-0.75,0.18-1.11c0.44-1.88,0.77-3.8,1.35-5.64
			c0.66-2.1,2.08-2.33,3.5-0.73c0.36,0.4,0.82,0.7,1.55,1.31c0.08-2.73,1.6-3.12,3.49-3.09c1.04,0.02,2.09-0.1,3.14-0.19
			c4.39-0.36,8.16-1.63,10.93-5.53c2.1-2.95,4.62-5.77,7.48-7.96c4.77-3.65,6.82-8.48,7.03-14.12c0.17-4.6,0.11-9.31-0.67-13.83
			c-1.87-10.96-5.12-21.39-13.67-29.31c-1.48-1.38-2.52-3.24-3.76-4.88c0.07-0.25,0.15-0.51,0.22-0.76
			c29.16-1.25,58.31-3.12,87.63-2.73c-6.26,6.34-7.17,14.36-7.93,22.35c-0.59,6.22-0.59,12.51-1.28,18.72
			c-1.05,9.49-1.83,18.98,0.28,28.37c1.24,5.54,3.5,10.07,11.12,10.16c0.75,0.01,1.51,0.24,2.24,0.14c2.53-0.35,3.46,0.74,3.78,3.23
			c0.58,4.52,3.2,6.2,7.73,5.4c1.03-0.18,2.07-0.32,3.09-0.51c7.59-1.43,7.5,0.22,9.76-7.98c0.42-1.53,1.35-2.11,2.82-2.44
			c2.31-0.53,4.67-1.09,6.83-2.03c6.23-2.72,11.34-7.17,16.52-11.43c2.05-1.69,4.13-3.59,5.49-5.83c3.15-5.21,4.62-11.13,4.77-17.14
			c0.16-6.39-0.53-12.79-0.74-19.19c-0.16-4.93-2.67-8.31-6.57-11.04c-3.16-2.21-6.68-4.11-8.32-7.94c-0.22-0.51-0.3-1.08-0.45-1.62
			c0.55-0.12,1.1-0.32,1.65-0.33c2.99-0.03,5.99,0.09,8.98-0.04c7.16-0.31,14.31-0.94,21.47-1.06
			C892.92,153.44,900.46,153.77,908,153.9z M687.58,506.45c0.11-0.55,0.08-1.03,0.29-1.35c3.27-5.17,6.76-10.21,9.82-15.51
			c2.76-4.77,5.72-9.58,7.37-14.77c1.58-4.98,3.47-9.61,6.26-14c1.42-2.23,2.22-4.87,3.14-7.38c1.1-3.01,1.72-6.22,4.34-8.47
			c0.38-0.33,0.59-1.05,0.61-1.6c0.32-7.33,0.63-14.66,0.87-21.99c0.05-1.62-0.36-3.23,1.23-4.47c0.38-0.29,0.43-1.27,0.33-1.88
			c-0.85-5.14-1.7-10.29-2.69-15.41c-1.2-6.21-2.5-12.4-3.81-18.59c-0.62-2.92-1.26-5.85-2.08-8.72c-0.72-2.5-1.78-2.76-3.86-1.22
			c-0.24,0.18-0.48,0.36-0.73,0.53c-9.64,6.6-19.8,12.45-28.33,20.62c-5.07,4.85-10.53,9.29-15.7,14.04
			c-2.38,2.18-4.97,3.34-8.22,3.32c-2.01-0.01-4.03,0.23-6.02,0.55c-10.67,1.69-21.38,0.45-32.07,0.43
			c-3.72-0.01-7.46-0.29-11.17-0.06c-6.93,0.41-13.86,1-20.77,1.7c-6.98,0.71-14.03,1.18-20.86,2.62
			c-5.19,1.09-10.08,3.57-15.12,5.38c-0.58,0.21-1.33,0.31-1.88,0.12c-1.19-0.41-2.38-0.92-3.44-1.6
			c-11.63-7.46-24.1-13.2-37.01-18.05c-2.51-0.94-3.47-0.37-3.25,2.3c0.78,9.7-0.08,19.54,2.22,29.1c0.86,3.59,2.2,7.07,3.31,10.61
			c0.2,0.64,0.44,1.29,0.46,1.95c0.1,3.3,0.65,6.47-0.12,9.91c-2.06,9.25-2.16,18.73-1.52,28.15c0.55,8.08,2.67,15.76,7.3,22.57
			c3.24,4.76,6.61,9.44,9.67,14.31c2.54,4.05,5.26,7.84,9.72,9.9c2.49,1.15,5.09,2.08,7.64,3.1c7.96,3.19,16.28,5.03,24.74,5.99
			c7.41,0.84,14.88,1.26,22.33,1.6c2.12,0.1,2.71,1.13,3.11,2.73c0.6,2.38,0.97,4.84,1.76,7.15c0.75,2.18,1.78,4.5,4.53,4.66
			c1.82,0.11,3.86,0.04,5.49-0.66c6.3-2.71,11.66-6.74,15.25-12.7c1.3-2.16,3.01-3.07,5.33-3.5c7.14-1.3,14.1-3.27,20.83-6.04
			c2.53-1.04,5.09-1.98,7.85-3.04c0.26,1.67,0.37,3.09,0.73,4.44c0.29,1.12,0.58,2.48,1.36,3.18c3.34,2.98,6.64,6.1,10.38,8.5
			c3.49,2.25,7.58,3.52,11.26,5.49c2.6,1.39,5.07,3.07,7.39,4.9c1.65,1.29,1.72,3.45,0.57,5.25c-1.78,2.77-3.65,5.48-5.4,8.26
			c-5.51,8.75-13.34,14.24-23.36,16.54c-5.96,1.37-12.01,2.38-17.96,3.81c-4.35,1.05-8.65,2.36-12.86,3.85
			c-4.86,1.72-7.64,7.78-6.12,12.74c1.05,3.42,3.32,5.18,6.91,5.24c1.42,0.03,2.84-0.1,4.26-0.19c4.48-0.27,8.95-0.58,13.43-0.83
			c12.39-0.68,24.79-1.28,37.18-2.05c2.19-0.14,4.33-0.98,6.5-1.46c0.79-0.18,1.71-0.07,2.38-0.44c1.2-0.65,2.76-1.33,3.25-2.41
			c0.74-1.63,0.57-1.94,1.84-0.72c4.46,4.27,10.11,5.5,15.85,6.76c9.03,1.98,16.51-0.58,22.26-7.61c4.42-5.41,4.63-12.14,4.64-18.76
			c0.01-2.69-0.41-5.38-0.47-8.07c-0.12-5.31,0.67-10.33,5.41-13.72c9.56-6.84,20.15-10.89,31.89-12.04
			c8.41-0.82,16.75-0.06,25.08,0.76c3.89,0.38,7.85,0.97,11.11,3.67c1.77,1.47,2.03,1.94,0.24,3.38c-2.79,2.25-5.53,4.66-8.62,6.41
			c-4.2,2.38-8.54,4.76-13.13,6.11c-3.71,1.09-7.86,0.91-11.81,0.86c-4.57-0.06-7.69,1.85-9.67,5.85c-1.17,2.36-1.11,4.61,0.64,6.7
			c2.96,3.53,6.93,4.84,11.34,5.02c6.9,0.29,13.72-0.23,20.46-1.89c4.5-1.12,9.09-1.94,12.88-4.91c0.84-0.66,1.68-1.33,2.44-1.93
			c0.31,0.22,0.42,0.26,0.42,0.3c0.09,0.59,0.19,1.18,0.24,1.78c0.53,6.11,2.52,11.69,6.28,16.53c0.88,1.13,2.61,2.5,3.77,2.35
			c3.2-0.4,6.37-1.37,9.43-2.44c2.73-0.95,5.24-2.52,7.96-3.48c2.99-1.05,5.39-2.71,6.68-5.56c1.56-3.45,3.25-6.92,4.12-10.57
			c1.71-7.18,3.18-14.44,4.22-21.74c1.22-8.58,1.7-17.27,2.89-25.86c0.45-3.25,1.21-6.75,4.13-8.97c3.38-2.57,6.74-5.18,10.34-7.41
			c4.8-2.98,9.83-5.59,14.74-8.39c4.02-2.29,6.17-5.58,5.3-10.37c-0.84-4.63-1.65-9.26-2.61-13.87c-0.92-4.41-3.35-7.36-7.84-8.93
			c-8.59-3.01-12.4-1.87-18.11,4.02c-6.17,6.35-11.81,13.18-20.17,17.15c-6.11,2.91-12.17,5.63-18.81,6.96
			c-4.76,0.96-9.55,1.78-14.25,2.99c-8.14,2.11-16.39,2.37-24.73,2.08c-11.59-0.42-23.18-0.89-34.77-0.96
			c-9.79-0.06-19.58,0.51-29.37,0.61c-10.02,0.1-20.05-0.11-30.07-0.04C693.82,505.67,690.79,506.16,687.58,506.45z M759.87,459.19
			c1.88,0.51,2.57-0.15,2.73-1.64c0.85-8.25,1.65-16.5,2.58-24.74c1.09-9.64,2.06-19.3,3.52-28.89c1.3-8.54,3.15-17,4.81-25.49
			c1.01-5.19,2.29-10.33,3.13-15.54c0.53-3.31,0.3-6.74,0.74-10.07c1.12-8.52,2.47-17.02,3.66-25.53
			c1.6-11.48,3.09-22.98,4.74-34.46c0.84-5.84,2.17-11.63,2.85-17.48c0.64-5.56,0.68-11.2,1.08-16.79c0.13-1.76,0.66-3.49,0.81-5.25
			c0.05-0.58-0.51-1.22-0.8-1.83c-0.7,0.36-1.52,0.6-2.07,1.12c-0.37,0.35-0.43,1.1-0.49,1.69c-0.51,5.27-0.99,10.55-1.46,15.82
			c-0.27,3.04-0.34,6.12-0.82,9.13c-0.74,4.65-1.95,9.22-2.63,13.88c-1.26,8.64-2.3,17.32-3.39,25.99
			c-1.2,9.5-2.33,19.01-3.56,28.51c-0.27,2.06-1.18,4.08-1.17,6.11c0.07,9.82-2.26,19.21-4.52,28.66
			c-1.56,6.53-2.79,13.15-3.84,19.78c-1,6.34-1.6,12.75-2.34,19.14c-0.63,5.42-1.22,10.85-1.78,16.28
			c-0.4,3.87-0.77,7.75-1.09,11.63C760.28,452.54,760.1,455.88,759.87,459.19z M810.99,470.99c0.22,0.21,0.43,0.43,0.65,0.64
			c0.79-0.78,1.96-1.43,2.3-2.37c1.12-3.17,2.19-6.39,2.8-9.68c0.8-4.32,0.81-8.8,1.76-13.08c1.13-5.06,2.39-10.04,2.1-15.27
			c-0.5-8.96,1.19-17.53,4.27-25.92c1.12-3.06,1.75-6.34,2.26-9.57c0.99-6.27,1.81-12.58,2.55-18.89c0.43-3.7,0.68-7.43,0.83-11.16
			c0.18-4.71,0.15-9.43,0.26-14.15c0.13-5.6,0.25-11.21,0.52-16.81c0.23-4.84,0.48-9.7,1.08-14.5c0.55-4.44,1.65-8.81,2.39-13.22
			c0.84-5.08,1.66-10.17,2.29-15.28c0.78-6.3,1.69-12.61,1.94-18.94c0.33-8.36,0.07-16.74,0.02-25.12c0-0.41-0.45-0.82-0.69-1.23
			c-0.46,0.49-1.25,0.92-1.34,1.47c-0.29,1.76-0.42,3.57-0.43,5.36c-0.06,9.2,0.28,18.41-0.22,27.58
			c-0.32,5.77-1.92,11.46-2.89,17.19c-1.01,5.96-1.93,11.94-2.95,17.91c-1.06,6.19-1.99,12.36-1.84,18.69
			c0.12,5.08-0.16,10.17-0.33,15.25c-0.12,3.51-0.43,7.02-0.53,10.53c-0.1,3.81,0.28,7.66-0.13,11.44
			c-0.65,6.02-2.06,11.95-2.63,17.97c-0.59,6.23-1.68,12.23-3.86,18.15c-1.58,4.3-2.54,8.94-3.06,13.5
			c-1.07,9.42-0.48,18.99-2.93,28.3c-0.89,3.37-0.78,6.98-1.45,10.42C813.02,463.81,811.92,467.38,810.99,470.99z M727.26,460.38
			c0.26-0.06,0.51-0.12,0.77-0.19c0.04-0.42,0.11-0.85,0.13-1.27c0.55-10.84,1.07-21.69,1.64-32.53c0.37-6.95,0.81-13.89,1.2-20.84
			c0.18-3.29,0.13-6.6,0.48-9.87c0.59-5.43,1.56-10.81,2.13-16.24c1.07-10.12,2.01-20.26,2.95-30.39c0.72-7.75,1.88-15.5,1.89-23.25
			c0.02-11.17-0.05-22.31,1.7-33.37c1.34-8.49,2.83-16.96,4.21-25.44c1-6.12,1.92-12.25,2.88-18.38c0.16-1.05,0.3-2.11,0.45-3.16
			c-0.22-0.1-0.45-0.21-0.67-0.31c-0.64,0.91-1.63,1.75-1.86,2.75c-0.76,3.35-1.32,6.75-1.82,10.16c-1,6.73-1.82,13.49-2.87,20.21
			c-1,6.35-2.74,12.62-3.21,18.99c-0.73,9.91-0.52,19.88-0.97,29.81c-0.29,6.5-0.96,12.98-1.6,19.45
			c-0.92,9.22-1.98,18.43-2.95,27.65c-0.51,4.83-0.67,9.72-1.48,14.5c-1.17,6.95-1.84,13.9-2.06,20.94
			c-0.27,8.52-0.97,17.03-1.33,25.55c-0.31,7.25-0.47,14.5-0.57,21.75C726.27,458.06,726.92,459.22,727.26,460.38z M678.65,320.17
			c-0.31,16.92-0.63,34.15-0.94,51.39c0.25,0.15,0.51,0.3,0.76,0.45c0.55-0.63,1.48-1.21,1.56-1.9c0.28-2.33,0.32-4.71,0.35-7.06
			c0.06-4.79-0.01-9.59,0.1-14.38c0.17-7.33,0.37-14.66,0.72-21.98c0.41-8.51,1.15-17,1.47-25.51c0.3-7.84,0.49-15.7,0.24-23.54
			c-0.24-7.51-0.72-14.94,2.58-22c0.2-0.43-0.02-1.06-0.05-1.6c-0.24-0.1-0.49-0.2-0.73-0.3c-1.34,2.02-3.39,3.89-3.85,6.09
			c-0.79,3.82-0.73,7.85-0.77,11.8c-0.04,3.88,0.37,7.76,0.35,11.64c-0.05,8.14-0.21,16.28-0.42,24.42
			c-0.07,2.73-0.45,5.45-0.72,8.55c-0.7-0.61-1.07-1.06-1.55-1.33c-0.57-0.32-1.23-0.5-1.86-0.74c-0.07,0.73-0.44,1.64-0.14,2.16
			C676.55,317.68,677.63,318.85,678.65,320.17z M816.18,262.59c0.38-1.82,0.85-3.74,1.15-5.69c0.08-0.5-0.4-1.09-0.62-1.64
			c-0.64,0.36-1.5,0.57-1.88,1.11c-0.44,0.63-0.46,1.54-0.65,2.34c-0.93,4.01-2.61,5.76-5.54,5.57c-2.43-0.15-3.72-1.98-5-3.74
			c-0.62-0.86-1.23-1.72-1.97-2.75c-3.34,3.56,1.44,4.74,1.45,7.11c-6.76,1.85-7.75,2.34-10.43,5.1c-1.83,1.89-1.7,3.88,0.67,5.1
			c3.25,1.68,6.77,2.73,10.32,1.02c1.89-0.91,3.51-2.36,5.46-3.72c0.99,1.59,1.89,3.31,3.09,4.81c0.44,0.55,1.68,0.95,2.34,0.74
			c1.27-0.41,0.63-1.37,0.15-2.17c-0.86-1.4-1.6-2.88-2.54-4.23c-0.78-1.11-0.53-1.88,0.09-3.01c2.04-3.76,5.35-4.16,9.01-3.73
			c1.67,0.2,2.94,2.33,2.71,4.29c-0.28,2.39-1.17,3.2-3.31,3.2c-1.26,0-2.56,0.01-3.78,0.3c-1.88,0.46-2.09,1.38-0.83,2.89
			c2.1,2.51,4.8,2.81,7.19,0.63c1.06-0.96,1.89-1.04,2.87-0.04c0.31,0.32,0.63,0.81,1,0.87c0.67,0.1,1.37-0.07,2.06-0.12
			c-0.27-0.61-0.48-1.26-0.84-1.82c-0.18-0.28-0.6-0.46-0.94-0.57c-1.8-0.57-1.91-1.51-1.2-3.21c1.48-3.57-0.13-6.87-3.87-7.9
			C820.4,262.81,818.3,262.83,816.18,262.59z M717.38,246.27c-0.43-0.13-0.86-0.26-1.3-0.39c-0.41,0.88-1.07,1.72-1.2,2.64
			c-0.85,5.98-1.49,12-2.39,17.97c-0.87,5.76-1.98,11.48-2.96,17.21c-1.16,6.76-2.41,13.51-3.4,20.29c-0.51,3.47-0.52,7-0.77,10.51
			c-0.99,13.86-1.96,27.72-2.99,41.58c-0.23,3.15-0.76,6.27-0.96,9.42c-0.05,0.81,0.6,1.67,0.93,2.5c0.49-0.66,1.08-1.27,1.44-1.99
			c0.25-0.51,0.24-1.17,0.28-1.76c0.52-7.68,1.01-15.37,1.55-23.05c0.62-8.88,1.29-17.75,1.94-26.62c0.35-4.78,0.48-9.59,1.15-14.32
			c0.9-6.28,2.27-12.49,3.39-18.74c1.54-8.6,3.12-17.2,4.52-25.82C717.12,252.62,717.14,249.43,717.38,246.27z M668.21,368.64
			c-0.23-0.17-0.46-0.33-0.69-0.5c0.07-1.31-0.02-2.65,0.25-3.92c0.48-2.25,1.22-4.45,1.73-6.69c0.13-0.57-0.16-1.24-0.26-1.87
			c-0.57,0.2-1.17,0.32-1.69,0.61c-3.59,2-7.16,4.03-10.74,6.05c-0.17-0.19-0.34-0.38-0.51-0.57c0.46-0.8,0.86-1.64,1.39-2.38
			c1.23-1.7,2.59-3.3,3.75-5.04c0.34-0.5,0.16-1.35,0.22-2.03c-0.62-0.04-1.26-0.19-1.85-0.08c-1.13,0.21-2.24,0.57-3.2,0.82
			c-0.56-1.16-1-2.08-1.66-3.46c-1.05,1.93-1.51,3.57-2.59,4.54c-1.23,1.1-3,1.59-4.53,2.36c-0.13,0.06-0.28,0.18-0.32,0.3
			c-0.26,0.68-0.49,1.38-0.73,2.07c0.69-0.01,1.45,0.16,2.07-0.06c1.44-0.52,2.8-1.23,4.38-1.94c0.4,2.37,0.33,4.22-1.17,5.79
			c-1.29,1.35-2.6,2.69-3.82,4.11c-1.07,1.24-2.01,2.59-3.26,4.21c3.97,1.02,5.16-2.55,7.73-3.25c0,1.64-0.12,3.21,0.05,4.74
			c0.08,0.71,0.71,1.37,1.08,2.05c0.65-0.62,1.58-1.13,1.88-1.89c0.33-0.84-0.02-1.93,0.12-2.88c0.21-1.45,0.09-3.5,0.98-4.19
			c2.62-2.04,5.67-3.53,9.01-5.5c-0.2,1.04-0.29,1.39-0.33,1.75c-0.24,2.6-0.6,5.2-0.63,7.8c-0.02,1.52,0.77,2.69,2.62,1.71
			c1.96-1.03,3.97-2.01,5.83-3.21c0.67-0.44,0.97-1.45,1.44-2.2c-0.16-0.17-0.33-0.33-0.49-0.5
			C672.24,366.46,670.23,367.55,668.21,368.64z M720.62,293.03c-0.19,2.56-0.3,4.69-0.51,6.81c-0.38,3.79-0.45,3.59-3.95,4.43
			c-1.2,0.29-2.74,1.69-2.96,2.81c-0.22,1.14,0.67,3.06,1.68,3.71c0.81,0.52,2.54-0.26,3.81-0.64c0.5-0.15,0.95-0.74,1.27-1.23
			c0.84-1.3,1.95-1.37,3.3-0.99c2.15,0.6,4.3,1.31,6.5,1.57c0.94,0.11,2-0.79,3.01-1.23c-0.71-0.58-1.33-1.46-2.13-1.7
			c-2.14-0.63-4.35-1.09-6.56-1.43c-1.71-0.26-2.02-1.09-1.74-2.65c0.4-2.19,0.75-4.42,0.85-6.64c0.09-2.06-0.54-4.39,2.87-3.97
			c0.25,0.03,0.6-0.18,0.79-0.38c0.33-0.36,0.87-0.97,0.76-1.19c-0.21-0.44-0.78-0.81-1.28-0.97c-0.47-0.15-1.05-0.05-1.55,0.05
			c-1.47,0.29-1.89-0.52-1.88-1.74c0.01-1.53,0.36-2.66,2.25-2.95c1.32-0.2,3.04-0.23,3.59-2.26c-0.51-0.14-0.92-0.32-1.33-0.35
			c-1.76-0.14-3.75,0.82-5.1-1.21c-0.06-0.1-1.11,0.17-1.27,0.49c-0.74,1.43-2,1.31-3.27,1.34c-0.89,0.02-1.85,0.04-2.64,0.39
			c-0.57,0.25-0.9,1.02-1.34,1.56c0.57,0.33,1.11,0.86,1.71,0.94c0.87,0.12,1.79-0.02,2.67-0.18c1.84-0.33,2.46,0.19,2.37,2.23
			c-0.09,2.06-0.77,2.99-2.79,3.22c-1.01,0.12-2.07,0.51-2.91,1.07c-0.7,0.47-1.11,1.38-1.64,2.09c0.17,0.17,0.33,0.34,0.5,0.51
			C715.75,294.08,717.82,293.63,720.62,293.03z M804.54,381.71c0.22,0.2,0.44,0.4,0.67,0.6c0.61-0.3,1.55-0.44,1.77-0.92
			c1.59-3.5,3.66-6.94,4.36-10.63c0.92-4.87,0.24-7.8-4.16-9.36c-3.98-1.41-8.1-0.75-12.14-0.07c-0.65,0.11-1.38,0.72-1.76,1.3
			c-1.6,2.41-3.29,4.8-4.58,7.38c-1.72,3.44-0.74,6.89,0.87,10.08c1.01,2,2.93,2.73,5.14,2.26c2.89-0.62,4.59-2.54,5.62-5.24
			c1.74-4.58,1.36-9.2,0.35-14.12c1.26,0,2.45-0.04,3.63,0.01c2.33,0.1,3.71,1.17,4,3.44c0.52,3.97-0.53,7.68-2.18,11.26
			C805.53,379,805.07,380.37,804.54,381.71z M865.58,284.63c-2.28,0.68-2.89,3-2.02,5.66c0.97,2.96,1.67,6.02,2.31,9.07
			c0.1,0.49-0.62,1.27-1.13,1.72c-0.34,0.3-1.01,0.18-1.5,0.35c-2.37,0.79-3.41,2.2-3.2,4.26c0.18,1.8,2.2,3.74,4.08,3.92
			c2.27,0.22,3.67-0.83,4.36-3.27c0.28-0.99,0.56-1.98,0.76-2.71c5.77-1.01,11.43,0.87,16.98-1.18c-1.21-0.79-2.47-1.29-3.75-1.33
			c-3.8-0.13-7.61-0.04-11.42-0.14c-0.65-0.02-1.75-0.4-1.85-0.81c-0.65-2.72-1.09-5.5-1.63-8.43c4.4-1.06,8.79-2.15,13.19-3.15
			c1.67-0.38,3.33-0.63,4.35-2.84c-1.07-0.06-1.93-0.29-2.7-0.12c-3.94,0.85-7.88,1.7-11.77,2.74
			C865.86,289.67,865.88,289.75,865.58,284.63z M805.85,322.86c-0.77-1.24-1.3-2.09-1.83-2.93c-0.66,0.79-1.28,1.63-2.01,2.35
			c-0.7,0.69-1.43,1.45-2.3,1.81c-1.56,0.66-3.28,0.95-4.85,1.6c-0.51,0.21-0.74,1.09-1.09,1.67c0.66,0.2,1.35,0.64,1.97,0.56
			c1.35-0.17,2.66-0.6,4.39-1.02c-0.44,1.08-0.7,1.68-0.94,2.29c-1.15,2.96-2.34,5.91-3.43,8.89c-0.57,1.56,0.29,2.09,1.71,1.92
			c0.57-0.07,1.13-0.36,1.68-0.58c2.97-1.19,5.93-2.4,8.91-3.57c1.15-0.45,2.48-0.51,2.7,0.96c0.4,2.61,1.2,5.28-0.42,7.86
			c-0.71,1.13-1.13,2.46-1.67,3.69c0.22,0.1,0.43,0.21,0.65,0.31c2.51-2.51,5.31-4.76,5.13-8.99c-0.27-6.19-2.28-7.56-8.09-5.38
			c-2.05,0.77-4.2,1.28-6.31,1.9c-0.16-0.15-0.32-0.3-0.48-0.45c1.57-3.17,2.68-6.73,4.9-9.34c1.17-1.38,4.29-1.09,6.53-1.56
			c0.07-0.02,0.17,0.01,0.22-0.03c0.66-0.56,1.31-1.13,1.97-1.7c-0.7-0.24-1.41-0.71-2.11-0.69
			C809.19,322.49,807.28,322.74,805.85,322.86z M689.28,284.71c0.22,0.2,0.44,0.4,0.67,0.6c0.86-0.46,2.04-0.69,2.54-1.4
			c5.87-8.23,11.74-16.5,9.44-27.44c1.25-0.44,2.25-0.62,3.03-1.14c0.5-0.34,0.67-1.18,0.98-1.79c-0.6-0.14-1.22-0.44-1.81-0.39
			c-0.88,0.08-1.73,0.41-2.28,0.55c-0.92-0.56-2.02-1.49-2.22-1.32c-0.75,0.62-1.2,1.6-1.92,2.68c-2.4,0.58-5.43,0.7-7.59,3.74
			c3.32,1.09,5.87-0.97,8.94-1.45c0.27,2.13,0.52,4.14,0.81,6.5c-2.66-1.08-4.31-0.02-5.59,1.68c-0.79,1.05-1.41,2.27-1.88,3.5
			c-1.59,4.16-0.89,5.11,3.69,4.84c-1.57,3.34-3.11,6.5-5.72,9.05C689.88,283.37,689.63,284.1,689.28,284.71z M659.81,270.88
			c0.35,0.25,0.69,0.49,1.04,0.74c0.67-0.78,1.38-1.53,2.01-2.35c1.19-1.54,2.28-3.16,3.53-4.64c0.42-0.49,1.19-0.89,1.84-0.95
			c2.67-0.24,4.12,1.87,2.9,4.93c-1.48,3.69-3.5,7.16-5.29,10.73c-0.27-0.05-0.53-0.09-0.8-0.14c-0.27-2.06-0.53-4.13-0.8-6.19
			c-0.28,0.02-0.56,0.04-0.85,0.07c0,2.78-0.07,5.56,0.05,8.34c0.03,0.62,0.73,1.21,1.13,1.82c0.58-0.38,1.37-0.63,1.69-1.17
			c2.34-3.98,4.58-8.03,6.88-12.04c0.3-0.51,0.84-1.3,1.22-1.28c1.98,0.12,2.97-0.55,2.89-2.65c-0.01-0.36,0.53-0.87,0.93-1.09
			c1.48-0.82,1.36-2.17,0.79-3.25c-0.25-0.47-1.61-0.58-2.43-0.49c-1.26,0.14-2.52,0.9-3.73,0.8c-1.23-0.1-2.4-0.92-3.66-1.46
			c0.2-0.56,0.47-1.1,0.57-1.68c0.08-0.45-0.06-0.93-0.1-1.4c-0.45,0.15-1.13,0.16-1.31,0.46c-1.31,2.21-3.2,3.43-5.69,3.95
			c-0.83,0.18-1.72,0.7-2.3,1.33c-0.48,0.52-0.55,1.41-0.92,2.49c1.59-0.4,2.47-0.62,3.38-0.84
			C661.74,267.05,660.77,268.97,659.81,270.88z M718.01,361.51c2.7,0.32,5.4,0.6,8.08,0.98c1.12,0.16,2.32,0.36,2.35-1.1
			c0.01-0.54-1.11-1.52-1.81-1.6c-2.14-0.27-4.32-0.17-6.48-0.27c-1.92-0.08-3.05-1.34-2.41-3.04c0.28-0.75,1.49-1.26,2.37-1.66
			c1.56-0.7,3.51-0.84,3.95-3.74c-2.39,0.87-4.4,1.6-6.38,2.32c-0.85-1.71-0.85-1.71,3.78-5.62c-1.39-0.15-2.38-0.53-3.18-0.29
			c-1.09,0.32-1.9,0.62-2.79-0.41c-0.19-0.22-1.61,0.21-1.6,0.28c0.18,2.63-1.89,2.73-3.56,3.36c-0.51,0.19-0.84,0.84-1.26,1.28
			c0.09,0.22,0.19,0.43,0.28,0.65c1.58-0.24,3.16-0.48,4.53-0.69c1.34,2.43,0.04,3.29-1.77,3.99c-1.04,0.4-2.04,0.95-2.95,1.59
			c-0.45,0.31-0.65,0.98-0.96,1.49c0.59,0.04,1.25,0.25,1.77,0.07c1.66-0.58,3.27-1.31,4.89-1.98c0.7,1.51,0.17,2.19-0.98,3.06
			c-1.5,1.13-2.76,2.66-3.87,4.2c-0.84,1.17-0.23,2.04,1.15,2.49C714.79,368.08,717.68,366.08,718.01,361.51z M798.18,298.52
			c-0.37,0.79-0.68,1.6-1.11,2.33c-2.22,3.8-4.53,7.56-6.66,11.42c-0.35,0.63,0.1,1.69,0.17,2.56c0.71-0.33,1.74-0.46,2.1-1.01
			c3.11-4.82,6.07-9.74,9.15-14.59c0.52-0.82,1.26-1.84,2.08-2.06c3.24-0.84,6.55-1.4,9.84-2.05c1.25-0.25,2.52-0.45,3.78-0.67
			c-0.02-0.34-0.04-0.68-0.06-1.02c-3.99-2.48-8.18,1.24-12.39,0.22c0.34-0.78,0.71-1.43,0.89-2.13c0.18-0.67,0.15-1.39,0.22-2.09
			c-0.95,0.15-1.97,0.14-2.81,0.53c-0.5,0.23-0.64,1.15-1.07,1.66c-1.07,1.29-2.01,2.87-3.38,3.68c-1.69,0.99-3.8,1.25-5.68,1.97
			c-0.92,0.35-1.71,1.04-2.56,1.57c0.12,0.3,0.25,0.59,0.37,0.89C793.39,299.35,795.72,298.94,798.18,298.52z M857.14,351.96
			c-0.18,0.28-0.35,0.56-0.53,0.84c0.55,0.68,1.03,1.42,1.66,2.02c2.54,2.42,4.56,5.06,5.14,8.69c0.64,3.98,0.13,5.36-3.36,7.39
			c-0.58,0.34-1.26,0.56-1.74,1c-0.38,0.35-0.72,0.95-0.72,1.43c0,0.26,0.81,0.81,1.16,0.74c1.39-0.28,3.16-0.34,4.02-1.23
			c3.45-3.58,7.5-4.57,12.26-3.94c1.98,0.26,4.02,0.08,6.03-0.02c0.44-0.02,0.86-0.54,1.28-0.83c-0.41-0.29-0.83-0.85-1.23-0.84
			c-4.86,0.19-9.76-1.69-14.22,0.41c-0.72-3.65-1.39-7.08-2.11-10.72c0.25-0.07,0.79-0.28,1.36-0.4c3.05-0.65,6.12-1.2,9.13-1.98
			c0.71-0.18,1.23-1.1,1.84-1.68c-0.85-0.23-1.75-0.77-2.54-0.65c-3.76,0.59-7.53,1.21-11.22,2.13c-1.54,0.39-2.29-0.21-3.32-1.02
			C859.23,352.66,858.12,352.39,857.14,351.96z M799.66,441.48c-1.33,1-2.25,1.69-3.18,2.38c-1.08,0.8-2.09,1.72-3.27,2.33
			c-1.34,0.7-2.48,0.59-2.51-1.4c-0.02-1.42-0.29-2.83-0.26-4.25c0.04-1.83-0.51-2.92-2.55-2.75c-0.33,0.03-0.68-0.09-1.28-0.18
			c1.81-2.18,3.44-4.15,5.08-6.12c0.85-1.03,1.2-2.06-0.12-3.35c-1,0.85-2.13,1.59-2.97,2.57c-4.54,5.32-9,10.71-13.52,16.06
			c-0.77,0.91-1.7,1.68-2.43,2.62c-0.3,0.39-0.26,1.05-0.37,1.59c0.54,0.02,1.24,0.28,1.59,0.03c1.15-0.81,2.23-1.74,3.24-2.72
			c2.52-2.44,4.94-4.98,7.5-7.37c0.58-0.54,1.57-0.63,2.67-1.03c0.05,2.7-1.74,4.65,0.37,7.06c1.3,1.49,1.96,2.58,3.93,1.92
			c1.47-0.5,3.11-0.82,4.32-1.71C797.6,445.93,799.71,444.75,799.66,441.48z M771.7,270.95c-1.62-1.4-1.93-1.47-3.66-0.7
			c-2.39,1.06-4.73,2.22-7.13,3.23c-2.32,0.98-3.58,0.04-3.42-2.5c0.05-0.81,0.21-1.64,0.49-2.4c1.65-4.45,3.98-8.47,7.28-11.94
			c0.83-0.87,2.96-1.95,1.5-3.31c-1.36-1.27-2.65,0.51-3.59,1.6c-2.13,2.45-4.17,4.98-6.42,7.68c-0.19-0.3-0.34-0.56-0.51-0.79
			c-0.53-0.71-1.08-1.41-1.62-2.13c-1.74-2.34-2.27-2.42-4.77-0.52c0.76,1,1.38,2.15,2.29,2.98c2.46,2.27,2.92,4.96,2.31,8.11
			c-0.8,4.13,1.68,6.59,5.75,5.56c2.57-0.65,5.02-1.85,7.49-2.88C769.01,272.39,770.26,271.67,771.7,270.95z M883.98,179.33
			c-0.44,0.09-0.88,0.19-1.32,0.28c0.11,0.81,0.18,1.63,0.34,2.44c0.12,0.58,0.49,1.11,0.55,1.69c0.49,4.3,1.2,8.59,1.3,12.9
			c0.1,3.97-0.4,7.88-1.95,11.75c-1.82,4.53-2.82,9.4-4.07,14.14c-0.15,0.57,0.34,1.31,0.54,1.97c0.55-0.43,1.12-0.82,1.62-1.3
			c0.19-0.18,0.19-0.56,0.28-0.84c1.31-4.27,2.5-8.59,3.98-12.8c1.46-4.17,3.08-8.25,2.5-12.81c-0.37-2.88-0.44-5.82-1.06-8.65
			C886.05,185.12,884.91,182.25,883.98,179.33z M752.28,427.52c-0.4,2.12-0.67,3.93-1.13,5.71c-0.09,0.37-0.83,0.75-1.31,0.81
			c-4.05,0.53-5.67,4.06-3.42,7.55c0.92,1.43,2.04,1.57,2.99,0.18c0.91-1.33,1.56-2.84,2.51-4.62c1.96,0.98,3.96,1.91,5.89,2.97
			c0.97,0.54,1.97,0.92,2.38-0.31c0.19-0.58-0.39-1.81-0.97-2.18c-1.62-1.04-3.47-1.71-5.15-2.68c-0.48-0.28-0.97-1.13-0.9-1.63
			c0.3-2.05,0.81-4.07,1.26-6.2c0.61-0.06,1.24-0.01,1.77-0.21c0.96-0.36,1.86-0.88,2.78-1.33c-0.89-0.3-1.78-0.88-2.66-0.85
			c-1.56,0.04-2.17-0.42-2.12-2.03c0.02-0.81-0.45-1.64-0.7-2.46c-0.29,0.04-0.58,0.08-0.87,0.12c-0.08,0.97-0.27,1.96-0.2,2.92
			c0.09,1.35-0.26,1.89-1.74,1.81c-1.16-0.06-2.39,0.19-3.5,0.56c-0.46,0.15-0.69,0.99-1.02,1.52c0.52,0.28,1.04,0.79,1.56,0.79
			C749.06,427.95,750.4,427.72,752.28,427.52z M667.27,337.13c0.57,0.37,1.31,0.97,2.15,1.38c0.75,0.36,1.82,0.93,2.35,0.65
			c0.74-0.38,1.11-1.48,1.63-2.26c-1.8-0.99-3.14-1.77-4.52-2.47c-2.23-1.14-1.28-3.15-1.16-4.78c0.04-0.56,1.38-1.15,2.22-1.48
			c1.03-0.41,2.22-0.41,3.22-0.87c0.51-0.23,0.72-1.09,1.07-1.67c-0.55-0.21-1.13-0.66-1.65-0.6c-1.46,0.15-2.9,0.51-4.07,0.72
			c-0.65-0.92-1.19-1.69-1.73-2.46c-0.47,1.02-0.94,2.03-1.46,3.16c-1.43,0.25-3.05,0.53-4.87,0.84c1.39,2.78,3.39,1.71,4.99,1.79
			c0.23,3.07,0.18,3.18-2.07,4.92c-2.58,1.99-2.69,7.06,0.25,9.63C664.8,341.52,665.93,339.51,667.27,337.13z M741.98,404.98
			c0.28,0.17,0.56,0.33,0.84,0.5c2.09-2.93,4.19-5.87,6.28-8.8c1.54,5.13,1.4,9.86-1.24,14.8c-0.61-1.73-1.07-3.01-1.53-4.3
			c-0.52,1.72-0.65,3.44-0.46,5.12c0.09,0.83,0.79,1.58,1.22,2.37c0.71-0.58,1.67-1.03,2.1-1.78c2.16-3.73,3.78-7.66,3.34-12.11
			c-0.32-3.22-0.81-6.42-1.23-9.68c-0.02-0.01-0.18-0.12-0.29-0.08c-0.27,0.1-0.67,0.2-0.75,0.41c-1.14,2.82-3.86,3.47-6.22,4.64
			c-1.53,0.77-3.05,1.59-4.45,2.57c-0.53,0.37-0.71,1.24-1.04,1.89c0.68-0.09,1.43-0.04,2.03-0.31c1.69-0.77,3.32-1.67,4.97-2.51
			C744.47,400.37,742.31,402.24,741.98,404.98z M660.16,305.42c3.38,4.2,5.95,3.71,11.67,0.61c1.3-0.7,3.63-1.54,2.94-4.11
			c-1.93,1.04-3.6,1.98-5.3,2.84c-2.06,1.05-4.12,1.04-5.76-0.73c-1.69-1.82-1.82-3.92-0.75-6.22c0.91-1.95,1.66-4,2.27-6.07
			c0.21-0.71-0.19-1.59-0.31-2.4c-0.58,0.56-1.39,1.01-1.7,1.7c-2.74,6.13-5.43,12.28-8.04,18.46c-0.28,0.66-0.01,1.56,0,2.35
			c0.78-0.42,1.86-0.64,2.3-1.29C658.49,309.02,659.21,307.28,660.16,305.42z M741.98,185.24c2.9,3.25,3.47,4.34,4.06,8.06
			c0.19,1.18,0.09,2.4,0.27,3.58c1.05,6.87,0.11,13.53-2.04,20.08c-0.43,1.31-0.55,2.72-0.81,4.08c0.28,0.09,0.56,0.18,0.84,0.27
			c0.61-0.88,1.36-1.7,1.81-2.66c3.75-8.09,3.98-16.59,2.69-25.2c-0.3-2.03-0.94-4.07-1.76-5.95
			C746.17,185.49,744.6,184.31,741.98,185.24z M752.03,347.45c-1.09,3.82,0.54,6.51,1.32,9.32c0.05,0.17,1.13,0.33,1.45,0.1
			c0.58-0.42,1.1-1.07,1.36-1.73c1.91-4.81,3.35-9.76,2.98-15c-0.06-0.82-0.88-2.06-1.58-2.26c-1.3-0.36-2.88-0.43-4.14-0.01
			c-1.33,0.44-2.43,1.6-3.63,2.44c-1.39,0.97-3.14,1.59-3.3,3.95c1.2-0.51,2.39-1.03,3.88-1.67c-1.24,2.39-2.33,4.51-3.42,6.62
			c0.24,0.2,0.49,0.39,0.73,0.59c0.71-0.71,1.58-1.32,2.09-2.15c1.29-2.09,2.32-4.34,3.67-6.39c0.38-0.58,1.47-0.87,2.26-0.91
			c0.34-0.02,1.02,0.93,1.04,1.46c0.13,3.9-0.63,7.66-1.92,11.3c-0.22,0.04-0.44,0.08-0.67,0.11
			C753.51,351.5,752.88,349.77,752.03,347.45z M784.51,407.91c0.21,1.86,1.18,1.62,2.54,1.23c1.82-0.52,3.73-1,5.59-0.98
			c2.62,0.04,3.34,1.7,2.36,4.16c-1.68,4.22-4.81,7.09-8.41,9.63c-1.24,0.88-2.21,2.14-3.31,3.22c0.18,0.29,0.35,0.58,0.53,0.87
			c1-0.23,2.12-0.24,2.96-0.73c4.85-2.79,8.6-6.79,10.92-11.81c1.79-3.88,1.16-6.45-3.91-7.28
			C790.5,405.69,787.43,406.27,784.51,407.91z M859.08,252.32c-1.7,0.55-1.99,1.93-2.16,3.34c-0.52,4.13-1.23,8.25-1.43,12.39
			c-0.15,3.17,0.25,6.39,0.61,9.57c0.18,1.57,2.14,2.59,3.14,1.65c2.18-2.02,4.14-4.29,6.19-6.46c-0.12-0.21-0.23-0.42-0.35-0.63
			c-1.13,0.34-2.32,0.53-3.36,1.05c-1.15,0.57-2.14,1.44-3.21,2.17c-0.26-0.09-0.53-0.17-0.79-0.26
			C858.16,267.61,858.61,260.08,859.08,252.32z M726.71,248.11c-0.2-0.09-0.41-0.17-0.61-0.26c-0.23,0.18-0.5,0.32-0.68,0.53
			c-4.76,5.64-8.03,11.86-7.43,19.55c0.19,2.39,2.39,3.95,4.79,3.03c2.14-0.82,4.27-1.88,6.08-3.27c1.49-1.15,2.49-2.93,3.7-4.43
			c-0.25-0.24-0.49-0.49-0.74-0.73c-0.88,0.69-1.7,1.47-2.64,2.04c-2.02,1.22-4.06,2.44-6.2,3.43c-1.34,0.62-2.5,0.03-2.37-1.6
			c0.21-2.58,0.23-5.29,1.08-7.68c1.1-3.06,2.96-5.84,4.44-8.76C726.43,249.39,726.53,248.73,726.71,248.11z M560.99,201.87
			c-0.26,0.18-0.53,0.36-0.79,0.54c0.56,1.17,1.23,2.3,1.65,3.51c2.65,7.77,2.27,15.55,0.02,23.34c-0.42,1.45-0.42,3.02-0.62,4.54
			c0.25,0.12,0.5,0.24,0.75,0.36c0.68-0.94,1.67-1.79,1.97-2.83c0.95-3.34,1.85-6.72,2.37-10.15c0.9-5.86-0.39-11.45-2.91-16.74
			C562.95,203.44,561.82,202.73,560.99,201.87z M892.91,218.48c0.26,0.05,0.51,0.11,0.77,0.16c0.4-0.93,0.88-1.83,1.19-2.78
			c0.98-3.05,1.92-6.12,2.83-9.2c0.27-0.92,0.6-1.91,0.52-2.84c-0.46-5.5-0.99-10.99-1.63-16.47c-0.1-0.9-0.86-1.71-1.32-2.57
			c-0.29,0.11-0.58,0.21-0.87,0.32c0.31,4.65,0.53,9.3,0.97,13.94c0.35,3.67,0.31,7.15-1.26,10.66
			C892.9,212.43,892.41,215.47,892.91,218.48z M845.64,445.6c-0.18-4.92-0.37-9.69-0.53-14.45c-0.03-0.97,0.14-1.98-0.08-2.9
			c-0.11-0.46-0.89-0.76-1.37-1.14c-0.32,0.43-0.82,0.83-0.91,1.31c-0.18,0.94-0.19,1.93-0.16,2.9c0.18,5.12,0.37,10.25,0.67,15.36
			c0.03,0.5,0.76,1.16,1.32,1.39c2,0.84,4.48-0.22,6.96-3.24C849.4,445.11,847.85,445.31,845.64,445.6z M758.2,212.89
			c0.61-0.44,1.46-0.75,1.79-1.34c1.22-2.2,2.45-4.42,3.33-6.76c1.72-4.59,1.53-9.45,1.24-14.21c-0.14-2.27-1.14-4.55-2.08-6.68
			c-0.6-1.37-1.84-1.58-2.64-0.53C764.39,193.68,762.92,203.18,758.2,212.89z M848.23,392.75c-0.06,0.25-0.12,0.5-0.17,0.75
			c0.98,0.28,2.03,0.94,2.93,0.77c5.12-0.94,10.21-2.08,15.31-3.14c0.51-0.11,1.31-0.43,1.49-0.23c1.6,1.77,2.85,0.04,4.11-0.45
			c0.65-0.25,1-1.25,1.49-1.91c-0.7-0.23-1.45-0.77-2.1-0.66c-4.99,0.84-9.98,1.74-14.94,2.76
			C853.62,391.21,850.94,392.04,848.23,392.75z M585.28,228.04c0.31,0.13,0.61,0.26,0.92,0.39c0.94-1.86,2.59-3.69,2.7-5.6
			c0.34-5.85,0.11-11.74,0.05-17.61c-0.01-0.59-0.41-1.18-0.63-1.77c-0.24-0.01-0.48-0.02-0.72-0.03c-0.25,0.99-0.67,1.98-0.73,2.98
			c-0.35,6.18-0.59,12.36-0.93,18.54C585.89,225.98,585.51,227,585.28,228.04z M861.68,338.25c-0.06-0.24-0.12-0.47-0.17-0.71
			c-2.02,0.3-4.05,0.54-6.05,0.92c-1.33,0.25-2.04-0.27-2.26-1.49c-0.45-2.49-0.78-5.01-1.24-7.5c-0.23-1.22,0.82-3.42-1.37-3.35
			c-2.44,0.08-1.24,2.32-1.16,3.57c0.19,2.87,0.45,5.79,1.22,8.54c0.31,1.1,2,2.48,3.12,2.55
			C856.61,340.94,859.37,340.05,861.68,338.25z M651.48,338.61c0.2-2.94,0.32-5.38,0.53-7.82c0.21-2.44,0.5-4.87,0.79-7.59
			c-3.58,1.66-5.17,14.34-2.88,18.97c2.72-0.59,4.73-2.89,4.77-5.56C653.75,337.19,652.88,337.73,651.48,338.61z M698.22,290.85
			c-2.75,0.22-3.72,2.67-4.96,4.75c-0.95,1.58,0.22,2.44,1.36,3.25c0.22,0.15,0.28,0.51,0.43,0.77c0.95,1.62,2.41,2.06,3.88,0.96
			c1-0.75,1.97-1.69,2.6-2.75C703.13,295.1,701.17,290.85,698.22,290.85z M850.2,410.62c0.8,0.34,1.31,0.74,1.82,0.74
			c2.91-0.02,5.89,0.24,8.71-0.3c4.3-0.82,8.5-2.16,12.7-3.42c0.76-0.23,1.32-1.13,2.32-2.05c-1.08-0.28-1.49-0.54-1.77-0.44
			c-7.34,2.63-14.88,4.26-22.68,4.7C851.02,409.85,850.75,410.22,850.2,410.62z M756.34,324.36c0.33,0.2,0.67,0.4,1,0.6
			c1.11-1.75,2.3-3.46,3.31-5.26c1.76-3.15,3.08-6.46,3.11-10.16c0.01-1.52-0.66-2.4-2.09-2.21c-1.4,0.19-2.94,0.55-4.06,1.34
			c-2.04,1.44-3.86,3.22-4.44,5.85c0.69-0.25,1.17-0.68,1.63-1.12c1.19-1.13,2.28-2.39,3.59-3.35c0.61-0.45,1.76-0.61,2.44-0.34
			c0.42,0.17,0.72,1.47,0.56,2.13c-0.49,1.94-1.15,3.86-1.92,5.71C758.51,319.85,757.39,322.09,756.34,324.36z M711.52,343.03
			c0.24,0.23,0.48,0.46,0.72,0.69c0.63-0.57,1.55-1.01,1.85-1.72c1.57-3.69,3.36-7.36,4.32-11.22c0.66-2.66,0.18-5.64,0-8.46
			c-0.03-0.54-1.02-1.02-1.56-1.53c-0.31,0.72-0.97,1.5-0.87,2.15c0.96,6.16-0.28,11.9-3.11,17.36
			C712.41,341.2,711.97,342.12,711.52,343.03z M736.64,438.94c0-2.77-0.13-5.14,0.04-7.49c0.17-2.37,0.65-4.71,0.99-7.06
			c-0.3-0.12-0.59-0.25-0.89-0.37c-0.54,1-1.46,1.97-1.56,3.01c-0.44,4.75-0.66,9.52-0.91,14.29c-0.02,0.44,0.27,1.23,0.51,1.28
			c0.49,0.09,1.2-0.08,1.57-0.41c1.09-1.01,2.14-2.1,3.05-3.27c0.62-0.8,1-1.79,1.48-2.7c-0.2-0.15-0.41-0.3-0.61-0.44
			C739.22,436.71,738.12,437.66,736.64,438.94z M656.99,396.08c2.26-0.94,3.21-2.1,2.72-4.18c-0.19-0.79-0.11-1.64-0.19-2.45
			c-0.31-2.89-0.58-5.79-1-8.66c-0.08-0.56-0.8-1.03-1.23-1.54c-0.47,0.68-1.29,1.34-1.34,2.05c-0.11,1.47,0.21,2.97,0.32,4.46
			C656.51,389.1,656.74,392.43,656.99,396.08z M887.33,264.53c1.96-1.01,1.85-1.92,0.65-3.41c-1.27-1.58-2.09-3.52-3.11-5.3
			c-0.66-1.16-1.21-2.42-2.05-3.43c-0.35-0.42-1.34-0.5-1.99-0.39c-0.33,0.05-0.84,0.96-0.73,1.32
			C881.37,257.81,883.78,261.56,887.33,264.53z M743.09,383.3c2.56-1.53,4.85-2.91,7.55-4.52c-2.63-1.46-3.87,0.92-5.71,0.83
			c-1.4-2.71-0.83-5.61-0.73-8.49c0.02-0.52-0.24-1.05-0.37-1.58c-0.51,0.33-1.34,0.57-1.48,1.02
			C741.1,374.73,741.12,378.86,743.09,383.3z M708.78,332.5c3.31-0.79,4.87-2.79,5.25-6.48c-0.98,0.49-1.73,0.87-2.63,1.31
			c-0.24-1.74-0.41-3.57-0.78-5.36c-0.1-0.51-0.68-1.07-1.19-1.29c-0.21-0.1-1.14,0.62-1.14,0.95
			C708.4,325.21,708.6,328.8,708.78,332.5z M816.8,303.31c0.14-0.24,0.28-0.49,0.43-0.73c-0.7-0.41-1.46-1.25-2.1-1.17
			c-3.6,0.48-7.17,1.16-10.74,1.84c-0.38,0.07-0.66,0.63-0.99,0.96c0.44,0.3,0.93,0.92,1.33,0.87
			C808.75,304.55,812.77,303.91,816.8,303.31z M872.62,435.99c0.82-1.05,2.11-2.13,1.92-2.54c-1-2.18-2.28-4.24-3.67-6.21
			c-0.3-0.43-1.41-0.28-2.15-0.4c0.04,0.69-0.13,1.48,0.15,2.05C869.91,431.03,871.08,433.1,872.62,435.99z M880.77,328.15
			c-1.79-2.36-3.41-4.61-5.18-6.74c-0.23-0.28-1.38-0.16-1.74,0.17c-0.28,0.26-0.18,1.25,0.09,1.72c1.09,1.93,2.24,3.83,3.51,5.64
			c0.35,0.49,1.21,0.86,1.83,0.84C879.68,329.77,880.06,328.96,880.77,328.15z M805.09,311.23c1.91,1.73,8.01,2.71,9.54,1.78
			c0.31-0.19,0.72-0.87,0.63-0.98c-0.32-0.43-0.81-0.98-1.27-1.02c-2.23-0.23-4.47-0.34-6.71-0.4
			C806.68,310.59,806.07,310.93,805.09,311.23z M792.37,392.49c-0.35,0.71-0.59,0.97-0.59,1.22c0.03,1.47,4.13,5.97,5.54,6.02
			c0.45,0.02,1.03-0.24,1.32-0.57c0.21-0.23,0.2-1-0.02-1.2C796.63,396.14,794.57,394.4,792.37,392.49z M732,246.11
			c-1.2,3.37-2.24,6.3-3.4,9.56C732.11,255.05,734.21,249.02,732,246.11z M762.87,373.79c-1.48-1.51-2.79-2.93-4.22-4.22
			c-0.19-0.17-1.12,0.21-1.47,0.57c-0.21,0.21-0.08,0.98,0.15,1.33c0.76,1.19,1.58,2.35,2.49,3.43c0.3,0.36,1.06,0.74,1.4,0.59
			C761.75,375.28,762.11,374.62,762.87,373.79z M759.43,297.43c1.35-1.27,1.36-2.33,0.23-3.44c-0.58-0.57-1.01-1.35-1.68-1.79
			c-0.61-0.4-1.43-0.47-2.16-0.68c-0.05,0.84-0.46,1.98-0.07,2.47C756.75,295.25,758.11,296.24,759.43,297.43z M762.46,340.36
			c0.48,1.25,0.75,2.36,1.33,3.27c0.33,0.52,1.16,0.73,1.76,1.08c0.35-0.78,1.05-1.59,0.98-2.33c-0.09-0.89-0.76-1.75-1.3-2.55
			c-0.36-0.52-0.94-0.89-1.42-1.33C763.36,339.11,762.91,339.73,762.46,340.36z M760.85,398.1c-0.54-1.47-0.83-2.64-1.41-3.65
			c-0.29-0.51-1.08-0.74-1.65-1.09c-0.31,0.66-0.93,1.35-0.87,1.98c0.09,0.99,0.55,1.98,1.02,2.89c0.31,0.61,0.91,1.09,1.37,1.62
			C759.85,399.24,760.38,398.63,760.85,398.1z M736.35,246.13c-2.48,1.39-2.35,3.04-2.22,4.57c0.04,0.48,0.79,1.26,1.21,1.25
			c0.48-0.01,1.34-0.71,1.36-1.14C736.77,249.43,736.52,248.02,736.35,246.13z M770.74,247.85c-0.7,1.06-1.4,1.7-1.28,2.02
			c0.39,1.05,1.09,1.98,1.67,2.96c0.44-0.48,1.31-1.06,1.22-1.42C772.1,250.35,771.47,249.39,770.74,247.85z M774.37,249.54
			c2.32-1.25,2.69-2.46,1.53-4.45C774.1,246.05,774.36,247.67,774.37,249.54z M673.85,320.39c0.33-0.06,0.65-0.11,0.98-0.17
			c0-0.76,0.27-1.71-0.08-2.24c-0.34-0.5-1.33-0.56-2.03-0.82c-0.14,0.21-0.29,0.41-0.43,0.62
			C672.81,318.65,673.33,319.52,673.85,320.39z"/>
		<path d="M908,153.9c-7.54-0.13-15.08-0.46-22.62-0.34c-7.16,0.11-14.31,0.74-21.47,1.06c-2.99,0.13-5.99,0.01-8.98,0.04
			c-0.55,0.01-1.1,0.22-1.65,0.33c0.15,0.54,0.23,1.11,0.45,1.62c1.63,3.83,5.16,5.73,8.32,7.94c3.89,2.72,6.4,6.11,6.57,11.04
			c0.21,6.4,0.9,12.81,0.74,19.19c-0.15,6.01-1.62,11.93-4.77,17.14c-1.35,2.24-3.43,4.14-5.49,5.83
			c-5.18,4.26-10.29,8.71-16.52,11.43c-2.16,0.94-4.52,1.5-6.83,2.03c-1.47,0.34-2.4,0.92-2.82,2.44c-2.26,8.2-2.17,6.55-9.76,7.98
			c-1.03,0.19-2.07,0.33-3.09,0.51c-4.53,0.8-7.16-0.87-7.73-5.4c-0.32-2.5-1.24-3.59-3.78-3.23c-0.73,0.1-1.49-0.13-2.24-0.14
			c-7.62-0.09-9.87-4.62-11.12-10.16c-2.11-9.39-1.33-18.88-0.28-28.37c0.68-6.21,0.68-12.5,1.28-18.72
			c0.76-7.99,1.68-16.01,7.93-22.35c-29.32-0.39-58.46,1.48-87.63,2.73c-0.07,0.25-0.15,0.51-0.22,0.76
			c1.24,1.64,2.27,3.5,3.76,4.88c8.55,7.93,11.8,18.36,13.67,29.31c0.77,4.52,0.84,9.23,0.67,13.83
			c-0.21,5.64-2.26,10.47-7.03,14.12c-2.86,2.19-5.38,5.01-7.48,7.96c-2.78,3.9-6.55,5.17-10.93,5.53
			c-1.04,0.08-2.09,0.21-3.14,0.19c-1.89-0.04-3.41,0.35-3.49,3.09c-0.73-0.6-1.2-0.91-1.55-1.31c-1.43-1.6-2.84-1.37-3.5,0.73
			c-0.58,1.84-0.92,3.76-1.35,5.64c-0.08,0.36-0.13,0.74-0.18,1.11c-0.45,3.84-1.79,6.71-6.36,6.89c-3.32,0.13-6.62,0.81-9.95,0.99
			c-1.78,0.09-2.67-1-2.87-2.97c-0.41-4.06-1.14-8.08-1.73-12.02c-2.68-0.6-5.62-1.13-8.47-1.94c-4.66-1.31-7.89-5.43-7.97-10.27
			c-0.08-5.31,0.17-10.62,0.09-15.93c-0.08-4.93-0.5-9.85-0.62-14.79c-0.11-4.64,0-9.29-0.04-13.93c-0.02-2.55-0.27-5.1-0.17-7.64
			c0.12-3.1,0.5-6.2,0.79-9.57c-5.05,0.29-10.18,0.51-15.28,0.91c-6.03,0.47-12.04,1.17-18.06,1.66
			c-9.31,0.75-18.63,1.64-27.96,2.06c-11.21,0.51-22.43,0.66-33.65,0.78c-2.15,0.02-3.18,0.65-4,2.61
			c-3.23,7.64-6.96,15.08-9.86,22.84c-1.78,4.77-2.8,9.93-3.44,15.01c-0.94,7.48-1.3,15.04-1.77,22.57
			c-0.45,7.39-0.4,14.83-1.19,22.18c-0.59,5.5-1.3,11.52-7.01,14.45c-3.6,1.85-7.67,2.84-11.6,4c-2.77,0.82-5.65,1.29-8.74,1.97
			c0.57,2.43,1.03,4.76,1.67,7.04c0.69,2.44,0.11,4.31-2.24,5.34c-2.11,0.92-4.27,1.79-6.49,2.34c-2.33,0.57-3.36-0.22-3.67-2.66
			c-0.4-3.17-0.81-6.37-0.74-9.55c0.05-2.24-1.13-2.69-2.75-2.94c-5.25-0.81-9.73-3.26-13.89-6.41c-4.21-3.19-6.69-7.48-7.39-12.65
			c-1.33-9.78-2.44-19.6-3.65-29.4c-1.14-9.18-2.33-18.35-3.45-27.54c-1.09-8.91,0.69-17.25,5.04-25.07c0.33-0.59,0.39-1.33,0.7-2.5
			c-6.61,0-12.79,0.04-18.96-0.03c-1.52-0.02-1.52-0.19-1.57-2.04c3.55,0,7.11,0.01,10.66,0c4.41-0.01,8.85,0.25,13.23-0.13
			c4.52-0.39,8.99-1.34,13.46-2.15c3.08-0.56,6.19-1.13,9.18-2.04c1.61-0.49,3.35-1.4,4.44-2.64c3.29-3.75,7.45-4.39,11.99-3.91
			c2.27,0.24,3.85,2.21,4.02,5.46c0.11,2.11,1.07,2.53,2.77,2.51c5.2-0.06,10.41-0.2,15.61-0.16c4.71,0.03,9.43,0.2,14.14,0.45
			c1.15,0.06,1.78-0.02,2.25-1.17c0.22-0.55,1.05-0.85,1.6-1.26c0.32,0.51,0.57,1.09,0.98,1.5c0.5,0.49,1.14,1.16,1.72,1.17
			c5.61,0.07,11.23,0.22,16.83-0.04c8.82-0.41,17.63-1.08,26.44-1.71c7.53-0.54,15.06-1.18,22.59-1.75
			c10.57-0.8,21.15-1.54,31.71-2.43c1.08-0.09,2.27-0.86,3.08-1.65c1.7-1.66,3.08-3.65,4.78-5.31c3.58-3.48,8.35-3.21,12.83-3.75
			c1.85-0.23,3.74-0.15,5.58-0.43c4.27-0.64,6.48,1.9,7.74,5.29c0.96,2.6,2.43,3.05,4.91,2.84c9.76-0.85,19.52-1.68,29.3-2.21
			c7.84-0.42,15.7-0.3,23.55-0.6c11.95-0.47,23.89-1.21,35.85-1.61c5.45-0.18,10.92,0.12,16.37,0.39c2.27,0.11,3.27-0.47,4.19-2.8
			c2.68-6.79,5.87-13.38,8.86-20.05c0.75-1.68,2.1-2.33,3.89-2.57c7.82-1.08,15.62-1.26,23.41,0.2c1.87,0.35,3.02,1.16,3,3.37
			c-0.04,5.84,0.15,11.68,0.17,17.52c0.01,3.72,1.75,5.56,5.48,5.47c7.4-0.18,14.79-0.38,22.19-0.62
			c5.06-0.17,10.12-0.63,15.18-0.59c3.79,0.03,7.57,0.63,11.35,0.99c1.4,0.13,2.8,0.28,4.21,0.42C908,152.7,908,153.3,908,153.9z
			 M526.17,267.93c1.16-0.3,2.37-0.48,3.46-0.93c3.29-1.35,7.08-2.28,8.67-5.86c1.19-2.69,2.02-5.67,2.33-8.59
			c0.48-4.45,0.25-8.98,0.53-13.46c0.54-8.66,1.05-17.34,1.92-25.97c0.59-5.87,1.17-11.85,2.8-17.47c1.81-6.26,4.82-12.17,7.3-18.23
			c1.43-3.48,2.84-6.97,4.26-10.44c-5.5,0-10.72-0.11-15.94,0.03c-5.75,0.16-11.48,0.66-17.23,0.81c-5.45,0.14-10.9-0.09-16.35,0.05
			c-6.8,0.17-13.6,0.8-20.4,0.76c-4.06-0.03-6.15,2.11-7.87,5.19c-0.32,0.58-0.46,1.27-0.77,1.85c-3.66,6.78-4.42,14.05-3.45,21.55
			c0.95,7.41,2.18,14.78,3.07,22.2c1.17,9.79,1.92,19.64,3.24,29.41c0.75,5.54,1.97,11.16,6.92,14.83c4.81,3.56,9.72,6.97,16.2,6.33
			c0.44-0.04,0.91,0.41,1.39,0.48c2.1,0.28,4.22,0.72,6.31,0.6c0.48-0.03,0.79-2.03,1.31-3.06c0.35-0.69,0.92-1.26,1.39-1.89
			c0.22,0.12,0.43,0.24,0.65,0.37c0.06,1.29,0.12,2.58,0.19,4.07c3.51-0.93,6.81-1.81,10.12-2.68L526.17,267.93z M847.26,157.87
			c-0.31-5.22-3.87-3.68-6.25-3.76c-9.57-0.31-19.16-0.14-28.73-0.53c-4.34-0.18-6.9,1.94-8.92,5.18c-2.45,3.93-3.6,8.35-4.01,12.93
			c-0.62,7.01-1.04,14.04-1.62,21.05c-0.79,9.62-2.07,19.23-0.01,28.85c1.74,8.1,4.77,10.64,13.65,9.98c0-0.86,0.02-1.75,0-2.63
			c-0.18-7.69-0.61-15.39-0.5-23.08c0.12-8.37,0.62-16.74,1.18-25.1c0.48-7.31,1.26-14.6,1.96-21.9c0.05-0.54,0.54-1.05,0.82-1.57
			c0.47,0.58,1.31,1.13,1.34,1.73c0.15,2.76,0.28,5.56,0.04,8.31c-0.78,8.93-2.14,17.84-2.51,26.79c-0.48,11.8-0.63,23.64,0.4,35.45
			c0.14,1.65,0.72,2.22,2.28,2.28c7.45,0.28,14.77-0.84,21.83-2.98c7.96-2.41,14.04-8.04,20.28-13.25
			c4.89-4.09,6.78-9.83,7.93-15.72c1.67-8.6,1.05-17.33,0.09-25.97c-0.34-3.03-2.31-5.65-5.07-7.33
			c-4.54-2.77-8.59-5.99-10.52-11.21c-0.11-0.31-0.42-0.55-0.74-0.96C849.32,155.43,848.55,156.34,847.26,157.87z M697.72,158.12
			c0.74,4.01,1.93,7.62,1.99,11.25c0.15,9.57,0.15,19.18-0.43,28.73c-0.64,10.4-0.5,20.63,2.25,30.75c0.5,1.83,1.11,2.83,3.21,2.2
			c0.83-0.25,1.79-0.11,2.68-0.08c4.39,0.17,7.87-1.22,10.71-4.86c2.74-3.5,5.99-6.62,9.2-9.72c2.31-2.23,3.88-4.8,4.45-7.88
			c2.28-12.43-0.13-24.27-5.88-35.2c-2.95-5.6-7.65-10.29-11.62-15.33c-0.41-0.52-1.29-0.97-1.93-0.93
			C707.32,157.35,702.28,157.77,697.72,158.12z M676.82,159.94c0.46,2.87,1.18,5.42,1.22,7.99c0.18,13.33,0,26.67,0.34,40
			c0.19,7.68,1.14,15.35,1.73,23.02c0.1,1.26,0.56,1.78,1.98,1.69c3.8-0.22,7.61-0.2,11.42-0.36c2.64-0.11,4.84-3.18,4.52-5.73
			c-0.84-6.9-2.09-13.81-2.14-20.72c-0.06-8.37,1.2-16.73,1.42-25.11c0.16-5.96-0.31-11.96-0.79-17.91
			c-0.15-1.89-1.15-4.02-3.59-3.92C687.64,159.1,682.36,159.56,676.82,159.94z M675.76,192.52c0.04,0,0.08,0,0.11,0
			c0-4.86-0.01-9.72,0-14.59c0.01-5.39,0.29-10.79-1.37-16.04c-0.38-1.2-0.85-1.75-2.19-1.6c-2.08,0.24-4.19,0.21-6.27,0.44
			c-5.91,0.67-6.31,0.94-6.41,6.98c-0.12,7.86,0.07,15.73,0.16,23.59c0.01,0.89,0.31,1.77,0.41,2.66c0.27,2.52,0.7,5.04,0.7,7.56
			c0.01,6.81-0.27,13.63-0.23,20.44c0.02,4.38,1.78,8.05,6.14,9.53c2.77,0.94,5.79,1.26,8.73,1.51c2.54,0.22,2.55-0.12,2.23-2.68
			c-0.74-6.01-1.64-12.02-1.95-18.05C675.5,205.72,675.76,199.11,675.76,192.52z M811.94,151.04c1.47-0.09,2.36-0.22,3.24-0.2
			c9.64,0.23,19.28,0.41,28.92,0.79c2.12,0.08,2.8-0.52,2.77-2.53c-0.09-6.21-0.1-12.43-0.13-18.64c-0.01-2.89-0.36-3.46-3.33-3.53
			c-5.74-0.12-11.49,0.02-17.24-0.04c-2.6-0.03-4.44,1.1-5.63,3.31c-1.28,2.36-2.54,4.73-3.62,7.18c-1.39,3.14-2.63,6.34-3.86,9.55
			C812.61,148.15,812.37,149.46,811.94,151.04z M678.23,234.74c-0.24,0.06-0.49,0.13-0.73,0.19c-0.55,4.27,0.33,8.4,1.44,12.48
			c0.13,0.48,1.15,1.09,1.68,1.03c3.47-0.43,6.92-1,10.37-1.62c0.5-0.09,1.18-0.64,1.3-1.1c0.98-3.79,1.85-7.6,2.83-11.77
			c-5.01,0.24-9.56,0.46-14.53,0.7c0.52,1.17,1,1.77,1.01,2.36c0,1.05-0.04,2.85-0.51,3c-1.37,0.46-1.78-0.88-2.04-2.02
			C678.78,236.9,678.5,235.82,678.23,234.74z M667,157.01c0.07,0.22,0.15,0.45,0.22,0.67c9.05-0.79,18.1-1.58,27.61-2.41
			c-0.89-1.68-1.64-3.02-2.32-4.4c-0.79-1.59-1.97-2.31-3.79-2.12c-3.79,0.4-7.58,0.79-11.38,1.02
			C672.32,150.09,669.61,153.46,667,157.01z M507.62,284.91c1.29-0.26,2.17-0.36,3.01-0.62c4.84-1.5,5.38-2.53,4.02-7.41
			c-0.26-0.94-0.46-1.89-0.82-2.79c-0.2-0.51-0.63-1.28-0.99-1.3c-2.05-0.13-4.11-0.06-6.48-0.06
			C506.79,276.94,507.2,280.83,507.62,284.91z M816.44,233.86c0.08,1.54,0.16,3.16,0.24,4.78c0.07,1.42,0.73,2.01,2.2,1.67
			c2.32-0.54,4.66-1,6.99-1.52c4.27-0.95,4.81-1.6,5.3-6.49C826.36,232.81,821.6,233.31,816.44,233.86z M510.28,161.36
			c0.2,0.25,0.39,0.49,0.59,0.74c3.39,0.27,6.78,0.57,10.18,0.76c0.63,0.04,1.62-0.19,1.87-0.62c0.95-1.66-0.77-5.1-2.65-5.09
			c-2.27,0.01-4.64,0.23-6.75,0.99C512.22,158.6,511.34,160.24,510.28,161.36z"/>
		<path d="M687.58,506.45c3.2-0.29,6.23-0.78,9.27-0.8c10.02-0.07,20.05,0.13,30.07,0.04c9.79-0.1,19.58-0.67,29.37-0.61
			c11.59,0.07,23.18,0.54,34.77,0.96c8.34,0.3,16.58,0.03,24.73-2.08c4.69-1.21,9.49-2.03,14.25-2.99
			c6.64-1.34,12.7-4.06,18.81-6.96c8.36-3.98,14-10.8,20.17-17.15c5.72-5.88,9.52-7.02,18.11-4.02c4.48,1.57,6.92,4.51,7.84,8.93
			c0.96,4.6,1.77,9.24,2.61,13.87c0.87,4.79-1.28,8.08-5.3,10.37c-4.91,2.8-9.94,5.41-14.74,8.39c-3.6,2.23-6.96,4.85-10.34,7.41
			c-2.92,2.22-3.68,5.73-4.13,8.97c-1.19,8.59-1.67,17.28-2.89,25.86c-1.04,7.3-2.51,14.56-4.22,21.74
			c-0.87,3.65-2.56,7.12-4.12,10.57c-1.29,2.86-3.69,4.52-6.68,5.56c-2.72,0.95-5.23,2.53-7.96,3.48c-3.07,1.07-6.23,2.04-9.43,2.44
			c-1.16,0.14-2.89-1.22-3.77-2.35c-3.76-4.83-5.75-10.42-6.28-16.53c-0.05-0.6-0.15-1.19-0.24-1.78c-0.01-0.05-0.11-0.08-0.42-0.3
			c-0.76,0.6-1.6,1.27-2.44,1.93c-3.79,2.97-8.37,3.8-12.88,4.91c-6.73,1.67-13.56,2.18-20.46,1.89c-4.41-0.19-8.38-1.49-11.34-5.02
			c-1.75-2.09-1.81-4.34-0.64-6.7c1.98-4,5.1-5.91,9.67-5.85c3.95,0.05,8.11,0.23,11.81-0.86c4.58-1.35,8.93-3.73,13.13-6.11
			c3.09-1.76,5.83-4.16,8.62-6.41c1.79-1.44,1.54-1.91-0.24-3.38c-3.26-2.7-7.22-3.28-11.11-3.67c-8.33-0.82-16.67-1.58-25.08-0.76
			c-11.74,1.14-22.33,5.19-31.89,12.04c-4.74,3.4-5.53,8.41-5.41,13.72c0.06,2.69,0.48,5.38,0.47,8.07
			c-0.02,6.62-0.22,13.36-4.64,18.76c-5.76,7.03-13.24,9.59-22.26,7.61c-5.74-1.26-11.39-2.49-15.85-6.76
			c-1.27-1.22-1.1-0.9-1.84,0.72c-0.5,1.08-2.06,1.76-3.25,2.41c-0.67,0.36-1.59,0.26-2.38,0.44c-2.17,0.48-4.31,1.32-6.5,1.46
			c-12.39,0.77-24.79,1.37-37.18,2.05c-4.48,0.25-8.95,0.56-13.43,0.83c-1.42,0.09-2.84,0.22-4.26,0.19
			c-3.59-0.07-5.86-1.83-6.91-5.24c-1.52-4.96,1.26-11.02,6.12-12.74c4.22-1.49,8.52-2.8,12.86-3.85c5.95-1.43,12-2.44,17.96-3.81
			c10.02-2.3,17.85-7.79,23.36-16.54c1.75-2.78,3.62-5.49,5.4-8.26c1.15-1.8,1.08-3.95-0.57-5.25c-2.32-1.82-4.79-3.51-7.39-4.9
			c-3.69-1.97-7.78-3.24-11.26-5.49c-3.74-2.41-7.04-5.52-10.38-8.5c-0.78-0.7-1.07-2.06-1.36-3.18c-0.35-1.36-0.47-2.78-0.73-4.44
			c-2.76,1.07-5.32,2-7.85,3.04c-6.73,2.77-13.68,4.73-20.83,6.04c-2.32,0.42-4.03,1.34-5.33,3.5c-3.59,5.96-8.95,9.99-15.25,12.7
			c-1.63,0.7-3.67,0.77-5.49,0.66c-2.75-0.16-3.78-2.48-4.53-4.66c-0.79-2.31-1.17-4.77-1.76-7.15c-0.4-1.61-0.99-2.64-3.11-2.73
			c-7.45-0.33-14.92-0.76-22.33-1.6c-8.47-0.96-16.78-2.8-24.74-5.99c-2.55-1.02-5.15-1.95-7.64-3.1c-4.47-2.07-7.18-5.86-9.72-9.9
			c-3.06-4.87-6.44-9.55-9.67-14.31c-4.63-6.81-6.75-14.49-7.3-22.57c-0.64-9.43-0.54-18.9,1.52-28.15
			c0.76-3.43,0.22-6.61,0.12-9.91c-0.02-0.65-0.26-1.31-0.46-1.95c-1.11-3.54-2.44-7.02-3.31-10.61c-2.3-9.57-1.44-19.4-2.22-29.1
			c-0.21-2.67,0.75-3.25,3.25-2.3c12.9,4.85,25.37,10.59,37.01,18.05c1.06,0.68,2.25,1.19,3.44,1.6c0.55,0.19,1.3,0.09,1.88-0.12
			c5.04-1.81,9.94-4.28,15.12-5.38c6.84-1.44,13.89-1.91,20.86-2.62c6.91-0.7,13.84-1.29,20.77-1.7c3.71-0.22,7.44,0.06,11.17,0.06
			c10.69,0.03,21.39,1.26,32.07-0.43c1.99-0.32,4.02-0.56,6.02-0.55c3.24,0.02,5.84-1.14,8.22-3.32c5.17-4.75,10.63-9.19,15.7-14.04
			c8.53-8.17,18.69-14.02,28.33-20.62c0.25-0.17,0.49-0.35,0.73-0.53c2.08-1.53,3.14-1.27,3.86,1.22c0.82,2.87,1.46,5.79,2.08,8.72
			c1.31,6.19,2.61,12.38,3.81,18.59c0.99,5.12,1.84,10.26,2.69,15.41c0.1,0.61,0.05,1.58-0.33,1.88c-1.59,1.24-1.17,2.86-1.23,4.47
			c-0.24,7.33-0.54,14.66-0.87,21.99c-0.02,0.55-0.23,1.27-0.61,1.6c-2.62,2.24-3.24,5.46-4.34,8.47c-0.92,2.51-1.72,5.15-3.14,7.38
			c-2.79,4.39-4.68,9.02-6.26,14c-1.65,5.19-4.61,10-7.37,14.77c-3.06,5.29-6.54,10.34-9.82,15.51
			C687.67,505.42,687.69,505.9,687.58,506.45z M821.56,576.57c-2.35,0.25-2.42,1.67-2.04,3.06c1.14,4.24,1.99,8.62,3.72,12.62
			c2.76,6.4,3.6,6.67,10.42,4.3c3.74-1.3,7.45-2.76,10.96-4.56c1.9-0.97,3.66-2.59,4.94-4.32c4.23-5.7,5.26-12.65,6.66-19.34
			c1.14-5.47,1.39-11.12,2.09-16.68c0.94-7.42,1.77-14.87,3-22.25c0.44-2.65,1.31-5.64,3-7.58c2.85-3.27,6.27-6.19,9.9-8.59
			c5.53-3.65,11.45-6.7,17.17-10.07c3.4-2,5.61-4.64,4.7-9c-0.46-2.19-0.44-4.49-0.95-6.66c-1.26-5.36-2.13-10.67-8.8-12.8
			c-6.5-2.08-10.87-1.2-15.69,3.79c-5.06,5.24-10.61,10.01-16.1,14.82c-1.41,1.24-3.42,1.77-5.11,2.7
			c-7.12,3.94-14.63,6.72-22.71,7.91c-2.51,0.37-5,0.93-7.45,1.61c-9.61,2.66-19.4,3.31-29.31,2.86
			c-9.48-0.43-18.97-0.96-28.46-1.01c-13.18-0.07-26.35,0.32-39.53,0.41c-9.64,0.07-19.27-0.14-28.91,0.02
			c-4.36,0.07-8.63,0.93-11.42,4.93c-0.16,0.23-0.46,0.38-0.71,0.54c-7.58,5.04-14.89,10.52-23.34,14.12
			c-0.72,0.31-1.77,1.53-1.62,1.88c0.96,2.22,1.79,4.74,3.44,6.37c5.69,5.6,12.33,9.79,19.95,12.45c3.82,1.33,7.35,3.39,9.48,7.13
			c0.2,0.36,0.29,0.79,0.4,1.12c0.69-0.14,1.29-0.26,2.46-0.49c-0.66,1.69-1.47,2.87-1.52,4.08c-0.16,3.57-0.08,7.15,0.02,10.73
			c0.1,3.28,0.54,6.56,0.48,9.84c-0.07,4.38,0.11,8.66,1.78,12.79c0.82,2.03,2.56,3.45,3.56,5.13c2.6,4.39,6.45,6.61,10.91,7.87
			c3.85,1.09,7.92,1.83,11.91,1.9c6.33,0.11,11.33-3.04,14.8-8.22c3.37-5.03,3.26-10.92,3.18-16.69c-0.04-2.99-0.54-5.98-0.49-8.97
			c0.08-4.85,1.17-9.58,5.13-12.7c8.34-6.59,17.86-10.89,28.29-12.95c11.38-2.24,22.81-1.26,34.2,0.02
			c4.18,0.47,8.25,1.47,11.42,4.65c0.31,0.31,1.27-0.02,1.93-0.1c0.71-0.09,1.42-0.22,2.13-0.34c-0.23,0.72-0.49,1.43-0.7,2.16
			c-0.29,1.01-0.82,2.05-0.75,3.04c0.29,4.18,0.81,8.34,1.15,12.51C819.29,572.8,818.33,575.33,821.56,576.57z M715.03,446.68
			c-6.74,0.5-13.57,1.12-20.4,1.47c-6.93,0.35-13.88,0.38-20.82,0.65c-4.85,0.18-9.68,0.53-14.53,0.8
			c-7.9,0.43-15.81,1.06-23.72,1.21c-8.67,0.16-17.35-0.43-26.01-0.14c-12.34,0.42-24.56,2.19-36.75,4.15
			c-4.71,0.76-9.52,1.39-14.27,1.35c-8.59-0.08-17.19-0.58-25.74,0.6c-6.08,0.84-12.04,0.66-17.95-1.12
			c-0.47-0.14-1.47,0.46-1.76,0.98c-0.42,0.74-0.51,1.71-0.56,2.6c-0.32,5.37-0.67,10.75-0.84,16.13
			c-0.29,9.11,1.08,17.98,5.79,25.89c3.43,5.77,7.5,11.16,11.33,16.68c1.56,2.25,2.92,4.76,4.92,6.54
			c6.43,5.74,14.74,7.47,22.71,9.58c7.86,2.08,15.9,3.5,24.11,3.59c3.94,0.05,7.87,0.35,11.88,0.54c0.05-0.53,0.17-0.85,0.09-1.1
			c-1.36-4.5-0.95-9.04-0.24-13.55c0.44-2.8,1.45-5.23,4.6-6.26c3.68-1.21,7.16-3.07,10.88-4.08c4.88-1.33,9.89-2.17,14.87-3.08
			c1.65-0.3,2.72,0.58,2.72,2.41c0.02,8.03,0.7,16.12-1.82,23.92c0.13,0.09,0.2,0.19,0.24,0.17c2.09-0.49,4.16-1.09,6.27-1.47
			c11-1.99,21.19-6.28,31.03-11.33c5.76-2.95,11.17-6.62,16.54-10.26c2.42-1.65,4.71-3.77,6.41-6.14
			c3.82-5.33,7.29-10.92,10.79-16.47c2.95-4.67,6.13-9.22,7.59-14.69c0.82-3.09,1.76-6.21,3.08-9.11c1.36-2.97,3.51-5.57,4.87-8.54
			C712.17,454.62,713.57,450.45,715.03,446.68z M512.34,439.57c0.47,4.02,0.77,7.73,1.44,11.38c0.17,0.9,1.46,2.11,2.39,2.26
			c4.25,0.7,8.57,1.5,12.85,1.45c6.26-0.07,12.51-0.95,18.77-1.27c5.37-0.28,10.79,0.07,16.14-0.43
			c10.77-1.02,21.51-2.46,32.26-3.67c13.23-1.49,26.45-2.03,39.79-1.4c8.62,0.41,17.31-0.69,25.97-0.94
			c8.74-0.25,17.49-0.21,26.23-0.41c8.66-0.2,17.37,0.16,25.88-2.02c1.07-0.28,2.14-0.19,2.23-1.86c0.29-5.38,0.82-10.74,1.11-16.12
			c0.16-2.93,0.03-5.88,0.03-8.44c-10.69,0.66-20.88,1.4-31.08,1.88c-5.36,0.25-10.75-0.07-16.12,0.07
			c-2.75,0.07-5.49,0.65-8.24,0.85c-5.96,0.44-11.99,0.37-17.88,1.26c-11.5,1.74-22.93,3.9-34.36,6.06
			c-4.83,0.91-9.56,2.35-14.38,3.37c-5.25,1.11-10.51,2.4-15.83,2.92c-11.09,1.08-22.22,1.75-33.34,2.48
			c-8.21,0.54-16.43,0.85-24.64,1.39C518.61,438.56,515.68,439.12,512.34,439.57z M710.94,373.11c-0.55,0.23-0.84,0.31-1.07,0.47
			c-10.6,7.24-21.55,13.98-30.75,23.12c-4.28,4.25-9.25,7.81-13.46,12.12c-2.59,2.65-5.55,3.23-8.83,3.55
			c-0.96,0.09-1.93,0.11-2.9,0.18c-5.51,0.41-11.02,1.11-16.54,1.17c-10.97,0.12-21.96-0.47-32.92-0.08
			c-10.67,0.38-21.33,1.5-31.97,2.49c-7.51,0.7-14.6,3.01-21.23,6.61c-2,1.09-3.82,0.99-5.68-0.16c-7.5-4.64-15.02-9.26-23.2-12.66
			c-5.08-2.11-10.15-4.24-15.78-6.59c1.01,12.36,0.31,24.25,3.31,35.25c4.02-0.84,7.61-1.99,11.26-2.29
			c10.18-0.83,20.4-1.25,30.6-1.94c5.96-0.4,11.91-1.21,17.87-1.49c9.45-0.44,18.72-2.05,27.95-3.9c8.34-1.66,16.57-3.84,24.9-5.54
			c6.35-1.29,12.76-2.34,19.18-3.2c5.77-0.77,11.59-1.18,17.39-1.68c5.5-0.47,11.01-1.2,16.51-1.2c13.16,0.02,26.31,0.14,39.4-1.63
			c2.32-0.31,3.99-1.89,3.75-4.13c-0.33-2.97-0.81-5.94-1.4-8.87c-1.62-8.06-3.32-16.1-5.02-24.14
			C711.95,376.79,711.43,375.02,710.94,373.11z M687.77,563.21c-2.02,2.9-4,5.75-5.98,8.6c-2.9,4.17-6.35,7.87-10.78,10.31
			c-6.65,3.67-13.9,5.62-21.36,7.04c-6.88,1.32-13.68,3.11-20.39,5.14c-2.12,0.64-4.22,2.39-5.58,4.19
			c-1.8,2.38-1.83,5.41-0.21,8.04c1.4,2.28,3.73,2.71,6.29,2.47c5.51-0.51,11.02-1.09,16.55-1.31c8.07-0.33,16.16-0.19,24.23-0.6
			c6.1-0.31,12.2-0.99,18.26-1.81c3.5-0.47,5.19-4.76,3.45-7.79c-2.39-4.16-3.55-8.65-3.61-13.47c-0.09-6.8-0.31-13.6-0.49-20.41
			C688.14,563.53,687.97,563.43,687.77,563.21z M815.59,558.28c-4.01,2.88-7.7,5.73-11.59,8.28c-2.86,1.87-5.8,4.07-9.01,4.83
			c-4.87,1.15-9.99,1.43-15.02,1.58c-3.95,0.12-6.98,1.31-8.92,4.8c-0.95,1.71-1.02,3.31,0.55,4.86c2.54,2.5,5.71,3.29,9.03,3.3
			c4.55,0.01,9.14,0,13.64-0.57c7.54-0.96,15.12-2.04,21.19-7.43c1.15-1.02,1.9-1.89,1.74-3.53c-0.36-3.8-0.5-7.61-0.83-11.41
			C816.22,561.35,815.83,559.72,815.59,558.28z M604.15,523.56c0.31-0.04,0.62-0.09,0.92-0.14c0.47,0.86,1.16,1.67,1.36,2.59
			c0.77,3.5,1.45,7.03,2.01,10.57c0.2,1.26,0.56,1.96,1.92,1.88c2.16-0.12,4.33-0.25,6.49-0.34c2.04-0.08,3.46-0.98,3.88-3.04
			c0.6-2.98,1.3-5.96,1.6-8.98c0.38-3.78,0.38-7.61,0.58-11.41c0.07-1.39-0.38-2.17-1.9-2c-0.74,0.08-1.5,0.05-2.24,0.15
			c-7.98,1.11-15.45,3.89-22.74,7.17c-0.57,0.25-1.18,1.18-1.18,1.8c-0.02,4.91,0.05,9.83,0.25,14.73c0.03,0.69,0.88,1.9,1.41,1.94
			c2.87,0.19,5.76,0.09,8.83,0.09c-0.08-1.05-0.1-1.79-0.21-2.51c-0.44-3.11-0.97-6.2-1.32-9.31
			C603.7,525.72,604.02,524.63,604.15,523.56z M595.88,540.71c0.83,3.28,1.48,6.41,2.46,9.44c0.28,0.86,1.47,1.94,2.31,2
			c1.66,0.13,3.54,0,5.03-0.69c4.67-2.16,8.7-5.24,11.72-9.5c0.42-0.59,0.57-1.37,0.92-2.26c-3.26,0.29-6.13,0.54-9.28,0.82
			c0.1,1.42,0.38,2.75,0.22,4.03c-0.1,0.76-0.8,1.94-1.37,2.04c-1.14,0.19-2.2-0.43-2.13-1.94c0.02-0.37,0.07-0.75,0.08-1.12
			c0.05-1.9-0.38-3.13-2.78-2.87C600.86,540.9,598.61,540.71,595.88,540.71z"/>
		<path d="M759.87,459.19c0.22-3.32,0.41-6.65,0.69-9.98c0.32-3.88,0.68-7.76,1.09-11.63c0.56-5.43,1.15-10.86,1.78-16.28
			c0.74-6.39,1.33-12.79,2.34-19.14c1.05-6.63,2.29-13.25,3.84-19.78c2.25-9.45,4.58-18.84,4.52-28.66
			c-0.01-2.03,0.9-4.06,1.17-6.11c1.23-9.5,2.36-19.01,3.56-28.51c1.09-8.67,2.13-17.34,3.39-25.99c0.68-4.65,1.89-9.23,2.63-13.88
			c0.48-3.01,0.55-6.08,0.82-9.13c0.47-5.28,0.96-10.55,1.46-15.82c0.06-0.59,0.12-1.34,0.49-1.69c0.55-0.52,1.37-0.76,2.07-1.12
			c0.28,0.61,0.85,1.25,0.8,1.83c-0.15,1.76-0.68,3.49-0.81,5.25c-0.4,5.6-0.43,11.23-1.08,16.79c-0.68,5.86-2.01,11.64-2.85,17.48
			c-1.65,11.48-3.13,22.98-4.74,34.46c-1.19,8.52-2.53,17.01-3.66,25.53c-0.44,3.33-0.21,6.76-0.74,10.07
			c-0.84,5.21-2.11,10.35-3.13,15.54c-1.66,8.49-3.52,16.94-4.81,25.49c-1.46,9.59-2.43,19.25-3.52,28.89
			c-0.93,8.24-1.73,16.49-2.58,24.74C762.44,459.04,761.75,459.71,759.87,459.19z"/>
		<path d="M810.99,470.99c0.93-3.6,2.03-7.17,2.75-10.82c0.67-3.44,0.57-7.05,1.45-10.42c2.45-9.31,1.86-18.88,2.93-28.3
			c0.52-4.57,1.47-9.2,3.06-13.5c2.17-5.92,3.27-11.91,3.86-18.15c0.57-6.02,1.98-11.96,2.63-17.97c0.41-3.77,0.03-7.62,0.13-11.44
			c0.09-3.51,0.41-7.02,0.53-10.53c0.17-5.08,0.45-10.17,0.33-15.25c-0.15-6.32,0.78-12.5,1.84-18.69
			c1.02-5.96,1.93-11.94,2.95-17.91c0.97-5.73,2.57-11.42,2.89-17.19c0.51-9.17,0.16-18.38,0.22-27.58
			c0.01-1.79,0.15-3.59,0.43-5.36c0.09-0.55,0.87-0.98,1.34-1.47c0.24,0.41,0.69,0.82,0.69,1.23c0.05,8.37,0.3,16.76-0.02,25.12
			c-0.25,6.33-1.16,12.64-1.94,18.94c-0.63,5.11-1.45,10.2-2.29,15.28c-0.73,4.42-1.83,8.79-2.39,13.22
			c-0.6,4.8-0.85,9.66-1.08,14.5c-0.27,5.6-0.38,11.2-0.52,16.81c-0.11,4.72-0.08,9.44-0.26,14.15c-0.15,3.72-0.39,7.45-0.83,11.16
			c-0.74,6.31-1.56,12.61-2.55,18.89c-0.51,3.23-1.14,6.51-2.26,9.57c-3.08,8.39-4.77,16.96-4.27,25.92
			c0.29,5.23-0.97,10.22-2.1,15.27c-0.95,4.28-0.96,8.76-1.76,13.08c-0.61,3.29-1.68,6.52-2.8,9.68c-0.33,0.94-1.51,1.59-2.3,2.37
			C811.42,471.41,811.21,471.2,810.99,470.99z"/>
		<path d="M727.26,460.38c-0.34-1.15-1-2.31-0.98-3.46c0.1-7.25,0.26-14.51,0.57-21.75c0.37-8.52,1.07-17.03,1.33-25.55
			c0.22-7.04,0.89-14,2.06-20.94c0.81-4.78,0.98-9.67,1.48-14.5c0.97-9.22,2.03-18.43,2.95-27.65c0.64-6.47,1.31-12.96,1.6-19.45
			c0.45-9.93,0.24-19.91,0.97-29.81c0.47-6.37,2.21-12.65,3.21-18.99c1.06-6.72,1.88-13.48,2.87-20.21c0.5-3.4,1.06-6.81,1.82-10.16
			c0.23-1.01,1.22-1.84,1.86-2.75c0.22,0.1,0.45,0.21,0.67,0.31c-0.15,1.05-0.28,2.11-0.45,3.16c-0.95,6.13-1.88,12.26-2.88,18.38
			c-1.38,8.48-2.87,16.95-4.21,25.44c-1.75,11.06-1.68,22.2-1.7,33.37c-0.01,7.75-1.18,15.51-1.89,23.25
			c-0.94,10.13-1.87,20.27-2.95,30.39c-0.58,5.43-1.54,10.81-2.13,16.24c-0.36,3.27-0.3,6.58-0.48,9.87
			c-0.38,6.95-0.83,13.89-1.2,20.84c-0.57,10.84-1.09,21.69-1.64,32.53c-0.02,0.43-0.09,0.85-0.13,1.27
			C727.78,460.25,727.52,460.31,727.26,460.38z"/>
		<path d="M678.65,320.17c-1.03-1.33-2.1-2.5-2.89-3.84c-0.3-0.52,0.07-1.43,0.14-2.16c0.62,0.24,1.28,0.41,1.86,0.74
			c0.48,0.27,0.85,0.72,1.55,1.33c0.27-3.1,0.65-5.82,0.72-8.55c0.21-8.14,0.37-16.28,0.42-24.42c0.02-3.88-0.39-7.76-0.35-11.64
			c0.04-3.95-0.02-7.97,0.77-11.8c0.46-2.2,2.51-4.07,3.85-6.09c0.24,0.1,0.49,0.2,0.73,0.3c0.03,0.54,0.25,1.17,0.05,1.6
			c-3.3,7.06-2.82,14.5-2.58,22c0.25,7.84,0.05,15.7-0.24,23.54c-0.32,8.51-1.06,17-1.47,25.51c-0.35,7.32-0.55,14.65-0.72,21.98
			c-0.11,4.79-0.04,9.59-0.1,14.38c-0.03,2.36-0.06,4.73-0.35,7.06c-0.08,0.69-1.02,1.27-1.56,1.9c-0.25-0.15-0.51-0.3-0.76-0.45
			C678.03,354.32,678.34,337.09,678.65,320.17z"/>
		<path d="M816.18,262.59c2.12,0.24,4.22,0.22,6.16,0.76c3.74,1.04,5.35,4.33,3.87,7.9c-0.71,1.7-0.6,2.64,1.2,3.21
			c0.35,0.11,0.77,0.29,0.94,0.57c0.36,0.56,0.57,1.21,0.84,1.82c-0.69,0.05-1.4,0.22-2.06,0.12c-0.37-0.06-0.68-0.55-1-0.87
			c-0.98-1-1.82-0.91-2.87,0.04c-2.39,2.17-5.09,1.88-7.19-0.63c-1.26-1.5-1.06-2.43,0.83-2.89c1.21-0.3,2.52-0.31,3.78-0.3
			c2.13,0,3.03-0.81,3.31-3.2c0.23-1.97-1.04-4.1-2.71-4.29c-3.67-0.43-6.97-0.03-9.01,3.73c-0.62,1.14-0.86,1.9-0.09,3.01
			c0.94,1.34,1.69,2.82,2.54,4.23c0.48,0.79,1.12,1.76-0.15,2.17c-0.66,0.21-1.9-0.19-2.34-0.74c-1.19-1.5-2.1-3.23-3.09-4.81
			c-1.95,1.35-3.58,2.81-5.46,3.72c-3.55,1.71-7.07,0.66-10.32-1.02c-2.37-1.22-2.5-3.22-0.67-5.1c2.68-2.76,3.67-3.25,10.43-5.1
			c-0.01-2.36-4.78-3.55-1.45-7.11c0.74,1.03,1.35,1.9,1.97,2.75c1.28,1.76,2.56,3.59,5,3.74c2.94,0.19,4.62-1.56,5.54-5.57
			c0.18-0.8,0.21-1.71,0.65-2.34c0.38-0.54,1.23-0.75,1.88-1.11c0.22,0.55,0.69,1.13,0.62,1.64
			C817.04,258.85,816.56,260.77,816.18,262.59z M799.17,274.65c2.82,0.07,7.33-2.72,7.54-4.51c0.1-0.85-1.1-2.67-1.69-2.66
			c-3.69,0.06-7.22,0.9-10.02,3.63c-0.86,0.84-0.94,1.58,0.19,2.07C796.75,273.85,798.37,274.36,799.17,274.65z"/>
		<path d="M717.38,246.27c-0.24,3.15-0.26,6.34-0.77,9.45c-1.4,8.62-2.98,17.22-4.52,25.82c-1.12,6.25-2.49,12.46-3.39,18.74
			c-0.68,4.73-0.8,9.54-1.15,14.32c-0.66,8.87-1.32,17.75-1.94,26.62c-0.54,7.68-1.03,15.36-1.55,23.05
			c-0.04,0.6-0.03,1.25-0.28,1.76c-0.36,0.72-0.95,1.33-1.44,1.99c-0.33-0.84-0.98-1.69-0.93-2.5c0.2-3.15,0.73-6.27,0.96-9.42
			c1.03-13.86,2-27.72,2.99-41.58c0.25-3.5,0.27-7.04,0.77-10.51c0.99-6.78,2.24-13.53,3.4-20.29c0.99-5.74,2.1-11.46,2.96-17.21
			c0.9-5.98,1.54-11.99,2.39-17.97c0.13-0.92,0.78-1.76,1.2-2.64C716.52,246.01,716.95,246.14,717.38,246.27z"/>
		<path d="M668.21,368.64c2.02-1.09,4.03-2.17,6.05-3.26c0.16,0.17,0.33,0.33,0.49,0.5c-0.47,0.75-0.77,1.77-1.44,2.2
			c-1.86,1.2-3.86,2.18-5.83,3.21c-1.86,0.98-2.64-0.19-2.62-1.71c0.03-2.6,0.4-5.2,0.63-7.8c0.03-0.36,0.13-0.72,0.33-1.75
			c-3.34,1.98-6.38,3.47-9.01,5.5c-0.88,0.69-0.77,2.74-0.98,4.19c-0.14,0.95,0.21,2.04-0.12,2.88c-0.3,0.76-1.23,1.27-1.88,1.89
			c-0.38-0.68-1.01-1.33-1.08-2.05c-0.17-1.53-0.05-3.1-0.05-4.74c-2.57,0.7-3.76,4.28-7.73,3.25c1.25-1.63,2.2-2.97,3.26-4.21
			c1.22-1.42,2.52-2.76,3.82-4.11c1.5-1.57,1.58-3.42,1.17-5.79c-1.57,0.71-2.94,1.42-4.38,1.94c-0.62,0.22-1.38,0.05-2.07,0.06
			c0.24-0.69,0.47-1.39,0.73-2.07c0.05-0.13,0.19-0.24,0.32-0.3c1.53-0.77,3.31-1.26,4.53-2.36c1.07-0.96,1.54-2.61,2.59-4.54
			c0.66,1.38,1.11,2.29,1.66,3.46c0.96-0.25,2.07-0.61,3.2-0.82c0.59-0.11,1.23,0.05,1.85,0.08c-0.06,0.69,0.11,1.53-0.22,2.03
			c-1.16,1.74-2.52,3.34-3.75,5.04c-0.54,0.74-0.93,1.58-1.39,2.38c0.17,0.19,0.34,0.38,0.51,0.57c3.58-2.02,7.15-4.05,10.74-6.05
			c0.52-0.29,1.12-0.41,1.69-0.61c0.1,0.63,0.39,1.3,0.26,1.87c-0.52,2.25-1.26,4.44-1.73,6.69c-0.27,1.27-0.18,2.61-0.25,3.92
			C667.75,368.3,667.98,368.47,668.21,368.64z"/>
		<path d="M720.62,293.03c-2.8,0.61-4.87,1.05-6.95,1.5c-0.17-0.17-0.33-0.34-0.5-0.51c0.54-0.71,0.94-1.62,1.64-2.09
			c0.84-0.57,1.9-0.96,2.91-1.07c2.02-0.23,2.7-1.15,2.79-3.22c0.09-2.04-0.53-2.55-2.37-2.23c-0.88,0.16-1.8,0.29-2.67,0.18
			c-0.6-0.08-1.14-0.61-1.71-0.94c0.44-0.54,0.78-1.32,1.34-1.56c0.79-0.34,1.75-0.36,2.64-0.39c1.28-0.04,2.53,0.09,3.27-1.34
			c0.16-0.32,1.21-0.58,1.27-0.49c1.35,2.02,3.35,1.07,5.1,1.21c0.42,0.03,0.82,0.21,1.33,0.35c-0.55,2.02-2.26,2.06-3.59,2.26
			c-1.89,0.28-2.25,1.42-2.25,2.95c0,1.22,0.42,2.04,1.88,1.74c0.51-0.1,1.09-0.2,1.55-0.05c0.5,0.16,1.06,0.53,1.28,0.97
			c0.11,0.23-0.44,0.83-0.76,1.19c-0.18,0.21-0.54,0.42-0.79,0.38c-3.41-0.42-2.78,1.91-2.87,3.97c-0.1,2.22-0.46,4.44-0.85,6.64
			c-0.28,1.55,0.03,2.38,1.74,2.65c2.21,0.34,4.42,0.8,6.56,1.43c0.81,0.24,1.43,1.11,2.13,1.7c-1.01,0.44-2.07,1.34-3.01,1.23
			c-2.2-0.26-4.35-0.97-6.5-1.57c-1.35-0.38-2.46-0.31-3.3,0.99c-0.32,0.49-0.76,1.08-1.27,1.23c-1.27,0.39-3,1.16-3.81,0.64
			c-1.01-0.65-1.9-2.57-1.68-3.71c0.22-1.12,1.76-2.52,2.96-2.81c3.5-0.83,3.57-0.64,3.95-4.43
			C720.32,297.72,720.43,295.59,720.62,293.03z"/>
		<path d="M804.54,381.71c0.53-1.34,0.99-2.71,1.59-4.01c1.65-3.58,2.7-7.29,2.18-11.26c-0.3-2.27-1.67-3.34-4-3.44
			c-1.18-0.05-2.36-0.01-3.63-0.01c1.01,4.92,1.38,9.54-0.35,14.12c-1.02,2.7-2.73,4.63-5.62,5.24c-2.22,0.47-4.13-0.26-5.14-2.26
			c-1.61-3.19-2.59-6.65-0.87-10.08c1.29-2.58,2.97-4.97,4.58-7.38c0.39-0.58,1.11-1.19,1.76-1.3c4.04-0.69,8.16-1.35,12.14,0.07
			c4.4,1.56,5.09,4.5,4.16,9.36c-0.7,3.69-2.77,7.14-4.36,10.63c-0.22,0.48-1.16,0.62-1.77,0.92
			C804.99,382.11,804.77,381.91,804.54,381.71z M798.99,367.76c0-0.99,0.14-1.63-0.03-2.17c-0.27-0.81-0.62-2.04-1.19-2.21
			c-0.75-0.22-1.98,0.17-2.59,0.74c-2.68,2.51-4.58,5.64-4.86,9.28c-0.14,1.83,0.9,3.82,1.65,5.64c0.65,1.57,2.28,1.48,3.1,0.51
			c1.44-1.71,2.83-3.66,3.5-5.74C799.21,371.82,798.91,369.53,798.99,367.76z"/>
		<path d="M865.58,284.63c0.3,5.12,0.28,5.04,5.07,3.76c3.89-1.04,7.83-1.89,11.77-2.74c0.77-0.17,1.63,0.06,2.7,0.12
			c-1.02,2.21-2.68,2.46-4.35,2.84c-4.41,1-8.79,2.09-13.19,3.15c0.54,2.93,0.98,5.7,1.63,8.43c0.1,0.41,1.2,0.79,1.85,0.81
			c3.8,0.1,7.61,0.01,11.42,0.14c1.28,0.04,2.54,0.54,3.75,1.33c-5.54,2.05-11.21,0.17-16.98,1.18c-0.21,0.73-0.48,1.72-0.76,2.71
			c-0.69,2.44-2.09,3.49-4.36,3.27c-1.89-0.19-3.9-2.12-4.08-3.92c-0.21-2.06,0.83-3.47,3.2-4.26c0.49-0.16,1.16-0.05,1.5-0.35
			c0.51-0.45,1.23-1.23,1.13-1.72c-0.64-3.05-1.34-6.11-2.31-9.07C862.69,287.63,863.3,285.3,865.58,284.63z M866.38,303.66
			c-0.25-0.21-0.49-0.41-0.74-0.62c-1.06,0.7-2.51,1.19-3.03,2.17c-0.27,0.5,1.1,1.89,1.73,2.87c0.29-0.09,0.57-0.19,0.86-0.28
			C865.6,306.42,865.99,305.04,866.38,303.66z"/>
		<path d="M805.85,322.86c1.43-0.13,3.33-0.37,5.24-0.42c0.7-0.02,1.41,0.45,2.11,0.69c-0.65,0.57-1.31,1.14-1.97,1.7
			c-0.05,0.04-0.15,0.02-0.22,0.03c-2.24,0.46-5.36,0.18-6.53,1.56c-2.22,2.61-3.33,6.18-4.9,9.34c0.16,0.15,0.32,0.3,0.48,0.45
			c2.1-0.63,4.25-1.14,6.31-1.9c5.81-2.18,7.82-0.81,8.09,5.38c0.18,4.23-2.62,6.49-5.13,8.99c-0.22-0.1-0.43-0.21-0.65-0.31
			c0.55-1.24,0.96-2.56,1.67-3.69c1.62-2.57,0.82-5.25,0.42-7.86c-0.23-1.47-1.55-1.41-2.7-0.96c-2.98,1.17-5.94,2.38-8.91,3.57
			c-0.55,0.22-1.1,0.51-1.68,0.58c-1.42,0.17-2.28-0.36-1.71-1.92c1.09-2.98,2.28-5.93,3.43-8.89c0.24-0.61,0.5-1.21,0.94-2.29
			c-1.73,0.42-3.05,0.85-4.39,1.02c-0.62,0.08-1.31-0.36-1.97-0.56c0.36-0.58,0.58-1.46,1.09-1.67c1.57-0.66,3.29-0.95,4.85-1.6
			c0.87-0.37,1.61-1.13,2.3-1.81c0.73-0.72,1.34-1.56,2.01-2.35C804.55,320.78,805.08,321.62,805.85,322.86z"/>
		<path d="M689.28,284.71c0.35-0.61,0.6-1.34,1.08-1.81c2.61-2.54,4.15-5.7,5.72-9.05c-4.58,0.27-5.28-0.69-3.69-4.84
			c0.47-1.23,1.09-2.46,1.88-3.5c1.28-1.7,2.94-2.76,5.59-1.68c-0.3-2.36-0.55-4.37-0.81-6.5c-3.07,0.48-5.62,2.54-8.94,1.45
			c2.16-3.04,5.19-3.16,7.59-3.74c0.72-1.08,1.17-2.06,1.92-2.68c0.2-0.17,1.31,0.76,2.22,1.32c0.55-0.14,1.41-0.47,2.28-0.55
			c0.59-0.05,1.2,0.25,1.81,0.39c-0.32,0.62-0.48,1.46-0.98,1.79c-0.77,0.52-1.78,0.7-3.03,1.14c2.3,10.94-3.58,19.2-9.44,27.44
			c-0.51,0.71-1.68,0.95-2.54,1.4C689.72,285.11,689.5,284.91,689.28,284.71z M698.44,267.32c-0.26-0.3-0.82-0.95-1.38-1.61
			c-0.9,1.36-1.86,2.68-2.62,4.11c-0.12,0.23,0.63,1.31,1.06,1.36C697.02,271.38,698.39,269.73,698.44,267.32z"/>
		<path d="M659.81,270.88c0.97-1.92,1.93-3.83,3-5.95c-0.91,0.23-1.79,0.45-3.38,0.84c0.37-1.07,0.44-1.97,0.92-2.49
			c0.58-0.63,1.46-1.15,2.3-1.33c2.49-0.52,4.38-1.75,5.69-3.95c0.18-0.31,0.86-0.31,1.31-0.46c0.04,0.47,0.18,0.96,0.1,1.4
			c-0.1,0.58-0.37,1.12-0.57,1.68c1.26,0.53,2.43,1.36,3.66,1.46c1.21,0.1,2.47-0.67,3.73-0.8c0.82-0.09,2.18,0.01,2.43,0.49
			c0.57,1.08,0.69,2.43-0.79,3.25c-0.41,0.22-0.95,0.73-0.93,1.09c0.08,2.1-0.91,2.77-2.89,2.65c-0.39-0.02-0.93,0.77-1.22,1.28
			c-2.31,4.01-4.54,8.05-6.88,12.04c-0.32,0.54-1.11,0.79-1.69,1.17c-0.39-0.6-1.1-1.2-1.13-1.82c-0.12-2.77-0.05-5.56-0.05-8.34
			c0.28-0.02,0.56-0.04,0.85-0.07c0.27,2.06,0.53,4.13,0.8,6.19c0.27,0.05,0.53,0.09,0.8,0.14c1.79-3.57,3.82-7.04,5.29-10.73
			c1.22-3.06-0.23-5.17-2.9-4.93c-0.65,0.06-1.42,0.45-1.84,0.95c-1.25,1.48-2.34,3.1-3.53,4.64c-0.63,0.81-1.34,1.57-2.01,2.35
			C660.5,271.38,660.16,271.13,659.81,270.88z"/>
		<path d="M718.01,361.51c-0.33,4.57-3.22,6.57-6.86,5.38c-1.38-0.45-1.99-1.32-1.15-2.49c1.11-1.54,2.37-3.07,3.87-4.2
			c1.15-0.87,1.67-1.55,0.98-3.06c-1.62,0.67-3.23,1.4-4.89,1.98c-0.52,0.18-1.18-0.04-1.77-0.07c0.31-0.51,0.51-1.17,0.96-1.49
			c0.91-0.64,1.91-1.19,2.95-1.59c1.8-0.7,3.11-1.56,1.77-3.99c-1.36,0.21-2.95,0.45-4.53,0.69c-0.09-0.22-0.19-0.43-0.28-0.65
			c0.41-0.44,0.75-1.09,1.26-1.28c1.67-0.63,3.75-0.73,3.56-3.36c0-0.07,1.41-0.5,1.6-0.28c0.89,1.03,1.7,0.73,2.79,0.41
			c0.81-0.24,1.79,0.13,3.18,0.29c-4.63,3.92-4.63,3.92-3.78,5.62c1.98-0.72,3.99-1.45,6.38-2.32c-0.44,2.9-2.39,3.04-3.95,3.74
			c-0.89,0.4-2.09,0.91-2.37,1.66c-0.64,1.7,0.49,2.96,2.41,3.04c2.16,0.09,4.34,0,6.48,0.27c0.69,0.09,1.82,1.06,1.81,1.6
			c-0.03,1.46-1.24,1.26-2.35,1.1C723.41,362.11,720.71,361.84,718.01,361.51z M715.37,361.52c-1.23,1-2.16,1.76-3.5,2.86
			C714.32,364.77,715.67,364.58,715.37,361.52z"/>
		<path d="M798.18,298.52c-2.46,0.42-4.79,0.82-7.12,1.23c-0.12-0.3-0.25-0.59-0.37-0.89c0.85-0.53,1.64-1.22,2.56-1.57
			c1.87-0.72,3.98-0.98,5.68-1.97c1.38-0.81,2.31-2.39,3.38-3.68c0.42-0.51,0.56-1.43,1.07-1.66c0.84-0.39,1.86-0.37,2.81-0.53
			c-0.06,0.7-0.04,1.42-0.22,2.09c-0.18,0.7-0.56,1.35-0.89,2.13c4.21,1.02,8.41-2.7,12.39-0.22c0.02,0.34,0.04,0.68,0.06,1.02
			c-1.26,0.22-2.52,0.42-3.78,0.67c-3.29,0.65-6.6,1.21-9.84,2.05c-0.82,0.21-1.56,1.24-2.08,2.06c-3.08,4.85-6.04,9.76-9.15,14.59
			c-0.36,0.56-1.38,0.69-2.1,1.01c-0.08-0.86-0.52-1.93-0.17-2.56c2.12-3.86,4.44-7.61,6.66-11.42
			C797.49,300.12,797.8,299.31,798.18,298.52z"/>
		<path d="M857.14,351.96c0.98,0.43,2.08,0.69,2.89,1.33c1.03,0.81,1.78,1.41,3.32,1.02c3.69-0.92,7.46-1.54,11.22-2.13
			c0.79-0.12,1.69,0.42,2.54,0.65c-0.61,0.58-1.13,1.5-1.84,1.68c-3.01,0.78-6.08,1.33-9.13,1.98c-0.56,0.12-1.11,0.33-1.36,0.4
			c0.71,3.64,1.39,7.07,2.11,10.72c4.46-2.1,9.36-0.22,14.22-0.41c0.4-0.02,0.82,0.55,1.23,0.84c-0.43,0.29-0.84,0.81-1.28,0.83
			c-2.01,0.1-4.05,0.28-6.03,0.02c-4.76-0.63-8.81,0.36-12.26,3.94c-0.86,0.89-2.63,0.95-4.02,1.23c-0.35,0.07-1.15-0.47-1.16-0.74
			c0-0.48,0.33-1.08,0.72-1.43c0.48-0.44,1.16-0.66,1.74-1c3.49-2.04,4-3.41,3.36-7.39c-0.58-3.63-2.6-6.28-5.14-8.69
			c-0.63-0.59-1.11-1.34-1.66-2.02C856.79,352.52,856.97,352.24,857.14,351.96z"/>
		<path d="M799.66,441.48c0.05,3.28-2.05,4.45-3.74,5.68c-1.21,0.89-2.85,1.21-4.32,1.71c-1.97,0.67-2.62-0.42-3.93-1.92
			c-2.11-2.41-0.32-4.36-0.37-7.06c-1.1,0.41-2.1,0.49-2.67,1.03c-2.56,2.39-4.99,4.93-7.5,7.37c-1.01,0.98-2.09,1.91-3.24,2.72
			c-0.35,0.25-1.05-0.01-1.59-0.03c0.11-0.54,0.07-1.2,0.37-1.59c0.73-0.94,1.66-1.71,2.43-2.62c4.51-5.35,8.97-10.74,13.52-16.06
			c0.84-0.99,1.98-1.72,2.97-2.57c1.33,1.29,0.97,2.32,0.12,3.35c-1.64,1.97-3.27,3.95-5.08,6.12c0.6,0.09,0.94,0.21,1.28,0.18
			c2.04-0.17,2.59,0.92,2.55,2.75c-0.03,1.41,0.23,2.83,0.26,4.25c0.03,1.99,1.17,2.1,2.51,1.4c1.18-0.61,2.19-1.54,3.27-2.33
			C797.4,443.17,798.32,442.47,799.66,441.48z"/>
		<path d="M771.7,270.95c-1.43,0.72-2.68,1.43-4,1.98c-2.47,1.03-4.91,2.23-7.49,2.88c-4.08,1.03-6.56-1.43-5.75-5.56
			c0.61-3.16,0.15-5.85-2.31-8.11c-0.91-0.84-1.54-1.98-2.29-2.98c2.5-1.9,3.03-1.82,4.77,0.52c0.53,0.71,1.08,1.41,1.62,2.13
			c0.18,0.23,0.32,0.49,0.51,0.79c2.25-2.7,4.29-5.23,6.42-7.68c0.94-1.08,2.22-2.87,3.59-1.6c1.46,1.36-0.67,2.44-1.5,3.31
			c-3.3,3.47-5.63,7.49-7.28,11.94c-0.28,0.76-0.44,1.59-0.49,2.4c-0.16,2.54,1.09,3.47,3.42,2.5c2.4-1.01,4.74-2.17,7.13-3.23
			C769.77,269.48,770.08,269.55,771.7,270.95z"/>
		<path d="M883.98,179.33c0.93,2.92,2.07,5.79,2.72,8.77c0.62,2.82,0.69,5.77,1.06,8.65c0.59,4.56-1.03,8.64-2.5,12.81
			c-1.48,4.21-2.66,8.53-3.98,12.8c-0.09,0.29-0.09,0.66-0.28,0.84c-0.5,0.48-1.07,0.87-1.62,1.3c-0.19-0.66-0.69-1.4-0.54-1.97
			c1.25-4.75,2.25-9.61,4.07-14.14c1.55-3.87,2.05-7.77,1.95-11.75c-0.11-4.31-0.82-8.6-1.3-12.9c-0.07-0.57-0.43-1.11-0.55-1.69
			c-0.17-0.8-0.23-1.62-0.34-2.44C883.1,179.51,883.54,179.42,883.98,179.33z"/>
		<path d="M752.28,427.52c-1.88,0.2-3.22,0.43-4.55,0.43c-0.52,0-1.04-0.51-1.56-0.79c0.33-0.53,0.56-1.37,1.02-1.52
			c1.11-0.37,2.34-0.63,3.5-0.56c1.47,0.08,1.83-0.46,1.74-1.81c-0.07-0.96,0.13-1.95,0.2-2.92c0.29-0.04,0.58-0.08,0.87-0.12
			c0.25,0.82,0.72,1.65,0.7,2.46c-0.05,1.61,0.56,2.07,2.12,2.03c0.88-0.02,1.78,0.55,2.66,0.85c-0.92,0.45-1.82,0.97-2.78,1.33
			c-0.53,0.2-1.15,0.15-1.77,0.21c-0.45,2.13-0.97,4.15-1.26,6.2c-0.07,0.51,0.42,1.36,0.9,1.63c1.67,0.97,3.52,1.64,5.15,2.68
			c0.59,0.37,1.17,1.61,0.97,2.18c-0.41,1.22-1.41,0.84-2.38,0.31c-1.93-1.07-3.94-2-5.89-2.97c-0.95,1.78-1.6,3.29-2.51,4.62
			c-0.95,1.39-2.07,1.25-2.99-0.18c-2.25-3.49-0.62-7.02,3.42-7.55c0.48-0.06,1.22-0.45,1.31-0.81
			C751.61,431.46,751.88,429.64,752.28,427.52z M749.94,436.94c-0.13-0.21-0.26-0.41-0.39-0.62c-0.69,0.17-1.97,0.3-1.98,0.51
			c-0.06,0.97,0.23,1.97,0.4,2.95c0.24,0,0.48,0.01,0.72,0.01C749.1,438.84,749.52,437.89,749.94,436.94z"/>
		<path d="M667.27,337.13c-1.34,2.37-2.47,4.38-3.67,6.5c-2.93-2.56-2.82-7.64-0.25-9.63c2.26-1.74,2.3-1.85,2.07-4.92
			c-1.6-0.08-3.6,0.99-4.99-1.79c1.82-0.31,3.45-0.59,4.87-0.84c0.52-1.13,0.99-2.15,1.46-3.16c0.54,0.77,1.08,1.53,1.73,2.46
			c1.16-0.22,2.6-0.57,4.07-0.72c0.52-0.05,1.1,0.39,1.65,0.6c-0.35,0.58-0.56,1.43-1.07,1.67c-0.99,0.46-2.19,0.46-3.22,0.87
			c-0.84,0.33-2.18,0.93-2.22,1.48c-0.12,1.63-1.07,3.65,1.16,4.78c1.38,0.7,2.72,1.49,4.52,2.47c-0.53,0.79-0.89,1.88-1.63,2.26
			c-0.54,0.28-1.6-0.29-2.35-0.65C668.58,338.11,667.84,337.51,667.27,337.13z"/>
		<path d="M741.98,404.98c0.33-2.74,2.49-4.61,3.56-7.28c-1.65,0.85-3.28,1.75-4.97,2.51c-0.6,0.27-1.35,0.22-2.03,0.31
			c0.34-0.64,0.51-1.52,1.04-1.89c1.4-0.98,2.92-1.8,4.45-2.57c2.36-1.18,5.08-1.82,6.22-4.64c0.08-0.21,0.48-0.31,0.75-0.41
			c0.11-0.04,0.27,0.08,0.29,0.08c0.42,3.26,0.91,6.46,1.23,9.68c0.44,4.44-1.18,8.38-3.34,12.11c-0.43,0.75-1.39,1.19-2.1,1.78
			c-0.43-0.79-1.12-1.54-1.22-2.37c-0.19-1.68-0.06-3.4,0.46-5.12c0.46,1.29,0.92,2.57,1.53,4.3c2.64-4.95,2.78-9.67,1.24-14.8
			c-2.09,2.93-4.19,5.87-6.28,8.8C742.54,405.31,742.26,405.15,741.98,404.98z"/>
		<path d="M660.16,305.42c-0.95,1.87-1.66,3.6-2.69,5.14c-0.43,0.65-1.51,0.87-2.3,1.29c-0.01-0.79-0.28-1.68,0-2.35
			c2.61-6.18,5.3-12.34,8.04-18.46c0.31-0.68,1.12-1.14,1.7-1.7c0.12,0.8,0.52,1.69,0.31,2.4c-0.62,2.07-1.36,4.12-2.27,6.07
			c-1.07,2.3-0.94,4.39,0.75,6.22c1.64,1.77,3.69,1.78,5.76,0.73c1.7-0.86,3.37-1.8,5.3-2.84c0.7,2.58-1.64,3.41-2.94,4.11
			C666.11,309.12,663.53,309.61,660.16,305.42z"/>
		<path d="M741.98,185.24c2.63-0.94,4.19,0.25,5.06,2.25c0.82,1.89,1.46,3.92,1.76,5.95c1.29,8.62,1.07,17.12-2.69,25.2
			c-0.45,0.96-1.2,1.78-1.81,2.66c-0.28-0.09-0.56-0.18-0.84-0.27c0.26-1.36,0.38-2.77,0.81-4.08c2.15-6.55,3.08-13.2,2.04-20.08
			c-0.18-1.18-0.08-2.4-0.27-3.58C745.45,189.58,744.88,188.5,741.98,185.24z"/>
		<path d="M752.03,347.45c0.85,2.31,1.48,4.04,2.11,5.77c0.22-0.04,0.44-0.08,0.67-0.11c1.29-3.64,2.05-7.4,1.92-11.3
			c-0.02-0.53-0.7-1.48-1.04-1.46c-0.78,0.04-1.88,0.33-2.26,0.91c-1.35,2.05-2.38,4.3-3.67,6.39c-0.51,0.83-1.38,1.44-2.09,2.15
			c-0.24-0.2-0.49-0.39-0.73-0.59c1.09-2.11,2.19-4.23,3.42-6.62c-1.49,0.64-2.68,1.15-3.88,1.67c0.16-2.36,1.91-2.98,3.3-3.95
			c1.2-0.84,2.3-1.99,3.63-2.44c1.26-0.42,2.84-0.36,4.14,0.01c0.7,0.2,1.52,1.44,1.58,2.26c0.37,5.25-1.07,10.19-2.98,15
			c-0.26,0.66-0.78,1.31-1.36,1.73c-0.32,0.23-1.4,0.07-1.45-0.1C752.57,353.97,750.94,351.28,752.03,347.45z"/>
		<path d="M784.51,407.91c2.91-1.64,5.98-2.23,9.28-1.68c5.07,0.84,5.7,3.41,3.91,7.28c-2.32,5.02-6.07,9.02-10.92,11.81
			c-0.85,0.49-1.97,0.5-2.96,0.73c-0.18-0.29-0.35-0.58-0.53-0.87c1.09-1.09,2.06-2.35,3.31-3.22c3.59-2.54,6.73-5.4,8.41-9.63
			c0.98-2.47,0.27-4.13-2.36-4.16c-1.86-0.03-3.78,0.46-5.59,0.98C785.7,409.53,784.72,409.77,784.51,407.91z"/>
		<path d="M859.08,252.32c-0.46,7.76-0.91,15.29-1.36,22.82c0.26,0.09,0.53,0.17,0.79,0.26c1.06-0.74,2.06-1.6,3.21-2.17
			c1.04-0.52,2.23-0.71,3.36-1.05c0.12,0.21,0.23,0.42,0.35,0.63c-2.05,2.17-4,4.44-6.19,6.46c-1.01,0.93-2.97-0.08-3.14-1.65
			c-0.36-3.18-0.76-6.39-0.61-9.57c0.2-4.14,0.91-8.26,1.43-12.39C857.09,254.25,857.38,252.87,859.08,252.32z"/>
		<path d="M726.71,248.11c-0.19,0.62-0.28,1.28-0.57,1.84c-1.49,2.92-3.35,5.7-4.44,8.76c-0.85,2.39-0.88,5.1-1.08,7.68
			c-0.13,1.63,1.03,2.22,2.37,1.6c2.14-0.99,4.17-2.22,6.2-3.43c0.95-0.57,1.77-1.35,2.64-2.04c0.25,0.24,0.49,0.49,0.74,0.73
			c-1.22,1.5-2.21,3.29-3.7,4.43c-1.8,1.39-3.94,2.45-6.08,3.27c-2.39,0.92-4.6-0.64-4.79-3.03c-0.61-7.69,2.66-13.9,7.43-19.55
			c0.18-0.22,0.45-0.36,0.68-0.53C726.3,247.94,726.51,248.02,726.71,248.11z"/>
		<path d="M560.99,201.87c0.83,0.85,1.95,1.57,2.44,2.59c2.52,5.29,3.81,10.88,2.91,16.74c-0.53,3.43-1.43,6.81-2.37,10.15
			c-0.3,1.05-1.29,1.89-1.97,2.83c-0.25-0.12-0.5-0.24-0.75-0.36c0.2-1.52,0.2-3.09,0.62-4.54c2.25-7.8,2.63-15.57-0.02-23.34
			c-0.41-1.22-1.09-2.34-1.65-3.51C560.46,202.24,560.73,202.05,560.99,201.87z"/>
		<path d="M892.91,218.48c-0.51-3.01-0.02-6.05,1.2-8.77c1.57-3.51,1.61-6.99,1.26-10.66c-0.44-4.63-0.65-9.29-0.97-13.94
			c0.29-0.11,0.58-0.21,0.87-0.32c0.46,0.85,1.21,1.67,1.32,2.57c0.64,5.48,1.16,10.97,1.63,16.47c0.08,0.93-0.25,1.92-0.52,2.84
			c-0.91,3.08-1.85,6.14-2.83,9.2c-0.31,0.96-0.79,1.86-1.19,2.78C893.42,218.59,893.17,218.54,892.91,218.48z"/>
		<path d="M845.64,445.6c2.21-0.29,3.77-0.49,5.9-0.77c-2.48,3.02-4.96,4.08-6.96,3.24c-0.56-0.23-1.29-0.89-1.32-1.39
			c-0.3-5.12-0.49-10.24-0.67-15.36c-0.03-0.97-0.02-1.96,0.16-2.9c0.09-0.48,0.6-0.87,0.91-1.31c0.48,0.37,1.26,0.68,1.37,1.14
			c0.22,0.92,0.04,1.93,0.08,2.9C845.27,435.91,845.45,440.68,845.64,445.6z"/>
		<path d="M758.2,212.89c4.72-9.71,6.18-19.21,1.64-29.53c0.8-1.04,2.04-0.83,2.64,0.53c0.94,2.13,1.94,4.41,2.08,6.68
			c0.29,4.76,0.48,9.62-1.24,14.21c-0.88,2.34-2.11,4.56-3.33,6.76C759.66,212.14,758.81,212.45,758.2,212.89z"/>
		<path d="M848.23,392.75c2.7-0.71,5.38-1.54,8.12-2.1c4.96-1.02,9.94-1.92,14.94-2.76c0.64-0.11,1.4,0.42,2.1,0.66
			c-0.49,0.66-0.84,1.66-1.49,1.91c-1.26,0.49-2.5,2.22-4.11,0.45c-0.19-0.21-0.98,0.12-1.49,0.23c-5.1,1.06-10.19,2.2-15.31,3.14
			c-0.9,0.17-1.95-0.49-2.93-0.77C848.12,393.25,848.17,393,848.23,392.75z"/>
		<path d="M585.28,228.04c0.23-1.04,0.61-2.06,0.67-3.11c0.34-6.18,0.58-12.36,0.93-18.54c0.06-1.01,0.48-1.99,0.73-2.98
			c0.24,0.01,0.48,0.02,0.72,0.03c0.22,0.59,0.62,1.18,0.63,1.77c0.07,5.87,0.29,11.76-0.05,17.61c-0.11,1.91-1.76,3.74-2.7,5.6
			C585.9,228.3,585.59,228.17,585.28,228.04z"/>
		<path d="M861.68,338.25c-2.31,1.8-5.07,2.69-7.92,2.53c-1.13-0.06-2.81-1.45-3.12-2.55c-0.77-2.75-1.03-5.67-1.22-8.54
			c-0.08-1.24-1.28-3.49,1.16-3.57c2.19-0.07,1.14,2.13,1.37,3.35c0.47,2.49,0.79,5,1.24,7.5c0.22,1.22,0.94,1.74,2.26,1.49
			c2-0.38,4.03-0.62,6.05-0.92C861.57,337.78,861.63,338.01,861.68,338.25z"/>
		<path d="M651.48,338.61c1.41-0.88,2.28-1.42,3.21-2c-0.04,2.68-2.05,4.97-4.77,5.56c-2.29-4.63-0.7-17.31,2.88-18.97
			c-0.29,2.72-0.58,5.15-0.79,7.59C651.8,333.22,651.67,335.66,651.48,338.61z"/>
		<path d="M698.22,290.85c2.96,0,4.92,4.25,3.31,6.97c-0.63,1.06-1.6,2-2.6,2.75c-1.47,1.11-2.93,0.67-3.88-0.96
			c-0.15-0.26-0.21-0.62-0.43-0.77c-1.14-0.81-2.31-1.67-1.36-3.25C694.49,293.52,695.46,291.07,698.22,290.85z M697.28,298.67
			c2.75-1.5,3.08-3.82,1.22-5.26c-0.27-0.21-1.55,0.26-1.55,0.42C696.95,295.31,697.13,296.81,697.28,298.67z"/>
		<path d="M850.2,410.62c0.55-0.4,0.82-0.77,1.11-0.78c7.8-0.44,15.34-2.07,22.68-4.7c0.28-0.1,0.68,0.16,1.77,0.44
			c-1.01,0.92-1.56,1.82-2.32,2.05c-4.2,1.26-8.41,2.6-12.7,3.42c-2.82,0.54-5.8,0.29-8.71,0.3
			C851.51,411.36,851,410.95,850.2,410.62z"/>
		<path d="M756.34,324.36c1.05-2.27,2.16-4.51,3.11-6.81c0.76-1.86,1.43-3.77,1.92-5.71c0.17-0.66-0.13-1.96-0.56-2.13
			c-0.68-0.27-1.83-0.11-2.44,0.34c-1.31,0.96-2.4,2.22-3.59,3.35c-0.46,0.44-0.94,0.87-1.63,1.12c0.58-2.64,2.41-4.41,4.44-5.85
			c1.12-0.79,2.66-1.14,4.06-1.34c1.42-0.2,2.1,0.69,2.09,2.21c-0.04,3.71-1.35,7.01-3.11,10.16c-1.01,1.81-2.2,3.51-3.31,5.26
			C757.01,324.76,756.68,324.56,756.34,324.36z"/>
		<path d="M711.52,343.03c0.45-0.91,0.89-1.83,1.36-2.73c2.83-5.46,4.07-11.2,3.11-17.36c-0.1-0.66,0.56-1.43,0.87-2.15
			c0.55,0.51,1.53,0.99,1.56,1.53c0.18,2.82,0.66,5.8,0,8.46c-0.96,3.86-2.75,7.53-4.32,11.22c-0.3,0.71-1.22,1.15-1.85,1.72
			C712,343.49,711.76,343.26,711.52,343.03z"/>
		<path d="M736.64,438.94c1.48-1.28,2.58-2.23,3.67-3.18c0.2,0.15,0.41,0.3,0.61,0.44c-0.49,0.91-0.86,1.9-1.48,2.7
			c-0.92,1.17-1.96,2.26-3.05,3.27c-0.36,0.34-1.07,0.5-1.57,0.41c-0.25-0.04-0.53-0.84-0.51-1.28c0.25-4.77,0.47-9.54,0.91-14.29
			c0.1-1.04,1.02-2.01,1.56-3.01c0.3,0.12,0.59,0.25,0.89,0.37c-0.34,2.35-0.82,4.7-0.99,7.06
			C736.5,433.8,736.64,436.18,736.64,438.94z"/>
		<path d="M656.99,396.08c-0.25-3.65-0.48-6.98-0.72-10.31c-0.11-1.49-0.43-2.99-0.32-4.46c0.05-0.71,0.87-1.37,1.34-2.05
			c0.42,0.51,1.14,0.98,1.23,1.54c0.43,2.87,0.7,5.77,1,8.66c0.09,0.82,0.01,1.66,0.19,2.45
			C660.2,393.98,659.25,395.13,656.99,396.08z"/>
		<path d="M887.33,264.53c-3.54-2.97-5.96-6.72-7.23-11.21c-0.1-0.37,0.41-1.27,0.73-1.32c0.64-0.11,1.64-0.03,1.99,0.39
			c0.84,1.02,1.39,2.27,2.05,3.43c1.02,1.78,1.84,3.73,3.11,5.3C889.18,262.61,889.29,263.52,887.33,264.53z"/>
		<path d="M743.09,383.3c-1.97-4.44-1.99-8.57-0.74-12.74c0.13-0.45,0.97-0.68,1.48-1.02c0.13,0.53,0.39,1.06,0.37,1.58
			c-0.1,2.87-0.67,5.78,0.73,8.49c1.84,0.09,3.09-2.29,5.71-0.83C747.94,380.39,745.64,381.77,743.09,383.3z"/>
		<path d="M708.78,332.5c-0.18-3.7-0.39-7.28-0.47-10.87c-0.01-0.33,0.92-1.05,1.14-0.95c0.5,0.23,1.08,0.78,1.19,1.29
			c0.36,1.79,0.54,3.62,0.78,5.36c0.89-0.45,1.65-0.83,2.63-1.31C713.65,329.71,712.09,331.7,708.78,332.5z"/>
		<path d="M816.8,303.31c-4.02,0.6-8.04,1.24-12.08,1.76c-0.4,0.05-0.88-0.56-1.33-0.87c0.33-0.33,0.61-0.89,0.99-0.96
			c3.57-0.68,7.14-1.36,10.74-1.84c0.64-0.08,1.4,0.75,2.1,1.17C817.08,302.82,816.94,303.06,816.8,303.31z"/>
		<path d="M872.62,435.99c-1.55-2.89-2.72-4.96-3.75-7.09c-0.28-0.58-0.11-1.36-0.15-2.05c0.74,0.12,1.85-0.03,2.15,0.4
			c1.38,1.96,2.67,4.03,3.67,6.21C874.73,433.86,873.45,434.94,872.62,435.99z"/>
		<path d="M880.77,328.15c-0.7,0.82-1.08,1.62-1.48,1.63c-0.62,0.01-1.48-0.35-1.83-0.84c-1.27-1.81-2.43-3.71-3.51-5.64
			c-0.27-0.47-0.37-1.46-0.09-1.72c0.36-0.33,1.51-0.44,1.74-0.17C877.36,323.54,878.98,325.78,880.77,328.15z"/>
		<path d="M805.09,311.23c0.98-0.29,1.59-0.64,2.19-0.62c2.24,0.06,4.48,0.18,6.71,0.4c0.47,0.05,0.95,0.59,1.27,1.02
			c0.09,0.12-0.31,0.79-0.63,0.98C813.1,313.93,807,312.95,805.09,311.23z"/>
		<path d="M792.37,392.49c2.2,1.9,4.27,3.65,6.26,5.46c0.22,0.2,0.22,0.97,0.02,1.2c-0.29,0.33-0.87,0.59-1.32,0.57
			c-1.41-0.05-5.51-4.54-5.54-6.02C791.77,393.46,792.01,393.21,792.37,392.49z"/>
		<path d="M732,246.11c2.21,2.91,0.11,8.94-3.4,9.56C729.76,252.41,730.8,249.48,732,246.11z"/>
		<path d="M762.87,373.79c-0.76,0.83-1.11,1.48-1.65,1.71c-0.33,0.14-1.09-0.23-1.4-0.59c-0.91-1.08-1.73-2.24-2.49-3.43
			c-0.23-0.36-0.35-1.12-0.15-1.33c0.35-0.36,1.28-0.75,1.47-0.57C760.08,370.86,761.39,372.28,762.87,373.79z"/>
		<path d="M759.43,297.43c-1.32-1.19-2.68-2.17-3.67-3.44c-0.39-0.5,0.02-1.63,0.07-2.47c0.73,0.21,1.55,0.28,2.16,0.68
			c0.66,0.44,1.09,1.21,1.68,1.79C760.79,295.1,760.77,296.16,759.43,297.43z"/>
		<path d="M762.46,340.36c0.45-0.63,0.9-1.25,1.35-1.86c0.48,0.44,1.06,0.81,1.42,1.33c0.54,0.79,1.22,1.66,1.3,2.55
			c0.07,0.74-0.62,1.55-0.98,2.33c-0.6-0.35-1.43-0.55-1.76-1.08C763.21,342.71,762.94,341.61,762.46,340.36z"/>
		<path d="M760.85,398.1c-0.47,0.53-1,1.14-1.54,1.75c-0.47-0.54-1.06-1.01-1.37-1.62c-0.47-0.91-0.93-1.9-1.02-2.89
			c-0.06-0.63,0.56-1.32,0.87-1.98c0.57,0.36,1.36,0.58,1.65,1.09C760.02,395.46,760.31,396.63,760.85,398.1z"/>
		<path d="M736.35,246.13c0.17,1.89,0.41,3.29,0.35,4.68c-0.02,0.43-0.88,1.14-1.36,1.14c-0.42,0.01-1.17-0.77-1.21-1.25
			C734,249.17,733.88,247.52,736.35,246.13z"/>
		<path d="M770.74,247.85c0.74,1.53,1.37,2.5,1.62,3.56c0.08,0.36-0.79,0.94-1.22,1.42c-0.58-0.98-1.28-1.91-1.67-2.96
			C769.34,249.55,770.04,248.92,770.74,247.85z"/>
		<path d="M774.37,249.54c-0.01-1.87-0.27-3.48,1.53-4.45C777.06,247.07,776.69,248.29,774.37,249.54z"/>
		<path d="M673.85,320.39c-0.52-0.87-1.04-1.74-1.56-2.6c0.14-0.21,0.29-0.41,0.43-0.62c0.7,0.25,1.69,0.32,2.03,0.82
			c0.35,0.53,0.08,1.47,0.08,2.24C674.51,320.28,674.18,320.33,673.85,320.39z"/>
		<path class="vol1_3_st0" d="M526.22,267.87c-3.31,0.88-6.61,1.75-10.12,2.68c-0.07-1.49-0.13-2.78-0.19-4.07
			c-0.22-0.12-0.43-0.24-0.65-0.37c-0.47,0.63-1.05,1.2-1.39,1.89c-0.52,1.03-0.83,3.04-1.31,3.06c-2.09,0.12-4.21-0.32-6.31-0.6
			c-0.48-0.06-0.95-0.52-1.39-0.48c-6.48,0.64-11.39-2.77-16.2-6.33c-4.95-3.67-6.17-9.29-6.92-14.83
			c-1.33-9.77-2.08-19.61-3.24-29.41c-0.88-7.41-2.12-14.79-3.07-22.2c-0.96-7.5-0.21-14.77,3.45-21.55
			c0.32-0.59,0.45-1.27,0.77-1.85c1.72-3.08,3.81-5.21,7.87-5.19c6.8,0.04,13.59-0.58,20.4-0.76c5.45-0.14,10.9,0.09,16.35-0.05
			c5.75-0.15,11.48-0.65,17.23-0.81c5.22-0.14,10.44-0.03,15.94-0.03c-1.42,3.47-2.84,6.96-4.26,10.44
			c-2.48,6.06-5.49,11.97-7.3,18.23c-1.63,5.62-2.21,11.6-2.8,17.47c-0.86,8.64-1.37,17.31-1.92,25.97c-0.28,4.48-0.05,9-0.53,13.46
			c-0.31,2.92-1.14,5.9-2.33,8.59c-1.59,3.58-5.38,4.5-8.67,5.86c-1.1,0.45-2.31,0.63-3.46,0.92c0.04-2.97,0.27-5.95,0.05-8.9
			c-0.17-2.37-1.07-4.67-1.34-7.04c-0.96-8.7-2.03-17.4-2.62-26.13c-0.76-11.2-1.12-22.43-1.59-33.66
			c-0.28-6.65-0.43-13.31-0.73-19.96c-0.03-0.62-0.75-1.21-1.15-1.81c-0.32,0.63-0.94,1.26-0.93,1.88
			c0.23,10.7,0.56,21.39,0.83,32.08c0.08,3.37-0.12,6.75,0.1,10.11c0.5,7.69,1.11,15.37,1.81,23.04c0.46,4.99,1.05,9.97,1.78,14.92
			c0.62,4.21,1.64,8.36,2.22,12.58C524.78,266.36,524.99,267.31,526.22,267.87z M505.12,267.11c-1.51-7.41-3.21-14.69-4.43-22.04
			c-1.55-9.35-2.99-18.73-3.95-28.15c-0.74-7.28-0.74-14.64-0.94-21.97c-0.22-7.84-0.27-15.68-0.46-23.53
			c-0.01-0.59-0.52-1.16-0.8-1.74c-0.38,0.53-1.08,1.06-1.08,1.6c-0.07,7.02-0.15,14.04-0.01,21.06c0.09,4.33,0.92,8.67,0.78,12.98
			c-0.39,11.86,0.54,23.6,2.7,35.24c1.56,8.44,3.38,16.82,5.06,25.24C502.32,267.42,503.31,267.59,505.12,267.11z"/>
		<path class="vol1_3_st0" d="M847.26,157.87c1.29-1.52,2.06-2.43,2.93-3.46c0.32,0.41,0.62,0.65,0.74,0.96
			c1.93,5.22,5.98,8.44,10.52,11.21c2.76,1.69,4.73,4.31,5.07,7.33c0.96,8.63,1.58,17.37-0.09,25.97
			c-1.14,5.89-3.03,11.64-7.93,15.72c-6.24,5.22-12.32,10.84-20.28,13.25c-7.06,2.14-14.37,3.26-21.83,2.98
			c-1.56-0.06-2.14-0.63-2.28-2.28c-1.04-11.81-0.88-23.65-0.4-35.45c0.36-8.95,1.73-17.85,2.51-26.79
			c0.24-2.75,0.11-5.54-0.04-8.31c-0.03-0.6-0.87-1.16-1.34-1.73c-0.28,0.52-0.77,1.03-0.82,1.57c-0.7,7.29-1.47,14.59-1.96,21.9
			c-0.55,8.36-1.06,16.73-1.18,25.1c-0.11,7.69,0.32,15.39,0.5,23.08c0.02,0.88,0,1.76,0,2.63c-8.89,0.65-11.92-1.89-13.65-9.98
			c-2.06-9.62-0.79-19.23,0.01-28.85c0.58-7.01,1-14.04,1.62-21.05c0.4-4.58,1.56-9,4.01-12.93c2.02-3.24,4.57-5.36,8.92-5.18
			c9.57,0.39,19.16,0.22,28.73,0.53C843.39,154.19,846.94,152.65,847.26,157.87z M836.7,226.85c0.14-0.19,0.28-0.37,0.41-0.56
			c0-8.81-0.19-17.63,0.07-26.43c0.17-5.74,1.41-11.46,1.39-17.19c-0.03-7.38,0.78-14.62,1.89-21.87c0.12-0.81,0.21-1.68,0.03-2.45
			c-0.12-0.5-0.74-1.16-1.19-1.2c-0.39-0.04-1.17,0.67-1.22,1.11c-0.74,6.45-1.47,12.9-2.02,19.37c-0.39,4.54-0.52,9.1-0.72,13.65
			c-0.45,10.29-0.89,20.58-1.27,30.88c-0.03,0.93,0.17,1.99,0.62,2.79C835.1,225.72,836,226.22,836.7,226.85z"/>
		<path class="vol1_3_st0" d="M697.72,158.12c4.56-0.35,9.6-0.78,14.64-1.07c0.63-0.04,1.52,0.42,1.93,0.93
			c3.97,5.05,8.68,9.73,11.62,15.33c5.74,10.93,8.16,22.78,5.88,35.2c-0.57,3.08-2.14,5.65-4.45,7.88c-3.21,3.1-6.47,6.22-9.2,9.72
			c-2.84,3.63-6.33,5.03-10.71,4.86c-0.9-0.03-1.85-0.17-2.68,0.08c-2.1,0.63-2.71-0.38-3.21-2.2c-2.74-10.11-2.88-20.35-2.25-30.75
			c0.58-9.55,0.58-19.16,0.43-28.73C699.66,165.74,698.47,162.13,697.72,158.12z"/>
		<path class="vol1_3_st0" d="M676.82,159.94c5.54-0.38,10.82-0.85,16.11-1.06c2.44-0.1,3.44,2.03,3.59,3.92
			c0.48,5.96,0.95,11.95,0.79,17.91c-0.22,8.38-1.48,16.74-1.42,25.11c0.05,6.91,1.29,13.82,2.14,20.72
			c0.31,2.55-1.88,5.62-4.52,5.73c-3.81,0.16-7.62,0.14-11.42,0.36c-1.42,0.08-1.88-0.43-1.98-1.69
			c-0.59-7.67-1.54-15.34-1.73-23.02c-0.34-13.33-0.15-26.66-0.34-40C678,165.36,677.28,162.81,676.82,159.94z"/>
		<path class="vol1_3_st0" d="M675.76,192.52c0,6.59-0.26,13.2,0.08,19.77c0.31,6.03,1.21,12.04,1.95,18.05c0.32,2.56,0.31,2.9-2.23,2.68
			c-2.94-0.25-5.97-0.57-8.73-1.51c-4.35-1.48-6.11-5.15-6.14-9.53c-0.03-6.81,0.24-13.63,0.23-20.44c0-2.52-0.44-5.04-0.7-7.56
			c-0.09-0.89-0.4-1.77-0.41-2.66c-0.1-7.86-0.29-15.73-0.16-23.59c0.09-6.04,0.5-6.31,6.41-6.98c2.08-0.24,4.19-0.21,6.27-0.44
			c1.34-0.15,1.81,0.4,2.19,1.6c1.66,5.26,1.38,10.66,1.37,16.04c-0.01,4.86,0,9.72,0,14.59
			C675.84,192.52,675.8,192.52,675.76,192.52z"/>
		<path class="vol1_3_st0" d="M811.94,151.04c0.43-1.58,0.66-2.89,1.13-4.1c1.22-3.21,2.47-6.41,3.86-9.55c1.08-2.45,2.35-4.83,3.62-7.18
			c1.19-2.2,3.03-3.33,5.63-3.31c5.75,0.06,11.49-0.09,17.24,0.04c2.96,0.06,3.31,0.63,3.33,3.53c0.03,6.21,0.04,12.43,0.13,18.64
			c0.03,2.01-0.66,2.62-2.77,2.53c-9.63-0.39-19.28-0.56-28.92-0.79C814.3,150.82,813.41,150.95,811.94,151.04z"/>
		<path class="vol1_3_st0" d="M678.23,234.74c0.27,1.08,0.55,2.16,0.8,3.24c0.27,1.15,0.67,2.48,2.04,2.02c0.47-0.16,0.51-1.95,0.51-3
			c0-0.59-0.48-1.19-1.01-2.36c4.97-0.24,9.52-0.46,14.53-0.7c-0.99,4.17-1.85,7.99-2.83,11.77c-0.12,0.46-0.8,1.01-1.3,1.1
			c-3.44,0.62-6.9,1.19-10.37,1.62c-0.53,0.07-1.55-0.55-1.68-1.03c-1.11-4.08-1.99-8.22-1.44-12.48
			C677.74,234.87,677.98,234.8,678.23,234.74z"/>
		<path class="vol1_3_st0" d="M667,157.01c2.61-3.56,5.32-6.92,10.33-7.22c3.8-0.23,7.59-0.62,11.38-1.02c1.82-0.19,3,0.53,3.79,2.12
			c0.68,1.37,1.43,2.71,2.32,4.4c-9.51,0.83-18.56,1.62-27.61,2.41C667.14,157.46,667.07,157.24,667,157.01z"/>
		<path class="vol1_3_st0" d="M507.62,284.91c-0.42-4.08-0.82-7.97-1.26-12.18c2.37,0,4.43-0.07,6.48,0.06c0.36,0.02,0.79,0.8,0.99,1.3
			c0.35,0.9,0.55,1.86,0.82,2.79c1.36,4.88,0.82,5.9-4.02,7.41C509.79,284.55,508.9,284.65,507.62,284.91z"/>
		<path class="vol1_3_st0" d="M816.44,233.86c5.15-0.55,9.92-1.05,14.72-1.56c-0.49,4.89-1.02,5.54-5.3,6.49
			c-2.33,0.52-4.67,0.98-6.99,1.52c-1.46,0.34-2.12-0.24-2.2-1.67C816.6,237.02,816.52,235.4,816.44,233.86z"/>
		<path class="vol1_3_st0" d="M510.28,161.36c1.07-1.11,1.94-2.76,3.24-3.22c2.1-0.76,4.48-0.97,6.75-0.99c1.89-0.01,3.61,3.43,2.65,5.09
			c-0.25,0.43-1.24,0.66-1.87,0.62c-3.4-0.19-6.79-0.5-10.18-0.76C510.67,161.85,510.47,161.61,510.28,161.36z"/>
		<path class="vol1_3_st0" d="M821.56,576.57c-3.24-1.24-2.27-3.77-2.45-5.94c-0.34-4.17-0.86-8.33-1.15-12.51
			c-0.07-0.99,0.46-2.03,0.75-3.04c0.21-0.73,0.46-1.44,0.7-2.16c-0.71,0.11-1.42,0.25-2.13,0.34c-0.65,0.08-1.62,0.41-1.93,0.1
			c-3.17-3.18-7.24-4.18-11.42-4.65c-11.39-1.28-22.82-2.25-34.2-0.02c-10.43,2.05-19.95,6.36-28.29,12.95
			c-3.96,3.12-5.05,7.85-5.13,12.7c-0.05,2.99,0.45,5.98,0.49,8.97c0.08,5.77,0.19,11.66-3.18,16.69c-3.47,5.18-8.47,8.34-14.8,8.22
			c-3.99-0.07-8.06-0.81-11.91-1.9c-4.45-1.26-8.31-3.48-10.91-7.87c-1-1.68-2.73-3.1-3.56-5.13c-1.68-4.13-1.85-8.41-1.78-12.79
			c0.05-3.28-0.39-6.55-0.48-9.84c-0.1-3.57-0.18-7.16-0.02-10.73c0.05-1.21,0.86-2.39,1.52-4.08c-1.17,0.23-1.77,0.35-2.46,0.49
			c-0.12-0.33-0.2-0.76-0.4-1.12c-2.13-3.74-5.66-5.8-9.48-7.13c-7.62-2.65-14.26-6.85-19.95-12.45c-1.65-1.63-2.48-4.15-3.44-6.37
			c-0.15-0.35,0.9-1.57,1.62-1.88c8.45-3.61,15.77-9.08,23.34-14.12c0.25-0.17,0.55-0.31,0.71-0.54c2.79-4,7.05-4.86,11.42-4.93
			c9.63-0.16,19.27,0.05,28.91-0.02c13.18-0.1,26.35-0.48,39.53-0.41c9.49,0.05,18.98,0.57,28.46,1.01
			c9.92,0.45,19.7-0.2,29.31-2.86c2.44-0.68,4.94-1.24,7.45-1.61c8.08-1.19,15.59-3.97,22.71-7.91c1.69-0.94,3.7-1.47,5.11-2.7
			c5.49-4.8,11.04-9.58,16.1-14.82c4.82-4.99,9.18-5.87,15.69-3.79c6.67,2.13,7.54,7.44,8.8,12.8c0.51,2.17,0.49,4.47,0.95,6.66
			c0.91,4.35-1.3,7-4.7,9c-5.72,3.37-11.64,6.42-17.17,10.07c-3.62,2.4-7.05,5.32-9.9,8.59c-1.69,1.94-2.56,4.93-3,7.58
			c-1.23,7.38-2.06,14.82-3,22.25c-0.7,5.56-0.95,11.21-2.09,16.68c-1.39,6.69-2.43,13.64-6.66,19.34
			c-1.28,1.73-3.04,3.35-4.94,4.32c-3.51,1.8-7.23,3.26-10.96,4.56c-6.81,2.37-7.66,2.09-10.42-4.3c-1.72-4-2.58-8.38-3.72-12.62
			C819.15,578.24,819.21,576.82,821.56,576.57z"/>
		<path class="vol1_3_st0" d="M715.03,446.68c-1.46,3.77-2.85,7.93-4.68,11.9c-1.36,2.97-3.51,5.57-4.87,8.54
			c-1.33,2.9-2.26,6.01-3.08,9.11c-1.46,5.47-4.64,10.02-7.59,14.69c-3.51,5.55-6.97,11.14-10.79,16.47
			c-1.7,2.37-3.99,4.49-6.41,6.14c-5.36,3.65-10.78,7.31-16.54,10.26c-9.84,5.05-20.03,9.34-31.03,11.33
			c-2.11,0.38-4.18,0.98-6.27,1.47c-0.05,0.01-0.12-0.08-0.24-0.17c2.52-7.8,1.84-15.89,1.82-23.92c0-1.83-1.07-2.71-2.72-2.41
			c-4.98,0.91-9.99,1.76-14.87,3.08c-3.72,1.01-7.2,2.87-10.88,4.08c-3.14,1.04-4.16,3.46-4.6,6.26c-0.71,4.51-1.12,9.06,0.24,13.55
			c0.08,0.25-0.04,0.56-0.09,1.1c-4.01-0.19-7.94-0.49-11.88-0.54c-8.21-0.1-16.25-1.52-24.11-3.59
			c-7.97-2.11-16.28-3.84-22.71-9.58c-2-1.78-3.36-4.29-4.92-6.54c-3.83-5.52-7.9-10.91-11.33-16.68
			c-4.71-7.92-6.08-16.78-5.79-25.89c0.17-5.38,0.53-10.76,0.84-16.13c0.05-0.88,0.14-1.86,0.56-2.6c0.29-0.52,1.29-1.12,1.76-0.98
			c5.91,1.78,11.87,1.96,17.95,1.12c8.55-1.18,17.14-0.68,25.74-0.6c4.76,0.04,9.56-0.59,14.27-1.35
			c12.19-1.96,24.41-3.73,36.75-4.15c8.66-0.3,17.34,0.3,26.01,0.14c7.91-0.15,15.81-0.78,23.72-1.21c4.84-0.26,9.68-0.61,14.53-0.8
			c6.94-0.26,13.89-0.29,20.82-0.65C701.46,447.81,708.28,447.18,715.03,446.68z M653.49,472.55c-0.25-1.84-0.49-3.83-0.81-5.81
			c-0.55-3.39-2.66-5.69-5.81-6.45c-3.05-0.74-5.53,1.07-7.28,3.47c-4.36,5.98-5.18,12.73-3.76,19.83c0.15,0.75,0.96,1.47,1.64,1.97
			c1.37,1.01,2.88,1.83,4.3,2.78c3.44,2.31,7.08,1.41,9.01-2.12C653.1,481.98,653.17,477.35,653.49,472.55z M586.05,481.57
			c0.44-5.62-1.9-10.37-4.64-14.96c-1.27-2.12-6.58-2.54-8.2-0.63c-1.18,1.39-2.07,3.06-2.94,4.68c-2.03,3.79-1.97,7.84-1.5,12.01
			c0.46,4.07,1.16,7.42,5.59,9.48c5.88,2.74,10.84-0.93,11.26-6.13C585.73,484.53,585.9,483.05,586.05,481.57z M615.19,493.12
			c0.03-2.75-1.77-4.91-4.12-4.94c-1.96-0.03-3.06,1.13-3.06,3.23c0,2.44,1.92,3.88,5.19,4.01
			C614.91,495.49,615.17,494.44,615.19,493.12z"/>
		<path class="vol1_3_st0" d="M512.34,439.57c3.34-0.45,6.27-1.01,9.23-1.21c8.21-0.54,16.43-0.85,24.64-1.39
			c11.12-0.73,22.25-1.4,33.34-2.48c5.32-0.52,10.58-1.81,15.83-2.92c4.82-1.02,9.55-2.46,14.38-3.37
			c11.43-2.16,22.86-4.33,34.36-6.06c5.89-0.89,11.92-0.82,17.88-1.26c2.75-0.2,5.49-0.79,8.24-0.85
			c5.37-0.13,10.76,0.18,16.12-0.07c10.2-0.47,20.4-1.21,31.08-1.88c0,2.56,0.13,5.51-0.03,8.44c-0.29,5.38-0.83,10.74-1.11,16.12
			c-0.09,1.67-1.15,1.59-2.23,1.86c-8.51,2.18-17.22,1.82-25.88,2.02c-8.74,0.2-17.49,0.17-26.23,0.41
			c-8.66,0.24-17.35,1.34-25.97,0.94c-13.34-0.63-26.57-0.1-39.79,1.4c-10.76,1.21-21.49,2.65-32.26,3.67
			c-5.34,0.51-10.76,0.16-16.14,0.43c-6.26,0.32-12.51,1.2-18.77,1.27c-4.28,0.05-8.59-0.76-12.85-1.45
			c-0.93-0.15-2.22-1.36-2.39-2.26C513.11,447.3,512.81,443.59,512.34,439.57z M606.26,436.19c-1.28-2.51-2.65-1.8-3.87-1.38
			c-2.04,0.71-3.87,1.43-5.17-1.31c-0.65-1.38-1.93-0.85-3.03-0.01c0.4,0.87,0.76,1.65,1.22,2.64c-2.41,0.43-4.61,0.75-6.76,1.24
			c-0.49,0.11-0.84,0.81-1.25,1.24c0.53,0.19,1.06,0.57,1.58,0.55c1.84-0.08,3.68-0.3,5.7-0.48c-1.19,4.01-5.99,2.7-8.04,5.87
			c3.03,0.25,5.6,0.04,7.59-1.68c1.74-1.51,2.97-1.07,4.73-0.13c1.8,0.96,3.91,1.4,5.92,1.9c0.39,0.1,0.98-0.62,1.48-0.96
			c-0.35-0.42-0.64-0.92-1.07-1.23c-0.34-0.24-0.89-0.15-1.29-0.33c-2.09-0.94-4.55-1.36-5.74-3.86
			C600.96,437.56,603.46,436.91,606.26,436.19z M607.02,433.86c1.45,0.33,2.79,0.69,4.15,0.92c0.3,0.05,0.86-0.32,0.97-0.63
			c0.13-0.34,0.02-0.93-0.21-1.21C611.12,431.96,607.95,432.42,607.02,433.86z"/>
		<path class="vol1_3_st0" d="M710.94,373.11c0.49,1.91,1,3.68,1.38,5.48c1.7,8.04,3.4,16.08,5.02,24.14c0.59,2.93,1.07,5.9,1.4,8.87
			c0.25,2.24-1.43,3.82-3.75,4.13c-13.09,1.77-26.24,1.65-39.4,1.63c-5.5-0.01-11.01,0.73-16.51,1.2c-5.8,0.5-11.62,0.91-17.39,1.68
			c-6.42,0.86-12.83,1.91-19.18,3.2c-8.33,1.69-16.56,3.87-24.9,5.54c-9.23,1.84-18.5,3.46-27.95,3.9
			c-5.97,0.28-11.91,1.08-17.87,1.49c-10.2,0.69-20.41,1.11-30.6,1.94c-3.66,0.3-7.25,1.45-11.26,2.29c-3-11-2.3-22.89-3.31-35.25
			c5.62,2.35,10.7,4.48,15.78,6.59c8.18,3.4,15.69,8.02,23.2,12.66c1.86,1.15,3.68,1.25,5.68,0.16c6.63-3.6,13.72-5.9,21.23-6.61
			c10.64-1,21.3-2.12,31.97-2.49c10.96-0.39,21.95,0.2,32.92,0.08c5.52-0.06,11.03-0.76,16.54-1.17c0.97-0.07,1.94-0.09,2.9-0.18
			c3.28-0.32,6.24-0.9,8.83-3.55c4.21-4.31,9.19-7.86,13.46-12.12c9.2-9.15,20.15-15.89,30.75-23.12
			C710.1,373.41,710.4,373.34,710.94,373.11z M703.69,408.88c2.17-0.24,3.17-0.91,2.41-3.07c-0.34-0.96-0.23-2.07-0.35-3.1
			c-0.49-4.15-0.92-8.31-1.53-12.44c-0.29-1.95-1.53-2.48-3.01-1.4c-3.18,2.33-6.49,4.56-9.4,7.2c-2.35,2.14-4.27,4.78-6.22,7.32
			c-0.48,0.63-0.31,1.75-0.43,2.64c0.98-0.24,1.95-0.48,2.93-0.74c0.13-0.03,0.23-0.19,0.32-0.31c1.91-2.44,3.65-5.03,5.76-7.28
			c2.07-2.22,4.51-4.09,7.23-6.51C702.23,397.63,702.96,403.22,703.69,408.88z M519.29,421.33c0.97,0.53,1.66,0.9,2.35,1.28
			c3.78,2.09,7.54,4.23,11.37,6.23c0.57,0.3,1.5-0.12,2.27-0.2c-0.39-0.68-0.61-1.65-1.19-1.99c-3.71-2.18-7.48-4.25-11.28-6.28
			c-1.43-0.76-2.96-1.39-4.5-1.91c-0.96-0.32-2.11-0.32-1.91,1.23c0.47,3.6,1.02,7.19,1.56,10.79c0.01,0.09,0.24,0.15,0.8,0.47
			C520.68,427.99,519.85,424.93,519.29,421.33z"/>
		<path class="vol1_3_st0" d="M687.77,563.21c0.2,0.22,0.37,0.32,0.37,0.42c0.18,6.8,0.4,13.6,0.49,20.41c0.06,4.82,1.22,9.31,3.61,13.47
			c1.74,3.03,0.05,7.32-3.45,7.79c-6.06,0.82-12.16,1.5-18.26,1.81c-8.06,0.4-16.16,0.27-24.23,0.6
			c-5.52,0.23-11.04,0.81-16.55,1.31c-2.56,0.24-4.89-0.2-6.29-2.47c-1.62-2.64-1.59-5.67,0.21-8.04c1.36-1.8,3.47-3.55,5.58-4.19
			c6.7-2.03,13.51-3.82,20.39-5.14c7.47-1.43,14.72-3.37,21.36-7.04c4.43-2.44,7.88-6.15,10.78-10.31
			C683.77,568.96,685.75,566.11,687.77,563.21z"/>
		<path class="vol1_3_st0" d="M815.59,558.28c0.25,1.44,0.64,3.06,0.78,4.71c0.33,3.8,0.47,7.61,0.83,11.41c0.15,1.64-0.59,2.51-1.74,3.53
			c-6.07,5.4-13.65,6.47-21.19,7.43c-4.5,0.58-9.09,0.58-13.64,0.57c-3.33-0.01-6.5-0.8-9.03-3.3c-1.57-1.55-1.5-3.15-0.55-4.86
			c1.94-3.5,4.98-4.68,8.92-4.8c5.03-0.15,10.15-0.44,15.02-1.58c3.21-0.76,6.15-2.96,9.01-4.83
			C807.89,564.01,811.58,561.16,815.59,558.28z"/>
		<path class="vol1_3_st0" d="M604.15,523.56c-0.12,1.07-0.45,2.16-0.33,3.2c0.35,3.12,0.88,6.21,1.32,9.31c0.1,0.73,0.12,1.47,0.21,2.51
			c-3.07,0-5.96,0.1-8.83-0.09c-0.53-0.04-1.38-1.24-1.41-1.94c-0.2-4.91-0.27-9.82-0.25-14.73c0-0.62,0.61-1.55,1.18-1.8
			c7.3-3.28,14.76-6.06,22.74-7.17c0.74-0.1,1.49-0.07,2.24-0.15c1.53-0.16,1.98,0.61,1.9,2c-0.2,3.8-0.2,7.62-0.58,11.41
			c-0.3,3.02-1,6-1.6,8.98c-0.42,2.06-1.84,2.96-3.88,3.04c-2.17,0.09-4.33,0.21-6.49,0.34c-1.35,0.08-1.72-0.62-1.92-1.88
			c-0.56-3.54-1.24-7.07-2.01-10.57c-0.2-0.92-0.89-1.73-1.36-2.59C604.76,523.47,604.45,523.51,604.15,523.56z"/>
		<path class="vol1_3_st0" d="M595.88,540.71c2.73,0,4.98,0.19,7.18-0.05c2.4-0.27,2.83,0.97,2.78,2.87c-0.01,0.37-0.06,0.75-0.08,1.12
			c-0.08,1.51,0.99,2.13,2.13,1.94c0.58-0.1,1.28-1.28,1.37-2.04c0.16-1.28-0.12-2.61-0.22-4.03c3.16-0.28,6.02-0.53,9.28-0.82
			c-0.35,0.89-0.5,1.67-0.92,2.26c-3.01,4.26-7.05,7.34-11.72,9.5c-1.49,0.69-3.37,0.82-5.03,0.69c-0.84-0.07-2.03-1.14-2.31-2
			C597.36,547.12,596.71,543.99,595.88,540.71z"/>
		<path class="vol1_3_st0" d="M799.17,274.65c-0.8-0.29-2.43-0.8-3.98-1.47c-1.14-0.49-1.06-1.23-0.19-2.07c2.8-2.73,6.33-3.57,10.02-3.63
			c0.59-0.01,1.79,1.81,1.69,2.66C806.5,271.94,801.99,274.72,799.17,274.65z"/>
		<path class="vol1_3_st0" d="M798.99,367.76c-0.09,1.76,0.22,4.06-0.42,6.04c-0.67,2.09-2.07,4.04-3.5,5.74c-0.82,0.98-2.45,1.07-3.1-0.51
			c-0.75-1.82-1.79-3.81-1.65-5.64c0.28-3.64,2.18-6.77,4.86-9.28c0.61-0.57,1.85-0.96,2.59-0.74c0.57,0.17,0.92,1.39,1.19,2.21
			C799.14,366.13,798.99,366.78,798.99,367.76z"/>
		<path class="vol1_3_st0" d="M866.38,303.66c-0.39,1.38-0.78,2.76-1.17,4.15c-0.29,0.09-0.57,0.19-0.86,0.28c-0.63-0.98-2-2.37-1.73-2.87
			c0.52-0.98,1.97-1.48,3.03-2.17C865.89,303.25,866.13,303.45,866.38,303.66z"/>
		<path class="vol1_3_st0" d="M698.44,267.32c-0.05,2.41-1.43,4.06-2.94,3.87c-0.43-0.05-1.18-1.14-1.06-1.36
			c0.76-1.43,1.72-2.76,2.62-4.11C697.62,266.37,698.18,267.02,698.44,267.32z"/>
		<path class="vol1_3_st0" d="M715.37,361.52c0.3,3.06-1.04,3.25-3.5,2.86C713.21,363.29,714.14,362.52,715.37,361.52z"/>
		<path class="vol1_3_st0" d="M749.94,436.94c-0.42,0.95-0.84,1.9-1.26,2.85c-0.24,0-0.48-0.01-0.72-0.01c-0.17-0.99-0.46-1.98-0.4-2.95
			c0.01-0.21,1.29-0.34,1.98-0.51C749.67,436.53,749.81,436.74,749.94,436.94z"/>
		<path class="vol1_3_st0" d="M697.28,298.67c-0.15-1.86-0.33-3.35-0.33-4.85c0-0.16,1.28-0.63,1.55-0.42
			C700.36,294.84,700.03,297.16,697.28,298.67z"/>
		<path d="M526.22,267.87c-1.23-0.56-1.44-1.51-1.62-2.83c-0.58-4.21-1.6-8.37-2.22-12.58c-0.73-4.95-1.33-9.93-1.78-14.92
			c-0.7-7.67-1.31-15.35-1.81-23.04c-0.22-3.36-0.02-6.74-0.1-10.11c-0.27-10.69-0.59-21.39-0.83-32.08
			c-0.01-0.62,0.6-1.25,0.93-1.88c0.4,0.6,1.13,1.19,1.15,1.81c0.3,6.65,0.45,13.31,0.73,19.96c0.47,11.22,0.83,22.45,1.59,33.66
			c0.59,8.73,1.66,17.43,2.62,26.13c0.26,2.37,1.16,4.68,1.34,7.04c0.22,2.95-0.01,5.93-0.05,8.9
			C526.17,267.93,526.22,267.87,526.22,267.87z"/>
		<path d="M505.12,267.11c-1.81,0.47-2.8,0.31-3.12-1.32c-1.67-8.42-3.49-16.8-5.06-25.24c-2.16-11.64-3.09-23.37-2.7-35.24
			c0.14-4.31-0.69-8.65-0.78-12.98c-0.14-7.02-0.06-14.04,0.01-21.06c0.01-0.54,0.71-1.07,1.08-1.6c0.28,0.58,0.78,1.15,0.8,1.74
			c0.19,7.84,0.24,15.69,0.46,23.53c0.2,7.33,0.2,14.69,0.94,21.97c0.96,9.42,2.4,18.8,3.95,28.15
			C501.92,252.43,503.62,259.7,505.12,267.11z"/>
		<path d="M836.7,226.85c-0.69-0.62-1.59-1.13-2.02-1.9c-0.45-0.8-0.65-1.86-0.62-2.79c0.38-10.29,0.82-20.59,1.27-30.88
			c0.2-4.55,0.34-9.11,0.72-13.65c0.55-6.47,1.28-12.92,2.02-19.37c0.05-0.44,0.84-1.14,1.22-1.11c0.45,0.04,1.07,0.71,1.19,1.2
			c0.19,0.77,0.1,1.65-0.03,2.45c-1.12,7.25-1.93,14.49-1.89,21.87c0.03,5.73-1.22,11.45-1.39,17.19
			c-0.26,8.8-0.07,17.62-0.07,26.43C836.97,226.47,836.83,226.66,836.7,226.85z"/>
		<path d="M653.49,472.55c-0.32,4.8-0.39,9.43-2.71,13.67c-1.93,3.53-5.57,4.43-9.01,2.12c-1.42-0.95-2.93-1.77-4.3-2.78
			c-0.68-0.5-1.49-1.23-1.64-1.97c-1.42-7.1-0.6-13.85,3.76-19.83c1.75-2.4,4.23-4.21,7.28-3.47c3.15,0.76,5.26,3.07,5.81,6.45
			C653.01,468.72,653.24,470.72,653.49,472.55z"/>
		<path d="M586.05,481.57c-0.15,1.48-0.31,2.96-0.43,4.45c-0.43,5.2-5.38,8.87-11.26,6.13c-4.42-2.06-5.13-5.41-5.59-9.48
			c-0.47-4.17-0.53-8.21,1.5-12.01c0.87-1.63,1.76-3.29,2.94-4.68c1.62-1.92,6.93-1.49,8.2,0.63
			C584.15,471.19,586.49,475.94,586.05,481.57z"/>
		<path d="M615.19,493.12c-0.02,1.33-0.28,2.37-2,2.3c-3.26-0.13-5.19-1.58-5.19-4.01c0-2.1,1.1-3.26,3.06-3.23
			C613.42,488.21,615.22,490.36,615.19,493.12z"/>
		<path d="M606.26,436.19c-2.8,0.73-5.3,1.38-8,2.08c1.18,2.49,3.65,2.92,5.74,3.86c0.4,0.18,0.95,0.1,1.29,0.33
			c0.43,0.3,0.72,0.81,1.07,1.23c-0.5,0.34-1.09,1.06-1.48,0.96c-2.02-0.49-4.12-0.93-5.92-1.9c-1.76-0.94-3-1.38-4.73,0.13
			c-1.98,1.73-4.56,1.93-7.59,1.68c2.05-3.17,6.85-1.86,8.04-5.87c-2.02,0.18-3.86,0.4-5.7,0.48c-0.52,0.02-1.05-0.35-1.58-0.55
			c0.41-0.43,0.77-1.12,1.25-1.24c2.16-0.49,4.35-0.82,6.76-1.24c-0.46-1-0.81-1.77-1.22-2.64c1.09-0.84,2.37-1.37,3.03,0.01
			c1.3,2.74,3.13,2.02,5.17,1.31C603.61,434.38,604.98,433.68,606.26,436.19z"/>
		<path d="M607.02,433.86c0.93-1.44,4.1-1.91,4.91-0.93c0.24,0.29,0.34,0.88,0.21,1.21c-0.12,0.3-0.67,0.68-0.97,0.63
			C609.8,434.56,608.47,434.2,607.02,433.86z"/>
		<path d="M703.69,408.88c-0.73-5.66-1.46-11.25-2.29-17.69c-2.72,2.42-5.16,4.29-7.23,6.51c-2.11,2.25-3.85,4.84-5.76,7.28
			c-0.09,0.12-0.19,0.28-0.32,0.31c-0.97,0.26-1.95,0.5-2.93,0.74c0.13-0.89-0.04-2.02,0.43-2.64c1.95-2.55,3.87-5.18,6.22-7.32
			c2.91-2.65,6.21-4.87,9.4-7.2c1.48-1.09,2.73-0.56,3.01,1.4c0.6,4.13,1.03,8.29,1.53,12.44c0.12,1.04,0.01,2.15,0.35,3.1
			C706.87,407.97,705.87,408.64,703.69,408.88z"/>
		<path d="M519.29,421.33c0.56,3.6,1.39,6.66-0.54,9.62c-0.56-0.33-0.79-0.38-0.8-0.47c-0.54-3.59-1.1-7.18-1.56-10.79
			c-0.2-1.55,0.96-1.55,1.91-1.23c1.54,0.52,3.07,1.14,4.5,1.91c3.8,2.02,7.57,4.1,11.28,6.28c0.58,0.34,0.8,1.31,1.19,1.99
			c-0.77,0.08-1.7,0.5-2.27,0.2c-3.83-1.99-7.59-4.14-11.37-6.23C520.95,422.22,520.25,421.85,519.29,421.33z"/>
	</g>
</g>
</svg>
