<?xml version="1.0" encoding="utf-8"?>
<!-- Generator: Adobe Illustrator 26.3.1, SVG Export Plug-In . SVG Version: 6.00 Build 0)  -->
<svg version="1.1" xmlns="http://www.w3.org/2000/svg" xmlns:xlink="http://www.w3.org/1999/xlink" x="0px" y="0px"
	 viewBox="0 0 1366 768" style="enable-background:new 0 0 1366 768;" xml:space="preserve">
<style type="text/css">
	.vol1_2_st0{fill:#FFFFFF;}
	.vol1_2_st1{fill:none;stroke:#ffffff;stroke-width:269.2914;stroke-miterlimit:10;}
	.vol1_2_st2{fill:none;stroke:#ffffff;stroke-width:45.3543;stroke-miterlimit:10;}
	.vol1_2_st3{fill:none;stroke:#ffffff;stroke-width:31.1811;stroke-miterlimit:10;}
	.vol1_2_st4{fill:none;stroke:#ffffff;stroke-width:34.0157;stroke-miterlimit:10;}
</style>
<g id="base">
	<g>
		<path class="vol1_2_st0" d="M858,652.9c-116.67,0-233.33,0-350,0c0-178.97,0-357.93,0-536.9c116.67,0,233.33,0,350,0
			C858,294.97,858,473.93,858,652.9z M714.47,192.06c0.6,0.75,1.31,1.43,1.76,2.26c0.72,1.34,0.9,1.43,2.3,0.3
			c-0.88-1.1-1.77-2.21-2.63-3.28C715.37,191.61,714.92,191.84,714.47,192.06c0.25-0.61,0.5-1.23,0.87-2.15
			c-0.79-0.21-1.49-0.39-1.91-0.5c-0.49-0.67-0.92-1.26-1.36-1.86c-0.47,0.64-1.15,1.22-1.36,1.94c-0.31,1.04-0.34,2.17-0.36,3.27
			c0,0.44,0.36,0.89,0.56,1.34c0.16-0.03,0.32-0.05,0.48-0.08c0.22-1.37,0.43-2.74,0.73-4.63
			C713.15,190.55,713.81,191.31,714.47,192.06z M822.32,515.78c-0.32-5.36-0.61-10.72-0.95-16.08c-0.2-3.07-0.53-6.14-0.69-9.21
			c-0.29-5.85-0.48-11.71-0.76-17.56c-0.32-6.79-0.64-13.58-1.05-20.37c-0.29-4.84-1.03-9.6-3.18-14.03
			c-0.85-1.74-3.98-3.05-5.74-2.41c-0.41,0.15-0.82,0.31-1.24,0.47c0.18,0.17,0.36,0.34,0.55,0.5c1.84-0.02,3.76-0.06,5.02,1.52
			c0.7,0.87,1.03,2.07,1.4,3.17c1.66,4.96,1.84,10.14,2.06,15.29c0.16,3.77,0.07,7.55,0.22,11.32c0.25,6.48,0.61,12.95,0.91,19.43
			c0.29,6.18,0.56,12.36,0.85,18.53c0.04,0.87,0.02,1.8,0.33,2.58c1.46,3.66,1.4,7.35,0.62,11.12c-0.15,0.73,0.19,1.56,0.31,2.35
			c0.1-0.05,0.2-0.09,0.3-0.14c0.36-2.18,0.71-4.36,1.07-6.54c0.01,2.03,0.17,4.08,0,6.1c-0.48,5.57-1.17,11.13-1.66,16.71
			c-0.49,5.48-0.81,10.98-1.28,16.46c-0.49,5.64-1.19,11.27-1.57,16.92c-0.33,5-0.29,10.02-0.52,15.03
			c-0.32,6.97-0.84,13.93-1.09,20.9c-0.21,5.96-0.19,11.92-0.2,17.88c0,0.85,0.38,1.7,0.59,2.55c0.19-0.01,0.38-0.01,0.56-0.02
			c0.11-0.63,0.3-1.25,0.32-1.88c0.15-3.55,0.23-7.09,0.38-10.64c0.39-9.06,0.79-18.13,1.22-27.19c0.36-7.47,0.71-14.94,1.17-22.41
			c0.31-5.03,0.75-10.06,1.19-15.08c0.46-5.32,0.98-10.63,1.49-15.94c0.27-2.76,0.65-5.52,0.84-8.29c0.22-3.3,0.29-6.61,0.41-9.92
			C824.25,515.42,823.53,515.18,822.32,515.78z M785.13,613.21c0.3-0.4,0.82-0.79,0.87-1.22c0.59-5.58,1.21-11.16,1.64-16.75
			c0.4-5.2,0.54-10.42,0.86-15.63c0.4-6.34,0.95-12.68,1.29-19.03c0.24-4.41,0.07-8.85,0.39-13.25c0.56-7.8,1.44-15.58,2.03-23.38
			c0.43-5.61,0.64-11.24,0.9-16.86c0.19-4.15,0.35-8.3,0.45-12.44c0.1-4.33,0.14-8.65,0.15-12.98c0-5.34-0.06-10.68-0.1-16.02
			c-0.06-8.22-1.27-16.47,0.77-24.62c0.09-0.35-0.28-0.81-0.44-1.23c-0.39,0.24-1.01,0.41-1.13,0.75c-0.34,0.96-0.51,1.99-0.7,3
			c-0.3,1.58-0.77,3.16-0.82,4.75c-0.11,3.42,0,6.85,0.01,10.28c0,3.88-0.08,7.75,0,11.63c0.08,4.32,0.41,8.64,0.43,12.96
			c0.04,5.65-0.09,11.3-0.21,16.95c-0.04,1.68-0.37,3.35-0.42,5.02c-0.08,2.53,0.13,5.08-0.07,7.6c-0.58,7.05-1.36,14.09-1.97,21.14
			c-0.37,4.31-0.6,8.63-0.87,12.95c-0.17,2.72-0.31,5.44-0.4,8.17c-0.09,2.53-0.08,5.06-0.15,7.59c-0.08,2.89-0.11,5.79-0.31,8.68
			c-0.23,3.27-0.68,6.53-0.91,9.8c-0.21,2.92-0.21,5.85-0.36,8.77c-0.21,4.21-0.52,8.41-0.69,12.61c-0.14,3.59-0.15,7.19-0.2,10.79
			c-0.21,1.52-0.42,3.03-0.63,4.55c0.27,0.01,0.54,0.02,0.81,0.03C785.27,616.29,785.2,614.75,785.13,613.21z M713.24,181.72
			c0.03-0.22,0.18-0.56,0.08-0.66c-1.73-1.69-3.46-3.38-5.3-4.94c-0.2-0.17-1.45,0.36-1.63,0.8c-2.2,5.34-1.83,11.02-1.99,16.62
			c-0.04,1.38,0.16,2.64-0.8,4.08c-1.63,2.45-4.66,4.59-3.1,8.3c0.03,0.08-0.12,0.22-0.11,0.32c0.15,1.31,0.24,2.62,0.51,3.9
			c0.1,0.46,0.98,1.01,0.87,1.23c-0.6,1.27,0.62,1.6,1.05,2.31c0.22,0.37,0.64,0.64,0.77,1.03c1.04,3.28,2.54,6.34,4.67,9.01
			c1.95,2.45,4.18,4.69,6.41,7.17c-0.75,0.42-1.61,0.96-2.52,1.39c-2.2,1.05-2.26,1.14-1.14,3.38c0.15,0.31,0.35,0.6,0.49,0.92
			c1.11,2.51,3.66,3.22,5.38,4.26c-1.04,0.33-2.39,0.49-3.44,1.14c-1.85,1.14-3.53,2.56-5.25,3.91c-1.9,1.49-2.47,3.7-1.63,5.98
			c1.46,3.96,2.86,7.94,4.42,11.86c0.42,1.06,0.59,2.6,2.33,2.62c4.92,0.04,9.84,0.14,14.76,0.11c0.79,0,1.73-0.36,2.34-0.86
			c0.97-0.8,1.97-1.74,2.54-2.84c2.04-3.96,3.95-7.99,5.75-12.07c0.2-0.46-0.46-1.6-1.03-2.04c-1.49-1.17-3.24-2.01-4.72-3.19
			c-1.76-1.4-3.36-3.02-5.03-4.54c0.12-0.2,0.24-0.4,0.36-0.61c1.03,0.12,2.29-0.11,3.03,0.41c2.17,1.52,4.48,2.38,7.11,2.43
			c0.81,0.01,1.64-0.16,2.42-0.03c2.71,0.45,5.32-0.13,7.8-1.02c2.65-0.94,5.15-2.3,7.72-3.47c0.98,2.03,0.45,4.16-1.04,5.79
			c-3.12,3.41-7.16,5.82-9.87,9.73c-2.23,3.21-2.88,6.64-2.73,10.31c0.06,1.61,0.69,3.24,1.29,4.77c0.51,1.3,1.39,2.46,2.05,3.7
			c1.03,1.93,2.24,2.49,4.46,2.15c2.49-0.39,4.51-1.81,6.01-3.56c3.18-3.71,6.35-7.48,7.9-12.31c0.5-1.57,1.63-2.94,2.61-4.66
			c0.44,1.67,0.77,2.87,1.08,4.08c0.81,3.12,1.38,6.32,2.48,9.34c1.68,4.6,6.4,4.89,9.37,3.48c2.55-1.21,4.14-3.67,5.12-6.34
			c0.57-1.56-0.65-3.26-2.31-3.61c-0.74-0.15-1.54-0.18-2.2-0.49c-0.91-0.43-2.19-0.91-2.49-1.68c-0.76-1.95-1.04-4.09-1.57-6.14
			c-0.33-1.26,0.11-1.66,1.37-1.69c6.06-0.11,12.09,0.12,18.07,1.17c0.77,0.13,1.54,0.22,2.83,0.39c-2.02,1.72-3.64,3.11-5.27,4.48
			c-3.08,2.58-5.22,5.8-4.25,9.92c0.58,2.46,2.12,4.21,3.92,3.92c1.66-0.27,3.49-0.7,4.81-1.65c2.05-1.47,3.74-3.46,5.56-5.21
			c2.42,3.07,3.62,4.9,8.33,6.48c5.02,1.69,9.42,0.42,12.95-3.14c2.2-2.22,3.81-5.08,5.46-7.8c2.09-3.45,3.53-7.22,3.97-11.25
			c0.38-3.46,0.45-6.95,0.67-10.42c0.33-5.33,2-10.11,5.99-13.83c3.7-3.46,5.95-7.6,6.62-12.66c0.63-4.75-0.87-9.16-6.07-10.93
			c-2.22-0.76-4.79-1.53-6.98,0.33c-1.06,0.89-1.99,1.96-2.84,3.06c-3.18,4.12-5.77,8.57-7.13,13.65c-0.13,0.5-0.26,1.06-0.57,1.45
			c-0.27,0.34-0.8,0.69-1.2,0.67c-7.43-0.37-14.85-0.88-22.28-1.18c-2.71-0.11-5.44,0.22-8.17,0.38c-2.42,0.14-4.84,0.38-7.27,0.45
			c-2.7,0.08-5.4,0.02-8.54,0.02c1.07-2.02,2.12-3.46,2.64-5.07c1.18-3.69,2.4-7.41,3.04-11.21c0.6-3.57,1.23-7.44-3.11-9.69
			c-0.7-0.36-1.08-1.83-1.16-2.83c-0.31-3.97-0.4-7.96-0.69-11.94c-0.05-0.69-0.64-1.39-1.13-1.95c-0.12-0.14-0.97,0.15-1.29,0.45
			c-3.91,3.64-7.76,7.35-11.69,10.97c-0.53,0.49-1.53,0.86-2.21,0.73c-2.2-0.4-4.36-1.01-6.52-1.61c-4.22-1.17-8.52-1.74-12.88-1.61
			c-5.77,0.17-11.27,1.93-16.85,3.21c-3.34,0.77-3.34,0.76-5.25-2.21c-0.05-0.08-0.2-0.1-0.38-0.19c-0.37,0.28-0.77,0.58-1.14,0.86
			c0.18,2.03,2.92,2.1,3.02,4.14c0,0.05,0.5,0.08,0.86,0.13c-0.04-0.51-0.07-0.91-0.08-0.98c1.6-0.15,3.09-0.18,4.52-0.46
			c1.38-0.27,2.69-0.98,4.07-1.19c3.55-0.54,7.11-1.04,10.68-1.31c2.89-0.21,5.85-0.37,8.7,0.03c2.65,0.37,5.15,1.68,7.79,2.24
			c2.65,0.56,5.69,2.3,7.63-1.4c0.1-0.18,0.39-0.25,0.56-0.41c1.89-1.71,3.79-3.4,5.65-5.14c1.37-1.29,2.68-2.64,4.02-3.97
			c0.16,0.06,0.33,0.11,0.49,0.17c0,4.2,0,8.41,0,12.65c-1.11-0.05-2.15-0.1-3.23-0.15c-0.29-1.57-0.59-3.17-0.89-4.8
			c-2,0.83-3.52,2.8-3.15,4.18c0.7-0.57,1.33-1.09,2.21-1.81c0.13,1.76,0.24,3.27,0.36,4.91c-4.15,0.31-8.31,0.59-12.46,0.95
			c-1.61,0.14-3.2,0.54-4.81,0.68c-4.09,0.36-8.19,0.58-12.27,0.98c-5.94,0.58-11.87,1.26-17.81,1.92
			c-4.05,0.45-8.1,0.84-12.13,1.44c-2.73,0.41-5.41,1.14-8.12,1.71c-0.4,0.08-0.83,0.05-1.69,0.09c0.67-0.88,1.15-1.36,1.47-1.94
			c1-1.81,2.51-3.57,2.77-5.5c0.48-3.48,0.06-7.07,0.28-10.6c0.12-1.94,0.79-3.85,1.32-6.27c0.69,0.75,0.89,1.11,1.2,1.28
			c1.09,0.58,1.54,2.26,3.19,1.86c0.14,0.41,0.16,0.93,0.42,1.22c1.35,1.45,2.72,2.88,4.19,4.21c0.25,0.23,0.99-0.09,1.57-0.16
			c-0.69-1.03-1.04-2.04-1.74-2.49C715.41,183.18,715.25,180.99,713.24,181.72z M688.85,438.93l-0.04-0.04
			c0.51,0.2,1.02,0.55,1.53,0.57c2.84,0.07,5.69,0.1,8.54,0.07c4.98-0.06,9.95-0.2,14.93-0.25c4.7-0.05,9.39-0.03,14.09-0.04
			c3.67-0.01,7.34,0,11.02,0c1.17,3.44,0.77,6.96,0.47,10.46c-0.23,2.75-0.57,5.48-0.82,8.23c-0.25,2.75-0.36,5.52-0.72,8.26
			c-0.4,3.01-1.02,5.99-1.53,8.99c-0.47,2.76-0.87,5.54-1.41,8.28c-0.7,3.56-1.57,7.08-2.26,10.64c-0.72,3.71-1.42,7.42-1.92,11.16
			c-0.6,4.39-1.05,8.8-1.43,13.22c-0.4,4.78-0.71,9.58-0.94,14.38c-0.44,9.15-0.27,18.31-1.32,27.45
			c-0.74,6.47-0.31,13.08-0.37,19.63c-0.06,6.43-0.1,12.87-0.1,19.3c0,0.62,0.36,1.24,0.55,1.85c0.58-0.38,0.74-0.63,0.76-0.9
			c0.19-2.76,0.51-5.53,0.5-8.29c-0.04-7.59-0.33-15.17-0.3-22.76c0.02-4.1,0.5-8.2,0.74-12.3c0.36-6.13,0.8-12.26,1-18.39
			c0.32-9.61,0.63-19.22,2.18-28.73c0.74-4.52,1.28-9.07,2.09-13.57c0.87-4.84,2.1-9.62,2.93-14.46c1.13-6.63,2.22-13.29,2.95-19.97
			c0.81-7.42,2.02-14.86,0.65-22.52c2.45,0,4.88,0.12,7.29-0.05c1.5-0.11,2.39,0.33,3.03,1.66c0.77,1.6,2.06,2.51,3.89,2.01
			c1.83-0.5,3.61-1.18,5.41-1.79c2.17-0.73,4.16-2.24,6.64-1.66c0.06,0.23,0.11,0.34,0.11,0.45c-0.01,8.52,0.06,17.04-0.08,25.56
			c-0.04,2.4-0.77,4.78-1.08,7.19c-0.44,3.54-0.69,7.12-1.2,10.65c-0.54,3.81-1.41,7.58-1.89,11.4c-0.5,3.96-1.99,7.3-5.01,9.96
			c-0.66,0.58-1.09,1.43-1.78,2.36c2.82,0.86,3.21-1.7,4.75-2.81c-0.03,0.6-0.02,1.03-0.09,1.45c-0.5,2.91-1.02,5.81-1.54,8.72
			c-0.75,4.22-1.17,8.53-2.34,12.63c-1.93,6.79-2.88,13.67-3.23,20.69c-0.19,3.97-0.79,7.93-1.28,11.88
			c-0.24,1.94-0.8,3.85-0.9,5.79c-0.25,5.1,0.06,10.26-0.59,15.29c-0.55,4.28-0.14,8.29,0.92,12.35c0.32,1.22,0.92,2.46,0.86,3.66
			c-0.13,2.48-0.66,4.94-0.94,7.41c-0.07,0.65,0.17,1.34,0.26,2.01c0.23,0.01,0.46,0.02,0.68,0.03c0.19-0.67,0.49-1.33,0.55-2.02
			c0.22-2.61,0.36-5.22,0.51-7.84c0.02-0.4-0.06-0.81-0.13-1.21c-0.7-3.86-2.29-7.52-1.68-11.67c0.56-3.81,0.38-7.73,0.57-11.61
			c0.13-2.66,0.24-5.33,0.54-7.98c0.61-5.4,1.33-10.8,2.02-16.19c0.68-5.4,1.2-10.83,2.11-16.18c1-5.87,2.38-11.67,3.57-17.5
			c1.02-4.96,0.96-10.2,3.53-14.71c-0.3-0.68-0.61-1.39-0.5-2.04c0.54-3.2,1.28-6.36,1.77-9.57c0.8-5.28,1.33-10.61,2.22-15.88
			c1.17-6.86,1.47-13.73,1.22-20.67c-0.14-3.81-0.03-7.62-0.03-11.52c1.95,0,4.02,0.02,6.09-0.01c2.09-0.03,4.18-0.14,6.27-0.15
			c2.09-0.01,4.18,0.09,6.27,0.06c1.98-0.03,4.02,0.41,5.92-0.31c-0.01-0.2-0.02-0.41-0.03-0.61c-9.11,0-18.22,0-27.33,0
			c8.38-4.99,13.71-11.91,15-21.99c0.47,0.62,0.7,0.93,0.94,1.23c2.59,3.12,4.97,6.44,7.83,9.29c3.18,3.17,7.1,5.44,11.41,6.84
			c3.19,1.04,5.24,0.3,6.43-2.02c0.42-0.82,0.61-1.76,1.01-2.6c1.58-3.37,0.02-7.45-3.33-9.07c-4.65-2.25-9.31-4.49-13.81-7.02
			c-2.75-1.55-5-3.67-5.53-7.19c-0.32-2.14-1.23-4.18-1.88-6.27c-0.27-0.86-0.85-1.74-0.78-2.57c0.4-5.17-0.15-10.59,3.03-15.17
			c2.33-3.36,4.5-6.93,7.36-9.78c5.71-5.7,11.11-11.54,14.42-19.01c1.98-4.45,2.32-8.12-1.14-10.86c-1.9-1.5-4.01-3.27-6.61-2.24
			c-4.79,1.88-9.85,3.31-13.89,6.75c-3.69,3.14-7.62,6.03-10.01,10.46c-1.19,2.21-2.93,4.12-4.12,6.33
			c-1.42,2.64-3.65,2.3-5.97,2.13c-4.34-0.32-8.67-0.76-13.01-0.83c-5.46-0.08-10.93,0.11-16.4,0.27
			c-5.34,0.16-10.68,0.34-16.01,0.69c-2.3,0.15-4.56,0.88-6.86,1.13c-3.65,0.4-7.33,0.58-10.99,0.91
			c-4.49,0.41-8.99,0.84-13.19,2.59c-0.91,0.38-2.53,0.03-2.62,1.74c1.13-0.02,2.3,0.14,3.39-0.08c3.33-0.69,6.6-1.78,9.95-2.25
			c4.99-0.7,10.04-0.95,15.06-1.48c2.53-0.27,5.02-0.92,7.55-1.06c4.08-0.22,8.17-0.12,12.26-0.22c4.42-0.12,8.84-0.23,13.25-0.5
			c6.57-0.4,13.05,0.54,19.56,1.12c1.35,0.12,2.88,0.47,3.86-0.93c1.7-2.43,3.53-4.8,4.97-7.38c2.77-4.96,6.99-8.53,11.45-11.68
			c3.23-2.28,7.07-3.69,10.69-5.4c0.87-0.41,2-0.85,2.84-0.62c4.48,1.2,7.18,3.11,5.36,8.32c-2.12,6.09-5.63,11.4-10.14,16.07
			c-3.06,3.17-5.89,6.56-8.93,9.75c-5.36,5.61-6.71,12.65-7.14,19.98c-0.22,3.77,0.03,7.56-0.09,11.33
			c-0.06,1.86-0.46,3.71-0.73,5.71c-1.06-0.55-1.88-0.98-2.7-1.41c-0.14,0.15-0.27,0.31-0.41,0.46c0.61,0.69,1.28,1.33,1.81,2.08
			c0.32,0.45,0.67,1.13,0.57,1.6c-0.5,2.17-0.94,4.4-1.81,6.43c-1.14,2.64-2.5,5.21-4.06,7.63c-2.24,3.46-5.86,5.43-9.24,7.55
			c-1.22,0.77-2.9,0.98-4.41,1.11c-2.29,0.2-4.63-0.06-6.9,0.21c-1.35,0.16-2.23-0.1-2.92-1.18c-0.81-1.27-1.58-2.57-2.4-3.83
			c-1.86-2.87-4.02-5.58-5.56-8.61c-1.92-3.77-2.36-7.99-2.51-12.21c-0.1-2.78-1.02-4.24-3.65-4.77c-3.16-0.65-6.4-1.01-9.62-1.26
			c-2.54-0.19-5.13,0.18-7.66-0.06c-5.11-0.47-9.01,2.01-12.39,5.21c-3.46,3.28-6.59,6.94-9.58,10.66
			c-1.97,2.45-3.39,5.34-5.15,7.97c-1.7,2.53-3.48,5-5.32,7.42c-0.36,0.47-1.18,0.85-1.78,0.84c-3.24-0.04-6.49-0.48-9.7-0.27
			c-2.17,0.14-2.93-1.19-3.92-2.45c-0.53-0.68-0.86-1.51-1.23-2.31c-3.04-6.54-3.21-13.61-3.67-20.61
			c-0.24-3.58,0.06-7.19-0.08-10.78c-0.3-8.17-3.36-15.08-9.89-20.53c1.1-0.14,2.1-0.14,3.02-0.4c4.16-1.19,8.35-2.31,12.43-3.73
			c4.23-1.47,8.36-3.21,12.5-4.93c1.2-0.5,2.22-1.41,3.39-2c3.27-1.63,6.09-3.74,7.71-7.14c0.72-1.51,1.41-3.03,2.07-4.56
			c1.67-3.9,3.58-7.72,4.9-11.73c1.5-4.55-0.1-9.17-0.62-13.74c-0.13-1.18-0.14-1.54,1.09-1.67c0.42-0.04,0.75-0.86,1.13-1.32
			c-0.44-0.27-0.85-0.63-1.33-0.79c-0.41-0.13-0.89-0.03-1.24-0.03c-0.5-2.46-0.88-4.84-1.48-7.16c-0.45-1.71-1.14-3.37-1.83-5.01
			c-0.54-1.3-1.12-2.61-1.89-3.77c-1.19-1.79-2.75-0.1-4.13-0.26c-0.11-0.01-0.21-0.07-0.29-0.09c-0.71-3.48-1.42-6.93-2.11-10.4
			c-0.67-3.39-1.32-6.78-1.98-10.17c-0.24-1.24-1.31-1.54-2.37-0.52c-4.26,4.06-8.49,8.17-12.71,12.27
			c-2.74,2.66-5.42,5.39-8.22,7.99c-0.51,0.47-1.49,0.65-2.22,0.6c-1.24-0.08-2.46-0.46-3.69-0.71c-1.82-0.37-3.64-0.74-5.45-1.11
			c-2.66-0.54-5.3-1.3-7.99-1.58c-3.04-0.31-6.12-0.23-9.19-0.23c-3.46,0-6.98-0.31-10.35,0.24c-5.15,0.83-10.21,2.27-15.46,3.49
			c-0.06-0.07-0.32-0.31-0.52-0.59c-2.67-3.94-5.29-7.92-8.02-11.83c-2.76-3.94-5.57-7.84-9.74-10.51
			c-1.07-0.68-1.52-0.34-1.77,0.59c-0.58,2.1-1.17,4.21-1.55,6.35c-1.23,6.78-2.33,13.57-3.54,20.35c-0.51,2.87-1.07,5.74-1.79,8.56
			c-0.85,3.35-2.07,6.65-1.65,10.16c0.51,4.22,0.82,8.55,2.04,12.58c1.13,3.71,3.07,7.27,5.17,10.57c1.84,2.89,4.4,5.32,6.48,7.77
			c-0.66,0.54-1.57,1.31-2.52,2.04c-0.2,0.16-0.55,0.22-0.81,0.18c-1.59-0.25-3.27-0.31-4.75-0.86c-5.52-2.06-8.82-6.46-11.48-11.44
			c-0.62-1.16-1.11-2.4-1.74-3.56c-1.36-2.48-2.64-5.03-4.22-7.37c-1.04-1.54-3.05-2.55-3.75-4.17c-2.06-4.83-4.47-9.71-5.29-14.81
			c-1.18-7.34-1.22-14.89-1.49-22.36c-0.14-3.94,0.8-7.82,4.03-10.39c3.35-2.66,6.91-5.16,10.67-7.19
			c7.74-4.18,15.77-7.82,23.5-12.03c5.36-2.92,9.98-6.85,14.08-11.49c6.42-7.28,9.5-16.24,13.06-24.94
			c1.62-3.96,2.33-8.31,3.36-12.5c1.54-6.24,2.03-12.45,0.26-18.81c-1.64-5.88-4.08-11.14-8.72-15.27
			c-5.15-4.6-10.57-8.7-16.87-11.71c-5-2.39-9.73-5.36-14.53-8.15c-3.44-2-6.91-3.94-10.99-2.27c-2.5,1.02-4.92,2.33-7.22,3.76
			c-2.05,1.28-3.92,2.85-5.82,4.37c-1.18,0.94-2.27,2.01-3.4,3.02c0.54,0.19,0.94,0.15,1.23-0.06c2.95-2.14,5.83-4.37,8.83-6.44
			c5.85-4.05,9.57-5.3,15.39-1.87c5.3,3.13,10.7,6.09,15.97,9.27c4.22,2.55,8.31,5.31,12.44,7.98c5.43,3.51,8.96,8.48,11.24,14.47
			c3.17,8.29,2.07,16.58-0.02,24.81c-1.05,4.14-2.59,8.16-4,12.21c-1.95,5.6-4.4,10.96-7.49,16.04
			c-4.37,7.18-10.33,12.71-17.56,16.81c-4.69,2.66-9.67,4.8-14.5,7.22c-5.81,2.91-11.75,5.58-16.96,9.54
			c-3.04,2.31-5.84,4.92-6.43,8.93c-0.45,3.08-0.69,6.22-0.69,9.33c0.01,9.26,0.76,18.43,4.08,27.21c0.35,0.92,0.74,1.83,1.12,2.74
			c-0.13,0.1-0.25,0.2-0.38,0.3c-0.75-0.51-1.59-0.91-2.23-1.53c-3.02-2.94-5.92-6.03-9.01-8.9c-2.65-2.46-5.49-4.73-8.28-7.04
			c-3.52-2.92-7.85-4.66-10.56-8.83c-3.35-5.16-6.05-10.47-7.67-16.38c-1.79-6.54-3.6-13.07-5.58-19.55
			c-1.58-5.16-3.37-10.25-3.63-15.73c-0.35-7.37,0.06-14.72,2.16-21.75c1.7-5.69,4.39-11.09,6.79-16.55c1.23-2.8,2.5-5.68,4.28-8.14
			c3.64-5.02,7.53-9.87,11.55-14.6c2.57-3.03,5.47-5.8,8.37-8.54c2.51-2.37,5.24-4.51,7.84-6.78c1.22-1.06,2.37-2.19,3.55-3.29
			c-0.14-0.15-0.27-0.3-0.41-0.44c-0.39,0.28-0.82,0.52-1.18,0.84c-3.63,3.15-7.39,6.17-10.85,9.5c-3.67,3.53-7.04,7.37-10.55,11.07
			c-5.64,5.94-10.23,12.55-13.72,20.02c-2.88,6.17-6.01,12.26-7.36,18.93c-1.07,5.3-1.44,10.79-1.58,16.21
			c-0.1,3.85,0.34,7.81,1.18,11.57c1.11,4.96,2.87,9.78,4.31,14.67c1.04,3.54,1.97,7.12,3,10.66c0.89,3.05,1.63,6.18,2.88,9.08
			c1.39,3.22,3.07,6.37,5.03,9.28c1.56,2.32,3.38,4.84,5.72,6.18c6.49,3.71,11.77,8.74,17.01,13.9c2.19,2.15,4.47,4.2,6.71,6.3
			c1.56,1.47,3.3,2.81,4.61,4.49c1.08,1.39,1.67,3.17,2.43,4.8c3.45,7.38,7.5,14.24,14.75,18.69c2.88,1.77,5.85,3.08,9.13,3.63
			c1.41,0.24,2.82,0.08,3.53,1.71c0.74,1.69,1.57,3.35,2.42,5.14c-0.47,0.23-0.88,0.41-1.27,0.61c-0.41,0.21-0.81,0.43-1.22,0.65
			c0.52,0.23,1.03,0.61,1.57,0.67c1.01,0.11,2.04,0.03,3,0.03c1.02-2.49,4.18-1.92,5.86-3.6c0.2-0.2,1.03,0.24,1.35,0.33
			c-0.28,0.84-0.47,1.41-0.72,2.14c0.62,0.03,0.97,0.1,1.29,0.05c1.91-0.3,3.79-0.11,5.34,1.05c2.36,1.77,4.56,3.76,6.89,5.58
			c1.21,0.94,1.29,1.96,0.87,3.35c-1.18,3.95-2.26,7.92-3.3,11.91c-0.43,1.63-1.42,2.31-3.02,2.24c-1.97-0.09-3.94-0.21-5.91-0.33
			c-5.22-0.31-10.45-0.64-15.68-0.93c-1.25-0.07-1.86-0.6-2.08-1.87c-0.17-1.01-0.63-1.98-1.02-2.94
			c-1.54-3.81-3.09-7.61-4.79-11.76c3.89-1.47,7.7-2.91,11.5-4.35c0.01-0.15,0.02-0.3,0.02-0.45c-1.07,0-2.26-0.31-3.17,0.06
			c-2.99,1.21-5.87,2.67-8.8,4.02c-1.19,0.55-1.18,1.3-0.69,2.4c1.77,4.02,3.46,8.08,5.15,12.14c0.15,0.36,0.17,0.78,0.23,1.18
			c0.35,2.15,1.2,2.98,3.39,3.18c1.62,0.15,3.25,0.19,4.87,0.3c5.16,0.35,10.32,0.66,15.47,1.09c2.74,0.23,4.87-0.72,5.43-2.66
			c1.29-4.43,2.61-8.85,3.86-13.29c0.44-1.57,0.7-3.14-1.01-4.32c-1.33-0.92-2.6-1.95-3.76-3.07c-2.36-2.27-4.91-4.1-8.35-4.29
			c1.11-1.63,2.31-0.77,3.55-0.32c2.73,0.98,5.45,2.1,8.27,2.75c3.64,0.83,7.42,1.04,11.05,1.9c7.62,1.81,15.23,0.95,22.54,0.45
			c10.12,7.08,11.69,17.36,11.04,28.46c-0.43-0.14-0.95-0.3-1.12-0.35c-1.43,2.54-2.37,5.24-4.14,7.19
			c-4.09,4.51-9.54,6.53-15.5,7.57c-2.87,0.5-5.6,1.81-8.36,2.84c-0.49,0.18-1.02,0.69-1.21,1.18c-0.7,1.79,0.48,5.49,2.01,6.69
			c0.62,0.48,1.19,1.02,1.94,1.65c-6.04-0.31-11.8-0.56-17.55-0.91c-2.66-0.16-5.31-0.63-7.97-0.77c-3.35-0.17-6.7-0.1-10.05-0.23
			c-5.42-0.21-10.83-0.5-16.25-0.73c-3.12-0.13-6.26-0.12-9.37-0.33c-6.32-0.42-12.64-0.95-18.95-1.44
			c-4.15-0.32-8.29-0.64-12.43-0.97c-2.31-0.19-4.63-0.33-6.93-0.62c-5.21-0.66-10.41-1.43-15.63-2.06
			c-0.97-0.12-1.99,0.19-2.99,0.3c0.02,0.21,0.04,0.42,0.07,0.62c0.95,0,1.9-0.06,2.84,0.01c2.59,0.2,5.17,0.47,7.76,0.7
			c1.21,0.11,2.44,0.15,3.64,0.32c3.74,0.55,7.46,1.22,11.2,1.71c3.41,0.45,6.85,0.72,10.28,1.07c2,0.2,4,0.48,6.01,0.6
			c3.49,0.2,6.99,0.28,10.49,0.45c4.79,0.23,9.58,0.57,14.38,0.73c4.11,0.14,8.23-0.06,12.33,0.16c5.19,0.27,10.37,0.93,15.56,1.21
			c8.92,0.48,17.85,0.75,26.77,1.18c3.89,0.19,7.78,0.54,11.67,0.81c0.52,0.04,1.04,0,1.57-0.01c4.51-0.04,9.01-0.08,13.52-0.13
			c0.77-0.01,1.66-0.32,2.27-0.03c1.71,0.82,3.31,1.87,4.94,2.84c0.26,0.16,0.48,0.53,0.74,0.54c1.48,0.09,2.97,0.16,4.45,0.13
			c1.06-0.02,2.28,0.1,3.13-0.38C685.78,441.41,687.27,440.1,688.85,438.93z M592.44,203.88c-0.1-0.13-0.19-0.26-0.29-0.39
			c3.16-3.38,6.33-6.75,9.46-10.17c0.36-0.4,0.45-1.05,0.66-1.59c-0.62-0.06-1.37-0.37-1.84-0.14c-3.24,1.66-6.43,3.41-9.62,5.18
			c-0.39,0.22-0.66,0.67-0.98,1.01c0.11,0.17,0.22,0.34,0.33,0.51c3.09-0.48,5.3-3.03,7.97-4c-3.02,3.8-6.11,7.67-9.14,11.47
			c0.98,1.45,1.67,1.06,2.67,0.49c2.54-1.46,5.2-2.71,8.12-4.2c-0.05,0.77-0.05,0.93-0.08,1.08c-0.48,2.72-1.14,5.43-1.39,8.17
			c-0.14,1.55,0.52,3.33,2.2,3.76c1.6,0.4,3.52,0.85,4.93-0.96c-1-0.23-2-0.18-2.99-0.24c-2.04-0.13-2.9-1-2.68-3.01
			c0.2-1.76,0.64-3.51,1.11-5.23c0.34-1.25,0.94-2.44,1.36-3.67c0.18-0.53,0.19-1.11,0.28-1.66c-0.52-0.06-1.12-0.3-1.56-0.14
			c-1.79,0.66-3.54,1.44-5.29,2.2C594.58,202.82,593.52,203.36,592.44,203.88z M772.49,542.13c-0.46,1.48-0.71,2.83-1.34,3.96
			c-0.21,0.36-1.44,0.15-2.21,0.19c-0.23,0.01-0.51-0.1-0.69-0.01c-0.47,0.24-1.17,0.48-1.26,0.86c-0.1,0.42,0.28,1.32,0.6,1.4
			c0.9,0.22,1.88,0.13,2.83,0.14c0.8,0.01,1.64-0.16,2.4,0.02c1.69,0.39,3.32,1.01,5.01,1.38c0.46,0.1,1.04-0.38,1.57-0.6
			c-0.37-0.37-0.68-0.9-1.13-1.07c-1.35-0.52-2.8-0.8-4.12-1.38c-0.41-0.18-0.79-1.01-0.75-1.51c0.08-0.93,0.38-1.88,0.77-2.74
			c0.26-0.56,0.77-1.05,1.28-1.44c0.79-0.61,1.7-1.06,2.48-1.67c0.17-0.13,0-0.7-0.02-1.07c-0.31,0.07-0.62,0.12-0.92,0.22
			c-0.79,0.27-1.57,0.55-2.42,0.85c-0.15-2.08-0.29-3.91-0.44-5.93c0.67-0.18,1.42-0.48,2.2-0.57c0.99-0.12,1.83-0.46,1.63-1.56
			c-0.24-1.34-1.25-0.68-1.93-0.43c-1.17,0.44-1.84,0.17-2.24-1.05c-0.18-0.56-0.67-1.01-1.02-1.52c-0.17,0.07-0.34,0.14-0.5,0.21
			c0.07,0.97,0.15,1.95,0.22,2.89c-1.73,1.15-4.25-0.53-5.78,1.42c1.02,1.75,2.34,0.88,3.56,0.87c0.69-0.01,1.87,0.26,1.98,0.64
			c0.36,1.31,0.44,2.73,0.43,4.11c0,0.42-0.59,1.13-1,1.2c-1.35,0.24-2.75,0.23-4.12,0.37c-0.51,0.05-1.01,0.26-1.71,0.46
			C767.67,543.14,769.91,542.11,772.49,542.13z M852.13,586.53c0.25-0.34,0.49-0.68,0.74-1.02c-0.58-0.34-1.25-0.59-1.72-1.04
			c-2.08-1.99-4.18-3.98-6.13-6.11c-0.91-0.99-0.34-2.27,1.04-2.57c1.18-0.25,2.41-0.25,3.59-0.47c0.5-0.09,0.95-0.46,1.42-0.7
			c-0.27-0.47-0.43-1.15-0.83-1.34c-0.5-0.25-1.22-0.22-1.8-0.1c-1.56,0.34-3.09,0.79-4.71,1.22c-0.14-0.75-0.08-1.49-0.42-1.93
			c-0.34-0.44-1.07-0.57-1.63-0.84c-0.04,0.5-0.28,1.1-0.09,1.47c0.66,1.26,0.32,2-0.98,2.36c-1.27,0.35-2.55,0.7-3.84,0.95
			c-0.88,0.17-1.79,0.16-2.82,0.24c0.59,1.97,1.93,1.81,3.27,1.58c1.28-0.22,2.55-0.49,3.91-0.76c-1.45,4.25-3.99,7.39-8.15,9.17
			c0.53,1.21,1.68,1.79,2.58,0.92c2.72-2.64,6.32-4.58,7.22-8.54c2.46,2.28,4.85,4.54,7.33,6.71
			C850.6,586.19,851.44,586.28,852.13,586.53z M767.15,498.04c0.05,0.24,0.09,0.48,0.14,0.72c2.45,0.52,4.5-1.01,6.86-1.66
			c0.26,1.1,0.43,2.25,0.8,3.32c0.37,1.06,0.12,1.57-0.92,1.98c-1.75,0.69-3.43,1.53-5.14,2.3c0.05,0.19,0.09,0.38,0.14,0.57
			c2.51,1.19,4.44-1.44,6.76-1.5c0.61,1.66,1.21,3.26,1.84,4.97c-0.56-0.14-0.96-0.23-1.75-0.43c0.8,1.48,1.82,2.03,3.02,2.16
			c0.22,0.02,0.83-0.83,0.75-1.17c-0.37-1.68-0.74-3.4-1.45-4.95c-0.61-1.33-0.26-1.91,0.91-2.41c1.28-0.55,2.56-1.11,3.79-1.76
			c0.32-0.17,0.45-0.67,0.67-1.02c-0.39-0.16-0.8-0.49-1.17-0.45c-0.56,0.06-1.1,0.35-1.63,0.58c-1.29,0.55-2.57,1.12-3.87,1.69
			c-0.35-1.77-0.65-3.31-0.96-4.87c3.62-0.14,6.17-1.46,6.24-3.4c-0.64,0.09-1.27,0.1-1.84,0.27c-1.22,0.36-2.4,0.83-3.61,1.22
			c-0.84,0.27-1.68,0.63-2.07-0.69c-0.53-1.78-1.25-0.88-2.01-0.13c0.74,1.25,1.24,2.14-0.85,2.56
			C770.17,496.25,768.69,497.3,767.15,498.04z M852.4,514.28c-1-1.34-2.06-1.2-3.23-0.82c-1.25,0.4-2.51,0.82-3.81,0.99
			c-2.01,0.26-4.04,0.32-6.3,0.48c-0.61-0.53-1.29-1.87-2.91-0.57c2.66,2.26,4.38,4.94,4.48,8.44c-3.4,1.33-4.19,2.18-3.9,4.23
			c0.18,1.25,1.52,2.15,3.43,1.99c2.97-0.25,2.8-2.7,3.07-5.07c1.45,0.23,2.82,0.35,4.14,0.67c1.39,0.34,2.72,0.94,4.12,1.25
			c0.38,0.09,0.91-0.46,1.36-0.71c-0.23-0.28-0.42-0.75-0.7-0.82c-2.73-0.69-5.49-1.28-8.23-1.97c-0.47-0.12-1.05-0.47-1.25-0.88
			c-0.88-1.85-1.64-3.75-2.4-5.51C844.17,516.28,848.3,516.45,852.4,514.28z M749.54,464.91c1.39,1.46,1.89,1.51,2.76-0.02
			c2.2-3.85,4.36-7.73,6.4-11.67c0.7-1.35,1.15-2.89,1.43-4.39c0.39-2.08-0.47-3.08-2.6-2.89c-3.16,0.29-6.3,0.84-9.45,1.31
			c-1.15,0.17-1.03,0.82-0.63,1.35c-0.4,0.44-0.95,0.76-1.03,1.19c-0.23,1.07-0.39,2.2-0.28,3.27c0.05,0.52,0.79,0.97,1.22,1.44
			c0.28-0.43,0.77-0.85,0.8-1.3c0.11-1.38,0.04-2.78,0.04-4.32c3.39-0.54,6.71-1.08,10.3-1.65c-0.29,1.11-0.4,1.85-0.67,2.54
			C755.73,455.18,752.99,460.25,749.54,464.91z M845.14,472.57c-0.27-1.6-0.51-3.12-0.8-4.64c-0.22-1.16,0.01-1.95,1.34-2.12
			c1.76-0.23,3.51-0.44,5.25-0.75c0.55-0.1,1.05-0.51,1.57-0.78c-3.5-1.62-6.43-0.26-9.09,0.59c-0.77-0.26-1.27-0.44-1.78-0.61
			c-0.04,0.56-0.23,1.16-0.1,1.69c0.54,2.22,1.18,4.42,1.78,6.62c-0.28-0.07-0.55-0.13-0.83-0.2c-1.12,1.23-2.3,2.41-3.35,3.7
			c-0.79,0.98-0.3,1.94,0.55,2.55c0.84,0.6,1.9,0.77,2.66-0.18c1-1.24,1.89-2.56,3.07-4.17c-0.29,0.05-0.05-0.05,0.16-0.02
			c1.81,0.29,3.61,0.68,5.44,0.86c0.76,0.08,1.56-0.26,2.34-0.41c-0.62-0.4-1.19-1.04-1.86-1.17
			C849.35,473.1,847.18,472.86,845.14,472.57z M771.28,562.23c1.43-0.28,2.68-0.52,3.93-0.76c-0.02-0.27-0.05-0.53-0.07-0.8
			c-1.27,0-2.54,0-3.76,0c-1.69-4.78-1.69-4.78-3.17-4.59c0.35,1.42,0.69,2.84,1.05,4.31c-2.5,0.49-5.21-0.42-7.19,1.48
			c0.03,0.19,0.05,0.38,0.08,0.57c2.46-0.13,4.92-0.26,7.51-0.39c-0.06,0.84-0.09,1.38-0.1,1.41c-1.22,0.14-2.49-0.09-3.15,0.44
			c-1.3,1.03-2.54,2.53-2.03,4.34c0.65,2.28,2.9,0.97,4.65,1.62c-0.72,1.55-1.43,3.07-2.27,4.87c2.36-0.62,4.49-4.01,4.52-6.58
			C771.3,566.17,771.28,564.2,771.28,562.23z M804.74,452.71c0.57,2.83-0.9,5.09-1.4,7.53c-0.1,0.49,0.15,1.04,0.24,1.57
			c0.59-0.19,1.27-0.24,1.74-0.58c0.97-0.71,1.71-1.79,2.75-2.31c0.83-0.42,1.87-1.47,2.94-0.36c1.05,1.09,0.91,2.31,0.17,3.51
			c-0.31,0.49-0.68,0.95-0.93,1.47c-0.21,0.44-0.29,0.94-0.42,1.42c0.53-0.01,1.13,0.14,1.56-0.06c1.72-0.8,3.05-3.83,2.48-5.45
			c-0.72-2.04-3.13-3.24-5.41-2.68c-0.66,0.16-1.31,0.34-1.95,0.51c-0.09-0.21-0.16-0.31-0.17-0.42c-0.02-0.23-0.04-0.47,0-0.7
			c0.44-2.42,0.18-5.25,3.56-5.96c0.22-0.05,0.29-0.88,0.42-1.34c-0.42-0.07-0.87-0.25-1.26-0.17c-0.71,0.16-1.38,0.48-2.19,0.77
			c0-0.81,0-1.41,0-2.01c-0.14-0.07-0.28-0.14-0.42-0.21c-0.35,0.56-0.94,1.09-0.99,1.67c-0.11,1.25-0.81,1.83-1.85,2.22
			c-0.54,0.21-1.12,0.39-1.58,0.72c-0.3,0.22-0.4,0.7-0.6,1.06c0.43,0.17,0.88,0.52,1.28,0.47
			C803.39,453.31,804.02,452.97,804.74,452.71z M780.88,469.95c-2.4,2.11-3.54,4.8-3.41,8.01c0.12,2.95,1.27,5.4,3.85,6.97
			c0.44,0.27,1.14,0.1,1.72,0.13c-0.29-0.49-0.52-1.01-0.87-1.45c-0.28-0.35-0.75-0.54-1.06-0.87c-2.77-3.05-2.36-8.08,0.78-10.75
			c1.28-1.09,2.54-2.23,3.64-3.49c0.33-0.37,0.09-1.24,0.12-1.88c-0.51,0-1.07-0.15-1.52,0.01c-2.44,0.88-4.87,1.79-7.27,2.78
			c-1.9,0.79-3.76,1.71-5.74,2.62c0.6,1.3,1.4,1.31,2.37,0.91C775.95,471.94,778.42,470.95,780.88,469.95z M831.51,615.5
			c0.73-0.53,0.99-0.62,1.1-0.81c1.61-2.71,3.44-5.32,4.73-8.18c1.11-2.46,1.29-2.94,4.08-3.23c0.75-0.08,1.5-0.16,2.24-0.3
			c0.81-0.16,1.79-0.4,1.36-1.49c-0.15-0.37-1.15-0.57-1.75-0.55c-1.05,0.04-2.09,0.31-3.17,0.49c-0.08-1.32,0.54-2.6-1.08-3.17
			c-0.1,0.32-0.2,0.53-0.21,0.75c-0.08,1.68-0.72,2.63-2.62,2.68c-1.44,0.04-2.88,0.52-4.37,0.81c0.31,1.29,0.65,1.98,1.96,1.61
			c0.87-0.24,1.82-0.19,2.73-0.27c0.11,0.17,0.22,0.33,0.33,0.49c-1.77,3.02-3.56,6.02-5.27,9.07
			C831.31,613.85,831.51,614.53,831.51,615.5z M811.42,550.07c0.02,0.2,0.15,0.83,0.1,1.44c-0.12,1.38-0.05,2.9-0.64,4.06
			c-0.3,0.6-1.86,0.57-2.84,0.82c-0.17,0.04-0.41,0.03-0.49,0.14c-0.54,0.68-1.41,1.37-1.47,2.11c-0.07,0.82,0.41,1.95,1.03,2.48
			c0.91,0.77,2.12,0.56,2.95-0.42c0.59-0.7,1.25-1.43,1.54-2.27c0.44-1.26,1.19-1.39,2.29-1.14c1.12,0.26,2.26,0.47,3.39,0.7
			c0.08-0.26,0.16-0.53,0.25-0.79c-1.47-0.57-2.95-1.15-4.53-1.77c0-1.82,0-3.87,0-6.06c0.56,0.05,1,0.13,1.44,0.11
			c0.41-0.02,0.81-0.16,1.22-0.25c0.07-0.2,0.13-0.39,0.2-0.59c-2.07-0.39-3.51-1.7-5.07-2.85c-0.03-0.02-0.18,0.11-0.4,0.26
			c0.17,0.6,0.34,1.24,0.46,1.66c-0.85,0.44-1.64,0.84-2.43,1.25C809.31,549.29,810.2,549.62,811.42,550.07z M805.84,589.63
			c0.08,0.15,0.17,0.31,0.25,0.46c0.45-0.17,0.99-0.22,1.32-0.52c2.39-2.07,4.45-4.41,5.61-7.4c0.75-1.94,1.02-3.95-1.01-5.26
			c-1.07-0.69-2.44-1.19-3.7-1.24c-1.64-0.07-3.34,0.25-4.95,0.66c-2.57,0.66-5.09,1.54-7.63,2.33c-0.03,0.23-0.06,0.46-0.09,0.68
			c0.63,0.2,1.32,0.68,1.87,0.55c1.68-0.4,3.28-1.12,4.95-1.56c1.96-0.51,3.94-1.04,5.95-1.23c2.49-0.24,3.92,1.51,3.05,3.85
			c-0.73,1.96-1.89,3.78-3.02,5.56C807.73,587.65,806.72,588.6,805.84,589.63z M809.2,475.12c-0.05,0.16-0.11,0.32-0.16,0.48
			c0.12,0.39,0.24,0.77,0.33,1.06c-0.89,0.41-1.65,0.76-2.4,1.11c0.03,0.2,0.05,0.39,0.08,0.59c1.21,0,2.42,0,3.88,0
			c0.23,1.51,0.44,2.94,0.68,4.5c-2.24-0.11-3.42,0.92-4,2.6c-0.16,0.48-0.02,1.31,0.31,1.63c0.34,0.32,1.23,0.48,1.63,0.25
			c1.33-0.75,2.55-1.69,3.98-2.68c0.62,0.4,1.35,0.99,2.18,1.37c0.41,0.19,0.99,0.02,1.5,0.01c-0.19-0.44-0.29-0.97-0.6-1.29
			c-0.35-0.36-0.87-0.61-1.37-0.74c-1.63-0.43-2.27-1.52-2.37-3.11c-0.07-1.08-0.29-2.15-0.44-3.23c0.97-0.47,2-0.97,3.03-1.47
			c-0.04-0.16-0.07-0.33-0.11-0.49c-0.53-0.16-1.21-0.61-1.55-0.43C812.25,476.09,810.78,476.32,809.2,475.12z M809.13,526.9
			c2.45,0.92,1.99-1.4,2.79-2.83c0.63,1.41,1.37,2.41,1.47,3.47c0.09,1-0.49,2.07-0.88,3.47c0.7-0.3,1.12-0.35,1.18-0.53
			c0.85-2.56,1.9-5.09,2.34-7.73c0.16-0.97-1.32-2.13-1.73-3.31c-0.46-1.33-1.52-1.21-2.22-0.91c-0.59,0.24-1.05,1.21-1.21,1.94
			c-0.14,0.62,0.24,1.34,0.35,2.03c0.18,1.15-0.41,1.58-1.48,1.5c-0.37-0.03-0.73-0.13-1.2-0.22
			C808.77,524.96,808.95,525.95,809.13,526.9z M802.94,505.74c-0.24-0.13-0.47-0.26-0.71-0.39c-0.46,0.65-1.23,1.27-1.33,1.97
			c-0.2,1.52-0.16,3.09-0.01,4.62c0.14,1.43,0.54,2.83,0.84,4.25c0.85,4.03,5.35,4.34,7.4,2.42c0.93-0.87,1.89-1.71,2.74-2.64
			c0.28-0.31,0.27-0.87,0.4-1.32c-0.44,0.11-0.96,0.11-1.3,0.36c-0.98,0.72-1.82,1.63-2.82,2.3c-2.17,1.44-3.95,0.62-4.38-1.97
			c-0.24-1.48-0.45-2.97-0.57-4.46C803.04,509.17,803.02,507.45,802.94,505.74z M847.32,543.99c-1.25,2.18-3.97,2.77-4.05,5.47
			c0.49-0.06,0.87,0.01,1.03-0.15c1.91-1.84,3.82-3.68,5.63-5.62c0.3-0.32,0.27-1.14,0.09-1.61c-0.09-0.22-0.92-0.3-1.37-0.22
			c-1.87,0.35-3.75,0.72-5.58,1.21c-2,0.54-3.98,1.16-5.92,1.89c-0.39,0.15-0.52,0.96-0.77,1.47c0.56,0.12,1.19,0.47,1.68,0.33
			C841.04,545.95,843.98,545.01,847.32,543.99z M805.27,485.07c-0.24-0.19-0.48-0.37-0.72-0.56c-0.73,0.98-1.46,1.95-2.3,3.08
			c-0.32-0.63-0.56-0.92-0.61-1.23c-0.32-2.12-0.63-4.24-0.88-6.37c-0.23-1.94-0.37-2.05-2.86-1.47c0.68,3.71,1.32,7.46,2.09,11.18
			c0.11,0.51,0.8,1.09,1.34,1.27c0.38,0.12,1.2-0.27,1.41-0.66C803.66,488.61,804.44,486.83,805.27,485.07z M749.6,491.52
			c4.54-2.96,7.4-7.96,10.31-12.89c0.55-0.93,0.48-2.22,0.7-3.35c-0.16-0.06-0.32-0.11-0.49-0.17c-0.25,0.19-0.58,0.33-0.74,0.58
			c-1.3,1.99-2.52,4.02-3.84,5.99c-1.4,2.09-2.9,4.11-4.3,6.2c-0.89,1.32-1.85,1.53-3.18,0.6c-0.35-0.25-1.01-0.05-1.53-0.06
			c0.33,0.47,0.6,0.99,1,1.38C748.06,490.35,748.7,490.79,749.6,491.52z M800.03,562.71c-0.15-2.24-0.31-4.38-0.44-6.51
			c-0.16-2.55-0.25-5.1-0.48-7.64c-0.04-0.43-0.59-0.82-0.9-1.22c-0.25,0.33-0.72,0.65-0.73,0.98c-0.02,2.65,0.03,5.3,0.12,7.95
			c0.03,0.93,0.22,1.86,0.32,2.79c0.2,1.83,0.33,3.67,0.59,5.49c0.13,0.94,0.64,1.5,1.7,0.93c0.94-0.51,2.42-3.54,2.25-4.83
			C801.65,561.33,800.89,561.98,800.03,562.71z M843.49,447.25c-0.16-0.1-0.31-0.21-0.47-0.31c-1.25,1.42-2.5,2.84-4,4.54
			c-0.73-4.69-1.41-9.1-2.07-13.34c-0.57,0.51-1.18,1.05-1.64,1.45c0.22,0.43,0.58,0.86,0.64,1.33c0.25,1.88,0.33,3.79,0.61,5.66
			c0.25,1.7,0.63,3.38,1.03,5.05c0.21,0.85,0.59,1.66,0.89,2.49c0.67-0.53,1.41-1,2.01-1.61c0.6-0.62,1.14-1.33,1.56-2.08
			C842.6,449.43,843.01,448.32,843.49,447.25z M769.15,576.34c-0.12-0.09-0.25-0.17-0.37-0.26c-0.35,0.41-0.67,0.85-1.06,1.22
			c-0.63,0.6-1.23,1.27-1.98,1.68c-0.75,0.41-1.69,0.43-2.47,0.79c-0.44,0.21-0.73,0.75-1.09,1.14c0.51,0.23,1.02,0.67,1.51,0.64
			c0.77-0.05,1.51-0.41,2.27-0.65c0.13,0.09,0.26,0.18,0.38,0.27c-0.35,0.62-0.77,1.22-1.04,1.87c-0.54,1.29-1.05,2.6-1.48,3.93
			c-0.08,0.26,0.29,0.66,0.45,1c0.32-0.17,0.79-0.26,0.95-0.53c0.45-0.79,0.82-1.64,1.16-2.48c1.65-4.17,0.57-4.7,5.55-4.96
			c0.5-0.03,0.97-0.4,1.48-0.62c-1.08-2.08-2.85-0.72-4.26-1.27C769.15,577.56,769.15,576.95,769.15,576.34z M582.42,211.58
			c-2.24-2.31-4.32-4.61-6.58-6.72c-0.98-0.92-1-1.65-0.43-2.69c1.26-2.32,2.51-4.64,3.7-6.99c0.31-0.61,0.48-1.31,0.54-1.99
			c0.03-0.26-0.37-0.73-0.66-0.81c-0.23-0.06-0.75,0.25-0.86,0.51c-1.68,3.82-3.32,7.65-4.8,11.09c2.07,2.2,4.17,4.35,6.16,6.61
			C580.23,211.43,580.62,212.72,582.42,211.58z M780.71,457.31c-0.18-0.23-0.37-0.46-0.55-0.68c-0.8,0.52-1.65,0.98-2.39,1.59
			c-0.81,0.66-1.5,1.46-2.54,2.5c-0.34-2.51-0.71-4.47-0.85-6.44c-0.18-2.51-0.64-3.23-2.63-3.16c0.65,3.77,1.24,7.52,1.98,11.25
			c0.15,0.78,0.92,1.29,1.73,0.5c1.33-1.28,2.64-2.58,3.92-3.9C779.87,458.45,780.27,457.86,780.71,457.31z M835.73,494.04
			c0.16,1.58,0.16,2.96,0.47,4.27c0.46,1.95,1.1,3.86,1.78,5.74c0.09,0.24,1.1,0.46,1.35,0.27c1.6-1.24,3.11-2.59,4.64-3.91
			c-0.17-0.24-0.33-0.47-0.5-0.71c-1.2,0.78-2.41,1.57-3.74,2.44c-0.18-0.39-0.43-0.77-0.52-1.18c-0.38-1.85-0.72-3.72-1.07-5.58
			C837.82,493.63,837.17,493.33,835.73,494.04z M549.59,209.03c-0.79-3.12-1.69-6.14-1.49-9.38c0.03-0.44-0.43-0.91-0.66-1.37
			c-0.29,0.33-0.81,0.66-0.82,1c-0.16,3.73,0.45,7.35,1.74,10.84c0.12,0.34,1.04,0.77,1.22,0.65c1.92-1.36,3.76-2.83,5.62-4.26
			c-0.12-0.17-0.24-0.34-0.37-0.51C552.48,205.72,551.66,208.35,549.59,209.03z M837.69,560.28c0.06,0.32,0.11,0.65,0.17,0.97
			c4.81,0.89,8.61-2.86,13.13-3.32c-0.4-1.57-1.23-1.84-2.88-1.2c-2.65,1.03-5.32,2.02-8,2.98
			C839.34,559.98,838.5,560.09,837.69,560.28z M852.78,612.46c-0.49-1.48-1.41-1.74-2.54-1.62c-2.07,0.21-4.15,0.39-6.22,0.63
			c-0.29,0.03-0.55,0.29-1.2,0.65C846.3,613.9,849.47,611.87,852.78,612.46z M817.16,539.71c0.13,0.11,0.26,0.22,0.39,0.33
			c0.3-0.7,0.74-1.38,0.83-2.1c0.06-0.46-0.29-1.33-0.62-1.42c-1.51-0.43-3.11-0.73-4.49,0.37c-0.58,0.47-0.99,1.15-1.48,1.74
			c0.7-0.16,1.39-0.31,2.08-0.48c0.16-0.04,0.3-0.22,0.46-0.23c0.77-0.06,1.65-0.33,2.28-0.04
			C817,538.03,816.99,539.06,817.16,539.71z M850.8,605.02c-0.51-0.16-0.92-0.4-1.33-0.38c-1.56,0.07-3.12,0.15-4.66,0.38
			c-0.5,0.08-0.93,0.64-1.39,0.98c0.51,0.28,1.01,0.77,1.54,0.81c0.99,0.07,2.01-0.23,3.01-0.17
			C849.16,606.71,850.14,606.57,850.8,605.02z M785.92,448.06c-0.18,0.05-0.36,0.11-0.54,0.16c-0.07,0.39-0.31,0.83-0.19,1.14
			c0.57,1.5,1.21,2.96,1.86,4.42c0.18,0.41,0.41,0.86,0.75,1.13c0.25,0.2,0.75,0.23,1.07,0.13c0.14-0.04,0.25-0.64,0.16-0.91
			c-0.53-1.46-1.07-2.93-1.73-4.33C786.99,449.15,786.39,448.64,785.92,448.06z M781.43,517.5c-2.99-0.51-5.47-1.36-8.44-1.6
			C774.54,518.21,779.18,519.12,781.43,517.5z M614.65,202.74c0.06-0.09,0.12-0.18,0.18-0.28c0.97-0.11,1.95-0.16,2.89-0.38
			c0.32-0.08,0.77-0.65,0.72-0.93c-0.05-0.31-0.59-0.75-0.92-0.76c-0.91-0.03-1.85,0.04-2.74,0.24c-0.89,0.2-1.74,0.61-2.61,0.92
			C613.01,201.96,613.83,202.35,614.65,202.74z M772.92,588.63c-0.17,1.55,0.67,2.42,2.04,2.88c1.83,0.61,3.62,0.12,4.57-1.19
			C777.53,589.12,774.64,591.26,772.92,588.63z M771.64,582.38c-0.03,0.37-0.09,0.53-0.03,0.59c0.87,0.95,5.56,1.11,6.37,0.19
			c0.19-0.22,0.32-0.69,0.21-0.91c-0.11-0.21-0.57-0.37-0.86-0.35C775.45,582.02,773.57,582.21,771.64,582.38z M819.16,546.23
			c-0.03-1.92-1.1-3.3-2.35-3.13c-1.31,0.17-1.33,1.24-1.1,2.12C816.25,547.29,817.78,546.42,819.16,546.23z M849.56,489.53
			c0.8,1.24,1.49,2.44,2.33,3.52c0.27,0.34,0.92,0.38,1.4,0.56c0.07-0.51,0.38-1.16,0.18-1.51c-0.55-0.93-1.39-1.69-2-2.59
			C850.67,488.33,850.13,488.93,849.56,489.53z M781.18,577.25c0.46-1.77-1.96-4.24-3.78-3.85
			C777.62,575.33,779.43,577.17,781.18,577.25z M854.67,440.34c-1.4-3.02-3.77-4.4-5.87-3.46
			C851.08,437.47,851.87,440.1,854.67,440.34z M781.47,571.12c-0.2,0.17-0.4,0.34-0.6,0.5c0.64,1.2,1.23,2.44,1.95,3.59
			c0.25,0.41,0.81,0.62,1.23,0.92c0.12-0.59,0.54-1.4,0.3-1.74C783.52,573.22,782.45,572.2,781.47,571.12z M794.19,438.68
			c0,0.14,0,0.28,0.01,0.42c4.61,0,9.22,0,13.83,0c0-0.14,0-0.28,0-0.42C803.41,438.68,798.8,438.68,794.19,438.68z M758.06,496.76
			c-0.04,0-0.07,0-0.11,0c0,0.4-0.15,0.89,0.03,1.18c0.31,0.49,0.82,0.86,1.24,1.27c0.22-0.51,0.56-1,0.63-1.53
			c0.09-0.67,0.05-1.39-0.13-2.04c-0.11-0.38-0.58-0.67-0.89-1c-0.29,0.36-0.66,0.69-0.84,1.1
			C757.88,496.02,758.03,496.42,758.06,496.76z M853.43,567.99c0.54,2.18,2.48,2.76,3.96,4C857.78,569.9,855.84,568,853.43,567.99z
			 M744.81,473.77c0.92,3.19,2.06,4.22,3.87,3.47C747.35,476.14,747.54,473.44,744.81,473.77z M753.08,496.71
			c0.14,0.89,0.12,1.8,0.47,2.54c0.24,0.51,0.99,0.77,1.51,1.14c0.09-0.5,0.27-0.99,0.25-1.48c-0.01-0.45-0.28-0.88-0.35-1.33
			C754.75,496.33,754.06,496.27,753.08,496.71z M563.1,195.35c1.25,1.33,2.43,2.57,3.78,4.01C567.13,197.05,565,194.92,563.1,195.35
			z M816.28,494.84c-0.22-2.32-1.97-3.14-3.83-1.95C813.76,493.56,814.84,494.11,816.28,494.84z M775.26,599.65
			c0.06,0.06,0.11,0.12,0.17,0.19c0.38-1.71,0.8-3.41,1.11-5.13c0.04-0.22-0.48-0.54-0.74-0.81c-0.15,0.3-0.43,0.59-0.44,0.89
			C775.29,596.4,775.29,598.03,775.26,599.65z M603.51,192.29c-0.12,0.12-0.23,0.25-0.35,0.37c0.58,1.79,1.97,2.78,3.81,2.38
			C605.7,194.03,604.6,193.16,603.51,192.29z M609.94,193.38c0.18-0.16,0.35-0.33,0.53-0.49c-0.75-0.89-1.5-1.78-2.25-2.67
			c-0.17,0.15-0.35,0.3-0.52,0.44C607.92,192,608.98,192.65,609.94,193.38z"/>
		<path d="M688.85,438.93c-1.58,1.17-3.07,2.48-4.76,3.43c-0.85,0.48-2.07,0.36-3.13,0.38c-1.48,0.03-2.97-0.04-4.45-0.13
			c-0.26-0.02-0.47-0.39-0.74-0.54c-1.63-0.97-3.23-2.03-4.94-2.84c-0.61-0.29-1.51,0.02-2.27,0.03c-4.51,0.05-9.01,0.08-13.52,0.13
			c-0.52,0-1.05,0.04-1.57,0.01c-3.89-0.27-7.78-0.62-11.67-0.81c-8.92-0.43-17.85-0.7-26.77-1.18c-5.19-0.28-10.37-0.94-15.56-1.21
			c-4.1-0.22-8.22-0.02-12.33-0.16c-4.8-0.16-9.59-0.5-14.38-0.73c-3.5-0.17-7-0.25-10.49-0.45c-2.01-0.12-4.01-0.39-6.01-0.6
			c-3.43-0.35-6.86-0.62-10.28-1.07c-3.74-0.49-7.47-1.16-11.2-1.71c-1.2-0.18-2.43-0.21-3.64-0.32c-2.59-0.23-5.17-0.5-7.76-0.7
			c-0.94-0.07-1.89-0.01-2.84-0.01c-0.02-0.21-0.04-0.42-0.07-0.62c1-0.11,2.02-0.42,2.99-0.3c5.22,0.63,10.42,1.41,15.63,2.06
			c2.3,0.29,4.62,0.43,6.93,0.62c4.14,0.33,8.29,0.65,12.43,0.97c6.32,0.49,12.63,1.02,18.95,1.44c3.12,0.21,6.25,0.19,9.37,0.33
			c5.42,0.23,10.83,0.52,16.25,0.73c3.35,0.13,6.71,0.05,10.05,0.23c2.66,0.14,5.31,0.61,7.97,0.77c5.75,0.35,11.51,0.6,17.55,0.91
			c-0.74-0.64-1.32-1.17-1.94-1.65c-1.52-1.2-2.71-4.9-2.01-6.69c0.19-0.48,0.72-1,1.21-1.18c2.76-1.03,5.49-2.34,8.36-2.84
			c5.96-1.04,11.41-3.06,15.5-7.57c1.77-1.95,2.72-4.64,4.14-7.19c0.17,0.05,0.68,0.21,1.12,0.35c0.65-11.09-0.92-21.38-11.04-28.46
			c-7.31,0.51-14.92,1.36-22.54-0.45c-3.63-0.86-7.41-1.07-11.05-1.9c-2.82-0.64-5.53-1.77-8.27-2.75
			c-1.24-0.44-2.44-1.31-3.55,0.32c3.44,0.19,5.99,2.02,8.35,4.29c1.16,1.12,2.43,2.16,3.76,3.07c1.71,1.18,1.45,2.75,1.01,4.32
			c-1.24,4.44-2.57,8.86-3.86,13.29c-0.56,1.94-2.7,2.89-5.43,2.66c-5.15-0.43-10.32-0.74-15.47-1.09c-1.62-0.11-3.25-0.15-4.87-0.3
			c-2.19-0.2-3.04-1.03-3.39-3.18c-0.07-0.4-0.08-0.82-0.23-1.18c-1.7-4.06-3.38-8.12-5.15-12.14c-0.48-1.1-0.5-1.85,0.69-2.4
			c2.93-1.35,5.81-2.81,8.8-4.02c0.92-0.37,2.11-0.06,3.17-0.06c-0.01,0.15-0.02,0.3-0.02,0.45c-3.81,1.44-7.61,2.88-11.5,4.35
			c1.69,4.16,3.25,7.96,4.79,11.76c0.39,0.96,0.85,1.93,1.02,2.94c0.22,1.27,0.83,1.8,2.08,1.87c5.23,0.29,10.45,0.62,15.68,0.93
			c1.97,0.12,3.94,0.24,5.91,0.33c1.6,0.08,2.59-0.61,3.02-2.24c1.04-3.99,2.12-7.96,3.3-11.91c0.42-1.39,0.34-2.41-0.87-3.35
			c-2.33-1.82-4.53-3.81-6.89-5.58c-1.55-1.16-3.43-1.35-5.34-1.05c-0.33,0.05-0.67-0.02-1.29-0.05c0.24-0.73,0.44-1.31,0.72-2.14
			c-0.32-0.08-1.15-0.52-1.35-0.33c-1.68,1.68-4.85,1.11-5.86,3.6c-0.96,0-1.99,0.08-3-0.03c-0.54-0.06-1.04-0.44-1.57-0.67
			c0.4-0.22,0.81-0.44,1.22-0.65c0.4-0.2,0.8-0.39,1.27-0.61c-0.85-1.79-1.68-3.45-2.42-5.14c-0.71-1.63-2.12-1.47-3.53-1.71
			c-3.28-0.55-6.26-1.86-9.13-3.63c-7.24-4.45-11.29-11.31-14.75-18.69c-0.76-1.63-1.35-3.41-2.43-4.8
			c-1.3-1.68-3.04-3.02-4.61-4.49c-2.23-2.1-4.52-4.15-6.71-6.3c-5.24-5.16-10.52-10.19-17.01-13.9c-2.33-1.34-4.15-3.86-5.72-6.18
			c-1.96-2.91-3.64-6.06-5.03-9.28c-1.25-2.9-1.98-6.03-2.88-9.08c-1.04-3.54-1.97-7.12-3-10.66c-1.43-4.89-3.2-9.71-4.31-14.67
			c-0.84-3.76-1.28-7.72-1.18-11.57c0.14-5.42,0.5-10.91,1.58-16.21c1.35-6.66,4.48-12.76,7.36-18.93
			c3.48-7.47,8.07-14.08,13.72-20.02c3.51-3.7,6.89-7.53,10.55-11.07c3.46-3.33,7.22-6.35,10.85-9.5c0.36-0.31,0.78-0.56,1.18-0.84
			c0.14,0.15,0.27,0.3,0.41,0.44c-1.18,1.1-2.34,2.23-3.55,3.29c-2.6,2.27-5.33,4.41-7.84,6.78c-2.9,2.74-5.8,5.51-8.37,8.54
			c-4.01,4.73-7.9,9.58-11.55,14.6c-1.78,2.46-3.05,5.33-4.28,8.14c-2.4,5.46-5.08,10.87-6.79,16.55
			c-2.1,7.02-2.51,14.38-2.16,21.75c0.26,5.48,2.04,10.56,3.63,15.73c1.99,6.48,3.79,13.02,5.58,19.55
			c1.62,5.91,4.33,11.22,7.67,16.38c2.71,4.17,7.04,5.91,10.56,8.83c2.79,2.31,5.63,4.58,8.28,7.04c3.09,2.87,5.98,5.96,9.01,8.9
			c0.64,0.62,1.48,1.03,2.23,1.53c0.13-0.1,0.25-0.2,0.38-0.3c-0.37-0.91-0.77-1.82-1.12-2.74c-3.31-8.77-4.07-17.95-4.08-27.21
			c0-3.11,0.24-6.25,0.69-9.33c0.59-4.01,3.39-6.61,6.43-8.93c5.21-3.96,11.16-6.64,16.96-9.54c4.83-2.42,9.81-4.56,14.5-7.22
			c7.23-4.1,13.19-9.64,17.56-16.81c3.09-5.08,5.54-10.44,7.49-16.04c1.41-4.05,2.95-8.07,4-12.21c2.09-8.23,3.18-16.52,0.02-24.81
			c-2.29-5.99-5.81-10.96-11.24-14.47c-4.14-2.68-8.23-5.44-12.44-7.98c-5.27-3.18-10.67-6.14-15.97-9.27
			c-5.82-3.43-9.54-2.19-15.39,1.87c-2.99,2.08-5.88,4.31-8.83,6.44c-0.28,0.2-0.68,0.24-1.23,0.06c1.13-1.01,2.22-2.08,3.4-3.02
			c1.9-1.51,3.77-3.09,5.82-4.37c2.3-1.43,4.71-2.74,7.22-3.76c4.09-1.67,7.56,0.27,10.99,2.27c4.8,2.8,9.53,5.77,14.53,8.15
			c6.3,3.01,11.72,7.11,16.87,11.71c4.63,4.13,7.08,9.39,8.72,15.27c1.77,6.35,1.28,12.57-0.26,18.81
			c-1.04,4.19-1.74,8.54-3.36,12.5c-3.56,8.7-6.64,17.66-13.06,24.94c-4.09,4.64-8.72,8.57-14.08,11.49
			c-7.72,4.21-15.76,7.85-23.5,12.03c-3.76,2.03-7.32,4.53-10.67,7.19c-3.23,2.57-4.17,6.46-4.03,10.39
			c0.27,7.47,0.3,15.02,1.49,22.36c0.82,5.1,3.23,9.98,5.29,14.81c0.69,1.62,2.71,2.63,3.75,4.17c1.58,2.34,2.86,4.89,4.22,7.37
			c0.63,1.16,1.12,2.39,1.74,3.56c2.67,4.98,5.96,9.38,11.48,11.44c1.49,0.55,3.16,0.61,4.75,0.86c0.26,0.04,0.61-0.03,0.81-0.18
			c0.95-0.73,1.86-1.5,2.52-2.04c-2.09-2.45-4.64-4.88-6.48-7.77c-2.1-3.3-4.05-6.86-5.17-10.57c-1.22-4.03-1.53-8.36-2.04-12.58
			c-0.43-3.51,0.8-6.81,1.65-10.16c0.72-2.82,1.28-5.69,1.79-8.56c1.21-6.78,2.32-13.58,3.54-20.35c0.39-2.14,0.98-4.25,1.55-6.35
			c0.26-0.93,0.71-1.27,1.77-0.59c4.18,2.66,6.99,6.56,9.74,10.51c2.73,3.9,5.34,7.88,8.02,11.83c0.19,0.28,0.45,0.52,0.52,0.59
			c5.26-1.22,10.31-2.66,15.46-3.49c3.38-0.54,6.9-0.24,10.35-0.24c3.07,0,6.15-0.08,9.19,0.23c2.69,0.27,5.33,1.03,7.99,1.58
			c1.82,0.37,3.64,0.74,5.45,1.11c1.23,0.25,2.45,0.63,3.69,0.71c0.74,0.05,1.72-0.13,2.22-0.6c2.8-2.6,5.48-5.33,8.22-7.99
			c4.22-4.1,8.45-8.21,12.71-12.27c1.06-1.01,2.13-0.72,2.37,0.52c0.66,3.39,1.31,6.78,1.98,10.17c0.69,3.46,1.4,6.92,2.11,10.4
			c0.08,0.02,0.18,0.08,0.29,0.09c1.38,0.16,2.94-1.53,4.13,0.26c0.77,1.16,1.35,2.47,1.89,3.77c0.69,1.64,1.38,3.3,1.83,5.01
			c0.61,2.32,0.98,4.7,1.48,7.16c0.34,0,0.83-0.1,1.24,0.03c0.48,0.15,0.89,0.51,1.33,0.79c-0.37,0.46-0.71,1.28-1.13,1.32
			c-1.24,0.12-1.23,0.49-1.09,1.67c0.52,4.56,2.12,9.18,0.62,13.74c-1.32,4.01-3.23,7.83-4.9,11.73c-0.66,1.53-1.35,3.05-2.07,4.56
			c-1.62,3.4-4.43,5.5-7.71,7.14c-1.17,0.58-2.19,1.5-3.39,2c-4.14,1.72-8.27,3.46-12.5,4.93c-4.08,1.42-8.27,2.54-12.43,3.73
			c-0.92,0.26-1.92,0.26-3.02,0.4c6.53,5.45,9.59,12.35,9.89,20.53c0.13,3.59-0.16,7.2,0.08,10.78c0.46,6.99,0.64,14.06,3.67,20.61
			c0.37,0.79,0.7,1.63,1.23,2.31c0.98,1.26,1.75,2.59,3.92,2.45c3.21-0.21,6.46,0.22,9.7,0.27c0.6,0.01,1.42-0.37,1.78-0.84
			c1.84-2.42,3.63-4.9,5.32-7.42c1.76-2.63,3.18-5.52,5.15-7.97c2.99-3.72,6.12-7.38,9.58-10.66c3.38-3.21,7.28-5.69,12.39-5.21
			c2.53,0.23,5.12-0.14,7.66,0.06c3.22,0.25,6.46,0.61,9.62,1.26c2.63,0.54,3.56,2,3.65,4.77c0.15,4.22,0.59,8.44,2.51,12.21
			c1.54,3.03,3.7,5.74,5.56,8.61c0.82,1.26,1.59,2.56,2.4,3.83c0.69,1.08,1.57,1.34,2.92,1.18c2.28-0.27,4.61-0.01,6.9-0.21
			c1.5-0.13,3.18-0.34,4.41-1.11c3.37-2.13,7-4.09,9.24-7.55c1.56-2.41,2.92-4.99,4.06-7.63c0.87-2.03,1.31-4.26,1.81-6.43
			c0.11-0.47-0.25-1.14-0.57-1.6c-0.53-0.75-1.2-1.39-1.81-2.08c0.14-0.15,0.27-0.31,0.41-0.46c0.82,0.43,1.64,0.85,2.7,1.41
			c0.27-2,0.68-3.85,0.73-5.71c0.12-3.77-0.14-7.57,0.09-11.33c0.43-7.32,1.77-14.36,7.14-19.98c3.04-3.18,5.87-6.58,8.93-9.75
			c4.51-4.66,8.01-9.98,10.14-16.07c1.82-5.22-0.88-7.12-5.36-8.32c-0.84-0.22-1.97,0.21-2.84,0.62c-3.61,1.71-7.46,3.12-10.69,5.4
			c-4.46,3.15-8.69,6.72-11.45,11.68c-1.44,2.58-3.27,4.95-4.97,7.38c-0.98,1.4-2.51,1.05-3.86,0.93
			c-6.51-0.58-12.99-1.52-19.56-1.12c-4.41,0.27-8.83,0.38-13.25,0.5c-4.08,0.11-8.18,0-12.26,0.22c-2.53,0.14-5.03,0.79-7.55,1.06
			c-5.02,0.53-10.07,0.79-15.06,1.48c-3.36,0.47-6.62,1.56-9.95,2.25c-1.09,0.23-2.26,0.07-3.39,0.08c0.1-1.71,1.71-1.36,2.62-1.74
			c4.2-1.75,8.71-2.18,13.19-2.59c3.66-0.34,7.34-0.51,10.99-0.91c2.3-0.25,4.56-0.98,6.86-1.13c5.33-0.35,10.67-0.53,16.01-0.69
			c5.47-0.16,10.94-0.36,16.4-0.27c4.34,0.07,8.68,0.51,13.01,0.83c2.32,0.17,4.54,0.51,5.97-2.13c1.19-2.21,2.93-4.12,4.12-6.33
			c2.39-4.43,6.32-7.32,10.01-10.46c4.04-3.44,9.1-4.87,13.89-6.75c2.6-1.02,4.71,0.74,6.61,2.24c3.46,2.73,3.11,6.4,1.14,10.86
			c-3.31,7.46-8.71,13.31-14.42,19.01c-2.86,2.86-5.03,6.43-7.36,9.78c-3.18,4.58-2.63,10-3.03,15.17
			c-0.06,0.83,0.52,1.71,0.78,2.57c0.65,2.09,1.57,4.13,1.88,6.27c0.53,3.52,2.78,5.65,5.53,7.19c4.5,2.53,9.16,4.77,13.81,7.02
			c3.35,1.62,4.91,5.71,3.33,9.07c-0.39,0.84-0.58,1.78-1.01,2.6c-1.19,2.32-3.24,3.06-6.43,2.02c-4.3-1.4-8.22-3.67-11.41-6.84
			c-2.86-2.85-5.24-6.17-7.83-9.29c-0.25-0.3-0.47-0.61-0.94-1.23c-1.29,10.08-6.62,16.99-15,21.99c9.11,0,18.22,0,27.33,0
			c0.01,0.2,0.02,0.41,0.03,0.61c-1.9,0.72-3.95,0.28-5.92,0.31c-2.09,0.03-4.18-0.07-6.27-0.06c-2.09,0.01-4.18,0.12-6.27,0.15
			c-2.07,0.03-4.14,0.01-6.09,0.01c0,3.9-0.12,7.72,0.03,11.52c0.26,6.94-0.05,13.81-1.22,20.67c-0.9,5.27-1.42,10.59-2.22,15.88
			c-0.49,3.2-1.23,6.37-1.77,9.57c-0.11,0.64,0.2,1.36,0.5,2.04c-2.57,4.52-2.51,9.75-3.53,14.71c-1.2,5.83-2.57,11.64-3.57,17.5
			c-0.91,5.36-1.43,10.79-2.11,16.18c-0.68,5.4-1.41,10.79-2.02,16.19c-0.3,2.65-0.41,5.32-0.54,7.98
			c-0.19,3.87-0.01,7.79-0.57,11.61c-0.61,4.15,0.98,7.81,1.68,11.67c0.07,0.4,0.15,0.81,0.13,1.21c-0.15,2.61-0.29,5.23-0.51,7.84
			c-0.06,0.68-0.36,1.35-0.55,2.02c-0.23-0.01-0.46-0.02-0.68-0.03c-0.1-0.67-0.34-1.36-0.26-2.01c0.28-2.48,0.81-4.93,0.94-7.41
			c0.06-1.2-0.54-2.44-0.86-3.66c-1.06-4.06-1.47-8.07-0.92-12.35c0.65-5.04,0.34-10.2,0.59-15.29c0.1-1.94,0.66-3.85,0.9-5.79
			c0.48-3.96,1.08-7.91,1.28-11.88c0.34-7.03,1.3-13.9,3.23-20.69c1.16-4.1,1.59-8.41,2.34-12.63c0.52-2.9,1.04-5.81,1.54-8.72
			c0.07-0.42,0.05-0.85,0.09-1.45c-1.54,1.11-1.92,3.67-4.75,2.81c0.69-0.93,1.12-1.78,1.78-2.36c3.02-2.66,4.51-5.99,5.01-9.96
			c0.48-3.82,1.35-7.58,1.89-11.4c0.5-3.54,0.75-7.11,1.2-10.65c0.3-2.4,1.04-4.79,1.08-7.19c0.14-8.52,0.07-17.04,0.08-25.56
			c0-0.11-0.05-0.22-0.11-0.45c-2.48-0.58-4.47,0.93-6.64,1.66c-1.8,0.61-3.58,1.29-5.41,1.79c-1.83,0.5-3.12-0.41-3.89-2.01
			c-0.64-1.33-1.53-1.77-3.03-1.66c-2.41,0.17-4.84,0.05-7.29,0.05c1.37,7.65,0.16,15.1-0.65,22.52
			c-0.73,6.69-1.82,13.34-2.95,19.97c-0.82,4.85-2.05,9.62-2.93,14.46c-0.81,4.5-1.35,9.05-2.09,13.57
			c-1.55,9.52-1.86,19.12-2.18,28.73c-0.2,6.14-0.64,12.26-1,18.39c-0.24,4.1-0.73,8.2-0.74,12.3c-0.03,7.58,0.26,15.17,0.3,22.76
			c0.01,2.76-0.31,5.53-0.5,8.29c-0.02,0.27-0.18,0.52-0.76,0.9c-0.19-0.62-0.55-1.23-0.55-1.85c0-6.43,0.04-12.87,0.1-19.3
			c0.06-6.55-0.37-13.16,0.37-19.63c1.05-9.15,0.88-18.3,1.32-27.45c0.23-4.8,0.53-9.59,0.94-14.38c0.37-4.42,0.83-8.83,1.43-13.22
			c0.51-3.74,1.21-7.45,1.92-11.16c0.69-3.56,1.56-7.08,2.26-10.64c0.54-2.75,0.93-5.52,1.41-8.28c0.51-3,1.13-5.98,1.53-8.99
			c0.36-2.74,0.46-5.51,0.72-8.26c0.25-2.74,0.59-5.48,0.82-8.23c0.3-3.5,0.69-7.02-0.47-10.46c-3.67,0-7.35-0.01-11.02,0
			c-4.7,0.01-9.39-0.01-14.09,0.04c-4.98,0.05-9.95,0.19-14.93,0.25c-2.85,0.03-5.69,0.01-8.54-0.07c-0.51-0.01-1.02-0.37-1.53-0.57
			c1.41-0.11,2.82-0.3,4.23-0.32c5.41-0.08,10.82-0.11,16.23-0.14c2.01-0.01,4.03,0.08,6.04,0.04c2.1-0.04,4.19-0.25,6.28-0.26
			c2.06-0.01,4.12,0.23,6.18,0.21c2.69-0.02,5.37-0.26,8.06-0.28c4.16-0.03,8.32,0.06,12.48,0.09c0.25,0,0.51-0.03,1.14-0.07
			c-1.49-2.26-2.64-4.41-4.17-6.25c-4.64-5.56-6.51-12.03-6.93-19.1c-0.05-0.84-0.53-1.72-1.01-2.45c-1.29-1.91-3.64-1.72-5.37-1.83
			c-4.73-0.3-9.49,0.02-14.24,0.19c-2.71,0.1-5.45,0.5-7.6,2.31c-2.34,1.97-4.61,4.06-6.7,6.3c-3.26,3.5-6.57,6.98-8.93,11.21
			c-1.33,2.39-2.66,4.78-3.97,7.18C689.95,436.8,689.41,437.87,688.85,438.93z M610.98,375.01c4.23,2.41,8.73,3.42,13.23,4.18
			c5.71,0.96,11.48,1.76,17.25,2.06c4.01,0.21,8.11-0.3,12.1-0.92c4.95-0.77,9.94-1.64,14.72-3.12c6.62-2.05,13.15-4.51,19.11-8.14
			c2.7-1.64,5.37-3.45,6.73-6.57c1.39-3.19,2.92-6.32,4.28-9.52c0.95-2.22,2.38-4.5,2.44-6.78c0.13-4.82-0.5-9.65-0.82-14.41
			c-4.12-0.23-7.89-0.61-11.66-0.6c-3.58,0.01-7.15,0.43-10.73,0.7c-4.21,0.32-8.41,0.62-12.61,1.02
			c-4.89,0.46-9.77,1.05-14.66,1.52c-2.6,0.25-5.21,0.35-7.82,0.58c-4.85,0.43-9.7,0.96-14.56,1.33c-4.52,0.35-9.05,0.44-13.56,0.83
			c-5.42,0.46-10.81,1.4-16.23,1.61c-5.19,0.2-10.12,1.31-15.22,2.92c1.26,10.21,6.72,18.08,13.79,25.03
			c2.93-0.92,2.87-0.93,3.55-3.65c0.22-0.86,0.59-1.9,1.24-2.41c2.32-1.82,8.1-1.43,10.22,0.66c1.73,1.7,3.32,3.51,5.63,4.48
			c0.82,0.35,0.88,0.99,0.26,1.68C615.48,369.93,613.31,372.39,610.98,375.01z M585.09,325.49c0.55-0.1,1.21-0.23,1.88-0.33
			c3.83-0.56,7.66-1.08,11.49-1.66c2.29-0.34,4.55-0.84,6.84-1.11c3.1-0.38,6.25-0.44,9.33-0.95c4.05-0.67,8.04-1.69,12.07-2.48
			c4.1-0.81,8.22-1.54,12.33-2.28c2.96-0.54,5.92-1.44,8.89-1.49c5.62-0.09,11.25,0.33,16.87,0.53c6.05,0.22,12.11,0.43,17.73,0.63
			c-0.32-3.05-0.64-6.17-0.96-9.3c-2.38,1.37-2.48,4.93-5.92,5.96c1.95-3.52,3.79-6.53,6.48-8.92c0.22-0.2,0.84-0.32,0.94-0.2
			c0.26,0.31,0.44,0.77,0.48,1.19c0.29,3.73,0.55,7.47,0.81,11.26c1.26,0.07,2.42,0.06,3.55,0.21c0.84,0.11,1.72,0.4,1.95-0.71
			c0.05-0.22-0.89-0.64-1.52-1.08c2.47-0.32,1.57-2.22,1.33-3.5c-1.07-5.56-2.34-11.08-3.55-16.62c-0.07-0.3-0.23-0.57-0.45-1.08
			c-3.02,2.94-5.89,5.7-8.7,8.51c-0.94,0.94-1.66,2.09-2.6,3.03c-2.79,2.77-5.61,5.52-8.49,8.21c-1.36,1.27-2.81,2.37-4.94,1.75
			c-2.53-0.73-5.12-1.25-7.66-1.92c-7.62-2-15.46-1.32-23.2-1.78c-6.61-0.39-12.96,1.76-19.19,3.82c-1.23,0.41-1.87,0.59-2.68-0.65
			c-3.57-5.4-7.17-10.8-10.95-16.06c-1.63-2.27-3.7-4.21-5.85-6.6C587.57,303.11,586.64,314.29,585.09,325.49z M633.91,326.72
			c0,0.17-0.07,0.4,0.01,0.5c1.74,2.08,3.49,4.15,5.28,6.19c0.17,0.19,0.65,0.17,0.98,0.14c5.7-0.54,11.39-1.07,17.09-1.66
			c4.02-0.41,8.03-0.94,12.05-1.34c3.27-0.32,6.56-0.5,9.84-0.8c2.46-0.22,4.92-0.76,7.37-0.75c4.19,0.02,8.38,0.35,12.75,0.56
			c-0.51-2.77-0.9-5.37-1.47-7.94c-0.66-2.97-1.26-3.44-4.01-3.46c-5-0.02-10,0.06-15.01-0.01c-4.92-0.06-9.84-0.21-14.75-0.39
			c-4.1-0.15-8.19-0.45-12.29-0.56c-2.42-0.06-4.92-0.21-7.25,0.29c-3.5,0.75-6.88,2.01-10.54,1.78c-0.47-0.03-0.96,0.19-1.1,0.22
			c0.55,1.84,1.08,3.6,1.63,5.45c1.44-0.19,2.83-0.37,4.22-0.55c0.06,0.21,0.12,0.42,0.18,0.63
			C637.69,326.68,635.43,325.79,633.91,326.72z M582.65,340.09c3.05-0.94,5.56-2.05,8.16-2.42c4.63-0.65,9.32-0.83,13.98-1.25
			c6.39-0.57,12.78-1.21,19.17-1.76c2.19-0.19,4.4-0.2,6.6-0.3c2.1-0.1,4.21-0.21,6.65-0.34c-0.93-1.14-1.56-1.95-2.23-2.73
			c-0.66-0.78-1.36-1.52-2.05-2.29c-4.52,4.53-7.04,5.64-8.81,3.67c3.68-0.47,6.11-2.46,7.88-5.94c-2.37,0.16-4.36,0.29-6.36,0.42
			c-0.02-0.2-0.04-0.41-0.06-0.61c2.09-1.25,4.41-1.57,7.07-1.11c-0.42-2.06-0.77-3.78-1.14-5.62c-3.94,0.76-7.74,1.46-11.53,2.23
			c-1.4,0.28-2.76,0.84-4.17,1.04c-2.75,0.39-5.53,0.63-8.29,0.91c-2.19,0.22-4.39,0.29-6.56,0.63c-4.73,0.73-9.42,1.68-14.15,2.38
			c-3.01,0.44-3.02,0.32-3.63,3.27c-0.17,0.85-0.49,1.7-0.51,2.56C582.6,335.26,582.65,337.71,582.65,340.09z M667.92,433.88
			c-0.79-3.83-1.68-7.34-2.2-10.91c-0.52-3.55-0.67-7.15-1.01-10.95c-1.24,3.3-2.61,6.29-5.44,8.43c-3.22,2.44-6.48,4.54-10.62,5.24
			c-3.53,0.6-7.01,1.63-10.4,2.79c-2.29,0.78-2.61,4.06-1.05,6c2.19,2.72,5.13,2.91,8.2,2.81c6.49-0.22,12.96-0.68,19.22-2.63
			C665.77,434.3,666.98,434.1,667.92,433.88z M783.4,400.71c-0.14,0.03-0.28,0.06-0.41,0.09c0.36,4.49,0.11,8.93-1.01,13.3
			c-0.11,0.43-0.09,1.05,0.14,1.4c1.71,2.47,3.36,5,5.27,7.31c3.59,4.36,8.3,7.27,13.47,9.32c3.35,1.33,5.35,0.82,6.06-2.47
			c0.04-0.17,0.09-0.34,0.18-0.49c2.19-3.71-0.09-6.52-3.12-8.04c-4.08-2.05-8.22-3.99-12.26-6.1c-4.07-2.12-6.78-5.29-7.26-10.09
			C784.3,403.51,783.76,402.12,783.4,400.71z M605.09,375.25c-3.18-2.55-5.67-5.44-9.71-4.02c0.97,2.03,2.09,4.34,3.31,6.89
			C600.68,377.22,602.66,376.33,605.09,375.25z M601.06,364.35c0.15,0.17,0.29,0.34,0.44,0.51c3.07-1.01,3.87,1.51,4.9,2.8
			c0.55-1.05,0.89-2.77,1.88-3.33c1.17-0.65,2.9-0.29,4.41-0.37c-3.38-2.81-6.63-2.94-9.96-1.62
			C602.02,362.62,601.61,363.66,601.06,364.35z M670.94,438.26c0.01-0.12,0.03-0.25,0.04-0.37c-0.51-0.36-1.33-0.62-1.47-1.09
			c-0.35-1.17-0.85-1.6-2.08-1.31c-3.31,0.79-6.63,1.58-9.98,2.23c-1.43,0.28-2.92,0.21-4.38,0.29c0.01,0.08,0.02,0.17,0.03,0.25
			C659.05,438.26,665,438.26,670.94,438.26z M613.36,366.33c-1.53,0.08-3.03,0.16-4.53,0.24c-0.2,0.9-0.4,1.69-0.54,2.48
			c-0.13,0.78-0.2,1.57-0.3,2.38C611.78,371.17,613.78,369.27,613.36,366.33z M605.87,371.67c0.01-3.32-2.31-5.97-4.32-4.94
			C601.81,370.91,602.92,372.18,605.87,371.67z M760.29,439.43c-0.02-0.07-0.04-0.13-0.07-0.2c-2.82,0-5.63,0-8.64,0
			c0.82,1.23,1.3,2.6,2.86,2.16C756.42,440.85,758.34,440.1,760.29,439.43z M575.71,361.3c0.17-0.12,0.33-0.23,0.5-0.35
			c-1.32-2.29-2.67-4.56-3.95-6.87c-1.28-2.29-2.49-4.62-3.74-6.93c-0.27,0.15-0.53,0.31-0.8,0.46
			C570.38,352.17,573.05,356.73,575.71,361.3z M684.14,439.41c-3.16,0-6.33,0-9.66,0C677.73,441.36,680.89,441.6,684.14,439.41z
			 M694.92,316.13c-0.2-1.58-1.3-1.59-2.42-1.46c-0.32,0.04-0.61,0.37-0.92,0.57c0.29,0.29,0.55,0.79,0.88,0.84
			C693.23,316.22,694.04,316.13,694.92,316.13z"/>
		<path d="M712.06,181.1c-1.65,0.4-2.11-1.27-3.19-1.86c-0.3-0.16-0.5-0.52-1.2-1.28c-0.53,2.42-1.2,4.33-1.32,6.27
			c-0.22,3.53,0.19,7.12-0.28,10.6c-0.26,1.92-1.77,3.69-2.77,5.5c-0.32,0.58-0.79,1.06-1.47,1.94c0.86-0.04,1.29-0.01,1.69-0.09
			c2.71-0.57,5.39-1.3,8.12-1.71c4.02-0.6,8.08-0.99,12.13-1.44c5.93-0.66,11.87-1.34,17.81-1.92c4.08-0.4,8.18-0.61,12.27-0.98
			c1.61-0.14,3.2-0.54,4.81-0.68c4.15-0.36,8.3-0.64,12.46-0.95c-0.12-1.63-0.23-3.15-0.36-4.91c-0.88,0.72-1.51,1.24-2.21,1.81
			c-0.37-1.38,1.15-3.35,3.15-4.18c0.3,1.63,0.6,3.23,0.89,4.8c1.08,0.05,2.12,0.1,3.23,0.15c0-4.25,0-8.45,0-12.65
			c-0.16-0.06-0.33-0.11-0.49-0.17c-1.34,1.32-2.64,2.68-4.02,3.97c-1.86,1.74-3.76,3.43-5.65,5.14c-0.17,0.15-0.46,0.23-0.56,0.41
			c-1.94,3.7-4.98,1.96-7.63,1.4c-2.64-0.56-5.14-1.87-7.79-2.24c-2.85-0.4-5.81-0.24-8.7-0.03c-3.57,0.26-7.14,0.77-10.68,1.31
			c-1.38,0.21-2.69,0.92-4.07,1.19c-1.44,0.28-2.92,0.31-4.52,0.46c0.01,0.07,0.04,0.48,0.08,0.98c-0.36-0.05-0.86-0.08-0.86-0.13
			c-0.09-2.04-2.84-2.11-3.02-4.14c0.37-0.28,0.77-0.58,1.14-0.86c0.18,0.09,0.33,0.11,0.38,0.19c1.92,2.97,1.92,2.98,5.25,2.21
			c5.58-1.28,11.08-3.04,16.85-3.21c4.36-0.13,8.66,0.44,12.88,1.61c2.16,0.6,4.32,1.21,6.52,1.61c0.68,0.12,1.68-0.25,2.21-0.73
			c3.94-3.61,7.78-7.32,11.69-10.97c0.32-0.3,1.17-0.58,1.29-0.45c0.49,0.56,1.08,1.26,1.13,1.95c0.29,3.97,0.38,7.96,0.69,11.94
			c0.08,0.99,0.45,2.47,1.16,2.83c4.34,2.25,3.71,6.13,3.11,9.69c-0.64,3.8-1.86,7.52-3.04,11.21c-0.52,1.61-1.56,3.05-2.64,5.07
			c3.14,0,5.84,0.06,8.54-0.02c2.42-0.07,4.84-0.31,7.27-0.45c2.72-0.16,5.45-0.49,8.17-0.38c7.43,0.3,14.85,0.8,22.28,1.18
			c0.4,0.02,0.93-0.33,1.2-0.67c0.31-0.39,0.44-0.95,0.57-1.45c1.36-5.08,3.95-9.53,7.13-13.65c0.85-1.1,1.79-2.17,2.84-3.06
			c2.19-1.85,4.76-1.08,6.98-0.33c5.2,1.77,6.7,6.18,6.07,10.93c-0.67,5.06-2.93,9.2-6.62,12.66c-3.99,3.73-5.66,8.5-5.99,13.83
			c-0.22,3.48-0.29,6.97-0.67,10.42c-0.44,4.03-1.88,7.8-3.97,11.25c-1.65,2.71-3.25,5.57-5.46,7.8c-3.53,3.56-7.92,4.83-12.95,3.14
			c-4.71-1.58-5.91-3.41-8.33-6.48c-1.82,1.75-3.51,3.73-5.56,5.21c-1.33,0.95-3.15,1.38-4.81,1.65c-1.8,0.29-3.34-1.46-3.92-3.92
			c-0.97-4.11,1.17-7.34,4.25-9.92c1.64-1.37,3.25-2.77,5.27-4.48c-1.29-0.18-2.06-0.26-2.83-0.39c-5.98-1.05-12.01-1.29-18.07-1.17
			c-1.25,0.02-1.69,0.43-1.37,1.69c0.53,2.05,0.81,4.19,1.57,6.14c0.3,0.78,1.58,1.25,2.49,1.68c0.66,0.31,1.46,0.34,2.2,0.49
			c1.67,0.34,2.88,2.05,2.31,3.61c-0.97,2.67-2.57,5.14-5.12,6.34c-2.97,1.41-7.69,1.12-9.37-3.48c-1.1-3.01-1.67-6.22-2.48-9.34
			c-0.31-1.21-0.64-2.41-1.08-4.08c-0.99,1.72-2.11,3.09-2.61,4.66c-1.55,4.83-4.72,8.6-7.9,12.31c-1.5,1.75-3.52,3.17-6.01,3.56
			c-2.22,0.35-3.43-0.21-4.46-2.15c-0.66-1.25-1.54-2.4-2.05-3.7c-0.6-1.53-1.23-3.16-1.29-4.77c-0.15-3.66,0.5-7.09,2.73-10.31
			c2.71-3.91,6.75-6.31,9.87-9.73c1.49-1.63,2.01-3.76,1.04-5.79c-2.57,1.18-5.07,2.53-7.72,3.47c-2.48,0.88-5.08,1.47-7.8,1.02
			c-0.78-0.13-1.62,0.05-2.42,0.03c-2.63-0.04-4.93-0.91-7.11-2.43c-0.74-0.52-2.01-0.3-3.03-0.41c-0.12,0.2-0.24,0.4-0.36,0.61
			c1.67,1.52,3.26,3.14,5.03,4.54c1.48,1.18,3.23,2.03,4.72,3.19c0.56,0.44,1.23,1.58,1.03,2.04c-1.8,4.08-3.71,8.11-5.75,12.07
			c-0.57,1.1-1.56,2.04-2.54,2.84c-0.61,0.5-1.55,0.86-2.34,0.86c-4.92,0.03-9.84-0.06-14.76-0.11c-1.74-0.02-1.9-1.56-2.33-2.62
			c-1.57-3.92-2.96-7.9-4.42-11.86c-0.84-2.28-0.27-4.48,1.63-5.98c1.71-1.35,3.4-2.76,5.25-3.91c1.05-0.65,2.4-0.81,3.44-1.14
			c-1.72-1.05-4.27-1.75-5.38-4.26c-0.14-0.32-0.34-0.61-0.49-0.92c-1.11-2.24-1.06-2.33,1.14-3.38c0.91-0.43,1.77-0.97,2.52-1.39
			c-2.24-2.48-4.46-4.71-6.41-7.17c-2.13-2.67-3.63-5.74-4.67-9.01c-0.12-0.38-0.55-0.66-0.77-1.03c-0.43-0.71-1.65-1.04-1.05-2.31
			c0.1-0.22-0.78-0.77-0.87-1.23c-0.27-1.28-0.36-2.6-0.51-3.9c-0.01-0.1,0.14-0.24,0.11-0.32c-1.56-3.71,1.47-5.86,3.1-8.3
			c0.96-1.44,0.76-2.7,0.8-4.08c0.16-5.61-0.21-11.28,1.99-16.62c0.18-0.44,1.44-0.97,1.63-0.8c1.84,1.56,3.57,3.26,5.3,4.94
			c0.1,0.09-0.05,0.43-0.08,0.66C712.85,181.52,712.46,181.31,712.06,181.1z M723.75,225.23c0.4-0.32,0.81-0.63,1.28-1
			c0.57,0.33,1.19,0.69,1.63,0.94c0.82-0.8,2-1.41,2.05-2.08c0.14-2.19,1.48-3.72,2.6-5.3c0.75-1.06,2.08-1.83,3.31-2.35
			c0.61-0.26,1.76,0.11,2.33,0.59c0.72,0.6,1.23,1.55,1.61,2.45c0.55,1.33,1.16,2.37,2.8,1.84c0.73,2.05-0.76,3.11-1.71,4.32
			c-1.65,2.12-3.1,4.55-6.31,4.59c-1.02,0.01-2.04,0.28-3.06,0.43c0.01,0.2,0.02,0.4,0.03,0.61c0.68,0.13,1.37,0.27,2.05,0.4
			c0.03,0.12,0.05,0.23,0.08,0.35c-0.92,0.26-1.83,0.52-2.33,0.66c-0.41,1.43-0.75,2.54-1.04,3.66c-0.07,0.26-0.05,0.6,0.07,0.83
			c0.86,1.66,1.9,3.15,3.72,3.93c5.39,2.32,10.77,2.24,16.25,0.28c7.01-2.51,12.09-7.88,17.92-12.1c3.27-2.37,5.87-5.54,8.1-8.99
			c2.28-3.54,3.2-7.49,4.29-11.37c-2.35,0.26-4.52,0.47-6.69,0.74c-3.57,0.43-7.12,1.04-10.7,1.32c-6.1,0.49-12.22,0.89-18.34,1.15
			c-6.08,0.26-12.17,0.31-18.26,0.41c-1.09,0.02-2.19-0.29-3.28-0.23c-2.77,0.15-5.54,0.36-8.29,0.68
			c-3.27,0.38-6.52,0.89-10.04,1.38c1.78,3,3.25,5.98,5.18,8.62c1.96,2.66,4.37,4.99,6.63,7.52c1.2-1.27,2.05-2.22,2.96-3.11
			c1.48-1.46,3.84-1.96,5.16-1.16c-0.3,0.22-0.58,0.5-0.91,0.66c-1.38,0.69-2.78,1.34-4.17,2c2.8,1.02,2.43,3.45,3.15,5.02
			c1.44-0.78,2.87-1.59,4.34-2.32c0.25-0.12,0.79,0,1,0.21c0.22,0.22,0.24,0.67,0.27,1.03c0.06,0.74,0.06,1.48,0.08,2.22
			c0.26-0.02,0.52-0.04,0.79-0.05c-0.09-1.86-0.19-3.73-0.25-5.03C726.48,227.58,725.11,226.41,723.75,225.23z M757.73,237.09
			c1.83,3.4,1.09,6.22-1.44,8.67c-2.75,2.66-5.63,5.21-8.29,7.96c-1.97,2.03-3.39,4.46-3.53,7.41c-0.2,4.08,0.75,7.81,3.22,11.16
			c0.93,1.26,2.01,1.78,3.25,1.07c1.83-1.04,3.84-2.11,5.12-3.7c2.24-2.77,4.05-5.89,5.9-8.95c0.82-1.35,1.12-3.02,1.98-4.35
			c1.83-2.84,3.75-5.67,7.68-5.83c2.35-0.1,4.69-0.44,7.04-0.46c3.94-0.03,7.88,0.16,11.81,0.16c3.76,0,7.43,2.32,11.21,0.26
			c0.42,2.08,0.73,4.06,1.22,5.99c0.63,2.46,1.02,5.08,2.2,7.27c2.2,4.06,6.13,6.09,10.57,6.49c3.85,0.35,7.15-1.44,9.53-4.51
			c1.3-1.68,2.35-3.58,3.39-5.44c1.9-3.41,3.68-6.88,4.08-10.85c0.42-4.16,0.78-8.33,1.1-12.49c0.4-5.28,2.6-9.66,6.32-13.38
			c3.7-3.7,6.06-7.99,6.13-13.42c0.05-3.72-1.49-6.3-4.79-7.73c-1.88-0.81-4.32-1.87-5.91-0.12c-2.67,2.92-5.12,6.15-7.11,9.57
			c-1.44,2.49-1.98,5.5-2.94,8.27c-0.45,1.31-1.29,1.89-2.79,1.76c-3.45-0.31-6.91-0.47-10.37-0.68c-1.56-0.09-3.12-0.15-4.68-0.24
			c-3.48-0.2-6.96-0.54-10.45-0.58c-2.78-0.03-5.57,0.39-8.35,0.45c-3.72,0.08-7.45-0.09-11.17,0.05c-0.94,0.04-2.02,0.7-2.73,1.39
			c-2.63,2.53-4.96,5.39-7.72,7.76C764.26,232.6,760.94,234.74,757.73,237.09z M736,206.25c0.72,0.65,1.25,1.27,1.9,1.67
			c0.89,0.55,1.85,1.21,2.83,1.32c2.17,0.24,4.39,0.35,6.56,0.17c10.58-0.9,21.15-1.91,31.72-2.94c0.4-0.04,1.02-0.63,1.06-1.02
			c0.24-2.13,0.44-4.28,0.45-6.42c0-2.31-1.02-3.34-3.33-3.34c-2.9,0.01-5.81,0.11-8.7,0.37c-5.19,0.46-10.37,1.05-15.56,1.59
			c-6.74,0.7-13.49,1.41-20.23,2.1c-2.82,0.29-5.64,0.54-8.47,0.78c-3.18,0.27-6.37,0.39-9.53,0.77c-2.39,0.29-4.74,0.9-7.12,1.35
			c-2.15,0.4-4.3,0.77-6.66,1.19c0.19,1.52,0.17,3,0.6,4.33c0.97,3.02,1.63,3.31,3.8,3.16c7.65-0.54,15.31-1.04,22.97-1.4
			c3.25-0.15,4.71-1.08,5.53-4.41c-1.32-0.08-2.61-0.16-3.94-0.24c-0.41-1.49,0.83-1.41,1.52-1.34c1.82,0.2,3.35,0.26,2.92-2.44
			c0.43,0.17,0.76,0.2,0.81,0.34c0.78,2.05,2.36,1.85,4.03,1.49c0.74-0.16,1.49-0.33,2.24-0.34c0.49-0.01,0.97,0.26,1.46,0.41
			C740.74,205.11,737.74,204.15,736,206.25z M726.18,241.06c-2.1,0.55-4.04,1.42-6.02,1.5c-3.13,0.14-6,0.4-8.71,2.35
			c-2.75,1.98-4.14,3.7-3.31,6.06c1.56,4.43,3.31,8.8,5.05,13.17c0.16,0.4,0.81,0.86,1.24,0.87c4.58,0.13,9.16,0.21,13.74,0.22
			c0.48,0,1.02-0.45,1.42-0.82c2.91-2.67,4.46-6.22,5.85-9.76c1.59-4.04,1.33-4.03-2.46-6.74
			C730.3,245.97,727.32,244.22,726.18,241.06z M776.98,270.54c3.34,0.12,4.65-1.94,5.94-3.83c1.4-2.04,0.77-3.24-1.66-3.51
			c-2.04-0.23-3.86-1.05-4.59-2.96c-0.79-2.06-1.01-4.32-1.57-6.47c-0.18-0.71-0.68-1.95-0.94-1.92c-1.76,0.16-3.54,0.46-5.19,1.05
			c-0.25,0.09,0.11,1.9,0.19,2.92c0.01,0.17,0.01,0.35,0.05,0.52c0.68,3.7,1.14,7.43,2.88,10.88
			C773.27,269.57,775.2,270.31,776.98,270.54z M800.64,253.51c-0.21-0.04-0.43-0.07-0.64-0.11c-2.76,2.78-5.46,5.64-8.3,8.33
			c-1.91,1.82-1.55,3.9-0.97,5.97c0.35,1.25,1.39,1.94,2.8,1.95c2.96,0.01,5.04-1.55,6.69-3.78c1.26-1.71,2.98-3.36,1.53-5.83
			c-0.16-0.27-0.05-0.69-0.11-1.03C801.31,257.17,800.97,255.34,800.64,253.51z M715.24,232.07c-0.55,0.31-0.9,0.51-1.25,0.71
			c-2,1.09-1.9,1.04-0.89,3.1c1.28,2.59,4.09,3.05,6.11,4.6c0.17,0.13,1.38-0.54,1.5-0.99c0.41-1.64-0.72-3.67-2.42-4.08
			C716.5,234.96,715.65,233.89,715.24,232.07z M737.5,210.2c-1.02-1.3-1.7-2.16-2.44-3.09c-1.58,2.42-1.58,2.42,0.93,2.84
			C736.32,210.01,736.64,210.06,737.5,210.2z M725.1,237.63c-0.19-0.1-0.39-0.19-0.58-0.29c-0.54,0.83-1.08,1.65-1.88,2.88
			c1.09-0.09,1.67-0.14,2.31-0.19C725.01,239.13,725.05,238.38,725.1,237.63z M772.48,194.35c1.13-0.05,2.07-0.09,3.06-0.14
			C774.11,192.66,773.21,192.67,772.48,194.35z"/>
		<path d="M785.15,613.24c0.07-3.59,0.07-7.19,0.21-10.78c0.17-4.21,0.48-8.41,0.69-12.61c0.15-2.92,0.15-5.86,0.36-8.77
			c0.23-3.27,0.69-6.53,0.91-9.8c0.2-2.89,0.23-5.78,0.31-8.68c0.07-2.53,0.06-5.06,0.15-7.59c0.09-2.72,0.23-5.45,0.4-8.17
			c0.26-4.32,0.49-8.64,0.87-12.95c0.61-7.05,1.39-14.09,1.97-21.14c0.21-2.52-0.01-5.07,0.07-7.6c0.05-1.68,0.38-3.35,0.42-5.02
			c0.12-5.65,0.24-11.3,0.21-16.95c-0.03-4.32-0.35-8.64-0.43-12.96c-0.07-3.87,0.01-7.75,0-11.63c0-3.43-0.12-6.86-0.01-10.28
			c0.05-1.59,0.52-3.17,0.82-4.75c0.19-1.01,0.36-2.04,0.7-3c0.12-0.34,0.74-0.5,1.13-0.75c0.16,0.41,0.52,0.88,0.44,1.23
			c-2.04,8.16-0.83,16.41-0.77,24.62c0.04,5.34,0.1,10.68,0.1,16.02c0,4.33-0.04,8.66-0.15,12.98c-0.1,4.15-0.26,8.3-0.45,12.44
			c-0.26,5.62-0.47,11.25-0.9,16.86c-0.6,7.8-1.47,15.58-2.03,23.38c-0.32,4.4-0.15,8.84-0.39,13.25
			c-0.34,6.35-0.89,12.68-1.29,19.03c-0.33,5.21-0.47,10.43-0.86,15.63c-0.43,5.59-1.04,11.17-1.64,16.75
			c-0.05,0.43-0.57,0.81-0.87,1.22L785.15,613.24z"/>
		<path d="M822.32,515.77c1.21-0.6,1.93-0.35,1.88,1.13c-0.12,3.31-0.19,6.62-0.41,9.92c-0.18,2.77-0.57,5.52-0.84,8.29
			c-0.51,5.31-1.03,10.63-1.49,15.94c-0.44,5.02-0.88,10.05-1.19,15.08c-0.45,7.46-0.81,14.94-1.17,22.41
			c-0.43,9.06-0.83,18.13-1.22,27.19c-0.15,3.55-0.23,7.09-0.38,10.64c-0.03,0.63-0.21,1.25-0.32,1.88
			c-0.19,0.01-0.38,0.01-0.56,0.02c-0.2-0.85-0.59-1.7-0.59-2.55c0.01-5.96-0.01-11.93,0.2-17.88c0.25-6.97,0.77-13.93,1.09-20.9
			c0.23-5.01,0.19-10.03,0.52-15.03c0.38-5.65,1.08-11.28,1.57-16.92c0.47-5.48,0.79-10.98,1.28-16.46
			c0.5-5.57,1.18-11.13,1.66-16.71c0.18-2.02,0.01-4.07,0-6.1L822.32,515.77z"/>
		<path d="M822.35,515.72c-0.36,2.18-0.71,4.36-1.07,6.54c-0.1,0.05-0.2,0.09-0.3,0.14c-0.12-0.78-0.46-1.62-0.31-2.35
			c0.78-3.78,0.84-7.47-0.62-11.12c-0.31-0.78-0.29-1.71-0.33-2.58c-0.3-6.18-0.57-12.36-0.85-18.53
			c-0.3-6.48-0.66-12.95-0.91-19.43c-0.15-3.77-0.06-7.55-0.22-11.32c-0.22-5.15-0.4-10.33-2.06-15.29c-0.37-1.1-0.7-2.3-1.4-3.17
			c-1.26-1.58-3.18-1.54-5.02-1.52c-0.18-0.17-0.36-0.34-0.55-0.5c0.41-0.16,0.82-0.32,1.24-0.47c1.76-0.64,4.9,0.67,5.74,2.41
			c2.16,4.43,2.89,9.19,3.18,14.03c0.41,6.79,0.73,13.58,1.05,20.37c0.28,5.85,0.46,11.71,0.76,17.56c0.15,3.07,0.49,6.14,0.69,9.21
			c0.34,5.36,0.64,10.72,0.95,16.08C822.32,515.77,822.35,515.72,822.35,515.72z"/>
		<path d="M592.44,203.88c1.08-0.52,2.14-1.06,3.23-1.54c1.75-0.77,3.5-1.54,5.29-2.2c0.44-0.16,1.04,0.08,1.56,0.14
			c-0.09,0.56-0.1,1.14-0.28,1.66c-0.42,1.24-1.01,2.42-1.36,3.67c-0.47,1.72-0.92,3.46-1.11,5.23c-0.22,2.01,0.64,2.88,2.68,3.01
			c0.99,0.06,1.99,0.01,2.99,0.24c-1.41,1.81-3.32,1.36-4.93,0.96c-1.68-0.42-2.34-2.2-2.2-3.76c0.25-2.74,0.91-5.45,1.39-8.17
			c0.03-0.15,0.02-0.32,0.08-1.08c-2.92,1.49-5.58,2.74-8.12,4.2c-1,0.57-1.68,0.97-2.67-0.49c3.03-3.8,6.11-7.67,9.14-11.47
			c-2.68,0.97-4.88,3.51-7.97,4c-0.11-0.17-0.22-0.34-0.33-0.51c0.32-0.34,0.59-0.79,0.98-1.01c3.19-1.76,6.38-3.52,9.62-5.18
			c0.47-0.24,1.22,0.08,1.84,0.14c-0.21,0.54-0.3,1.19-0.66,1.59c-3.12,3.42-6.3,6.79-9.46,10.17
			C592.25,203.61,592.35,203.75,592.44,203.88z"/>
		<path d="M772.49,542.13c-2.58-0.01-4.81,1.01-6.66-1.37c0.7-0.19,1.2-0.41,1.71-0.46c1.37-0.14,2.77-0.13,4.12-0.37
			c0.41-0.07,0.99-0.78,1-1.2c0.01-1.38-0.06-2.79-0.43-4.11c-0.11-0.38-1.29-0.65-1.98-0.64c-1.22,0.01-2.53,0.88-3.56-0.87
			c1.53-1.95,4.05-0.27,5.78-1.42c-0.07-0.94-0.15-1.92-0.22-2.89c0.17-0.07,0.34-0.14,0.5-0.21c0.35,0.5,0.83,0.96,1.02,1.52
			c0.4,1.22,1.07,1.48,2.24,1.05c0.67-0.25,1.69-0.91,1.93,0.43c0.2,1.11-0.63,1.44-1.63,1.56c-0.78,0.1-1.53,0.39-2.2,0.57
			c0.15,2.02,0.28,3.85,0.44,5.93c0.85-0.3,1.63-0.59,2.42-0.85c0.3-0.1,0.61-0.15,0.92-0.22c0.02,0.37,0.19,0.93,0.02,1.07
			c-0.78,0.62-1.69,1.07-2.48,1.67c-0.5,0.39-1.02,0.88-1.28,1.44c-0.39,0.86-0.69,1.81-0.77,2.74c-0.04,0.5,0.34,1.33,0.75,1.51
			c1.32,0.57,2.77,0.86,4.12,1.38c0.45,0.17,0.76,0.7,1.13,1.07c-0.53,0.22-1.11,0.7-1.57,0.6c-1.69-0.36-3.32-0.99-5.01-1.38
			c-0.76-0.17-1.6-0.01-2.4-0.02c-0.95-0.01-1.93,0.08-2.83-0.14c-0.32-0.08-0.7-0.99-0.6-1.4c0.09-0.37,0.8-0.62,1.26-0.86
			c0.18-0.09,0.46,0.02,0.69,0.01c0.77-0.04,2.01,0.18,2.21-0.19C771.78,544.96,772.02,543.61,772.49,542.13z"/>
		<path d="M852.13,586.53c-0.69-0.25-1.52-0.34-2.04-0.79c-2.47-2.17-4.86-4.44-7.33-6.71c-0.9,3.96-4.5,5.9-7.22,8.54
			c-0.9,0.87-2.05,0.3-2.58-0.92c4.17-1.78,6.7-4.92,8.15-9.17c-1.36,0.27-2.63,0.54-3.91,0.76c-1.34,0.23-2.68,0.39-3.27-1.58
			c1.03-0.08,1.95-0.07,2.82-0.24c1.29-0.25,2.57-0.6,3.84-0.95c1.3-0.36,1.64-1.1,0.98-2.36c-0.2-0.37,0.05-0.97,0.09-1.47
			c0.56,0.27,1.29,0.4,1.63,0.84c0.34,0.44,0.28,1.18,0.42,1.93c1.63-0.43,3.16-0.88,4.71-1.22c0.58-0.13,1.3-0.15,1.8,0.1
			c0.4,0.2,0.56,0.88,0.83,1.34c-0.47,0.24-0.92,0.61-1.42,0.7c-1.19,0.22-2.42,0.21-3.59,0.47c-1.38,0.3-1.95,1.58-1.04,2.57
			c1.95,2.13,4.05,4.11,6.13,6.11c0.47,0.45,1.14,0.7,1.72,1.04C852.62,585.85,852.37,586.19,852.13,586.53z"/>
		<path d="M767.15,498.04c1.54-0.73,3.01-1.79,4.64-2.12c2.09-0.42,1.59-1.31,0.85-2.56c0.75-0.75,1.48-1.64,2.01,0.13
			c0.39,1.32,1.23,0.96,2.07,0.69c1.21-0.39,2.39-0.86,3.61-1.22c0.58-0.17,1.21-0.18,1.84-0.27c-0.07,1.94-2.62,3.26-6.24,3.4
			c0.31,1.56,0.61,3.1,0.96,4.87c1.3-0.57,2.58-1.14,3.87-1.69c0.53-0.23,1.07-0.52,1.63-0.58c0.37-0.04,0.78,0.29,1.17,0.45
			c-0.22,0.35-0.36,0.85-0.67,1.02c-1.23,0.65-2.51,1.21-3.79,1.76c-1.17,0.5-1.52,1.09-0.91,2.41c0.71,1.55,1.08,3.27,1.45,4.95
			c0.07,0.34-0.53,1.19-0.75,1.17c-1.2-0.13-2.21-0.68-3.02-2.16c0.79,0.19,1.19,0.29,1.75,0.43c-0.63-1.71-1.22-3.31-1.84-4.97
			c-2.31,0.06-4.25,2.69-6.76,1.5c-0.05-0.19-0.09-0.38-0.14-0.57c1.71-0.78,3.4-1.62,5.14-2.3c1.04-0.41,1.29-0.92,0.92-1.98
			c-0.37-1.07-0.54-2.22-0.8-3.32c-2.36,0.65-4.41,2.18-6.86,1.66C767.24,498.51,767.2,498.27,767.15,498.04z"/>
		<path d="M852.4,514.28c-4.1,2.18-8.23,2.01-12.1,1.7c0.75,1.76,1.52,3.67,2.4,5.51c0.19,0.41,0.78,0.76,1.25,0.88
			c2.73,0.69,5.49,1.28,8.23,1.97c0.29,0.07,0.47,0.54,0.7,0.82c-0.46,0.25-0.98,0.8-1.36,0.71c-1.4-0.31-2.73-0.91-4.12-1.25
			c-1.32-0.32-2.7-0.45-4.14-0.67c-0.27,2.37-0.1,4.83-3.07,5.07c-1.91,0.16-3.26-0.74-3.43-1.99c-0.29-2.05,0.49-2.9,3.9-4.23
			c-0.1-3.49-1.82-6.18-4.48-8.44c1.61-1.3,2.3,0.04,2.91,0.57c2.26-0.16,4.29-0.22,6.3-0.48c1.29-0.17,2.56-0.59,3.81-0.99
			C850.35,513.08,851.4,512.94,852.4,514.28z M841.39,524.57c-1.54-0.17-2.67,0.25-3.03,1.67c-0.08,0.32,0.83,1.3,1.21,1.26
			C841.28,527.34,841.11,525.86,841.39,524.57z"/>
		<path d="M749.54,464.91c3.45-4.65,6.2-9.72,8.29-15.14c0.27-0.69,0.38-1.43,0.67-2.54c-3.59,0.58-6.9,1.11-10.3,1.65
			c0,1.55,0.07,2.94-0.04,4.32c-0.03,0.45-0.52,0.87-0.8,1.3c-0.43-0.48-1.17-0.93-1.22-1.44c-0.11-1.07,0.06-2.2,0.28-3.27
			c0.09-0.42,0.64-0.75,1.03-1.19c-0.41-0.53-0.52-1.18,0.63-1.35c3.15-0.47,6.29-1.02,9.45-1.31c2.13-0.2,2.99,0.8,2.6,2.89
			c-0.28,1.5-0.73,3.04-1.43,4.39c-2.04,3.94-4.2,7.82-6.4,11.67C751.42,466.42,750.92,466.37,749.54,464.91z"/>
		<path d="M845.14,472.57c2.04,0.3,4.21,0.53,6.34,0.96c0.67,0.13,1.24,0.77,1.86,1.17c-0.78,0.15-1.58,0.49-2.34,0.41
			c-1.82-0.19-3.62-0.58-5.44-0.86c-0.21-0.03-0.45,0.07-0.16,0.02c-1.18,1.61-2.07,2.94-3.07,4.17c-0.77,0.95-1.82,0.78-2.66,0.18
			c-0.86-0.61-1.35-1.57-0.55-2.55c1.05-1.29,2.23-2.47,3.35-3.7c0.28,0.07,0.55,0.13,0.83,0.2c-0.6-2.21-1.24-4.4-1.78-6.62
			c-0.13-0.52,0.06-1.12,0.1-1.69c0.51,0.17,1.01,0.35,1.78,0.61c2.66-0.85,5.59-2.2,9.09-0.59c-0.52,0.27-1.02,0.68-1.57,0.78
			c-1.74,0.32-3.5,0.53-5.25,0.75c-1.32,0.17-1.56,0.96-1.34,2.12C844.63,469.45,844.86,470.97,845.14,472.57z"/>
		<path d="M771.28,562.23c0,1.98,0.02,3.95-0.01,5.92c-0.03,2.57-2.16,5.96-4.52,6.58c0.84-1.81,1.55-3.32,2.27-4.87
			c-1.75-0.65-4,0.67-4.65-1.62c-0.51-1.81,0.73-3.31,2.03-4.34c0.67-0.53,1.93-0.3,3.15-0.44c0-0.03,0.04-0.57,0.1-1.41
			c-2.59,0.13-5.05,0.26-7.51,0.39c-0.03-0.19-0.05-0.38-0.08-0.57c1.99-1.9,4.7-0.99,7.19-1.48c-0.36-1.47-0.71-2.89-1.05-4.31
			c1.49-0.18,1.49-0.18,3.17,4.59c1.22,0,2.49,0,3.76,0c0.02,0.27,0.05,0.53,0.07,0.8C773.96,561.71,772.72,561.95,771.28,562.23z
			 M769.73,567.03c-0.98-0.87-1.54-1.36-2.09-1.85c-0.55,0.77-1.14,1.51-1.6,2.33c-0.05,0.08,0.71,0.88,0.93,0.82
			C767.77,568.09,768.51,567.63,769.73,567.03z"/>
		<path d="M804.74,452.71c-0.73,0.26-1.36,0.6-2.02,0.69c-0.4,0.05-0.85-0.3-1.28-0.47c0.19-0.36,0.3-0.84,0.6-1.06
			c0.46-0.34,1.04-0.52,1.58-0.72c1.04-0.4,1.74-0.97,1.85-2.22c0.05-0.58,0.64-1.12,0.99-1.67c0.14,0.07,0.28,0.14,0.42,0.21
			c0,0.6,0,1.2,0,2.01c0.81-0.3,1.48-0.62,2.19-0.77c0.39-0.09,0.84,0.1,1.26,0.17c-0.14,0.47-0.2,1.29-0.42,1.34
			c-3.38,0.71-3.12,3.54-3.56,5.96c-0.04,0.22-0.02,0.46,0,0.7c0.01,0.11,0.08,0.21,0.17,0.42c0.64-0.17,1.29-0.35,1.95-0.51
			c2.28-0.56,4.69,0.64,5.41,2.68c0.57,1.62-0.75,4.65-2.48,5.45c-0.44,0.2-1.04,0.05-1.56,0.06c0.14-0.48,0.21-0.98,0.42-1.42
			c0.25-0.52,0.62-0.98,0.93-1.47c0.75-1.21,0.89-2.42-0.17-3.51c-1.07-1.11-2.11-0.05-2.94,0.36c-1.04,0.52-1.78,1.6-2.75,2.31
			c-0.47,0.35-1.15,0.4-1.74,0.58c-0.09-0.52-0.34-1.08-0.24-1.57C803.84,457.8,805.31,455.54,804.74,452.71z"/>
		<path d="M780.88,469.95c-2.46,1-4.93,1.99-7.39,3c-0.97,0.4-1.77,0.38-2.37-0.91c1.99-0.91,3.84-1.83,5.74-2.62
			c2.4-0.99,4.83-1.9,7.27-2.78c0.45-0.16,1.01-0.01,1.52-0.01c-0.02,0.64,0.21,1.51-0.12,1.88c-1.1,1.26-2.36,2.4-3.64,3.49
			c-3.15,2.67-3.55,7.69-0.78,10.75c0.3,0.34,0.78,0.53,1.06,0.87c0.35,0.43,0.59,0.96,0.87,1.45c-0.58-0.03-1.28,0.13-1.72-0.13
			c-2.58-1.58-3.73-4.02-3.85-6.97C777.34,474.74,778.48,472.06,780.88,469.95z"/>
		<path d="M831.51,615.5c0-0.98-0.21-1.66,0.03-2.08c1.7-3.05,3.5-6.05,5.27-9.07c-0.11-0.16-0.22-0.33-0.33-0.49
			c-0.91,0.08-1.86,0.03-2.73,0.27c-1.31,0.37-1.65-0.32-1.96-1.61c1.5-0.29,2.93-0.77,4.37-0.81c1.9-0.05,2.54-1,2.62-2.68
			c0.01-0.21,0.12-0.42,0.21-0.75c1.62,0.57,1,1.85,1.08,3.17c1.08-0.18,2.12-0.45,3.17-0.49c0.6-0.02,1.61,0.18,1.75,0.55
			c0.44,1.09-0.55,1.33-1.36,1.49c-0.74,0.15-1.49,0.22-2.24,0.3c-2.79,0.29-2.97,0.77-4.08,3.23c-1.29,2.86-3.12,5.47-4.73,8.18
			C832.5,614.88,832.25,614.97,831.51,615.5z"/>
		<path d="M811.42,550.07c-1.21-0.45-2.1-0.78-3-1.11c0.79-0.41,1.58-0.81,2.43-1.25c-0.12-0.42-0.29-1.06-0.46-1.66
			c0.22-0.14,0.36-0.28,0.4-0.26c1.56,1.15,3,2.46,5.07,2.85c-0.07,0.2-0.13,0.39-0.2,0.59c-0.41,0.09-0.81,0.23-1.22,0.25
			c-0.44,0.02-0.88-0.06-1.44-0.11c0,2.2,0,4.24,0,6.06c1.58,0.62,3.05,1.19,4.53,1.77c-0.08,0.26-0.16,0.53-0.25,0.79
			c-1.13-0.23-2.27-0.44-3.39-0.7c-1.1-0.25-1.85-0.12-2.29,1.14c-0.29,0.84-0.95,1.57-1.54,2.27c-0.83,0.99-2.04,1.19-2.95,0.42
			c-0.63-0.53-1.1-1.67-1.03-2.48c0.06-0.74,0.93-1.42,1.47-2.11c0.09-0.11,0.32-0.1,0.49-0.14c0.99-0.25,2.54-0.22,2.84-0.82
			c0.59-1.17,0.52-2.68,0.64-4.06C811.57,550.9,811.43,550.27,811.42,550.07z M807.48,560.43c1.14-1.08,1.99-1.87,2.84-2.67
			c-0.1-0.12-0.21-0.23-0.31-0.35C808.89,557.91,806.97,557.49,807.48,560.43z"/>
		<path d="M805.84,589.63c0.88-1.03,1.89-1.98,2.61-3.11c1.13-1.78,2.29-3.6,3.02-5.56c0.86-2.33-0.56-4.08-3.05-3.85
			c-2,0.19-3.99,0.72-5.95,1.23c-1.67,0.44-3.27,1.16-4.95,1.56c-0.55,0.13-1.24-0.35-1.87-0.55c0.03-0.23,0.06-0.46,0.09-0.68
			c2.54-0.79,5.06-1.67,7.63-2.33c1.61-0.41,3.31-0.73,4.95-0.66c1.26,0.05,2.63,0.55,3.7,1.24c2.04,1.31,1.76,3.32,1.01,5.26
			c-1.16,2.99-3.22,5.34-5.61,7.4c-0.34,0.29-0.88,0.35-1.32,0.52C806.01,589.94,805.92,589.78,805.84,589.63z"/>
		<path d="M809.2,475.12c1.58,1.2,3.05,0.97,4.59,0.16c0.35-0.18,1.03,0.27,1.55,0.43c0.04,0.16,0.07,0.33,0.11,0.49
			c-1.03,0.5-2.06,1-3.03,1.47c0.15,1.08,0.37,2.15,0.44,3.23c0.11,1.59,0.75,2.68,2.37,3.11c0.49,0.13,1.02,0.39,1.37,0.74
			c0.31,0.32,0.41,0.85,0.6,1.29c-0.5,0.01-1.09,0.19-1.5-0.01c-0.82-0.38-1.55-0.96-2.18-1.37c-1.43,0.99-2.65,1.94-3.98,2.68
			c-0.4,0.22-1.3,0.07-1.63-0.25c-0.33-0.32-0.47-1.16-0.31-1.63c0.57-1.69,1.75-2.71,4-2.6c-0.23-1.56-0.45-2.99-0.68-4.5
			c-1.47,0-2.67,0-3.88,0c-0.03-0.2-0.05-0.39-0.08-0.59c0.76-0.35,1.51-0.7,2.4-1.11c-0.09-0.29-0.21-0.68-0.33-1.06
			C809.1,475.44,809.15,475.28,809.2,475.12z"/>
		<path d="M809.13,526.9c-0.18-0.95-0.36-1.94-0.58-3.11c0.47,0.09,0.83,0.19,1.2,0.22c1.07,0.08,1.66-0.35,1.48-1.5
			c-0.11-0.68-0.49-1.41-0.35-2.03c0.17-0.73,0.63-1.69,1.21-1.94c0.7-0.29,1.76-0.41,2.22,0.91c0.41,1.18,1.89,2.34,1.73,3.31
			c-0.44,2.63-1.49,5.17-2.34,7.73c-0.06,0.17-0.48,0.23-1.18,0.53c0.39-1.41,0.97-2.47,0.88-3.47c-0.1-1.06-0.84-2.06-1.47-3.47
			C811.12,525.5,811.58,527.82,809.13,526.9z"/>
		<path d="M802.94,505.74c0.08,1.71,0.1,3.43,0.24,5.14c0.12,1.49,0.33,2.98,0.57,4.46c0.43,2.59,2.21,3.41,4.38,1.97
			c1.01-0.67,1.85-1.58,2.82-2.3c0.34-0.25,0.86-0.25,1.3-0.36c-0.12,0.45-0.12,1.02-0.4,1.32c-0.85,0.94-1.81,1.78-2.74,2.64
			c-2.05,1.92-6.55,1.61-7.4-2.42c-0.3-1.41-0.7-2.82-0.84-4.25c-0.15-1.53-0.19-3.1,0.01-4.62c0.09-0.7,0.86-1.31,1.33-1.97
			C802.47,505.48,802.71,505.61,802.94,505.74z"/>
		<path d="M847.32,543.99c-3.33,1.02-6.28,1.95-9.26,2.78c-0.49,0.14-1.12-0.21-1.68-0.33c0.25-0.51,0.39-1.32,0.77-1.47
			c1.93-0.73,3.92-1.36,5.92-1.89c1.84-0.49,3.71-0.86,5.58-1.21c0.45-0.08,1.28-0.01,1.37,0.22c0.18,0.47,0.21,1.29-0.09,1.61
			c-1.81,1.93-3.72,3.78-5.63,5.62c-0.16,0.16-0.55,0.09-1.03,0.15C843.35,546.76,846.07,546.17,847.32,543.99z"/>
		<path d="M805.27,485.07c-0.83,1.75-1.61,3.54-2.54,5.24c-0.21,0.39-1.03,0.78-1.41,0.66c-0.54-0.18-1.23-0.75-1.34-1.27
			c-0.77-3.72-1.41-7.46-2.09-11.18c2.49-0.58,2.63-0.46,2.86,1.47c0.25,2.13,0.56,4.25,0.88,6.37c0.05,0.31,0.29,0.6,0.61,1.23
			c0.84-1.13,1.57-2.1,2.3-3.08C804.79,484.7,805.03,484.89,805.27,485.07z"/>
		<path d="M749.6,491.52c-0.91-0.74-1.54-1.17-2.08-1.71c-0.4-0.4-0.67-0.92-1-1.38c0.52,0.01,1.18-0.19,1.53,0.06
			c1.33,0.94,2.29,0.73,3.18-0.6c1.4-2.09,2.91-4.11,4.3-6.2c1.32-1.97,2.55-4,3.84-5.99c0.16-0.25,0.49-0.39,0.74-0.58
			c0.16,0.06,0.32,0.11,0.49,0.17c-0.22,1.13-0.15,2.42-0.7,3.35C757.01,483.56,754.15,488.56,749.6,491.52z"/>
		<path d="M800.03,562.71c0.86-0.73,1.62-1.38,2.43-2.07c0.17,1.29-1.31,4.32-2.25,4.83c-1.06,0.57-1.57,0.01-1.7-0.93
			c-0.25-1.82-0.39-3.66-0.59-5.49c-0.1-0.93-0.29-1.85-0.32-2.79c-0.08-2.65-0.13-5.3-0.12-7.95c0-0.33,0.47-0.65,0.73-0.98
			c0.31,0.41,0.87,0.79,0.9,1.22c0.22,2.54,0.32,5.09,0.48,7.64C799.72,558.33,799.88,560.46,800.03,562.71z"/>
		<path d="M843.49,447.25c-0.48,1.07-0.89,2.17-1.45,3.2c-0.41,0.75-0.96,1.46-1.56,2.08c-0.59,0.61-1.33,1.08-2.01,1.61
			c-0.3-0.83-0.69-1.64-0.89-2.49c-0.4-1.67-0.78-3.35-1.03-5.05c-0.28-1.88-0.36-3.78-0.61-5.66c-0.06-0.47-0.42-0.9-0.64-1.33
			c0.46-0.41,1.07-0.95,1.64-1.45c0.66,4.24,1.34,8.65,2.07,13.34c1.5-1.7,2.75-3.12,4-4.54
			C843.18,447.04,843.33,447.15,843.49,447.25z"/>
		<path d="M769.15,576.34c0,0.61,0,1.22,0,1.79c1.41,0.55,3.18-0.81,4.26,1.27c-0.51,0.22-0.99,0.59-1.48,0.62
			c-4.98,0.26-3.9,0.79-5.55,4.96c-0.34,0.85-0.7,1.7-1.16,2.48c-0.15,0.27-0.62,0.36-0.95,0.53c-0.16-0.34-0.53-0.74-0.45-1
			c0.42-1.33,0.93-2.64,1.48-3.93c0.28-0.65,0.69-1.25,1.04-1.87c-0.13-0.09-0.26-0.18-0.38-0.27c-0.75,0.23-1.5,0.6-2.27,0.65
			c-0.49,0.03-1.01-0.41-1.51-0.64c0.36-0.39,0.65-0.93,1.09-1.14c0.78-0.36,1.72-0.39,2.47-0.79c0.74-0.4,1.35-1.08,1.98-1.68
			c0.39-0.37,0.71-0.81,1.06-1.22C768.9,576.17,769.02,576.25,769.15,576.34z"/>
		<path d="M582.42,211.58c-1.8,1.14-2.19-0.14-2.93-1c-1.98-2.25-4.09-4.4-6.16-6.61c1.48-3.44,3.12-7.27,4.8-11.09
			c0.12-0.26,0.63-0.57,0.86-0.51c0.29,0.08,0.69,0.55,0.66,0.81c-0.06,0.68-0.24,1.39-0.54,1.99c-1.19,2.35-2.44,4.67-3.7,6.99
			c-0.56,1.03-0.55,1.77,0.43,2.69C578.1,206.97,580.18,209.27,582.42,211.58z"/>
		<path d="M780.71,457.31c-0.44,0.55-0.84,1.14-1.33,1.64c-1.28,1.32-2.59,2.62-3.92,3.9c-0.82,0.78-1.58,0.28-1.73-0.5
			c-0.74-3.73-1.33-7.48-1.98-11.25c1.99-0.07,2.45,0.65,2.63,3.16c0.14,1.98,0.51,3.94,0.85,6.44c1.04-1.04,1.74-1.83,2.54-2.5
			c0.73-0.6,1.59-1.06,2.39-1.59C780.35,456.86,780.53,457.09,780.71,457.31z"/>
		<path d="M835.73,494.04c1.44-0.71,2.09-0.4,2.41,1.34c0.35,1.86,0.69,3.73,1.07,5.58c0.09,0.41,0.34,0.79,0.52,1.18
			c1.34-0.87,2.54-1.65,3.74-2.44c0.17,0.24,0.33,0.47,0.5,0.71c-1.54,1.32-3.04,2.67-4.64,3.91c-0.25,0.2-1.27-0.03-1.35-0.27
			c-0.68-1.88-1.32-3.79-1.78-5.74C835.89,497,835.89,495.62,835.73,494.04z"/>
		<path d="M549.59,209.03c2.08-0.68,2.89-3.31,5.24-3.03c0.12,0.17,0.24,0.34,0.37,0.51c-1.86,1.44-3.71,2.9-5.62,4.26
			c-0.18,0.13-1.1-0.31-1.22-0.65c-1.29-3.49-1.89-7.12-1.74-10.84c0.01-0.35,0.54-0.67,0.82-1c0.23,0.46,0.69,0.93,0.66,1.37
			C547.89,202.89,548.8,205.91,549.59,209.03z"/>
		<path d="M837.69,560.28c0.81-0.19,1.64-0.29,2.42-0.57c2.68-0.96,5.35-1.94,8-2.98c1.65-0.64,2.48-0.37,2.88,1.2
			c-4.52,0.46-8.31,4.21-13.13,3.32C837.81,560.92,837.75,560.6,837.69,560.28z"/>
		<path d="M852.78,612.46c-3.31-0.59-6.48,1.44-9.96-0.34c0.65-0.36,0.91-0.62,1.2-0.65c2.07-0.23,4.15-0.42,6.22-0.63
			C851.37,610.72,852.29,610.98,852.78,612.46z"/>
		<path d="M714.47,192.06c-0.66-0.76-1.33-1.51-2.34-2.67c-0.3,1.89-0.51,3.26-0.73,4.63c-0.16,0.03-0.32,0.05-0.48,0.08
			c-0.2-0.45-0.57-0.89-0.56-1.34c0.01-1.1,0.05-2.23,0.36-3.27c0.21-0.72,0.89-1.3,1.36-1.94c0.43,0.59,0.87,1.18,1.36,1.86
			c0.42,0.11,1.11,0.29,1.91,0.5C714.97,190.83,714.72,191.45,714.47,192.06C714.47,192.07,714.47,192.06,714.47,192.06z"/>
		<path d="M712.06,181.1c0.39,0.21,0.79,0.42,1.18,0.63c2.01-0.73,2.17,1.45,3.26,2.16c0.71,0.45,1.06,1.46,1.74,2.49
			c-0.58,0.07-1.32,0.39-1.57,0.16c-1.47-1.33-2.84-2.76-4.19-4.21C712.22,182.03,712.2,181.51,712.06,181.1z"/>
		<path d="M817.16,539.71c-0.17-0.65-0.16-1.68-0.54-1.85c-0.63-0.28-1.51-0.02-2.28,0.04c-0.16,0.01-0.3,0.19-0.46,0.23
			c-0.69,0.17-1.39,0.32-2.08,0.48c0.49-0.59,0.9-1.27,1.48-1.74c1.38-1.1,2.98-0.8,4.49-0.37c0.33,0.1,0.68,0.96,0.62,1.42
			c-0.1,0.73-0.54,1.4-0.83,2.1C817.42,539.93,817.29,539.82,817.16,539.71z"/>
		<path d="M850.8,605.02c-0.66,1.55-1.64,1.69-2.83,1.62c-1-0.06-2.01,0.24-3.01,0.17c-0.53-0.04-1.03-0.52-1.54-0.81
			c0.46-0.34,0.89-0.9,1.39-0.98c1.54-0.24,3.1-0.31,4.66-0.38C849.87,604.62,850.29,604.86,850.8,605.02z"/>
		<path d="M785.92,448.06c0.47,0.58,1.07,1.09,1.38,1.75c0.66,1.4,1.2,2.87,1.73,4.33c0.1,0.27-0.02,0.87-0.16,0.91
			c-0.33,0.1-0.82,0.07-1.07-0.13c-0.34-0.26-0.57-0.71-0.75-1.13c-0.65-1.46-1.3-2.93-1.86-4.42c-0.12-0.31,0.12-0.76,0.19-1.14
			C785.56,448.17,785.74,448.11,785.92,448.06z"/>
		<path d="M781.43,517.5c-2.25,1.62-6.89,0.71-8.44-1.6C775.96,516.14,778.44,516.99,781.43,517.5z"/>
		<path d="M614.65,202.74c-0.82-0.39-1.65-0.79-2.47-1.18c0.87-0.32,1.71-0.72,2.61-0.92c0.89-0.2,1.83-0.28,2.74-0.24
			c0.34,0.01,0.88,0.45,0.92,0.76c0.04,0.28-0.4,0.85-0.72,0.93c-0.94,0.22-1.92,0.27-2.89,0.38
			C614.77,202.56,614.71,202.65,614.65,202.74z"/>
		<path d="M772.92,588.63c1.72,2.63,4.61,0.49,6.61,1.69c-0.95,1.31-2.74,1.8-4.57,1.19C773.59,591.05,772.75,590.18,772.92,588.63z
			"/>
		<path d="M771.64,582.38c1.93-0.17,3.81-0.35,5.69-0.48c0.29-0.02,0.75,0.14,0.86,0.35c0.11,0.22-0.02,0.69-0.21,0.91
			c-0.81,0.92-5.5,0.76-6.37-0.19C771.56,582.91,771.62,582.75,771.64,582.38z"/>
		<path d="M819.16,546.23c-1.39,0.19-2.91,1.05-3.44-1.01c-0.23-0.88-0.21-1.95,1.1-2.12C818.07,542.93,819.13,544.31,819.16,546.23
			z"/>
		<path d="M849.56,489.53c0.57-0.6,1.11-1.2,1.91-0.02c0.61,0.9,1.44,1.66,2,2.59c0.21,0.35-0.1,1-0.18,1.51
			c-0.48-0.18-1.14-0.22-1.4-0.56C851.05,491.97,850.36,490.78,849.56,489.53z"/>
		<path d="M781.18,577.25c-1.75-0.08-3.56-1.92-3.78-3.85C779.22,573.01,781.65,575.48,781.18,577.25z"/>
		<path d="M854.67,440.34c-2.8-0.24-3.59-2.86-5.87-3.46C850.9,435.93,853.27,437.31,854.67,440.34z"/>
		<path d="M781.47,571.12c0.98,1.08,2.04,2.09,2.88,3.27c0.24,0.34-0.18,1.15-0.3,1.74c-0.42-0.3-0.98-0.52-1.23-0.92
			c-0.72-1.16-1.31-2.39-1.95-3.59C781.07,571.46,781.27,571.29,781.47,571.12z"/>
		<path d="M794.19,438.68c4.61,0,9.22,0,13.83,0c0,0.14,0,0.28,0,0.42c-4.61,0-9.22,0-13.83,0
			C794.19,438.96,794.19,438.82,794.19,438.68z"/>
		<path d="M758.06,496.76c-0.03-0.34-0.19-0.74-0.07-1.02c0.18-0.41,0.55-0.73,0.84-1.1c0.31,0.33,0.79,0.61,0.89,1
			c0.18,0.65,0.21,1.37,0.13,2.04c-0.07,0.53-0.41,1.02-0.63,1.53c-0.42-0.42-0.93-0.78-1.24-1.27c-0.18-0.29-0.03-0.78-0.03-1.18
			C757.99,496.76,758.03,496.76,758.06,496.76z"/>
		<path d="M853.43,567.99c2.41,0.01,4.35,1.91,3.96,4C855.91,570.75,853.98,570.17,853.43,567.99z"/>
		<path d="M744.81,473.77c2.73-0.33,2.54,2.37,3.87,3.47C746.87,477.99,745.73,476.96,744.81,473.77z"/>
		<path d="M714.47,192.07c0.45-0.23,0.89-0.45,1.43-0.73c0.86,1.07,1.74,2.18,2.63,3.28c-1.4,1.14-1.58,1.04-2.3-0.3
			C715.79,193.5,715.07,192.81,714.47,192.07C714.47,192.06,714.47,192.07,714.47,192.07z"/>
		<path d="M753.08,496.71c0.98-0.44,1.67-0.38,1.87,0.86c0.07,0.45,0.34,0.88,0.35,1.33c0.02,0.49-0.16,0.99-0.25,1.48
			c-0.52-0.37-1.27-0.64-1.51-1.14C753.2,498.51,753.22,497.6,753.08,496.71z"/>
		<path d="M563.1,195.35c1.9-0.43,4.03,1.7,3.78,4.01C565.53,197.93,564.35,196.68,563.1,195.35z"/>
		<path d="M816.28,494.84c-1.44-0.73-2.52-1.28-3.83-1.95C814.31,491.7,816.06,492.52,816.28,494.84z"/>
		<path d="M775.26,599.65c0.02-1.62,0.03-3.25,0.09-4.87c0.01-0.3,0.29-0.59,0.44-0.89c0.26,0.27,0.78,0.59,0.74,0.81
			c-0.31,1.72-0.73,3.42-1.11,5.13C775.37,599.77,775.32,599.71,775.26,599.65z"/>
		<path d="M603.51,192.29c1.09,0.87,2.18,1.74,3.46,2.76c-1.83,0.4-3.23-0.6-3.81-2.38C603.28,192.54,603.4,192.42,603.51,192.29z"
			/>
		<path d="M609.94,193.38c-0.96-0.73-2.02-1.38-2.24-2.72c0.17-0.15,0.35-0.3,0.52-0.44c0.75,0.89,1.5,1.78,2.25,2.67
			C610.29,193.05,610.11,193.22,609.94,193.38z"/>
		<path d="M785.13,613.21c0.07,1.54,0.14,3.08,0.21,4.62c-0.27-0.01-0.54-0.02-0.81-0.03c0.21-1.52,0.42-3.03,0.63-4.55
			C785.15,613.24,785.13,613.21,785.13,613.21z"/>
		<path class="vol1_2_st0" d="M610.98,375.01c2.32-2.61,4.5-5.07,6.69-7.52c0.62-0.69,0.56-1.33-0.26-1.68c-2.31-0.98-3.91-2.78-5.63-4.48
			c-2.12-2.09-7.9-2.49-10.22-0.66c-0.65,0.51-1.02,1.54-1.24,2.41c-0.68,2.73-0.63,2.74-3.55,3.65
			c-7.08-6.95-12.53-14.82-13.79-25.03c5.11-1.6,10.03-2.72,15.22-2.92c5.42-0.2,10.81-1.14,16.23-1.61
			c4.51-0.39,9.05-0.48,13.56-0.83c4.86-0.37,9.7-0.9,14.56-1.33c2.6-0.23,5.22-0.33,7.82-0.58c4.89-0.47,9.77-1.06,14.66-1.52
			c4.2-0.4,8.41-0.7,12.61-1.02c3.57-0.27,7.15-0.69,10.73-0.7c3.77-0.02,7.54,0.37,11.66,0.6c0.32,4.76,0.95,9.59,0.82,14.41
			c-0.06,2.28-1.5,4.56-2.44,6.78c-1.37,3.2-2.89,6.33-4.28,9.52c-1.36,3.12-4.03,4.92-6.73,6.57c-5.96,3.63-12.5,6.09-19.11,8.14
			c-4.77,1.48-9.77,2.34-14.72,3.12c-3.99,0.62-8.09,1.13-12.1,0.92c-5.77-0.3-11.54-1.1-17.25-2.06
			C619.72,378.43,615.21,377.42,610.98,375.01z M620.96,354.45c-0.07,2.16,2.07,5.11,4.07,5.59c0.47,0.11,1.07-0.07,1.56-0.27
			c2.6-1.05,3.61-3.39,4.59-5.74c1.35-3.22,0.18-7.23-2.52-9.4c-1.03-0.83-1.9-0.71-2.6-0.02
			C623.29,347.36,620.77,350.29,620.96,354.45z"/>
		<path class="vol1_2_st0" d="M688.85,438.93c0.56-1.06,1.1-2.13,1.68-3.18c1.31-2.4,2.64-4.79,3.97-7.18c2.36-4.23,5.67-7.71,8.93-11.21
			c2.09-2.24,4.35-4.33,6.7-6.3c2.15-1.81,4.89-2.21,7.6-2.31c4.75-0.18,9.52-0.49,14.24-0.19c1.73,0.11,4.08-0.09,5.37,1.83
			c0.49,0.72,0.96,1.61,1.01,2.45c0.41,7.07,2.29,13.55,6.93,19.1c1.53,1.83,2.68,3.99,4.17,6.25c-0.63,0.04-0.88,0.07-1.14,0.07
			c-4.16-0.03-8.32-0.12-12.48-0.09c-2.69,0.02-5.37,0.25-8.06,0.28c-2.06,0.02-4.12-0.22-6.18-0.21c-2.09,0.01-4.19,0.22-6.28,0.26
			c-2.01,0.04-4.03-0.05-6.04-0.04c-5.41,0.03-10.82,0.06-16.23,0.14c-1.41,0.02-2.82,0.2-4.23,0.32
			C688.81,438.89,688.85,438.93,688.85,438.93z"/>
		<path class="vol1_2_st0" d="M585.09,325.49c1.55-11.2,2.48-22.38,6.29-33.62c2.15,2.4,4.23,4.34,5.85,6.6
			c3.78,5.26,7.37,10.66,10.95,16.06c0.82,1.23,1.46,1.05,2.68,0.65c6.23-2.06,12.58-4.21,19.19-3.82
			c7.73,0.45,15.58-0.22,23.2,1.78c2.55,0.67,5.14,1.19,7.66,1.92c2.14,0.62,3.58-0.48,4.94-1.75c2.87-2.69,5.69-5.44,8.49-8.21
			c0.94-0.94,1.67-2.09,2.6-3.03c2.82-2.81,5.69-5.57,8.7-8.51c0.22,0.51,0.38,0.79,0.45,1.08c1.21,5.53,2.49,11.06,3.55,16.62
			c0.24,1.28,1.14,3.18-1.33,3.5c0.63,0.43,1.57,0.86,1.52,1.08c-0.23,1.1-1.11,0.82-1.95,0.71c-1.13-0.15-2.29-0.14-3.55-0.21
			c-0.27-3.79-0.52-7.53-0.81-11.26c-0.03-0.41-0.21-0.87-0.48-1.19c-0.1-0.12-0.72,0-0.94,0.2c-2.69,2.39-4.53,5.4-6.48,8.92
			c3.45-1.03,3.54-4.59,5.92-5.96c0.32,3.13,0.65,6.25,0.96,9.3c-5.62-0.2-11.67-0.41-17.73-0.63c-5.62-0.2-11.25-0.62-16.87-0.53
			c-2.97,0.05-5.93,0.95-8.89,1.49c-4.11,0.75-8.23,1.48-12.33,2.28c-4.03,0.8-8.02,1.81-12.07,2.48c-3.08,0.51-6.23,0.57-9.33,0.95
			c-2.29,0.28-4.56,0.77-6.84,1.11c-3.83,0.57-7.66,1.1-11.49,1.66C586.3,325.26,585.64,325.39,585.09,325.49z M601.8,319.36
			c-0.95-1.08-1.86-2.09-2.75-3.12c-1.78-2.05-3.51-4.15-5.37-6.13c-0.43-0.45-1.3-0.58-1.98-0.62c-0.16-0.01-0.48,0.93-0.55,1.46
			c-0.17,1.32-0.25,2.65-0.33,3.97c-0.14,2.22-0.28,4.45-0.34,6.68c-0.01,0.33,0.41,0.68,0.63,1.02c0.19-0.35,0.48-0.68,0.55-1.06
			c0.14-0.73,0.16-1.49,0.21-2.24c0.2-2.44,0.39-4.88,0.58-7.32c0.18-0.05,0.36-0.1,0.54-0.15c0.98,1.3,2.1,2.51,2.89,3.91
			C597.27,318.23,599.57,319.76,601.8,319.36z"/>
		<path class="vol1_2_st0" d="M633.91,326.72c1.51-0.93,3.77-0.04,4.97-1.67c-0.06-0.21-0.12-0.42-0.18-0.63
			c-1.39,0.18-2.78,0.36-4.22,0.55c-0.56-1.86-1.08-3.62-1.63-5.45c0.14-0.03,0.63-0.25,1.1-0.22c3.66,0.23,7.05-1.03,10.54-1.78
			c2.33-0.5,4.83-0.35,7.25-0.29c4.1,0.11,8.19,0.41,12.29,0.56c4.92,0.18,9.84,0.33,14.75,0.39c5,0.06,10-0.01,15.01,0.01
			c2.75,0.01,3.35,0.49,4.01,3.46c0.57,2.57,0.97,5.17,1.47,7.94c-4.37-0.21-8.56-0.55-12.75-0.56c-2.46-0.01-4.91,0.53-7.37,0.75
			c-3.28,0.3-6.56,0.47-9.84,0.8c-4.02,0.4-8.03,0.93-12.05,1.34c-5.69,0.58-11.39,1.12-17.09,1.66c-0.33,0.03-0.81,0.05-0.98-0.14
			c-1.79-2.04-3.54-4.11-5.28-6.19C633.84,327.13,633.91,326.89,633.91,326.72z M639.3,323.28c0.81,0.3,1.4,0.45,1.93,0.73
			c0.59,0.32,1.1,0.8,1.68,1.13c0.2,0.11,0.61,0.05,0.79-0.09c0.17-0.14,0.29-0.51,0.24-0.74
			C643.64,322.91,640.73,322.06,639.3,323.28z"/>
		<path class="vol1_2_st0" d="M582.65,340.09c0-2.39-0.05-4.83,0.02-7.28c0.02-0.86,0.34-1.7,0.51-2.56c0.6-2.95,0.62-2.82,3.63-3.27
			c4.73-0.7,9.42-1.64,14.15-2.38c2.17-0.34,4.37-0.41,6.56-0.63c2.77-0.28,5.54-0.52,8.29-0.91c1.41-0.2,2.76-0.76,4.17-1.04
			c3.79-0.76,7.59-1.47,11.53-2.23c0.37,1.84,0.72,3.56,1.14,5.62c-2.65-0.46-4.97-0.14-7.07,1.11c0.02,0.2,0.04,0.41,0.06,0.61
			c2-0.13,3.99-0.26,6.36-0.42c-1.77,3.48-4.2,5.47-7.88,5.94c1.78,1.98,4.29,0.86,8.81-3.67c0.68,0.76,1.38,1.51,2.05,2.29
			c0.67,0.78,1.31,1.6,2.23,2.73c-2.45,0.12-4.55,0.24-6.65,0.34c-2.2,0.1-4.41,0.11-6.6,0.3c-6.39,0.55-12.78,1.19-19.17,1.76
			c-4.66,0.42-9.35,0.6-13.98,1.25C588.2,338.04,585.7,339.16,582.65,340.09z"/>
		<path class="vol1_2_st0" d="M667.92,433.88c-0.94,0.22-2.15,0.42-3.3,0.78c-6.26,1.95-12.73,2.41-19.22,2.63
			c-3.06,0.1-6.01-0.09-8.2-2.81c-1.56-1.94-1.24-5.21,1.05-6c3.39-1.16,6.87-2.19,10.4-2.79c4.14-0.7,7.4-2.79,10.62-5.24
			c2.82-2.14,4.19-5.13,5.44-8.43c0.33,3.8,0.49,7.4,1.01,10.95C666.24,426.54,667.13,430.05,667.92,433.88z"/>
		<path class="vol1_2_st0" d="M783.4,400.71c0.36,1.41,0.9,2.8,1.04,4.23c0.49,4.8,3.19,7.96,7.26,10.09c4.05,2.11,8.18,4.05,12.26,6.1
			c3.03,1.52,5.31,4.33,3.12,8.04c-0.09,0.15-0.14,0.32-0.18,0.49c-0.71,3.28-2.7,3.8-6.06,2.47c-5.17-2.06-9.88-4.97-13.47-9.32
			c-1.91-2.31-3.56-4.84-5.27-7.31c-0.24-0.34-0.25-0.96-0.14-1.4c1.11-4.37,1.37-8.81,1.01-13.3
			C783.13,400.77,783.26,400.74,783.4,400.71z"/>
		<path class="vol1_2_st0" d="M605.09,375.25c-2.42,1.09-4.4,1.98-6.4,2.87c-1.22-2.55-2.34-4.86-3.31-6.89
			C599.42,369.8,601.91,372.69,605.09,375.25z"/>
		<path class="vol1_2_st0" d="M601.06,364.35c0.55-0.69,0.96-1.73,1.67-2.01c3.33-1.33,6.58-1.2,9.96,1.62c-1.51,0.08-3.24-0.28-4.41,0.37
			c-0.99,0.56-1.34,2.28-1.88,3.33c-1.03-1.28-1.84-3.81-4.9-2.8C601.36,364.69,601.21,364.52,601.06,364.35z"/>
		<path class="vol1_2_st0" d="M670.94,438.26c-5.94,0-11.89,0-17.83,0c-0.01-0.08-0.02-0.17-0.03-0.25c1.46-0.09,2.95-0.02,4.38-0.29
			c3.34-0.65,6.66-1.43,9.98-2.23c1.23-0.29,1.73,0.14,2.08,1.31c0.14,0.47,0.96,0.73,1.47,1.09
			C670.97,438.01,670.95,438.13,670.94,438.26z"/>
		<path class="vol1_2_st0" d="M613.36,366.33c0.42,2.94-1.58,4.84-5.37,5.11c0.1-0.81,0.17-1.6,0.3-2.38c0.14-0.8,0.34-1.58,0.54-2.48
			C610.33,366.49,611.82,366.41,613.36,366.33z"/>
		<path class="vol1_2_st0" d="M605.87,371.67c-2.94,0.5-4.05-0.76-4.32-4.94C603.56,365.7,605.87,368.36,605.87,371.67z"/>
		<path class="vol1_2_st0" d="M760.29,439.43c-1.95,0.66-3.87,1.42-5.85,1.97c-1.55,0.43-2.04-0.94-2.86-2.16c3,0,5.82,0,8.64,0
			C760.24,439.3,760.26,439.37,760.29,439.43z"/>
		<path class="vol1_2_st0" d="M575.71,361.3c-2.66-4.56-5.33-9.13-7.99-13.69c0.27-0.15,0.53-0.31,0.8-0.46c1.24,2.31,2.46,4.64,3.74,6.93
			c1.29,2.31,2.63,4.58,3.95,6.87C576.04,361.06,575.88,361.18,575.71,361.3z"/>
		<path class="vol1_2_st0" d="M684.14,439.41c-3.25,2.19-6.41,1.96-9.66,0C677.81,439.41,680.97,439.41,684.14,439.41z"/>
		<path class="vol1_2_st0" d="M694.92,316.13c-0.88,0-1.69,0.09-2.46-0.04c-0.33-0.05-0.59-0.55-0.88-0.84c0.3-0.2,0.59-0.53,0.92-0.57
			C693.62,314.54,694.72,314.56,694.92,316.13z"/>
		<path class="vol1_2_st0" d="M757.73,237.09c3.21-2.35,6.54-4.49,9.51-7.05c2.76-2.37,5.09-5.23,7.72-7.76c0.71-0.69,1.79-1.35,2.73-1.39
			c3.72-0.15,7.45,0.02,11.17-0.05c2.79-0.06,5.57-0.48,8.35-0.45c3.48,0.04,6.97,0.38,10.45,0.58c1.56,0.09,3.12,0.15,4.68,0.24
			c3.46,0.21,6.92,0.37,10.37,0.68c1.5,0.13,2.33-0.45,2.79-1.76c0.96-2.77,1.5-5.78,2.94-8.27c1.99-3.42,4.43-6.65,7.11-9.57
			c1.59-1.74,4.03-0.69,5.91,0.12c3.3,1.43,4.84,4.01,4.79,7.73c-0.07,5.44-2.42,9.73-6.13,13.42c-3.72,3.71-5.92,8.1-6.32,13.38
			c-0.32,4.17-0.68,8.34-1.1,12.49c-0.4,3.96-2.18,7.44-4.08,10.85c-1.04,1.87-2.09,3.76-3.39,5.44c-2.38,3.07-5.69,4.86-9.53,4.51
			c-4.44-0.4-8.37-2.43-10.57-6.49c-1.18-2.18-1.58-4.81-2.2-7.27c-0.49-1.93-0.8-3.91-1.22-5.99c-3.78,2.06-7.46-0.26-11.21-0.26
			c-3.94,0-7.88-0.19-11.81-0.16c-2.35,0.02-4.69,0.36-7.04,0.46c-3.93,0.16-5.85,2.99-7.68,5.83c-0.85,1.32-1.16,2.99-1.98,4.35
			c-1.85,3.06-3.66,6.19-5.9,8.95c-1.28,1.59-3.29,2.65-5.12,3.7c-1.23,0.7-2.31,0.19-3.25-1.07c-2.47-3.35-3.42-7.08-3.22-11.16
			c0.14-2.95,1.56-5.38,3.53-7.41c2.66-2.75,5.54-5.29,8.29-7.96C758.82,243.31,759.56,240.49,757.73,237.09z"/>
		<path class="vol1_2_st0" d="M723.76,225.23c-1.32-0.81-3.68-0.3-5.16,1.15c-0.91,0.9-1.76,1.85-2.96,3.11c-2.26-2.52-4.68-4.85-6.63-7.52
			c-1.94-2.64-3.41-5.62-5.18-8.62c3.52-0.49,6.77-1.01,10.04-1.38c2.75-0.32,5.52-0.52,8.29-0.68c1.08-0.06,2.19,0.24,3.28,0.23
			c6.09-0.1,12.18-0.15,18.26-0.41c6.12-0.26,12.23-0.66,18.34-1.15c3.58-0.29,7.13-0.89,10.7-1.32c2.17-0.26,4.34-0.48,6.69-0.74
			c-1.09,3.88-2.01,7.83-4.29,11.37c-2.23,3.46-4.83,6.63-8.1,8.99c-5.83,4.22-10.91,9.59-17.92,12.1
			c-5.48,1.96-10.87,2.04-16.25-0.28c-1.82-0.78-2.86-2.27-3.72-3.93c-0.12-0.23-0.14-0.57-0.07-0.83c0.29-1.12,0.63-2.23,1.04-3.66
			c0.5-0.14,1.41-0.4,2.33-0.66c-0.03-0.12-0.05-0.23-0.08-0.35c-0.68-0.13-1.37-0.27-2.05-0.4c-0.01-0.2-0.02-0.4-0.03-0.61
			c1.02-0.15,2.04-0.41,3.06-0.43c3.21-0.05,4.66-2.47,6.31-4.59c0.95-1.22,2.44-2.27,1.71-4.32c-1.65,0.53-2.25-0.51-2.8-1.84
			c-0.37-0.89-0.88-1.85-1.61-2.45c-0.58-0.48-1.73-0.85-2.33-0.59c-1.23,0.53-2.56,1.3-3.31,2.35c-1.12,1.58-2.46,3.11-2.6,5.3
			c-0.04,0.68-1.22,1.28-2.05,2.08c-0.43-0.25-1.06-0.61-1.63-0.94C724.56,224.6,724.16,224.91,723.76,225.23L723.76,225.23z"/>
		<path class="vol1_2_st0" d="M736,206.25c1.74-2.1,4.74-1.15,6.89-2.83c-0.49-0.15-0.98-0.42-1.46-0.41c-0.75,0.01-1.5,0.18-2.24,0.34
			c-1.67,0.36-3.24,0.56-4.03-1.49c-0.05-0.14-0.38-0.17-0.81-0.34c0.42,2.69-1.1,2.63-2.92,2.44c-0.68-0.07-1.93-0.15-1.52,1.34
			c1.33,0.08,2.62,0.16,3.94,0.24c-0.81,3.33-2.28,4.26-5.53,4.41c-7.66,0.36-15.32,0.86-22.97,1.4c-2.17,0.15-2.83-0.14-3.8-3.16
			c-0.43-1.33-0.4-2.81-0.6-4.33c2.36-0.42,4.51-0.79,6.66-1.19c2.37-0.45,4.72-1.06,7.12-1.35c3.16-0.38,6.35-0.51,9.53-0.77
			c2.82-0.24,5.65-0.49,8.47-0.78c6.75-0.69,13.49-1.4,20.23-2.1c5.18-0.54,10.36-1.14,15.56-1.59c2.89-0.25,5.8-0.36,8.7-0.37
			c2.31-0.01,3.33,1.02,3.33,3.34c0,2.14-0.21,4.29-0.45,6.42c-0.04,0.39-0.66,0.98-1.06,1.02c-10.57,1.03-21.14,2.03-31.72,2.94
			c-2.17,0.19-4.39,0.07-6.56-0.17c-0.98-0.11-1.94-0.77-2.83-1.32C737.25,207.52,736.72,206.9,736,206.25z M745.71,202.7
			c0.03-0.18,0.05-0.35,0.08-0.53c-0.54-0.51-1.08-1.01-1.62-1.52c-0.08-0.08-0.19-0.24-0.25-0.22c-0.38,0.12-0.74,0.28-1.11,0.42
			c0.48,0.62,0.89,1.33,1.49,1.81C744.59,202.89,745.23,202.7,745.71,202.7z"/>
		<path class="vol1_2_st0" d="M726.18,241.06c1.13,3.16,4.12,4.91,6.82,6.84c3.79,2.72,4.05,2.7,2.46,6.74c-1.39,3.54-2.94,7.09-5.85,9.76
			c-0.4,0.37-0.94,0.82-1.42,0.82c-4.58-0.01-9.16-0.08-13.74-0.22c-0.43-0.01-1.08-0.47-1.24-0.87c-1.74-4.37-3.49-8.73-5.05-13.17
			c-0.83-2.36,0.56-4.07,3.31-6.06c2.7-1.95,5.58-2.21,8.71-2.35C722.14,242.48,724.08,241.62,726.18,241.06z"/>
		<path class="vol1_2_st0" d="M776.98,270.54c-1.78-0.23-3.71-0.97-4.89-3.31c-1.74-3.45-2.19-7.18-2.88-10.88
			c-0.03-0.17-0.03-0.35-0.05-0.52c-0.08-1.02-0.44-2.83-0.19-2.92c1.65-0.59,3.43-0.9,5.19-1.05c0.26-0.02,0.76,1.22,0.94,1.92
			c0.55,2.15,0.78,4.42,1.57,6.47c0.73,1.91,2.55,2.73,4.59,2.96c2.43,0.27,3.06,1.48,1.66,3.51
			C781.63,268.6,780.32,270.66,776.98,270.54z"/>
		<path class="vol1_2_st0" d="M800.64,253.51c0.33,1.83,0.67,3.66,0.99,5.5c0.06,0.34-0.05,0.76,0.11,1.03c1.45,2.47-0.27,4.12-1.53,5.83
			c-1.65,2.23-3.73,3.8-6.69,3.78c-1.41-0.01-2.45-0.7-2.8-1.95c-0.58-2.08-0.94-4.16,0.97-5.97c2.84-2.7,5.54-5.55,8.3-8.33
			C800.21,253.43,800.43,253.47,800.64,253.51z"/>
		<path class="vol1_2_st0" d="M723.75,225.23c1.36,1.18,2.72,2.35,4.31,3.73c0.07,1.31,0.16,3.17,0.25,5.03c-0.26,0.02-0.52,0.04-0.79,0.05
			c-0.03-0.74-0.03-1.48-0.08-2.22c-0.03-0.36-0.05-0.81-0.27-1.03c-0.21-0.21-0.75-0.33-1-0.21c-1.47,0.73-2.9,1.54-4.34,2.32
			c-0.72-1.57-0.36-3.99-3.15-5.02c1.39-0.67,2.79-1.32,4.17-2C723.18,225.73,723.46,225.45,723.75,225.23
			C723.76,225.23,723.75,225.23,723.75,225.23z"/>
		<path class="vol1_2_st0" d="M715.24,232.07c0.41,1.82,1.26,2.89,3.04,3.33c1.7,0.42,2.83,2.44,2.42,4.08c-0.11,0.45-1.32,1.13-1.5,0.99
			c-2.02-1.54-4.83-2.01-6.11-4.6c-1.02-2.06-1.11-2.01,0.89-3.1C714.34,232.58,714.69,232.38,715.24,232.07z"/>
		<path class="vol1_2_st0" d="M737.5,210.2c-0.86-0.14-1.18-0.19-1.51-0.25c-2.51-0.42-2.51-0.42-0.93-2.84
			C735.8,208.04,736.48,208.9,737.5,210.2z"/>
		<path class="vol1_2_st0" d="M725.1,237.63c-0.05,0.75-0.1,1.5-0.15,2.41c-0.64,0.05-1.22,0.1-2.31,0.19c0.8-1.23,1.34-2.06,1.88-2.88
			C724.71,237.44,724.91,237.53,725.1,237.63z"/>
		<path class="vol1_2_st0" d="M772.48,194.35c0.74-1.68,1.63-1.68,3.06-0.14C774.55,194.26,773.61,194.3,772.48,194.35z"/>
		<path class="vol1_2_st0" d="M841.39,524.57c-0.29,1.29-0.11,2.77-1.81,2.93c-0.39,0.04-1.29-0.94-1.21-1.26
			C838.73,524.82,839.85,524.4,841.39,524.57z"/>
		<path class="vol1_2_st0" d="M769.73,567.03c-1.22,0.6-1.96,1.06-2.76,1.29c-0.23,0.07-0.98-0.73-0.93-0.82c0.47-0.81,1.05-1.56,1.6-2.33
			C768.19,565.67,768.75,566.16,769.73,567.03z"/>
		<path class="vol1_2_st0" d="M807.48,560.43c-0.52-2.94,1.41-2.53,2.52-3.02c0.1,0.12,0.21,0.23,0.31,0.35
			C809.47,558.56,808.63,559.36,807.48,560.43z"/>
		<path d="M620.96,354.45c-0.19-4.16,2.32-7.1,5.1-9.84c0.7-0.69,1.57-0.8,2.6,0.02c2.7,2.17,3.87,6.18,2.52,9.4
			c-0.99,2.35-2,4.7-4.59,5.74c-0.48,0.19-1.08,0.38-1.56,0.27C623.04,359.56,620.9,356.61,620.96,354.45z M627.54,350.92
			c-1.95,1.86-1.91,2.19,0,3.34C627.54,353.28,627.54,352.28,627.54,350.92z"/>
		<path d="M601.8,319.36c-2.24,0.4-4.53-1.13-5.91-3.59c-0.79-1.4-1.92-2.62-2.89-3.91c-0.18,0.05-0.36,0.1-0.54,0.15
			c-0.19,2.44-0.38,4.88-0.58,7.32c-0.06,0.75-0.08,1.5-0.21,2.24c-0.07,0.37-0.36,0.71-0.55,1.06c-0.22-0.34-0.64-0.69-0.63-1.02
			c0.06-2.23,0.21-4.45,0.34-6.68c0.08-1.33,0.16-2.66,0.33-3.97c0.07-0.53,0.39-1.47,0.55-1.46c0.68,0.04,1.55,0.17,1.98,0.62
			c1.86,1.97,3.59,4.08,5.37,6.13C599.94,317.27,600.85,318.28,601.8,319.36z"/>
		<path d="M639.3,323.28c1.43-1.22,4.34-0.36,4.64,1.04c0.05,0.23-0.07,0.6-0.24,0.74c-0.19,0.14-0.59,0.2-0.79,0.09
			c-0.59-0.33-1.09-0.81-1.68-1.13C640.7,323.73,640.11,323.58,639.3,323.28z"/>
		<path d="M745.71,202.7c-0.48,0-1.12,0.19-1.41-0.04c-0.59-0.48-1-1.19-1.49-1.81c0.37-0.14,0.74-0.3,1.11-0.42
			c0.05-0.02,0.16,0.14,0.25,0.22c0.54,0.51,1.08,1.01,1.62,1.52C745.76,202.35,745.73,202.52,745.71,202.7z"/>
		<path class="vol1_2_st0" d="M627.54,350.92c0,1.36,0,2.36,0,3.34C625.63,353.11,625.59,352.78,627.54,350.92z"/>
	</g>
</g>
</svg>
