<?xml version="1.0" encoding="utf-8"?>
<!-- Generator: Adobe Illustrator 26.3.1, SVG Export Plug-In . SVG Version: 6.00 Build 0)  -->
<svg version="1.1" xmlns="http://www.w3.org/2000/svg" xmlns:xlink="http://www.w3.org/1999/xlink" x="0px" y="0px"
	 viewBox="0 0 1366 768" style="enable-background:new 0 0 1366 768;" xml:space="preserve">
<style type="text/css">
	.vol1_7_st0{fill:#FFFFFF;}
	.vol1_7_st1{fill:none;stroke:#ffffff;stroke-width:56.6929;stroke-miterlimit:10;}
</style>
<g id="base">
	<g>
		<path class="vol1_7_st0" d="M870,640.25c-116.67,0-233.33,0-350,0c0-162.75,0-325.5,0-488.25c116.67,0,233.33,0,350,0
			C870,314.75,870,477.5,870,640.25z M565.53,286.42c0.72-0.89,0.68-0.86,1.73,0.31c0.37,0.41,0.94,0.73,1.47,0.87
			c2.87,0.77,5.32-0.27,7.63-1.87c0.39-0.27,1.06-0.74,1.2-0.63c0.4,0.32,0.83,0.9,0.84,1.39c0.08,2.71,0.04,5.42,0.04,7.93
			c-1.31,0.3-2.4,0.43-3.4,0.8c-2.06,0.78-4.07,1.68-6.09,2.56c-2.63,1.14-3.69,0.59-4.02-2.23c-0.14-1.17-0.16-2.35-0.25-3.85
			c-0.55,0.43-0.99,0.62-0.99,0.81c0.01,1.82-0.03,3.66,0.19,5.47c0.23,1.87,1.78,2.08,3.55,1.52c1.2-0.38,2.25-1.2,3.45-1.6
			c2.32-0.78,4.27-2.66,7-2.25c2.23,0.34,2.4,0.13,2.25-2.16c-0.03-0.4-0.14-0.8-0.17-1.2c-0.18-2.36-0.37-4.72-0.48-7.08
			c-0.02-0.39,0.27-0.93,0.59-1.17c1.66-1.21,3.4-2.32,5.07-3.51c3.82-2.7,6.25-6.48,7.93-10.74c0.83-2.09,1.33-4.32,1.93-6.49
			c0.28-1.02,0.59-2.06,0.62-3.11c0.07-1.94-0.07-3.88-0.07-5.82c0-0.91,0.36-1.89,0.15-2.73c-1-3.89-2.11-7.76-3.27-11.61
			c-0.54-1.78-1.28-3.5-1.92-5.22c23.55-0.11,46.97-0.1,70.78,1.86c-0.89,0.74-1.47,1.13-1.93,1.63c-1.57,1.7-3.52,3.22-4.53,5.21
			c-1.4,2.75-2.08,5.88-3.07,8.84c-1.37,4.06-1.27,8.29-0.9,12.42c0.33,3.65,1.5,7.22,2.2,10.85c0.63,3.26,1.62,6.32,3.27,9.26
			c1.79,3.21,3.12,6.69,4.59,10.07c0.21,0.48,0.2,1.11,0.13,1.66c-0.17,1.36-0.6,2.72-0.62,4.08c-0.06,4.27,0.56,5.76,5.89,5.69
			c0.35,0,0.7-0.1,1.04-0.1c2.01,0,4.03-0.01,6.04,0.05c1.26,0.04,2.19-0.15,2.21-1.7c0.04-2.47,0.12-4.94,0.2-7.4
			c0.02-0.59,0.11-1.17,0.2-2.08c0.72,0.84,1.19,1.38,1.85,2.15c0.32-0.8,0.82-1.43,0.71-1.92c-0.61-2.55,1.44-3.93,2.39-5.77
			c2.01-3.89,4.3-7.64,6.1-11.62c0.88-1.94,1.08-4.26,1.29-6.43c0.4-4.18,0.52-8.39,0.9-12.57c0.22-2.41,0.71-4.8,1.05-7.21
			c0.16-1.14,0.4-2.29,0.39-3.44c-0.03-3.65,0.06-7.36-2.81-10.68c4.43,0.2,8.3,0.4,12.18,0.55c5.17,0.2,10.34,0.36,15.51,0.53
			c4.41,0.15,8.82,0.34,13.23,0.42c8.66,0.14,17.32,0.2,25.98,0.3c1.06,0.01,1.27,0.69,0.69,1.36c-1.96,2.26-3.24,4.92-4.3,7.65
			c-2.12,5.45-3,11.18-3.08,17.02c-0.06,3.77-0.19,7.55-0.07,11.32c0.1,3.07-0.01,6.21,2.24,8.85c1.68,1.97,3.01,4.23,4.57,6.45
			c-0.82,0.65-0.52,2.82-2.73,2.09c-0.34,1.21-0.82,2.29-0.92,3.41c-0.35,3.89,0.58,5.54,4.66,4.86c2.28-0.38,4.45-1.5,6.62-2.4
			c2.42-1.01,3.06-2.37,2.5-4.97c-0.24-1.13-0.08-1.81,1.1-2.52c2.69-1.62,4.98-3.74,6.49-6.61c0.92-1.74,1.95-3.43,3.02-5.08
			c0.73-1.12,1.87-2.03,2.37-3.23c2.37-5.69,2.76-11.79,3.21-17.84c0.18-2.48-0.28-4.99-0.19-7.48c0.14-4.03,0.5-8.05,0.78-12.23
			c3.82,0,7.23-0.07,10.64,0.02c4.23,0.1,8.46,0.3,12.69,0.5c2.54,0.12,5.08,0.38,7.62,0.49c3.58,0.15,7.16,0.2,10.74,0.33
			c2.38,0.09,4.75,0.4,7.12,0.34c5.26-0.12,10.51-0.4,15.76-0.65c0.57-0.03,1.13-0.32,1.7-0.48c-1.64-0.56-3.22-0.87-4.8-0.87
			c-5.92-0.02-11.84,0.21-17.76,0.07c-4.85-0.11-9.68-0.64-14.53-0.93c-5.3-0.32-10.59-0.62-15.89-0.84
			c-2.2-0.09-4.41,0.07-6.62,0.09c-2.2,0.02-4.41,0-6.83,0c0.27-1.09,0.33-1.93,0.68-2.6c0.94-1.77,2.24-3.38,2.97-5.22
			c1.94-4.91,2.48-10.13,2.95-15.34c0.15-1.66-0.48-2.14-2.16-2.13c-4.06,0.02-8.13-0.03-12.19,0.02c-0.39,0-0.87,0.36-1.14,0.68
			c-0.35,0.42-0.48,1.03-0.81,1.48c-1.66,2.31-3.16,4.68-3.97,7.45c-0.53,1.81-1.26,3.57-1.73,5.39c-0.35,1.36,0.48,1.86,1.93,1.79
			c0.17-1.25,0.08-2.56,0.55-3.61c1.61-3.57,3.42-7.06,5.19-10.56c0.18-0.36,0.63-0.83,0.96-0.83c3.81-0.06,7.62-0.04,11.64-0.04
			c-0.85,6.1-1.02,12.23-4.92,17.69c-0.37-1.29-0.66-2.31-0.95-3.32c-0.15,0.03-0.3,0.07-0.45,0.1c-0.07,1.19-0.13,2.37-0.2,3.63
			c-3.47-0.68-6.8-1.49-10.18-1.96c-3.33-0.46-6.6-1.65-10.02-1.23c-0.06,0.22-0.12,0.45-0.18,0.67c1.53,0.45,3.07,0.89,4.74,1.38
			c-0.96,0.89-1.77,1.62-2.54,2.38c-2.73,2.7-5.75,4.44-9.83,4.22c-6.29-0.34-12.6-0.37-18.9-0.55c-3.13-0.09-6.26-0.3-9.39-0.32
			c-4.41-0.03-8.83,0.14-13.24,0.08c-4.54-0.06-9.07-0.27-13.6-0.49c-2.96-0.14-5.92-0.38-8.87-0.67c-0.61-0.06-1.18-0.57-1.76-0.87
			c0.31-0.46,0.63-0.9,0.91-1.37c0.69-1.18,1.87-2.34,1.96-3.57c0.27-3.82,0.37-7.68-0.72-11.45c-0.56-1.93-1.17-2.4-3.11-2.08
			c-3.89,0.64-7.79,1.3-11.68,1.96c-4.53,0.78-7.43,4.08-7.86,8.72c-0.24,2.57-0.72,5.13-1.13,7.87c-0.79,0-1.53,0.04-2.28-0.01
			c-6.66-0.38-13.32-0.87-19.99-1.14c-7.26-0.29-14.53-0.44-21.8-0.53c-8.35-0.09-16.71-0.02-25.07-0.07
			c-1.97-0.01-4.13,0.29-5.86-0.42c-1.92-0.79-3.44-2.56-5.12-3.89c2.44-1.56,2.62-2.12,0.82-3.14c-4.08-2.32-8.2-4.57-12.37-6.71
			c-2.08-1.07-3.52-0.78-4.93,1.09c-1.67,2.21-3.08,4.63-4.49,7.02c-0.27,0.46-0.06,1.2-0.07,1.81c0.49-0.37,1.11-0.64,1.44-1.12
			c1.61-2.4,3.09-4.88,4.74-7.25c0.27-0.39,1.34-0.65,1.76-0.43c4.17,2.1,8.29,4.32,12.74,6.68c-3.27,1.33-6.05,2.56-8.9,3.6
			c-1.95,0.71-3.97,1.46-6.01,1.68c-2.86,0.3-5.78,0.07-8.67,0.15c-4.99,0.15-9.98,0.32-14.97,0.57c-6.86,0.35-13.71,0.78-20.56,1.2
			c-0.61,0.04-1.21,0.31-1.82,0.48c0.03,0.22,0.07,0.44,0.1,0.65c6.22,0.51,12.39-0.62,18.59-0.84c6.29-0.23,12.58-0.73,19.18-1.13
			c-0.28,1.38-0.39,2.23-0.63,3.05c-0.59,2-1.38,3.95-1.83,5.98c-0.77,3.45-1.35,6.94-1.99,10.42c-0.29,1.58-0.56,3.16-0.82,4.74
			c-0.77,4.72-0.84,9.34,1.49,13.76c1.21,2.29,2.1,4.73,1.64,7.43c-0.13,0.79-0.37,1.57-0.41,2.36c-0.07,1.61-0.24,3.25,0.05,4.81
			c0.15,0.83,1.54,1.43,1.71,2.26c0.27,1.37,1.17,1.2,1.95,1.47c-0.45-0.92-1.01-1.7-1.51-2.52c-1.1-1.82-0.69-3.84-0.54-5.77
			c0.05-0.6,0.88-1.14,1.32-1.66C562.96,282.38,564.24,284.39,565.53,286.42z M671.49,385.57c1.08,0,2.12-0.03,3.16,0
			c3.72,0.11,7.45,0.23,11.17,0.37c5.58,0.2,11.23-0.04,16.73,0.72c8.1,1.12,16.1,2.96,24.14,4.5c5.93,1.13,11.83,2.52,17.81,3.34
			c7.16,0.98,13.83,2.9,19.72,7.27c1.4,1.04,3.03,1.9,5.09,1.87c2.5-0.03,2.92-0.1,2.85-2.64c-0.09-3.42-0.21-6.84-0.38-10.26
			c-0.34-6.72-0.7-13.44-1.11-20.16c-0.13-2.19-0.29-4.39-0.65-6.55c-0.47-2.8-1.22-5.55-1.71-8.34c-0.44-2.49-1.48-3.04-3.6-1.52
			c-3.92,2.8-7.76,5.71-11.65,8.55c-3.66,2.67-7.36,5.27-11,7.96c-4.2,3.11-8.36,6.27-12.52,9.42c-1.21,0.91-2.43,0.98-3.91,0.55
			c-3.56-1.02-7.14-2.22-10.8-2.65c-7.44-0.87-14.93-1.32-22.41-1.84c-2.78-0.19-5.58-0.16-8.37-0.05
			c-4.93,0.19-9.9,0.17-14.76,0.87c-4.57,0.66-9.03,2.16-13.55,3.21c-0.67,0.16-1.61,0.15-2.12-0.21c-3.89-2.74-7.75-5.5-11.52-8.41
			c-4.97-3.83-9.8-7.83-14.76-11.66c-1.88-1.45-3.9-2.74-5.94-3.96c-1.68-1.01-2.43-0.52-2.51,1.37c-0.03,0.57-0.14,1.14-0.29,1.69
			c-0.8,2.91-1.76,5.77-2.42,8.71c-1.75,7.79-1.32,15.67-0.73,23.55c0.56,7.49,2.34,14.73,4.16,21.97c1.63,6.5,2.9,13.12,4.96,19.48
			c1.81,5.6,4.47,10.93,6.84,16.34c0.39,0.88,0.38,1.34-0.2,2.13c-1.54,2.09-3.26,4.16-4.25,6.51c-2.13,5.07-3.93,10.29-5.69,15.5
			c-0.38,1.13-0.37,2.61-0.01,3.75c0.74,2.33,1.66,4.65,2.86,6.77c1.91,3.4,5.73,4.55,9.15,2.74c2.55-1.35,4.91-3.08,7.32-4.67
			c5.07-3.35,7.88-8.02,8.13-14.15c0-0.07,0.16-0.13,0.07-0.06c4.23,1.87,8.35,3.71,12.48,5.51c1.31,0.57,2.62,1.3,4,1.55
			c3.6,0.64,7.24,1.05,10.86,1.57c6.11,0.88,12.28,1.33,18.4,0.63c4.76-0.55,9.44-1.81,14.16-2.72c5.49-1.06,11.02-2.02,15.95-4.87
			c2.69-1.55,5.39-3.14,7.88-4.98c2.88-2.14,5.65-4.46,8.26-6.92c2.43-2.29,4.6-4.85,6.85-7.33c0.53-0.58,0.94-1.28,1.36-1.95
			c1.72-2.73,3.61-5.38,5.1-8.23c1.49-2.85,2.52-5.93,3.85-8.86c1.07-2.36,2.28-4.66,3.43-6.99c0.72-1.45,1.37-2.92,2.16-4.33
			c1-1.79,2.33-3.43,3.11-5.31c0.93-2.22,1.51-4.6,2.06-6.95c0.2-0.88,0.53-2.11-0.65-2.56c-0.41,1.54-0.8,3.01-1.2,4.48
			c-0.22,0.8-0.28,1.68-0.69,2.36c-1.11,1.82-2.52,3.48-3.52,5.35c-0.68,1.27-1.41,1.28-2.51,0.88c-2.32-0.84-4.6-1.79-6.98-2.43
			c-4.3-1.17-8.63-2.25-12.98-3.18c-3.17-0.68-6.41-1.04-9.61-1.58c-5.67-0.95-11.32-2.01-17-2.89c-8.39-1.29-16.8-2.45-25.2-3.69
			c-0.54-0.08-1.12-0.29-1.54-0.62c-1.2-0.93-2.2-2.17-3.5-2.89c-4.25-2.33-8.35-4.82-11.4-8.69c-0.25-0.32-0.44-0.68-0.88-1.37
			c3.67,0,6.9-0.02,10.14,0.01c1.54,0.01,3.05,0.04,4.04-1.53c0.46,0.41,0.79,0.85,1.24,1.07c1.18,0.59,2.38,1.14,3.62,1.56
			c0.28,0.1,0.78-0.33,1.11-0.61c0.08-0.06-0.09-0.66-0.24-0.71c-2.09-0.61-3.33-4.12-6.26-1.88c-4.28,0-8.57,0-12.86,0
			C671.7,387.35,671.6,386.55,671.49,385.57z M721.64,471.06c-0.01,0.32-0.02,0.65-0.04,0.97c1.11,0.19,2.22,0.56,3.33,0.54
			c6.21-0.11,12.42-0.42,18.63-0.47c6.33-0.05,12.67,0.13,19,0.18c7.14,0.06,14.29,0.03,21.43,0.17c6.9,0.13,13.8,0.55,20.7,0.62
			c8.79,0.09,17.58-0.02,26.37-0.12c0.72-0.01,1.63-0.34,2.13-0.85c1.24-1.27,2.18-2.85,3.45-4.08c3.27-3.14,6.99-5.65,11.05-7.71
			c2.87-1.45,5.79-1.1,9.27-1.31c-3.19,7.38-3.78,15.22-8.13,21.88c1.26,0.6,1.19,1.49,0.71,2.59c-0.32,0.73-0.44,1.57-0.58,2.37
			c-0.73,4.35-1.61,8.68-3.93,12.5c-1.49,2.45-3.26,4.73-4.92,7.08c-2.76,3.9-5.54,7.78-8.28,11.68c-0.29,0.41-0.49,0.91-0.64,1.4
			c-0.38,1.19-0.79,2.37-1.05,3.59c-0.3,1.45-0.43,2.93-0.65,4.4c-0.25,1.64-0.42,3.3-0.8,4.91c-0.6,2.55-1.29,5.09-2.07,7.59
			c-0.4,1.29-1.08,2.49-1.65,3.73c-0.29,0.63-0.53,1.29-0.91,1.87c-1.35,2.06-2.38,4.55-4.21,6.04c-3.35,2.72-9.6,1.72-12.13-2.12
			c-2.42-3.68-4.43-7.78-5.78-11.97c-1.52-4.72-2.13-9.73-3.09-14.63c-0.37-1.87-0.96-3.45-3.13-3.85
			c-3.57-0.65-7.12-1.43-10.7-2.01c-3.09-0.49-6.26-0.55-9.31-1.2c-5.53-1.18-11.05-2.12-16.72-2.02c-2.35,0.04-3.63,0.75-4.47,2.93
			c-0.75,1.94-1.34,3.94-2.16,5.84c-1.62,3.76-3.44,7.44-5.01,11.22c-1.71,4.12-3.71,8.03-6.86,11.26c-0.36,0.37-0.78,0.7-1.21,0.98
			c-3.97,2.61-8.05,2.36-12.08,0.26c-1-0.52-1.99-1.44-2.52-2.42c-1.44-2.68-2.71-5.41-5.33-7.21c-0.41-0.28-0.7-0.78-0.94-1.24
			c-3.22-6.05-4.49-12.67-5.33-19.35c-0.7-5.52-0.88-11.11-1.24-16.68c-0.25-3.91-1.5-7.4-4.35-10.15
			c-1.28-1.24-2.72-2.37-4.24-3.29c-3.57-2.17-7.22-4.18-11.01-6.35c-0.28,1.73,0.86,2.21,1.75,2.74c2.94,1.76,5.98,3.38,8.87,5.21
			c2.56,1.63,4.92,3.69,5.64,6.73c1.12,4.71,1.96,9.5,2.64,14.29c0.46,3.2,0.09,6.54,0.71,9.7c0.97,4.94,2.31,9.81,3.79,14.62
			c0.59,1.93,1.59,4.12,3.1,5.29c2.15,1.67,3.68,3.68,4.55,6.02c0.87,2.35,2.45,3.55,4.48,4.49c0.57,0.26,1.25,0.27,1.82,0.53
			c3.61,1.63,7,0.4,9.81-1.54c4.73-3.28,7.72-8.18,10.02-13.38c2.46-5.57,4.62-11.27,6.84-16.94c0.49-1.25,1.09-1.98,2.52-1.83
			c4.02,0.41,8.06,0.72,12.08,1.19c4.02,0.47,8.03,1.07,12.03,1.67c1.48,0.22,3.02,1.07,4.39,0.81c2.18-0.4,3.96,0.47,5.85,1
			c2.14,0.6,3.81,1.69,4.19,4.25c0.57,3.86,1.34,7.7,2.12,11.53c0.3,1.46,0.69,2.94,1.3,4.29c0.87,1.91,2.19,3.63,2.93,5.58
			c1.17,3.08,2.82,5.53,5.8,7.19c3.21,1.8,9.99,1.48,12.57-1.13c2.57-2.6,4.44-5.73,5.78-9.14c0.63-1.59,0.85-3.4,1.68-4.85
			c1.53-2.66,1.55-5.62,2.18-8.46c0.95-4.27,0.63-8.84,3.65-12.58c2.58-3.19,4.74-6.71,7.25-9.95c3.86-4.99,6.72-10.31,7.73-16.69
			c0.57-3.62,0.39-7.55,2.82-10.73c0.13-0.17,0.11-0.44,0.17-0.67c1.16-3.81,2.3-7.62,3.48-11.42c0.5-1.61,1.18-3.16,1.61-4.78
			c0.72-2.67-0.38-4.04-3.22-4.1c-3.71-0.08-7.22,0.48-10.59,2.29c-4.62,2.49-8.62,5.65-11.84,9.78c-0.98,1.26-2.04,2.1-3.77,2.1
			c-4.94,0.02-9.89,0.32-14.83,0.21c-9.76-0.23-19.52-0.67-29.27-1.03c-3.37-0.13-6.73-0.38-10.09-0.42
			c-5.29-0.07-10.57-0.01-15.86,0c-7.39,0.01-14.77,0.02-22.16,0.05c-2.84,0.01-5.69,0.06-8.53,0.14
			C726.05,470.79,723.85,470.95,721.64,471.06z M838.89,449.85c-0.25-0.04-0.52-0.15-0.78-0.13c-2.36,0.26-4.5,1.01-6.69,2.04
			c-4.33,2.04-8.21,4.45-10.88,8.55c-0.94,1.43-0.79,3.14,0.66,3.91c0.13-0.25,0.29-0.48,0.37-0.74c1.27-3.75,3.75-6.51,7.15-8.39
			C832.03,453.26,835.45,451.62,838.89,449.85z M825.82,468.41c0.97-0.79,1.73-1.24,2.27-1.88c0.81-0.95,1.33-2.2,2.24-3.03
			c3.86-3.55,7.82-7,11.39-10.16C838.05,453.56,825.74,462.64,825.82,468.41z M565.15,287.98c-0.19-0.04-0.38-0.07-0.57-0.11
			c-0.3,0.9-0.65,1.79-0.88,2.71c-0.06,0.22,0.25,0.53,0.39,0.8c0.22-0.12,0.61-0.22,0.64-0.38
			C564.91,290.01,565.02,288.99,565.15,287.98z"/>
		<path d="M565.53,286.42c-1.29-2.03-2.57-4.04-4.07-6.42c-0.43,0.52-1.27,1.06-1.32,1.66c-0.15,1.93-0.56,3.95,0.54,5.77
			c0.5,0.82,1.06,1.6,1.51,2.52c-0.78-0.27-1.68-0.09-1.95-1.47c-0.17-0.84-1.56-1.43-1.71-2.26c-0.29-1.55-0.12-3.2-0.05-4.81
			c0.03-0.79,0.27-1.57,0.41-2.36c0.46-2.7-0.43-5.14-1.64-7.43c-2.33-4.42-2.26-9.04-1.49-13.76c0.26-1.58,0.53-3.16,0.82-4.74
			c0.64-3.48,1.22-6.97,1.99-10.42c0.45-2.03,1.24-3.98,1.83-5.98c0.24-0.82,0.35-1.67,0.63-3.05c-6.6,0.4-12.88,0.91-19.18,1.13
			c-6.2,0.22-12.37,1.36-18.59,0.84c-0.03-0.22-0.07-0.44-0.1-0.65c0.61-0.17,1.21-0.44,1.82-0.48c6.85-0.43,13.7-0.85,20.56-1.2
			c4.99-0.25,9.98-0.42,14.97-0.57c2.89-0.09,5.81,0.15,8.67-0.15c2.04-0.21,4.05-0.96,6.01-1.68c2.85-1.04,5.63-2.26,8.9-3.6
			c-4.46-2.36-8.57-4.58-12.74-6.68c-0.43-0.22-1.49,0.05-1.76,0.43c-1.65,2.37-3.13,4.85-4.74,7.25c-0.32,0.48-0.95,0.75-1.44,1.12
			c0.01-0.61-0.21-1.35,0.07-1.81c1.42-2.39,2.83-4.8,4.49-7.02c1.41-1.87,2.85-2.15,4.93-1.09c4.17,2.14,8.3,4.39,12.37,6.71
			c1.81,1.03,1.62,1.58-0.82,3.14c1.69,1.34,3.2,3.11,5.12,3.89c1.72,0.71,3.89,0.41,5.86,0.42c8.36,0.04,16.71-0.03,25.07,0.07
			c7.27,0.08,14.53,0.24,21.8,0.53c6.67,0.27,13.33,0.76,19.99,1.14c0.74,0.04,1.49,0.01,2.28,0.01c0.4-2.74,0.89-5.29,1.13-7.87
			c0.43-4.63,3.32-7.94,7.86-8.72c3.89-0.67,7.78-1.32,11.68-1.96c1.94-0.32,2.55,0.16,3.11,2.08c1.09,3.77,0.99,7.63,0.72,11.45
			c-0.09,1.23-1.26,2.39-1.96,3.57c-0.28,0.47-0.61,0.92-0.91,1.37c0.59,0.3,1.15,0.81,1.76,0.87c2.95,0.29,5.91,0.53,8.87,0.67
			c4.53,0.22,9.07,0.42,13.6,0.49c4.41,0.06,8.83-0.11,13.24-0.08c3.13,0.02,6.26,0.23,9.39,0.32c6.3,0.18,12.61,0.21,18.9,0.55
			c4.08,0.22,7.1-1.52,9.83-4.22c0.77-0.76,1.58-1.49,2.54-2.38c-1.68-0.49-3.21-0.94-4.74-1.38c0.06-0.22,0.12-0.45,0.18-0.67
			c3.42-0.42,6.69,0.77,10.02,1.23c3.38,0.47,6.7,1.28,10.18,1.96c0.07-1.26,0.14-2.44,0.2-3.63c0.15-0.03,0.3-0.07,0.45-0.1
			c0.29,1.02,0.58,2.03,0.95,3.32c3.9-5.46,4.07-11.59,4.92-17.69c-4.02,0-7.83-0.02-11.64,0.04c-0.33,0.01-0.78,0.47-0.96,0.83
			c-1.77,3.5-3.57,6.99-5.19,10.56c-0.47,1.05-0.38,2.36-0.55,3.61c-1.45,0.06-2.28-0.43-1.93-1.79c0.46-1.83,1.2-3.58,1.73-5.39
			c0.81-2.77,2.31-5.14,3.97-7.45c0.33-0.45,0.46-1.06,0.81-1.48c0.27-0.33,0.75-0.68,1.14-0.68c4.06-0.04,8.13,0.01,12.19-0.02
			c1.68-0.01,2.31,0.46,2.16,2.13c-0.47,5.21-1.01,10.43-2.95,15.34c-0.73,1.84-2.04,3.45-2.97,5.22c-0.36,0.67-0.41,1.51-0.68,2.6
			c2.42,0,4.62,0.02,6.83,0c2.21-0.02,4.42-0.18,6.62-0.09c5.3,0.22,10.6,0.52,15.89,0.84c4.84,0.29,9.68,0.82,14.53,0.93
			c5.92,0.14,11.84-0.08,17.76-0.07c1.58,0,3.16,0.31,4.8,0.87c-0.57,0.17-1.12,0.46-1.7,0.48c-5.25,0.25-10.51,0.53-15.76,0.65
			c-2.37,0.06-4.75-0.25-7.12-0.34c-3.58-0.13-7.16-0.18-10.74-0.33c-2.54-0.11-5.08-0.36-7.62-0.49c-4.23-0.2-8.46-0.4-12.69-0.5
			c-3.41-0.08-6.82-0.02-10.64-0.02c-0.28,4.19-0.64,8.21-0.78,12.23c-0.09,2.49,0.38,5.01,0.19,7.48
			c-0.45,6.05-0.84,12.14-3.21,17.84c-0.5,1.2-1.65,2.11-2.37,3.23c-1.07,1.65-2.1,3.34-3.02,5.08c-1.51,2.86-3.8,4.99-6.49,6.61
			c-1.18,0.71-1.34,1.39-1.1,2.52c0.56,2.6-0.08,3.96-2.5,4.97c-2.17,0.9-4.34,2.02-6.62,2.4c-4.08,0.68-5.01-0.97-4.66-4.86
			c0.1-1.12,0.58-2.2,0.92-3.41c2.21,0.73,1.91-1.44,2.73-2.09c-1.55-2.22-2.89-4.48-4.57-6.45c-2.25-2.64-2.14-5.77-2.24-8.85
			c-0.12-3.77,0.01-7.54,0.07-11.32c0.09-5.84,0.96-11.56,3.08-17.02c1.06-2.73,2.34-5.38,4.3-7.65c0.58-0.67,0.37-1.35-0.69-1.36
			c-8.66-0.1-17.32-0.16-25.98-0.3c-4.41-0.07-8.82-0.27-13.23-0.42c-5.17-0.17-10.34-0.33-15.51-0.53
			c-3.88-0.15-7.76-0.35-12.18-0.55c2.88,3.32,2.78,7.03,2.81,10.68c0.01,1.15-0.22,2.3-0.39,3.44c-0.35,2.4-0.84,4.79-1.05,7.21
			c-0.37,4.18-0.49,8.39-0.9,12.57c-0.21,2.17-0.41,4.48-1.29,6.43c-1.8,3.98-4.09,7.73-6.1,11.62c-0.95,1.84-2.99,3.23-2.39,5.77
			c0.11,0.48-0.39,1.11-0.71,1.92c-0.67-0.78-1.13-1.32-1.85-2.15c-0.09,0.91-0.18,1.49-0.2,2.08c-0.08,2.47-0.17,4.94-0.2,7.4
			c-0.02,1.55-0.96,1.74-2.21,1.7c-2.01-0.07-4.03-0.05-6.04-0.05c-0.35,0-0.69,0.1-1.04,0.1c-5.33,0.06-5.95-1.42-5.89-5.69
			c0.02-1.36,0.45-2.71,0.62-4.08c0.07-0.54,0.08-1.17-0.13-1.66c-1.47-3.39-2.8-6.86-4.59-10.07c-1.64-2.94-2.63-6-3.27-9.26
			c-0.71-3.63-1.87-7.2-2.2-10.85c-0.37-4.13-0.47-8.36,0.9-12.42c1-2.96,1.67-6.08,3.07-8.84c1.01-1.99,2.96-3.51,4.53-5.21
			c0.46-0.5,1.04-0.88,1.93-1.63c-23.81-1.96-47.23-1.98-70.78-1.86c0.64,1.72,1.39,3.44,1.92,5.22c1.16,3.85,2.27,7.72,3.27,11.61
			c0.22,0.84-0.15,1.82-0.15,2.73c0,1.94,0.14,3.89,0.07,5.82c-0.04,1.04-0.34,2.09-0.62,3.11c-0.6,2.18-1.1,4.4-1.93,6.49
			c-1.68,4.26-4.11,8.03-7.93,10.74c-1.68,1.19-3.41,2.3-5.07,3.51c-0.32,0.23-0.6,0.78-0.59,1.17c0.11,2.36,0.3,4.72,0.48,7.08
			c0.03,0.4,0.14,0.8,0.17,1.2c0.15,2.29-0.02,2.5-2.25,2.16c-2.73-0.42-4.68,1.47-7,2.25c-1.19,0.4-2.25,1.22-3.45,1.6
			c-1.77,0.56-3.33,0.36-3.55-1.52c-0.22-1.81-0.18-3.64-0.19-5.47c0-0.19,0.45-0.38,0.99-0.81c0.09,1.5,0.11,2.68,0.25,3.85
			c0.33,2.81,1.39,3.37,4.02,2.23c2.02-0.88,4.04-1.78,6.09-2.56c1-0.38,2.09-0.5,3.4-0.8c0-2.51,0.04-5.22-0.04-7.93
			c-0.01-0.49-0.44-1.06-0.84-1.39c-0.14-0.12-0.81,0.36-1.2,0.63c-2.31,1.6-4.76,2.64-7.63,1.87c-0.54-0.14-1.11-0.46-1.47-0.87
			C566.21,285.57,566.25,285.53,565.53,286.42z M562.73,235.05c0,0.04-0.01,0.5-0.12,0.95c-1.22,5.08-2.52,10.14-3.68,15.23
			c-1.26,5.53-2,11.1-0.84,16.77c0.86,4.2,2.3,8.15,5.06,11.46c1.84,2.21,3.92,4.22,5.97,6.24c0.35,0.35,1.21,0.47,1.71,0.32
			c2.82-0.86,5.62-1.78,8.38-2.8c1.33-0.49,2.23-1.43,1.96-3.08c-0.2-1.22-0.34-2.46-0.38-3.69c-0.18-5.5-0.4-11-0.43-16.5
			c-0.03-6.61,0.09-13.22,0.23-19.83c0.01-0.55,0.59-1.1,0.9-1.64c0.22,0.09,0.45,0.18,0.67,0.27c0.14,3.23,0.38,6.46,0.41,9.69
			c0.04,4.8-0.07,9.6-0.11,14.4c-0.01,1.47-0.06,2.94,0.01,4.4c0.13,2.83,0.29,5.66,0.54,8.48c0.12,1.37,0.5,2.72,0.86,4.59
			c1.68-1.85,3.23-3.15,4.26-4.77c2.27-3.59,3.96-7.42,4.76-11.69c1.44-7.63,0.49-15.02-1.57-22.35c-0.5-1.77-1.28-3.5-2.21-5.09
			c-0.49-0.83-1.52-1.71-2.41-1.85c-2.16-0.34-4.39-0.3-6.6-0.34c-3.25-0.05-6.5-0.14-9.74-0.01
			C567.9,234.31,565.46,234.74,562.73,235.05z M658.43,284.05c0.24-0.04,0.48-0.09,0.72-0.13c1.92-14.95,3.85-29.9,5.8-45.04
			c1.7,0.22,1.03,1.56,0.97,2.31c-0.19,2.72-0.68,5.42-0.83,8.14c-0.64,11.48-2.36,22.84-3.86,34.22
			c-0.84,6.41,2.06,9.91,8.16,11.89c2.34,0.76,3.52,0.04,4.62-2.07c0.23-0.45,0.73-0.77,0.97-1.22c0.35-0.65,0.83-1.37,0.81-2.05
			c-0.06-3.06-0.39-6.12-0.4-9.18c-0.02-6.4,0.06-12.79,0.2-19.19c0.11-5.46,0.39-10.91,0.54-16.36c0.07-2.42,0.01-4.85,0.01-7.33
			c-0.51-0.03-0.8-0.09-1.07-0.05c-3.83,0.46-7.65,0.56-11.45-0.3c-0.51-0.12-1.26-0.04-1.63,0.27c-1.43,1.18-3,2.31-4.07,3.78
			c-4.15,5.69-5.35,12.25-5.17,19.14c0.11,4.39,1,8.63,2.35,12.8c0.78,2.42,1.25,4.95,1.97,7.39
			C657.36,282.12,657.96,283.07,658.43,284.05z M764.77,291.87c0.5-0.82,1.14-1.46,1.3-2.21c1.79-8.3,1.68-16.76,1.96-25.18
			c0.22-6.67,0.31-13.34,1.67-19.91c0.22-1.08,0.44-2.16,0.54-3.25c0.04-0.43-0.19-1.22-0.41-1.27c-0.64-0.13-1.49-0.17-1.97,0.17
			c-0.4,0.28-0.46,1.13-0.58,1.74c-0.77,4.25-1.57,8.5-2.26,12.77c-0.96,5.96-1.95,11.91-2.7,17.9c-0.69,5.5-1.1,11.03-1.56,16.56
			c-0.09,1.08-0.36,1.91-1.5,1.83c-0.24-0.02-0.62-1.21-0.57-1.83c0.65-9.09,0.93-18.22,2.7-27.2c0.65-3.3,1.05-6.64,1.62-9.96
			c0.69-3.99,1.44-7.98,2.21-12.27c-1.94,0-3.68-0.08-5.4,0.05c-0.59,0.04-1.31,0.48-1.69,0.96c-4.01,5.01-5.8,10.95-6.64,17.15
			c-0.66,4.83-1.01,9.71-1.15,14.58c-0.1,3.32-0.15,6.82,0.78,9.95c1.22,4.13,4.13,7.47,7.7,9.96c0.78,0.54,2.35-0.06,3.56-0.14
			c-0.13-0.85-0.26-1.7-0.41-2.54c-0.09-0.52-0.23-1.03-0.35-1.55c0.2-0.07,0.4-0.14,0.6-0.22
			C762.98,289.12,763.74,290.29,764.77,291.87z M678.06,289.97c0.24,0.05,0.49,0.11,0.73,0.16c0.99-1.37,2.18-2.65,2.93-4.14
			c2.8-5.57,4.73-11.34,5-17.71c0.26-6.13,1.16-12.23,1.77-18.35c0.32-3.2,0.6-6.42-0.78-9.44c-0.51-1.11-1.33-2.65-2.27-2.87
			c-2.04-0.48-4.26-0.27-6.4-0.27c-0.9,0-1.07,0.58-1.04,1.43c0.1,2.9,0.15,5.81,0.15,8.71c-0.01,7.14-0.07,14.29-0.08,21.43
			C678.04,275.94,678.06,282.95,678.06,289.97z M768.58,288c0.14,0.16,0.28,0.32,0.42,0.47c0.22-0.44,0.4-0.92,0.67-1.33
			c1.65-2.58,3.29-5.18,5-7.72c2.22-3.32,3.45-7.04,3.79-10.93c0.44-5.08,0.38-10.21,0.65-15.31c0.19-3.71,0.53-7.41,0.87-11.11
			c0.18-1.9,0.02-2.15-1.87-2.17c-1.05-0.01-2.09,0-3.14,0.01c-2.17,0.02-2.82,0.58-3.07,2.78c-0.32,2.82-0.68,5.64-0.87,8.47
			c-0.13,1.97,0.09,3.95,0.01,5.92c-0.15,3.53-0.51,7.06-0.59,10.59C770.29,274.5,770.01,281.3,768.58,288z M677.87,230.67
			c2.04-0.23,3.82,0.31,5.21,1.74c1.04,1.07,1.79,0.89,2.49-0.22c0.45-0.73,1.07-1.54,1.09-2.32c0.06-3.35-0.08-6.71-0.15-10.06
			c-0.03-1.26-0.64-1.7-1.9-1.48c-3.89,0.69-7.8,1.24-11.67,2.03c-1.36,0.28-2.72,0.74-3.61,2.16c-2.17,3.46-2.36,7.36-2.7,11.21
			c-0.12,1.38,1.15,2.04,2.53,2.07c1.28,0.03,2.56,0,3.83,0.06c1.54,0.07,3.16,0.39,3.78-1.64c0.02-0.05,0.2-0.06,0.31-0.08
			c1.52,1.96,1.52,1.96,5.88-0.19C681.16,232.79,679.59,231.78,677.87,230.67z M673.74,296.75c-3.56,1.29-6.51,0.57-9.21-1.21
			c-1.1-0.72-1.52-0.4-1.62,0.64c-0.2,2-0.1,4.04-0.42,6.01c-0.32,1.95,0.63,2.62,2.22,2.69c2.65,0.11,5.31,0.07,7.96,0.02
			c0.36-0.01,1.02-0.48,1.02-0.75C673.78,301.76,673.74,299.37,673.74,296.75z M755.92,292.63c-0.96,2.4-1.84,4.46-2.61,6.56
			c-0.48,1.32,0.07,2.01,1.51,1.89c2.9-0.25,5.56-1.06,7.73-3.12c1.27-1.2,1.42-2.48,0.44-4.15
			C760.56,294.55,758.13,295,755.92,292.63z M768.65,238.05c1.38-0.1,2.69-0.29,3.99-0.26c2.01,0.05,4.02,0.34,6.03,0.33
			c0.52,0,1.35-0.64,1.5-1.15c0.25-0.84,0.25-1.93-1.01-2.22c-3.43-0.8-6.86-1.6-10.3-2.36c-0.41-0.09-0.89,0.13-1.84,0.29
			C769.41,234.16,768.28,236.07,768.65,238.05z M586.17,232.9c-3.07-3.24-5.09-2.61-10.2,0C579.32,232.9,582.67,232.9,586.17,232.9z
			 M766.8,232.73c-0.17-0.07-0.34-0.14-0.51-0.21c-1.73,1.64-3.46,3.28-5.19,4.92c1.36,0.48,2.45,0.62,3.53,0.58
			c0.44-0.02,1.17-0.33,1.25-0.64C766.28,235.85,766.51,234.28,766.8,232.73z"/>
		<path d="M671.49,385.57c0.11,0.98,0.2,1.79,0.33,2.95c4.29,0,8.58,0,12.86,0c2.94-2.24,4.17,1.27,6.26,1.88
			c0.15,0.04,0.31,0.64,0.24,0.71c-0.33,0.27-0.83,0.7-1.11,0.61c-1.24-0.43-2.44-0.98-3.62-1.56c-0.45-0.22-0.78-0.67-1.24-1.07
			c-0.99,1.57-2.5,1.55-4.04,1.53c-3.23-0.02-6.47-0.01-10.14-0.01c0.44,0.69,0.64,1.05,0.88,1.37c3.06,3.88,7.16,6.36,11.4,8.69
			c1.3,0.72,2.31,1.96,3.5,2.89c0.42,0.33,1,0.54,1.54,0.62c8.4,1.24,16.81,2.4,25.2,3.69c5.68,0.87,11.33,1.93,17,2.89
			c3.2,0.54,6.44,0.9,9.61,1.58c4.36,0.93,8.69,2.01,12.98,3.18c2.37,0.65,4.66,1.59,6.98,2.43c1.1,0.4,1.83,0.39,2.51-0.88
			c1.01-1.87,2.41-3.53,3.52-5.35c0.41-0.68,0.48-1.57,0.69-2.36c0.4-1.47,0.79-2.94,1.2-4.48c1.17,0.46,0.85,1.69,0.65,2.56
			c-0.55,2.35-1.13,4.73-2.06,6.95c-0.78,1.87-2.11,3.52-3.11,5.31c-0.79,1.41-1.45,2.88-2.16,4.33c-1.15,2.33-2.36,4.63-3.43,6.99
			c-1.33,2.93-2.37,6.01-3.85,8.86c-1.49,2.85-3.37,5.5-5.1,8.23c-0.42,0.67-0.83,1.37-1.36,1.95c-2.25,2.47-4.42,5.04-6.85,7.33
			c-2.61,2.46-5.38,4.79-8.26,6.92c-2.49,1.85-5.19,3.43-7.88,4.98c-4.93,2.85-10.46,3.8-15.95,4.87c-4.72,0.91-9.4,2.17-14.16,2.72
			c-6.12,0.7-12.29,0.25-18.4-0.63c-3.62-0.52-7.26-0.93-10.86-1.57c-1.38-0.25-2.69-0.97-4-1.55c-4.13-1.8-8.25-3.64-12.48-5.51
			c0.09-0.07-0.07-0.01-0.07,0.06c-0.25,6.13-3.06,10.8-8.13,14.15c-2.42,1.6-4.77,3.32-7.32,4.67c-3.42,1.81-7.24,0.66-9.15-2.74
			c-1.2-2.13-2.11-4.44-2.86-6.77c-0.37-1.14-0.38-2.62,0.01-3.75c1.77-5.21,3.56-10.43,5.69-15.5c0.99-2.35,2.71-4.42,4.25-6.51
			c0.58-0.79,0.59-1.25,0.2-2.13c-2.38-5.41-5.03-10.74-6.84-16.34c-2.06-6.36-3.33-12.98-4.96-19.48
			c-1.81-7.24-3.6-14.48-4.16-21.97c-0.59-7.88-1.02-15.76,0.73-23.55c0.66-2.94,1.62-5.81,2.42-8.71c0.15-0.55,0.27-1.13,0.29-1.69
			c0.08-1.89,0.83-2.38,2.51-1.37c2.04,1.22,4.06,2.5,5.94,3.96c4.96,3.84,9.79,7.84,14.76,11.66c3.76,2.9,7.63,5.67,11.52,8.41
			c0.51,0.36,1.45,0.36,2.12,0.21c4.52-1.06,8.97-2.56,13.55-3.21c4.86-0.7,9.83-0.68,14.76-0.87c2.78-0.11,5.59-0.14,8.37,0.05
			c7.48,0.51,14.97,0.97,22.41,1.84c3.65,0.43,7.23,1.62,10.8,2.65c1.48,0.43,2.7,0.36,3.91-0.55c4.17-3.15,8.32-6.31,12.52-9.42
			c3.64-2.69,7.34-5.3,11-7.96c3.89-2.84,7.73-5.75,11.65-8.55c2.12-1.51,3.16-0.97,3.6,1.52c0.49,2.79,1.24,5.54,1.71,8.34
			c0.36,2.16,0.52,4.36,0.65,6.55c0.4,6.72,0.77,13.44,1.11,20.16c0.17,3.42,0.29,6.84,0.38,10.26c0.07,2.55-0.35,2.61-2.85,2.64
			c-2.06,0.03-3.69-0.83-5.09-1.87c-5.89-4.37-12.57-6.29-19.72-7.27c-5.98-0.82-11.87-2.21-17.81-3.34
			c-8.04-1.54-16.04-3.38-24.14-4.5c-5.5-0.76-11.15-0.52-16.73-0.72c-3.72-0.13-7.45-0.26-11.17-0.37
			C673.61,385.54,672.57,385.57,671.49,385.57z M761.92,420.01c-2.07-0.78-3.76-1.6-5.54-2.04c-7.16-1.76-14.31-3.61-21.54-5.03
			c-6.84-1.35-13.76-2.25-20.66-3.27c-8.55-1.27-17.1-2.6-25.68-3.64c-8.33-1.01-16.71-1.09-25.09-0.58
			c-6.72,0.41-13.45,0.77-20.16,1.34c-7.26,0.61-14.26,2.41-21.12,5.47c0.47,1.57,1.01,3.1,1.38,4.66c0.79,3.39,1.26,6.88,2.27,10.2
			c1.51,4.92,3.27,9.78,5.13,14.58c0.98,2.53,2.34,4.92,3.68,7.28c0.3,0.53,1.27,0.99,1.93,0.97c4.25-0.09,9.37,4.23,10.03,8.42
			c0.28,1.76,0.29,3.72,2.27,4.8c3.34,1.82,6.53,3.93,9.95,5.58c2.7,1.31,5.57,2.47,8.49,3.07c5.32,1.1,10.73,1.86,16.13,2.55
			c6.83,0.87,13.64,0.67,20.37-0.91c4.88-1.15,9.78-2.21,14.62-3.51c5.53-1.49,10.53-4.09,14.84-7.91c1.95-1.73,3.85-3.5,5.77-5.26
			c2.05-1.88,4.32-3.57,6.09-5.69c2.37-2.83,4.4-5.96,6.48-9.03c0.85-1.26,1.56-2.65,2.16-4.05c0.86-2.02,1.45-4.16,2.38-6.15
			C757.93,427.93,759.92,424.06,761.92,420.01z M620.75,357.45c-3.82,10.93-5.5,21.68-3.48,32.81c2.76-0.89,5.28-1.92,7.9-2.51
			c8.35-1.87,16.83-2.77,25.39-3.03c6.26-0.19,12.52-0.77,18.78-0.76c9.25,0.02,18.5,0.47,27.74,0.63
			c7.91,0.14,15.52,2.07,23.18,3.71c4.13,0.89,8.22,2.01,12.37,2.8c5.42,1.02,10.87,1.84,16.32,2.68c3.12,0.48,6.16,1.16,8.93,2.75
			c0.39,0.22,0.9,0.25,1.17,0.32c-0.27-7.17-0.54-14.13-0.81-21.36c-5.18,4.01-8.91,9.19-13.62,13.29c-0.22-0.2-0.43-0.4-0.65-0.59
			c1.2-1.64,2.24-3.45,3.64-4.9c3.49-3.64,7.12-7.15,10.76-10.63c0.44-0.42,1.41-0.63,1.99-0.46c0.4,0.12,0.76,1.06,0.79,1.65
			c0.29,4.7,0.59,9.4,0.7,14.1c0.08,3.37-0.12,6.76-0.21,10.52c2.17,1.29,4.81,2.85,7.45,4.41c0.16-0.13,0.31-0.26,0.47-0.4
			c-1.47-15.42-0.23-31.07-3.97-46.57c-0.94,0.56-1.81,1-2.59,1.56c-3.56,2.58-7.1,5.19-10.63,7.81
			c-7.08,5.26-14.15,10.53-21.24,15.78c-1.66,1.23-3.26,1.93-5.6,1.24c-6.45-1.92-13.01-3.55-19.78-3.88
			c-7.15-0.34-14.3-0.52-21.45-0.82c-9.05-0.37-17.9,0.67-26.46,3.71c-2.61,0.93-4.93,1.14-7.31-0.78
			c-6.69-5.41-13.5-10.68-20.29-15.96C627.12,362.13,623.9,359.8,620.75,357.45z M621.41,410.36c0.94-0.34,1.53-0.58,2.13-0.76
			c3.86-1.17,7.64-2.78,11.59-3.4c7.27-1.14,14.61-2.08,21.96-2.41c8.53-0.39,17.1-0.03,25.65-0.01c0.28,0,0.57-0.13,1.3-0.31
			c-5.57-2.77-10.88-5.2-14.31-10.27c-0.56,0.47-0.9,0.78-1.26,1.06c-2.6,1.99-5.32,3.74-8.65,4.21c-1.99,0.28-2.99-0.46-3.23-2.28
			c4.67,0.82,10.38-1.74,11.54-5.41c-3.34,0.32-6.56,0.65-9.78,0.91c-0.44,0.04-0.91-0.24-1.36-0.38c0.24-0.42,0.39-1.1,0.73-1.23
			c1.34-0.5,2.73-1.01,4.14-1.17c2.45-0.28,4.93-0.29,7.37-0.42c0.11-2.78,0.1-2.86-2.34-2.74c-10.28,0.52-20.57,0.86-30.82,1.72
			c-5.76,0.48-11.53,1.44-16.95,3.73c-0.98,0.41-1.36,0.97-1.2,1.97c0.5,3.2,0.91,6.43,1.54,9.61
			C619.93,405.25,620.71,407.69,621.41,410.36z M644.76,471.71c-0.16-0.07-0.31-0.13-0.47-0.2c0.03-0.73,0-1.47,0.11-2.2
			c0.52-3.51,0.35-6.72-3.26-8.71c-0.64-0.35-1.15-0.97-1.67-1.51c-2-2.08-3.97-4.18-6.19-6.51c-0.9,1.03-1.96,1.95-2.67,3.09
			c-2.95,4.71-4.73,9.93-6.42,15.2c-1.41,4.38-0.22,8.13,2.28,11.64c1.81,2.53,3.69,3.16,6.48,1.76c2.88-1.43,5.46-3.44,8.28-5.01
			c3.28-1.83,4.48-4.87,5.2-8.23c0.13-0.6,0.02-1.25,0.02-2.21C645.75,470.02,645.25,470.87,644.76,471.71z M644.49,459.88
			c-0.39-3.47-5.43-8.17-8.31-8.09C638.91,454.45,641.53,457,644.49,459.88z"/>
		<path d="M721.64,471.06c2.21-0.12,4.41-0.27,6.62-0.34c2.84-0.09,5.69-0.13,8.53-0.14c7.39-0.03,14.77-0.03,22.16-0.05
			c5.29-0.01,10.58-0.07,15.86,0c3.37,0.04,6.73,0.3,10.09,0.42c9.76,0.36,19.51,0.8,29.27,1.03c4.94,0.12,9.89-0.19,14.83-0.21
			c1.72-0.01,2.79-0.85,3.77-2.1c3.22-4.13,7.22-7.29,11.84-9.78c3.36-1.81,6.88-2.37,10.59-2.29c2.83,0.06,3.94,1.42,3.22,4.1
			c-0.44,1.62-1.11,3.17-1.61,4.78c-1.18,3.8-2.33,7.61-3.48,11.42c-0.07,0.22-0.05,0.5-0.17,0.67c-2.43,3.18-2.25,7.12-2.82,10.73
			c-1,6.38-3.87,11.7-7.73,16.69c-2.51,3.25-4.67,6.77-7.25,9.95c-3.02,3.74-2.71,8.31-3.65,12.58c-0.63,2.84-0.65,5.8-2.18,8.46
			c-0.84,1.46-1.05,3.26-1.68,4.85c-1.35,3.4-3.21,6.53-5.78,9.14c-2.58,2.61-9.36,2.93-12.57,1.13c-2.97-1.67-4.63-4.12-5.8-7.19
			c-0.74-1.95-2.06-3.67-2.93-5.58c-0.61-1.35-1.01-2.83-1.3-4.29c-0.78-3.83-1.55-7.66-2.12-11.53c-0.38-2.56-2.05-3.65-4.19-4.25
			c-1.89-0.53-3.67-1.41-5.85-1c-1.36,0.25-2.91-0.59-4.39-0.81c-4.01-0.6-8.01-1.2-12.03-1.67c-4.02-0.47-8.06-0.78-12.08-1.19
			c-1.43-0.15-2.03,0.58-2.52,1.83c-2.22,5.67-4.38,11.37-6.84,16.94c-2.29,5.2-5.28,10.1-10.02,13.38c-2.8,1.94-6.2,3.17-9.81,1.54
			c-0.57-0.26-1.25-0.27-1.82-0.53c-2.03-0.94-3.61-2.14-4.48-4.49c-0.86-2.34-2.39-4.35-4.55-6.02c-1.51-1.17-2.5-3.36-3.1-5.29
			c-1.48-4.81-2.83-9.69-3.79-14.62c-0.62-3.16-0.25-6.5-0.71-9.7c-0.68-4.79-1.52-9.58-2.64-14.29c-0.72-3.03-3.08-5.1-5.64-6.73
			c-2.89-1.84-5.93-3.45-8.87-5.21c-0.89-0.54-2.03-1.01-1.75-2.74c3.78,2.17,7.44,4.18,11.01,6.35c1.52,0.92,2.95,2.06,4.24,3.29
			c2.85,2.75,4.1,6.24,4.35,10.15c0.36,5.56,0.55,11.15,1.24,16.68c0.84,6.68,2.11,13.3,5.33,19.35c0.24,0.45,0.53,0.96,0.94,1.24
			c2.62,1.8,3.89,4.53,5.33,7.21c0.53,0.99,1.52,1.9,2.52,2.42c4.03,2.1,8.11,2.34,12.08-0.26c0.43-0.28,0.85-0.61,1.21-0.98
			c3.14-3.23,5.15-7.14,6.86-11.26c1.57-3.78,3.39-7.46,5.01-11.22c0.82-1.9,1.41-3.9,2.16-5.84c0.84-2.19,2.12-2.89,4.47-2.93
			c5.67-0.09,11.2,0.84,16.72,2.02c3.05,0.65,6.22,0.71,9.31,1.2c3.58,0.57,7.13,1.35,10.7,2.01c2.17,0.4,2.77,1.97,3.13,3.85
			c0.96,4.9,1.57,9.91,3.09,14.63c1.35,4.19,3.35,8.29,5.78,11.97c2.53,3.84,8.78,4.84,12.13,2.12c1.83-1.49,2.86-3.98,4.21-6.04
			c0.38-0.57,0.62-1.24,0.91-1.87c0.56-1.24,1.24-2.44,1.65-3.73c0.78-2.5,1.46-5.04,2.07-7.59c0.38-1.61,0.55-3.27,0.8-4.91
			c0.22-1.47,0.36-2.95,0.65-4.4c0.25-1.22,0.66-2.4,1.05-3.59c0.16-0.49,0.35-0.98,0.64-1.4c2.75-3.9,5.53-7.79,8.28-11.68
			c1.66-2.35,3.43-4.63,4.92-7.08c2.32-3.82,3.2-8.15,3.93-12.5c0.13-0.8,0.26-1.63,0.58-2.37c0.48-1.1,0.55-1.99-0.71-2.59
			c4.35-6.66,4.94-14.5,8.13-21.88c-3.48,0.21-6.41-0.14-9.27,1.31c-4.07,2.06-7.78,4.57-11.05,7.71c-1.28,1.23-2.21,2.81-3.45,4.08
			c-0.49,0.5-1.4,0.84-2.13,0.85c-8.79,0.09-17.58,0.21-26.37,0.12c-6.9-0.07-13.8-0.48-20.7-0.62c-7.14-0.14-14.29-0.11-21.43-0.17
			c-6.33-0.06-12.67-0.24-19-0.18c-6.21,0.05-12.42,0.36-18.63,0.47c-1.11,0.02-2.22-0.35-3.33-0.54
			C721.62,471.71,721.63,471.39,721.64,471.06z"/>
		<path d="M838.89,449.85c-3.45,1.77-6.86,3.41-10.17,5.24c-3.4,1.88-5.89,4.64-7.15,8.39c-0.09,0.26-0.25,0.49-0.37,0.74
			c-1.44-0.77-1.59-2.47-0.66-3.91c2.68-4.09,6.55-6.5,10.88-8.55c2.19-1.03,4.33-1.79,6.69-2.04
			C838.37,449.7,838.64,449.81,838.89,449.85z"/>
		<path d="M825.82,468.41c-0.08-5.77,12.23-14.85,15.89-15.07c-3.56,3.16-7.52,6.61-11.39,10.16c-0.91,0.83-1.42,2.08-2.24,3.03
			C827.55,467.17,826.79,467.62,825.82,468.41z"/>
		<path d="M565.15,287.98c-0.13,1.01-0.24,2.03-0.42,3.03c-0.03,0.16-0.42,0.25-0.64,0.38c-0.14-0.27-0.45-0.58-0.39-0.8
			c0.24-0.92,0.58-1.81,0.88-2.71C564.77,287.91,564.96,287.95,565.15,287.98z"/>
		<path class="vol1_7_st0" d="M562.73,235.05c2.72-0.31,5.16-0.74,7.61-0.84c3.24-0.13,6.49-0.04,9.74,0.01c2.2,0.03,4.43,0,6.6,0.34
			c0.9,0.14,1.93,1.02,2.41,1.85c0.93,1.59,1.71,3.32,2.21,5.09c2.06,7.33,3.01,14.72,1.57,22.35c-0.81,4.28-2.5,8.1-4.76,11.69
			c-1.03,1.63-2.58,2.92-4.26,4.77c-0.36-1.87-0.74-3.22-0.86-4.59c-0.26-2.82-0.41-5.65-0.54-8.48c-0.07-1.46-0.02-2.94-0.01-4.4
			c0.04-4.8,0.15-9.6,0.11-14.4c-0.03-3.23-0.26-6.46-0.41-9.69c-0.22-0.09-0.45-0.18-0.67-0.27c-0.31,0.55-0.89,1.09-0.9,1.64
			c-0.13,6.61-0.26,13.22-0.23,19.83c0.03,5.5,0.26,11,0.43,16.5c0.04,1.23,0.18,2.47,0.38,3.69c0.27,1.65-0.63,2.59-1.96,3.08
			c-2.76,1.02-5.57,1.94-8.38,2.8c-0.51,0.15-1.36,0.03-1.71-0.32c-2.06-2.01-4.14-4.03-5.97-6.24c-2.75-3.31-4.2-7.26-5.06-11.46
			c-1.16-5.67-0.42-11.24,0.84-16.77c1.16-5.09,2.46-10.15,3.68-15.23C562.72,235.56,562.73,235.09,562.73,235.05z M562.6,269.48
			c1.82-3.47,4.59-30.5,3.37-32.2C564.95,238.31,561.75,268,562.6,269.48z"/>
		<path class="vol1_7_st0" d="M658.43,284.05c-0.46-0.99-1.06-1.93-1.37-2.97c-0.72-2.45-1.19-4.97-1.97-7.39
			c-1.35-4.17-2.23-8.41-2.35-12.8c-0.17-6.9,1.02-13.45,5.17-19.14c1.07-1.47,2.64-2.6,4.07-3.78c0.37-0.31,1.12-0.38,1.63-0.27
			c3.8,0.86,7.62,0.76,11.45,0.3c0.27-0.03,0.56,0.03,1.07,0.05c0,2.48,0.06,4.91-0.01,7.33c-0.15,5.46-0.43,10.91-0.54,16.36
			c-0.13,6.39-0.21,12.79-0.2,19.19c0.01,3.06,0.34,6.12,0.4,9.18c0.01,0.68-0.47,1.4-0.81,2.05c-0.24,0.45-0.74,0.76-0.97,1.22
			c-1.09,2.1-2.27,2.82-4.62,2.07c-6.1-1.98-9-5.48-8.16-11.89c1.49-11.39,3.22-22.74,3.86-34.22c0.15-2.72,0.64-5.42,0.83-8.14
			c0.05-0.75,0.72-2.1-0.97-2.31c-1.95,15.14-3.87,30.09-5.8,45.04C658.91,283.96,658.67,284.01,658.43,284.05z"/>
		<path class="vol1_7_st0" d="M764.77,291.87c-1.03-1.59-1.79-2.75-2.55-3.91c-0.2,0.07-0.4,0.14-0.6,0.22c0.12,0.52,0.25,1.03,0.35,1.55
			c0.15,0.85,0.27,1.7,0.41,2.54c-1.21,0.08-2.78,0.68-3.56,0.14c-3.56-2.48-6.47-5.83-7.7-9.96c-0.92-3.13-0.87-6.63-0.78-9.95
			c0.14-4.87,0.49-9.76,1.15-14.58c0.84-6.2,2.64-12.14,6.64-17.15c0.38-0.48,1.1-0.92,1.69-0.96c1.73-0.13,3.47-0.05,5.4-0.05
			c-0.78,4.29-1.52,8.28-2.21,12.27c-0.57,3.31-0.97,6.66-1.62,9.96c-1.77,8.98-2.05,18.11-2.7,27.2c-0.04,0.62,0.33,1.82,0.57,1.83
			c1.15,0.07,1.41-0.75,1.5-1.83c0.46-5.52,0.87-11.06,1.56-16.56c0.75-5.99,1.74-11.94,2.7-17.9c0.69-4.27,1.49-8.52,2.26-12.77
			c0.11-0.62,0.17-1.46,0.58-1.74c0.48-0.34,1.33-0.29,1.97-0.17c0.22,0.04,0.45,0.84,0.41,1.27c-0.1,1.09-0.32,2.18-0.54,3.25
			c-1.35,6.57-1.45,13.24-1.67,19.91c-0.27,8.42-0.17,16.88-1.96,25.18C765.92,290.41,765.27,291.06,764.77,291.87z"/>
		<path class="vol1_7_st0" d="M678.06,289.97c0-7.01-0.01-14.03,0-21.04c0.02-7.14,0.07-14.29,0.08-21.43c0-2.91-0.04-5.81-0.15-8.71
			c-0.03-0.85,0.14-1.43,1.04-1.43c2.14,0.01,4.36-0.21,6.4,0.27c0.94,0.22,1.76,1.76,2.27,2.87c1.39,3.02,1.11,6.24,0.78,9.44
			c-0.62,6.12-1.51,12.22-1.77,18.35c-0.27,6.37-2.2,12.14-5,17.71c-0.75,1.49-1.94,2.77-2.93,4.14
			C678.54,290.08,678.3,290.02,678.06,289.97z"/>
		<path class="vol1_7_st0" d="M768.58,288c1.43-6.7,1.71-13.5,1.86-20.33c0.08-3.53,0.44-7.06,0.59-10.59c0.08-1.97-0.14-3.96-0.01-5.92
			c0.19-2.83,0.54-5.65,0.87-8.47c0.25-2.2,0.91-2.77,3.07-2.78c1.05-0.01,2.09-0.02,3.14-0.01c1.89,0.01,2.05,0.27,1.87,2.17
			c-0.34,3.7-0.68,7.4-0.87,11.11c-0.27,5.1-0.2,10.22-0.65,15.31c-0.34,3.89-1.56,7.61-3.79,10.93c-1.71,2.55-3.35,5.14-5,7.72
			c-0.27,0.42-0.45,0.89-0.67,1.33C768.86,288.32,768.72,288.16,768.58,288z"/>
		<path class="vol1_7_st0" d="M677.87,230.67c1.72,1.11,3.29,2.12,5.1,3.29c-4.36,2.15-4.36,2.15-5.88,0.19c-0.11,0.02-0.3,0.03-0.31,0.08
			c-0.62,2.04-2.24,1.71-3.78,1.64c-1.28-0.06-2.55-0.03-3.83-0.06c-1.38-0.04-2.66-0.69-2.53-2.07c0.34-3.84,0.53-7.75,2.7-11.21
			c0.9-1.43,2.25-1.88,3.61-2.16c3.87-0.79,7.78-1.34,11.67-2.03c1.26-0.22,1.87,0.22,1.9,1.48c0.07,3.35,0.21,6.71,0.15,10.06
			c-0.01,0.78-0.63,1.59-1.09,2.32c-0.69,1.11-1.45,1.29-2.49,0.22C681.69,230.97,679.91,230.44,677.87,230.67z"/>
		<path class="vol1_7_st0" d="M673.74,296.75c0,2.62,0.03,5.01-0.05,7.4c-0.01,0.27-0.66,0.75-1.02,0.75c-2.65,0.06-5.31,0.09-7.96-0.02
			c-1.59-0.07-2.54-0.75-2.22-2.69c0.33-1.97,0.23-4.01,0.42-6.01c0.1-1.04,0.52-1.37,1.62-0.64
			C667.24,297.32,670.18,298.04,673.74,296.75z"/>
		<path class="vol1_7_st0" d="M755.92,292.63c2.21,2.37,4.64,1.92,7.07,1.18c0.98,1.67,0.83,2.95-0.44,4.15c-2.17,2.05-4.84,2.87-7.73,3.12
			c-1.44,0.12-1.99-0.57-1.51-1.89C754.08,297.08,754.96,295.03,755.92,292.63z"/>
		<path class="vol1_7_st0" d="M768.65,238.05c-0.37-1.98,0.76-3.89-1.63-5.37c0.95-0.16,1.43-0.38,1.84-0.29c3.44,0.75,6.87,1.55,10.3,2.36
			c1.25,0.29,1.25,1.38,1.01,2.22c-0.15,0.51-0.97,1.15-1.5,1.15c-2.01,0.01-4.01-0.28-6.03-0.33
			C771.34,237.76,770.03,237.95,768.65,238.05z"/>
		<path class="vol1_7_st0" d="M586.17,232.9c-3.5,0-6.85,0-10.2,0C581.08,230.29,583.11,229.66,586.17,232.9z"/>
		<path class="vol1_7_st0" d="M766.8,232.73c-0.29,1.55-0.52,3.12-0.92,4.64c-0.08,0.31-0.81,0.62-1.25,0.64
			c-1.08,0.04-2.17-0.09-3.53-0.58c1.73-1.64,3.46-3.28,5.19-4.92C766.46,232.58,766.63,232.65,766.8,232.73z"/>
		<path class="vol1_7_st0" d="M761.92,420.01c-2,4.04-3.99,7.92-5.83,11.87c-0.93,1.99-1.51,4.13-2.38,6.15c-0.6,1.4-1.3,2.79-2.16,4.05
			c-2.08,3.07-4.11,6.19-6.48,9.03c-1.77,2.11-4.04,3.81-6.09,5.69c-1.92,1.76-3.83,3.53-5.77,5.26c-4.31,3.82-9.31,6.42-14.84,7.91
			c-4.84,1.3-9.74,2.37-14.62,3.51c-6.73,1.58-13.55,1.78-20.37,0.91c-5.4-0.69-10.8-1.45-16.13-2.55
			c-2.92-0.61-5.79-1.77-8.49-3.07c-3.41-1.65-6.61-3.76-9.95-5.58c-1.98-1.08-1.99-3.03-2.27-4.8c-0.66-4.19-5.78-8.51-10.03-8.42
			c-0.65,0.01-1.62-0.44-1.93-0.97c-1.35-2.36-2.7-4.76-3.68-7.28c-1.86-4.8-3.63-9.66-5.13-14.58c-1.02-3.32-1.49-6.81-2.27-10.2
			c-0.36-1.57-0.91-3.09-1.38-4.66c6.86-3.07,13.85-4.86,21.12-5.47c6.71-0.57,13.44-0.93,20.16-1.34
			c8.38-0.51,16.76-0.43,25.09,0.58c8.58,1.04,17.13,2.38,25.68,3.64c6.9,1.02,13.83,1.93,20.66,3.27
			c7.23,1.43,14.38,3.27,21.54,5.03C758.16,418.41,759.85,419.24,761.92,420.01z M669.48,435.68c-0.12-4.52-0.43-7.63-2.86-10.03
			c-0.44-0.43-1.2-0.81-1.78-0.77c-1.95,0.15-3.56,0.99-4.36,2.94c-0.9,2.2-2.33,4.15-2.4,6.71c-0.05,2.06-0.56,4.07,0.16,6.15
			c1.05,3,4.75,4.79,6.45,2.8C666.94,440.87,670.07,438.54,669.48,435.68z"/>
		<path class="vol1_7_st0" d="M620.75,357.45c3.15,2.36,6.37,4.69,9.51,7.13c6.8,5.28,13.6,10.56,20.29,15.96c2.39,1.93,4.7,1.71,7.31,0.78
			c8.56-3.05,17.41-4.08,26.46-3.71c7.15,0.29,14.3,0.47,21.45,0.82c6.77,0.32,13.33,1.96,19.78,3.88c2.34,0.7,3.93-0.01,5.6-1.24
			c7.09-5.25,14.15-10.53,21.24-15.78c3.53-2.62,7.07-5.23,10.63-7.81c0.78-0.57,1.65-1,2.59-1.56c3.75,15.5,2.5,31.14,3.97,46.57
			c-0.16,0.13-0.31,0.26-0.47,0.4c-2.64-1.56-5.28-3.12-7.45-4.41c0.09-3.76,0.29-7.14,0.21-10.52c-0.11-4.7-0.41-9.4-0.7-14.1
			c-0.04-0.59-0.39-1.53-0.79-1.65c-0.58-0.17-1.55,0.04-1.99,0.46c-3.65,3.48-7.27,6.99-10.76,10.63c-1.4,1.46-2.44,3.26-3.64,4.9
			c0.22,0.2,0.43,0.4,0.65,0.59c4.71-4.11,8.44-9.28,13.62-13.29c0.27,7.23,0.54,14.2,0.81,21.36c-0.28-0.07-0.78-0.09-1.17-0.32
			c-2.77-1.6-5.81-2.27-8.93-2.75c-5.45-0.84-10.91-1.66-16.32-2.68c-4.15-0.78-8.24-1.91-12.37-2.8
			c-7.66-1.64-15.27-3.57-23.18-3.71c-9.25-0.16-18.5-0.61-27.74-0.63c-6.26-0.01-12.52,0.57-18.78,0.76
			c-8.56,0.26-17.04,1.15-25.39,3.03c-2.62,0.59-5.14,1.62-7.9,2.51C615.25,379.13,616.94,368.37,620.75,357.45z M636.9,382.6
			c-1.14-0.8-2.44-1.49-3.44-2.49c-1.14-1.14-1.95-2.6-3.01-3.83c-1.25-1.45-2.53-2.87-3.94-4.16c-1.04-0.96-2.77-0.52-2.87,0.76
			c-0.24,3.1-0.24,6.22-0.19,9.33c0.01,0.44,0.82,0.86,1.27,1.29c0.23-0.59,0.68-1.19,0.66-1.76c-0.08-2.33-0.32-4.66-0.49-6.98
			c0.2-0.08,0.4-0.17,0.6-0.25c1.89,2.46,3.9,4.83,5.63,7.4C632.67,384.19,633.78,385.32,636.9,382.6z"/>
		<path class="vol1_7_st0" d="M621.41,410.36c-0.7-2.67-1.47-5.1-1.97-7.59c-0.63-3.18-1.04-6.4-1.54-9.61c-0.15-0.99,0.23-1.55,1.2-1.97
			c5.43-2.29,11.2-3.25,16.95-3.73c10.25-0.85,20.55-1.2,30.82-1.72c2.45-0.12,2.45-0.04,2.34,2.74c-2.44,0.12-4.92,0.14-7.37,0.42
			c-1.41,0.16-2.8,0.67-4.14,1.17c-0.35,0.13-0.49,0.8-0.73,1.23c0.45,0.13,0.92,0.41,1.36,0.38c3.23-0.26,6.45-0.59,9.78-0.91
			c-1.17,3.68-6.87,6.23-11.54,5.41c0.24,1.83,1.25,2.56,3.23,2.28c3.33-0.47,6.05-2.22,8.65-4.21c0.36-0.28,0.7-0.58,1.26-1.06
			c3.43,5.08,8.74,7.5,14.31,10.27c-0.73,0.18-1.01,0.31-1.3,0.31c-8.55-0.02-17.11-0.38-25.65,0.01
			c-7.34,0.33-14.69,1.27-21.96,2.41c-3.94,0.62-7.73,2.23-11.59,3.4C622.93,409.78,622.35,410.02,621.41,410.36z"/>
		<path class="vol1_7_st0" d="M644.76,471.71c0.49-0.85,0.99-1.69,1.69-2.9c0,0.97,0.11,1.62-0.02,2.21c-0.73,3.37-1.92,6.41-5.2,8.23
			c-2.82,1.57-5.4,3.58-8.28,5.01c-2.79,1.39-4.67,0.76-6.48-1.76c-2.51-3.5-3.69-7.26-2.28-11.64c1.7-5.27,3.47-10.48,6.42-15.2
			c0.71-1.14,1.77-2.06,2.67-3.09c2.22,2.34,4.19,4.43,6.19,6.51c0.52,0.54,1.03,1.16,1.67,1.51c3.61,1.98,3.78,5.19,3.26,8.71
			c-0.11,0.72-0.08,1.46-0.11,2.2C644.45,471.58,644.6,471.65,644.76,471.71z M634.64,468.86c0.11,0.09,0.22,0.18,0.34,0.27
			c-0.05,0.15-0.09,0.31-0.17,0.44c-1.38,2.34-2.8,4.65-4.12,7.02c-0.22,0.39-0.02,1.01-0.02,1.53c0.38-0.18,0.88-0.26,1.12-0.55
			c3.03-3.66,5.36-7.71,6.52-12.36c0.12-0.47-0.13-1.04-0.2-1.56c-0.51,0.2-1.22,0.24-1.49,0.62c-2.34,3.24-4.62,6.52-6.84,9.83
			c-0.33,0.5-0.26,1.26-0.38,1.9c0.18,0.09,0.37,0.18,0.55,0.27C631.52,473.8,633.08,471.33,634.64,468.86z"/>
		<path class="vol1_7_st0" d="M644.49,459.88c-2.96-2.88-5.58-5.43-8.31-8.09C639.06,451.71,644.1,456.41,644.49,459.88z"/>
		<path d="M562.6,269.48c-0.85-1.49,2.35-31.18,3.37-32.2C567.19,238.98,564.42,266.01,562.6,269.48z"/>
		<path d="M669.48,435.68c0.59,2.86-2.54,5.18-4.78,7.81c-1.7,1.98-5.4,0.19-6.45-2.8c-0.72-2.07-0.21-4.09-0.16-6.15
			c0.06-2.56,1.49-4.52,2.4-6.71c0.8-1.95,2.41-2.79,4.36-2.94c0.58-0.05,1.34,0.33,1.78,0.77
			C669.05,428.05,669.36,431.17,669.48,435.68z M663.54,433.83c-0.22-0.06-0.44-0.12-0.66-0.18c-0.43,1.58-0.85,3.16-1.28,4.73
			c0.19,0.05,0.38,0.11,0.58,0.16C662.63,436.97,663.08,435.4,663.54,433.83z"/>
		<path d="M636.9,382.6c-3.12,2.72-4.23,1.59-5.77-0.7c-1.73-2.57-3.74-4.94-5.63-7.4c-0.2,0.08-0.4,0.17-0.6,0.25
			c0.18,2.33,0.41,4.65,0.49,6.98c0.02,0.58-0.43,1.18-0.66,1.76c-0.44-0.43-1.26-0.85-1.27-1.29c-0.05-3.11-0.05-6.23,0.19-9.33
			c0.1-1.28,1.83-1.72,2.87-0.76c1.4,1.29,2.69,2.72,3.94,4.16c1.06,1.23,1.87,2.69,3.01,3.83
			C634.46,381.11,635.76,381.8,636.9,382.6z"/>
		<path d="M634.64,468.86c-1.56,2.47-3.12,4.94-4.69,7.41c-0.18-0.09-0.37-0.18-0.55-0.27c0.12-0.64,0.04-1.41,0.38-1.9
			c2.22-3.32,4.51-6.59,6.84-9.83c0.27-0.37,0.98-0.42,1.49-0.62c0.08,0.52,0.32,1.09,0.2,1.56c-1.17,4.64-3.5,8.69-6.52,12.36
			c-0.24,0.29-0.74,0.37-1.12,0.55c0-0.52-0.2-1.14,0.02-1.53c1.32-2.37,2.74-4.69,4.12-7.02c0.08-0.13,0.11-0.3,0.17-0.44
			C634.87,469.04,634.75,468.95,634.64,468.86z"/>
		<path class="vol1_7_st0" d="M663.54,433.83c-0.45,1.57-0.91,3.14-1.36,4.71c-0.19-0.05-0.38-0.11-0.58-0.16
			c0.43-1.58,0.85-3.16,1.28-4.73C663.09,433.71,663.32,433.77,663.54,433.83z"/>
	</g>
</g>
</svg>
