<?xml version="1.0" encoding="utf-8"?>
<!-- Generator: Adobe Illustrator 26.3.1, SVG Export Plug-In . SVG Version: 6.00 Build 0)  -->
<svg version="1.1" xmlns="http://www.w3.org/2000/svg" xmlns:xlink="http://www.w3.org/1999/xlink" x="0px" y="0px"
	 viewBox="0 0 1366 768" style="enable-background:new 0 0 1366 768;" xml:space="preserve">
<style type="text/css">
	.vol1_5_st0{fill:#FFFFFF;}
	.vol1_5_st1{fill:none;stroke:#ffffff;stroke-width:113.3858;stroke-miterlimit:10;}
	.vol1_5_st2{fill:none;stroke:#ffffff;stroke-width:90.7087;stroke-miterlimit:10;}
	.vol1_5_st3{fill:none;stroke:#ffffff;stroke-width:79.3701;stroke-miterlimit:10;}
	.vol1_5_st4{fill:none;stroke:#ffffff;stroke-width:73.7008;stroke-miterlimit:10;}
	.vol1_5_st5{fill:none;stroke:#ffffff;stroke-width:48.189;stroke-miterlimit:10;}
</style>
<g id="base">
	<g>
		<path class="vol1_5_st0" d="M908,192.25c0,165.94,0,331.88,0,497.85c-149.98,0-299.97,0-450,0c0-209.66,0-419.34,0-629.1
			c149.97,0,299.98,0,450,0c0,43.1,0,86.28,0,129.45c-6.46-0.6-12.94-1.13-19.39-1.81c-10.23-1.08-20.53-0.57-30.8-1.9
			c-10.57-1.37-21.35-1.09-32.03-1.62c-12.26-0.61-24.52-1.07-36.78,0.03c-0.42,0.04-0.86-0.06-1.45-0.12
			c0-0.77-0.05-1.43,0.01-2.08c0.27-2.68,0.69-5.35,0.82-8.04c0.14-2.8-1.08-3.91-3.84-3.88c-1.12,0.01-2.26-0.04-3.37,0.11
			c-2.93,0.39-5.55,1.15-6.4,4.59c-0.52,2.09-1.42,4.09-2.16,6.13c-0.97,2.65-2.38,4.62-5.69,4.17c-1.17-0.16-2.39,0.12-3.58,0.13
			c-11.97,0.07-23.94-0.06-35.9,0.23c-12.64,0.31-25.27,0.96-37.9,1.58c-5.3,0.26-10.58,0.87-15.88,1.21
			c-0.78,0.05-1.71-0.34-2.34-0.82c-0.21-0.15,0.29-1.25,0.47-1.91c0.64-2.37,1.59-4.71,1.84-7.12c0.32-3.07-1.19-4.72-4.2-4.87
			c-2.83-0.14-5.7-0.07-8.52,0.22c-1.07,0.11-2.32,0.86-3.01,1.7c-1.64,2.01-3.22,4.14-4.42,6.43c-1.07,2.05-1.52,4.42-2.43,6.57
			c-0.38,0.9-1.1,2.09-1.89,2.3c-1.86,0.48-3.85,0.49-5.79,0.61c-7.99,0.51-16.02,0.65-23.96,1.56c-9.5,1.09-18.93,2.79-28.38,4.28
			c-12.03,1.9-24.08,3.74-36.08,5.82c-11.87,2.06-23.85,1.55-35.79,1.85c-1.48,0.04-2.17-0.62-2.38-2.05
			c-0.2-1.41-0.48-2.81-0.82-4.19c-0.72-2.87-1.67-3.53-4.63-3.2c-2.15,0.24-4.3,0.55-6.44,0.9c-2.98,0.49-3.27,0.96-3.36,3.96
			c-0.02,0.85-0.39,2.25-0.93,2.44c-2.07,0.71-4.26,1.29-6.44,1.42c-2.05,0.12-4.13-0.45-6.21-0.62c-8.04-0.69-16.08-1.35-24.12-2
			c-1.76-0.14-3.52-0.2-5.28-0.3c-0.12,0.26-0.24,0.53-0.36,0.79c0.6,0.36,1.19,0.98,1.82,1.04c10.79,0.94,21.59,1.8,32.39,2.7
			c1.38,0.12,2.75,0.37,4.36,0.59c-0.56,1.47-0.97,2.66-1.47,3.8c-2.92,6.72-5.29,13.61-6.33,20.88c-1.06,7.44-1,14.91,0.39,22.3
			c0.71,3.8,1.96,7.49,2.95,11.24c1.71,6.45,5.49,11.47,11.19,14.72c2.33,1.32,3.78,2.16,2.33,4.92c-0.17,0.33-0.07,0.93,0.11,1.3
			c0.95,2.02,1.8,4.12,3.01,5.98c0.82,1.26,2.22,1.8,3.67,0.59c1.38-1.14,2.94-2.12,4.13-3.43c3.67-4.04,3.69-4.54,1.3-8.62
			c0.55-0.35,1.09-0.74,1.67-1.04c6.56-3.47,10.8-9.24,14.15-15.49c3.73-6.98,4.36-14.83,4.4-22.65c0.03-6.1-1.47-11.97-3.01-17.84
			c-1.29-4.89-3.49-9.03-7.77-11.91c-1.86-1.25-3.65-2.62-6.03-4.33c1.83,0,3.08,0.05,4.32-0.01c9.11-0.47,18.26-0.61,27.32-1.55
			c7.63-0.8,15.16-2.58,22.75-3.84c3.31-0.55,6.67-0.79,9.99-1.31c9.52-1.49,18.99-3.33,28.54-4.51c8.53-1.05,17.14-1.43,25.72-2.07
			c2.64-0.2,5.28-0.27,8.25-0.42c-0.9,1.73-1.61,3.1-2.33,4.48c-2.33,4.44-3.54,9.01-2.9,14.16c1.19,9.52,3.87,18.51,9.11,26.54
			c4.34,6.65,9.67,12.27,18.2,13.35c0.48,3.4,0.57,6.54-3.4,8.23c-2.2,0.93-3.05,1.08-3.92-1.09c-0.82-2.04-0.99-4.33-1.57-6.48
			c-0.16-0.59-0.77-1.05-1.17-1.57c-0.33,0.65-1.01,1.35-0.92,1.93c0.4,2.48,0.74,5.04,1.68,7.34c0.45,1.1,2.45,2.58,3.27,2.33
			c2.64-0.8,5.27-2.06,7.46-3.72c0.89-0.67,0.69-2.85,0.86-4.36c0.11-0.96-0.08-1.95,0.03-2.91c0.09-0.78,0.21-1.7,0.67-2.28
			c1.6-2.06,3.52-3.88,5-6.01c2.61-3.77,5.48-7.38,6.31-12.17c1.13-6.54-0.26-12.87-1.77-19.04c-1.3-5.28-3.8-10.28-6.01-15.29
			c-0.91-2.06-2.45-3.84-3.91-6.06c31.95-3.13,63.68-3.55,95.56-3.3c-0.07,0.6-0.05,0.92-0.16,1.17c-2.22,5.16-3.69,10.5-4.42,16.11
			c-0.89,6.92-0.4,13.72,1.33,20.38c1.32,5.08,4.21,9.45,7.93,13.27c-0.33,0.35-0.74,0.58-0.8,0.88c-0.77,4.13-1.25,8.28,0.11,12.38
			c0.18,0.53,0.86,1.12,1.41,1.25c4.21,0.98,9.86-3.59,9.89-7.95c0.01-1.27-0.2-2.56-0.05-3.81c0.28-2.33-0.35-5.02,2.52-6.43
			c2.2-1.08,4.25-2.49,6.45-3.58c4.61-2.29,7.31-6.33,7.89-11.01c0.82-6.66-0.12-13.38-4.77-18.76c-4.25-4.92-9.42-8.73-15.62-10.92
			c-0.77-0.27-1.71-0.04-2.58-0.04c-0.04,0.23-0.09,0.47-0.13,0.7c1,0.58,1.97,1.24,3.01,1.73c9.03,4.22,16.45,9.83,17.57,20.73
			c0.57,5.51,0.51,11.11-4.57,14.62c-4.58,3.16-9.6,5.72-14.55,8.29c-1.94,1.01-4.37,0.91-5.57-1.3c-2.15-3.98-4.68-7.96-5.76-12.26
			c-2.15-8.57-2.02-17.34,0.54-25.92c0.68-2.28,1.59-4.48,2.39-6.72c1.37,1.84,2.81,3.59,2.87,5.38c0.34,9.64,0.28,19.28,0.5,28.93
			c0.06,2.67,0.49,5.36,1.01,7.99c0.14,0.73,1.19,1.29,1.83,1.92c0.43-0.68,1.23-1.37,1.2-2.03c-0.06-1.6-0.65-3.17-0.75-4.77
			c-0.18-2.83-0.15-5.68-0.23-8.52c-0.32-10.58-0.65-21.15-0.98-31.78c2.89-0.37,5.7-1.46,8.1,1.16c0.25,0.27,1.56-0.29,2.29-0.64
			c0.8-0.38,1.49-1.38,2.24-1.4c7.75-0.21,15.51-0.51,23.26-0.31c9.86,0.26,19.72,0.84,29.56,1.5c8.79,0.59,17.56,1.57,26.36,2.18
			c4.54,0.31,9.12,0.08,13.68,0.29C890.4,191.2,899.2,191.75,908,192.25z M809.52,398.11c-0.42,0.05-0.79,0.15-1.15,0.13
			c-6.42-0.36-12.84-0.68-19.26-1.13c-6.55-0.45-13.1-1.11-19.65-1.54c-6.49-0.43-13-0.58-19.49-1.04
			c-8.88-0.63-17.74-1.57-26.62-2.16c-13.06-0.86-26.14-1.53-39.2-2.29c-15.38-0.89-30.75-1.89-46.14-2.64
			c-11.81-0.58-23.62-1-35.44-1.19c-10.69-0.17-21.38,0.14-32.07,0.11c-4.72-0.01-9.73,1.69-13.96-2.28
			c0.25-0.4,0.69-0.99,1.02-1.64c1.81-3.59,3.96-7.07,5.27-10.83c0.94-2.7,1.37-5.81-0.59-8.57c-0.84-1.18-1.54-2.49-2.17-3.8
			c-2.38-4.96-4.66-9.98-7.09-14.92c-0.86-1.75-1.93-1.28-2.8,0.15c-3.29,5.42-6.65,10.8-9.82,16.3c-0.85,1.47-1.78,1.91-3.38,1.9
			c-5.9-0.05-11.63,0.81-16.97,3.56c-1.72,0.89-3.49,1.75-5.33,2.35c-0.95,0.31-2.2,0.3-3.14-0.04c-4.62-1.69-9.18-3.54-13.76-5.32
			c-1.96-0.76-3.93-1.32-6.03,0.58c-0.71-2.27-1.22-4.2-1.93-6.06c-0.25-0.66-0.97-1.49-1.55-1.56c-0.61-0.07-1.65,0.52-1.93,1.09
			c-0.93,1.93-1.74,3.94-2.36,6c-0.88,2.91-5.87,4.96-8.4,3.29c-1.13-0.74-2.24-1.5-3.32-2.29c-1.18-0.86-2.46-2.54-3.81-1.27
			c-0.76,0.71-0.47,2.71-0.37,4.11c0.15,2.22,1.26,4.47-0.37,6.29c1.15,1.34,2.19,2.55,3.52,4.09c-2.94,1.12-5.55,1.98-8.04,3.11
			c-1.23,0.56-2.72,1.38-3.24,2.49c-1.51,3.22,1.36,8.63,4.92,9.19c1.93,0.3,4.01-0.3,6.3-0.53c0,0.95-0.12,2.05,0.03,3.12
			c0.33,2.32,0.77,4.68,3.21,5.8c2.26,1.04,4.33,0.72,6.44-0.79c2.83-2.03,4.06-4.65,3.31-7.94c-0.6-2.63-0.22-4.47,2.49-5.41
			c0.23-0.08,0.44-0.24,0.87-0.48c-0.22,1.51-0.49,2.75-0.57,4c-0.11,1.63,0.03,3.48,1.89,3.85c1.37,0.28,3.22,0.08,4.31-0.69
			c1.46-1.02,2.46-2.75,3.54-4.26c0.78-1.1,1.59-1.44,2.94-0.65c-0.24,0.59-0.43,1.13-0.68,1.64c-3.22,6.58,0.8,13.17,8.12,13.09
			c2.12-0.03,4.23-0.83,6.36-1.11c0.59-0.08,1.77,0.37,1.82,0.7c0.47,3.16,2.26,5.44,4.45,7.57c1.65,1.6,3.71,2.11,5.55,1.25
			c3.52-1.65,7.03-3.75,8.69-7.42c1.12-2.47,2.61-3.62,5.11-3.98c1.03-0.15,2.06-0.45,3.01-0.86c1.43-0.63,2.38-0.3,3.55,0.77
			c1.74,1.59,3.63,3.37,5.78,4.09c5.32,1.77,13.83-5.7,13.15-11.26c-0.12-1-0.51-1.98-0.85-3.24c0.92-0.12,1.7-0.31,2.48-0.32
			c13.54-0.15,27.09-0.48,40.63-0.33c9.94,0.11,19.88,0.86,29.81,1.36c7.31,0.37,14.62,0.8,21.93,1.22
			c6.26,0.36,12.52,0.75,18.78,1.11c9.17,0.52,18.34,0.98,27.51,1.55c3.28,0.2,6.54,0.7,9.81,0.94c6.56,0.46,13.12,0.8,19.68,1.26
			c5.66,0.4,11.31,1,16.98,1.36c9.78,0.61,19.57,1.03,29.35,1.64c9.18,0.57,18.34,1.34,27.52,1.88c1.59,0.09,2.35,0.57,2.56,2.06
			c0.09,0.67,0.2,1.33,0.25,2c0.33,4.12,2.38,6.69,6.44,7.87c1.97,0.57,3.75,1.81,5.62,2.75c1.09,0.55,1.62,1.3,1.45,2.67
			c-0.31,2.49,0.7,4.44,2.78,5.92c1.84,1.32,3.4,1.04,3.81-1.21c0.98-5.41,5.41-6.71,10.28-7.33c0.15,0.92,0.37,1.85,0.45,2.79
			c0.22,2.7,1.77,4.54,4.14,4.82c2.28,0.27,4.36-1.29,4.86-3.98c0.51-2.78,0.74-5.61,1.09-8.41c0.34-2.77,3.66-5.25,6.91-4.97
			c-0.48,1.5-0.94,2.97-1.43,4.42c-0.94,2.78-0.93,5.58-0.04,8.35c0.51,1.59,1.46,2.42,3.36,2.1c4.84-0.81,9.7-1.47,14.56-2.15
			c1.46-0.2,2.29,0.29,2.61,1.97c0.29,1.5,1.04,2.97,1.87,4.28c1.96,3.12,5.03,3.75,8.44,3.38c2.82-0.31,4-2.46,4.4-4.74
			c0.59-3.41,1.13-6.97,0.77-10.36c-0.29-2.79,0.41-4.37,2.67-5.63c2.16-1.21,2.33-3.17,1.58-5.22c-0.6-1.64-1.5-3.18-2.16-4.53
			c1.79-2.91,3.54-5.75,5.58-9.07c2.79-0.87,3.22-1.9,1.99-5.15c-0.67-1.77-1.23-3.67-1.34-5.54c-0.24-4-1.13-7.77-2.88-11.36
			c-1.09-2.23-2.07-2.38-3.66-0.38c-2.85,3.56-5.62,7.19-8.55,10.68c-0.56,0.67-1.73,1.18-2.6,1.16c-4.25-0.09-8.51-0.28-12.75-0.69
			c-1.2-0.11-2.46-0.87-3.45-1.65c-2.75-2.17-5.31-4.58-8.06-6.74c-1.38-1.09-2.49-0.51-2.88,1.21c-0.21,0.93-0.3,1.92-0.69,2.77
			c-0.34,0.74-1.03,1.33-1.56,1.99c-0.58-0.62-1.23-1.19-1.72-1.87c-0.29-0.4-0.29-1-0.45-1.49c-0.76-2.26-1.46-4.55-2.36-6.76
			c-0.22-0.55-1.06-1.08-1.68-1.17c-0.34-0.05-1,0.75-1.21,1.29c-1.03,2.63-1.89,5.32-2.98,7.93c-0.3,0.71-1.09,1.52-1.81,1.71
			c-3.68,0.96-7.59,1.31-11.09,2.69c-4.35,1.72-6.73-0.37-9.05-3.35c-0.37-0.47-0.67-1-1.1-1.41c-1.24-1.18-2.46-2.4-3.82-3.44
			c-0.95-0.73-1.88-0.54-2.17,0.81c-0.59,2.77-1.3,5.53-1.67,8.33c-0.44,3.37-0.65,6.77-0.79,10.16c-0.13,3.02-0.03,6.05-0.03,9.08
			c-0.12,0.1-0.24,0.2-0.36,0.3c-0.6-1.04-1.19-2.09-2.13-3.72C809.89,395.93,809.72,396.9,809.52,398.11z M740.88,618.8
			c0.27,0.07,0.54,0.13,0.81,0.2c0.37-0.39,0.94-0.74,1.06-1.19c0.35-1.36,0.67-2.75,0.74-4.14c0.21-4.47,0.34-8.95,0.44-13.42
			c0.14-6.12,0.16-12.24,0.35-18.36c0.11-3.81,0.17-7.65,0.7-11.41c1.37-9.65,2.94-19.28,4.54-28.89
			c1.32-7.94,2.52-15.91,4.29-23.75c2.71-12,5.87-23.9,8.82-35.84c0.93-3.76,1.86-7.52,2.66-11.3c1.2-5.69,2.91-11.37,3.27-17.13
			c0.57-9.15,0.24-18.36,0.19-27.54c-0.01-1.93-0.46-3.87-0.71-5.8c-0.32-0.04-0.64-0.07-0.96-0.11c-0.34,1.03-0.83,2.03-0.99,3.09
			c-0.26,1.76-0.37,3.55-0.42,5.34c-0.1,3.73-0.17,7.46-0.17,11.18c0.01,4.69,0.67,9.45,0.04,14.05c-0.89,6.48-2.7,12.84-4.15,19.24
			c-1.4,6.17-2.8,12.35-4.28,18.5c-2.15,8.9-4.57,17.75-6.53,26.69c-1.83,8.36-3.31,16.81-4.74,25.25
			c-1.23,7.25-2.31,14.54-3.21,21.84c-0.76,6.21-1.43,12.46-1.68,18.71c-0.28,7.15-0.06,14.32-0.06,21.49
			C740.88,609.93,740.88,614.36,740.88,618.8z M816.61,632.09c0.21-0.03,0.41-0.07,0.62-0.1c-0.05-0.5-0.04-1.02-0.16-1.51
			c-0.57-2.44-1.47-4.85-1.71-7.32c-0.48-4.88-0.54-9.81-0.89-14.71c-0.53-7.45-1.51-14.89-1.67-22.35
			c-0.24-10.52-0.19-21.07,0.26-31.59c0.33-7.75,1.46-15.47,2.34-23.2c0.64-5.63,1.42-11.25,2.23-16.86
			c1-6.88,2.18-13.72,3.13-20.61c0.68-4.96,1.21-9.95,1.64-14.95c0.9-10.56,3.5-20.98,2.93-31.65c-0.22-4.14-0.96-8.25-1.56-12.36
			c-0.09-0.6-0.75-1.12-1.14-1.68c-0.21,0.09-0.42,0.19-0.63,0.28c0.19,2.89,0.64,5.79,0.51,8.66c-0.39,8.58-0.88,17.16-1.61,25.72
			c-0.4,4.75-1.45,9.44-2.04,14.18c-0.52,4.21-0.65,8.46-1.2,12.66c-0.82,6.26-1.92,12.49-2.79,18.75
			c-0.68,4.88-1.19,9.78-1.77,14.67c-0.76,6.44-1.73,12.87-2.22,19.33c-0.6,7.89-0.96,15.81-1.09,23.72
			c-0.1,6.19,0.16,12.41,0.54,18.59c0.43,7,1.4,13.97,1.73,20.97c0.3,6.44,0.58,12.79,3.81,18.6
			C816.31,630.14,816.37,631.16,816.61,632.09z M695.81,614.07c0.19-0.01,0.38-0.03,0.57-0.04c0.34-2.24,0.55-4.52,1.06-6.72
			c1.89-8.11,4.21-16.14,5.74-24.32c1.52-8.12,2.07-16.42,3.42-24.57c1.11-6.69,2.8-13.28,4.17-19.92
			c1.02-4.96,2.11-9.91,2.88-14.91c1.82-11.88,3.5-23.78,5.15-35.68c1.05-7.63,1.7-15.32,2.96-22.91
			c2.18-13.13,5.09-26.14,5.93-39.47c0.14-2.24,0.38-4.47,0.44-6.71c0.01-0.38-0.66-0.78-1.01-1.16c-0.25,0.39-0.69,0.76-0.73,1.17
			c-0.13,1.56,0.01,3.16-0.22,4.71c-2.24,15.44-4.44,30.89-6.85,46.31c-1.62,10.36-3.61,20.65-5.29,31
			c-0.69,4.24-1.24,8.53-1.49,12.82c-0.6,10.28-3.26,20.14-5.59,30.09c-1.46,6.24-2.85,12.5-3.96,18.8
			c-0.8,4.55-0.79,9.24-1.64,13.77c-1.94,10.26-4.22,20.45-6.3,30.68C694.57,609.41,694.97,611.8,695.81,614.07z M855.5,481.08
			c-3.03,3.71-7.87,4.76-10.51,8.57c5.01,0.49,7.86-3.75,12.06-5.14c2.32,3.26,4.55,6.5,4.15,10.8c2.89,0.14,4.33-1.05,3.57-3.1
			c-0.93-2.5-1.9-4.98-3-7.41c-1.44-3.2-1.38-3.48,1.75-5.15c1.73-0.92,3.4-1.95,5.17-2.97c-1.36-2.07-2.35-2.33-4.04-0.91
			c-4.96,4.19-6.8,3.62-8.48-2.32c-0.03-0.12,0.04-0.28,0.16-0.92c2.96-0.89,6.16-1.8,9.33-2.83c1-0.32,2.79-0.14,2.33-1.98
			c-0.39-1.55-1.8-1.02-2.83-0.73c-2.8,0.78-5.6,1.58-8.34,2.54c-1.55,0.54-2.61,0.52-3.53-1.08c-0.39-0.69-1.45-0.99-2.2-1.47
			c-0.07,0.89-0.44,1.91-0.13,2.64c0.68,1.65,0.22,2.42-1.32,3.13c-2.09,0.97-4.13,2.1-6.08,3.34c-0.83,0.53-1.39,1.5-2.07,2.27
			c0.22,0.33,0.44,0.66,0.65,0.99c1.42-0.4,2.93-0.62,4.25-1.23c1.75-0.8,3.33-1.96,5.05-2.81c0.38-0.19,1.37,0.07,1.55,0.41
			C853.97,477.55,854.77,479.46,855.5,481.08z M771.82,560.72c0.77,1.53,1.82,1.7,3.11,1.23c1.33-0.48,2.72-0.84,4-1.44
			c1.5-0.7,2.28-0.01,2.85,1.2c0.79,1.69,1.58,3.39,2.19,5.14c0.34,0.98,0.32,2.08,0.47,3.12c0.13,0.7,0.73,1.48,1.44,1.58
			c0.83,0.13,1.86-0.14,2.58-0.6c0.38-0.25,0.59-1.38,0.36-1.88c-1.23-2.7-2.53-5.38-3.98-7.97c-1.01-1.81-0.83-2.92,1.14-3.85
			c2.89-1.37,5.73-2.85,8.48-4.48c1.76-1.04,1.63-2.63-0.09-3.72c-0.22,0.44-0.33,1.1-0.68,1.27c-3.39,1.7-6.79,3.4-10.29,4.85
			c-0.42,0.17-1.44-1.1-2.19-1.7c0.48-0.51,0.88-1.29,1.46-1.46c1.85-0.55,3.85-0.64,5.64-1.33c1.68-0.65,4.05-0.1,5.16-3.03
			c-1.15-0.17-2.17-0.58-3.08-0.4c-3.07,0.61-6.1,1.43-9.15,2.17c-1.31,0.32-1.98-0.22-2.61-1.42c-0.51-0.96-1.63-1.6-2.47-2.38
			c-0.07,0.99-0.4,2.04-0.16,2.94c0.45,1.64,0.38,2.62-1.52,3.18c-1.4,0.41-2.69,1.27-3.95,2.06c-0.45,0.28-0.66,0.95-0.98,1.44
			c0.59,0.25,1.22,0.78,1.76,0.7c1.31-0.21,2.61-0.62,3.86-1.11c2.81-1.09,3.13-0.97,4.16,2.3
			C776.9,558.29,774.43,559.47,771.82,560.72z M719.67,579.82c0.66,2.22,0.08,3.53-1.75,4.2c-0.63,0.23-1.41,0.27-1.87,0.68
			c-1.01,0.9-2.9,1.53-1.63,3.49c1.12,1.72,2.63,0.99,3.7,0.16c3-2.33,6.17-1.58,9.39-0.89c1.16,0.25,2.33,0.57,3.51,0.61
			c0.57,0.02,1.17-0.52,1.75-0.81c-0.38-0.54-0.67-1.18-1.15-1.6c-0.36-0.32-0.95-0.41-1.46-0.53c-2.37-0.58-4.74-1.14-7.08-1.69
			c0.37-4.87,0.86-5.38,5.37-6.99c0.76-0.27,1.24-1.35,1.85-2.06c-0.86-0.23-1.74-0.66-2.59-0.62c-0.96,0.04-1.91,0.49-2.79,0.74
			c-1.05-3.36-0.1-5.35,3.07-6.4c1.27-0.42,2.31-1.51,3.82-2.55c-3.27-1.89-5.08,1.38-7.35,0.84c-1.3-1.31,0.09-4.22-2.91-4.58
			c0,1.06-0.05,1.87,0.01,2.67c0.17,2.18-0.67,3.15-2.98,3.02c-0.72-0.04-1.49,0.83-2.24,1.29c0.07,0.32,0.14,0.65,0.21,0.97
			c1.09,0.23,2.22,0.36,3.26,0.72c0.64,0.22,1.45,0.66,1.69,1.21c1.01,2.32,0.18,3.8-2.26,4.55c-1.35,0.41-2.7,0.87-3.97,1.48
			c-1.08,0.52-2.04,1.28-1.27,2.98C715.88,580.44,717.7,580.14,719.67,579.82z M874.28,545.33c0.02-0.25,0.17-1.06,0.12-1.86
			c-0.16-2.41-0.32-4.82-0.62-7.21c-0.24-1.9,0.5-2.5,2.27-2.1c1.01,0.23,2.05,0.7,3.03,0.6c0.95-0.1,1.83-0.81,2.74-1.25
			c-0.62-0.55-1.17-1.31-1.89-1.59c-0.8-0.31-1.76-0.17-2.65-0.23c-2.37-0.15-4.78-0.16-5.94-2.87c-0.19-0.45-0.81-0.71-1.41-1.22
			c-0.23,0.72-0.53,1.16-0.46,1.52c0.37,1.79-0.4,2.46-2.12,2.57c-1.11,0.07-2.26,0.26-3.28,0.69c-0.64,0.27-1.05,1.07-1.57,1.63
			c0.69,0.33,1.37,0.88,2.08,0.93c1.98,0.14,4.41-1.81,5.81,0.12c1.09,1.5,0.88,3.93,1.24,5.96c0.05,0.29,0.02,0.6,0.02,0.9
			c-0.03,3.15-0.61,3.65-3.69,3.19c-4.24-0.63-5.72,1.12-4.08,5.02c0.76,1.81,1.93,3.46,4.17,3.59c2.17,0.12,3.38-1.05,4.05-3.1
			c0.48-1.46,1.72-1.8,3.1-1.09c2.71,1.4,5.36,2.89,8.11,4.2c0.56,0.26,1.43-0.14,2.16-0.23c-0.23-0.67-0.26-1.68-0.73-1.97
			C881.41,549.45,878.01,547.51,874.28,545.33z M732.11,511.84c0.3,2.83-0.24,3.41-2.72,3.06c-0.44-0.06-0.9-0.06-1.34-0.12
			c-1.81-0.24-2.91,0.75-3.4,2.28c-0.48,1.51-0.19,2.93,1.33,3.91c1.97,1.26,3.78,0.62,5.38-0.55c1.22-0.89,2.11-0.78,3.16,0.12
			c0.5,0.42,1.14,0.98,1.69,0.96c0.88-0.04,1.74-0.51,2.61-0.8c-0.44-0.68-0.78-1.46-1.35-2c-0.8-0.77-1.76-1.36-2.68-2.04
			c0.12-0.32,0.22-0.6,0.31-0.88c0.79-2.43,0.26-5.82,4.33-5.88c0.24,0,0.72-0.76,0.64-1.02c-0.13-0.39-0.62-0.86-1.02-0.94
			c-0.77-0.15-1.6-0.04-2.65-0.04c0-1.91,0-3.73,0-5.34c1.93-0.53,3.68-1.02,5.43-1.5c-0.04-0.38-0.07-0.76-0.11-1.14
			c-1.25-0.13-2.56-0.55-3.74-0.33c-1.94,0.36-2.95,0.09-3.16-2.13c-0.08-0.84-1.06-1.59-1.63-2.38c-0.23,0.12-0.46,0.23-0.7,0.35
			c0.08,1.45,0.16,2.89,0.25,4.42c-2.07,0.55-4.25,1.14-6.49,1.74c0.97,1.94,1.15,2.08,3.97,1.71c1.49-0.2,2.58-0.23,2.79,1.69
			c0.38,3.42,0.13,3.93-2.16,4.34c-2.23,0.4-4.43,0.98-6.64,1.47c0.01,0.33,0.02,0.66,0.03,0.99
			C726.66,513.78,729.42,511.39,732.11,511.84z M783.16,613.95c-0.18-0.03-0.37-0.06-0.55-0.09c-0.53,1.58-1.22,3.14-1.49,4.77
			c-0.1,0.62,0.64,1.55,1.24,2.05c0.34,0.29,1.31,0.2,1.77-0.09c4.82-3.05,8.62-7.17,11.67-11.91c2.91-4.53,2.33-10.32-3.69-12.57
			c-1.36-0.51-2.78-0.86-3.69-1.13c0-1.54,0-2.72,0-4.32c-1.11,0.58-1.84,0.72-2.11,1.15c-2.27,3.63-5.91,4.52-9.76,4.87
			c-1.81,0.17-1.94,1.14-1.84,2.75c1.36,0,2.57,0,3.99,0c-1.63,2.36-3.08,4.46-4.53,6.55c1.47,1.33,2.53,1.09,3.57-0.22
			c1.2-1.51,2.55-2.9,3.75-4.41c2.17-2.74,4.86-3.98,8.42-3.45c3.6,0.54,5.38,3.75,3.93,7.1c-1.79,4.14-4.25,7.78-7.64,10.77
			c-0.52,0.46-1.16,0.78-1.75,1.16c-0.35-0.65-0.72-1.29-1.03-1.97C783.25,614.66,783.24,614.29,783.16,613.95z M783.01,518.29
			c-8.03,0.89-14.13,4.4-19.63,9.17c5.33,1.08,8.31-4.61,13.39-4.77c-0.37,1.73-0.82,3.24-0.98,4.77c-0.16,1.55-0.1,3.13-0.03,4.69
			c0.2,4.49,2.47,6.1,6.85,4.95c4.19-1.1,6.56-4.17,8.39-7.81c0.85-1.68,1.58-3.42,2.54-5.5c1.63,1.91,2.93,3.63,4.45,5.13
			c0.56,0.55,1.62,0.6,2.45,0.88c-0.09-0.83,0.11-1.87-0.32-2.45c-1.6-2.15-3.31-4.23-5.16-6.18c-2.1-2.22-2.94-1.8-3.95,1.18
			c-0.99,2.95-2.1,5.91-3.63,8.61c-1.3,2.29-3.33,4.03-6.31,4.05c-1.53,0.01-2.42-0.6-2.6-2.11c-0.5-4.16-0.33-8.12,2.88-11.4
			C782.15,520.68,782.47,519.37,783.01,518.29z M716.54,595.81c-0.18,0.03-0.37,0.06-0.55,0.08c-0.1,0.41-0.4,0.88-0.28,1.22
			c0.92,2.77-0.67,3.36-2.91,3.64c-1.55,0.2-3.06,0.69-4.59,1.05c0.04,0.27,0.07,0.55,0.11,0.82c2.42,1.87,5.67-1.26,8.65,1.06
			c-0.9,0.22-1.19,0.39-1.44,0.34c-2.37-0.42-4.49,0.2-5.55,2.34c-1.22,2.47-0.45,4.75,1.65,6.61c0.33,0.29,0.46,1.25,0.24,1.66
			c-1.31,2.45-2.75,4.83-4.53,7.91c1.07-0.32,1.94-0.31,2.31-0.74c0.85-1,1.33-2.32,2.2-3.3c1.81-2.01,3.72-3.94,5.7-5.79
			c1.55-1.44,2.37-3.17,2.44-5.21c0.04-1.17-0.15-2.37-0.43-3.51c-0.42-1.68,0.38-2.29,1.85-2.63c1.59-0.38,3.19-0.78,4.68-1.42
			c0.59-0.26,0.9-1.18,1.33-1.8c-0.7-0.19-1.45-0.65-2.09-0.53c-2.32,0.45-4.61,1.09-6.87,1.66
			C717.78,598.07,717.16,596.94,716.54,595.81z M861.85,456.34c5.19-0.87,9.78-8.72,7.88-13.14c-0.41-0.96-1.24-2.06-2.14-2.42
			c-1.69-0.66-3.58-1.13-5.39-1.13c-9.11-0.01-16.94,4.32-24.98,7.81c-0.55,0.24-0.71,1.36-1.06,2.08c0.79,0.21,1.71,0.78,2.35,0.56
			c2.1-0.74,4.08-1.8,6.13-2.67c6.05-2.56,12.05-5.27,18.91-4.48c2.38,0.28,3.49,1.35,2.84,3.61c-0.59,2.05-1.61,3.97-2.52,5.92
			C863.3,453.74,862.59,454.94,861.85,456.34z M799.63,437.8c5.3-0.08,5.97,1.09,4.85,4.93c-1.05,3.6-3.52,6.13-5.7,8.93
			c-0.43,0.55-0.52,1.38-0.76,2.08c0.76-0.08,1.71,0.11,2.24-0.29c1.31-0.96,2.45-2.16,3.61-3.32c2.75-2.75,4.37-6,4.37-9.98
			c0-2.34-1.43-4.28-3.7-4.63c-4.37-0.67-8.71-0.29-12.74,1.46c-4.3,1.86-8.42,4.14-12.58,6.31c-0.76,0.4-1.49,1.07-1.95,1.79
			c-0.27,0.43,0,1.21,0.03,1.84c0.53-0.07,1.15,0,1.58-0.25c1.47-0.88,2.87-1.89,4.31-2.82C788.62,440.34,794.36,437.8,799.63,437.8
			z M752.87,432.12c-1.55,0.71-2.86,1.31-4.8,2.2c1.24,0.66,1.86,1.28,2.43,1.23c1.88-0.16,2.1,1.06,2.2,2.38
			c0.18,2.33-0.7,3.03-2.91,3.85c-1.36,0.5-2.8,1.73-3.43,3.01c-0.77,1.54,0.04,3.14,1.57,4.25c1.79,1.29,3.34,0.66,5.05-2.16
			c1.91-3.13,1.5-2.74,4.26-1.08c0.58,0.35,1.52,0.11,2.3,0.15c-0.2-0.75-0.17-1.94-0.64-2.19c-2.85-1.53-4.28-3.35-3.14-6.86
			c0.51-1.58,0.61-2.65,2.57-2.82c2.45-0.2,2.73-0.57,3.36-2.52c-1.93,0-3.73,0-5.54,0c-0.44-1-0.72-1.87-1.2-2.61
			c-0.31-0.48-0.91-0.77-1.38-1.15c-0.23,0.52-0.6,1.03-0.67,1.57C752.79,430.26,752.87,431.16,752.87,432.12z M778.85,479.19
			c-0.34,1.06-0.52,1.82-0.83,2.54c-0.93,2.19-2.01,4.32-2.81,6.56c-0.23,0.64,0.27,1.55,0.43,2.33c0.76-0.26,1.54-0.47,2.25-0.82
			c0.28-0.14,0.43-0.59,0.59-0.92c1.58-3.28,3.07-6.61,4.79-9.82c0.49-0.92,1.51-1.8,2.49-2.18c3.38-1.33,6.85-2.43,10.41-3.66
			c-0.89-1.86-2.08-2.31-3.89-1.72c-1.94,0.63-3.95,1.04-6.2,1.62c0.25-0.88,0.54-1.38,0.5-1.85c-0.07-0.77-0.37-1.51-0.57-2.27
			c-0.85,0.3-1.78,0.48-2.51,0.96c-0.42,0.27-0.54,1.03-0.77,1.57c-0.91,2.12-2.04,3.96-4.57,4.48c-0.77,0.16-1.58,0.57-2.14,1.11
			c-0.39,0.38-0.54,1.2-0.45,1.77c0.04,0.26,0.93,0.45,1.45,0.53C777.44,479.46,777.9,479.31,778.85,479.19z M739.23,465.66
			c-0.26-0.18-0.53-0.36-0.79-0.55c-0.73,0.47-1.84,0.78-2.13,1.44c-1.01,2.3-2.24,4.69-2.47,7.12c-0.34,3.62-0.07,7.33,0.27,10.98
			c0.3,3.2,3.14,4.99,5.5,3.63c2.88-1.66,5.68-3.47,8.44-5.33c1.83-1.24,1.78-2.24,0.34-3.52c-3.29,2.11-6.5,4.17-10.11,6.49
			C735.92,478.72,737.91,472.2,739.23,465.66z M792.68,487.67c-0.09,0.4-0.19,0.62-0.17,0.82c0.29,3.41,0.27,3.35-3.1,4.35
			c-0.73,0.22-1.83,0.98-1.84,1.51c-0.02,1.82,0.16,3.7,0.66,5.45c0.46,1.63,2.06,1.99,3.36,0.85c1.41-1.23,2.62-2.69,4.32-4.49
			c1.55,0.42,3.66,1.1,5.82,1.5c0.79,0.15,1.7-0.36,2.55-0.57c-0.53-0.72-0.9-1.74-1.61-2.11c-1.37-0.71-2.9-1.18-4.41-1.5
			c-1.73-0.36-2.8-0.98-2.84-2.98C795.4,489.01,794.6,487.85,792.68,487.67z M785.67,201.76c-0.09,0-0.17,0-0.26,0
			c0-0.37,0.08-0.77-0.01-1.12c-0.29-1.11-0.65-3.17-0.97-3.16c-2.14,0.01-1.67,2.04-1.7,3.21c-0.27,9.44-0.75,18.89,0.43,28.3
			c0.09,0.75,0.79,1.93,1.35,2.02c1.47,0.25,1.56-1.13,1.54-2.15c-0.04-2.12-0.33-4.25-0.35-6.37
			C785.64,215.59,785.67,208.68,785.67,201.76z M842.92,557.56c-0.46-4.33-1.03-8.35-1.26-12.39c-0.17-3.02,0.08-6.07,0.22-9.11
			c0.06-1.34-0.58-2.18-1.75-1.99c-0.64,0.11-1.41,1.15-1.59,1.9c-0.33,1.35-0.49,2.83-0.34,4.21c0.71,6.55,1.49,13.09,2.43,19.6
			c0.1,0.68,1.39,1.68,2.15,1.7c2.35,0.07,3.58-2.17,2.67-4.57C844.83,557.07,844.19,557.23,842.92,557.56z M733.01,529.97
			c-0.11-0.02-0.22-0.04-0.33-0.07c0-0.45,0.16-0.99-0.03-1.33c-0.39-0.69-0.96-1.28-1.46-1.91c-0.54,0.61-1.4,1.15-1.57,1.85
			c-0.85,3.52-1.63,7.07-2.23,10.65c-0.78,4.62-2.75,8.77-4.71,12.95c-0.3,0.63-0.04,1.53-0.04,2.3c0.81-0.34,2.06-0.46,2.35-1.05
			c2.1-4.25,4.3-8.5,5.87-12.96C732.04,537.09,732.33,533.46,733.01,529.97z M738.61,448.55c0.48-6.42,0.96-12.76,1.4-19.1
			c0.06-0.81-0.11-1.63-0.17-2.45c-0.79,0.54-1.66,1-2.35,1.65c-0.32,0.3-0.38,0.97-0.41,1.48c-0.44,6.69-0.9,13.37-1.2,20.07
			c-0.03,0.77,0.69,1.87,1.38,2.27c0.39,0.23,1.58-0.51,2.13-1.08c0.67-0.69,1.05-1.67,1.74-2.84
			C740.16,448.55,739.68,448.55,738.61,448.55z M722.91,536.79c0.25-2.06,0.6-4.03,0.66-6c0.02-0.58-0.79-1.18-1.22-1.77
			c-0.68,0.56-1.76,1-1.96,1.7c-0.76,2.62-1.29,5.3-1.76,7.99c-0.13,0.75,0.08,2.16,0.44,2.27c0.95,0.29,2.32,0.41,3.05-0.09
			c1.29-0.88,2.24-2.27,3.53-3.67C724.47,537.03,723.68,536.91,722.91,536.79z M787.37,578.68c-3.57-0.93-6.92-1.81-10.28-2.69
			c-0.14-0.04-0.32-0.14-0.43-0.1c-0.45,0.17-1.24,0.38-1.26,0.6c-0.03,0.51,0.2,1.19,0.56,1.55
			C778.25,580.29,784.49,580.69,787.37,578.68z M804.46,598.31c-1.88-2.6-3.81-5.27-5.74-7.94c-0.41,0.31-1.2,0.83-1.17,0.89
			c1.55,2.75,3.14,5.47,4.83,8.14c0.16,0.26,0.96,0.24,1.41,0.13C804.01,599.48,804.13,598.95,804.46,598.31z M852.26,509.61
			c2.87,4.51,7.63,6.13,10.17,2.64C858.47,513.33,856.41,508.61,852.26,509.61z M720.72,624.77c-0.08,1.69,0.87,2.91,2.03,2.44
			c1.27-0.52,2.73-1.62,3.2-2.82c0.52-1.35-1.01-1.95-2.28-1.93C722,622.48,720.48,622.84,720.72,624.77z M801.29,467.76
			c0.79,1.62,1.44,3.18,2.33,4.6c0.24,0.39,1.19,0.46,1.8,0.44c0.26-0.01,0.79-0.78,0.7-0.96c-0.85-1.75-1.78-3.47-2.78-5.15
			c-0.14-0.23-0.87-0.36-1.15-0.2C801.84,466.69,801.65,467.22,801.29,467.76z M878.51,468.11c-1.31-1.99-2.3-3.5-3.3-5
			c-0.51,0.58-1.38,1.12-1.46,1.76c-0.23,1.8,1.37,4.57,2.45,4.48C876.8,469.31,877.35,468.76,878.51,468.11z M886.84,466.15
			c0.17-0.22,1.05-1.07,0.95-1.22c-0.91-1.26-1.99-2.39-3.02-3.55c-0.49,0.48-1.28,0.89-1.41,1.45
			C883.09,463.96,885.13,466.15,886.84,466.15z M743.28,463.36c-0.19,0.21-0.91,0.73-0.83,0.98c0.5,1.5,1.17,2.94,1.88,4.35
			c0.03,0.07,1.28-0.22,1.62-0.63C746.73,467.12,744.88,463.48,743.28,463.36z M888.28,567.74c-1.5-0.97-2.57-1.74-3.73-2.33
			c-0.21-0.11-0.81,0.56-1.23,0.87c1.03,0.96,2.04,1.95,3.14,2.82C886.57,569.19,887.29,568.5,888.28,567.74z M748.88,460.33
			c-0.8,0.43-1.28,0.57-1.27,0.7c0.03,0.87-0.03,1.82,0.31,2.57c0.3,0.66,1.05,1.15,1.67,1.61c0.11,0.09,0.87-0.39,0.85-0.46
			C749.97,463.31,749.45,461.9,748.88,460.33z M802.43,590.44c1.08,1.1,1.97,2,2.85,2.9c0.27-0.29,0.81-0.66,0.75-0.87
			c-0.35-1.32-0.9-2.54-2.59-2.52C803.38,589.96,803.31,590.01,802.43,590.44z M809.57,589c-0.11-0.26-0.22-0.53-0.33-0.79
			c-0.67-0.49-1.32-1.02-2.03-1.43c-0.09-0.05-0.53,0.49-0.81,0.76c0.65,0.63,1.26,1.32,1.99,1.83
			C808.6,589.52,809.17,589.14,809.57,589z"/>
		<path d="M908,192.25c-8.8-0.5-17.6-1.05-26.4-1.46c-4.55-0.21-9.13,0.02-13.68-0.29c-8.79-0.61-17.56-1.59-26.36-2.18
			c-9.84-0.66-19.7-1.24-29.56-1.5c-7.75-0.2-15.51,0.1-23.26,0.31c-0.76,0.02-1.45,1.02-2.24,1.4c-0.73,0.35-2.04,0.91-2.29,0.64
			c-2.4-2.62-5.21-1.53-8.1-1.16c0.33,10.63,0.66,21.2,0.98,31.78c0.09,2.84,0.05,5.69,0.23,8.52c0.1,1.6,0.69,3.17,0.75,4.77
			c0.02,0.66-0.78,1.35-1.2,2.03c-0.63-0.64-1.69-1.19-1.83-1.92c-0.52-2.63-0.95-5.31-1.01-7.99c-0.22-9.64-0.16-19.29-0.5-28.93
			c-0.06-1.79-1.5-3.53-2.87-5.38c-0.8,2.24-1.71,4.45-2.39,6.72c-2.56,8.58-2.68,17.35-0.54,25.92c1.08,4.3,3.61,8.28,5.76,12.26
			c1.2,2.21,3.63,2.31,5.57,1.3c4.96-2.57,9.98-5.13,14.55-8.29c5.08-3.51,5.14-9.1,4.57-14.62c-1.12-10.9-8.54-16.51-17.57-20.73
			c-1.05-0.49-2.01-1.15-3.01-1.73c0.04-0.23,0.09-0.47,0.13-0.7c0.86,0,1.81-0.23,2.58,0.04c6.2,2.19,11.37,6,15.62,10.92
			c4.65,5.38,5.59,12.1,4.77,18.76c-0.58,4.68-3.27,8.73-7.89,11.01c-2.2,1.09-4.25,2.5-6.45,3.58c-2.87,1.41-2.24,4.09-2.52,6.43
			c-0.15,1.25,0.06,2.54,0.05,3.81c-0.03,4.35-5.67,8.93-9.89,7.95c-0.55-0.13-1.23-0.72-1.41-1.25c-1.37-4.1-0.88-8.25-0.11-12.38
			c0.06-0.3,0.47-0.53,0.8-0.88c-3.72-3.82-6.61-8.18-7.93-13.27c-1.73-6.66-2.22-13.46-1.33-20.38c0.72-5.61,2.19-10.94,4.42-16.11
			c0.11-0.26,0.08-0.57,0.16-1.17c-31.88-0.24-63.61,0.18-95.56,3.3c1.45,2.21,3,4,3.91,6.06c2.21,5.02,4.72,10.02,6.01,15.29
			c1.52,6.17,2.9,12.5,1.77,19.04c-0.83,4.79-3.7,8.4-6.31,12.17c-1.48,2.13-3.4,3.95-5,6.01c-0.45,0.59-0.58,1.5-0.67,2.28
			c-0.11,0.96,0.08,1.95-0.03,2.91c-0.18,1.51,0.02,3.69-0.86,4.36c-2.19,1.66-4.82,2.92-7.46,3.72c-0.82,0.25-2.82-1.23-3.27-2.33
			c-0.94-2.3-1.29-4.86-1.68-7.34c-0.09-0.58,0.59-1.28,0.92-1.93c0.4,0.52,1.01,0.99,1.17,1.57c0.58,2.15,0.75,4.44,1.57,6.48
			c0.87,2.17,1.72,2.02,3.92,1.09c3.98-1.68,3.88-4.82,3.4-8.23c-8.53-1.08-13.85-6.7-18.2-13.35c-5.25-8.03-7.92-17.02-9.11-26.54
			c-0.65-5.16,0.57-9.72,2.9-14.16c0.72-1.38,1.43-2.75,2.33-4.48c-2.97,0.15-5.61,0.22-8.25,0.42c-8.58,0.64-17.19,1.02-25.72,2.07
			c-9.55,1.18-19.03,3.02-28.54,4.51c-3.32,0.52-6.68,0.76-9.99,1.31c-7.59,1.26-15.12,3.04-22.75,3.84
			c-9.06,0.94-18.21,1.08-27.32,1.55c-1.24,0.06-2.49,0.01-4.32,0.01c2.38,1.71,4.17,3.08,6.03,4.33c4.28,2.88,6.49,7.02,7.77,11.91
			c1.54,5.87,3.04,11.74,3.01,17.84c-0.04,7.81-0.67,15.67-4.4,22.65c-3.35,6.25-7.58,12.02-14.15,15.49
			c-0.58,0.31-1.12,0.7-1.67,1.04c2.39,4.08,2.38,4.58-1.3,8.62c-1.19,1.31-2.75,2.29-4.13,3.43c-1.46,1.2-2.86,0.66-3.67-0.59
			c-1.21-1.86-2.06-3.95-3.01-5.98c-0.18-0.38-0.28-0.97-0.11-1.3c1.46-2.76,0-3.59-2.33-4.92c-5.71-3.25-9.49-8.27-11.19-14.72
			c-0.99-3.74-2.24-7.44-2.95-11.24c-1.39-7.39-1.45-14.86-0.39-22.3c1.04-7.27,3.41-14.16,6.33-20.88c0.5-1.15,0.9-2.33,1.47-3.8
			c-1.61-0.22-2.98-0.47-4.36-0.59c-10.8-0.9-21.6-1.76-32.39-2.7c-0.63-0.05-1.21-0.68-1.82-1.04c0.12-0.26,0.24-0.53,0.36-0.79
			c1.76,0.1,3.52,0.16,5.28,0.3c8.04,0.65,16.08,1.31,24.12,2c2.08,0.18,4.16,0.74,6.21,0.62c2.17-0.13,4.37-0.71,6.44-1.42
			c0.54-0.18,0.9-1.58,0.93-2.44c0.08-2.99,0.38-3.47,3.36-3.96c2.14-0.35,4.29-0.66,6.44-0.9c2.96-0.33,3.91,0.33,4.63,3.2
			c0.34,1.38,0.62,2.78,0.82,4.19c0.21,1.43,0.9,2.09,2.38,2.05c11.95-0.3,23.92,0.22,35.79-1.85c12-2.08,24.05-3.92,36.08-5.82
			c9.45-1.49,18.88-3.19,28.38-4.28c7.94-0.91,15.97-1.05,23.96-1.56c1.94-0.12,3.93-0.13,5.79-0.61c0.79-0.2,1.51-1.4,1.89-2.3
			c0.91-2.15,1.36-4.52,2.43-6.57c1.2-2.29,2.77-4.42,4.42-6.43c0.69-0.85,1.95-1.59,3.01-1.7c2.82-0.29,5.69-0.36,8.52-0.22
			c3.01,0.15,4.53,1.81,4.2,4.87c-0.25,2.41-1.2,4.75-1.84,7.12c-0.18,0.66-0.68,1.76-0.47,1.91c0.64,0.48,1.56,0.87,2.34,0.82
			c5.3-0.34,10.58-0.95,15.88-1.21c12.63-0.62,25.26-1.27,37.9-1.58c11.96-0.29,23.93-0.16,35.9-0.23c1.2-0.01,2.42-0.29,3.58-0.13
			c3.31,0.45,4.72-1.53,5.69-4.17c0.74-2.04,1.64-4.04,2.16-6.13c0.86-3.45,3.48-4.21,6.4-4.59c1.11-0.15,2.24-0.09,3.37-0.11
			c2.76-0.03,3.98,1.09,3.84,3.88c-0.13,2.69-0.55,5.36-0.82,8.04c-0.06,0.65-0.01,1.31-0.01,2.08c0.6,0.05,1.03,0.15,1.45,0.12
			c12.26-1.1,24.52-0.64,36.78-0.03c10.68,0.53,21.46,0.26,32.03,1.62c10.27,1.33,20.57,0.82,30.8,1.9
			c6.46,0.68,12.93,1.21,19.39,1.81C908,191.05,908,191.65,908,192.25z M515.65,208.73c-0.43-0.2-1.33-0.94-2.28-1.02
			c-2.6-0.21-5.23-0.18-7.84-0.17c-1.01,0-2.06,0.41-3.02,0.24c-2.76-0.5-3.83-0.09-4.8,2.59c-3.28,9.06-6.3,18.17-6.84,27.93
			c-0.6,10.85,0.59,21.48,5.59,31.15c5.69,11,13.97,13.66,24.26,6.75c1.02-0.69,2.26-2.28,2.12-3.26
			c-0.77-5.22-1.77-10.42-3.02-15.55c-1.82-7.44-2.63-14.99-2.99-22.62c-0.32-6.84-0.62-13.69-0.93-20.53
			C515.82,212.59,515.75,210.94,515.65,208.73z M673.35,246.72c-0.84-1.3-1.85-2.23-2.08-3.31c-1.29-6.22-2.31-12.5-3.57-18.73
			c-1.23-6.07-2.63-12.11-4.01-18.15c-0.73-3.2-1.6-6.36-2.33-9.56c-0.11-0.47,0.23-1.03,0.36-1.55c0.44,0.31,0.96,0.55,1.29,0.95
			c0.37,0.45,0.63,1.02,0.81,1.59c1.16,3.62,2.49,7.21,3.38,10.9c1.93,8.04,3.68,16.12,5.41,24.21c0.82,3.82,1.44,7.69,2.24,12.02
			c3.18-3.65,5.48-7.18,7.01-11.17c0.42-1.1,0.72-2.28,0.83-3.45c0.54-5.41-0.43-10.71-1.74-15.88c-0.96-3.79-2.54-7.43-3.99-11.08
			c-0.93-2.35-1.91-4.73-3.24-6.87c-3.34-5.37-5.06-5.83-11.19-4.14c-1.89,0.52-3.96,0.33-5.92,0.64c-1.92,0.31-4.62,0.2-5.57,1.39
			c-4.45,5.62-6.78,12.13-5.46,19.43c0.73,4.02,1.74,8.01,2.95,11.91c1.87,6.05,4.68,11.65,8.89,16.46
			c0.29,0.33,0.71,0.55,1.12,0.87c0.16-0.38,0.29-0.52,0.27-0.64c-1.04-5.78-2.18-11.54-3.12-17.33c-0.51-3.15-0.75-6.36-1-9.55
			c-0.46-5.87-0.88-11.75-1.2-17.63c-0.03-0.65,0.74-1.34,1.14-2.02c0.46,0.64,1.26,1.25,1.33,1.93c0.28,2.75,0.27,5.52,0.49,8.27
			c0.27,3.28,0.73,6.54,1,9.82c0.75,9.1,1.57,18.17,4.58,26.89c0.44,1.26,0.48,2.66,0.77,4.38c1.06,0.68,2.41,1.82,3.98,2.47
			c0.92,0.38,3.03,0.22,3.12-0.11C670.47,247.64,672.29,247.31,673.35,246.72z M517.38,209.42c-0.02,0.22-0.08,0.43-0.07,0.64
			c0.68,7.66,1.41,15.31,2.05,22.97c0.36,4.25,0.31,8.54,0.94,12.74c1.18,7.83,2.71,15.61,4.13,23.41c0.15,0.8,0.49,1.56,0.85,2.7
			c3.34-3.95,6.12-7.81,7.15-12.31c1.25-5.41,1.62-11.03,2.27-16.56c0.18-1.54,0.19-3.16-0.06-4.69c-0.73-4.41-1.97-8.76-2.4-13.19
			C531.42,216.5,524.2,211.19,517.38,209.42z M653.18,190.48c1.36,0,1.81-0.06,2.24,0.01c2.7,0.41,5.24,0.07,7.88-0.83
			c2.56-0.86,3.04-4.2,5.93-4.4c0.12-0.01,0.28-0.35,0.32-0.55c0.38-1.96,0.81-3.92,1.07-5.9c0.2-1.46-0.48-2.24-2.07-2.12
			c-2.16,0.16-4.37,0.03-6.48,0.43c-1.19,0.23-2.48,1.07-3.25,2.02c-1.55,1.9-2.93,3.98-4.07,6.15
			C653.98,186.75,653.75,188.5,653.18,190.48z M786.16,172.34c-2.91,0.53-4.97,0.82-6.98,1.32c-0.73,0.18-1.72,0.69-1.95,1.3
			c-1.05,2.74-1.87,5.57-2.89,8.72c3.23-0.4,6.05-0.61,8.51,1.29c0.23,0.17,1.47-0.35,1.53-0.67
			C785.03,180.51,785.54,176.7,786.16,172.34z M774.52,251.23c3,0.35,5.32-0.83,6.49-2.83c1.8-3.08,0.97-6.66,1-9.99
			c-2.77,0.46-5.09,0.84-7.49,1.24C774.52,243.49,774.52,247.33,774.52,251.23z M508.51,205.62c1.44,0,2.48-0.04,3.52,0.01
			c1.48,0.07,2.04-0.58,1.81-2.03c-0.12-0.73-0.02-1.51-0.22-2.22c-0.37-1.33-1.12-2.28-2.72-2.05c-1.92,0.28-3.85,0.46-5.73,0.89
			c-0.58,0.13-1.31,0.89-1.43,1.48c-0.58,2.84,0.21,3.7,3.15,3.8C507.56,205.53,508.23,205.6,508.51,205.62z M510.96,292.06
			c2.34-2.27,4.32-4.02,6.08-5.96c1.2-1.33,0.83-2.72-0.92-2.91c-2.28-0.25-4.63,0.11-6.94,0.37c-0.34,0.04-0.92,1.11-0.79,1.52
			C509.04,287.16,509.88,289.19,510.96,292.06z"/>
		<path d="M809.52,398.11c0.2-1.21,0.37-2.19,0.63-3.79c0.93,1.63,1.53,2.68,2.13,3.72c0.12-0.1,0.24-0.2,0.36-0.3
			c0-3.03-0.1-6.06,0.03-9.08c0.14-3.39,0.36-6.8,0.79-10.16c0.36-2.8,1.07-5.56,1.67-8.33c0.29-1.35,1.22-1.54,2.17-0.81
			c1.35,1.04,2.58,2.26,3.82,3.44c0.43,0.41,0.73,0.94,1.1,1.41c2.32,2.98,4.7,5.06,9.05,3.35c3.5-1.38,7.41-1.73,11.09-2.69
			c0.72-0.19,1.51-0.99,1.81-1.71c1.09-2.6,1.95-5.3,2.98-7.93c0.21-0.54,0.87-1.34,1.21-1.29c0.62,0.09,1.45,0.62,1.68,1.17
			c0.9,2.21,1.6,4.5,2.36,6.76c0.17,0.5,0.17,1.09,0.45,1.49c0.49,0.69,1.14,1.25,1.72,1.87c0.53-0.66,1.22-1.24,1.56-1.99
			c0.39-0.85,0.48-1.84,0.69-2.77c0.39-1.73,1.5-2.3,2.88-1.21c2.75,2.17,5.31,4.57,8.06,6.74c0.99,0.78,2.25,1.54,3.45,1.65
			c4.23,0.4,8.49,0.59,12.75,0.69c0.87,0.02,2.04-0.49,2.6-1.16c2.93-3.49,5.71-7.11,8.55-10.68c1.59-1.99,2.58-1.84,3.66,0.38
			c1.75,3.6,2.64,7.36,2.88,11.36c0.11,1.87,0.67,3.77,1.34,5.54c1.23,3.25,0.8,4.27-1.99,5.15c-2.04,3.32-3.79,6.16-5.58,9.07
			c0.65,1.35,1.55,2.89,2.16,4.53c0.75,2.05,0.58,4.01-1.58,5.22c-2.26,1.27-2.96,2.84-2.67,5.63c0.36,3.4-0.18,6.95-0.77,10.36
			c-0.4,2.28-1.58,4.44-4.4,4.74c-3.41,0.37-6.48-0.26-8.44-3.38c-0.82-1.31-1.58-2.78-1.87-4.28c-0.32-1.68-1.15-2.18-2.61-1.97
			c-4.86,0.68-9.72,1.33-14.56,2.15c-1.91,0.32-2.85-0.5-3.36-2.1c-0.89-2.78-0.9-5.57,0.04-8.35c0.49-1.45,0.95-2.92,1.43-4.42
			c-3.24-0.28-6.56,2.2-6.91,4.97c-0.35,2.81-0.57,5.64-1.09,8.41c-0.5,2.69-2.58,4.25-4.86,3.98c-2.37-0.28-3.92-2.12-4.14-4.82
			c-0.08-0.94-0.3-1.87-0.45-2.79c-4.87,0.63-9.31,1.93-10.28,7.33c-0.41,2.25-1.97,2.52-3.81,1.21c-2.08-1.48-3.09-3.44-2.78-5.92
			c0.17-1.37-0.36-2.12-1.45-2.67c-1.86-0.94-3.65-2.18-5.62-2.75c-4.06-1.18-6.12-3.75-6.44-7.87c-0.05-0.67-0.16-1.33-0.25-2
			c-0.21-1.49-0.97-1.97-2.56-2.06c-9.18-0.54-18.34-1.31-27.52-1.88c-9.78-0.61-19.57-1.04-29.35-1.64
			c-5.67-0.35-11.32-0.95-16.98-1.36c-6.56-0.47-13.12-0.8-19.68-1.26c-3.28-0.23-6.54-0.74-9.81-0.94
			c-9.17-0.56-18.34-1.03-27.51-1.55c-6.26-0.36-12.52-0.75-18.78-1.11c-7.31-0.42-14.62-0.85-21.93-1.22
			c-9.94-0.5-19.87-1.25-29.81-1.36c-13.54-0.15-27.09,0.18-40.63,0.33c-0.78,0.01-1.56,0.19-2.48,0.32
			c0.34,1.27,0.73,2.24,0.85,3.24c0.68,5.56-7.83,13.04-13.15,11.26c-2.15-0.72-4.04-2.49-5.78-4.09c-1.17-1.08-2.12-1.4-3.55-0.77
			c-0.95,0.42-1.99,0.71-3.01,0.86c-2.49,0.36-3.99,1.51-5.11,3.98c-1.66,3.67-5.17,5.78-8.69,7.42c-1.84,0.86-3.9,0.35-5.55-1.25
			c-2.2-2.13-3.99-4.41-4.45-7.57c-0.05-0.33-1.23-0.78-1.82-0.7c-2.14,0.28-4.24,1.08-6.36,1.11c-7.32,0.09-11.33-6.51-8.12-13.09
			c0.25-0.51,0.44-1.05,0.68-1.64c-1.35-0.79-2.16-0.45-2.94,0.65c-1.08,1.51-2.08,3.24-3.54,4.26c-1.09,0.76-2.94,0.96-4.31,0.69
			c-1.85-0.37-2-2.23-1.89-3.85c0.08-1.25,0.35-2.49,0.57-4c-0.43,0.24-0.64,0.4-0.87,0.48c-2.72,0.94-3.09,2.79-2.49,5.41
			c0.75,3.29-0.48,5.91-3.31,7.94c-2.1,1.51-4.17,1.84-6.44,0.79c-2.44-1.12-2.88-3.48-3.21-5.8c-0.15-1.07-0.03-2.17-0.03-3.12
			c-2.3,0.22-4.37,0.83-6.3,0.53c-3.56-0.56-6.43-5.97-4.92-9.19c0.52-1.11,2.01-1.93,3.24-2.49c2.49-1.13,5.11-1.99,8.04-3.11
			c-1.33-1.55-2.37-2.75-3.52-4.09c1.62-1.82,0.52-4.07,0.37-6.29c-0.09-1.4-0.38-3.4,0.37-4.11c1.34-1.27,2.63,0.41,3.81,1.27
			c1.09,0.79,2.2,1.55,3.32,2.29c2.53,1.66,7.53-0.38,8.4-3.29c0.62-2.05,1.42-4.07,2.36-6c0.28-0.58,1.32-1.17,1.93-1.09
			c0.59,0.07,1.3,0.91,1.55,1.56c0.72,1.86,1.23,3.79,1.93,6.06c2.1-1.9,4.07-1.33,6.03-0.58c4.59,1.78,9.14,3.63,13.76,5.32
			c0.94,0.34,2.19,0.35,3.14,0.04c1.84-0.6,3.6-1.46,5.33-2.35c5.34-2.75,11.06-3.61,16.97-3.56c1.6,0.01,2.53-0.42,3.38-1.9
			c3.17-5.49,6.53-10.87,9.82-16.3c0.87-1.43,1.94-1.91,2.8-0.15c2.43,4.94,4.71,9.95,7.09,14.92c0.63,1.31,1.33,2.61,2.17,3.8
			c1.96,2.76,1.53,5.87,0.59,8.57c-1.31,3.77-3.46,7.24-5.27,10.83c-0.33,0.65-0.77,1.23-1.02,1.64c4.24,3.98,9.24,2.27,13.96,2.28
			c10.69,0.03,21.38-0.27,32.07-0.11c11.82,0.19,23.64,0.61,35.44,1.19c15.38,0.75,30.76,1.75,46.14,2.64
			c13.07,0.76,26.14,1.42,39.2,2.29c8.88,0.59,17.74,1.53,26.62,2.16c6.49,0.46,13,0.61,19.49,1.04c6.56,0.43,13.1,1.08,19.65,1.54
			c6.42,0.44,12.84,0.77,19.26,1.13C808.73,398.26,809.1,398.16,809.52,398.11z M506.18,389.16c-0.09-0.19-0.17-0.39-0.26-0.58
			c-1.54,0.69-3.41,1.04-4.53,2.14c-1.84,1.81-1.57,4.31-0.49,6.49c1.22,2.47,3.48,3.54,6.15,3.2c2.59-0.33,5.14-0.98,7.68-1.6
			c1.71-0.42,2.4,0.04,2.69,1.85c0.3,1.88,0.95,3.76,1.77,5.48c1.08,2.25,3.71,3.94,5.1,3.26c3.23-1.59,6.7-3.37,7.93-6.88
			c1.08-3.07,2.97-4.22,5.76-4.81c1.31-0.28,2.67-0.54,3.88-1.09c2.7-1.23,4.4-0.25,6.06,1.97c2.97,3.96,6.04,4.43,10.05,1.65
			c1.45-1.01,2.71-2.37,3.8-3.77c1.4-1.81,0.43-6.17-1.58-6.35c-3.21-0.29-6.95-0.65-9.63,0.69c-4.02,2.02-7.93,3.55-12.41,3.98
			c-5.11,0.49-10.16,1.95-15.35,0.73c-0.41-0.1-0.91-0.04-1.32,0.1c-1.59,0.55-2.57-0.3-3.8-1.18
			C514.2,391.96,510.99,388.74,506.18,389.16z M861.28,405.05c-0.66,1.47-1.3,2.57-1.66,3.76c-0.88,2.92-1.99,5.88-0.54,8.91
			c0.25,0.52,1.21,1.05,1.78,0.99c4.22-0.46,8.41-1.14,12.62-1.62c4.58-0.52,5.17,0.03,6.77,4.17c0.62,1.6,1.72,3.19,3.01,4.32
			c2.77,2.44,6.79,0.92,7.29-2.68c0.39-2.8,0.96-5.73,0.52-8.45c-0.64-3.96,0.25-6.64,3.98-8.28c1.15-0.5,1.28-1.42,0.85-2.62
			c-1.3-3.61-2.49-4.28-6.05-2.76c-3.74,1.6-7.28,3.69-11.09,5.07C873.01,407.97,867.08,409.35,861.28,405.05z M857.67,384.88
			c1.98,0,3.6,0.07,5.22-0.01c4.7-0.24,9.39-0.53,14.08-0.84c1.53-0.1,3.04-0.42,4.56-0.51c0.68-0.04,1.4,0.16,2.07,0.38
			c0.53,0.17,0.97,0.71,1.49,0.78c4.43,0.58,8.88,1.06,13.32,1.65c1.64,0.22,2.19-0.24,1.87-1.93c-0.68-3.6-1.12-7.24-1.88-10.82
			c-0.33-1.54-1.2-2.96-1.95-4.72c-0.59,0.64-0.9,0.92-1.15,1.26c-1.97,2.72-3.96,5.42-5.87,8.18c-1.24,1.78-2.63,2.7-5.02,2.49
			c-4.15-0.36-8.36-0.52-12.52-0.27c-2.58,0.15-4.36-0.35-6.08-2.34c-1.9-2.2-3.94-4.42-7.35-5.7
			C858.19,376.78,857.94,380.69,857.67,384.88z M560.91,366.33c-1.29,0.98-2.79,1.55-2.89,2.3c-0.36,2.58-2.22,2.2-3.7,2.1
			c-4.12-0.28-7.5,1.77-11.68,3.04c2.06,0.49,5.11,5.37,4.74,6.78c-0.93,3.51-4.46,4.47-9.37,2.73c-0.67,0.9-1.29,1.73-1.92,2.56
			c-0.32-0.11-0.64-0.23-0.96-0.34c0.17-2.44,0.33-4.88,0.5-7.41c-3.47-1.2-17.56,4.44-20.59,8.5c0.21,0.09,0.41,0.25,0.61,0.25
			c11.3,0.08,22.6,0.16,33.9,0.17c0.67,0,1.55-0.36,1.97-0.86c1.85-2.17,3.56-4.45,5.53-6.95c-3.93,0.7-5.28,0.19-5.84-1.96
			c-0.55-2.13,0.73-4.43,2.74-4.94c1.65-0.42,2.71,0.74,4.12,4.69C560.24,373.87,561.09,370.6,560.91,366.33z M814.95,386.54
			c0.21,3.5,0.32,6.7,0.61,9.87c0.13,1.43,0.8,2.27,2.63,2.26c4.25-0.03,8.52,0.16,12.76,0.48c4.84,0.37,9.65,1.04,14.48,1.4
			c0.84,0.06,2.24-0.55,2.53-1.22c1.42-3.31,2.63-6.72,3.73-10.15c0.42-1.32,0.35-2.81,0.48-4.05c-3.77,1.41-7.23,2.71-10.74,4.03
			c1.41,3.01,0.21,5.47-1.05,7.84c-0.7,1.33-2.29,2.1-3.34,0.88c-1.02-1.19-1.45-3-1.77-4.62c-0.28-1.42-0.06-2.94-0.06-4.37
			c-4.08-0.18-7.52-0.33-10.95-0.48c-0.13,0.2-0.26,0.39-0.4,0.59c0.54,0.37,1.16,0.68,1.61,1.14c0.51,0.53,0.94,1.16,1.3,1.81
			c0.85,1.57,0.44,4.89-0.74,5.06c-1.55,0.23-3.33,0.22-4.74-0.35c-1.51-0.6-2.16-2.22-1.78-3.98c0.28-1.29,0.61-2.57,0.91-3.81
			c-0.87-0.01-2.49,1.48-2.72-0.77C817.51,386.28,816.46,386.63,814.95,386.54z M485.68,384.75c-1.37-0.43-2.23-0.86-3.13-0.97
			c-5.47-0.67-10.93-1.35-16.41-1.84c-2.23-0.2-3.88,1.86-3.61,4.09c0.24,2,1.21,3.71,3.13,4.27c1.96,0.57,3.73-0.09,5.06-1.91
			c0.71-0.97,1.9-1.6,2.88-2.38c0.53,1.14,0.56,1.85,0.52,2.55c-0.12,2.22-0.63,4.49-0.34,6.66c0.45,3.36,2.47,5.73,6.13,3.01
			c1.66-1.24,2.58-2.59,2.5-4.65c-0.07-1.64-0.24-3.3-0.03-4.91c0.12-0.95,0.79-1.87,1.37-2.7
			C484.05,385.53,484.69,385.35,485.68,384.75z M828.39,422.72c0.46-0.88,0.86-1.62,1.24-2.37c0.37-0.72,0.59-1.56,1.11-2.14
			c3.12-3.5,7.47-4.1,11.74-4.65c1.47-0.19,1.84,1.01,1.54,2.52c-0.25,1.26-0.22,2.68,0.1,3.92c0.17,0.67,1.17,1.39,1.9,1.54
			c0.53,0.11,1.54-0.53,1.82-1.09c0.65-1.29,1.23-2.7,1.4-4.12c0.36-3.01,0.44-6.05,0.65-9.25c-0.34-0.16-1.1-0.29-1.5-0.75
			c-1.53-1.75-3.13-0.89-4.67-0.22c-3,1.32-5.91,2.86-8.94,4.08c-3.27,1.32-6.64,2.39-10.42,3.72
			C827.59,416.11,824.87,420.43,828.39,422.72z M842.56,403.74c-2.29-0.33-4.33-0.52-6.34-0.93c-2.48-0.51-4.47-0.03-5.94,2.17
			c-0.41,0.61-0.93,1.24-1.55,1.6c-0.48,0.28-1.57,0.43-1.74,0.19c-0.99-1.38-1.78-2.9-2.72-4.52c-1.78-0.21-3.79-0.59-5.79-0.61
			c-0.71-0.01-1.97,0.75-2.06,1.32c-0.72,4.4,4.02,8.91,8.43,8.25C831.27,410.23,836.75,407.02,842.56,403.74z M519.67,374.47
			c-0.01,0-0.17-0.1-0.3-0.06c-6.29,1.82-12.58,3.62-18.84,5.54c-0.36,0.11-0.75,1.26-0.59,1.76c0.66,2.2,3.75,4.27,6.08,4.02
			c1.9-0.21,4-0.31,5.61-1.19c3.56-1.94,6.89-4.32,10.27-6.57c0.24-0.16,0.21-0.72,0.36-1.32c-1.19,0.49-2.11,0.87-3.03,1.25
			c-0.19-0.12-0.39-0.24-0.58-0.36C518.99,376.56,519.31,375.59,519.67,374.47z M495.78,365.14c-0.31,0.25-0.61,0.49-0.92,0.74
			c0.9,3.5,1.75,7.01,2.77,10.47c0.12,0.42,1.29,0.87,1.86,0.75c1.87-0.39,0.93-1.47,0.54-2.54c-0.3-0.83-0.17-1.81-0.24-2.73
			c0.88,0.04,1.79-0.08,2.62,0.15c2.85,0.79,5.29,2.72,8.7,1.59c6.22-2.06,12.6-3.6,18.9-5.42c2.27-0.66,4.48-1.49,6.72-2.25
			c-0.72-0.38-1.43-0.46-2.14-0.47c-5.54-0.08-10.62,1.65-15.33,4.34c-4.1,2.34-7.71,2.21-11.88-0.15
			C503.82,367.6,499.67,366.6,495.78,365.14z M551.99,347.02c-4.03,3.78-10.16,15.1-9.69,17.51c2.28,0.29,4.02,0,4.53-2.84
			c0.24-1.32,1.27-2.51,1.98-3.74c0.95-1.64,2.12-1.75,3.4-0.38c1.32,1.42,2.55,2.92,3.9,4.3c0.39,0.4,1.1,0.48,1.66,0.71
			c0.09-0.54,0.36-1.12,0.23-1.6c-0.42-1.5-0.9-3-1.53-4.43C555.06,353.4,553.54,350.3,551.99,347.02z M556.93,366.17
			c-0.73-0.31-0.94-0.49-1.11-0.46c-5.3,0.8-10.6,1.59-15.89,2.47c-0.59,0.1-1.03,0.87-1.63,1.12c-0.93,0.39-2,0.97-2.9,0.82
			c-3.32-0.55-6.21,0.75-7.62,3.79c2,1.14,4,0.83,6.04,0.13c4.08-1.4,8.18-2.74,12.27-4.13
			C549.56,368.73,553.02,367.52,556.93,366.17z M892.08,392.96c2.23,0.14,4.2-0.34,5.63-2.15c0.32-0.41,0.53-1.09,0.43-1.57
			c-0.05-0.27-0.84-0.47-1.32-0.55c-2.34-0.4-4.68-0.85-7.04-1.08c-3.11-0.31-6.24-0.45-9.37-0.6c-0.41-0.02-0.93,0.31-1.24,0.64
			c-0.16,0.18-0.1,0.89,0.09,1.01c1.82,1.14,3.57,2.57,5.56,3.21C887.13,392.59,889.66,392.62,892.08,392.96z M517.49,390.05
			c3.47,3.57,22.71,3.85,27.37,0C535.47,390.05,526.51,390.05,517.49,390.05z M869.79,404.76c0.04,0.17,0.09,0.34,0.13,0.51
			c2.78-0.49,5.56-0.99,7.65-1.36c0.35-3.94,0.64-7.13,0.95-10.56c-1.4-0.1-2.96-0.4-4.46-0.24c-0.61,0.06-1.52,1.1-1.58,1.76
			c-0.2,2.22-0.08,4.48-0.08,6.83c-0.04-0.01,0.19,0.02,0.38,0.11c0.6,0.28,1.19,0.58,1.78,0.87c-0.51,0.47-0.94,1.14-1.54,1.36
			C872.01,404.42,870.88,404.53,869.79,404.76z M497.78,384.3c-1.3-3.59-2.47-6.88-3.69-10.14c-0.38-1.02-0.91-1.98-1.37-2.97
			c-0.57,0.93-1.1,1.89-1.73,2.77c-1.71,2.42-1.75,5.27-0.61,7.59c0.57,1.16,3.18,1.31,4.87,1.91
			C496.01,383.73,496.78,383.97,497.78,384.3z M864.63,393.85c0.1-0.22,0.21-0.45,0.31-0.67c-1.89,0.38-3.79,0.7-5.65,1.18
			c-0.33,0.09-0.77,0.93-0.67,1.3c1.28,4.99,4.47,6.83,9.22,5.58c-0.24-1.83-0.47-3.64-0.66-5.08
			C866.23,395.3,865.43,394.57,864.63,393.85z M841.65,385.67c4.73,0.23,6.86-1.01,9.1-4.81c0.61-1.04,1.14-2.48-0.45-3.3
			c-1.6-0.83-4.43-0.2-4.98,0.91C844.14,380.88,842.89,383.25,841.65,385.67z M823.91,380.19c-2.43-2.71-4.36-4.88-6.3-7.04
			c-0.32,0.1-0.65,0.2-0.97,0.3c-0.2,2.64-0.4,5.28-0.64,8.41C818.77,381.28,820.98,380.81,823.91,380.19z M882.66,401.35
			c3.31-2.65,8.18-2.48,11.15-6.22c-1.92,0.07-3.73,0.87-5.53,0.83c-1.88-0.04-3.74-0.88-5.63-1.38
			C882.66,396.84,882.66,398.82,882.66,401.35z M868.62,387.11c-3.27,0.25-6.53,0.51-9.79,0.75c-1.55,0.12-1.51,1.35-1.33,2.28
			c0.09,0.47,1.1,1.09,1.67,1.07c2.38-0.11,4.77-0.31,7.11-0.75C867.82,390.17,869.33,389.46,868.62,387.11z M495.64,388
			c-0.03-0.3-0.05-0.6-0.08-0.89c-1.76-0.26-3.63-0.97-5.23-0.57c-0.73,0.18-1.08,2.53-1.27,3.94c-0.08,0.63,0.53,1.71,1.1,1.95
			c0.55,0.23,1.65-0.14,2.15-0.62C493.53,390.66,494.54,389.29,495.64,388z M490.16,367.26c-8.11,2.75-8.11,2.75-8.44,4.49
			C486.53,372.56,490.76,370.31,490.16,367.26z M840.58,380.41c-2.27,0.67-4.55,1.31-6.81,2.04c-0.49,0.16-0.89,0.6-1.34,0.91
			c0.46,0.42,0.85,1.04,1.38,1.23C836.36,385.44,839.37,383.87,840.58,380.41z M853.86,392.17c-1.05,2.67-1.98,4.91-2.79,7.2
			c-0.14,0.4,0.26,0.98,0.4,1.48c0.44-0.29,1-0.49,1.3-0.89c0.47-0.65,0.59-1.68,1.18-2.1
			C856.45,396.06,855.14,394.37,853.86,392.17z M478.92,373c-0.11-0.26-0.22-0.52-0.33-0.79c-1.21,0-2.73-0.45-3.53,0.12
			c-0.82,0.58-0.93,2.16-1.35,3.3c0.62,0.19,1.5,0.74,1.8,0.51C476.75,375.23,477.8,374.07,478.92,373z M850.47,374.67
			c-0.65-2.09-1.2-3.86-1.75-5.62c-0.28,0.03-0.55,0.07-0.83,0.1c-0.52,1.78-1.04,3.56-1.61,5.52
			C847.7,374.67,848.83,374.67,850.47,374.67z M485.68,377.83c-1.31-0.84-2.06-1.32-2.81-1.81c-0.65,1.23-1.29,2.46-1.94,3.68
			c0.21,0.2,0.43,0.39,0.64,0.59C482.76,379.59,483.94,378.88,485.68,377.83z M548.65,363.56c1.65-0.28,2.9-0.49,4.76-0.8
			c-1.15-1.24-1.93-2.08-3.04-3.26C549.72,361.05,549.28,362.1,548.65,363.56z M828.69,382.18c-0.17-0.24-0.35-0.48-0.52-0.71
			c-1.11,0.28-2.23,0.56-3.31,0.83c-0.34,3.44-0.34,3.44,1.17,3.31c-0.09-0.34-0.35-0.88-0.23-0.99
			C826.72,383.75,827.71,382.98,828.69,382.18z M815.76,409.6c-0.92-1.81-1.69-3.32-2.65-5.2
			C812.85,406.95,812.86,408.9,815.76,409.6z M854.8,400.57c0.1,0.2,0.2,0.39,0.31,0.59c0.91-0.1,1.83-0.19,3.04-0.32
			c-0.69-1.03-1.12-1.67-1.7-2.54C855.8,399.19,855.3,399.88,854.8,400.57z"/>
		<path d="M740.88,618.8c0-4.44,0-8.87,0-13.31c0-7.16-0.23-14.34,0.06-21.49c0.25-6.25,0.91-12.5,1.68-18.71
			c0.9-7.3,1.98-14.59,3.21-21.84c1.43-8.44,2.91-16.89,4.74-25.25c1.96-8.95,4.38-17.79,6.53-26.69c1.49-6.15,2.88-12.32,4.28-18.5
			c1.45-6.4,3.25-12.76,4.15-19.24c0.63-4.59-0.03-9.36-0.04-14.05c-0.01-3.73,0.06-7.46,0.17-11.18c0.05-1.78,0.16-3.58,0.42-5.34
			c0.16-1.05,0.65-2.06,0.99-3.09c0.32,0.04,0.64,0.07,0.96,0.11c0.25,1.93,0.7,3.86,0.71,5.8c0.05,9.18,0.37,18.39-0.19,27.54
			c-0.36,5.76-2.07,11.43-3.27,17.13c-0.8,3.79-1.73,7.55-2.66,11.3c-2.95,11.95-6.11,23.84-8.82,35.84
			c-1.77,7.84-2.97,15.81-4.29,23.75c-1.6,9.62-3.17,19.24-4.54,28.89c-0.53,3.76-0.59,7.6-0.7,11.41
			c-0.18,6.12-0.21,12.24-0.35,18.36c-0.1,4.47-0.22,8.95-0.44,13.42c-0.07,1.39-0.39,2.79-0.74,4.14c-0.12,0.46-0.69,0.8-1.06,1.19
			C741.41,618.93,741.14,618.86,740.88,618.8z"/>
		<path d="M816.61,632.09c-0.24-0.93-0.3-1.95-0.75-2.76c-3.23-5.82-3.51-12.17-3.81-18.6c-0.33-7-1.3-13.97-1.73-20.97
			c-0.38-6.19-0.64-12.4-0.54-18.59c0.13-7.91,0.49-15.83,1.09-23.72c0.49-6.46,1.46-12.89,2.22-19.33
			c0.58-4.89,1.09-9.79,1.77-14.67c0.87-6.26,1.97-12.49,2.79-18.75c0.55-4.2,0.69-8.45,1.2-12.66c0.58-4.74,1.63-9.43,2.04-14.18
			c0.73-8.56,1.21-17.14,1.61-25.72c0.13-2.87-0.32-5.77-0.51-8.66c0.21-0.09,0.42-0.19,0.63-0.28c0.4,0.56,1.06,1.08,1.14,1.68
			c0.6,4.11,1.34,8.23,1.56,12.36c0.57,10.68-2.03,21.09-2.93,31.65c-0.43,4.99-0.95,9.98-1.64,14.95
			c-0.95,6.88-2.13,13.73-3.13,20.61c-0.81,5.61-1.59,11.23-2.23,16.86c-0.88,7.72-2,15.44-2.34,23.2
			c-0.45,10.52-0.5,21.06-0.26,31.59c0.17,7.46,1.14,14.9,1.67,22.35c0.35,4.9,0.41,9.82,0.89,14.71c0.24,2.47,1.14,4.88,1.71,7.32
			c0.12,0.49,0.11,1.01,0.16,1.51C817.02,632.02,816.82,632.05,816.61,632.09z"/>
		<path d="M695.81,614.07c-0.84-2.27-1.25-4.66-0.76-7.08c2.07-10.23,4.36-20.43,6.3-30.68c0.86-4.53,0.85-9.22,1.64-13.77
			c1.11-6.31,2.5-12.57,3.96-18.8c2.33-9.95,4.99-19.81,5.59-30.09c0.25-4.29,0.8-8.58,1.49-12.82c1.69-10.35,3.68-20.64,5.29-31
			c2.4-15.42,4.61-30.87,6.85-46.31c0.22-1.55,0.08-3.14,0.22-4.71c0.04-0.41,0.47-0.78,0.73-1.17c0.35,0.39,1.02,0.79,1.01,1.16
			c-0.06,2.24-0.3,4.47-0.44,6.71c-0.84,13.33-3.75,26.34-5.93,39.47c-1.26,7.59-1.9,15.28-2.96,22.91
			c-1.65,11.9-3.33,23.8-5.15,35.68c-0.76,5-1.86,9.95-2.88,14.91c-1.37,6.65-3.07,13.23-4.17,19.92
			c-1.35,8.16-1.91,16.45-3.42,24.57c-1.53,8.18-3.85,16.2-5.74,24.32c-0.51,2.2-0.71,4.48-1.06,6.72
			C696.19,614.04,696,614.06,695.81,614.07z"/>
		<path d="M855.5,481.08c-0.74-1.63-1.53-3.54-2.49-5.36c-0.18-0.34-1.17-0.59-1.55-0.41c-1.72,0.86-3.31,2.02-5.05,2.81
			c-1.33,0.61-2.83,0.83-4.25,1.23c-0.22-0.33-0.44-0.66-0.65-0.99c0.68-0.77,1.24-1.74,2.07-2.27c1.95-1.24,3.98-2.37,6.08-3.34
			c1.53-0.71,2-1.48,1.32-3.13c-0.3-0.74,0.07-1.75,0.13-2.64c0.75,0.48,1.81,0.79,2.2,1.47c0.92,1.6,1.98,1.62,3.53,1.08
			c2.74-0.96,5.54-1.76,8.34-2.54c1.03-0.29,2.43-0.82,2.83,0.73c0.46,1.83-1.33,1.65-2.33,1.98c-3.16,1.02-6.36,1.94-9.33,2.83
			c-0.12,0.65-0.2,0.8-0.16,0.92c1.68,5.95,3.52,6.51,8.48,2.32c1.68-1.42,2.68-1.16,4.04,0.91c-1.77,1.02-3.44,2.04-5.17,2.97
			c-3.13,1.67-3.19,1.95-1.75,5.15c1.09,2.43,2.07,4.91,3,7.41c0.76,2.05-0.68,3.24-3.57,3.1c0.41-4.3-1.83-7.54-4.15-10.8
			c-4.2,1.39-7.05,5.63-12.06,5.14C847.63,485.84,852.47,484.8,855.5,481.08z"/>
		<path d="M771.82,560.72c2.61-1.25,5.08-2.43,7.51-3.59c-1.03-3.27-1.35-3.39-4.16-2.3c-1.25,0.48-2.55,0.89-3.86,1.11
			c-0.53,0.09-1.17-0.45-1.76-0.7c0.32-0.49,0.53-1.16,0.98-1.44c1.26-0.79,2.55-1.66,3.95-2.06c1.91-0.56,1.97-1.54,1.52-3.18
			c-0.25-0.9,0.08-1.96,0.16-2.94c0.85,0.78,1.97,1.42,2.47,2.38c0.63,1.21,1.3,1.74,2.61,1.42c3.05-0.74,6.08-1.56,9.15-2.17
			c0.9-0.18,1.92,0.23,3.08,0.4c-1.11,2.93-3.48,2.38-5.16,3.03c-1.78,0.69-3.78,0.78-5.64,1.33c-0.58,0.17-0.98,0.96-1.46,1.46
			c0.74,0.6,1.76,1.87,2.19,1.7c3.5-1.45,6.9-3.15,10.29-4.85c0.35-0.18,0.46-0.84,0.68-1.27c1.72,1.09,1.85,2.68,0.09,3.72
			c-2.75,1.63-5.6,3.1-8.48,4.48c-1.97,0.94-2.15,2.05-1.14,3.85c1.45,2.59,2.75,5.27,3.98,7.97c0.23,0.5,0.03,1.64-0.36,1.88
			c-0.72,0.46-1.75,0.73-2.58,0.6c-0.71-0.11-1.31-0.89-1.44-1.58c-0.14-1.04-0.13-2.15-0.47-3.12c-0.61-1.76-1.41-3.46-2.19-5.14
			c-0.56-1.2-1.35-1.9-2.85-1.2c-1.28,0.6-2.67,0.95-4,1.44C773.64,562.42,772.59,562.25,771.82,560.72z"/>
		<path d="M719.67,579.82c-1.98,0.32-3.8,0.62-5.66,0.93c-0.78-1.71,0.19-2.47,1.27-2.98c1.27-0.61,2.62-1.07,3.97-1.48
			c2.44-0.75,3.27-2.23,2.26-4.55c-0.24-0.55-1.05-1-1.69-1.21c-1.05-0.36-2.17-0.49-3.26-0.72c-0.07-0.32-0.14-0.65-0.21-0.97
			c0.75-0.46,1.52-1.33,2.24-1.29c2.31,0.13,3.15-0.84,2.98-3.02c-0.06-0.8-0.01-1.61-0.01-2.67c3,0.36,1.61,3.27,2.91,4.58
			c2.27,0.54,4.08-2.73,7.35-0.84c-1.5,1.03-2.55,2.13-3.82,2.55c-3.17,1.05-4.12,3.03-3.07,6.4c0.88-0.25,1.82-0.71,2.79-0.74
			c0.85-0.03,1.73,0.4,2.59,0.62c-0.61,0.71-1.08,1.79-1.85,2.06c-4.51,1.6-5,2.12-5.37,6.99c2.34,0.56,4.71,1.11,7.08,1.69
			c0.51,0.12,1.1,0.21,1.46,0.53c0.48,0.42,0.78,1.06,1.15,1.6c-0.58,0.29-1.18,0.83-1.75,0.81c-1.18-0.04-2.34-0.36-3.51-0.61
			c-3.22-0.69-6.39-1.44-9.39,0.89c-1.07,0.83-2.59,1.55-3.7-0.16c-1.27-1.96,0.62-2.59,1.63-3.49c0.46-0.41,1.24-0.45,1.87-0.68
			C719.75,583.35,720.33,582.04,719.67,579.82z"/>
		<path d="M874.28,545.33c3.72,2.18,7.13,4.11,10.44,6.19c0.47,0.3,0.5,1.3,0.73,1.97c-0.73,0.09-1.6,0.5-2.16,0.23
			c-2.75-1.3-5.41-2.8-8.11-4.2c-1.39-0.72-2.62-0.37-3.1,1.09c-0.68,2.05-1.88,3.22-4.05,3.1c-2.24-0.13-3.41-1.78-4.17-3.59
			c-1.63-3.91-0.16-5.65,4.08-5.02c3.08,0.46,3.67-0.04,3.69-3.19c0-0.3,0.03-0.6-0.02-0.9c-0.35-2.02-0.15-4.46-1.24-5.96
			c-1.4-1.93-3.83,0.02-5.81-0.12c-0.71-0.05-1.39-0.61-2.08-0.93c0.51-0.56,0.93-1.36,1.57-1.63c1.01-0.42,2.17-0.62,3.28-0.69
			c1.72-0.11,2.49-0.78,2.12-2.57c-0.07-0.36,0.23-0.8,0.46-1.52c0.6,0.5,1.22,0.77,1.41,1.22c1.17,2.72,3.58,2.72,5.94,2.87
			c0.89,0.06,1.86-0.08,2.65,0.23c0.73,0.28,1.27,1.04,1.89,1.59c-0.91,0.44-1.79,1.14-2.74,1.25c-0.98,0.11-2.02-0.37-3.03-0.6
			c-1.77-0.39-2.51,0.21-2.27,2.1c0.3,2.39,0.47,4.8,0.62,7.21C874.46,544.27,874.3,545.08,874.28,545.33z M865.83,547.5
			c0.25,2.3,0.85,3.74,2.69,3.81c0.36,0.01,0.79-1.64,1.18-2.53C868.51,548.39,867.32,548,865.83,547.5z"/>
		<path d="M732.11,511.84c-2.69-0.45-5.45,1.93-7.87-0.05c-0.01-0.33-0.02-0.66-0.03-0.99c2.21-0.5,4.41-1.07,6.64-1.47
			c2.29-0.41,2.54-0.93,2.16-4.34c-0.21-1.92-1.3-1.89-2.79-1.69c-2.82,0.37-3,0.24-3.97-1.71c2.24-0.6,4.42-1.18,6.49-1.74
			c-0.08-1.53-0.17-2.98-0.25-4.42c0.23-0.12,0.46-0.23,0.7-0.35c0.57,0.79,1.55,1.55,1.63,2.38c0.21,2.22,1.22,2.49,3.16,2.13
			c1.19-0.22,2.49,0.2,3.74,0.33c0.04,0.38,0.07,0.76,0.11,1.14c-1.75,0.48-3.5,0.97-5.43,1.5c0,1.61,0,3.43,0,5.34
			c1.05,0,1.88-0.1,2.65,0.04c0.4,0.08,0.89,0.54,1.02,0.94c0.08,0.26-0.4,1.01-0.64,1.02c-4.07,0.06-3.53,3.45-4.33,5.88
			c-0.09,0.28-0.2,0.56-0.31,0.88c0.91,0.68,1.88,1.27,2.68,2.04c0.57,0.55,0.91,1.33,1.35,2c-0.87,0.29-1.73,0.76-2.61,0.8
			c-0.55,0.02-1.2-0.53-1.69-0.96c-1.06-0.9-1.94-1.01-3.16-0.12c-1.6,1.17-3.41,1.81-5.38,0.55c-1.52-0.98-1.81-2.4-1.33-3.91
			c0.49-1.53,1.59-2.53,3.4-2.28c0.44,0.06,0.9,0.06,1.34,0.12C731.87,515.26,732.41,514.67,732.11,511.84z"/>
		<path d="M783.16,613.95c0.07,0.34,0.09,0.71,0.23,1.02c0.31,0.67,0.69,1.31,1.03,1.97c0.59-0.38,1.23-0.7,1.75-1.16
			c3.39-2.99,5.85-6.63,7.64-10.77c1.45-3.36-0.33-6.56-3.93-7.1c-3.55-0.53-6.24,0.71-8.42,3.45c-1.2,1.51-2.55,2.9-3.75,4.41
			c-1.04,1.31-2.1,1.54-3.57,0.22c1.45-2.09,2.89-4.19,4.53-6.55c-1.42,0-2.62,0-3.99,0c-0.1-1.62,0.03-2.59,1.84-2.75
			c3.85-0.36,7.49-1.24,9.76-4.87c0.27-0.43,1-0.57,2.11-1.15c0,1.6,0,2.78,0,4.32c0.91,0.28,2.33,0.63,3.69,1.13
			c6.02,2.25,6.61,8.04,3.69,12.57c-3.05,4.74-6.85,8.86-11.67,11.91c-0.46,0.29-1.42,0.38-1.77,0.09c-0.6-0.5-1.34-1.43-1.24-2.05
			c0.27-1.63,0.97-3.18,1.49-4.77C782.79,613.89,782.98,613.92,783.16,613.95z"/>
		<path d="M783.01,518.29c-0.54,1.09-0.85,2.39-1.66,3.22c-3.21,3.28-3.39,7.24-2.88,11.4c0.18,1.51,1.08,2.12,2.6,2.11
			c2.99-0.02,5.02-1.77,6.31-4.05c1.53-2.69,2.64-5.66,3.63-8.61c1-2.98,1.85-3.4,3.95-1.18c1.84,1.95,3.56,4.03,5.16,6.18
			c0.43,0.58,0.23,1.62,0.32,2.45c-0.83-0.28-1.89-0.33-2.45-0.88c-1.52-1.5-2.83-3.22-4.45-5.13c-0.95,2.07-1.69,3.81-2.54,5.5
			c-1.83,3.63-4.2,6.71-8.39,7.81c-4.38,1.15-6.64-0.47-6.85-4.95c-0.07-1.56-0.13-3.14,0.03-4.69c0.16-1.53,0.61-3.04,0.98-4.77
			c-5.08,0.16-8.06,5.86-13.39,4.77C768.88,522.68,774.98,519.18,783.01,518.29z"/>
		<path d="M716.54,595.81c0.62,1.13,1.23,2.26,1.91,3.49c2.27-0.56,4.55-1.21,6.87-1.66c0.64-0.12,1.39,0.34,2.09,0.53
			c-0.44,0.62-0.74,1.55-1.33,1.8c-1.49,0.64-3.09,1.05-4.68,1.42c-1.46,0.35-2.27,0.95-1.85,2.63c0.28,1.14,0.47,2.34,0.43,3.51
			c-0.07,2.04-0.89,3.77-2.44,5.21c-1.98,1.84-3.89,3.78-5.7,5.79c-0.87,0.97-1.35,2.3-2.2,3.3c-0.36,0.43-1.23,0.42-2.31,0.74
			c1.78-3.07,3.22-5.45,4.53-7.91c0.22-0.41,0.09-1.37-0.24-1.66c-2.1-1.86-2.87-4.14-1.65-6.61c1.06-2.15,3.18-2.76,5.55-2.34
			c0.25,0.04,0.54-0.12,1.44-0.34c-2.98-2.32-6.23,0.81-8.65-1.06c-0.04-0.27-0.07-0.55-0.11-0.82c1.53-0.36,3.04-0.86,4.59-1.05
			c2.24-0.28,3.83-0.87,2.91-3.64c-0.11-0.34,0.18-0.81,0.28-1.22C716.18,595.87,716.36,595.84,716.54,595.81z M711.09,608.41
			c1.34,1.05,2.43,2.19,2.66,2.03c0.89-0.59,1.61-1.54,2.12-2.5c0.1-0.18-1.14-1.53-1.62-1.45
			C713.37,606.63,712.6,607.44,711.09,608.41z"/>
		<path d="M861.85,456.34c0.74-1.4,1.45-2.6,2.03-3.86c0.9-1.95,1.92-3.88,2.52-5.92c0.65-2.25-0.46-3.33-2.84-3.61
			c-6.86-0.79-12.86,1.92-18.91,4.48c-2.05,0.87-4.04,1.93-6.13,2.67c-0.64,0.22-1.56-0.35-2.35-0.56c0.34-0.71,0.51-1.84,1.06-2.08
			c8.05-3.49,15.87-7.82,24.98-7.81c1.81,0,3.7,0.47,5.39,1.13c0.9,0.35,1.73,1.46,2.14,2.42
			C871.63,447.62,867.04,455.47,861.85,456.34z"/>
		<path d="M799.63,437.8c-5.27-0.01-11.01,2.54-16.43,6.03c-1.44,0.93-2.84,1.94-4.31,2.82c-0.43,0.25-1.05,0.18-1.58,0.25
			c-0.03-0.62-0.3-1.41-0.03-1.84c0.46-0.72,1.18-1.39,1.95-1.79c4.16-2.17,8.28-4.45,12.58-6.31c4.03-1.74,8.37-2.13,12.74-1.46
			c2.27,0.35,3.7,2.29,3.7,4.63c0,3.98-1.62,7.23-4.37,9.98c-1.15,1.16-2.3,2.35-3.61,3.32c-0.53,0.39-1.48,0.21-2.24,0.29
			c0.25-0.7,0.33-1.52,0.76-2.08c2.18-2.8,4.65-5.33,5.7-8.93C805.6,438.89,804.93,437.73,799.63,437.8z"/>
		<path d="M752.87,432.12c0-0.96-0.08-1.86,0.03-2.74c0.07-0.54,0.43-1.05,0.67-1.57c0.47,0.38,1.07,0.67,1.38,1.15
			c0.48,0.74,0.75,1.61,1.2,2.61c1.81,0,3.61,0,5.54,0c-0.63,1.95-0.91,2.31-3.36,2.52c-1.96,0.16-2.06,1.24-2.57,2.82
			c-1.14,3.52,0.3,5.33,3.14,6.86c0.47,0.25,0.44,1.44,0.64,2.19c-0.78-0.03-1.72,0.21-2.3-0.15c-2.76-1.66-2.35-2.06-4.26,1.08
			c-1.72,2.82-3.27,3.45-5.05,2.16c-1.52-1.1-2.34-2.7-1.57-4.25c0.64-1.28,2.08-2.51,3.43-3.01c2.22-0.81,3.1-1.51,2.91-3.85
			c-0.1-1.32-0.32-2.54-2.2-2.38c-0.56,0.05-1.18-0.57-2.43-1.23C750.01,433.43,751.32,432.83,752.87,432.12z"/>
		<path d="M778.85,479.19c-0.95,0.12-1.4,0.28-1.83,0.21c-0.52-0.08-1.41-0.27-1.45-0.53c-0.09-0.57,0.06-1.39,0.45-1.77
			c0.55-0.54,1.37-0.95,2.14-1.11c2.53-0.52,3.66-2.36,4.57-4.48c0.23-0.55,0.35-1.3,0.77-1.57c0.73-0.48,1.66-0.66,2.51-0.96
			c0.2,0.75,0.49,1.5,0.57,2.27c0.05,0.47-0.24,0.97-0.5,1.85c2.25-0.58,4.26-0.99,6.2-1.62c1.8-0.58,2.99-0.14,3.89,1.72
			c-3.56,1.23-7.03,2.33-10.41,3.66c-0.98,0.38-2,1.26-2.49,2.18c-1.71,3.21-3.2,6.54-4.79,9.82c-0.16,0.33-0.31,0.79-0.59,0.92
			c-0.71,0.35-1.5,0.55-2.25,0.82c-0.16-0.78-0.66-1.69-0.43-2.33c0.8-2.23,1.88-4.37,2.81-6.56
			C778.32,481.01,778.51,480.24,778.85,479.19z"/>
		<path d="M739.23,465.66c-1.31,6.54-3.3,13.06-0.97,20.26c3.62-2.32,6.82-4.38,10.11-6.49c1.44,1.28,1.49,2.28-0.34,3.52
			c-2.76,1.86-5.55,3.68-8.44,5.33c-2.36,1.35-5.2-0.43-5.5-3.63c-0.34-3.64-0.61-7.36-0.27-10.98c0.23-2.44,1.45-4.82,2.47-7.12
			c0.29-0.66,1.4-0.97,2.13-1.44C738.7,465.3,738.96,465.48,739.23,465.66z"/>
		<path d="M792.68,487.67c1.92,0.18,2.72,1.34,2.74,2.84c0.04,2.01,1.11,2.63,2.84,2.98c1.52,0.31,3.05,0.79,4.41,1.5
			c0.71,0.37,1.08,1.38,1.61,2.11c-0.85,0.21-1.76,0.72-2.55,0.57c-2.16-0.41-4.28-1.09-5.82-1.5c-1.71,1.79-2.92,3.25-4.32,4.49
			c-1.3,1.14-2.9,0.78-3.36-0.85c-0.5-1.75-0.68-3.63-0.66-5.45c0.01-0.52,1.11-1.29,1.84-1.51c3.38-1,3.39-0.94,3.1-4.35
			C792.49,488.29,792.59,488.08,792.68,487.67z"/>
		<path d="M785.67,201.76c0,6.91-0.03,13.83,0.02,20.74c0.01,2.12,0.3,4.24,0.35,6.37c0.02,1.02-0.06,2.39-1.54,2.15
			c-0.56-0.09-1.26-1.27-1.35-2.02c-1.18-9.41-0.7-18.86-0.43-28.3c0.03-1.17-0.44-3.21,1.7-3.21c0.33,0,0.68,2.05,0.97,3.16
			c0.09,0.35,0.01,0.74,0.01,1.12C785.49,201.76,785.58,201.76,785.67,201.76z"/>
		<path d="M842.92,557.56c1.27-0.32,1.91-0.48,2.54-0.64c0.91,2.4-0.31,4.64-2.67,4.57c-0.76-0.02-2.05-1.01-2.15-1.7
			c-0.94-6.52-1.72-13.06-2.43-19.6c-0.15-1.38,0.01-2.86,0.34-4.21c0.18-0.75,0.95-1.79,1.59-1.9c1.17-0.19,1.81,0.65,1.75,1.99
			c-0.15,3.03-0.39,6.08-0.22,9.11C841.89,549.21,842.47,553.23,842.92,557.56z"/>
		<path d="M733.01,529.97c-0.68,3.49-0.97,7.12-2.14,10.44c-1.58,4.46-3.77,8.7-5.87,12.96c-0.29,0.59-1.54,0.71-2.35,1.05
			c0-0.77-0.26-1.67,0.04-2.3c1.96-4.18,3.92-8.33,4.71-12.95c0.61-3.57,1.38-7.12,2.23-10.65c0.17-0.7,1.03-1.24,1.57-1.85
			c0.5,0.63,1.07,1.22,1.46,1.91c0.19,0.34,0.03,0.88,0.03,1.33C732.79,529.93,732.9,529.95,733.01,529.97z"/>
		<path d="M738.61,448.55c1.07,0,1.55,0,2.52,0c-0.69,1.17-1.07,2.14-1.74,2.84c-0.55,0.57-1.74,1.3-2.13,1.08
			c-0.69-0.41-1.41-1.5-1.38-2.27c0.3-6.69,0.76-13.38,1.2-20.07c0.03-0.51,0.09-1.18,0.41-1.48c0.69-0.65,1.56-1.11,2.35-1.65
			c0.06,0.82,0.23,1.64,0.17,2.45C739.57,435.79,739.09,442.13,738.61,448.55z"/>
		<path d="M722.91,536.79c0.77,0.12,1.56,0.24,2.75,0.43c-1.29,1.39-2.24,2.79-3.53,3.67c-0.74,0.5-2.11,0.38-3.05,0.09
			c-0.36-0.11-0.57-1.53-0.44-2.27c0.47-2.69,1-5.37,1.76-7.99c0.2-0.7,1.28-1.14,1.96-1.7c0.43,0.59,1.24,1.19,1.22,1.77
			C723.51,532.76,723.16,534.73,722.91,536.79z"/>
		<path d="M787.37,578.68c-2.88,2.01-9.12,1.6-11.4-0.65c-0.37-0.36-0.59-1.03-0.56-1.55c0.01-0.22,0.8-0.43,1.26-0.6
			c0.11-0.04,0.28,0.06,0.43,0.1C780.44,576.87,783.8,577.75,787.37,578.68z"/>
		<path d="M804.46,598.31c-0.33,0.64-0.45,1.17-0.67,1.22c-0.45,0.1-1.25,0.12-1.41-0.13c-1.68-2.67-3.28-5.39-4.83-8.14
			c-0.03-0.06,0.76-0.58,1.17-0.89C800.65,593.04,802.58,595.71,804.46,598.31z"/>
		<path d="M852.26,509.61c4.15-0.99,6.21,3.72,10.17,2.64C859.89,515.74,855.13,514.12,852.26,509.61z"/>
		<path d="M720.72,624.77c-0.24-1.92,1.28-2.28,2.94-2.31c1.27-0.02,2.81,0.58,2.28,1.93c-0.46,1.2-1.92,2.3-3.2,2.82
			C721.59,627.68,720.64,626.45,720.72,624.77z"/>
		<path d="M801.29,467.76c0.36-0.54,0.55-1.06,0.91-1.26c0.28-0.15,1.01-0.03,1.15,0.2c1,1.67,1.93,3.39,2.78,5.15
			c0.09,0.18-0.44,0.95-0.7,0.96c-0.62,0.02-1.56-0.05-1.8-0.44C802.74,470.94,802.08,469.37,801.29,467.76z"/>
		<path d="M878.51,468.11c-1.16,0.65-1.71,1.2-2.31,1.24c-1.08,0.09-2.68-2.68-2.45-4.48c0.08-0.64,0.95-1.18,1.46-1.76
			C876.21,464.61,877.2,466.12,878.51,468.11z"/>
		<path d="M886.84,466.15c-1.71,0-3.75-2.19-3.49-3.32c0.13-0.56,0.92-0.97,1.41-1.45c1.03,1.17,2.11,2.3,3.02,3.55
			C887.89,465.08,887.02,465.94,886.84,466.15z"/>
		<path d="M743.28,463.36c1.6,0.12,3.45,3.76,2.67,4.7c-0.34,0.41-1.58,0.69-1.62,0.63c-0.72-1.41-1.38-2.85-1.88-4.35
			C742.36,464.09,743.09,463.58,743.28,463.36z"/>
		<path d="M888.28,567.74c-0.99,0.76-1.71,1.45-1.82,1.36c-1.1-0.87-2.11-1.86-3.14-2.82c0.42-0.31,1.02-0.98,1.23-0.87
			C885.72,566,886.78,566.78,888.28,567.74z"/>
		<path d="M748.88,460.33c0.57,1.57,1.09,2.98,1.55,4.42c0.02,0.07-0.73,0.55-0.85,0.46c-0.62-0.46-1.38-0.95-1.67-1.61
			c-0.34-0.76-0.28-1.7-0.31-2.57C747.6,460.9,748.08,460.76,748.88,460.33z"/>
		<path d="M802.43,590.44c0.88-0.43,0.95-0.49,1.01-0.49c1.69-0.02,2.24,1.2,2.59,2.52c0.06,0.21-0.49,0.58-0.75,0.87
			C804.39,592.45,803.51,591.55,802.43,590.44z"/>
		<path d="M809.57,589c-0.4,0.14-0.97,0.52-1.18,0.38c-0.73-0.52-1.34-1.21-1.99-1.83c0.28-0.27,0.72-0.82,0.81-0.76
			c0.71,0.41,1.36,0.94,2.03,1.43C809.35,588.47,809.46,588.73,809.57,589z"/>
		<path class="vol1_5_st0" d="M515.65,208.73c0.1,2.21,0.17,3.85,0.24,5.5c0.31,6.84,0.61,13.69,0.93,20.53
			c0.36,7.62,1.17,15.17,2.99,22.62c1.25,5.13,2.25,10.33,3.02,15.55c0.14,0.98-1.09,2.58-2.12,3.26
			c-10.29,6.91-18.58,4.25-24.26-6.75c-5-9.67-6.19-20.31-5.59-31.15c0.54-9.75,3.55-18.87,6.84-27.93c0.97-2.68,2.04-3.09,4.8-2.59
			c0.96,0.18,2.01-0.24,3.02-0.24c2.62,0,5.24-0.04,7.84,0.17C514.32,207.8,515.22,208.53,515.65,208.73z M501.49,209.09
			c-0.46-0.03-0.91-0.07-1.37-0.1c-0.04,1.06-0.13,2.13-0.12,3.19c0.01,4.14,0.14,8.28,0.05,12.42c-0.17,7.46-0.89,14.94-0.6,22.38
			c0.31,8.01,1.48,15.99,2.35,23.97c0.24,2.23,1.79,4.05,2.99,4.35c-0.89-4.2-2.41-8.57-2.65-13.01
			c-0.55-9.98-0.51-19.99-0.62-29.99C501.43,224.56,501.49,216.82,501.49,209.09z"/>
		<path class="vol1_5_st0" d="M673.35,246.72c-1.07,0.59-2.88,0.92-3.44,2.96c-0.09,0.33-2.2,0.49-3.12,0.11
			c-1.56-0.65-2.92-1.78-3.98-2.47c-0.29-1.72-0.34-3.12-0.77-4.38c-3.01-8.72-3.84-17.79-4.58-26.89c-0.27-3.28-0.73-6.54-1-9.82
			c-0.22-2.75-0.21-5.53-0.49-8.27c-0.07-0.68-0.87-1.29-1.33-1.93c-0.4,0.67-1.17,1.37-1.14,2.02c0.31,5.88,0.74,11.76,1.2,17.63
			c0.25,3.19,0.49,6.39,1,9.55c0.94,5.79,2.08,11.56,3.12,17.33c0.02,0.12-0.11,0.27-0.27,0.64c-0.41-0.31-0.83-0.54-1.12-0.87
			c-4.21-4.81-7.03-10.41-8.89-16.46c-1.2-3.9-2.22-7.89-2.95-11.91c-1.32-7.3,1.01-13.81,5.46-19.43c0.95-1.19,3.65-1.08,5.57-1.39
			c1.96-0.31,4.03-0.12,5.92-0.64c6.13-1.69,7.85-1.23,11.19,4.14c1.33,2.14,2.3,4.52,3.24,6.87c1.45,3.65,3.03,7.29,3.99,11.08
			c1.31,5.18,2.28,10.48,1.74,15.88c-0.12,1.17-0.41,2.35-0.83,3.45c-1.54,3.99-3.83,7.52-7.01,11.17c-0.8-4.33-1.42-8.2-2.24-12.02
			c-1.73-8.08-3.48-16.17-5.41-24.21c-0.89-3.69-2.22-7.27-3.38-10.9c-0.18-0.56-0.44-1.14-0.81-1.59c-0.33-0.4-0.85-0.64-1.29-0.95
			c-0.13,0.52-0.47,1.09-0.36,1.55c0.73,3.2,1.6,6.36,2.33,9.56c1.38,6.04,2.78,12.08,4.01,18.15c1.27,6.23,2.29,12.51,3.57,18.73
			C671.5,244.5,672.51,245.42,673.35,246.72z"/>
		<path class="vol1_5_st0" d="M517.38,209.42c6.81,1.77,14.03,7.08,14.87,15.71c0.43,4.43,1.67,8.78,2.4,13.19
			c0.25,1.53,0.24,3.15,0.06,4.69c-0.65,5.54-1.02,11.15-2.27,16.56c-1.04,4.5-3.81,8.36-7.15,12.31c-0.37-1.13-0.71-1.9-0.85-2.7
			c-1.42-7.8-2.95-15.58-4.13-23.41c-0.63-4.2-0.58-8.5-0.94-12.74c-0.65-7.66-1.37-15.31-2.05-22.97
			C517.3,209.85,517.36,209.64,517.38,209.42z"/>
		<path class="vol1_5_st0" d="M653.18,190.48c0.57-1.97,0.8-3.73,1.57-5.2c1.14-2.17,2.52-4.25,4.07-6.15c0.77-0.95,2.07-1.79,3.25-2.02
			c2.11-0.41,4.32-0.27,6.48-0.43c1.59-0.12,2.27,0.66,2.07,2.12c-0.27,1.98-0.7,3.94-1.07,5.9c-0.04,0.21-0.2,0.55-0.32,0.55
			c-2.89,0.2-3.37,3.54-5.93,4.4c-2.64,0.89-5.18,1.24-7.88,0.83C654.99,190.42,654.53,190.48,653.18,190.48z"/>
		<path class="vol1_5_st0" d="M786.16,172.34c-0.63,4.36-1.14,8.17-1.79,11.95c-0.05,0.32-1.3,0.84-1.53,0.67
			c-2.46-1.9-5.28-1.68-8.51-1.29c1.02-3.15,1.84-5.98,2.89-8.72c0.23-0.61,1.22-1.12,1.95-1.3
			C781.19,173.16,783.25,172.87,786.16,172.34z"/>
		<path class="vol1_5_st0" d="M774.52,251.23c0-3.91,0-7.74,0-11.59c2.39-0.4,4.71-0.78,7.49-1.24c-0.03,3.33,0.8,6.91-1,9.99
			C779.84,250.4,777.52,251.58,774.52,251.23z"/>
		<path class="vol1_5_st0" d="M508.51,205.62c-0.28-0.02-0.95-0.1-1.62-0.12c-2.95-0.1-3.73-0.97-3.15-3.8c0.12-0.59,0.86-1.35,1.43-1.48
			c1.88-0.43,3.82-0.61,5.73-0.89c1.6-0.23,2.35,0.72,2.72,2.05c0.2,0.71,0.1,1.49,0.22,2.22c0.23,1.45-0.33,2.1-1.81,2.03
			C510.99,205.58,509.94,205.62,508.51,205.62z"/>
		<path class="vol1_5_st0" d="M510.96,292.06c-1.08-2.86-1.93-4.9-2.58-6.99c-0.13-0.41,0.45-1.48,0.79-1.52c2.3-0.26,4.66-0.62,6.94-0.37
			c1.75,0.19,2.13,1.59,0.92,2.91C515.28,288.04,513.3,289.78,510.96,292.06z"/>
		<path class="vol1_5_st0" d="M506.18,389.16c4.82-0.42,8.02,2.79,11.49,5.27c1.23,0.88,2.21,1.73,3.8,1.18c0.41-0.14,0.91-0.2,1.32-0.1
			c5.2,1.22,10.24-0.24,15.35-0.73c4.49-0.43,8.39-1.96,12.41-3.98c2.68-1.35,6.42-0.98,9.63-0.69c2.01,0.18,2.98,4.54,1.58,6.35
			c-1.09,1.4-2.35,2.77-3.8,3.77c-4.01,2.79-7.08,2.31-10.05-1.65c-1.66-2.22-3.36-3.2-6.06-1.97c-1.21,0.55-2.57,0.81-3.88,1.09
			c-2.79,0.59-4.68,1.74-5.76,4.81c-1.23,3.51-4.7,5.29-7.93,6.88c-1.39,0.68-4.02-1.01-5.1-3.26c-0.82-1.72-1.46-3.6-1.77-5.48
			c-0.29-1.82-0.98-2.27-2.69-1.85c-2.54,0.63-5.09,1.27-7.68,1.6c-2.67,0.34-4.93-0.73-6.15-3.2c-1.07-2.18-1.35-4.68,0.49-6.49
			c1.13-1.11,3-1.46,4.53-2.14C506,388.78,506.09,388.97,506.18,389.16z"/>
		<path class="vol1_5_st0" d="M861.28,405.05c5.8,4.3,11.72,2.92,17.51,0.81c3.81-1.38,7.35-3.47,11.09-5.07c3.55-1.52,4.75-0.86,6.05,2.76
			c0.43,1.2,0.3,2.11-0.85,2.62c-3.73,1.63-4.62,4.32-3.98,8.28c0.44,2.72-0.13,5.65-0.52,8.45c-0.5,3.61-4.52,5.12-7.29,2.68
			c-1.29-1.13-2.39-2.72-3.01-4.32c-1.6-4.14-2.19-4.69-6.77-4.17c-4.21,0.48-8.41,1.16-12.62,1.62c-0.57,0.06-1.54-0.47-1.78-0.99
			c-1.46-3.03-0.35-5.99,0.54-8.91C859.98,407.62,860.62,406.52,861.28,405.05z"/>
		<path class="vol1_5_st0" d="M857.67,384.88c0.27-4.19,0.52-8.1,0.79-12.4c3.41,1.27,5.45,3.5,7.35,5.7c1.72,1.99,3.5,2.5,6.08,2.34
			c4.16-0.25,8.37-0.09,12.52,0.27c2.39,0.21,3.78-0.7,5.02-2.49c1.91-2.76,3.9-5.46,5.87-8.18c0.24-0.34,0.56-0.62,1.15-1.26
			c0.75,1.76,1.62,3.18,1.95,4.72c0.76,3.58,1.21,7.22,1.88,10.82c0.32,1.69-0.23,2.15-1.87,1.93c-4.43-0.59-8.88-1.07-13.32-1.65
			c-0.52-0.07-0.96-0.61-1.49-0.78c-0.66-0.22-1.39-0.42-2.07-0.38c-1.53,0.09-3.04,0.4-4.56,0.51c-4.69,0.32-9.39,0.6-14.08,0.84
			C861.27,384.95,859.64,384.88,857.67,384.88z"/>
		<path class="vol1_5_st0" d="M560.91,366.33c0.18,4.26-0.67,7.54-2.85,10.66c-1.42-3.95-2.47-5.1-4.12-4.69
			c-2.01,0.51-3.29,2.81-2.74,4.94c0.56,2.15,1.91,2.66,5.84,1.96c-1.97,2.5-3.68,4.78-5.53,6.95c-0.42,0.5-1.3,0.86-1.97,0.86
			c-11.3-0.01-22.6-0.09-33.9-0.17c-0.2,0-0.4-0.16-0.61-0.25c3.03-4.06,17.13-9.7,20.59-8.5c-0.17,2.53-0.34,4.97-0.5,7.41
			c0.32,0.11,0.64,0.23,0.96,0.34c0.62-0.83,1.25-1.66,1.92-2.56c4.91,1.74,8.44,0.77,9.37-2.73c0.37-1.41-2.68-6.29-4.74-6.78
			c4.17-1.27,7.56-3.31,11.68-3.04c1.49,0.1,3.35,0.47,3.7-2.1C558.12,367.88,559.62,367.32,560.91,366.33z"/>
		<path class="vol1_5_st0" d="M814.95,386.54c1.51,0.09,2.56-0.26,2.75,1.55c0.23,2.26,1.85,0.76,2.72,0.77c-0.3,1.24-0.63,2.52-0.91,3.81
			c-0.38,1.76,0.27,3.38,1.78,3.98c1.42,0.57,3.19,0.57,4.74,0.35c1.18-0.17,1.59-3.5,0.74-5.06c-0.35-0.65-0.78-1.29-1.3-1.81
			c-0.45-0.46-1.06-0.77-1.61-1.14c0.13-0.2,0.26-0.39,0.4-0.59c3.43,0.15,6.87,0.3,10.95,0.48c0,1.43-0.22,2.95,0.06,4.37
			c0.32,1.61,0.75,3.43,1.77,4.62c1.04,1.22,2.63,0.44,3.34-0.88c1.26-2.37,2.47-4.83,1.05-7.84c3.51-1.32,6.97-2.61,10.74-4.03
			c-0.13,1.24-0.06,2.73-0.48,4.05c-1.1,3.43-2.32,6.84-3.73,10.15c-0.29,0.67-1.69,1.29-2.53,1.22c-4.84-0.36-9.65-1.04-14.48-1.4
			c-4.24-0.32-8.51-0.51-12.76-0.48c-1.82,0.01-2.5-0.83-2.63-2.26C815.27,393.24,815.15,390.05,814.95,386.54z"/>
		<path class="vol1_5_st0" d="M485.68,384.75c-0.99,0.6-1.63,0.79-1.94,1.22c-0.58,0.82-1.25,1.75-1.37,2.7c-0.2,1.61-0.03,3.27,0.03,4.91
			c0.08,2.06-0.83,3.41-2.5,4.65c-3.66,2.72-5.68,0.35-6.13-3.01c-0.29-2.16,0.21-4.43,0.34-6.66c0.04-0.71,0.01-1.42-0.52-2.55
			c-0.98,0.78-2.17,1.4-2.88,2.38c-1.33,1.82-3.1,2.48-5.06,1.91c-1.92-0.56-2.89-2.26-3.13-4.27c-0.27-2.22,1.38-4.29,3.61-4.09
			c5.48,0.49,10.95,1.18,16.41,1.84C483.45,383.89,484.31,384.31,485.68,384.75z"/>
		<path class="vol1_5_st0" d="M828.39,422.72c-3.52-2.29-0.8-6.61-4.01-8.81c3.78-1.34,7.15-2.4,10.42-3.72c3.03-1.23,5.94-2.77,8.94-4.08
			c1.54-0.68,3.14-1.53,4.67,0.22c0.4,0.45,1.16,0.59,1.5,0.75c-0.21,3.2-0.29,6.24-0.65,9.25c-0.17,1.42-0.75,2.83-1.4,4.12
			c-0.28,0.56-1.29,1.2-1.82,1.09c-0.74-0.15-1.73-0.88-1.9-1.54c-0.32-1.24-0.35-2.65-0.1-3.92c0.3-1.51-0.07-2.7-1.54-2.52
			c-4.27,0.55-8.62,1.15-11.74,4.65c-0.52,0.58-0.74,1.42-1.11,2.14C829.24,421.1,828.85,421.84,828.39,422.72z"/>
		<path class="vol1_5_st0" d="M842.56,403.74c-5.81,3.29-11.29,6.49-17.7,7.46c-4.41,0.66-9.16-3.85-8.43-8.25
			c0.09-0.56,1.35-1.32,2.06-1.32c2,0.02,4.01,0.4,5.79,0.61c0.94,1.62,1.74,3.14,2.72,4.52c0.18,0.25,1.26,0.1,1.74-0.19
			c0.62-0.36,1.14-0.99,1.55-1.6c1.46-2.2,3.46-2.68,5.94-2.17C838.23,403.22,840.27,403.41,842.56,403.74z"/>
		<path class="vol1_5_st0" d="M519.67,374.47c-0.37,1.12-0.69,2.09-1.01,3.06c0.19,0.12,0.39,0.24,0.58,0.36c0.92-0.38,1.84-0.76,3.03-1.25
			c-0.15,0.6-0.12,1.16-0.36,1.32c-3.39,2.25-6.71,4.64-10.27,6.57c-1.61,0.88-3.71,0.98-5.61,1.19c-2.33,0.26-5.43-1.81-6.08-4.02
			c-0.15-0.51,0.23-1.65,0.59-1.76c6.26-1.92,12.55-3.72,18.84-5.54C519.5,374.37,519.66,374.47,519.67,374.47z"/>
		<path class="vol1_5_st0" d="M495.78,365.14c3.89,1.45,8.04,2.46,11.61,4.48c4.16,2.36,7.77,2.49,11.88,0.15
			c4.71-2.69,9.79-4.42,15.33-4.34c0.71,0.01,1.41,0.09,2.14,0.47c-2.24,0.76-4.45,1.59-6.72,2.25c-6.3,1.82-12.68,3.37-18.9,5.42
			c-3.41,1.13-5.85-0.8-8.7-1.59c-0.82-0.23-1.74-0.11-2.62-0.15c0.06,0.91-0.07,1.9,0.24,2.73c0.39,1.07,1.33,2.14-0.54,2.54
			c-0.57,0.12-1.74-0.33-1.86-0.75c-1.03-3.46-1.87-6.97-2.77-10.47C495.17,365.64,495.47,365.39,495.78,365.14z"/>
		<path class="vol1_5_st0" d="M551.99,347.02c1.55,3.29,3.07,6.38,4.48,9.53c0.64,1.42,1.11,2.92,1.53,4.43c0.13,0.47-0.14,1.06-0.23,1.6
			c-0.56-0.23-1.27-0.31-1.66-0.71c-1.36-1.38-2.59-2.88-3.9-4.3c-1.27-1.37-2.45-1.27-3.4,0.38c-0.71,1.23-1.74,2.42-1.98,3.74
			c-0.51,2.84-2.25,3.13-4.53,2.84C541.83,362.11,547.96,350.8,551.99,347.02z"/>
		<path class="vol1_5_st0" d="M556.93,366.17c-3.91,1.35-7.37,2.56-10.85,3.74c-4.09,1.39-8.19,2.73-12.27,4.13c-2.04,0.7-4.04,1-6.04-0.13
			c1.41-3.04,4.3-4.34,7.62-3.79c0.9,0.15,1.97-0.43,2.9-0.82c0.6-0.25,1.05-1.02,1.63-1.12c5.29-0.88,10.59-1.67,15.89-2.47
			C555.99,365.68,556.2,365.86,556.93,366.17z"/>
		<path class="vol1_5_st0" d="M892.08,392.96c-2.42-0.34-4.95-0.36-7.24-1.1c-1.99-0.64-3.74-2.06-5.56-3.21
			c-0.19-0.12-0.25-0.83-0.09-1.01c0.3-0.33,0.82-0.66,1.24-0.64c3.12,0.14,6.25,0.29,9.37,0.6c2.36,0.23,4.7,0.68,7.04,1.08
			c0.48,0.08,1.26,0.29,1.32,0.55c0.1,0.48-0.11,1.17-0.43,1.57C896.28,392.62,894.31,393.09,892.08,392.96z"/>
		<path class="vol1_5_st0" d="M517.49,390.05c9.01,0,17.98,0,27.37,0C540.2,393.9,520.96,393.62,517.49,390.05z"/>
		<path class="vol1_5_st0" d="M869.79,404.76c1.09-0.23,2.22-0.34,3.24-0.73c0.6-0.23,1.03-0.89,1.54-1.36c-0.59-0.29-1.18-0.59-1.78-0.87
			c-0.19-0.09-0.42-0.12-0.38-0.11c0-2.35-0.12-4.6,0.08-6.83c0.06-0.66,0.97-1.69,1.58-1.76c1.51-0.16,3.07,0.14,4.46,0.24
			c-0.31,3.42-0.59,6.62-0.95,10.56c-2.1,0.37-4.88,0.87-7.65,1.36C869.88,405.1,869.84,404.93,869.79,404.76z"/>
		<path class="vol1_5_st0" d="M497.78,384.3c-1.01-0.33-1.77-0.58-2.53-0.84c-1.69-0.6-4.3-0.75-4.87-1.91c-1.14-2.32-1.1-5.17,0.61-7.59
			c0.63-0.89,1.15-1.85,1.73-2.77c0.46,0.99,0.99,1.95,1.37,2.97C495.31,377.43,496.48,380.71,497.78,384.3z"/>
		<path class="vol1_5_st0" d="M864.63,393.85c0.8,0.72,1.6,1.45,2.55,2.31c0.19,1.44,0.42,3.25,0.66,5.08c-4.75,1.26-7.95-0.59-9.22-5.58
			c-0.09-0.37,0.34-1.21,0.67-1.3c1.86-0.48,3.76-0.8,5.65-1.18C864.84,393.4,864.74,393.63,864.63,393.85z"/>
		<path class="vol1_5_st0" d="M841.65,385.67c1.24-2.42,2.49-4.8,3.68-7.2c0.55-1.11,3.38-1.74,4.98-0.91c1.59,0.82,1.06,2.26,0.45,3.3
			C848.51,384.67,846.39,385.9,841.65,385.67z"/>
		<path class="vol1_5_st0" d="M823.91,380.19c-2.93,0.62-5.14,1.09-7.91,1.67c0.24-3.13,0.44-5.77,0.64-8.41c0.32-0.1,0.65-0.2,0.97-0.3
			C819.55,375.31,821.48,377.48,823.91,380.19z"/>
		<path class="vol1_5_st0" d="M882.66,401.35c0-2.53,0-4.51,0-6.77c1.89,0.5,3.75,1.34,5.63,1.38c1.79,0.04,3.61-0.76,5.53-0.83
			C890.83,398.87,885.96,398.7,882.66,401.35z"/>
		<path class="vol1_5_st0" d="M868.62,387.11c0.71,2.36-0.8,3.07-2.35,3.35c-2.34,0.44-4.73,0.63-7.11,0.75c-0.57,0.03-1.58-0.6-1.67-1.07
			c-0.19-0.93-0.23-2.17,1.33-2.28C862.08,387.62,865.34,387.36,868.62,387.11z"/>
		<path class="vol1_5_st0" d="M495.64,388c-1.09,1.28-2.1,2.65-3.32,3.8c-0.51,0.48-1.6,0.85-2.15,0.62c-0.57-0.24-1.18-1.33-1.1-1.95
			c0.18-1.41,0.54-3.76,1.27-3.94c1.6-0.4,3.47,0.32,5.23,0.57C495.58,387.41,495.61,387.71,495.64,388z"/>
		<path class="vol1_5_st0" d="M490.16,367.26c0.6,3.05-3.63,5.3-8.44,4.49C482.05,370.01,482.05,370.01,490.16,367.26z"/>
		<path class="vol1_5_st0" d="M840.58,380.41c-1.21,3.46-4.22,5.03-6.77,4.17c-0.54-0.18-0.93-0.81-1.38-1.23
			c0.44-0.31,0.85-0.75,1.34-0.91C836.02,381.72,838.3,381.08,840.58,380.41z"/>
		<path class="vol1_5_st0" d="M853.86,392.17c1.28,2.21,2.59,3.89,0.09,5.69c-0.59,0.42-0.7,1.46-1.18,2.1c-0.29,0.4-0.85,0.6-1.3,0.89
			c-0.15-0.5-0.54-1.08-0.4-1.48C851.87,397.08,852.81,394.84,853.86,392.17z"/>
		<path class="vol1_5_st0" d="M478.92,373c-1.12,1.07-2.18,2.23-3.41,3.15c-0.3,0.23-1.19-0.32-1.8-0.51c0.42-1.14,0.53-2.72,1.35-3.3
			c0.8-0.57,2.33-0.12,3.53-0.12C478.7,372.47,478.81,372.73,478.92,373z"/>
		<path class="vol1_5_st0" d="M850.47,374.67c-1.65,0-2.78,0-4.19,0c0.57-1.96,1.09-3.74,1.61-5.52c0.28-0.03,0.55-0.07,0.83-0.1
			C849.27,370.81,849.82,372.58,850.47,374.67z"/>
		<path class="vol1_5_st0" d="M485.68,377.83c-1.74,1.04-2.92,1.75-4.1,2.46c-0.21-0.2-0.43-0.39-0.64-0.59c0.65-1.23,1.29-2.46,1.94-3.68
			C483.63,376.51,484.38,376.99,485.68,377.83z"/>
		<path class="vol1_5_st0" d="M548.65,363.56c0.62-1.46,1.06-2.51,1.72-4.06c1.1,1.18,1.88,2.02,3.04,3.26
			C551.55,363.07,550.3,363.28,548.65,363.56z"/>
		<path class="vol1_5_st0" d="M828.69,382.18c-0.97,0.8-1.97,1.57-2.89,2.43c-0.12,0.11,0.14,0.64,0.23,0.99
			c-1.51,0.13-1.51,0.13-1.17-3.31c1.09-0.27,2.2-0.55,3.31-0.83C828.34,381.7,828.52,381.94,828.69,382.18z"/>
		<path class="vol1_5_st0" d="M815.76,409.6c-2.9-0.7-2.91-2.65-2.65-5.2C814.06,406.28,814.84,407.79,815.76,409.6z"/>
		<path class="vol1_5_st0" d="M854.8,400.57c0.5-0.69,1-1.38,1.64-2.27c0.58,0.87,1.01,1.51,1.7,2.54c-1.21,0.13-2.13,0.22-3.04,0.32
			C855.01,400.96,854.9,400.76,854.8,400.57z"/>
		<path class="vol1_5_st0" d="M865.83,547.5c1.5,0.49,2.69,0.88,3.88,1.28c-0.4,0.89-0.82,2.54-1.18,2.53
			C866.68,551.24,866.07,549.81,865.83,547.5z"/>
		<path class="vol1_5_st0" d="M711.09,608.41c1.5-0.97,2.28-1.77,3.16-1.92c0.48-0.08,1.72,1.27,1.62,1.45c-0.51,0.96-1.23,1.91-2.12,2.5
			C713.52,610.59,712.43,609.45,711.09,608.41z"/>
		<path d="M501.49,209.09c0,7.74-0.07,15.47,0.02,23.21c0.11,10,0.07,20.01,0.62,29.99c0.24,4.44,1.76,8.81,2.65,13.01
			c-1.2-0.3-2.74-2.12-2.99-4.35c-0.87-7.98-2.04-15.96-2.35-23.97c-0.29-7.44,0.43-14.91,0.6-22.38c0.09-4.14-0.04-8.28-0.05-12.42
			c0-1.06,0.08-2.13,0.12-3.19C500.58,209.02,501.04,209.05,501.49,209.09z"/>
	</g>
</g>
</svg>
