<?xml version="1.0" encoding="utf-8"?>
<!-- Generator: Adobe Illustrator 26.3.1, SVG Export Plug-In . SVG Version: 6.00 Build 0)  -->
<svg version="1.1" xmlns="http://www.w3.org/2000/svg" xmlns:xlink="http://www.w3.org/1999/xlink" x="0px" y="0px"
	 viewBox="0 0 1366 768" style="enable-background:new 0 0 1366 768;" xml:space="preserve">
<style type="text/css">
	.vol1_cover_st0{fill:#FFFFFF;}
	.vol1_cover_st1{fill:none;stroke:#000000;stroke-width:36.8504;stroke-miterlimit:10;}
</style>
<g id="base">
	<g id="XMLID_00000003792108730849831490000004222541008162105019_">
		<g>
			<path class="vol1_cover_st0" d="M837.55,205.8c0,128.45,0,256.9,0,385.35c-104.42,0-208.83,0-313.25,0c0-128.45,0-256.9,0-385.35
				C628.72,205.8,733.13,205.8,837.55,205.8z M826.68,288.67c0.25-2.13,0.77-4.43,0.73-6.73c-0.1-5.88-0.34-11.76-0.75-17.63
				c-0.2-2.96-0.93-5.89-1.34-8.84c-0.87-6.16-1.7-12.32-2.51-18.49c-0.23-1.68-0.75-2.81-2.74-3.2c-3.24-0.63-6.41-1.68-9.61-2.52
				c-1.74-0.46-3.48-1.04-5.25-1.23c-5.61-0.59-11.22-1.05-16.84-1.52c-6.3-0.52-12.61-1.12-18.93-1.46
				c-6.99-0.38-13.95-0.97-20.8-2.47c-6.88-1.5-13.87-1.72-20.86-1.84c-6-0.09-11.95-0.42-17.89-1.27
				c-6.06-0.87-12.13-1.82-18.23-2.3c-7.85-0.61-15.74-1.08-23.61-1.09c-7.64-0.02-15.29,0.58-22.94,0.96
				c-2.53,0.13-5.05,0.46-7.58,0.6c-4.35,0.24-8.72,0.29-13.06,0.62c-8.22,0.61-16.42,1.63-24.69,0.98
				c-0.75-0.06-1.51,0.14-2.26,0.2c-1.15,0.11-2.31,0.26-3.47,0.28c-4.99,0.1-9.98,0.11-14.97,0.23
				c-5.82,0.14-11.64,0.33-17.46,0.57c-5.72,0.25-11.44,0.53-17.15,0.92c-1.99,0.14-3.94,0.69-6.04,1.07
				c-0.13-0.72-0.25-1.51-0.44-2.29c-0.17-0.73-0.29-1.51-0.65-2.15c-0.35-0.62-0.97-1.09-1.38-1.53c0.42,1.78,0.87,3.45,1.2,5.15
				c0.19,0.95,0.14,1.95,0.27,2.91c0.38,2.92,1.1,5.82,1.15,8.74c0.1,5.57-0.3,11.15-0.25,16.72c0.08,8.89,0.3,17.79,0.57,26.67
				c0.19,6.41,0.48,12.81,0.85,19.2c0.37,6.44,0.87,12.87,1.34,19.31c0.26,3.54,0.52,7.08,0.91,10.61
				c0.61,5.35,1.47,10.68,1.97,16.04c0.59,6.42,0.88,12.86,1.36,19.29c0.48,6.48,1.04,12.96,1.57,19.45
				c0.08,1.01,0.17,2.02,0.25,3.03c0.23-0.01,0.45-0.02,0.68-0.03c0-1.99,0.11-3.99-0.02-5.97c-0.49-6.97-1.07-13.94-1.59-20.9
				c-0.28-3.66-0.43-7.32-0.78-10.97c-0.72-7.41-1.61-14.81-2.28-22.23c-0.53-5.85-0.82-11.73-1.25-17.6
				c-0.56-7.65-1.37-15.3-1.71-22.97c-0.39-9.02-0.44-18.05-0.55-27.09c-0.06-5.76,0.12-11.53,0.01-17.3
				c-0.07-4.11-0.32-8.23-0.74-12.31c-0.27-2.65-0.3-3.02,2.33-3.24c6.65-0.56,13.26-1.63,20-1.27c4.45,0.23,8.94-0.37,13.42-0.46
				c8.49-0.18,17-0.17,25.49-0.42c6.63-0.2,13.25-0.68,19.86-1.05c3.2-0.18,6.38-0.41,9.57-0.62c5.33-0.36,10.66-0.8,15.99-1.09
				c5.83-0.31,11.66-0.61,17.49-0.7c7.38-0.11,14.76-0.09,22.13,0.08c3.64,0.08,7.28,0.6,10.91,0.99c3.17,0.34,6.4,0.49,9.49,1.21
				c4.94,1.16,9.92,1.61,14.95,1.82c6.57,0.28,13.14,0.48,19.71,0.83c2.48,0.14,4.95,0.56,7.4,0.96c3.64,0.58,7.25,1.39,10.9,1.83
				c3.86,0.48,7.75,0.6,11.62,0.94c5.5,0.48,10.98,1.29,16.48,1.44c6.62,0.19,13.2,0.55,19.67,1.91c4.69,0.99,9.32,2.22,13.95,3.43
				c0.55,0.14,1.2,0.77,1.37,1.31c0.46,1.49,0.78,3.04,1,4.59c1.03,7.11,2.11,14.23,2.95,21.37c0.56,4.78,0.85,9.6,1.05,14.41
				C826.82,280.67,826.68,284.79,826.68,288.67z M826.63,291.93c-0.18-0.03-0.36-0.06-0.53-0.09c-0.53,3.28-1.04,6.56-1.6,9.84
				c-0.76,4.39-1.6,8.77-2.32,13.17c-0.65,3.94-1.18,7.91-1.75,11.87c-0.94,6.48-1.89,12.97-2.8,19.45
				c-0.63,4.47-1.22,8.95-1.81,13.43c-0.55,4.24-1.11,8.49-1.61,12.75c-0.03,0.26,0.39,0.56,0.61,0.85v0.01
				c-0.11,0.25-0.26,0.51-0.38,0.76c-0.13,0.26-0.24,0.52-0.27,0.79c-0.27,2.75-0.46,5.5-0.69,8.26c-0.22,2.55-0.48,5.09-0.66,7.64
				c-0.18,2.63-0.3,5.27-0.42,7.91c-0.01,0.33,0.17,0.67,0.26,1c0.37-0.58,0.48-1.13,0.52-1.69c0.24-3.36,0.47-6.72,0.69-10.09
				c0.32-4.85,0.63-9.71,0.95-14.56c0-0.01,0.01-0.01,0.01-0.02c0,0,0-0.01-0.01-0.01c0.14-0.57,0.36-1.12,0.42-1.7
				c0.34-3.28,0.58-6.57,0.98-9.85c0.68-5.69,1.36-11.38,2.22-17.05c1.24-8.21,2.7-16.38,3.96-24.59
				c1.07-6.97,1.96-13.97,2.97-20.94C825.72,296.68,826.2,294.31,826.63,291.93z M820.13,469.82c1.1-4.89,1.12-9.59-1.34-14.15
				c-1.25-2.31-2.19-4.78-3.27-7.18c-0.23,0.07-0.45,0.14-0.67,0.21c0.68,1.88,1.16,3.86,2.09,5.6c2.47,4.65,3.4,9.45,2.16,14.63
				c-0.42,1.79-0.81,3.61-1.12,5.43c-0.85,5.09-1.85,10.17-2.4,15.3c-0.51,4.65-0.54,9.36-0.68,14.05
				c-0.04,1.17,0.15,2.43,1.26,3.02c-0.24-1.22-0.73-2.38-0.65-3.49c0.45-6.15,0.82-12.31,1.64-18.41
				C817.83,479.78,819.01,474.8,820.13,469.82z M817.76,327.62c0-0.17,0.01-0.34,0.01-0.52c-0.76-0.15-1.51-0.4-2.28-0.44
				c-2.5-0.11-5-0.2-7.5-0.19c-3.36,0.01-6.71,0.04-10.06,0.22c-3.76,0.2-7.52,0.55-11.28,0.86c-0.95,0.08-1.9,0.28-2.85,0.42
				c0.03,0.12,0.05,0.24,0.08,0.36c1.43,0,2.86,0,4.79,0c-0.67,0.48-0.92,0.73-1.22,0.86c-3.26,1.37-6.48,2.85-9.8,4.05
				c-3.62,1.31-7.37,1.58-11.15,0.62c-2.4-0.6-4.79-1.32-7.22-1.76c-3.02-0.55-6.08-0.81-9.11-1.3c-3.74-0.6-7.44-0.41-11.16,0.22
				c0.9,0.28,1.8,0.36,2.7,0.42c3.99,0.26,7.98,0.5,11.97,0.76c1.1,0.08,2.22,0.07,3.29,0.31c2.68,0.59,5.34,1.3,8.01,1.95
				c1.11,0.27,2.23,0.59,3.36,0.73c5.43,0.7,10.27-1.17,15.04-3.46c2.43-1.18,4.9-2.54,7.51-3.05c8.37-1.65,16.87-1.44,25.35-0.9
				C816.74,327.81,817.25,327.68,817.76,327.62z M817.64,540.38c0.02-1.61,0.14-3.38-0.45-4.8c-1.59-3.79-2.02-7.71-2-11.73
				c0.02-4.89-0.93-9.64-2.02-14.38c-0.08-0.32-0.47-0.58-0.92-1.11c0.64,4.75,1.59,9.05,1.72,13.39c0.16,5.42,0.85,10.7,2.04,15.98
				c0.86,3.86,1.07,7.8,0.59,11.78c-0.3,2.58-0.06,5.22-0.07,7.83c0,1.36,0,2.73,0,4.09c0.17,0,0.34,0,0.51,0
				c0.03-0.54,0.08-1.09,0.09-1.64c0.05-2.93,0.06-5.87,0.14-8.8C817.37,547.45,817.59,543.92,817.64,540.38z M812.42,421.59
				c0-6.24,0-12.48,0-18.72c-0.13,0-0.26,0-0.39,0c0,6.24,0,12.48,0,18.71C812.16,421.59,812.29,421.59,812.42,421.59z
				 M810.29,363.61c-0.02-0.19-0.04-0.37-0.06-0.55c-0.37-0.06-0.74-0.15-1.11-0.17c-3.48-0.2-6.96-0.44-10.45-0.57
				c-6.75-0.25-13.51-0.64-20.26-0.6c-7.44,0.05-14.87,0.68-22.31,0.73c-4.21,0.03-8.42-0.59-12.63-0.93
				c-5.6-0.46-11.2-1.02-16.81-1.36c-4.4-0.27-8.83-0.19-13.24-0.4c-4.68-0.23-9.35-0.62-14.03-0.94c-3.18-0.21-6.37-0.35-9.54-0.65
				c-5.78-0.57-11.53-1.32-17.31-1.82c-3.87-0.34-7.77-0.37-11.66-0.55c-3.78-0.17-7.56-0.42-11.35-0.5
				c-2.52-0.05-5.04,0.21-7.56,0.24c-4.29,0.06-8.59-0.04-12.88,0.08c-5.69,0.16-11.37,0.43-17.05,0.71
				c-5.16,0.25-10.31,0.56-15.46,0.87c-9.05,0.53-18.11,1-27.16,1.65c-5.51,0.39-11,1.05-16.49,1.65c-0.99,0.11-1.96,0.49-2.94,0.74
				c-0.01,0.2-0.01,0.39-0.02,0.59c0.41,0.14,0.84,0.44,1.24,0.41c2.13-0.15,4.28-0.31,6.4-0.6c5.25-0.71,10.48-1.77,15.75-2.2
				c8.17-0.67,16.36-0.91,24.54-1.38c3.29-0.19,6.58-0.53,9.87-0.7c2.99-0.15,6-0.11,8.99-0.21c3.35-0.12,6.69-0.36,10.04-0.46
				c7.9-0.24,15.8-0.42,23.69-0.63c1.48-0.04,2.87,0.42,4.48,0.02c1.6-0.4,3.47,0.41,5.24,0.56c5.55,0.46,11.11,0.84,16.67,1.3
				c7.21,0.6,14.42,1.29,21.63,1.86c6.6,0.53,13.2,1.03,19.81,1.4c3.59,0.2,7.2-0.07,10.78,0.17c5.67,0.39,11.31,1.11,16.97,1.53
				c5.67,0.43,11.35,0.91,17.03,0.9c6.97-0.01,13.93-0.57,20.9-0.77c3.3-0.09,6.6,0.02,9.89,0.17c4.58,0.21,9.16,0.58,13.74,0.8
				C808.51,364.05,809.4,363.75,810.29,363.61z M807.59,442.24c1.44-3.95-2.65-7.62-5.48-7.25c-4.71,0.62-8.66,2.87-11.8,6.18
				c-3.41,3.61-6.28,7.73-9.46,11.57c-1.28,1.55-2.7,3.01-4.17,4.4c-0.43,0.4-1.24,0.63-1.85,0.58c-4.79-0.42-9.57-1.06-14.37-1.36
				c-3.4-0.21-6.84,0.02-10.26,0.04c-6.35,0.04-12.7-0.07-19.04,0.15c-5.99,0.2-11.96,0.86-17.95,1.11
				c-4.58,0.19-9.17,0.04-13.29,0.04c1.85-3.64,3.92-7.71,5.97-11.77c1.82-3.58,2.18-7.54,3.05-11.38
				c1.03-4.55,0.87-9.02-0.01-13.49c-0.66-3.38-1.23-6.75-1.14-10.18c0.1-4.18,0.42-8.36,0.59-12.55c0.06-1.53-0.59-1.91-1.89-1.13
				c-4.97,3.03-9.96,6.02-14.84,9.17c-1.46,0.94-2.8,1.19-4.43,0.88c-3.19-0.61-6.39-1.32-9.62-1.64c-4.04-0.4-8.11-0.51-12.17-0.62
				c-3.48-0.09-6.97-0.01-10.46,0.01c-2.84,0.02-5.69,0.18-8.54,0.06c-2.87-0.11-6.21,1.32-7.32,3.38
				c-1.95-1.22-3.84-2.56-5.87-3.67c-5.9-3.23-11.85-6.4-17.81-9.53c-0.87-0.45-1.9-0.57-2.92-0.86c-0.66,3-1.34,5.64-1.83,8.31
				c-1.03,5.68-1.52,11.39-0.17,17.11c0.22,0.93,0.64,2.1,0.29,2.84c-1.12,2.4-2.52,4.66-3.88,6.94c-2.23,3.74-2.53,7.73-0.5,11.44
				c2.69,4.93,5.92,9.56,8.87,14.23c-1.88,2.87-4.02,5.86-5.82,9.04c-0.76,1.34-0.99,3.08-1.11,4.66c-0.16,2.03,0.56,2.87,2.57,2.96
				c3.31,0.15,6.48-0.67,9.12-2.66c2.1-1.57,3.87-3.58,5.91-5.52c0.02,0,0.05,0.01,0.07,0.02c7.33,3.99,15.09,6.54,23.46,7.02
				c6.89,0.4,13.78,0.92,20.68,0.94c3.95,0.02,7.91-0.83,11.99-1.3c0.05,0.23,0.18,0.67,0.21,1.11c0.35,5.03,3.67,9.27,8.46,10.57
				c4.43,1.2,8.91,2.19,13.31,3.46c2.34,0.68,4.65,1.65,5.96,3.8c-1.47,1.27-2.76,2.5-4.16,3.59c-2.28,1.75-4.46,3.74-7,4.98
				c-1.94,0.96-4.37,0.91-6.53,1.3c-0.26,0.67-0.48,1.31-0.76,1.93c-1.27,2.78,0.05,7.88,3.76,9.14c4.29,1.46,10.38-0.37,13.24-3.95
				c1.41-1.79,3.08-3.38,4.63-5.05c0.19,0.01,0.38,0.03,0.56,0.05c0.55,2.58,1.14,5.14,1.65,7.73c0.49,2.5,2.65,5.11,4.66,5.34
				c1.47,0.16,2.96,0.29,4.43,0.21c3.64-0.2,6.88-1.46,8.21-5.1c1.89-5.16,3.21-10.48,1.92-16.07c-0.16-0.69-0.12-1.42-0.17-2.07
				c3.48,0.34,6.7,0.74,9.93,0.97c3.61,0.25,7.23,0.22,10.82,0.58c1.04,0.11,2.53,0.2,2.9,1.91c0.92,4.22,0.18,8.37-0.6,12.44
				c-0.71,3.68,0.49,6.58,2.5,9.39c0.22,0.3,0.59,0.59,0.94,0.68c2.52,0.65,5.09,0.82,7.48-0.32c5.96-2.86,9.61-7.75,11.84-13.85
				c1.06-2.91,2.29-5.77,3.45-8.65c0.16,0.01,0.32,0.02,0.48,0.03c0.28,0.6,0.64,1.18,0.81,1.81c0.73,2.57,1.29,5.18,2.11,7.72
				c0.96,2.96,2.25,5.81,5.17,7.4c2.68,1.46,7.46,0.83,7.77-3.68c0.18-2.53-0.28-5.25-1.11-7.66c-1.89-5.46-6.45-8.68-11.02-11.75
				c-1.08-0.72-1.52-1.38-1.24-2.69c0.37-1.69,0.4-3.46,0.8-5.14c1-4.17,0.61-8.33-0.84-12.18c-1.07-2.84-0.45-4.41,1.86-5.84
				c0.64-0.39,1.13-1.01,1.76-1.43c1.37-0.91,2.77-1.76,3.8-2.41c1.22-1.29,2.08-2.49,3.2-3.33
				C801.95,451.91,805.6,447.72,807.59,442.24z M794.49,348.4c1.03-0.92,1.2-2.05,0.41-3.8c-0.19-0.42-0.83-0.63-1.55-1.14
				C793.22,347.16,793.22,347.16,794.49,348.4z M787.98,434.21c-0.23-0.08-0.46-0.15-0.69-0.22c-3.76,3.09-7.52,6.17-11.23,9.3
				c-0.31,0.26-0.27,0.93-0.4,1.4c0.44-0.1,0.97-0.08,1.3-0.33c1.75-1.33,3.46-2.71,5.16-4.1c1.8-1.46,3.6-2.91,5.32-4.46
				C787.8,435.47,787.81,434.75,787.98,434.21z M783.85,432.91c-4.93-0.48-9.08,1.27-12.36,4.78c-3.48,3.72-4.92,7.03-4.13,8.98
				C770.86,439.54,775.72,434.25,783.85,432.91z M782.36,350.19c0.3-0.16,0.54-0.4,1.18-0.89c-1.11,0.15-1.65,0.22-2.05,0.27
				c-0.96-1.56,0.28-3.84-2.23-4.9c-0.11,0.65-0.28,1.16-0.26,1.67c0.02,0.87,0.09,1.74,0.24,2.59c0.15,0.84,0.4,1.66,0.61,2.49
				C780.69,351.01,781.54,350.62,782.36,350.19z M772.21,346.76c-0.23-1.36-0.42-2.73-0.73-4.06c-0.1-0.41-0.56-0.72-1.05-1.31
				c-0.38,0.6-0.84,1.01-0.77,1.26c0.38,1.26,0.84,2.49,1.4,3.68C771.18,346.59,771.81,346.62,772.21,346.76z M768.05,344.94
				c1.47-1.91,0.49-3.69-1.91-4.09c-0.39-0.06-0.77-0.22-1.01-0.29c-0.18-0.65-0.33-1.19-0.48-1.73c-0.36,0.36-0.7,0.75-1.1,1.06
				c-0.66,0.52-1.32,1.06-2.05,1.45c-2.21,1.17-4.46,2.26-6.7,3.38c0.12,0.3,0.24,0.6,0.35,0.9c2.54-0.11,4.18-2.16,6.51-3.15
				c-1.4,2.14-2.81,4.29-4.21,6.44c0.18,0.21,0.37,0.41,0.56,0.62c0.55-0.37,1.26-0.63,1.64-1.14c1.38-1.85,2.62-3.81,3.98-5.68
				c0.85-1.18,2.16-1.28,3.2-0.56c0.29,0.19-0.04,1.93-0.57,2.56c-2.47,2.97-5.11,5.81-7.85,8.89c-0.5-0.9-0.75-1.37-1.21-2.2
				c-0.27,1.16-0.53,1.92-0.59,2.7c-0.04,0.45,0.25,0.92,0.39,1.38c0.51-0.16,1.1-0.21,1.51-0.51c0.93-0.68,1.85-1.4,2.63-2.24
				C763.5,350.18,765.93,347.68,768.05,344.94z M738.33,352.67c3.23-0.48,6.71-4.78,6.2-7.44c-0.12-0.61-1.1-1.48-1.7-1.49
				c-2.93-0.03-5.18,1.65-7.31,3.52c1.03,0.02,1.97-0.21,2.86-0.58c1.11-0.46,2.15-1.08,3.26-1.55c0.3-0.13,0.76-0.06,1.08,0.08
				c0.11,0.05,0.1,0.67-0.05,0.92c-1.02,1.66-2.09,3.3-3.16,4.94C739.2,351.54,738.84,351.98,738.33,352.67z M741.75,578.53
				c0-0.1,0-0.21,0-0.32c-2.06,0-4.13,0-6.2,0c0,0.11,0,0.22,0,0.32C737.62,578.53,739.68,578.53,741.75,578.53z M738.17,337.11
				c0.99,2.24,2.3,2.92,3.73,1.54c-1.19-0.75-2.3-1.45-3.4-2.14C738.39,336.71,738.28,336.91,738.17,337.11z M734.62,331.26
				c0-0.12,0.01-0.24,0.01-0.36c-2.55,0-5.1,0-7.64,0c0,0.12,0,0.24,0,0.36C729.54,331.26,732.08,331.26,734.62,331.26z
				 M719.76,348.77c0.33-0.27,0.42-0.84,0.62-1.28c-3.45,1.33-6.07,1.42-7.73,0.11c1.62-3.67,4.99-6.53,5.37-10.77
				c-0.23-0.1-0.46-0.21-0.69-0.31c-0.3,0.57-0.58,1.16-0.91,1.72c-1.68,2.89-3.44,5.74-5.03,8.68c-0.31,0.58-0.27,1.87,0.14,2.21
				C712.8,350.2,718.47,349.85,719.76,348.77z M711.61,342.91c0.09,0.18,0.85,0.02,1.61,0.02c-1.06-1.9-1.9-3.41-2.75-4.93
				c-0.27,0.12-0.54,0.24-0.82,0.36C710.29,339.88,710.89,341.43,711.61,342.91z M708.45,567.91c0.22,0.08,0.51-0.06,1.08-0.15
				c-0.6-0.5-0.93-0.96-1.37-1.11c-2.12-0.73-4.25-1.46-6.42-2.02c-1.44-0.38-2.95-0.5-4.44-0.73c-0.03-0.03-0.07-0.05-0.1-0.07
				c-0.04,0-0.07,0-0.11,0c-0.38-0.27-0.76-0.71-1.13-0.69c-4.97,0.14-9.94,0.36-14.91,0.56c3.84,0.21,7.66,0.21,11.49,0.2
				c1.51,0,3.03-0.05,4.55-0.07c0.02,0.02,0.05,0.04,0.07,0.05c0.05,0.01,0.09,0.01,0.14,0.02c0.23,0.16,0.46,0.35,0.72,0.45
				C701.49,565.55,704.96,566.74,708.45,567.91z M697.82,349.27c1.64-0.19,3.01-1.43,3.16-3.05c-0.65,0.45-1.15,0.78-1.64,1.12
				c-1.76,1.22-2.73,1.01-3.99-0.71c-1.03-1.41-2.18-2.74-3.32-4.16c1.17-1.71,3.38-2.96,3.83-5.8c-0.61,0.34-0.99,0.43-1.17,0.66
				c-2.78,3.56-5.56,7.11-8.26,10.73c-0.29,0.38-0.08,1.14-0.1,1.72c0.52-0.3,1.2-0.48,1.52-0.92c1.18-1.6,2.24-3.3,3.65-5.42
				c1.07,1.72,2.02,2.89,2.58,4.24C694.86,349.56,696.3,349.45,697.82,349.27z M681.33,344.95c0.22-1.46-1-2.82-2.33-2.65
				c-2.23,0.27-3.85,1.53-5.08,3.3c0.08,0.16,0.16,0.31,0.24,0.47c1.58-0.89,3.17-1.78,4.75-2.68c0.21,0.16,0.42,0.31,0.64,0.46
				c-0.12,0.75-0.07,1.58-0.39,2.24c-0.62,1.3-1.47,2.49-2.15,3.76c-0.16,0.29-0.04,0.73-0.05,1.1c0.31-0.04,0.75,0.04,0.94-0.13
				C679.6,349.2,680.98,347.34,681.33,344.95z M679.09,339.08c-0.14-0.44-0.15-1.06-0.45-1.28c-0.73-0.53-1.6-0.88-2.41-1.31
				c-0.3,0.17-0.62,0.24-0.65,0.38c-0.06,0.24-0.05,0.65,0.11,0.78c0.67,0.55,1.36,1.09,2.11,1.48
				C678.13,339.3,678.65,339.11,679.09,339.08z M636.68,568.81c12.2-1.33,24.4-2.67,36.6-4
				C667.53,564.44,652.83,565.85,636.68,568.81z M655.93,349c1.72-1.5,3.67-3.14,3-5.67c-0.65-2.48-1.73-4.86-4.57-5.89
				c-2.58-0.95-5-0.54-7.49,0.13c-2.68,0.72-4.16,3.18-3.53,5.9c0.39,1.72,2.56,2.77,4.79,2.32c1.39-0.28,2.17-1.61,1.94-3.39
				c-0.18-1.37-0.38-2.74-0.57-4.17c2.53-0.47,4.76,0.09,6.36,2c2.89,3.45,0.97,6.28-1.9,8.88c0.2,0.13,0.4,0.26,0.6,0.4
				C655.02,349.34,655.59,349.3,655.93,349z M655.22,266.78c-0.11-0.11-0.22-0.22-0.34-0.33c-1.38,1.23-2.71,2.53-4.15,3.68
				c-2.18,1.75-3.48,1.55-5.42-0.44c-2.24-2.3-3.66-5.07-4.87-7.98c-0.53-1.26-1.01-2.78-3.04-1.77c2.11-5.41,6.56-9.44,7.56-15.3
				c-0.62,0.14-1.27,0.33-1.52,0.76c-2.09,3.55-4.09,7.15-6.14,10.73c-1.96,3.42-3.99,6.8-5.88,10.26c-1.12,2.05-2.03,4.2-3.17,6.59
				c1.1,0.21,1.69,0.32,2.03,0.38c2.57-4.26,3.92-8.99,7.84-12.48c0.67,1.41,1.06,2.58,1.73,3.57c1.61,2.39,3.16,4.86,5.09,6.97
				c1.62,1.78,4.67,1.77,6.2,0.23C652.63,270.15,653.87,268.41,655.22,266.78z M649.43,331.83c0.01-0.1,0.01-0.21,0.02-0.32
				c-2.45,0-4.9,0-7.36,0c-0.02,0.11-0.04,0.22-0.06,0.32C644.49,331.83,646.96,331.83,649.43,331.83z M641.06,331.79
				c0-0.19,0-0.37-0.01-0.56c-10.44,0.03-20.89-1.08-31.3,0.56C620.18,331.79,630.62,331.79,641.06,331.79z M638.08,347.32
				c0.29-1.81-0.59-2.97-2.03-3.9c-2.2-1.42-4.54-2.79-3.26-6.09c0.02-0.05-0.13-0.17-0.55-0.66c-0.41,0.88-0.7,1.58-1.06,2.24
				c-0.25,0.46-0.66,1.27-0.9,1.23c-2.43-0.36-3.96,1.4-5.95,2.48c-0.98-1.27-1.94-2.51-2.89-3.75c-0.28,0.17-0.56,0.34-0.84,0.51
				c0.48,1.17,0.79,2.45,1.48,3.5c0.64,0.97,0.74,1.63,0.1,2.65c-0.61,0.96-1,2.1-1.27,3.21c-0.19,0.81-0.01,1.75,1.24,1.52
				c0.78-0.15,1.57-0.39,2.31-0.71c0.82-0.35,1.69-1.32,2.34-1.16c0.82,0.2,1.45,1.25,2.15,1.94c0.33,0.32,0.6,0.79,1,0.96
				c0.53,0.24,1.15,0.25,1.73,0.36c-0.21-0.62-0.25-1.38-0.66-1.82c-0.92-1-2.01-1.83-2.95-2.66c1.14-1.56,2.05-2.89,3.07-4.14
				c0.19-0.25,0.81-0.36,1.15-0.26c3.98,1.2,4.91,3.7,2.73,7.2c-0.18,0.29-0.32,0.61-0.6,1.15
				C636.62,350.45,637.77,349.17,638.08,347.32z M630.33,250.66c0.37-2.77-1.09-4.95-2.57-7.08c-0.18-0.25-0.9-0.35-1.22-0.2
				c-0.22,0.11-0.39,0.86-0.24,1.15c1.12,2.15,2.32,4.25,3.49,6.37C629.97,250.82,630.15,250.74,630.33,250.66z M615.85,248.15
				c0.06-4.13-0.73-5.11-3.87-5.39c-0.08-1.34,1.29-2.67-0.14-4.36c-0.34,0.75-0.54,1.3-0.84,1.79c-0.8,1.35-1.36,3.05-2.53,3.91
				c-2.47,1.81-5.27,3.16-7.91,4.75c-0.27,0.17-0.29,0.73-0.43,1.11c0.35,0.05,0.79,0.25,1.05,0.11c0.98-0.5,1.9-1.11,2.84-1.69
				c1.47-0.9,2.93-1.81,4.64-2.87c-1.05,3.38-2,6.44-2.96,9.55c1.15,0.6,1.74,0.76,2.14-0.68c0.83-2.95,1.84-5.86,2.93-8.73
				c0.22-0.58,1.18-1.21,1.78-1.2c0.51,0,1.13,0.85,1.45,1.45c0.24,0.46,0.13,1.13,0.11,1.71c-0.15,4.4-1.21,8.59-2.93,12.62
				c-0.45,1.04-1,2.04-1.5,3.05c-0.16-0.02-0.32-0.03-0.48-0.05c-0.41-1.76-0.81-3.51-1.21-5.26c-0.2,0.02-0.41,0.05-0.61,0.07
				c0.21,2.01,0.33,4.03,0.7,6.01c0.11,0.6,0.82,1.31,1.42,1.51c0.34,0.12,1.16-0.57,1.48-1.08
				C614.14,259.51,615.76,254.04,615.85,248.15z M608.74,345.29c0.17-0.15,0.33-0.3,0.49-0.46c-0.5-2.02-2.08-3.53-3.87-3.35
				C606.58,342.86,607.66,344.08,608.74,345.29z M600.75,332.71c0-0.14,0-0.28-0.01-0.43c-2.14,0-4.3-0.19-6.41,0.05
				c-3.48,0.39-6.92,1.11-10.38,1.61c-3.33,0.48-6.67,0.82-9.99,1.27c-7.82,1.05-15.63,2.24-23.51,0.42
				c-0.9-0.21-1.87-0.12-2.8-0.16c-0.02,0.28-0.04,0.56-0.06,0.84c3.36,0.43,6.73,1.26,10.08,1.19c5.2-0.11,10.4-0.72,15.58-1.32
				c6.63-0.77,13.23-1.77,19.85-2.63C595.64,333.21,598.2,332.99,600.75,332.71z M595.55,349.84c-0.21-0.14-0.41-0.29-0.61-0.43
				c-0.97,0.88-1.94,1.77-3.28,2.99c-0.25-1.64-0.56-2.88-0.59-4.12c-0.04-1.9,0.17-3.81,0.14-5.72c-0.01-0.45-0.56-0.89-0.87-1.33
				c-0.31,0.4-0.92,0.82-0.9,1.2c0.19,3.34,0.42,6.68,0.8,10c0.06,0.62,0.71,1.5,1.25,1.64c0.5,0.12,1.24-0.54,1.8-0.96
				c0.55-0.41,1.09-0.9,1.48-1.46C595.14,351.12,595.3,350.45,595.55,349.84z M557.36,576.68c22.7-0.35,45.27-2.2,67.59-6.53
				C602.55,573.66,579.99,575.56,557.36,576.68z M583.48,254.62c0.39-6.04-2.85-10.36-6.87-14.23c-1.08-1.04-2.56-1.79-4-2.3
				c-2.92-1.04-5.93-1.32-9.08-1.5c-5.29-0.29-9.95,0.6-14.28,3.58c-3.16,2.17-4.75,4.99-4.74,8.93c0,4.51,0.47,8.9,1.62,13.27
				c1.05,3.97,3.17,7.08,6.77,9.07c1.83,1.01,3.78,1.82,5.88,2.81c-1.05,0.19-1.83,0.34-2.61,0.48c0.01,0.12,0.01,0.23,0.02,0.35
				c0.15,0.06,0.3,0.14,0.47,0.17c4.88,0.92,9.33-0.84,13.68-2.53c5.33-2.07,8.35-6.65,11.17-11.33
				C582.77,259.3,583.33,257.03,583.48,254.62z M567.68,542.92c0.18-2.06,0.61-4.35-0.07-6.16c-1.07-2.88-2.98-5.44-4.53-8.13
				c-0.25,0.08-0.5,0.17-0.75,0.25c0.33,1.03,0.53,2.13,1.03,3.07c0.99,1.88,2.21,3.64,3.21,5.51c0.35,0.67,0.51,1.54,0.46,2.3
				c-0.12,1.73-0.5,3.44-0.64,5.18c-0.34,4.35-0.6,8.72-0.9,13.08c0.15,0.02,0.3,0.03,0.45,0.05c0.12-0.61,0.27-1.21,0.34-1.83
				C566.76,551.8,567.3,547.37,567.68,542.92z M559.13,505.29c0.21-0.03,0.43-0.07,0.65-0.1c-0.22-1.6-0.46-3.19-0.63-4.79
				c-0.66-5.93-1.2-11.87-1.96-17.79c-0.53-4.12-1.37-8.2-2.02-12.31c-0.64-4.1-1.19-8.22-1.84-12.32
				c-0.46-2.88-1.09-5.74-1.54-8.63c-0.84-5.44-1.64-10.89-2.37-16.35c-0.38-2.86-0.58-5.74-0.85-8.62
				c-0.19-2.03-0.37-4.07-0.55-6.11c-0.48,0.34-0.6,0.66-0.57,0.97c0.54,5.65,1.02,11.31,1.68,16.94c0.4,3.45,1.11,6.86,1.62,10.29
				c0.78,5.21,1.48,10.43,2.28,15.63c1.06,6.93,2.22,13.83,3.29,20.76c0.33,2.17,0.44,4.38,0.72,6.56c0.35,2.63,0.81,5.25,1.15,7.88
				C558.55,499.96,558.82,502.63,559.13,505.29z M548.03,417.32c-0.18-2.62-0.36-5.24-0.53-7.86c-0.09,0.01-0.19,0.02-0.28,0.03
				c0,2.62,0,5.24,0,7.86C547.49,417.34,547.76,417.33,548.03,417.32z M547.35,395.83c0.23-0.36,0.68-0.74,0.66-1.09
				c-0.13-2.13-0.29-4.27-0.62-6.38c-0.1-0.67-0.65-1.36-1.18-1.84c-0.31-0.29-0.97-0.21-1.47-0.29c1.82,1.04,2.88,5.3,2.21,9.32
				C547.08,395.65,547.21,395.74,547.35,395.83z M547.76,406.72c0-3.33,0-6.66,0-9.99C547.1,400.05,546.41,403.38,547.76,406.72z"/>
			<path d="M827.41,281.94c0.04,2.3-0.48,4.6-0.73,6.73c0-3.88,0.14-8-0.03-12.11c-0.2-4.81-0.49-9.63-1.05-14.41
				c-0.84-7.14-1.92-14.26-2.95-21.37c-0.22-1.55-0.54-3.1-1-4.59c-0.17-0.54-0.82-1.17-1.37-1.31c-4.63-1.21-9.26-2.44-13.95-3.43
				c-6.47-1.36-13.05-1.72-19.67-1.91c-5.5-0.15-10.98-0.96-16.48-1.44c-3.87-0.34-7.76-0.46-11.62-0.94
				c-3.65-0.44-7.26-1.25-10.9-1.83c-2.45-0.4-4.92-0.82-7.4-0.96c-6.57-0.35-13.14-0.55-19.71-0.83
				c-5.03-0.21-10.01-0.66-14.95-1.82c-3.09-0.72-6.32-0.87-9.49-1.21c-3.63-0.39-7.27-0.91-10.91-0.99
				c-7.37-0.17-14.75-0.19-22.13-0.08c-5.83,0.09-11.66,0.39-17.49,0.7c-5.33,0.29-10.66,0.73-15.99,1.09
				c-3.19,0.21-6.37,0.44-9.57,0.62c-6.61,0.37-13.23,0.85-19.86,1.05c-8.49,0.25-17,0.24-25.49,0.42
				c-4.48,0.09-8.97,0.69-13.42,0.46c-6.74-0.36-13.35,0.71-20,1.27c-2.63,0.22-2.6,0.59-2.33,3.24c0.42,4.08,0.67,8.2,0.74,12.31
				c0.11,5.77-0.07,11.54-0.01,17.3c0.11,9.04,0.16,18.07,0.55,27.09c0.34,7.67,1.15,15.32,1.71,22.97
				c0.43,5.87,0.72,11.75,1.25,17.6c0.67,7.42,1.56,14.82,2.28,22.23c0.35,3.65,0.5,7.31,0.78,10.97c0.52,6.96,1.1,13.93,1.59,20.9
				c0.13,1.98,0.02,3.98,0.02,5.97c-0.23,0.01-0.45,0.02-0.68,0.03c-0.08-1.01-0.17-2.02-0.25-3.03
				c-0.53-6.49-1.09-12.97-1.57-19.45c-0.48-6.43-0.77-12.87-1.36-19.29c-0.5-5.36-1.36-10.69-1.97-16.04
				c-0.39-3.53-0.65-7.07-0.91-10.61c-0.47-6.44-0.97-12.87-1.34-19.31c-0.37-6.39-0.66-12.79-0.85-19.2
				c-0.27-8.88-0.49-17.78-0.57-26.67c-0.05-5.57,0.35-11.15,0.25-16.72c-0.05-2.92-0.77-5.82-1.15-8.74
				c-0.13-0.96-0.08-1.96-0.27-2.91c-0.33-1.7-0.78-3.37-1.2-5.15c0.41,0.44,1.03,0.91,1.38,1.53c0.36,0.64,0.48,1.42,0.65,2.15
				c0.19,0.78,0.31,1.57,0.44,2.29c2.1-0.38,4.05-0.93,6.04-1.07c5.71-0.39,11.43-0.67,17.15-0.92c5.82-0.24,11.64-0.43,17.46-0.57
				c4.99-0.12,9.98-0.13,14.97-0.23c1.16-0.02,2.32-0.17,3.47-0.28c0.75-0.06,1.51-0.26,2.26-0.2c8.27,0.65,16.47-0.37,24.69-0.98
				c4.34-0.33,8.71-0.38,13.06-0.62c2.53-0.14,5.05-0.47,7.58-0.6c7.65-0.38,15.3-0.98,22.94-0.96c7.87,0.01,15.76,0.48,23.61,1.09
				c6.1,0.48,12.17,1.43,18.23,2.3c5.94,0.85,11.89,1.18,17.89,1.27c6.99,0.12,13.98,0.34,20.86,1.84c6.85,1.5,13.81,2.09,20.8,2.47
				c6.32,0.34,12.63,0.94,18.93,1.46c5.62,0.47,11.23,0.93,16.84,1.52c1.77,0.19,3.51,0.77,5.25,1.23c3.2,0.84,6.37,1.89,9.61,2.52
				c1.99,0.39,2.51,1.52,2.74,3.2c0.81,6.17,1.64,12.33,2.51,18.49c0.41,2.95,1.14,5.88,1.34,8.84
				C827.07,270.18,827.31,276.06,827.41,281.94z"/>
			<path d="M826.1,291.84c0.17,0.03,0.35,0.06,0.53,0.09c-0.43,2.38-0.91,4.75-1.26,7.14c-1.01,6.97-1.9,13.97-2.97,20.94
				c-1.26,8.21-2.72,16.38-3.96,24.59c-0.86,5.67-1.54,11.36-2.22,17.05c-0.4,3.28-0.64,6.57-0.98,9.85
				c-0.06,0.58-0.28,1.13-0.42,1.7c-0.22-0.29-0.64-0.59-0.61-0.85c0.5-4.26,1.06-8.51,1.61-12.75c0.59-4.48,1.18-8.96,1.81-13.43
				c0.91-6.48,1.86-12.97,2.8-19.45c0.57-3.96,1.1-7.93,1.75-11.87c0.72-4.4,1.56-8.78,2.32-13.17
				C825.06,298.4,825.57,295.12,826.1,291.84z"/>
			<path d="M818.79,455.67c2.46,4.56,2.44,9.26,1.34,14.15c-1.12,4.98-2.3,9.96-2.98,15.01c-0.82,6.1-1.19,12.26-1.64,18.41
				c-0.08,1.11,0.41,2.27,0.65,3.49c-1.11-0.59-1.3-1.85-1.26-3.02c0.14-4.69,0.17-9.4,0.68-14.05c0.55-5.13,1.55-10.21,2.4-15.3
				c0.31-1.82,0.7-3.64,1.12-5.43c1.24-5.18,0.31-9.98-2.16-14.63c-0.93-1.74-1.41-3.72-2.09-5.6c0.22-0.07,0.44-0.14,0.67-0.21
				C816.6,450.89,817.54,453.36,818.79,455.67z"/>
			<path d="M817.77,327.1c0,0.18-0.01,0.35-0.01,0.52c-0.51,0.06-1.02,0.19-1.52,0.16c-8.48-0.54-16.98-0.75-25.35,0.9
				c-2.61,0.51-5.08,1.87-7.51,3.05c-4.77,2.29-9.61,4.16-15.04,3.46c-1.13-0.14-2.25-0.46-3.36-0.73
				c-2.67-0.65-5.33-1.36-8.01-1.95c-1.07-0.24-2.19-0.23-3.29-0.31c-3.99-0.26-7.98-0.5-11.97-0.76c-0.9-0.06-1.8-0.14-2.7-0.42
				c3.72-0.63,7.42-0.82,11.16-0.22c3.03,0.49,6.09,0.75,9.11,1.3c2.43,0.44,4.82,1.16,7.22,1.76c3.78,0.96,7.53,0.69,11.15-0.62
				c3.32-1.2,6.54-2.68,9.8-4.05c0.3-0.13,0.55-0.38,1.22-0.86c-1.93,0-3.36,0-4.79,0c-0.03-0.12-0.05-0.24-0.08-0.36
				c0.95-0.14,1.9-0.34,2.85-0.42c3.76-0.31,7.52-0.66,11.28-0.86c3.35-0.18,6.7-0.21,10.06-0.22c2.5-0.01,5,0.08,7.5,0.19
				C816.26,326.7,817.01,326.95,817.77,327.1z"/>
			<path d="M817.19,535.58c0.59,1.42,0.47,3.19,0.45,4.8c-0.05,3.54-0.27,7.07-0.37,10.61c-0.08,2.93-0.09,5.87-0.14,8.8
				c-0.01,0.55-0.06,1.1-0.09,1.64c-0.17,0-0.34,0-0.51,0c0-1.36,0-2.73,0-4.09c0.01-2.61-0.23-5.25,0.07-7.83
				c0.48-3.98,0.27-7.92-0.59-11.78c-1.19-5.28-1.88-10.56-2.04-15.98c-0.13-4.34-1.08-8.64-1.72-13.39
				c0.45,0.53,0.84,0.79,0.92,1.11c1.09,4.74,2.04,9.49,2.02,14.38C815.17,527.87,815.6,531.79,817.19,535.58z"/>
			<path class="vol1_cover_st0" d="M814.82,373.2c0.01,0,0.01,0.01,0.01,0.01L814.82,373.2L814.82,373.2z"/>
			<path class="vol1_cover_st0" d="M814.83,373.21c0,0.01-0.01,0.01-0.01,0.02c0-0.01,0-0.01,0-0.02H814.83z"/>
			<path d="M814.82,373.23c-0.32,4.85-0.63,9.71-0.95,14.56c-0.22,3.37-0.45,6.73-0.69,10.09c-0.04,0.56-0.15,1.11-0.52,1.69
				c-0.09-0.33-0.27-0.67-0.26-1c0.12-2.64,0.24-5.28,0.42-7.91c0.18-2.55,0.44-5.09,0.66-7.64c0.23-2.76,0.42-5.51,0.69-8.26
				c0.03-0.27,0.14-0.53,0.27-0.79C814.56,373.72,814.71,373.48,814.82,373.23z"/>
			<path d="M812.42,402.87c0,6.24,0,12.48,0,18.72c-0.13,0-0.26,0-0.39-0.01c0-6.23,0-12.47,0-18.71
				C812.16,402.87,812.29,402.87,812.42,402.87z"/>
			<path d="M810.23,363.06c0.02,0.18,0.04,0.36,0.06,0.55c-0.89,0.14-1.78,0.44-2.66,0.39c-4.58-0.22-9.16-0.59-13.74-0.8
				c-3.29-0.15-6.59-0.26-9.89-0.17c-6.97,0.2-13.93,0.76-20.9,0.77c-5.68,0.01-11.36-0.47-17.03-0.9
				c-5.66-0.42-11.3-1.14-16.97-1.53c-3.58-0.24-7.19,0.03-10.78-0.17c-6.61-0.37-13.21-0.87-19.81-1.4
				c-7.21-0.57-14.42-1.26-21.63-1.86c-5.56-0.46-11.12-0.84-16.67-1.3c-1.77-0.15-3.64-0.96-5.24-0.56c-1.61,0.4-3-0.06-4.48-0.02
				c-7.89,0.21-15.79,0.39-23.69,0.63c-3.35,0.1-6.69,0.34-10.04,0.46c-2.99,0.1-6,0.06-8.99,0.21c-3.29,0.17-6.58,0.51-9.87,0.7
				c-8.18,0.47-16.37,0.71-24.54,1.38c-5.27,0.43-10.5,1.49-15.75,2.2c-2.12,0.29-4.27,0.45-6.4,0.6c-0.4,0.03-0.83-0.27-1.24-0.41
				c0.01-0.2,0.01-0.39,0.02-0.59c0.98-0.25,1.95-0.63,2.94-0.74c5.49-0.6,10.98-1.26,16.49-1.65c9.05-0.65,18.11-1.12,27.16-1.65
				c5.15-0.31,10.3-0.62,15.46-0.87c5.68-0.28,11.36-0.55,17.05-0.71c4.29-0.12,8.59-0.02,12.88-0.08c2.52-0.03,5.04-0.29,7.56-0.24
				c3.79,0.08,7.57,0.33,11.35,0.5c3.89,0.18,7.79,0.21,11.66,0.55c5.78,0.5,11.53,1.25,17.31,1.82c3.17,0.3,6.36,0.44,9.54,0.65
				c4.68,0.32,9.35,0.71,14.03,0.94c4.41,0.21,8.84,0.13,13.24,0.4c5.61,0.34,11.21,0.9,16.81,1.36c4.21,0.34,8.42,0.96,12.63,0.93
				c7.44-0.05,14.87-0.68,22.31-0.73c6.75-0.04,13.51,0.35,20.26,0.6c3.49,0.13,6.97,0.37,10.45,0.57
				C809.49,362.91,809.86,363,810.23,363.06z"/>
			<path d="M802.11,434.99c2.83-0.37,6.92,3.3,5.48,7.25c-1.99,5.48-5.64,9.67-10.24,13.14c-1.12,0.84-1.98,2.04-3.2,3.33
				c-1.03,0.65-2.43,1.5-3.8,2.41c-0.63,0.42-1.12,1.04-1.76,1.43c-2.31,1.43-2.93,3-1.86,5.84c1.45,3.85,1.84,8.01,0.84,12.18
				c-0.4,1.68-0.43,3.45-0.8,5.14c-0.28,1.31,0.16,1.97,1.24,2.69c4.57,3.07,9.13,6.29,11.02,11.75c0.83,2.41,1.29,5.13,1.11,7.66
				c-0.31,4.51-5.09,5.14-7.77,3.68c-2.92-1.59-4.21-4.44-5.17-7.4c-0.82-2.54-1.38-5.15-2.11-7.72c-0.17-0.63-0.53-1.21-0.81-1.81
				c-0.16-0.01-0.32-0.02-0.48-0.03c-1.16,2.88-2.39,5.74-3.45,8.65c-2.23,6.1-5.88,10.99-11.84,13.85
				c-2.39,1.14-4.96,0.97-7.48,0.32c-0.35-0.09-0.72-0.38-0.94-0.68c-2.01-2.81-3.21-5.71-2.5-9.39c0.78-4.07,1.52-8.22,0.6-12.44
				c-0.37-1.71-1.86-1.8-2.9-1.91c-3.59-0.36-7.21-0.33-10.82-0.58c-3.23-0.23-6.45-0.63-9.93-0.97c0.05,0.65,0.01,1.38,0.17,2.07
				c1.29,5.59-0.03,10.91-1.92,16.07c-1.33,3.64-4.57,4.9-8.21,5.1c-1.47,0.08-2.96-0.05-4.43-0.21c-2.01-0.23-4.17-2.84-4.66-5.34
				c-0.51-2.59-1.1-5.15-1.65-7.73c-0.18-0.02-0.37-0.04-0.56-0.05c-1.55,1.67-3.22,3.26-4.63,5.05c-2.86,3.58-8.95,5.41-13.24,3.95
				c-3.71-1.26-5.03-6.36-3.76-9.14c0.28-0.62,0.5-1.26,0.76-1.93c2.16-0.39,4.59-0.34,6.53-1.3c2.54-1.24,4.72-3.23,7-4.98
				c1.4-1.09,2.69-2.32,4.16-3.59c-1.31-2.15-3.62-3.12-5.96-3.8c-4.4-1.27-8.88-2.26-13.31-3.46c-4.79-1.3-8.11-5.54-8.46-10.57
				c-0.03-0.44-0.16-0.88-0.21-1.11c-4.08,0.47-8.04,1.32-11.99,1.3c-6.9-0.02-13.79-0.54-20.68-0.94
				c-8.37-0.48-16.13-3.03-23.46-7.02c-0.02-0.01-0.05-0.02-0.07-0.02c-0.07-0.03-0.12-0.02,0,0c-2.04,1.94-3.81,3.95-5.91,5.52
				c-2.64,1.99-5.81,2.81-9.12,2.66c-2.01-0.09-2.73-0.93-2.57-2.96c0.12-1.58,0.35-3.32,1.11-4.66c1.8-3.18,3.94-6.17,5.82-9.04
				c-2.95-4.67-6.18-9.3-8.87-14.23c-2.03-3.71-1.73-7.7,0.5-11.44c1.36-2.28,2.76-4.54,3.88-6.94c0.35-0.74-0.07-1.91-0.29-2.84
				c-1.35-5.72-0.86-11.43,0.17-17.11c0.49-2.67,1.17-5.31,1.83-8.31c1.02,0.29,2.05,0.41,2.92,0.86c5.96,3.13,11.91,6.3,17.81,9.53
				c2.03,1.11,3.92,2.45,5.87,3.67c-0.01,0.02-0.02,0.03-0.03,0.05c0.01,0,0.02,0,0.03,0c-0.05,0.3-0.1,0.6-0.14,0.88
				c21-2.48,41.78-2.21,62.66,2.56c-0.63-1.81-1.16-3.36-1.74-5.04c-1.81,0.75-3.48,1.45-5.15,2.14c-0.11-0.26-0.22-0.52-0.34-0.77
				c1.94-0.94,3.86-1.92,5.84-2.78c0.22-0.1,0.93,0.42,1.08,0.79c0.54,1.34,1,2.72,1.38,4.11c0.47,1.68,1.61,2.27,3.22,2.3
				c0.22-4.6,0.43-9.12,0.66-14c-4.88,3.06-9.52,5.9-14.1,8.85c-1.54,1-2.99,1.4-4.88,1.1c-6.71-1.06-13.42-2.23-20.27-2.05
				c-6.45,0.16-12.91,0.27-19.36,0.19c-2.57-0.03-4.97,0.21-7.25,1.41c-0.46,0.24-1.06,0.21-1.6,0.3c0-0.01,0-0.02,0-0.03
				c0,0-0.01,0-0.01-0.01c1.11-2.06,4.45-3.49,7.32-3.38c2.85,0.12,5.7-0.04,8.54-0.06c3.49-0.02,6.98-0.1,10.46-0.01
				c4.06,0.11,8.13,0.22,12.17,0.62c3.23,0.32,6.43,1.03,9.62,1.64c1.63,0.31,2.97,0.06,4.43-0.88c4.88-3.15,9.87-6.14,14.84-9.17
				c1.3-0.78,1.95-0.4,1.89,1.13c-0.17,4.19-0.49,8.37-0.59,12.55c-0.09,3.43,0.48,6.8,1.14,10.18c0.88,4.47,1.04,8.94,0.01,13.49
				c-0.87,3.84-1.23,7.8-3.05,11.38c-2.05,4.06-4.12,8.13-5.97,11.77c4.12,0,8.71,0.15,13.29-0.04c5.99-0.25,11.96-0.91,17.95-1.11
				c6.34-0.22,12.69-0.11,19.04-0.15c3.42-0.02,6.86-0.25,10.26-0.04c4.8,0.3,9.58,0.94,14.37,1.36c0.61,0.05,1.42-0.18,1.85-0.58
				c1.47-1.39,2.89-2.85,4.17-4.4c3.18-3.84,6.05-7.96,9.46-11.57C793.45,437.86,797.4,435.61,802.11,434.99z M806.12,441.45
				c0.47-1.46,0.49-2.78-0.81-3.97c-1.35-1.23-2.75-1.32-4.36-0.8c-4.42,1.42-8.14,3.75-11.08,7.47
				c-3.47,4.41-7.36,8.49-10.85,12.89c-1.3,1.64-2.73,2.05-4.54,1.76c-6.98-1.12-14-1.5-21.06-1.33c-3.61,0.09-7.22,0.18-10.83,0.24
				c-5.93,0.09-11.86,0.05-17.78,0.27c-4.76,0.17-9.51,0.68-14.26,1c-4.12,0.27-8.25,0.46-12.37,0.73c-0.46,0.03-0.97,0.29-1.33,0.6
				c-4.15,3.59-7.91,7.74-13.5,9.26c0.07,0.57,0.15,1.07,0.2,1.58c0.37,4.46,2.52,7.54,6.94,8.78c4.29,1.22,8.59,2.41,12.9,3.54
				c2.82,0.74,5.38,1.84,7.38,4.06c0.57,0.64,1.33,1.56,2.01,1.56c2.41,0.01,1.72,1.56,1.73,2.88c0.04,2.89-0.05,5.8,0.28,8.66
				c0.3,2.52,1.17,4.97,1.68,7.47c0.65,3.16,2.49,5.12,5.45,5.13c2.01,0,4.14-0.2,5.98-0.91c1.45-0.56,3.22-1.81,3.69-3.16
				c1.62-4.69,3.27-9.48,1.93-14.62c-0.39-1.51-0.53-3.08-0.83-4.85c0.67-0.03,1.07-0.09,1.46-0.06c6.6,0.52,13.21,0.99,19.8,1.64
				c1.58,0.15,3.12,0.82,4.63,1.39c0.42,0.17,0.9,0.83,0.92,1.29c0.14,3.81,0.6,7.61-0.49,11.42c-0.99,3.46-0.37,6.82,1.87,9.74
				c0.36,0.48,0.93,0.92,1.5,1.09c1.89,0.56,3.84,0.54,5.6-0.42c2.78-1.52,5.34-3.41,6.98-6.17c1.39-2.34,2.55-4.83,3.66-7.32
				c2.78-6.22,5.95-12.27,7.06-19.15c0.87-5.42,1.17-10.75-0.71-15.99c-0.94-2.63-1.02-2.57,1.01-4.36c2.49-2.18,4.9-4.44,7.4-6.6
				c2.46-2.11,5.08-4.05,7.48-6.23C803.4,447.65,805.07,444.71,806.12,441.45z M797.04,510.76c1.66-0.53,2.3-2.16,2.21-3.63
				c-0.14-2.29-0.51-4.63-1.26-6.79c-1.68-4.89-5.98-7.56-9.68-10.7c-0.51-0.43-1.12-0.75-1.82-1.21c-0.5,1.28-1.06,2.22-1.21,3.22
				c-0.14,0.97-0.03,2.05,0.26,2.99c0.55,1.78,1.54,3.45,1.94,5.26c0.8,3.61,1.66,7.13,4.38,9.87
				C793.37,511.3,795.2,511.35,797.04,510.76z M713.29,492.34c0.05-1.51-0.86-2.18-2.3-1.55c-0.73,0.32-1.4,0.83-2.01,1.34
				c-2.04,1.72-4.04,3.49-6.07,5.22c-1.86,1.58-3.87,2.7-6.47,2.52c-0.93-0.07-2.45,0.1-2.73,0.65c-0.69,1.37-1.13,3.04-1.09,4.56
				c0.06,1.84,0.97,3.64,2.98,4.09c2.86,0.64,5.95,0.85,8.43-0.85c2.29-1.55,4.06-3.84,6.13-5.74c1.95-1.78,3.36-3.74,2.97-6.58
				c-0.1-0.79,0.09-1.62,0.14-2.43c-0.01,0-0.03,0-0.04-0.01C713.25,493.16,713.27,492.75,713.29,492.34z M704.5,445.41
				c2.84-7.1,4.29-14.43,3.29-22.1c-0.05-0.41-0.62-1-1.03-1.08c-3.52-0.71-7.05-1.47-10.61-1.93c-4.72-0.6-9.47-0.89-14.2-1.4
				c-4.56-0.5-9.1-1.3-13.67-1.58c-3.88-0.24-7.8-0.05-11.69,0.17c-6.44,0.35-12.89,0.73-19.3,1.38c-5.32,0.54-10.6,1.39-15.87,2.3
				c-2.91,0.49-5.75,1.38-8.61,2.08c0.37,1.2,0.59,1.9,0.81,2.6c-0.14,0.07-0.29,0.14-0.44,0.21c-0.58-0.72-1.17-1.44-1.86-2.3
				c-2.17,2.89-3.5,5.98-4.39,9.21c-0.71,2.57-0.7,5.26,0.69,7.63c2,3.4,4.16,6.7,6.34,9.99c1.25,1.87,3.48,2.02,5.25,0.51
				c0.59-0.5,1.23-0.95,1.84-1.42c-0.01,0.22-0.02,0.44-0.03,0.66c0.5,0.19,1.06,0.61,1.51,0.52c2.01-0.42,3.99-0.99,6.14-1.54
				c0.9,4.56,1.24,9.15-2.47,13.04c4.77,2.85,9.73,4.73,14.88,5.84c4.12,0.88,8.42,1.13,12.64,1.24c7.43,0.2,14.82,1.86,22.26,0.64
				c2.37-0.39,5.17,0.06,6.49-3.01c0.4,0.47,0.67,0.78,0.98,1.14c1.42-0.61,2.95-0.98,4.15-1.83c2.26-1.61,4.45-3.37,6.45-5.29
				c3.04-2.91,6.17-5.78,7.78-9.86C702.61,449.24,703.71,447.39,704.5,445.41z M707.41,421.01c-0.38-1.92-0.53-3.74-1.16-5.38
				c-0.3-0.79-1.43-1.56-2.32-1.77c-3.27-0.78-6.56-1.47-9.89-1.92c-7.4-1-14.82-1.83-21.79-2.67c-0.52,0.99-0.81,1.56-1.17,2.24
				c-1.34-0.81-1.54-2.73-3.52-2.22c-1.41,0.36-2.97,0.07-4.71,0.07c0.27,0.74,0.45,1.24,0.59,1.64c1.69-0.12,3.17-0.22,4.65-0.32
				c0.04,0.26,0.07,0.52,0.11,0.78c-1.21,0.32-2.41,0.63-3.56,0.94c1.02,0.7,2.09,1.44,3.16,2.18c-0.11,0.24-0.21,0.49-0.32,0.73
				c-0.94-0.23-2.13-0.18-2.78-0.75c-1.37-1.18-2.41-0.62-3.68,0.03c-0.85,0.44-1.86,0.62-2.81,0.83c-0.05,0.01-0.1,0.01-0.15,0.01
				c-0.31,0-0.71-0.17-1.42-0.32c1.94-0.9,3.39-1.58,4.84-2.26c-0.05-0.12-0.11-0.25-0.16-0.38c-0.99,0.16-1.99,0.32-3.05,0.49
				c0.33-1.07,0.33-1.07,3.43-2.05c0-1.21-0.67-1.54-1.79-1.5c-8.38,0.24-16.74,0.62-24.97,2.36c-2.92,0.61-6.03,0.5-8.68,2.27
				c-0.35,0.24-1.07,0.19-1.52,0.01c-1.88-0.74-3.49,0.07-5.14,0.67c0.09,1.37,0.22,2.63,0.24,3.9c0,0.36-0.35,0.72-0.54,1.08
				c-0.28-0.3-0.73-0.57-0.8-0.91c-0.21-1.07-0.27-2.17-0.41-3.4c-2.18,0.68-4.24,1.31-6.29,1.94c-0.11-0.3-0.22-0.61-0.32-0.91
				c1.54-0.66,3.06-1.4,4.65-1.96c0.98-0.34,1.61-0.71,1.66-1.88c0.02-0.35,0.78-0.93,1.23-0.96c2.7-0.15,5.43,0.01,8.12-0.28
				c3.59-0.38,7.14-1.08,10.72-1.65c0.03-0.17,0.07-0.33,0.1-0.5c-7.99-4.22-15.3-9.72-24.15-12.91c-0.45,2.04-0.75,3.81-1.24,5.52
				c-1.39,4.84-1.85,9.72-1.31,14.64c0.1,0.99,0.24,1.97,0.43,2.96c0.46,2.42,0.85,2.6,3.24,2.1c5.32-1.11,10.65-2.26,16.01-3.09
				c5.26-0.83,10.56-1.41,15.85-1.87c3.75-0.32,7.51-0.53,11.28-0.61c0.88-0.02,1.75-0.03,2.63-0.03c5.11,0,10.24,0.14,15.33,0.58
				c4.21,0.36,8.36,1.55,12.57,1.84C694.86,418.75,701.08,419.18,707.41,421.01z M627.53,452.69c0.02-0.34-0.79-1.09-1.03-1.02
				c-3.08,0.9-6.98-0.05-8.83,4.02c0.88,0.97,1.87,2.05,2.86,3.14c0.52-0.93,0.95-1.68,1.38-2.43c0.23,0.06,0.46,0.12,0.7,0.17
				c-0.1,0.73-0.01,1.55-0.32,2.16c-0.52,1.03-0.29,1.61,0.68,2.07c0.56,0.27,1.1,0.58,1.58,0.84
				C627.24,459.1,627.36,455.87,627.53,452.69z M624.05,462.85c-1.08-0.66-2-1.23-2.95-1.81c-1.39,3.52-3.25,5.33-4.71,4.65
				c1.02-1.53,2.08-3.05,3.05-4.63c0.22-0.36,0.36-1.09,0.16-1.35c-0.89-1.12-1.92-2.14-2.71-2.98c-0.89,0.75-1.89,1.33-2.54,2.18
				c-2.12,2.76-4.23,5.56-4.59,9.2c-0.19,1.9,0.69,2.78,2.52,2.33c1.96-0.48,3.97-0.98,5.74-1.9
				C620.5,467.27,622.48,465.32,624.05,462.85z"/>
			<path class="vol1_cover_st0" d="M805.31,437.48c1.3,1.19,1.28,2.51,0.81,3.97c-1.05,3.26-2.72,6.2-5.26,8.51c-2.4,2.18-5.02,4.12-7.48,6.23
				c-2.5,2.16-4.91,4.42-7.4,6.6c-2.03,1.79-1.95,1.73-1.01,4.36c1.88,5.24,1.58,10.57,0.71,15.99c-1.11,6.88-4.28,12.93-7.06,19.15
				c-1.11,2.49-2.27,4.98-3.66,7.32c-1.64,2.76-4.2,4.65-6.98,6.17c-1.76,0.96-3.71,0.98-5.6,0.42c-0.57-0.17-1.14-0.61-1.5-1.09
				c-2.24-2.92-2.86-6.28-1.87-9.74c1.09-3.81,0.63-7.61,0.49-11.42c-0.02-0.46-0.5-1.12-0.92-1.29c-1.51-0.57-3.05-1.24-4.63-1.39
				c-6.59-0.65-13.2-1.12-19.8-1.64c-0.39-0.03-0.79,0.03-1.46,0.06c0.3,1.77,0.44,3.34,0.83,4.85c1.34,5.14-0.31,9.93-1.93,14.62
				c-0.47,1.35-2.24,2.6-3.69,3.16c-1.84,0.71-3.97,0.91-5.98,0.91c-2.96-0.01-4.8-1.97-5.45-5.13c-0.51-2.5-1.38-4.95-1.68-7.47
				c-0.33-2.86-0.24-5.77-0.28-8.66c-0.01-1.32,0.68-2.87-1.73-2.88c-0.68,0-1.44-0.92-2.01-1.56c-2-2.22-4.56-3.32-7.38-4.06
				c-4.31-1.13-8.61-2.32-12.9-3.54c-4.42-1.24-6.57-4.32-6.94-8.78c-0.05-0.51-0.13-1.01-0.2-1.58c5.59-1.52,9.35-5.67,13.5-9.26
				c0.36-0.31,0.87-0.57,1.33-0.6c4.12-0.27,8.25-0.46,12.37-0.73c4.75-0.32,9.5-0.83,14.26-1c5.92-0.22,11.85-0.18,17.78-0.27
				c3.61-0.06,7.22-0.15,10.83-0.24c7.06-0.17,14.08,0.21,21.06,1.33c1.81,0.29,3.24-0.12,4.54-1.76c3.49-4.4,7.38-8.48,10.85-12.89
				c2.94-3.72,6.66-6.05,11.08-7.47C802.56,436.16,803.96,436.25,805.31,437.48z"/>
			<path class="vol1_cover_st0" d="M799.25,507.13c0.09,1.47-0.55,3.1-2.21,3.63c-1.84,0.59-3.67,0.54-5.18-0.99
				c-2.72-2.74-3.58-6.26-4.38-9.87c-0.4-1.81-1.39-3.48-1.94-5.26c-0.29-0.94-0.4-2.02-0.26-2.99c0.15-1,0.71-1.94,1.21-3.22
				c0.7,0.46,1.31,0.78,1.82,1.21c3.7,3.14,8,5.81,9.68,10.7C798.74,502.5,799.11,504.84,799.25,507.13z"/>
			<path d="M794.9,344.6c0.79,1.75,0.62,2.88-0.41,3.8c-1.27-1.24-1.27-1.24-1.14-4.94C794.07,343.97,794.71,344.18,794.9,344.6z"/>
			<path d="M787.29,433.99c0.23,0.07,0.46,0.14,0.69,0.22c-0.17,0.54-0.18,1.26-0.54,1.59c-1.72,1.55-3.52,3-5.32,4.46
				c-1.7,1.39-3.41,2.77-5.16,4.1c-0.33,0.25-0.86,0.23-1.3,0.33c0.13-0.47,0.09-1.14,0.4-1.4
				C779.77,440.16,783.53,437.08,787.29,433.99z"/>
			<path d="M771.49,437.69c3.28-3.51,7.43-5.26,12.36-4.78c-8.13,1.34-12.99,6.63-16.49,13.76
				C766.57,444.72,768.01,441.41,771.49,437.69z"/>
			<path d="M783.54,349.3c-0.64,0.49-0.88,0.73-1.18,0.89c-0.82,0.43-1.67,0.82-2.51,1.23c-0.21-0.83-0.46-1.65-0.61-2.49
				c-0.15-0.85-0.22-1.72-0.24-2.59c-0.02-0.51,0.15-1.02,0.26-1.67c2.51,1.06,1.27,3.34,2.23,4.9
				C781.89,349.52,782.43,349.45,783.54,349.3z"/>
			<path d="M771.48,342.7c0.31,1.33,0.5,2.7,0.73,4.06c-0.4-0.14-1.03-0.17-1.15-0.43c-0.56-1.19-1.02-2.42-1.4-3.68
				c-0.07-0.25,0.39-0.66,0.77-1.26C770.92,341.98,771.38,342.29,771.48,342.7z"/>
			<path d="M766.14,340.85c2.4,0.4,3.38,2.18,1.91,4.09c-2.12,2.74-4.55,5.24-6.91,7.79c-0.78,0.84-1.7,1.56-2.63,2.24
				c-0.41,0.3-1,0.35-1.51,0.51c-0.14-0.46-0.43-0.93-0.39-1.38c0.06-0.78,0.32-1.54,0.59-2.7c0.46,0.83,0.71,1.3,1.21,2.2
				c2.74-3.08,5.38-5.92,7.85-8.89c0.53-0.63,0.86-2.37,0.57-2.56c-1.04-0.72-2.35-0.62-3.2,0.56c-1.36,1.87-2.6,3.83-3.98,5.68
				c-0.38,0.51-1.09,0.77-1.64,1.14c-0.19-0.21-0.38-0.41-0.56-0.62c1.4-2.15,2.81-4.3,4.21-6.44c-2.33,0.99-3.97,3.04-6.51,3.15
				c-0.11-0.3-0.23-0.6-0.35-0.9c2.24-1.12,4.49-2.21,6.7-3.38c0.73-0.39,1.39-0.93,2.05-1.45c0.4-0.31,0.74-0.7,1.1-1.06
				c0.15,0.54,0.3,1.08,0.48,1.73C765.37,340.63,765.75,340.79,766.14,340.85z"/>
			<path d="M744.53,345.23c0.51,2.66-2.97,6.96-6.2,7.44c0.51-0.69,0.87-1.13,1.18-1.6c1.07-1.64,2.14-3.28,3.16-4.94
				c0.15-0.25,0.16-0.87,0.05-0.92c-0.32-0.14-0.78-0.21-1.08-0.08c-1.11,0.47-2.15,1.09-3.26,1.55c-0.89,0.37-1.83,0.6-2.86,0.58
				c2.13-1.87,4.38-3.55,7.31-3.52C743.43,343.75,744.41,344.62,744.53,345.23z"/>
			<path d="M741.75,578.21c0,0.11,0,0.22,0,0.32c-2.07,0-4.13,0-6.2,0c0-0.1,0-0.21,0-0.32
				C737.62,578.21,739.69,578.21,741.75,578.21z"/>
			<path d="M741.9,338.65c-1.43,1.38-2.74,0.7-3.73-1.54c0.11-0.2,0.22-0.4,0.33-0.6C739.6,337.2,740.71,337.9,741.9,338.65z"/>
			<path d="M734.63,330.9c0,0.12-0.01,0.24-0.01,0.36c-2.54,0-5.08,0-7.63,0c0-0.12,0-0.24,0-0.36
				C729.53,330.9,732.08,330.9,734.63,330.9z"/>
			<path d="M720.38,347.49c-0.2,0.44-0.29,1.01-0.62,1.28c-1.29,1.08-6.96,1.43-8.23,0.36c-0.41-0.34-0.45-1.63-0.14-2.21
				c1.59-2.94,3.35-5.79,5.03-8.68c0.33-0.56,0.61-1.15,0.91-1.72c0.23,0.1,0.46,0.21,0.69,0.31c-0.38,4.24-3.75,7.1-5.37,10.77
				C714.31,348.91,716.93,348.82,720.38,347.49z"/>
			<path class="vol1_cover_st0" d="M710.99,490.79c1.44-0.63,2.35,0.04,2.3,1.55c-0.02,0.41-0.04,0.82-0.06,1.22c0.01,0.01,0.03,0.01,0.04,0.01
				c-0.05,0.81-0.24,1.64-0.14,2.43c0.39,2.84-1.02,4.8-2.97,6.58c-2.07,1.9-3.84,4.19-6.13,5.74c-2.48,1.7-5.57,1.49-8.43,0.85
				c-2.01-0.45-2.92-2.25-2.98-4.09c-0.04-1.52,0.4-3.19,1.09-4.56c0.28-0.55,1.8-0.72,2.73-0.65c2.6,0.18,4.61-0.94,6.47-2.52
				c2.03-1.73,4.03-3.5,6.07-5.22C709.59,491.62,710.26,491.11,710.99,490.79z"/>
			<path d="M713.22,342.93c-0.76,0-1.52,0.16-1.61-0.02c-0.72-1.48-1.32-3.03-1.96-4.55c0.28-0.12,0.55-0.24,0.82-0.36
				C711.32,339.52,712.16,341.03,713.22,342.93z"/>
			<path d="M709.53,567.76c-0.57,0.09-0.86,0.23-1.08,0.15c-3.49-1.17-6.96-2.36-10.43-3.56c-0.26-0.1-0.49-0.29-0.72-0.45
				c1.49,0.23,3,0.35,4.44,0.73c2.17,0.56,4.3,1.29,6.42,2.02C708.6,566.8,708.93,567.26,709.53,567.76z"/>
			<path class="vol1_cover_st0" d="M707.79,423.31c1,7.67-0.45,15-3.29,22.1c-0.79,1.98-1.89,3.83-2.67,5.82c-1.61,4.08-4.74,6.95-7.78,9.86
				c-2,1.92-4.19,3.68-6.45,5.29c-1.2,0.85-2.73,1.22-4.15,1.83c-0.31-0.36-0.58-0.67-0.98-1.14c-1.32,3.07-4.12,2.62-6.49,3.01
				c-7.44,1.22-14.83-0.44-22.26-0.64c-4.22-0.11-8.52-0.36-12.64-1.24c-5.15-1.11-10.11-2.99-14.88-5.84
				c3.71-3.89,3.37-8.48,2.47-13.04c-2.15,0.55-4.13,1.12-6.14,1.54c-0.45,0.09-1.01-0.33-1.51-0.52c0.01-0.22,0.02-0.44,0.03-0.66
				c-0.61,0.47-1.25,0.92-1.84,1.42c-1.77,1.51-4,1.36-5.25-0.51c-2.18-3.29-4.34-6.59-6.34-9.99c-1.39-2.37-1.4-5.06-0.69-7.63
				c0.89-3.23,2.22-6.32,4.39-9.21c0.69,0.86,1.28,1.58,1.86,2.3c0.15-0.07,0.3-0.14,0.44-0.21c-0.22-0.7-0.44-1.4-0.81-2.6
				c2.86-0.7,5.7-1.59,8.61-2.08c5.27-0.91,10.55-1.76,15.87-2.3c6.41-0.65,12.86-1.03,19.3-1.38c3.89-0.22,7.81-0.41,11.69-0.17
				c4.57,0.28,9.11,1.08,13.67,1.58c4.73,0.51,9.48,0.8,14.2,1.4c3.56,0.46,7.09,1.22,10.61,1.93
				C707.17,422.31,707.74,422.9,707.79,423.31z M644.31,434.84c0.11-2.83-0.6-4.97-2.14-6.84c-1.21-1.45-2.47-1.73-3.67-0.33
				c-1.68,1.97-3.38,4.04-4.47,6.34c-1.23,2.59-1.22,5.44,0.86,7.85c1.21,1.41,3.89,1.82,5.23,0.59
				C642.44,440.3,644.59,437.97,644.31,434.84z"/>
			<path class="vol1_cover_st0" d="M706.25,415.63c0.63,1.64,0.78,3.46,1.16,5.38c-6.33-1.83-12.55-2.26-18.81-2.69
				c-4.21-0.29-8.36-1.48-12.57-1.84c-5.09-0.44-10.22-0.58-15.33-0.58c-0.88,0-1.75,0.01-2.63,0.03l-0.01-0.5
				c0.05,0,0.1,0,0.15-0.01c0.95-0.21,1.96-0.39,2.81-0.83c1.27-0.65,2.31-1.21,3.68-0.03c0.65,0.57,1.84,0.52,2.78,0.75
				c0.11-0.24,0.21-0.49,0.32-0.73c-1.07-0.74-2.14-1.48-3.16-2.18c1.15-0.31,2.35-0.62,3.56-0.94c-0.04-0.26-0.07-0.52-0.11-0.78
				c-1.48,0.1-2.96,0.2-4.65,0.32c-0.14-0.4-0.32-0.9-0.59-1.64c1.74,0,3.3,0.29,4.71-0.07c1.98-0.51,2.18,1.41,3.52,2.22
				c0.36-0.68,0.65-1.25,1.17-2.24c6.97,0.84,14.39,1.67,21.79,2.67c3.33,0.45,6.62,1.14,9.89,1.92
				C704.82,414.07,705.95,414.84,706.25,415.63z"/>
			<path class="vol1_cover_st0" d="M706.58,398.68c-0.23,4.88-0.44,9.4-0.66,14c-1.61-0.03-2.75-0.62-3.22-2.3c-0.38-1.39-0.84-2.77-1.38-4.11
				c-0.15-0.37-0.86-0.89-1.08-0.79c-1.98,0.86-3.9,1.84-5.84,2.78c0.12,0.25,0.23,0.51,0.34,0.77c1.67-0.69,3.34-1.39,5.15-2.14
				c0.58,1.68,1.11,3.23,1.74,5.04c-20.88-4.77-41.66-5.04-62.66-2.56c0.04-0.28,0.09-0.58,0.14-0.88l0.01-0.01
				c0.54-0.09,1.14-0.06,1.6-0.3c2.28-1.2,4.68-1.44,7.25-1.41c6.45,0.08,12.91-0.03,19.36-0.19c6.85-0.18,13.56,0.99,20.27,2.05
				c1.89,0.3,3.34-0.1,4.88-1.1C697.06,404.58,701.7,401.74,706.58,398.68z"/>
			<path d="M700.98,346.22c-0.15,1.62-1.52,2.86-3.16,3.05c-1.52,0.18-2.96,0.29-3.74-1.59c-0.56-1.35-1.51-2.52-2.58-4.24
				c-1.41,2.12-2.47,3.82-3.65,5.42c-0.32,0.44-1,0.62-1.52,0.92c0.02-0.58-0.19-1.34,0.1-1.72c2.7-3.62,5.48-7.17,8.26-10.73
				c0.18-0.23,0.56-0.32,1.17-0.66c-0.45,2.84-2.66,4.09-3.83,5.8c1.14,1.42,2.29,2.75,3.32,4.16c1.26,1.72,2.23,1.93,3.99,0.71
				C699.83,347,700.33,346.67,700.98,346.22z"/>
			<path class="vol1_cover_st0" d="M697.3,563.9c-0.05-0.01-0.09-0.01-0.14-0.02l0.04-0.05C697.23,563.85,697.27,563.87,697.3,563.9z"/>
			<path class="vol1_cover_st0" d="M697.2,563.83l-0.04,0.05c-0.02-0.01-0.05-0.03-0.07-0.05C697.13,563.83,697.16,563.83,697.2,563.83z"/>
			<path d="M695.96,563.14c0.37-0.02,0.75,0.42,1.13,0.69c-1.52,0.02-3.04,0.07-4.55,0.07c-3.83,0.01-7.65,0.01-11.49-0.2
				C686.02,563.5,690.99,563.28,695.96,563.14z"/>
			<path d="M679,342.3c1.33-0.17,2.55,1.19,2.33,2.65c-0.35,2.39-1.73,4.25-3.43,5.87c-0.19,0.17-0.63,0.09-0.94,0.13
				c0.01-0.37-0.11-0.81,0.05-1.1c0.68-1.27,1.53-2.46,2.15-3.76c0.32-0.66,0.27-1.49,0.39-2.24c-0.22-0.15-0.43-0.3-0.64-0.46
				c-1.58,0.9-3.17,1.79-4.75,2.68c-0.08-0.16-0.16-0.31-0.24-0.47C675.15,343.83,676.77,342.57,679,342.3z"/>
			<path d="M678.64,337.8c0.3,0.22,0.31,0.84,0.45,1.28c-0.44,0.03-0.96,0.22-1.29,0.05c-0.75-0.39-1.44-0.93-2.11-1.48
				c-0.16-0.13-0.17-0.54-0.11-0.78c0.03-0.14,0.35-0.21,0.65-0.38C677.04,336.92,677.91,337.27,678.64,337.8z"/>
			<path d="M673.28,564.81c-12.2,1.33-24.4,2.67-36.6,4C652.83,565.85,667.53,564.44,673.28,564.81z"/>
			<path class="vol1_cover_st0" d="M661.32,412.47c0.05,0.13,0.11,0.26,0.16,0.38c-1.45,0.68-2.9,1.36-4.84,2.26c0.71,0.15,1.11,0.32,1.42,0.32
				l0.01,0.5c-3.77,0.08-7.53,0.29-11.28,0.61c-5.29,0.46-10.59,1.04-15.85,1.87c-5.36,0.83-10.69,1.98-16.01,3.09
				c-2.39,0.5-2.78,0.32-3.24-2.1c-0.19-0.99-0.33-1.97-0.43-2.96l0.22-0.02c0.1,0.3,0.21,0.61,0.32,0.91
				c2.05-0.63,4.11-1.26,6.29-1.94c0.14,1.23,0.2,2.33,0.41,3.4c0.07,0.34,0.52,0.61,0.8,0.91c0.19-0.36,0.54-0.72,0.54-1.08
				c-0.02-1.27-0.15-2.53-0.24-3.9c1.65-0.6,3.26-1.41,5.14-0.67c0.45,0.18,1.17,0.23,1.52-0.01c2.65-1.77,5.76-1.66,8.68-2.27
				c8.23-1.74,16.59-2.12,24.97-2.36c1.12-0.04,1.79,0.29,1.79,1.5c-3.1,0.98-3.1,0.98-3.43,2.05
				C659.33,412.79,660.33,412.63,661.32,412.47z"/>
			<path d="M658.93,343.33c0.67,2.53-1.28,4.17-3,5.67c-0.34,0.3-0.91,0.34-1.37,0.51c-0.2-0.14-0.4-0.27-0.6-0.4
				c2.87-2.6,4.79-5.43,1.9-8.88c-1.6-1.91-3.83-2.47-6.36-2c0.19,1.43,0.39,2.8,0.57,4.17c0.23,1.78-0.55,3.11-1.94,3.39
				c-2.23,0.45-4.4-0.6-4.79-2.32c-0.63-2.72,0.85-5.18,3.53-5.9c2.49-0.67,4.91-1.08,7.49-0.13
				C657.2,338.47,658.28,340.85,658.93,343.33z M647,344.4c1.3,0.06,1.64-0.65,1.55-1.74c-0.11-1.32-0.28-2.64-0.44-4.09
				c-2.57,0.9-3.42,1.96-3.36,4.01C644.8,344.05,645.76,344.35,647,344.4z"/>
			<path d="M654.88,266.45c0.12,0.11,0.23,0.22,0.34,0.33c-1.35,1.63-2.59,3.37-4.08,4.87c-1.53,1.54-4.58,1.55-6.2-0.23
				c-1.93-2.11-3.48-4.58-5.09-6.97c-0.67-0.99-1.06-2.16-1.73-3.57c-3.92,3.49-5.27,8.22-7.84,12.48
				c-0.34-0.06-0.93-0.17-2.03-0.38c1.14-2.39,2.05-4.54,3.17-6.59c1.89-3.46,3.92-6.84,5.88-10.26c2.05-3.58,4.05-7.18,6.14-10.73
				c0.25-0.43,0.9-0.62,1.52-0.76c-1,5.86-5.45,9.89-7.56,15.3c2.03-1.01,2.51,0.51,3.04,1.77c1.21,2.91,2.63,5.68,4.87,7.98
				c1.94,1.99,3.24,2.19,5.42,0.44C652.17,268.98,653.5,267.68,654.88,266.45z"/>
			<path d="M649.45,331.51c-0.01,0.11-0.01,0.22-0.02,0.32c-2.47,0-4.94,0-7.4,0c0.02-0.1,0.04-0.21,0.06-0.32
				C644.55,331.51,647,331.51,649.45,331.51z"/>
			<path class="vol1_cover_st0" d="M648.55,342.66c0.09,1.09-0.25,1.8-1.55,1.74c-1.24-0.05-2.2-0.35-2.25-1.82c-0.06-2.05,0.79-3.11,3.36-4.01
				C648.27,340.02,648.44,341.34,648.55,342.66z"/>
			<path d="M642.17,428c1.54,1.87,2.25,4.01,2.14,6.84c0.28,3.13-1.87,5.46-4.19,7.61c-1.34,1.23-4.02,0.82-5.23-0.59
				c-2.08-2.41-2.09-5.26-0.86-7.85c1.09-2.3,2.79-4.37,4.47-6.34C639.7,426.27,640.96,426.55,642.17,428z"/>
			<path d="M641.05,331.23c0.01,0.19,0.01,0.37,0.01,0.56c-10.44,0-20.88,0-31.31,0C620.16,330.15,630.61,331.26,641.05,331.23z"/>
			<path class="vol1_cover_st0" d="M639.12,408.45c0,0.01,0,0.02,0,0.03l-0.01,0.01c-0.01,0-0.02,0-0.03,0L639.12,408.45z"/>
			<path class="vol1_cover_st0" d="M639.12,408.45l-0.04,0.04c0.01-0.02,0.02-0.03,0.03-0.05C639.11,408.45,639.12,408.45,639.12,408.45z"/>
			<path d="M636.05,343.42c1.44,0.93,2.32,2.09,2.03,3.9c-0.31,1.85-1.46,3.13-3.66,3.8c0.28-0.54,0.42-0.86,0.6-1.15
				c2.18-3.5,1.25-6-2.73-7.2c-0.34-0.1-0.96,0.01-1.15,0.26c-1.02,1.25-1.93,2.58-3.07,4.14c0.94,0.83,2.03,1.66,2.95,2.66
				c0.41,0.44,0.45,1.2,0.66,1.82c-0.58-0.11-1.2-0.12-1.73-0.36c-0.4-0.17-0.67-0.64-1-0.96c-0.7-0.69-1.33-1.74-2.15-1.94
				c-0.65-0.16-1.52,0.81-2.34,1.16c-0.74,0.32-1.53,0.56-2.31,0.71c-1.25,0.23-1.43-0.71-1.24-1.52c0.27-1.11,0.66-2.25,1.27-3.21
				c0.64-1.02,0.54-1.68-0.1-2.65c-0.69-1.05-1-2.33-1.48-3.5c0.28-0.17,0.56-0.34,0.84-0.51c0.95,1.24,1.91,2.48,2.89,3.75
				c1.99-1.08,3.52-2.84,5.95-2.48c0.24,0.04,0.65-0.77,0.9-1.23c0.36-0.66,0.65-1.36,1.06-2.24c0.42,0.49,0.57,0.61,0.55,0.66
				C631.51,340.63,633.85,342,636.05,343.42z M629.29,343.08c0.21-0.3,0.08-0.83,0.1-1.26c-0.43,0.03-0.94-0.09-1.27,0.11
				c-0.96,0.56-1.85,1.25-2.71,1.86c0.61,0.67,1.07,1.17,1.76,1.93C627.95,344.77,628.69,343.97,629.29,343.08z M625.78,346.72
				c-0.68-0.54-1.1-0.89-1.69-1.36c-0.51,1.12-0.95,2.07-1.39,3.02c0.15,0.13,0.29,0.26,0.44,0.39
				C623.97,348.13,624.8,347.48,625.78,346.72z"/>
			<path class="vol1_cover_st0" d="M637.96,409.19c-0.03,0.17-0.07,0.33-0.1,0.5c-3.58,0.57-7.13,1.27-10.72,1.65
				c-2.69,0.29-5.42,0.13-8.12,0.28c-0.45,0.03-1.21,0.61-1.23,0.96c-0.05,1.17-0.68,1.54-1.66,1.88c-1.59,0.56-3.11,1.3-4.65,1.96
				l-0.22,0.02c-0.54-4.92-0.08-9.8,1.31-14.64c0.49-1.71,0.79-3.48,1.24-5.52C622.66,399.47,629.97,404.97,637.96,409.19z"/>
			<path d="M627.76,243.58c1.48,2.13,2.94,4.31,2.57,7.08c-0.18,0.08-0.36,0.16-0.54,0.24c-1.17-2.12-2.37-4.22-3.49-6.37
				c-0.15-0.29,0.02-1.04,0.24-1.15C626.86,243.23,627.58,243.33,627.76,243.58z"/>
			<path class="vol1_cover_st0" d="M629.39,341.82c-0.02,0.43,0.11,0.96-0.1,1.26c-0.6,0.89-1.34,1.69-2.12,2.64
				c-0.69-0.76-1.15-1.26-1.76-1.93c0.86-0.61,1.75-1.3,2.71-1.86C628.45,341.73,628.96,341.85,629.39,341.82z"/>
			<path class="vol1_cover_st0" d="M626.5,451.67c0.24-0.07,1.05,0.68,1.03,1.02c-0.17,3.18-0.29,6.41-2.98,8.95
				c-0.48-0.26-1.02-0.57-1.58-0.84c-0.97-0.46-1.2-1.04-0.68-2.07c0.31-0.61,0.22-1.43,0.32-2.16c-0.24-0.05-0.47-0.11-0.7-0.17
				c-0.43,0.75-0.86,1.5-1.38,2.43c-0.99-1.09-1.98-2.17-2.86-3.14C619.52,451.62,623.42,452.57,626.5,451.67z"/>
			<path class="vol1_cover_st0" d="M625.96,463.73C625.84,463.71,625.89,463.7,625.96,463.73L625.96,463.73z"/>
			<path class="vol1_cover_st0" d="M624.09,345.36c0.59,0.47,1.01,0.82,1.69,1.36c-0.98,0.76-1.81,1.41-2.64,2.05
				c-0.15-0.13-0.29-0.26-0.44-0.39C623.14,347.43,623.58,346.48,624.09,345.36z"/>
			<path class="vol1_cover_st0" d="M621.1,461.04c0.95,0.58,1.87,1.15,2.95,1.81c-1.57,2.47-3.55,4.42-6.03,5.69c-1.77,0.92-3.78,1.42-5.74,1.9
				c-1.83,0.45-2.71-0.43-2.52-2.33c0.36-3.64,2.47-6.44,4.59-9.2c0.65-0.85,1.65-1.43,2.54-2.18c0.79,0.84,1.82,1.86,2.71,2.98
				c0.2,0.26,0.06,0.99-0.16,1.35c-0.97,1.58-2.03,3.1-3.05,4.63C617.85,466.37,619.71,464.56,621.1,461.04z"/>
			<path d="M611.98,242.76c3.14,0.28,3.93,1.26,3.87,5.39c-0.09,5.89-1.71,11.36-4.87,16.33c-0.32,0.51-1.14,1.2-1.48,1.08
				c-0.6-0.2-1.31-0.91-1.42-1.51c-0.37-1.98-0.49-4-0.7-6.01c0.2-0.02,0.41-0.05,0.61-0.07c0.4,1.75,0.8,3.5,1.21,5.26
				c0.16,0.02,0.32,0.03,0.48,0.05c0.5-1.01,1.05-2.01,1.5-3.05c1.72-4.03,2.78-8.22,2.93-12.62c0.02-0.58,0.13-1.25-0.11-1.71
				c-0.32-0.6-0.94-1.45-1.45-1.45c-0.6-0.01-1.56,0.62-1.78,1.2c-1.09,2.87-2.1,5.78-2.93,8.73c-0.4,1.44-0.99,1.28-2.14,0.68
				c0.96-3.11,1.91-6.17,2.96-9.55c-1.71,1.06-3.17,1.97-4.64,2.87c-0.94,0.58-1.86,1.19-2.84,1.69c-0.26,0.14-0.7-0.06-1.05-0.11
				c0.14-0.38,0.16-0.94,0.43-1.11c2.64-1.59,5.44-2.94,7.91-4.75c1.17-0.86,1.73-2.56,2.53-3.91c0.3-0.49,0.5-1.04,0.84-1.79
				C613.27,240.09,611.9,241.42,611.98,242.76z"/>
			<path d="M609.23,344.83c-0.16,0.16-0.32,0.31-0.49,0.46c-1.08-1.21-2.16-2.43-3.38-3.81
				C607.15,341.3,608.73,342.81,609.23,344.83z"/>
			<path d="M600.74,332.28c0.01,0.15,0.01,0.29,0.01,0.43c-2.55,0.28-5.11,0.5-7.65,0.84c-6.62,0.86-13.22,1.86-19.85,2.63
				c-5.18,0.6-10.38,1.21-15.58,1.32c-3.35,0.07-6.72-0.76-10.08-1.19c0.02-0.28,0.04-0.56,0.06-0.84c0.93,0.04,1.9-0.05,2.8,0.16
				c7.88,1.82,15.69,0.63,23.51-0.42c3.32-0.45,6.66-0.79,9.99-1.27c3.46-0.5,6.9-1.22,10.38-1.61
				C596.44,332.09,598.6,332.28,600.74,332.28z"/>
			<path d="M594.94,349.41c0.2,0.14,0.4,0.29,0.61,0.43c-0.25,0.61-0.41,1.28-0.78,1.81c-0.39,0.56-0.93,1.05-1.48,1.46
				c-0.56,0.42-1.3,1.08-1.8,0.96c-0.54-0.14-1.19-1.02-1.25-1.64c-0.38-3.32-0.61-6.66-0.8-10c-0.02-0.38,0.59-0.8,0.9-1.2
				c0.31,0.44,0.86,0.88,0.87,1.33c0.03,1.91-0.18,3.82-0.14,5.72c0.03,1.24,0.34,2.48,0.59,4.12
				C593,351.18,593.97,350.29,594.94,349.41z"/>
			<path d="M624.95,570.15c-22.32,4.33-44.89,6.18-67.59,6.53C579.99,575.56,602.55,573.66,624.95,570.15z"/>
			<path d="M576.61,240.39c4.02,3.87,7.26,8.19,6.87,14.23c-0.15,2.41-0.71,4.68-1.97,6.77c-2.82,4.68-5.84,9.26-11.17,11.33
				c-4.35,1.69-8.8,3.45-13.68,2.53c-0.17-0.03-0.32-0.11-0.47-0.17c-0.01-0.12-0.01-0.23-0.02-0.35c0.78-0.14,1.56-0.29,2.61-0.48
				c-2.1-0.99-4.05-1.8-5.88-2.81c-3.6-1.99-5.72-5.1-6.77-9.07c-1.15-4.37-1.62-8.76-1.62-13.27c-0.01-3.94,1.58-6.76,4.74-8.93
				c4.33-2.98,8.99-3.87,14.28-3.58c3.15,0.18,6.16,0.46,9.08,1.5C574.05,238.6,575.53,239.35,576.61,240.39z M581.66,256.61
				c1.81-6.4-3.11-14.33-8.11-16.49c-7.01-3.02-14.29-3.47-21.4-0.04c-4.16,2-7.26,4.78-6.38,9.61c-0.31,5.03,0.85,9.43,2.03,13.81
				c0.78,2.88,2.77,4.99,5.26,6.5c2.36,1.43,4.87,2.62,7.32,3.9c0.18,0.1,0.47,0.08,0.67,0.02c3.17-0.92,6.56-1.41,9.44-2.9
				C576.33,268.01,579.87,262.95,581.66,256.61z"/>
			<path class="vol1_cover_st0" d="M573.55,240.12c5,2.16,9.92,10.09,8.11,16.49c-1.79,6.34-5.33,11.4-11.17,14.41
				c-2.88,1.49-6.27,1.98-9.44,2.9c-0.2,0.06-0.49,0.08-0.67-0.02c-2.45-1.28-4.96-2.47-7.32-3.9c-2.49-1.51-4.48-3.62-5.26-6.5
				c-1.18-4.38-2.34-8.78-2.03-13.81c-0.88-4.83,2.22-7.61,6.38-9.61C559.26,236.65,566.54,237.1,573.55,240.12z M563.76,265.04
				c0-0.73,0.06-1.46-0.02-2.18c-0.37-3.53-0.76-7.05-1.21-10.56c-0.3-2.41-0.68-4.82-1.13-7.21c-0.09-0.49-0.6-0.9-0.92-1.35
				c-0.19,0.14-0.38,0.28-0.57,0.42c0.07,0.86,0.09,1.73,0.2,2.58c0.69,5.63,1.38,11.26,2.14,16.88c0.08,0.58,0.59,1.1,0.9,1.65
				C563.35,265.19,563.55,265.11,563.76,265.04z"/>
			<path d="M567.61,536.76c0.68,1.81,0.25,4.1,0.07,6.16c-0.38,4.45-0.92,8.88-1.4,13.32c-0.07,0.62-0.22,1.22-0.34,1.83
				c-0.15-0.02-0.3-0.03-0.45-0.05c0.3-4.36,0.56-8.73,0.9-13.08c0.14-1.74,0.52-3.45,0.64-5.18c0.05-0.76-0.11-1.63-0.46-2.3
				c-1-1.87-2.22-3.63-3.21-5.51c-0.5-0.94-0.7-2.04-1.03-3.07c0.25-0.08,0.5-0.17,0.75-0.25
				C564.63,531.32,566.54,533.88,567.61,536.76z"/>
			<path d="M563.74,262.86c0.08,0.72,0.02,1.45,0.02,2.18c-0.21,0.07-0.41,0.15-0.61,0.23c-0.31-0.55-0.82-1.07-0.9-1.65
				c-0.76-5.62-1.45-11.25-2.14-16.88c-0.11-0.85-0.13-1.72-0.2-2.58c0.19-0.14,0.38-0.28,0.57-0.42c0.32,0.45,0.83,0.86,0.92,1.35
				c0.45,2.39,0.83,4.8,1.13,7.21C562.98,255.81,563.37,259.33,563.74,262.86z"/>
			<path d="M559.78,505.19c-0.22,0.03-0.44,0.07-0.65,0.1c-0.31-2.66-0.58-5.33-0.94-7.99c-0.34-2.63-0.8-5.25-1.15-7.88
				c-0.28-2.18-0.39-4.39-0.72-6.56c-1.07-6.93-2.23-13.83-3.29-20.76c-0.8-5.2-1.5-10.42-2.28-15.63
				c-0.51-3.43-1.22-6.84-1.62-10.29c-0.66-5.63-1.14-11.29-1.68-16.94c-0.03-0.31,0.09-0.63,0.57-0.97
				c0.18,2.04,0.36,4.08,0.55,6.11c0.27,2.88,0.47,5.76,0.85,8.62c0.73,5.46,1.53,10.91,2.37,16.35c0.45,2.89,1.08,5.75,1.54,8.63
				c0.65,4.1,1.2,8.22,1.84,12.32c0.65,4.11,1.49,8.19,2.02,12.31c0.76,5.92,1.3,11.86,1.96,17.79
				C559.32,502,559.56,503.59,559.78,505.19z"/>
			<path d="M547.5,409.46c0.17,2.62,0.35,5.24,0.53,7.86c-0.27,0.01-0.54,0.02-0.81,0.03c0-2.62,0-5.24,0-7.86
				C547.31,409.48,547.41,409.47,547.5,409.46z"/>
			<path d="M548.01,394.74c0.02,0.35-0.43,0.73-0.66,1.09c-0.14-0.09-0.27-0.18-0.4-0.28c0.67-4.02-0.39-8.28-2.21-9.32
				c0.5,0.08,1.16,0,1.47,0.29c0.53,0.48,1.08,1.17,1.18,1.84C547.72,390.47,547.88,392.61,548.01,394.74z"/>
			<path d="M547.76,396.73c0,3.33,0,6.66,0,9.99C546.41,403.38,547.1,400.05,547.76,396.73z"/>
		</g>
		<g>
		</g>
	</g>
</g>

</svg>
