<?xml version="1.0" encoding="utf-8"?>
<!-- Generator: Adobe Illustrator 26.3.1, SVG Export Plug-In . SVG Version: 6.00 Build 0)  -->
<svg version="1.1" xmlns="http://www.w3.org/2000/svg" xmlns:xlink="http://www.w3.org/1999/xlink" x="0px" y="0px"
	 viewBox="0 0 1366 768" style="enable-background:new 0 0 1366 768;" xml:space="preserve">
<style type="text/css">
	.volume_1_st0{fill:#FFFFFF;}
	.volume_1_st1{fill:none;stroke:#ffffff;stroke-width:56.6929;stroke-miterlimit:10;}
</style>
<g id="base">
	<g>
		<path class="volume_1_st0" d="M458,697.75c0-209.25,0-418.5,0-627.75c150,0,300,0,450,0c0,209.25,0,418.5,0,627.75
			C758,697.75,608,697.75,458,697.75z M701.68,595.62c0.4,0.25,0.77,0.6,1.2,0.75c4.34,1.52,8.68,3.01,13.04,4.48
			c0.36,0.12,0.8,0.02,1.74,0.02c-0.87-0.76-1.28-1.36-1.83-1.55c-2.74-0.95-5.48-1.91-8.28-2.64c-1.92-0.51-3.94-0.67-5.92-0.99
			c-0.45-0.33-0.9-0.94-1.33-0.93c-6.52,0.18-13.05,0.45-19.57,0.7c5.01,0.29,9.99,0.31,14.97,0.29
			C697.7,595.73,699.69,595.66,701.68,595.62z M852.51,350.86c-0.21,0.62-0.56,1.23-0.62,1.87c-0.23,2.87-0.33,5.76-0.57,8.63
			c-0.36,4.31-0.83,8.62-1.18,12.94c-0.25,3.08-0.4,6.17-0.55,9.26c-0.02,0.36,0.23,0.73,0.35,1.1c0.46-0.5,0.6-0.97,0.64-1.44
			c0.57-8.42,1.13-16.84,1.66-25.26c0.15-2.35,0.16-4.71,0.24-7.07c0.27-0.83,0.7-1.64,0.8-2.5c1.01-8.74,1.81-17.51,2.98-26.23
			c1.06-7.96,2.55-15.87,3.74-23.82c2.14-14.22,4.2-28.45,6.31-42.67c0.47-3.13,1.04-6.24,1.57-9.36c-0.22-0.04-0.45-0.07-0.67-0.11
			c-0.67,4.17-1.31,8.35-2.03,12.52c-0.96,5.57-2.09,11.12-2.95,16.7c-1.27,8.25-2.36,16.53-3.55,24.79
			c-0.75,5.16-1.57,10.31-2.34,15.47c-0.76,5.08-1.56,10.15-2.2,15.24c-0.77,6.06-1.4,12.14-2.04,18.21
			C852.03,349.68,852.37,350.28,852.51,350.86z M627.06,396.01c-2.58-1.62-5.08-3.38-7.75-4.84c-7.53-4.12-15.11-8.14-22.71-12.12
			c-1.11-0.58-2.44-0.73-4.18-1.23c-1.04,7.06-2.3,13.57-2.85,20.14c-0.34,4.02,0.4,8.14,0.69,12.21c0.1,1.38,0.88,3,0.39,4.09
			c-1.39,3.09-3.24,5.99-4.96,8.92c-2.83,4.8-3.24,9.93-0.63,14.7c3.46,6.33,7.61,12.28,11.39,18.27c-2.38,3.63-5.1,7.4-7.37,11.43
			c-1.01,1.79-1.34,4.08-1.52,6.18c-0.22,2.59,0.74,3.68,3.31,3.78c4.24,0.17,8.33-0.85,11.72-3.44c2.68-2.04,4.97-4.6,7.33-6.84
			c4.1,1.62,8.49,3.08,12.63,5.06c6.11,2.91,12.72,3.23,19.19,3.92c7.47,0.79,15.02,1.11,22.53,1.05
			c5.98-0.05,11.96-0.98,18.13-1.54c0.03,0.24,0.09,0.89,0.21,1.53c0.83,4.41,2,8.82,6.34,11.01c3.55,1.79,7.41,3.06,11.23,4.23
			c3.48,1.07,7.17,1.47,10.64,2.58c2.87,0.91,5.75,2.13,7.42,4.81c-1.87,1.65-3.61,3.34-5.52,4.82c-2.86,2.21-5.63,4.69-8.84,6.24
			c-2.51,1.21-5.61,1.17-8.39,1.67c-0.31,0.79-0.54,1.56-0.88,2.27c-1.77,3.72-0.03,10.32,4.78,11.94
			c5.56,1.88,13.29-0.45,16.98-5.1c1.82-2.29,3.96-4.33,5.96-6.48c0.24,0.02,0.48,0.05,0.72,0.07c0.71,3.31,1.46,6.61,2.1,9.94
			c0.62,3.2,3.41,6.56,6,6.84c1.96,0.21,3.95,0.39,5.9,0.25c5.06-0.35,9.17-2.37,10.77-7.55c1.97-6.38,3.65-12.84,2.02-19.62
			c-0.21-0.88-0.17-1.83-0.23-2.68c4.46,0.45,8.59,0.97,12.75,1.26c4.62,0.33,9.27,0.37,13.9,0.69c2.6,0.18,3.34,1.35,3.89,3.82
			c1.11,5-0.04,9.86-0.92,14.64c-0.87,4.73,0.61,8.45,3.2,12.04c0.36,0.5,1.05,1.07,1.59,1.07c2.94,0,6.18,0.58,8.76-0.45
			c4.35-1.73,8.45-4.53,10.87-8.66c2.57-4.37,4.38-9.18,6.5-13.81c0.99-2.16,1.95-4.35,3.17-7.06c0.62,1.47,1.06,2.25,1.3,3.1
			c0.91,3.22,1.61,6.51,2.65,9.69c1.26,3.88,2.94,7.61,6.83,9.63c3.26,1.69,9,0.94,9.86-4.6c0.54-3.48-0.1-6.85-1.39-10.09
			c-2.75-6.91-8.38-11.12-14.25-15.05c-1.38-0.92-1.98-1.76-1.61-3.46c0.48-2.17,0.5-4.45,1.03-6.6c1.29-5.2,0.94-10.48-0.96-15.21
			c-1.74-4.31-0.29-6.45,2.97-8.5c0.5-0.32,0.89-0.81,1.39-1.14c1.82-1.2,3.67-2.37,4.87-3.14c1.8-1.84,2.98-3.38,4.48-4.52
			c5.82-4.44,10.45-9.77,12.99-16.73c1.85-5.06-3.4-9.91-7.25-9.33c-5.95,0.9-10.96,3.74-14.93,7.92
			c-4.4,4.62-8.07,9.93-12.15,14.86c-1.65,2-3.47,3.88-5.37,5.64c-0.59,0.55-1.73,0.8-2.58,0.72c-5.86-0.51-11.69-1.38-17.55-1.67
			c-5.58-0.28-11.18-0.01-16.78,0.03c-7.25,0.05-14.51-0.07-21.76,0.21c-7.54,0.29-15.07,1.1-22.61,1.4
			c-5.95,0.24-11.93,0.05-17.29,0.05c2.38-4.69,5.02-9.91,7.67-15.13c2.34-4.6,2.79-9.68,3.9-14.62c1.33-5.85,1.11-11.59-0.01-17.34
			c-0.83-4.24-1.56-8.49-1.47-12.8c0.12-5.38,0.52-10.75,0.74-16.12c0.03-0.68-0.1-1.73-0.52-1.96c-0.47-0.26-1.45,0.03-2.03,0.38
			c-6.33,3.83-12.69,7.61-18.89,11.64c-1.95,1.27-3.75,1.51-5.9,1.1c-4.03-0.78-8.06-1.68-12.14-2.08
			c-5.19-0.51-10.42-0.65-15.64-0.79c-4.47-0.12-8.95-0.01-13.43,0.01c-3.66,0.02-7.31,0.08-10.97,0.12
			c-3.8,0.04-7.24,0.87-9.46,4.34L627.06,396.01z M494.53,152.12c0.53,2.14,1.13,4.23,1.55,6.35c0.26,1.29,0.2,2.64,0.37,3.96
			c0.49,3.67,1.41,7.33,1.47,11c0.12,7.16-0.39,14.32-0.33,21.48c0.1,11.5,0.39,23,0.73,34.49c0.24,8.22,0.62,16.45,1.09,24.66
			c0.47,8.2,1.1,16.39,1.71,24.58c0.33,4.55,0.65,9.1,1.16,13.64c0.8,7.17,1.93,14.32,2.6,21.5c0.74,7.94,1.06,15.92,1.69,23.88
			c0.61,7.74,1.42,15.47,2.06,23.21c0.16,1.94,0.02,3.91,0.02,5.87c0.28,0.02,0.55,0.03,0.83,0.05c0.12-0.95,0.37-1.91,0.33-2.85
			c-0.28-6.05-0.56-12.1-0.98-18.14c-0.67-9.47-1.36-18.94-2.21-28.4c-0.85-9.45-2-18.88-2.86-28.33c-0.64-7.15-1-14.33-1.53-21.5
			c-0.75-10.14-1.79-20.26-2.24-30.41c-0.51-11.44-0.56-22.9-0.7-34.36c-0.09-7.49,0.15-14.97,0-22.46
			c-0.11-5.35-0.45-10.72-0.99-16.04c-0.31-3.08-0.3-3.54,2.82-3.92c4.45-0.54,8.91-1.16,13.38-1.35c9.85-0.43,19.7-0.67,29.55-0.88
			c10.99-0.23,21.99-0.21,32.97-0.53c8.51-0.25,17.01-0.87,25.51-1.35c4.02-0.23,8.05-0.48,12.07-0.75
			c6.92-0.47,13.83-1.05,20.75-1.44c7.63-0.42,15.27-0.85,22.92-0.96c9.32-0.13,18.65-0.07,27.98,0.16
			c4.6,0.12,9.19,0.76,13.78,1.25c4.15,0.44,8.37,0.64,12.41,1.58c6.42,1.49,12.89,2.07,19.43,2.34c8.29,0.34,16.58,0.61,24.86,1.07
			c3.26,0.18,6.51,0.71,9.74,1.22c4.68,0.74,9.31,1.81,14.01,2.38c4.73,0.58,9.51,0.67,14.26,1.08c7.21,0.63,14.39,1.76,21.61,1.95
			c8.57,0.23,17.09,0.69,25.48,2.46c6.02,1.27,11.97,2.85,17.93,4.4c0.7,0.18,1.52,1,1.73,1.7c0.59,1.92,1.01,3.91,1.3,5.9
			c1.43,9.89,2.94,19.77,4.14,29.68c0.63,5.25,0.83,10.56,0.98,15.85c0.16,5.43,0.04,10.87,0.04,16.13
			c-0.13,0.11,0.06,0.03,0.08-0.07c0.13-1.19,0.21-2.38,0.35-3.56c1.06-8.99,0.86-17.97-0.21-26.93c-0.47-3.96-1.3-7.87-1.86-11.81
			c-1.16-8.13-2.24-16.28-3.36-24.42c-0.27-1.97-0.87-3.46-3.3-3.8c-2.88-0.4-5.76-1.06-8.51-1.98c-9.8-3.29-19.9-4.4-30.17-4.85
			c-8.86-0.39-17.7-1.41-26.56-1.89c-8.98-0.48-17.92-1.25-26.72-3.17c-8.84-1.93-17.83-2.22-26.81-2.35
			c-7.7-0.11-15.35-0.56-22.98-1.65c-7.79-1.12-15.61-2.06-23.42-3.04c-12.91-1.62-25.86-1.52-38.82-1.02
			c-10.99,0.43-21.97,0.92-32.95,1.53c-8.43,0.46-16.85,1.24-25.29,1.7c-9.21,0.51-18.43,0.88-27.65,1.2
			c-5.21,0.18-10.43,0.07-15.64,0.19c-11.05,0.25-22.09,0.5-33.14,0.89c-5.13,0.18-10.25,0.59-15.35,1.08
			c-2.62,0.25-5.2,0.89-7.87,1.37C496.85,157.08,497.62,153.6,494.53,152.12z M512.54,335.41c0,0.25,0.01,0.5,0.01,0.75
			c0.55,0.17,1.11,0.53,1.64,0.49c2.67-0.18,5.36-0.36,8.01-0.73c6.67-0.93,13.3-2.18,19.99-2.88c6.16-0.64,12.37-0.71,18.56-1.08
			c7.95-0.48,15.89-1.11,23.84-1.48c7.56-0.34,15.12-0.41,22.69-0.63c3.87-0.11,7.73-0.38,11.6-0.45
			c6.14-0.11,12.28-0.03,18.41-0.17c3.3-0.08,6.6-0.62,9.9-0.63c2.27-0.01,4.53,0.64,6.8,0.83c4.46,0.36,8.94,0.58,13.4,0.91
			c5.13,0.38,10.26,0.76,15.38,1.26c5.61,0.55,11.2,1.36,16.81,1.83c6.54,0.55,13.1,0.86,19.65,1.27
			c5.29,0.33,10.58,0.75,15.88,0.95c5.27,0.19,10.56-0.11,15.81,0.28c7.5,0.56,14.95,1.9,22.46,2.27
			c7.29,0.36,14.61-0.09,21.92-0.15c10.14-0.09,20.28-0.3,30.41-0.18c5.96,0.07,11.91,0.73,17.88,1.03c1.1,0.06,2.22-0.34,3.33-0.52
			c-0.04-0.24-0.08-0.48-0.11-0.72c-0.49-0.06-0.97-0.15-1.46-0.18c-4.32-0.24-8.64-0.52-12.97-0.68
			c-8.82-0.33-17.64-0.86-26.47-0.82c-9.55,0.05-19.1,0.88-28.65,0.94c-5.4,0.04-10.81-0.78-16.22-1.21
			c-7.2-0.58-14.39-1.3-21.59-1.73c-5.58-0.34-11.19-0.23-16.78-0.5c-6.09-0.3-12.16-0.81-18.24-1.22
			c-4.08-0.28-8.18-0.45-12.25-0.85c-7.42-0.72-14.81-1.69-22.24-2.34c-4.97-0.43-9.98-0.48-14.97-0.7
			c-4.93-0.22-9.87-0.56-14.8-0.65c-3.08-0.06-6.17,0.3-9.26,0.34c-5.74,0.07-11.48-0.06-17.22,0.1c-7.15,0.19-14.3,0.55-21.45,0.9
			c-6.63,0.32-13.25,0.73-19.87,1.09c-10,0.55-20.01,0.93-30,1.67c-8.7,0.65-17.38,1.67-26.06,2.59
			C515.01,334.55,513.78,335.07,512.54,335.41z M520.54,224.21c6.51,2,12.37-0.34,18.1-2.53c6.86-2.63,10.76-8.52,14.39-14.54
			c1.59-2.63,2.31-5.46,2.55-8.47c0.64-7.77-3.49-13.38-8.59-18.41c-1.42-1.4-3.43-2.35-5.32-3.1c-3.87-1.52-7.93-1.77-12.11-2.02
			c-7.92-0.47-14.72,1.5-20.54,6.81c-2.66,2.43-3.37,5.64-3.43,9.13c-0.1,5.64,0.51,11.14,1.9,16.64
			c1.53,6.07,4.75,10.52,10.48,13.11c1.89,0.86,3.77,1.74,6.01,2.78C522.49,223.86,521.51,224.03,520.54,224.21z M647.78,213.99
			c-0.14-0.15-0.29-0.31-0.43-0.46c-1.82,1.62-3.57,3.33-5.47,4.85c-2.72,2.16-4.68,2.14-6.72-0.61c-2.38-3.21-4.33-6.74-6.34-10.21
			c-0.91-1.58-1.37-3.52-3.95-2.45c2.8-6.86,8.38-12.04,9.65-19.56c-0.88,0.34-1.75,0.79-2.16,1.51
			c-4.49,7.83-8.91,15.7-13.36,23.55c-2.04,3.6-4.76,6.87-5.36,11.41c0.83,0.18,1.58,0.35,2.14,0.47c3.17-5.51,4.95-11.56,9.96-16
			c0.55,1.06,0.97,1.76,1.27,2.5c1.69,4.13,3.84,7.94,7.29,10.88c2.48,2.12,6.18,2.41,8.21,0.38
			C644.43,218.33,646.04,216.09,647.78,213.99z M584.12,198.94c1.76,0.93,2.32,0.69,2.8-1.14c1.02-3.81,2.42-7.52,3.84-11.2
			c0.24-0.64,1.33-1.35,2-1.32c0.66,0.03,1.49,0.84,1.86,1.52c0.36,0.66,0.35,1.58,0.32,2.38c-0.17,5.81-1.61,11.33-3.87,16.64
			c-0.53,1.25-1.23,2.44-1.85,3.65c-0.21-0.03-0.41-0.06-0.62-0.08c-0.52-2.25-1.04-4.5-1.56-6.74c-1.05,2.94-0.57,5.79,0.38,8.51
			c0.64,1.84,2.24,1.88,3.3,0.21c4.17-6.51,6.32-13.67,6.42-21.38c0.07-5.26-0.86-6.38-4.88-6.9c0.23-1.67,0.46-3.35,0.69-5.02
			c-0.31-0.09-0.63-0.18-0.94-0.27c-0.34,0.62-0.69,1.24-1.02,1.87c-0.89,1.68-1.37,3.91-2.74,4.95c-2.89,2.19-6.29,3.7-9.39,5.63
			c-0.77,0.48-2.59,0.45-1.76,2.12c0.09,0.19,1.97-0.24,2.82-0.73c2.61-1.51,5.12-3.18,8.05-5.03
			C586.6,190.99,585.38,194.88,584.12,198.94z M619.41,304.17c-0.3-0.02-0.59-0.05-0.89-0.07c-0.34,0.28-0.91,0.52-0.98,0.85
			c-0.47,2.51-1.63,3.96-4.48,3.55c-0.59-0.08-1.32,0.61-1.95,1c-1,0.62-1.97,1.28-3.12,2.03c-0.73-1.04-1.29-1.98-1.98-2.82
			c-0.55-0.67-1.25-1.21-1.89-1.8c-0.06,0.86-0.14,1.73-0.18,2.59c-0.01,0.14,0.07,0.31,0.16,0.41c2.09,2.4,1.8,4.76,0.22,7.37
			c-0.56,0.92-0.26,2.37-0.35,3.58c1.02-0.09,2.04-0.17,3.06-0.27c0.37-0.04,0.77-0.04,1.1-0.18c1.15-0.5,2.44-1.67,3.38-1.42
			c1.11,0.29,1.91,1.77,2.85,2.73c0.26,0.27,0.49,0.59,0.81,0.77c0.6,0.35,1.24,0.67,1.91,0.86c0.1,0.03,0.67-0.76,0.58-1.03
			c-0.2-0.61-0.58-1.22-1.04-1.67c-1.24-1.22-2.56-2.35-3.8-3.46c1.68-2.11,3.09-3.9,4.9-6.18c1.76,1.35,4.03,2.45,5.36,4.24
			c1.92,2.59-1.16,4.62-1.94,7.3c2.59-1.11,4.17-2.58,4.59-5.09c0.38-2.33-0.78-3.78-2.61-5.01
			C620.32,310.56,616.71,309.02,619.41,304.17z M819.19,293.09c-1.07,0.66-1.58,1.06-2.14,1.3c-2.26,0.97-4.6,1.78-6.8,2.86
			c-7.25,3.57-14.69,4.79-22.55,2.24c-2.11-0.68-4.28-1.24-6.46-1.6c-3.82-0.64-7.68-0.99-11.49-1.62
			c-4.81-0.79-9.57-0.54-14.35,0.4c1.58,0.4,3.17,0.32,4.76,0.42c5.8,0.34,11.62,0.54,17.39,1.2c3.33,0.38,6.56,1.58,9.85,2.37
			c1.87,0.45,3.73,0.96,5.63,1.22c6.98,0.94,13.19-1.51,19.32-4.44c3.2-1.53,6.47-3.24,9.89-3.92c10.77-2.14,21.68-1.85,32.58-1.11
			c0.56,0.04,1.14-0.17,1.71-0.26c0-0.23,0-0.45,0-0.68c-1.06-0.18-2.12-0.48-3.18-0.53c-3.28-0.16-6.57-0.29-9.86-0.33
			c-3.64-0.04-7.3-0.11-10.93,0.1c-5.43,0.32-10.84,0.87-16.26,1.36c-1.12,0.1-2.22,0.38-3.33,0.58c0.05,0.15,0.09,0.3,0.14,0.45
			C814.91,293.09,816.73,293.09,819.19,293.09z M510.2,408.65c-0.19-0.04-0.38-0.08-0.57-0.12c-0.12,0.38-0.39,0.77-0.35,1.13
			c1.02,9.17,2,18.35,3.15,27.51c0.74,5.91,1.7,11.78,2.6,17.67c0.99,6.47,2.06,12.93,3.03,19.41c0.67,4.5,1.2,9.01,1.84,13.51
			c0.9,6.33,1.88,12.64,2.76,18.97c0.58,4.12,1.03,8.26,1.59,12.38c0.07,0.53,0.42,1.02,0.64,1.53c0.16-1.36-0.07-2.52-0.2-3.69
			c-0.98-8.73-1.85-17.47-2.95-26.18c-0.64-5.08-1.69-10.1-2.48-15.16c-0.85-5.42-1.56-10.86-2.42-16.27
			c-0.56-3.57-1.33-7.1-1.9-10.67c-0.96-6.05-1.87-12.12-2.72-18.19c-0.6-4.25-1.15-8.52-1.56-12.8
			C510.38,414.7,510.35,411.67,510.2,408.65z M779.07,323.24c-0.16,0.01-0.32,0.02-0.49,0.03c-0.22,0.94-0.56,1.87-0.6,2.81
			c-0.03,0.62,0.39,1.27,0.6,1.9c0.64-0.25,1.35-0.4,1.89-0.79c1.07-0.79,2.15-1.62,3.05-2.6c3.13-3.38,6.4-6.66,9.2-10.3
			c1.83-2.37,0.5-4.67-2.43-5.13c-0.57-0.09-1.12-0.32-1.39-0.4c-0.2-0.87-0.34-1.52-0.49-2.17c-0.48,0.42-0.94,0.87-1.46,1.24
			c-0.99,0.71-1.97,1.44-3.04,2.03c-2.74,1.5-5.53,2.93-8.3,4.38c0.19,0.39,0.38,0.78,0.57,1.16c3.04-0.59,5.43-2.64,8.26-4.14
			c-1.8,2.76-3.6,5.52-5.39,8.27c0.28,0.26,0.57,0.53,0.85,0.79c0.69-0.53,1.52-0.95,2.03-1.61c1.89-2.47,3.53-5.15,5.6-7.45
			c0.64-0.71,2.35-0.46,3.58-0.65c-0.12,1.02,0.13,2.35-0.42,3.02c-3.3,3.98-6.78,7.8-10.49,12.01
			C779.59,324.38,779.33,323.81,779.07,323.24z M646.82,320.25c0.59-0.17,1.31-0.19,1.74-0.55c2.23-1.91,4.75-3.98,3.97-7.25
			c-0.77-3.21-2.19-6.25-5.79-7.63c-3.28-1.25-6.42-0.77-9.63,0.1c-3.38,0.91-5.22,3.81-4.73,7.3c0.4,2.86,2.68,3.36,6.16,3.25
			c1.93-0.06,2.89-1.99,2.56-4.44c-0.23-1.73-0.46-3.47-0.79-5.93c2.52,0.69,4.76,0.95,6.63,1.93c1.24,0.65,2.1,2.24,2.84,3.57
			C652.07,314.74,648.15,316.96,646.82,320.25z M853.62,447.44c-0.27,0.09-0.54,0.18-0.81,0.28c0.84,2.37,1.38,4.9,2.56,7.08
			c3.21,5.96,4.4,12.11,2.92,18.77c-0.82,3.69-1.4,7.44-2.17,11.14c-2.04,9.82-2.95,19.77-3.5,29.76c-0.09,1.63,0,3.3,0.3,4.9
			c0.2,1.08,0.9,2.06,1.54,3.43c-0.35-2.29-0.95-4.05-0.83-5.75c0.57-7.67,1.07-15.36,2.12-22.97c0.89-6.48,2.38-12.89,3.82-19.28
			c1.42-6.29,1.4-12.31-1.76-18.17C856.21,453.67,855,450.51,853.62,447.44z M849.33,524.29c0.1,0.95,0.14,1.36,0.19,1.77
			c0.72,6.29,1.42,12.58,2.16,18.87c0.51,4.37,0.65,8.83,1.69,13.08c1.46,6,2.03,11.99,1.87,18.13c-0.15,5.61-0.03,11.22-0.03,16.84
			c0.31-0.67,0.49-1.41,0.5-2.16c0.06-3.69,0.03-7.39,0.13-11.08c0.13-4.84,0.44-9.67,0.52-14.5c0.03-1.98,0.15-4.18-0.6-5.92
			c-1.99-4.64-2.61-9.49-2.56-14.39c0.08-6.53-1.21-12.82-2.58-19.13C850.52,525.36,850,525.05,849.33,524.29z M522.01,612.14
			c29.16-0.41,58.16-2.8,86.86-8.38C580.09,608.27,551.11,610.76,522.01,612.14z M509.53,302.33c0.01,0.22,0.02,0.43,0.03,0.65
			c1.08,0.22,2.14,0.48,3.23,0.64c3.23,0.47,6.49,1.37,9.7,1.24c6.69-0.27,13.37-0.95,20.02-1.72c8.44-0.98,16.84-2.25,25.27-3.35
			c3.33-0.43,6.67-0.72,10.01-1.08c-0.01-0.18-0.01-0.37-0.02-0.55c-2.77,0-5.56-0.24-8.3,0.06c-3.8,0.42-7.54,1.36-11.34,1.89
			c-4.86,0.68-9.75,1.13-14.62,1.78c-10.27,1.37-20.52,2.92-30.85,0.47C511.67,302.13,510.58,302.33,509.53,302.33z M706.32,316.2
			c-0.69,0.47-1.38,0.95-2.07,1.41c-2.18,1.45-3.39,1.14-4.95-1c-1.33-1.82-2.8-3.53-4.29-5.39c1.51-2.15,4.31-3.79,4.96-7.48
			c-0.87,0.53-1.4,0.7-1.68,1.05c-3.49,4.44-6.97,8.89-10.38,13.39c-0.49,0.64-1.65,1.58-0.23,2.4c1.25,0.72,1.59-0.43,2.12-1.26
			c1.33-2.11,2.74-4.16,4.52-6.84c1.37,2.2,2.38,3.8,3.38,5.4c0.3,0.49,0.45,1.17,0.88,1.47
			C700.64,320.83,705.29,320.33,706.32,316.2z M812.97,427.57c-10.57-2.18-21.92,10.12-21.43,17.94
			C796.27,436.05,802.43,429.13,812.97,427.57z M731.61,318.05c-0.23-0.18-0.45-0.35-0.68-0.52c-3.08,1.35-6.18,2.21-9.55,0.57
			c2.17-4.95,6.6-8.64,6.62-14.32c-0.61,0.21-0.97,0.55-1.2,0.96c-1.43,2.51-2.81,5.04-4.24,7.54c-0.95,1.68-2.01,3.3-2.92,5.01
			c-0.62,1.16-0.8,2.61,0.93,2.72c3.01,0.19,6.06,0.1,9.07-0.14C730.34,319.81,730.95,318.68,731.61,318.05z M532.35,587.91
			c0.27,0.04,0.53,0.09,0.8,0.13c0.11-0.62,0.27-1.23,0.34-1.85c0.62-5.78,1.23-11.56,1.84-17.34c0.47-4.49,0.54-8.87-2.42-12.74
			c-1.38-1.82-2.53-3.81-4.13-6.23c-0.32,2.7,0.51,4.23,1.64,5.8c2.8,3.9,4.71,7.87,3.75,13.14
			C533.03,575.08,532.91,581.54,532.35,587.91z M566.92,323.96c-0.28-0.13-0.57-0.26-0.85-0.39c-0.26-1.58-0.69-3.15-0.73-4.74
			c-0.06-2.53,0.21-5.07,0.18-7.61c-0.01-0.52-0.68-1.04-1.05-1.56c-0.42,0.42-1.18,0.83-1.19,1.26c-0.15,4.63-0.59,9.3,1.16,13.77
			c0.73,1.86,2.06,2.15,3.41,0.76c0.78-0.8,1.64-1.54,2.28-2.45c0.47-0.67,0.64-1.55,0.94-2.33c-0.22-0.14-0.44-0.28-0.66-0.43
			c-0.66,0.51-1.39,0.95-1.95,1.56C567.86,322.44,567.43,323.23,566.92,323.96z M629.54,297.6c0-0.27-0.01-0.54-0.01-0.8
			c-13.53,0.03-27.08-1.38-40.59,0.8C602.47,297.6,616.01,297.6,629.54,297.6z M623.88,602.07c15.76-1.72,31.53-3.43,47.29-5.15
			C655.24,596.97,639.55,599.24,623.88,602.07z M750.55,316.66c0.15,0.38,0.29,0.76,0.44,1.14c1.19-0.38,2.4-0.67,3.55-1.15
			c1.42-0.59,2.77-1.38,4.19-1.99c0.39-0.17,0.98-0.09,1.38,0.08c0.14,0.06,0.14,0.87-0.05,1.17c-1.37,2.19-2.8,4.34-4.21,6.51
			c-0.37,0.57-0.7,1.16-1.05,1.74c4.24-1.07,6.42-4.04,7.56-7.64c0.92-2.89-0.95-4.56-3.84-3.54
			C755.78,313.98,753.2,315.42,750.55,316.66z M818.2,429.03c-0.28-0.06-0.56-0.12-0.85-0.18c-4.82,3.97-9.65,7.92-14.44,11.94
			c-0.38,0.32-0.41,1.07-0.6,1.62c0.61-0.08,1.37,0.04,1.79-0.29c2.65-2.04,5.23-4.17,7.82-6.28c1.96-1.6,3.95-3.15,5.81-4.85
			C818.15,430.61,818.06,429.7,818.2,429.03z M678.21,312.43c0.23,0.15,0.45,0.31,0.68,0.46c-0.09,0.96,0.07,2.03-0.31,2.85
			c-0.82,1.74-1.96,3.33-2.88,5.03c-0.19,0.36-0.01,0.93,0.01,1.4c0.41-0.07,0.95,0,1.2-0.24c2.14-2.03,3.83-4.37,4.37-7.33
			c0.34-1.83-1.15-3.76-2.83-3.6c-2.95,0.28-5.1,1.92-6.68,4.3c0.09,0.19,0.18,0.38,0.27,0.57
			C674.09,314.73,676.15,313.58,678.21,312.43z M806.71,313.93c0.11,1.93,0.12,3.45,0.31,4.96c0.17,1.3,0.54,2.57,0.82,3.86
			c1.26-0.65,2.53-1.29,3.78-1.97c0.17-0.09,0.26-0.34,0.5-0.68c-0.9,0.11-1.64,0.2-2.21,0.26
			C808.7,318.35,810.28,315.43,806.71,313.93z M615.32,194.02c0.82-3.09-1.16-8.96-3.08-10.05c-0.38-0.22-1.12-0.23-1.43,0
			c-0.28,0.21-0.44,1.02-0.26,1.36C612.01,188.11,613.57,190.85,615.32,194.02z M849.32,415.96c0.16-0.02,0.32-0.04,0.48-0.06
			c0-9,0-18,0-27c-0.16,0-0.32,0.01-0.48,0.01C849.32,397.94,849.32,406.95,849.32,415.96z M508.94,379.69
			c0.22-0.09,0.93-0.2,0.95-0.39c0.36-3.66,0.37-7.33-1.4-10.67c-0.37-0.7-1.56-0.98-2.37-1.45
			C509.64,370.94,508.18,375.45,508.94,379.69z M510.01,380.93c-0.36-0.02-0.71-0.03-1.07-0.05c0,4.76,0,9.52,0,14.28
			c0.11,0.02,0.21,0.03,0.32,0.05C509.52,390.45,509.76,385.69,510.01,380.93z M795.53,310.29c-0.23,0.3-0.9,0.82-0.81,1.11
			c0.52,1.67,1.16,3.31,1.91,4.89c0.14,0.29,0.96,0.26,1.47,0.37c-0.32-1.68-0.59-3.37-1-5.03c-0.12-0.47-0.68-0.84-1.05-1.24
			C796,310.34,795.9,310.36,795.53,310.29z M825.89,318.99c2.02-1.38,2.25-3.12,1.22-5.1c-0.26-0.51-1.12-0.71-1.71-1.05
			c-0.21,0.16-0.43,0.32-0.64,0.49C825.14,315.21,825.52,317.1,825.89,318.99z M509.39,397.31c-0.23,0-0.46,0-0.69,0
			c-0.04,3.43-0.65,6.9,0.72,10.23c0.21-0.01,0.43-0.03,0.64-0.04C509.83,404.1,509.61,400.7,509.39,397.31z M718.68,305.51
			c-0.35,0.16-0.7,0.32-1.05,0.47c0.84,1.96,1.64,3.94,2.58,5.85c0.1,0.19,1.09-0.06,1.97-0.13
			C720.86,309.37,719.77,307.44,718.68,305.51z M588.79,314.36c-1.03-2.93-2.9-4.65-4.67-4.43
			C585.54,312.82,586.94,314.2,588.79,314.36z M758.86,306.75c-1.99-2.47-2.69-2.86-4.53-2.55
			C755.19,306.94,756.96,308,758.86,306.75z M673.67,303.14c0.47,2.02,2.98,4.18,3.99,4.03c0.31-0.05,0.79-0.3,0.82-0.52
			c0.06-0.37-0.06-0.98-0.31-1.14C676.89,304.75,675.54,304.11,673.67,303.14z M739.93,296.4c0,0.14,0,0.28,0,0.43
			c3.27,0,6.54,0,9.81,0c0-0.14,0.01-0.28,0.01-0.43C746.48,296.4,743.2,296.4,739.93,296.4z M630.86,297.18
			c-0.02,0.13-0.04,0.26-0.07,0.39c3.17,0,6.34,0,9.51,0c0.01-0.13,0.02-0.26,0.03-0.39C637.17,297.18,634.02,297.18,630.86,297.18z
			 M737.55,610.66c-0.05,0.18-0.1,0.36-0.15,0.55c3.02,0.85,6.05,1.7,9.07,2.55c0.04-0.16,0.09-0.31,0.13-0.47
			C743.58,612.41,740.57,611.54,737.55,610.66z M759.36,614.54c0.03-0.17,0.06-0.34,0.09-0.51c-2.92,0-5.85,0-8.77,0
			c0,0.17,0,0.34,0,0.51C753.57,614.54,756.46,614.54,759.36,614.54z"/>
		<path d="M627.01,396.05c2.22-3.48,5.66-4.3,9.46-4.34c3.66-0.04,7.31-0.1,10.97-0.12c4.48-0.03,8.96-0.13,13.43-0.01
			c5.22,0.14,10.45,0.28,15.64,0.79c4.08,0.4,8.11,1.3,12.14,2.08c2.16,0.42,3.95,0.17,5.9-1.1c6.2-4.03,12.56-7.82,18.89-11.64
			c0.58-0.35,1.56-0.64,2.03-0.38c0.42,0.23,0.55,1.28,0.52,1.96c-0.22,5.38-0.61,10.74-0.74,16.12c-0.1,4.31,0.64,8.55,1.47,12.8
			c1.12,5.74,1.34,11.49,0.01,17.34c-1.12,4.93-1.57,10.02-3.9,14.62c-2.65,5.22-5.29,10.44-7.67,15.13
			c5.36,0,11.34,0.19,17.29-0.05c7.54-0.3,15.07-1.12,22.61-1.4c7.25-0.27,14.51-0.16,21.76-0.21c5.59-0.04,11.2-0.31,16.78-0.03
			c5.86,0.29,11.7,1.16,17.55,1.67c0.85,0.07,1.99-0.17,2.58-0.72c1.9-1.76,3.72-3.64,5.37-5.64c4.08-4.93,7.75-10.24,12.15-14.86
			c3.98-4.19,8.99-7.03,14.93-7.92c3.86-0.58,9.1,4.27,7.25,9.33c-2.54,6.96-7.16,12.29-12.99,16.73c-1.49,1.14-2.68,2.68-4.48,4.52
			c-1.19,0.77-3.04,1.93-4.87,3.14c-0.5,0.33-0.88,0.82-1.39,1.14c-3.25,2.05-4.7,4.18-2.97,8.5c1.9,4.73,2.25,10.01,0.96,15.21
			c-0.53,2.15-0.55,4.43-1.03,6.6c-0.37,1.69,0.23,2.53,1.61,3.46c5.87,3.93,11.51,8.14,14.25,15.05c1.29,3.25,1.93,6.62,1.39,10.09
			c-0.86,5.54-6.6,6.29-9.86,4.6c-3.89-2.01-5.57-5.74-6.83-9.63c-1.03-3.18-1.74-6.46-2.65-9.69c-0.24-0.84-0.67-1.63-1.3-3.1
			c-1.22,2.72-2.17,4.9-3.17,7.06c-2.12,4.63-3.94,9.44-6.5,13.81c-2.43,4.13-6.52,6.94-10.87,8.66c-2.58,1.02-5.82,0.45-8.76,0.45
			c-0.54,0-1.23-0.57-1.59-1.07c-2.59-3.59-4.07-7.31-3.2-12.04c0.88-4.78,2.03-9.64,0.92-14.64c-0.55-2.47-1.3-3.64-3.89-3.82
			c-4.63-0.32-9.27-0.37-13.9-0.69c-4.15-0.29-8.29-0.81-12.75-1.26c0.07,0.85,0.02,1.8,0.23,2.68c1.63,6.78-0.05,13.24-2.02,19.62
			c-1.6,5.18-5.71,7.21-10.77,7.55c-1.95,0.13-3.95-0.04-5.9-0.25c-2.59-0.28-5.38-3.64-6-6.84c-0.64-3.32-1.4-6.63-2.1-9.94
			c-0.24-0.02-0.48-0.05-0.72-0.07c-2,2.15-4.14,4.19-5.96,6.48c-3.69,4.64-11.42,6.98-16.98,5.1c-4.81-1.62-6.55-8.23-4.78-11.94
			c0.34-0.71,0.58-1.48,0.88-2.27c2.78-0.5,5.88-0.46,8.39-1.67c3.21-1.55,5.98-4.03,8.84-6.24c1.91-1.47,3.65-3.17,5.52-4.82
			c-1.67-2.68-4.55-3.89-7.42-4.81c-3.47-1.1-7.15-1.51-10.64-2.58c-3.82-1.17-7.68-2.44-11.23-4.23c-4.33-2.19-5.5-6.6-6.34-11.01
			c-0.12-0.64-0.18-1.3-0.21-1.53c-6.17,0.56-12.14,1.49-18.13,1.54c-7.51,0.06-15.06-0.26-22.53-1.05
			c-6.48-0.69-13.08-1.01-19.19-3.92c-4.14-1.98-8.53-3.44-12.63-5.06c-2.37,2.24-4.65,4.79-7.33,6.84
			c-3.39,2.58-7.47,3.6-11.72,3.44c-2.58-0.1-3.54-1.19-3.31-3.78c0.18-2.1,0.51-4.39,1.52-6.18c2.27-4.03,5-7.8,7.37-11.43
			c-3.78-6-7.93-11.95-11.39-18.27c-2.61-4.77-2.2-9.9,0.63-14.7c1.73-2.94,3.57-5.83,4.96-8.92c0.49-1.08-0.29-2.71-0.39-4.09
			c-0.29-4.07-1.03-8.19-0.69-12.21c0.55-6.57,1.81-13.09,2.85-20.14c1.75,0.5,3.08,0.65,4.18,1.23c7.6,3.98,15.18,8,22.71,12.12
			c2.67,1.46,5.17,3.22,7.75,4.84c-0.07,0.4-0.14,0.81-0.21,1.19c26.99-3.18,53.7-2.83,80.51,3.29c-0.84-2.37-1.54-4.37-2.29-6.49
			c-2.33,0.98-4.45,1.87-6.57,2.76c-0.13-0.32-0.27-0.64-0.4-0.95c2.23-1.12,4.46-2.22,6.67-3.37c1.29-0.67,1.94-0.16,2.33,1.08
			c0.54,1.7,1.16,3.37,1.66,5.09c0.62,2.15,2.09,2.86,4.1,2.83c0.28-5.92,0.56-11.69,0.84-17.65c-0.44,0.19-0.78,0.3-1.08,0.49
			c-5.66,3.49-11.35,6.92-16.94,10.52c-2.05,1.32-3.95,1.86-6.48,1.45c-8.99-1.47-18.01-2.89-27.19-2.64
			c-8.14,0.22-16.29,0.32-24.44,0.25c-2.86-0.02-5.47,0.41-8.03,1.63C628.78,395.83,627.86,395.86,627.01,396.05z M747.25,500.34
			c0.97,0,1.62-0.04,2.26,0.01c8.26,0.66,16.52,1.24,24.76,2.05c2.1,0.21,4.16,1.05,6.18,1.78c0.55,0.2,1.21,1.05,1.23,1.62
			c0.17,4.97,0.76,9.92-0.66,14.9c-1.27,4.44-0.33,8.76,2.54,12.49c0.46,0.6,1.31,1.28,1.98,1.28c2.34-0.01,4.92,0.26,6.96-0.62
			c3.72-1.61,6.91-4.27,9.02-7.81c1.83-3.07,3.34-6.34,4.81-9.6c3.58-7.99,7.62-15.78,9.02-24.61c1.09-6.88,1.46-13.67-0.92-20.33
			c-1.22-3.43-1.33-3.36,1.38-5.76c3.12-2.76,6.17-5.61,9.34-8.33c3.16-2.72,6.53-5.2,9.61-8c3.31-3.02,5.5-6.84,6.84-11.14
			c0.61-1.95,0.45-3.57-1.18-5.05c-1.68-1.52-3.45-1.59-5.42-0.96c-5.66,1.82-10.48,4.76-14.25,9.57
			c-4.45,5.67-9.45,10.91-13.93,16.55c-1.73,2.18-3.59,2.5-6.03,2.32c-8.79-0.63-17.57-1.31-26.37-1.68
			c-4.77-0.2-9.57,0.2-14.36,0.28c-7.76,0.14-15.53,0.11-23.29,0.4c-5.89,0.22-11.76,0.85-17.64,1.23
			c-5.37,0.35-10.74,0.6-16.11,0.93c-0.56,0.03-1.24,0.18-1.62,0.53c-5.34,4.83-10.35,10.12-17.47,12.19
			c0.1,1.04,0.15,1.93,0.27,2.8c0.65,4.84,3,8.5,7.72,10.09c4.29,1.45,8.7,2.6,13.08,3.77c5.4,1.44,11.01,2.33,14.88,7.09
			c0.65,0.8,2.06,0.94,3.06,1.5c0.44,0.24,0.96,0.74,1.02,1.17c0.12,0.87-0.09,1.79-0.1,2.68c-0.05,3.86-0.81,7.72,0.56,11.56
			c0.85,2.38,1.41,4.89,1.8,7.39c1,6.41,4.15,8.98,10.49,7.91c5.59-0.95,9.28-2.16,10.32-9.14c0.05-0.35,0.33-0.67,0.43-1.02
			c1.15-4.13,1.94-8.28,1.08-12.6C748.05,505.42,747.7,503,747.25,500.34z M609.99,465.79c6.65,2.46,12.71,5.31,19.09,6.89
			c5.45,1.35,11.25,1.6,16.9,1.72c9.39,0.21,18.73,2.43,28.16,0.82c3.11-0.53,6.77,0.12,8.5-3.66c0.61,0.41,1.21,1.11,1.55,1
			c1.76-0.57,3.66-1.06,5.14-2.11c2.91-2.07,5.71-4.33,8.29-6.79c3.8-3.63,7.68-7.24,9.82-12.26c1.31-3.07,3.08-5.96,4.18-9.09
			c3.11-8.87,5-17.95,3.66-27.43c-0.06-0.45-0.81-1.05-1.33-1.15c-4.54-0.9-9.07-1.89-13.65-2.47c-6.06-0.78-12.17-1.16-18.25-1.81
			c-5.86-0.63-11.7-1.66-17.57-2.02c-4.98-0.3-10.02-0.05-15.02,0.22c-8.28,0.46-16.57,0.94-24.81,1.77
			c-6.75,0.68-13.48,1.78-20.17,2.92c-3.77,0.64-7.45,1.76-11.26,2.69c0.5,1.46,0.82,2.38,1.14,3.31c-0.18,0.12-0.36,0.24-0.54,0.35
			c-0.79-0.94-1.57-1.87-2.45-2.92c-2.89,3.68-4.52,7.69-5.67,11.86c-0.89,3.22-0.89,6.61,0.86,9.59c2.56,4.37,5.52,8.51,8.03,12.91
			c1.32,2.31,2.97,2.49,4.99,1.58c1.51-0.68,2.86-1.69,4.29-2.56c-0.03,0.25-0.05,0.5-0.08,0.75c0.69,0.22,1.45,0.74,2.07,0.61
			c2.52-0.52,5-1.24,7.86-1.98c0.24,2.28,0.78,4.8,0.71,7.3C614.34,459.31,613.02,462.48,609.99,465.79z M594.5,380.59
			c-0.53,2.39-0.91,4.66-1.54,6.86c-2.13,7.46-2.58,14.97-1.14,22.61c0.6,3.18,1.02,3.38,4.15,2.73c6.84-1.42,13.68-2.89,20.57-3.97
			c6.75-1.06,13.56-1.82,20.37-2.4c6.09-0.51,12.21-0.79,18.31-0.8c6.49-0.01,13.01,0.17,19.47,0.73c5.26,0.45,10.44,1.96,15.7,2.33
			c8.1,0.57,16.18,1.06,24.35,3.48c-0.47-2.44-0.66-4.7-1.4-6.76c-0.36-1-1.61-2.04-2.67-2.37c-2.47-0.78-5.09-1.09-7.62-1.69
			c-11.17-2.67-22.59-3.12-33.8-3.84c-0.34,0.73-0.7,1.52-1.11,2.41c-1.85-0.98-2.08-3.48-4.64-2.84c-1.8,0.45-3.81,0.09-6,0.09
			c0.36,0.99,0.57,1.58,0.77,2.12c2.12-0.14,4.06-0.27,6-0.4c0.05,0.31,0.11,0.62,0.16,0.93c-1.53,0.44-3.07,0.89-4.55,1.32
			c1.28,0.9,2.64,1.85,3.99,2.81c-0.14,0.3-0.28,0.6-0.42,0.9c-1.22-0.3-2.77-0.24-3.6-0.99c-1.69-1.5-2.93-0.74-4.53-0.03
			c-1.56,0.69-3.32,0.91-5,1.33c-0.07-0.27-0.15-0.54-0.22-0.82c1.89-0.87,3.78-1.75,5.67-2.62c-0.06-0.16-0.11-0.32-0.17-0.48
			c-1.32,0.17-2.64,0.34-3.96,0.52c-0.09-0.27-0.19-0.54-0.28-0.81c1.57-0.62,3.14-1.23,4.71-1.85c-0.1-1.6-1.08-1.87-2.46-1.83
			c-10.69,0.31-21.36,0.79-31.86,3.01c-3.76,0.79-7.77,0.61-11.15,2.92c-0.46,0.31-1.3,0.06-1.97,0.08
			c-2.22,0.07-4.44,0.14-6.7,0.21c0.16,2.37,0.32,4.07,0.36,5.78c0.01,0.4-0.41,0.81-0.64,1.22c-0.37-0.36-0.99-0.68-1.07-1.1
			c-0.28-1.42-0.37-2.88-0.56-4.57c-1.63,0.6-2.93,1.23-4.3,1.53c-1.28,0.28-2.53,1.8-4.42,0.06c2.24-0.97,4.16-1.9,6.16-2.62
			c1.22-0.44,2.1-0.86,2.2-2.37c0.03-0.48,0.95-1.26,1.5-1.29c3.47-0.2,6.98,0.01,10.43-0.36c4.62-0.49,9.2-1.38,13.99-2.13
			C622.2,394.16,599.6,381.79,594.5,380.59z M722.21,505.35c0.01,0,0.02,0,0.03,0c0.02-0.37,0.09-0.75,0.04-1.12
			c-0.09-0.77-0.1-2.11-0.38-2.18c-1-0.24-2.16-0.22-3.15,0.07c-0.8,0.24-1.48,0.98-2.16,1.56c-2.55,2.17-5.08,4.37-7.62,6.55
			c-2.39,2.04-4.98,3.46-8.31,3.22c-1.19-0.08-3.18,0.15-3.5,0.84c-0.86,1.86-1.43,4.07-1.33,6.1c0.11,2.35,1.36,4.61,3.99,5.08
			c5,0.89,9.85,0.57,13.79-3.2c1.5-1.44,2.7-3.18,4.21-4.61c2.97-2.82,4.9-6.02,4.4-10.3C722.14,506.71,722.21,506.03,722.21,505.35
			z M816.27,499.03c-0.55,1.38-1.29,2.64-1.52,3.99c-0.2,1.17-0.05,2.5,0.31,3.64c0.75,2.36,2.03,4.57,2.58,6.97
			c1.04,4.55,2.13,9,5.53,12.5c1.93,1.99,4.26,2.12,6.63,1.38c2.25-0.7,3.08-2.84,2.95-4.83c-0.19-2.93-0.64-5.98-1.67-8.71
			c-2.57-6.78-8.56-10.52-13.95-14.74C816.9,499.07,816.56,499.09,816.27,499.03z M603.9,463.55c-1.66,4.46-4.26,6.94-5.99,5.96
			c1.31-1.98,2.66-3.94,3.9-5.97c0.27-0.45,0.38-1.38,0.11-1.72c-1.14-1.44-2.46-2.74-3.3-3.65c-1.22,0.95-2.59,1.63-3.43,2.72
			c-2.76,3.6-5.52,7.26-5.88,12.05c-0.15,1.98,1,3.14,2.9,2.86c6.54-0.98,11.64-4.26,15.5-9.87
			C606.44,465.14,605.26,464.4,603.9,463.55z M608.42,464.42c2.82-3.65,4.05-7.4,3.79-11.41c-0.07-1.18-0.7-1.71-1.92-1.47
			c-1.53,0.31-3.05,0.75-4.59,0.85c-2.89,0.19-4.77,1.71-6.27,4.27c1.23,1.33,2.5,2.71,3.76,4.07c0.66-1.19,1.18-2.12,1.72-3.09
			c1.33,1.22,1.42,1.27,0.5,3.07c-0.62,1.21-0.43,1.93,0.75,2.5C606.91,463.57,607.61,463.98,608.42,464.42z"/>
		<path d="M494.53,152.12c3.09,1.48,2.32,4.97,3.24,7.56c2.67-0.48,5.25-1.12,7.87-1.37c5.11-0.49,10.23-0.9,15.35-1.08
			c11.04-0.39,22.09-0.64,33.14-0.89c5.21-0.12,10.43-0.01,15.64-0.19c9.22-0.32,18.44-0.69,27.65-1.2
			c8.43-0.47,16.85-1.24,25.29-1.7c10.98-0.6,21.96-1.1,32.95-1.53c12.96-0.51,25.92-0.6,38.82,1.02
			c7.81,0.98,15.63,1.92,23.42,3.04c7.63,1.09,15.28,1.54,22.98,1.65c8.98,0.13,17.97,0.41,26.81,2.35
			c8.8,1.93,17.73,2.69,26.72,3.17c8.86,0.48,17.7,1.5,26.56,1.89c10.27,0.45,20.37,1.56,30.17,4.85c2.75,0.92,5.63,1.58,8.51,1.98
			c2.43,0.34,3.03,1.83,3.3,3.8c1.12,8.14,2.21,16.28,3.36,24.42c0.56,3.95,1.39,7.86,1.86,11.81c1.07,8.96,1.27,17.94,0.21,26.93
			c-0.14,1.19-0.22,2.38-0.35,3.56c-0.01,0.1-0.2,0.18-0.08,0.07c0-5.25,0.13-10.69-0.04-16.13c-0.16-5.29-0.35-10.6-0.98-15.85
			c-1.2-9.92-2.7-19.8-4.14-29.68c-0.29-1.99-0.7-3.98-1.3-5.9c-0.22-0.7-1.04-1.52-1.73-1.7c-5.95-1.56-11.91-3.13-17.93-4.4
			c-8.39-1.77-16.91-2.23-25.48-2.46c-7.22-0.19-14.4-1.32-21.61-1.95c-4.75-0.42-9.54-0.5-14.26-1.08
			c-4.7-0.58-9.33-1.64-14.01-2.38c-3.23-0.51-6.48-1.04-9.74-1.22c-8.28-0.46-16.57-0.73-24.86-1.07
			c-6.54-0.27-13.01-0.85-19.43-2.34c-4.04-0.94-8.26-1.14-12.41-1.58c-4.59-0.49-9.18-1.13-13.78-1.25
			c-9.32-0.23-18.65-0.3-27.98-0.16c-7.64,0.11-15.28,0.53-22.92,0.96c-6.92,0.38-13.83,0.97-20.75,1.44
			c-4.02,0.27-8.04,0.53-12.07,0.75c-8.5,0.48-17,1.09-25.51,1.35c-10.99,0.33-21.98,0.3-32.97,0.53
			c-9.85,0.21-19.71,0.45-29.55,0.88c-4.47,0.19-8.93,0.82-13.38,1.35c-3.12,0.38-3.13,0.84-2.82,3.92
			c0.54,5.33,0.88,10.69,0.99,16.04c0.15,7.48-0.09,14.97,0,22.46c0.14,11.45,0.19,22.92,0.7,34.36
			c0.45,10.15,1.49,20.27,2.24,30.41c0.53,7.16,0.89,14.34,1.53,21.5c0.85,9.45,2,18.88,2.86,28.33c0.85,9.46,1.54,18.93,2.21,28.4
			c0.42,6.04,0.7,12.09,0.98,18.14c0.04,0.94-0.21,1.9-0.33,2.85c-0.28-0.02-0.55-0.03-0.83-0.05c0-1.96,0.14-3.92-0.02-5.87
			c-0.64-7.74-1.45-15.47-2.06-23.21c-0.63-7.95-0.95-15.94-1.69-23.88c-0.67-7.19-1.8-14.33-2.6-21.5
			c-0.51-4.53-0.82-9.09-1.16-13.64c-0.6-8.19-1.24-16.38-1.71-24.58c-0.47-8.21-0.85-16.44-1.09-24.66
			c-0.34-11.5-0.63-22.99-0.73-34.49c-0.06-7.16,0.45-14.32,0.33-21.48c-0.06-3.67-0.98-7.33-1.47-11
			c-0.18-1.31-0.11-2.66-0.37-3.96C495.66,156.34,495.06,154.26,494.53,152.12z"/>
		<path d="M512.54,335.41c1.25-0.34,2.48-0.85,3.75-0.99c8.68-0.92,17.36-1.95,26.06-2.59c9.99-0.74,20-1.13,30-1.67
			c6.62-0.36,13.25-0.77,19.87-1.09c7.15-0.35,14.3-0.71,21.45-0.9c5.74-0.15,11.48-0.02,17.22-0.1c3.09-0.04,6.18-0.4,9.26-0.34
			c4.94,0.1,9.87,0.43,14.8,0.65c4.99,0.23,10,0.27,14.97,0.7c7.42,0.64,14.82,1.61,22.24,2.34c4.07,0.4,8.17,0.57,12.25,0.85
			c6.08,0.41,12.15,0.92,18.24,1.22c5.59,0.27,11.19,0.16,16.78,0.5c7.21,0.43,14.4,1.14,21.59,1.73
			c5.41,0.44,10.82,1.25,16.22,1.21c9.55-0.06,19.1-0.89,28.65-0.94c8.82-0.05,17.64,0.48,26.47,0.82
			c4.33,0.16,8.65,0.45,12.97,0.68c0.49,0.03,0.97,0.12,1.46,0.18c0.04,0.24,0.08,0.48,0.11,0.72c-1.11,0.19-2.23,0.58-3.33,0.52
			c-5.96-0.3-11.91-0.96-17.88-1.03c-10.13-0.12-20.27,0.09-30.41,0.18c-7.31,0.07-14.63,0.52-21.92,0.15
			c-7.5-0.37-14.95-1.71-22.46-2.27c-5.25-0.39-10.54-0.09-15.81-0.28c-5.3-0.2-10.59-0.62-15.88-0.95
			c-6.55-0.41-13.11-0.72-19.65-1.27c-5.62-0.47-11.2-1.28-16.81-1.83c-5.12-0.5-10.25-0.88-15.38-1.26
			c-4.47-0.33-8.94-0.55-13.4-0.91c-2.28-0.19-4.54-0.83-6.8-0.83c-3.3,0.01-6.6,0.55-9.9,0.63c-6.13,0.14-12.27,0.07-18.41,0.17
			c-3.87,0.07-7.73,0.33-11.6,0.45c-7.56,0.22-15.13,0.29-22.69,0.63c-7.95,0.36-15.89,1-23.84,1.48
			c-6.19,0.37-12.4,0.44-18.56,1.08c-6.69,0.7-13.32,1.95-19.99,2.88c-2.65,0.37-5.33,0.55-8.01,0.73
			c-0.53,0.04-1.09-0.32-1.64-0.49C512.55,335.91,512.54,335.66,512.54,335.41z"/>
		<path d="M520.54,224.21c0.98-0.17,1.96-0.35,3.42-0.61c-2.24-1.04-4.12-1.92-6.01-2.78c-5.72-2.59-8.95-7.03-10.48-13.11
			c-1.38-5.5-2-11-1.9-16.64c0.06-3.5,0.77-6.71,3.43-9.13c5.82-5.31,12.62-7.27,20.54-6.81c4.18,0.25,8.24,0.49,12.11,2.02
			c1.9,0.75,3.9,1.7,5.32,3.1c5.1,5.04,9.23,10.64,8.59,18.41c-0.25,3.01-0.97,5.85-2.55,8.47c-3.63,6.02-7.53,11.91-14.39,14.54
			C532.91,223.87,527.04,226.21,520.54,224.21z M507.16,192.07c-0.39,6.48,1.02,12.16,2.68,17.74c0.59,1.98,2.06,3.75,3.33,5.46
			c3.26,4.36,9.04,4.7,13.03,7.95c0.12,0.1,0.44,0.01,0.65-0.06c4.06-1.2,8.43-1.83,12.12-3.75c7.49-3.88,12.04-10.39,14.31-18.55
			c2.3-8.28-4.18-18.54-10.67-21.26c-8.82-3.69-17.94-4.27-26.89-0.09C510.19,182.1,506.01,185.67,507.16,192.07z"/>
		<path d="M647.78,213.99c-1.75,2.1-3.35,4.34-5.27,6.27c-2.03,2.03-5.74,1.73-8.21-0.38c-3.44-2.94-5.6-6.76-7.29-10.88
			c-0.3-0.74-0.72-1.44-1.27-2.5c-5.01,4.44-6.79,10.49-9.96,16c-0.56-0.12-1.31-0.29-2.14-0.47c0.6-4.54,3.32-7.82,5.36-11.41
			c4.45-7.85,8.87-15.72,13.36-23.55c0.41-0.72,1.28-1.17,2.16-1.51c-1.27,7.52-6.85,12.7-9.65,19.56c2.58-1.07,3.04,0.87,3.95,2.45
			c2,3.47,3.96,7,6.34,10.21c2.04,2.75,4,2.78,6.72,0.61c1.9-1.52,3.65-3.22,5.47-4.85C647.49,213.68,647.64,213.83,647.78,213.99z"
			/>
		<path d="M584.12,198.94c1.27-4.06,2.48-7.95,3.85-12.33c-2.93,1.85-5.44,3.53-8.05,5.03c-0.85,0.49-2.72,0.92-2.82,0.73
			c-0.82-1.67,0.99-1.64,1.76-2.12c3.1-1.93,6.5-3.44,9.39-5.63c1.37-1.04,1.85-3.26,2.74-4.95c0.33-0.63,0.68-1.25,1.02-1.87
			c0.31,0.09,0.63,0.18,0.94,0.27c-0.23,1.67-0.46,3.34-0.69,5.02c4.02,0.52,4.95,1.64,4.88,6.9c-0.1,7.71-2.25,14.87-6.42,21.38
			c-1.07,1.66-2.66,1.62-3.3-0.21c-0.95-2.73-1.44-5.57-0.38-8.51c0.52,2.25,1.04,4.5,1.56,6.74c0.21,0.03,0.41,0.06,0.62,0.08
			c0.62-1.21,1.32-2.4,1.85-3.65c2.26-5.32,3.7-10.84,3.87-16.64c0.02-0.8,0.04-1.73-0.32-2.38c-0.38-0.68-1.2-1.49-1.86-1.52
			c-0.66-0.03-1.75,0.68-2,1.32c-1.41,3.69-2.82,7.4-3.84,11.2C586.43,199.63,585.87,199.86,584.12,198.94z"/>
		<path d="M619.41,304.17c-2.7,4.85,0.91,6.39,3.7,8.29c1.82,1.23,2.99,2.69,2.61,5.01c-0.41,2.51-1.99,3.98-4.59,5.09
			c0.78-2.68,3.86-4.71,1.94-7.3c-1.33-1.79-3.6-2.89-5.36-4.24c-1.81,2.28-3.22,4.06-4.9,6.18c1.23,1.11,2.56,2.25,3.8,3.46
			c0.46,0.45,0.85,1.06,1.04,1.67c0.09,0.27-0.48,1.06-0.58,1.03c-0.66-0.19-1.3-0.51-1.91-0.86c-0.31-0.18-0.54-0.51-0.81-0.77
			c-0.94-0.96-1.74-2.45-2.85-2.73c-0.94-0.24-2.23,0.93-3.38,1.42c-0.33,0.14-0.73,0.15-1.1,0.18c-1.02,0.1-2.04,0.18-3.06,0.27
			c0.09-1.21-0.21-2.66,0.35-3.58c1.59-2.61,1.87-4.96-0.22-7.37c-0.09-0.11-0.16-0.28-0.16-0.41c0.05-0.86,0.12-1.73,0.18-2.59
			c0.63,0.6,1.34,1.14,1.89,1.8c0.69,0.83,1.26,1.77,1.98,2.82c1.15-0.75,2.12-1.42,3.12-2.03c0.63-0.39,1.35-1.08,1.95-1
			c2.85,0.41,4-1.04,4.48-3.55c0.06-0.33,0.64-0.57,0.98-0.85C618.82,304.12,619.11,304.15,619.41,304.17z M611.65,315.53
			c1.1-1.39,2.06-2.5,2.88-3.7c0.23-0.33,0.04-0.94,0.05-1.42c-0.48,0.01-1.07-0.16-1.43,0.05c-1.3,0.76-2.52,1.66-3.88,2.58
			C610.11,313.92,610.71,314.55,611.65,315.53z M606,318.76c0.17,0.19,0.34,0.39,0.52,0.58c1.07-0.82,2.15-1.64,3.43-2.63
			c-0.87-0.69-1.42-1.12-2.04-1.6c-0.29,0.37-0.52,0.57-0.64,0.82C606.83,316.86,606.42,317.81,606,318.76z"/>
		<path d="M819.19,293.09c-2.46,0-4.28,0-6.1,0c-0.05-0.15-0.09-0.3-0.14-0.45c1.11-0.2,2.21-0.48,3.33-0.58
			c5.42-0.49,10.83-1.04,16.26-1.36c3.63-0.22,7.29-0.14,10.93-0.1c3.29,0.03,6.58,0.16,9.86,0.33c1.07,0.05,2.12,0.35,3.18,0.53
			c0,0.23,0,0.45,0,0.68c-0.57,0.09-1.15,0.3-1.71,0.26c-10.9-0.74-21.82-1.03-32.58,1.11c-3.43,0.68-6.69,2.4-9.89,3.92
			c-6.13,2.93-12.34,5.39-19.32,4.44c-1.9-0.26-3.76-0.76-5.63-1.22c-3.28-0.79-6.52-1.99-9.85-2.37
			c-5.77-0.66-11.59-0.86-17.39-1.2c-1.58-0.09-3.17-0.01-4.76-0.42c4.77-0.94,9.54-1.19,14.35-0.4c3.82,0.63,7.68,0.98,11.49,1.62
			c2.18,0.36,4.35,0.92,6.46,1.6c7.86,2.55,15.3,1.33,22.55-2.24c2.2-1.08,4.54-1.89,6.8-2.86
			C817.61,294.15,818.12,293.75,819.19,293.09z"/>
		<path d="M510.2,408.65c0.14,3.02,0.17,6.04,0.46,9.04c0.41,4.28,0.96,8.54,1.56,12.8c0.85,6.07,1.76,12.13,2.72,18.19
			c0.57,3.57,1.34,7.1,1.9,10.67c0.85,5.42,1.57,10.86,2.42,16.27c0.79,5.06,1.84,10.08,2.48,15.16c1.1,8.71,1.97,17.45,2.95,26.18
			c0.13,1.17,0.36,2.33,0.2,3.69c-0.22-0.51-0.57-1-0.64-1.53c-0.56-4.12-1.01-8.26-1.59-12.38c-0.89-6.33-1.86-12.64-2.76-18.97
			c-0.64-4.5-1.16-9.02-1.84-13.51c-0.97-6.48-2.04-12.94-3.03-19.41c-0.9-5.88-1.87-11.76-2.6-17.67
			c-1.14-9.16-2.13-18.34-3.15-27.51c-0.04-0.36,0.23-0.75,0.35-1.13C509.83,408.58,510.01,408.62,510.2,408.65z"/>
		<path d="M779.07,323.24c0.26,0.57,0.52,1.14,1.12,2.43c3.71-4.21,7.2-8.03,10.49-12.01c0.55-0.67,0.3-1.99,0.42-3.02
			c-1.22,0.19-2.93-0.07-3.58,0.65c-2.07,2.3-3.71,4.98-5.6,7.45c-0.51,0.67-1.34,1.08-2.03,1.61c-0.28-0.26-0.57-0.53-0.85-0.79
			c1.8-2.76,3.6-5.52,5.39-8.27c-2.82,1.51-5.22,3.55-8.26,4.14c-0.19-0.39-0.38-0.78-0.57-1.16c2.77-1.46,5.56-2.88,8.3-4.38
			c1.06-0.58,2.05-1.32,3.04-2.03c0.52-0.37,0.98-0.83,1.46-1.24c0.15,0.65,0.3,1.3,0.49,2.17c0.27,0.08,0.82,0.31,1.39,0.4
			c2.94,0.46,4.26,2.76,2.43,5.13c-2.81,3.64-6.07,6.92-9.2,10.3c-0.9,0.97-1.97,1.81-3.05,2.6c-0.54,0.39-1.25,0.53-1.89,0.79
			c-0.22-0.63-0.63-1.28-0.6-1.9c0.04-0.95,0.39-1.88,0.6-2.81C778.74,323.26,778.91,323.25,779.07,323.24z"/>
		<path d="M646.82,320.25c1.33-3.28,5.25-5.51,2.96-9.64c-0.74-1.33-1.6-2.92-2.84-3.57c-1.87-0.98-4.11-1.24-6.63-1.93
			c0.33,2.46,0.55,4.19,0.79,5.93c0.33,2.45-0.63,4.38-2.56,4.44c-3.48,0.1-5.76-0.39-6.16-3.25c-0.49-3.48,1.35-6.38,4.73-7.3
			c3.21-0.86,6.34-1.35,9.63-0.1c3.6,1.37,5.01,4.42,5.79,7.63c0.79,3.26-1.74,5.33-3.97,7.25
			C648.13,320.06,647.4,320.07,646.82,320.25z M638.61,306.24c-3.3,1.14-4.39,2.49-4.32,5.14c0.05,1.89,1.3,2.27,2.89,2.34
			c1.66,0.08,2.11-0.83,2-2.24C639.03,309.79,638.81,308.1,638.61,306.24z"/>
		<path d="M852.53,350.85c-0.15-0.57-0.49-1.17-0.44-1.72c0.64-6.08,1.28-12.15,2.04-18.21c0.64-5.09,1.45-10.16,2.2-15.24
			c0.77-5.16,1.59-10.31,2.34-15.47c1.2-8.26,2.28-16.54,3.55-24.79c0.86-5.59,1.99-11.13,2.95-16.7c0.72-4.17,1.35-8.34,2.03-12.52
			c0.22,0.04,0.45,0.07,0.67,0.11c-0.52,3.12-1.1,6.23-1.57,9.36c-2.12,14.22-4.17,28.45-6.31,42.67
			c-1.2,7.95-2.68,15.85-3.74,23.82c-1.16,8.72-1.97,17.49-2.98,26.23c-0.1,0.85-0.53,1.66-0.8,2.5L852.53,350.85z"/>
		<path d="M853.62,447.44c1.38,3.07,2.59,6.23,4.18,9.19c3.16,5.85,3.18,11.88,1.76,18.17c-1.44,6.39-2.93,12.8-3.82,19.28
			c-1.05,7.61-1.55,15.3-2.12,22.97c-0.13,1.7,0.48,3.46,0.83,5.75c-0.64-1.37-1.34-2.35-1.54-3.43c-0.29-1.6-0.39-3.27-0.3-4.9
			c0.55-9.99,1.46-19.94,3.5-29.76c0.77-3.71,1.35-7.45,2.17-11.14c1.49-6.66,0.29-12.82-2.92-18.77c-1.18-2.19-1.73-4.71-2.56-7.08
			C853.08,447.62,853.35,447.53,853.62,447.44z"/>
		<path d="M849.33,524.29c0.67,0.76,1.18,1.08,1.27,1.49c1.38,6.3,2.66,12.6,2.58,19.13c-0.06,4.9,0.56,9.75,2.56,14.39
			c0.75,1.74,0.64,3.94,0.6,5.92c-0.08,4.84-0.38,9.67-0.52,14.5c-0.1,3.69-0.07,7.39-0.13,11.08c-0.01,0.75-0.19,1.49-0.5,2.16
			c0-5.61-0.12-11.23,0.03-16.84c0.17-6.14-0.4-12.13-1.87-18.13c-1.04-4.24-1.18-8.71-1.69-13.08c-0.73-6.29-1.44-12.58-2.16-18.87
			C849.48,525.65,849.43,525.23,849.33,524.29z"/>
		<path d="M522.01,612.14c29.11-1.38,58.08-3.87,86.86-8.38C580.17,609.34,551.17,611.73,522.01,612.14z"/>
		<path d="M509.53,302.33c1.05,0,2.15-0.2,3.14,0.03c10.33,2.46,20.58,0.91,30.85-0.47c4.86-0.65,9.76-1.1,14.62-1.78
			c3.79-0.53,7.54-1.47,11.34-1.89c2.73-0.3,5.53-0.06,8.3-0.06c0.01,0.18,0.01,0.37,0.02,0.55c-3.34,0.36-6.68,0.65-10.01,1.08
			c-8.43,1.09-16.83,2.36-25.27,3.35c-6.65,0.77-13.33,1.45-20.02,1.72c-3.21,0.13-6.47-0.77-9.7-1.24
			c-1.08-0.16-2.15-0.42-3.23-0.64C509.55,302.77,509.54,302.55,509.53,302.33z"/>
		<path d="M706.32,316.2c-1.03,4.13-5.69,4.63-7.75,3.16c-0.42-0.3-0.57-0.98-0.88-1.47c-0.99-1.61-2-3.21-3.38-5.4
			c-1.78,2.68-3.19,4.73-4.52,6.84c-0.53,0.83-0.87,1.98-2.12,1.26c-1.42-0.82-0.26-1.76,0.23-2.4c3.41-4.5,6.89-8.95,10.38-13.39
			c0.28-0.36,0.81-0.52,1.68-1.05c-0.65,3.69-3.45,5.33-4.96,7.48c1.49,1.86,2.96,3.58,4.29,5.39c1.56,2.14,2.77,2.44,4.95,1
			C704.95,317.15,705.63,316.67,706.32,316.2z"/>
		<path d="M812.97,427.57c-10.54,1.56-16.7,8.48-21.43,17.94C791.05,437.69,802.4,425.39,812.97,427.57z"/>
		<path d="M731.61,318.05c-0.65,0.64-1.27,1.77-1.97,1.82c-3.01,0.24-6.06,0.33-9.07,0.14c-1.73-0.11-1.55-1.56-0.93-2.72
			c0.91-1.7,1.96-3.33,2.92-5.01c1.43-2.51,2.81-5.04,4.24-7.54c0.23-0.41,0.59-0.75,1.2-0.96c-0.02,5.68-4.45,9.37-6.62,14.32
			c3.37,1.64,6.47,0.77,9.55-0.57C731.16,317.7,731.38,317.87,731.61,318.05z"/>
		<path d="M532.35,587.91c0.56-6.38,0.68-12.83,1.82-19.1c0.96-5.27-0.95-9.24-3.75-13.14c-1.13-1.57-1.96-3.1-1.64-5.8
			c1.59,2.42,2.74,4.42,4.13,6.23c2.95,3.87,2.88,8.26,2.42,12.74c-0.6,5.78-1.22,11.56-1.84,17.34c-0.07,0.62-0.22,1.23-0.34,1.85
			C532.88,588,532.61,587.96,532.35,587.91z"/>
		<path d="M566.92,323.96c0.5-0.72,0.94-1.51,1.53-2.15c0.56-0.6,1.29-1.04,1.95-1.56c0.22,0.14,0.44,0.28,0.66,0.43
			c-0.3,0.78-0.47,1.67-0.94,2.33c-0.64,0.9-1.5,1.65-2.28,2.45c-1.35,1.39-2.68,1.09-3.41-0.76c-1.75-4.47-1.31-9.14-1.16-13.77
			c0.01-0.43,0.78-0.84,1.19-1.26c0.37,0.52,1.05,1.03,1.05,1.56c0.03,2.54-0.24,5.08-0.18,7.61c0.04,1.58,0.48,3.16,0.73,4.74
			C566.36,323.69,566.64,323.82,566.92,323.96z"/>
		<path d="M629.54,297.6c-13.53,0-27.07,0-40.6,0c13.51-2.18,27.06-0.78,40.59-0.8C629.53,297.07,629.54,297.34,629.54,297.6z"/>
		<path d="M623.88,602.07c15.67-2.83,31.36-5.1,47.29-5.15C655.4,598.64,639.64,600.35,623.88,602.07z"/>
		<path d="M750.55,316.66c2.65-1.24,5.23-2.69,7.97-3.66c2.89-1.03,4.76,0.64,3.84,3.54c-1.14,3.6-3.32,6.56-7.56,7.64
			c0.35-0.58,0.69-1.17,1.05-1.74c1.41-2.17,2.84-4.32,4.21-6.51c0.19-0.3,0.18-1.11,0.05-1.17c-0.4-0.18-0.99-0.25-1.38-0.08
			c-1.42,0.61-2.76,1.39-4.19,1.99c-1.14,0.48-2.36,0.77-3.55,1.15C750.85,317.42,750.7,317.04,750.55,316.66z"/>
		<path d="M818.2,429.03c-0.14,0.67-0.05,1.58-0.45,1.95c-1.86,1.7-3.86,3.26-5.81,4.85c-2.59,2.11-5.17,4.25-7.82,6.28
			c-0.42,0.32-1.19,0.2-1.79,0.29c0.19-0.55,0.22-1.3,0.6-1.62c4.78-4.01,9.62-7.97,14.44-11.94
			C817.64,428.91,817.92,428.97,818.2,429.03z"/>
		<path d="M678.21,312.43c-2.06,1.15-4.11,2.3-6.17,3.46c-0.09-0.19-0.18-0.38-0.27-0.57c1.58-2.39,3.74-4.02,6.68-4.3
			c1.68-0.16,3.17,1.77,2.83,3.6c-0.54,2.96-2.24,5.3-4.37,7.33c-0.25,0.24-0.79,0.17-1.2,0.24c-0.01-0.47-0.2-1.04-0.01-1.4
			c0.92-1.7,2.06-3.29,2.88-5.03c0.39-0.82,0.22-1.89,0.31-2.85C678.66,312.73,678.43,312.58,678.21,312.43z"/>
		<path d="M852.48,350.88c-0.08,2.36-0.09,4.72-0.24,7.07c-0.53,8.42-1.09,16.84-1.66,25.26c-0.03,0.47-0.18,0.94-0.64,1.44
			c-0.12-0.37-0.37-0.74-0.35-1.1c0.15-3.09,0.3-6.18,0.55-9.26c0.35-4.32,0.83-8.62,1.18-12.94c0.24-2.87,0.34-5.76,0.57-8.63
			c0.05-0.64,0.4-1.25,0.62-1.87C852.53,350.85,852.48,350.88,852.48,350.88z"/>
		<path d="M806.71,313.93c3.58,1.5,2,4.42,3.19,6.43c0.57-0.07,1.31-0.16,2.21-0.26c-0.24,0.34-0.33,0.59-0.5,0.68
			c-1.25,0.67-2.51,1.31-3.78,1.97c-0.28-1.28-0.65-2.56-0.82-3.86C806.83,317.38,806.82,315.86,806.71,313.93z"/>
		<path d="M615.32,194.02c-1.75-3.17-3.31-5.91-4.77-8.7c-0.18-0.34-0.02-1.14,0.26-1.36c0.31-0.24,1.05-0.22,1.43,0
			C614.16,185.06,616.14,190.93,615.32,194.02z"/>
		<path d="M849.32,415.96c0-9.01,0-18.03,0-27.04c0.16,0,0.32-0.01,0.48-0.01c0,9,0,18,0,27
			C849.64,415.93,849.48,415.95,849.32,415.96z"/>
		<path d="M701.68,595.62c-1.99,0.04-3.99,0.12-5.98,0.12c-4.98,0.02-9.96,0.01-14.97-0.29c6.52-0.25,13.04-0.52,19.57-0.7
			c0.44-0.01,0.89,0.61,1.33,0.93L701.68,595.62z"/>
		<path d="M508.94,379.69c-0.77-4.24,0.69-8.75-2.83-12.51c0.81,0.47,2,0.74,2.37,1.45c1.77,3.34,1.76,7.01,1.4,10.67
			C509.88,379.48,509.17,379.6,508.94,379.69z"/>
		<path d="M701.63,595.68c1.98,0.32,3.99,0.48,5.92,0.99c2.8,0.74,5.54,1.69,8.28,2.64c0.55,0.19,0.97,0.8,1.83,1.55
			c-0.93,0-1.37,0.11-1.74-0.02c-4.35-1.47-8.7-2.96-13.04-4.48c-0.43-0.15-0.8-0.5-1.2-0.75
			C701.68,595.62,701.63,595.68,701.63,595.68z"/>
		<path d="M510.01,380.93c-0.25,4.76-0.5,9.52-0.74,14.28c-0.11-0.02-0.21-0.03-0.32-0.05c0-4.76,0-9.52,0-14.28
			C509.3,380.9,509.66,380.91,510.01,380.93z"/>
		<path d="M795.53,310.29c0.37,0.07,0.47,0.06,0.51,0.1c0.37,0.41,0.93,0.77,1.05,1.24c0.42,1.65,0.68,3.35,1,5.03
			c-0.51-0.12-1.33-0.08-1.47-0.37c-0.75-1.58-1.39-3.22-1.91-4.89C794.63,311.11,795.3,310.59,795.53,310.29z"/>
		<path d="M825.89,318.99c-0.38-1.89-0.75-3.78-1.13-5.67c0.21-0.16,0.43-0.32,0.64-0.49c0.59,0.34,1.45,0.54,1.71,1.05
			C828.14,315.87,827.92,317.61,825.89,318.99z"/>
		<path d="M509.39,397.31c0.22,3.39,0.44,6.79,0.66,10.18c-0.21,0.01-0.43,0.03-0.64,0.04c-1.36-3.32-0.76-6.8-0.72-10.23
			C508.93,397.31,509.16,397.31,509.39,397.31z"/>
		<path d="M718.68,305.51c1.09,1.93,2.19,3.86,3.51,6.19c-0.88,0.07-1.88,0.33-1.97,0.13c-0.95-1.91-1.74-3.89-2.58-5.85
			C717.98,305.83,718.33,305.67,718.68,305.51z"/>
		<path d="M588.79,314.36c-1.84-0.16-3.24-1.54-4.67-4.43C585.89,309.71,587.76,311.43,588.79,314.36z"/>
		<path d="M758.86,306.75c-1.89,1.25-3.66,0.19-4.53-2.55C756.16,303.89,756.87,304.28,758.86,306.75z"/>
		<path d="M673.67,303.14c1.87,0.97,3.22,1.61,4.5,2.37c0.26,0.15,0.37,0.77,0.31,1.14c-0.04,0.22-0.51,0.48-0.82,0.52
			C676.65,307.32,674.14,305.16,673.67,303.14z"/>
		<path d="M739.93,296.4c3.27,0,6.55,0,9.82,0c0,0.14-0.01,0.28-0.01,0.43c-3.27,0-6.54,0-9.81,0
			C739.93,296.68,739.93,296.54,739.93,296.4z"/>
		<path d="M630.86,297.18c3.16,0,6.31,0,9.47,0c-0.01,0.13-0.02,0.26-0.03,0.39c-3.17,0-6.34,0-9.51,0
			C630.82,297.44,630.84,297.31,630.86,297.18z"/>
		<path d="M737.55,610.66c3.02,0.88,6.03,1.75,9.05,2.63c-0.04,0.16-0.09,0.31-0.13,0.47c-3.02-0.85-6.05-1.7-9.07-2.55
			C737.45,611.02,737.5,610.84,737.55,610.66z"/>
		<path d="M759.36,614.54c-2.9,0-5.79,0-8.69,0c0-0.17,0-0.34,0-0.51c2.92,0,5.85,0,8.77,0
			C759.42,614.2,759.39,614.37,759.36,614.54z"/>
		<path class="volume_1_st0" d="M747.25,500.34c0.45,2.66,0.8,5.07,1.28,7.46c0.87,4.31,0.08,8.47-1.08,12.6c-0.1,0.35-0.38,0.67-0.43,1.02
			c-1.04,6.97-4.73,8.19-10.32,9.14c-6.34,1.07-9.49-1.51-10.49-7.91c-0.39-2.5-0.96-5.01-1.8-7.39c-1.37-3.84-0.61-7.7-0.56-11.56
			c0.01-0.9,0.22-1.81,0.1-2.68c-0.06-0.44-0.58-0.93-1.02-1.17c-1-0.56-2.41-0.7-3.06-1.5c-3.87-4.75-9.48-5.64-14.88-7.09
			c-4.38-1.17-8.78-2.32-13.08-3.77c-4.73-1.6-7.07-5.26-7.72-10.09c-0.12-0.88-0.17-1.76-0.27-2.8
			c7.12-2.08,12.13-7.36,17.47-12.19c0.39-0.35,1.07-0.5,1.62-0.53c5.37-0.33,10.74-0.58,16.11-0.93
			c5.88-0.38,11.76-1.02,17.64-1.23c7.76-0.29,15.53-0.26,23.29-0.4c4.79-0.08,9.58-0.48,14.36-0.28c8.8,0.37,17.59,1.05,26.37,1.68
			c2.44,0.18,4.3-0.15,6.03-2.32c4.48-5.65,9.49-10.88,13.93-16.55c3.77-4.81,8.58-7.74,14.25-9.57c1.97-0.63,3.74-0.56,5.42,0.96
			c1.63,1.49,1.8,3.1,1.18,5.05c-1.35,4.3-3.53,8.11-6.84,11.14c-3.07,2.81-6.45,5.29-9.61,8c-3.16,2.72-6.21,5.57-9.34,8.33
			c-2.72,2.4-2.61,2.34-1.38,5.76c2.38,6.66,2.01,13.44,0.92,20.33c-1.4,8.83-5.44,16.62-9.02,24.61c-1.46,3.26-2.98,6.53-4.81,9.6
			c-2.11,3.54-5.31,6.21-9.02,7.81c-2.04,0.88-4.62,0.6-6.96,0.62c-0.67,0-1.52-0.68-1.98-1.28c-2.88-3.73-3.82-8.05-2.54-12.49
			c1.43-4.97,0.83-9.92,0.66-14.9c-0.02-0.57-0.68-1.42-1.23-1.62c-2.01-0.73-4.07-1.58-6.18-1.78c-8.24-0.81-16.51-1.4-24.76-2.05
			C748.86,500.3,748.21,500.34,747.25,500.34z"/>
		<path class="volume_1_st0" d="M609.99,465.79c3.03-3.31,4.35-6.48,4.44-9.98c0.07-2.51-0.47-5.03-0.71-7.3c-2.86,0.74-5.34,1.46-7.86,1.98
			c-0.62,0.13-1.38-0.39-2.07-0.61c0.03-0.25,0.05-0.5,0.08-0.75c-1.42,0.87-2.78,1.88-4.29,2.56c-2.02,0.92-3.67,0.73-4.99-1.58
			c-2.52-4.39-5.47-8.54-8.03-12.91c-1.75-2.98-1.74-6.37-0.86-9.59c1.15-4.17,2.77-8.18,5.67-11.86c0.88,1.05,1.67,1.99,2.45,2.92
			c0.18-0.12,0.36-0.24,0.54-0.35c-0.32-0.92-0.64-1.85-1.14-3.31c3.81-0.93,7.5-2.05,11.26-2.69c6.7-1.15,13.42-2.24,20.17-2.92
			c8.25-0.83,16.53-1.32,24.81-1.77c5-0.28,10.03-0.53,15.02-0.22c5.88,0.36,11.71,1.39,17.57,2.02c6.08,0.66,12.19,1.04,18.25,1.81
			c4.58,0.59,9.11,1.58,13.65,2.47c0.51,0.1,1.26,0.7,1.33,1.15c1.34,9.47-0.55,18.56-3.66,27.43c-1.1,3.13-2.87,6.02-4.18,9.09
			c-2.14,5.02-6.01,8.63-9.82,12.26c-2.58,2.46-5.38,4.73-8.29,6.79c-1.48,1.05-3.38,1.54-5.14,2.11c-0.34,0.11-0.94-0.58-1.55-1
			c-1.73,3.78-5.38,3.13-8.5,3.66c-9.43,1.61-18.77-0.61-28.16-0.82c-5.66-0.13-11.46-0.37-16.9-1.72
			C622.7,471.09,616.64,468.25,609.99,465.79z M633.75,430.38c0.07-3.95-0.73-6.73-2.7-9.16c-1.6-1.97-3.22-2.33-4.87-0.42
			c-2.12,2.45-4.2,5.08-5.62,7.96c-1.35,2.74-1.57,5.83,0.08,8.83c1.53,2.78,5.21,4.15,7.6,2.15
			C631.35,437.13,633.99,434.02,633.75,430.38z"/>
		<path class="volume_1_st0" d="M594.5,380.59c5.1,1.19,27.7,13.57,31.09,17.01c-4.79,0.75-9.37,1.64-13.99,2.13
			c-3.45,0.37-6.96,0.16-10.43,0.36c-0.55,0.03-1.47,0.81-1.5,1.29c-0.1,1.52-0.99,1.93-2.2,2.37c-2,0.72-3.92,1.65-6.16,2.62
			c1.89,1.74,3.14,0.22,4.42-0.06c1.37-0.3,2.66-0.93,4.3-1.53c0.19,1.68,0.28,3.14,0.56,4.57c0.08,0.42,0.7,0.74,1.07,1.1
			c0.22-0.41,0.65-0.82,0.64-1.22c-0.03-1.71-0.2-3.41-0.36-5.78c2.26-0.07,4.48-0.14,6.7-0.21c0.67-0.02,1.51,0.23,1.97-0.08
			c3.39-2.31,7.4-2.12,11.15-2.92c10.5-2.22,21.17-2.7,31.86-3.01c1.38-0.04,2.35,0.23,2.46,1.83c-1.57,0.62-3.14,1.23-4.71,1.85
			c0.09,0.27,0.19,0.54,0.28,0.81c1.32-0.17,2.64-0.34,3.96-0.52c0.06,0.16,0.11,0.32,0.17,0.48c-1.89,0.87-3.78,1.75-5.67,2.62
			c0.07,0.27,0.15,0.54,0.22,0.82c1.67-0.43,3.44-0.64,5-1.33c1.61-0.71,2.85-1.47,4.53,0.03c0.83,0.74,2.38,0.68,3.6,0.99
			c0.14-0.3,0.28-0.6,0.42-0.9c-1.36-0.95-2.71-1.91-3.99-2.81c1.49-0.43,3.02-0.87,4.55-1.32c-0.05-0.31-0.11-0.62-0.16-0.93
			c-1.94,0.13-3.89,0.26-6,0.4c-0.19-0.54-0.41-1.13-0.77-2.12c2.19,0,4.2,0.36,6-0.09c2.55-0.64,2.78,1.86,4.64,2.84
			c0.41-0.89,0.78-1.68,1.11-2.41c11.22,0.71,22.64,1.17,33.8,3.84c2.53,0.6,5.15,0.91,7.62,1.69c1.06,0.34,2.31,1.37,2.67,2.37
			c0.74,2.06,0.93,4.32,1.4,6.76c-8.17-2.42-16.25-2.91-24.35-3.48c-5.26-0.37-10.44-1.88-15.7-2.33
			c-6.47-0.56-12.98-0.74-19.47-0.73c-6.11,0.01-12.23,0.29-18.31,0.8c-6.81,0.57-13.62,1.34-20.37,2.4
			c-6.9,1.08-13.73,2.56-20.57,3.97c-3.13,0.65-3.55,0.45-4.15-2.73c-1.44-7.63-0.99-15.15,1.14-22.61
			C593.59,385.26,593.97,382.98,594.5,380.59z"/>
		<path class="volume_1_st0" d="M722.21,505.35c0,0.67-0.07,1.35,0.01,2.02c0.49,4.28-1.44,7.47-4.4,10.3c-1.5,1.43-2.71,3.17-4.21,4.61
			c-3.93,3.78-8.79,4.1-13.79,3.2c-2.63-0.47-3.88-2.73-3.99-5.08c-0.1-2.03,0.47-4.24,1.33-6.1c0.32-0.69,2.31-0.93,3.5-0.84
			c3.33,0.23,5.92-1.18,8.31-3.22c2.55-2.18,5.07-4.38,7.62-6.55c0.68-0.58,1.35-1.32,2.16-1.56c0.99-0.29,2.15-0.31,3.15-0.07
			c0.29,0.07,0.3,1.42,0.38,2.18c0.04,0.37-0.03,0.75-0.04,1.12C722.23,505.35,722.22,505.35,722.21,505.35z"/>
		<path class="volume_1_st0" d="M816.27,499.03c0.29,0.06,0.64,0.04,0.84,0.2c5.39,4.22,11.38,7.96,13.95,14.74
			c1.04,2.73,1.48,5.77,1.67,8.71c0.13,1.99-0.7,4.13-2.95,4.83c-2.37,0.74-4.7,0.61-6.63-1.38c-3.4-3.5-4.48-7.94-5.53-12.5
			c-0.55-2.39-1.83-4.61-2.58-6.97c-0.36-1.14-0.51-2.47-0.31-3.64C814.98,501.67,815.71,500.41,816.27,499.03z"/>
		<path class="volume_1_st0" d="M627.01,396.05c0.85-0.19,1.77-0.22,2.53-0.58c2.55-1.22,5.17-1.66,8.03-1.63
			c8.14,0.07,16.29-0.02,24.44-0.25c9.18-0.25,18.19,1.16,27.19,2.64c2.53,0.41,4.43-0.13,6.48-1.45
			c5.59-3.59,11.29-7.03,16.94-10.52c0.3-0.18,0.64-0.29,1.08-0.49c-0.28,5.95-0.56,11.73-0.84,17.65c-2.01,0.03-3.48-0.68-4.1-2.83
			c-0.49-1.71-1.12-3.39-1.66-5.09c-0.39-1.24-1.04-1.74-2.33-1.08c-2.21,1.15-4.45,2.25-6.67,3.37c0.13,0.32,0.27,0.64,0.4,0.95
			c2.12-0.89,4.24-1.78,6.57-2.76c0.75,2.12,1.45,4.12,2.29,6.49c-26.81-6.12-53.52-6.47-80.51-3.29c0.07-0.38,0.14-0.79,0.21-1.19
			C627.06,396.01,627.01,396.05,627.01,396.05z"/>
		<path class="volume_1_st0" d="M603.9,463.55c1.36,0.85,2.54,1.59,3.82,2.39c-3.86,5.61-8.96,8.89-15.5,9.87c-1.9,0.28-3.05-0.87-2.9-2.86
			c0.36-4.79,3.11-8.45,5.88-12.05c0.84-1.09,2.2-1.78,3.43-2.72c0.84,0.91,2.16,2.21,3.3,3.65c0.27,0.34,0.16,1.27-0.11,1.72
			c-1.23,2.03-2.59,3.99-3.9,5.97C599.64,470.5,602.24,468.01,603.9,463.55z"/>
		<path class="volume_1_st0" d="M608.42,464.42c-0.82-0.44-1.52-0.85-2.24-1.2c-1.19-0.57-1.37-1.3-0.75-2.5c0.92-1.8,0.83-1.84-0.5-3.07
			c-0.54,0.97-1.06,1.9-1.72,3.09c-1.25-1.36-2.53-2.74-3.76-4.07c1.49-2.56,3.38-4.09,6.27-4.27c1.54-0.1,3.07-0.54,4.59-0.85
			c1.21-0.25,1.84,0.29,1.92,1.47C612.47,457.01,611.24,460.77,608.42,464.42z"/>
		<path class="volume_1_st0" d="M507.16,192.07c-1.14-6.41,3.03-9.97,8.55-12.55c8.95-4.18,18.08-3.59,26.89,0.09
			c6.49,2.71,12.98,12.98,10.67,21.26c-2.27,8.16-6.82,14.66-14.31,18.55c-3.7,1.92-8.06,2.54-12.12,3.75
			c-0.21,0.06-0.52,0.16-0.65,0.06c-3.98-3.25-9.76-3.59-13.03-7.95c-1.28-1.71-2.75-3.48-3.33-5.46
			C508.18,204.23,506.77,198.55,507.16,192.07z M529.39,212.07c0.24-0.07,0.47-0.14,0.71-0.21c0.06-0.92,0.24-1.86,0.15-2.77
			c-0.45-4.45-0.92-8.9-1.48-13.33c-0.4-3.17-0.9-6.34-1.49-9.48c-0.13-0.67-0.85-1.23-1.3-1.84c-0.21,0.13-0.41,0.26-0.62,0.39
			c0.06,1.1,0.06,2.21,0.19,3.3c0.9,7.3,1.8,14.6,2.78,21.88C528.42,210.73,529.02,211.38,529.39,212.07z"/>
		<path class="volume_1_st0" d="M611.65,315.53c-0.94-0.98-1.54-1.61-2.38-2.49c1.36-0.92,2.58-1.81,3.88-2.58c0.36-0.21,0.95-0.04,1.43-0.05
			c0,0.48,0.18,1.09-0.05,1.42C613.7,313.04,612.75,314.14,611.65,315.53z"/>
		<path class="volume_1_st0" d="M606,318.76c0.42-0.94,0.83-1.89,1.27-2.82c0.12-0.25,0.35-0.45,0.64-0.82c0.61,0.48,1.16,0.91,2.04,1.6
			c-1.28,0.98-2.36,1.8-3.43,2.63C606.34,319.14,606.17,318.95,606,318.76z"/>
		<path class="volume_1_st0" d="M638.61,306.24c0.2,1.86,0.42,3.55,0.56,5.25c0.12,1.4-0.34,2.31-2,2.24c-1.59-0.07-2.84-0.46-2.89-2.34
			C634.22,308.73,635.31,307.38,638.61,306.24z"/>
		<path d="M633.75,430.38c0.25,3.65-2.39,6.75-5.5,9.36c-2.39,2.01-6.08,0.63-7.6-2.15c-1.65-3-1.43-6.09-0.08-8.83
			c1.42-2.88,3.5-5.51,5.62-7.96c1.65-1.91,3.27-1.55,4.87,0.42C633.01,423.64,633.81,426.42,633.75,430.38z"/>
		<path d="M529.39,212.07c-0.37-0.68-0.96-1.33-1.06-2.05c-0.98-7.29-1.88-14.58-2.78-21.88c-0.13-1.09-0.13-2.2-0.19-3.3
			c0.21-0.13,0.41-0.26,0.62-0.39c0.45,0.61,1.17,1.17,1.3,1.84c0.59,3.14,1.09,6.3,1.49,9.48c0.56,4.44,1.03,8.88,1.48,13.33
			c0.09,0.91-0.09,1.85-0.15,2.77C529.86,211.93,529.62,212,529.39,212.07z"/>
	</g>
</g>
<g id="mask">
	<path class="volume_1_st1" d="M451,179c60.97-35.41,103.71-57.11,108-51c8.31,11.82-132.07,121.36-127,128c6.04,7.91,207.68-144.42,218-132
		c10.88,13.1-198.19,201.18-193,207c5.67,6.36,257.73-214.93,266-206c8.64,9.33-255.29,262.19-248,270
		c7.57,8.11,301.02-255.39,305-251c4.08,4.5-303.25,284.74-296,293c7.55,8.6,349.87-284.05,356-277c6.38,7.33-357.69,331.66-353,337
		c4.81,5.47,391.25-329.5,397-323c5.88,6.65-392.45,363.29-384,373c8.14,9.36,388-311.02,394-304c6.11,7.15-383.73,344.58-375,355
		c8.15,9.73,357.51-272.72,363-266c5.59,6.84-351.79,305.92-346,313c5.43,6.63,324.94-249.7,333-240
		c7.11,8.55-233.69,216.81-226,226c7.23,8.65,227.43-167.12,235-158c6.76,8.15-161.93,156.81-155,165
		c6.22,7.35,148.05-105.33,156-96c6.89,8.09-94.74,98.49-85,111c5.44,6.99,43.69-12.82,92-42"/>
</g>
</svg>
