<?xml version="1.0" encoding="utf-8"?>
<!-- Generator: Adobe Illustrator 26.3.1, SVG Export Plug-In . SVG Version: 6.00 Build 0)  -->
<svg version="1.1" xmlns="http://www.w3.org/2000/svg" xmlns:xlink="http://www.w3.org/1999/xlink" x="0px" y="0px"
	 viewBox="0 0 1366 768" style="enable-background:new 0 0 1366 768;" xml:space="preserve">
<style type="text/css">
	.volume_1_st0{fill:#ffffff;}
	.volume_1_st1{fill:none;stroke:#ffffff;stroke-width:65.1969;stroke-miterlimit:10;}
</style>
<g id="base">
	<g>
		<path class="volume_1_st0" d="M458,697.75c0-209.25,0-418.5,0-627.75c150,0,300,0,450,0c0,209.25,0,418.5,0,627.75
			C758,697.75,608,697.75,458,697.75z M701.68,595.62c0.4,0.25,0.77,0.6,1.2,0.75c4.34,1.52,8.68,3.01,13.04,4.48
			c0.36,0.12,0.8,0.02,1.74,0.02c-0.87-0.76-1.28-1.36-1.83-1.55c-2.74-0.95-5.48-1.91-8.28-2.64c-1.92-0.51-3.94-0.67-5.92-0.99
			c-0.45-0.33-0.9-0.94-1.33-0.93c-6.52,0.18-13.05,0.45-19.57,0.7c5.01,0.29,9.99,0.31,14.97,0.29
			C697.7,595.73,699.69,595.66,701.68,595.62z M852.51,350.86c-0.21,0.62-0.56,1.23-0.62,1.87c-0.23,2.87-0.33,5.76-0.57,8.63
			c-0.36,4.31-0.83,8.62-1.18,12.94c-0.25,3.08-0.4,6.17-0.55,9.26c-0.02,0.36,0.23,0.73,0.35,1.1c0.46-0.5,0.6-0.97,0.64-1.44
			c0.57-8.42,1.13-16.84,1.66-25.26c0.15-2.35,0.16-4.71,0.24-7.07c0.27-0.83,0.7-1.64,0.8-2.5c1.01-8.74,1.81-17.51,2.98-26.23
			c1.06-7.96,2.55-15.87,3.74-23.82c2.14-14.22,4.2-28.45,6.31-42.67c0.47-3.13,1.04-6.24,1.57-9.36c-0.22-0.04-0.45-0.07-0.67-0.11
			c-0.67,4.17-1.31,8.35-2.03,12.52c-0.96,5.57-2.09,11.12-2.95,16.7c-1.27,8.25-2.36,16.53-3.55,24.79
			c-0.75,5.16-1.57,10.31-2.34,15.47c-0.76,5.08-1.56,10.15-2.2,15.24c-0.77,6.06-1.4,12.14-2.04,18.21
			C852.03,349.68,852.37,350.28,852.51,350.86z M627.06,396.01c-2.58-1.62-5.08-3.38-7.75-4.84c-7.53-4.12-15.11-8.14-22.71-12.12
			c-1.11-0.58-2.44-0.73-4.18-1.23c-1.04,7.06-2.3,13.57-2.85,20.14c-0.34,4.02,0.4,8.14,0.69,12.21c0.1,1.38,0.88,3,0.39,4.09
			c-1.39,3.09-3.24,5.99-4.96,8.92c-2.83,4.8-3.24,9.93-0.63,14.7c3.46,6.33,7.61,12.28,11.39,18.27c-2.38,3.63-5.1,7.4-7.37,11.43
			c-1.01,1.79-1.34,4.08-1.52,6.18c-0.22,2.59,0.74,3.68,3.31,3.78c4.24,0.17,8.33-0.85,11.72-3.44c2.68-2.04,4.97-4.6,7.33-6.84
			c4.1,1.62,8.49,3.08,12.63,5.06c6.11,2.91,12.72,3.23,19.19,3.92c7.47,0.79,15.02,1.11,22.53,1.05
			c5.98-0.05,11.96-0.98,18.13-1.54c0.03,0.24,0.09,0.89,0.21,1.53c0.83,4.41,2,8.82,6.34,11.01c3.55,1.79,7.41,3.06,11.23,4.23
			c3.48,1.07,7.17,1.47,10.64,2.58c2.87,0.91,5.75,2.13,7.42,4.81c-1.87,1.65-3.61,3.34-5.52,4.82c-2.86,2.21-5.63,4.69-8.84,6.24
			c-2.51,1.21-5.61,1.17-8.39,1.67c-0.31,0.79-0.54,1.56-0.88,2.27c-1.77,3.72-0.03,10.32,4.78,11.94
			c5.56,1.88,13.29-0.45,16.98-5.1c1.82-2.29,3.96-4.33,5.96-6.48c0.24,0.02,0.48,0.05,0.72,0.07c0.71,3.31,1.46,6.61,2.1,9.94
			c0.62,3.2,3.41,6.56,6,6.84c1.96,0.21,3.95,0.39,5.9,0.25c5.06-0.35,9.17-2.37,10.77-7.55c1.97-6.38,3.65-12.84,2.02-19.62
			c-0.21-0.88-0.17-1.83-0.23-2.68c4.46,0.45,8.59,0.97,12.75,1.26c4.62,0.33,9.27,0.37,13.9,0.69c2.6,0.18,3.34,1.35,3.89,3.82
			c1.11,5-0.04,9.86-0.92,14.64c-0.87,4.73,0.61,8.45,3.2,12.04c0.36,0.5,1.05,1.07,1.59,1.07c2.94,0,6.18,0.58,8.76-0.45
			c4.35-1.73,8.45-4.53,10.87-8.66c2.57-4.37,4.38-9.18,6.5-13.81c0.99-2.16,1.95-4.35,3.17-7.06c0.62,1.47,1.06,2.25,1.3,3.1
			c0.91,3.22,1.61,6.51,2.65,9.69c1.26,3.88,2.94,7.61,6.83,9.63c3.26,1.69,9,0.94,9.86-4.6c0.54-3.48-0.1-6.85-1.39-10.09
			c-2.75-6.91-8.38-11.12-14.25-15.05c-1.38-0.92-1.98-1.76-1.61-3.46c0.48-2.17,0.5-4.45,1.03-6.6c1.29-5.2,0.94-10.48-0.96-15.21
			c-1.74-4.31-0.29-6.45,2.97-8.5c0.5-0.32,0.89-0.81,1.39-1.14c1.82-1.2,3.67-2.37,4.87-3.14c1.8-1.84,2.98-3.38,4.48-4.52
			c5.82-4.44,10.45-9.77,12.99-16.73c1.85-5.06-3.4-9.91-7.25-9.33c-5.95,0.9-10.96,3.74-14.93,7.92
			c-4.4,4.62-8.07,9.93-12.15,14.86c-1.65,2-3.47,3.88-5.37,5.64c-0.59,0.55-1.73,0.8-2.58,0.72c-5.86-0.51-11.69-1.38-17.55-1.67
			c-5.58-0.28-11.18-0.01-16.78,0.03c-7.25,0.05-14.51-0.07-21.76,0.21c-7.54,0.29-15.07,1.1-22.61,1.4
			c-5.95,0.24-11.93,0.05-17.29,0.05c2.38-4.69,5.02-9.91,7.67-15.13c2.34-4.6,2.79-9.68,3.9-14.62c1.33-5.85,1.11-11.59-0.01-17.34
			c-0.83-4.24-1.56-8.49-1.47-12.8c0.12-5.38,0.52-10.75,0.74-16.12c0.03-0.68-0.1-1.73-0.52-1.96c-0.47-0.26-1.45,0.03-2.03,0.38
			c-6.33,3.83-12.69,7.61-18.89,11.64c-1.95,1.27-3.75,1.51-5.9,1.1c-4.03-0.78-8.06-1.68-12.14-2.08
			c-5.19-0.51-10.42-0.65-15.64-0.79c-4.47-0.12-8.95-0.01-13.43,0.01c-3.66,0.02-7.31,0.08-10.97,0.12
			c-3.8,0.04-7.24,0.87-9.46,4.34L627.06,396.01z M494.75,151.77c-0.06,0.12-0.11,0.24-0.17,0.36c0.52,2.17,1.1,4.32,1.53,6.5
			c0.24,1.22,0.16,2.5,0.33,3.74c0.5,3.74,1.42,7.47,1.49,11.22c0.13,7.16-0.39,14.32-0.33,21.48c0.1,11.42,0.39,22.85,0.73,34.27
			c0.25,8.22,0.62,16.45,1.09,24.66c0.47,8.27,1.12,16.54,1.73,24.8c0.34,4.55,0.66,9.1,1.17,13.64c0.77,6.88,1.89,13.72,2.52,20.61
			c0.72,7.8,1,15.63,1.58,23.44c0.65,8.71,1.43,17.4,2.15,26.1c0.11,1.38,0.23,2.76,0.34,4.15c0.22,0,0.44-0.01,0.66-0.01
			c0.09-0.99,0.3-1.99,0.25-2.97c-0.29-5.97-0.56-11.95-0.98-17.92c-0.67-9.47-1.35-18.94-2.2-28.4
			c-0.86-9.53-2.01-19.03-2.87-28.56c-0.63-6.93-0.97-13.88-1.48-20.82c-0.78-10.58-1.83-21.16-2.31-31.75
			c-0.51-11.29-0.55-22.6-0.68-33.91c-0.09-7.34,0.16-14.68,0-22.01c-0.11-5.43-0.5-10.86-1.03-16.26
			c-0.28-2.82-0.25-3.35,2.59-3.71c4.6-0.57,9.2-1.2,13.82-1.41c9.7-0.43,19.4-0.67,29.1-0.87c11.14-0.23,22.29-0.21,33.42-0.55
			c7.99-0.24,15.96-0.9,23.94-1.37c4.54-0.26,9.09-0.47,13.63-0.76c6.92-0.44,13.83-1.01,20.75-1.39
			c7.49-0.41,14.98-0.82,22.47-0.94c9.32-0.15,18.66-0.14,27.98,0.08c4.75,0.11,9.49,0.81,14.22,1.31
			c4.08,0.44,8.22,0.63,12.19,1.55c6.49,1.51,13.04,2.09,19.65,2.35c8.14,0.32,16.28,0.59,24.41,1.06
			c3.41,0.19,6.81,0.75,10.19,1.29c4.61,0.72,9.17,1.77,13.79,2.33c4.95,0.6,9.96,0.74,14.93,1.17c7.06,0.61,14.1,1.67,21.17,1.86
			c8.5,0.23,16.94,0.69,25.26,2.45c6.09,1.29,12.12,2.88,18.15,4.45c0.63,0.16,1.38,0.96,1.56,1.6c0.59,2.15,1.07,4.36,1.36,6.57
			c0.9,6.73,1.28,13.55,2.6,20.19c2.5,12.56,3.12,25.16,2.15,37.88c-0.08,1.03-0.01,2.07-0.01,3.11c0.58-1.32,0.66-2.64,0.81-3.95
			c1.04-9.29,0.85-18.56-0.42-27.81c-0.5-3.65-1.19-7.28-1.7-10.94c-1.14-8.06-2.23-16.13-3.32-24.2c-0.28-2.1-1.01-3.54-3.48-3.89
			c-2.87-0.41-5.75-1.09-8.51-2c-6.85-2.25-13.84-3.72-21.02-4.2c-6.03-0.41-12.09-0.48-18.12-0.92c-7.74-0.56-15.47-1.2-23.18-2.03
			c-7.14-0.77-14.24-1.88-21.36-2.75c-6.7-0.82-13.39-1.74-20.12-2.21c-7.9-0.56-15.83-0.53-23.73-1.07
			c-5.18-0.35-10.32-1.24-15.48-1.93c-6.11-0.82-12.19-2.09-18.32-2.42c-10.04-0.54-20.11-0.7-30.17-0.61
			c-7.07,0.06-14.12,0.85-21.19,1.22c-5.32,0.28-10.66,0.28-15.97,0.61c-9.85,0.62-19.68,1.47-29.54,2.07
			c-4.82,0.29-9.67,0.24-14.51,0.33c-1.56,0.03-3.11-0.01-4.67,0.06c-1.49,0.07-2.97,0.32-4.46,0.35
			c-6.41,0.12-12.82,0.13-19.23,0.29c-7.33,0.18-14.65,0.43-21.97,0.74c-7.5,0.32-15,0.67-22.49,1.18
			c-2.55,0.17-5.05,0.88-7.76,1.37c-0.25-1.37-0.32-2.89-0.82-4.26C496.41,154.13,495.48,152.99,494.75,151.77z M512.51,335.27
			c0.02,0.34,0.04,0.68,0.05,1.03c0.87,0.09,1.75,0.27,2.62,0.24c1.04-0.03,2.07-0.25,3.11-0.36c7-0.77,14-1.53,21-2.31
			c4.43-0.49,8.84-1.19,13.28-1.49c6.99-0.47,14-0.65,21-1.03c4.23-0.23,8.45-0.7,12.68-0.89c3.55-0.16,7.11-0.01,10.67-0.13
			c7.35-0.25,14.7-0.63,22.05-0.89c7.32-0.26,14.64-0.44,21.96-0.62c1.07-0.03,2.15,0.14,3.23,0.23c0.58,0.04,1.16,0.17,1.73,0.13
			c1.47-0.1,2.95-0.49,4.39-0.37c5.59,0.43,11.17,1.04,16.76,1.53c5.2,0.46,10.41,0.77,15.6,1.28c5.61,0.55,11.2,1.38,16.81,1.86
			c6.61,0.56,13.25,0.86,19.87,1.27c5.22,0.32,10.43,0.71,15.66,0.95c7.57,0.36,15.15,0.49,22.7,0.97c8.78,0.56,17.53,1.62,26.31,2
			c4.59,0.2,9.21-0.83,13.83-0.92c8.58-0.15,17.17-0.16,25.75,0.04c6.18,0.15,12.35,0.77,18.54,1.09c1.58,0.08,3.18-0.21,4.77-0.33
			c-0.01-0.28-0.01-0.55-0.02-0.83c-0.54-0.08-1.07-0.19-1.62-0.22c-4.32-0.25-8.64-0.53-12.97-0.7
			c-8.82-0.33-17.65-0.85-26.47-0.81c-9.48,0.05-18.95,0.87-28.43,0.94c-5.4,0.04-10.82-0.74-16.22-1.18
			c-7.2-0.59-14.39-1.32-21.59-1.76c-5.73-0.35-11.49-0.27-17.22-0.54c-5.94-0.29-11.86-0.77-17.79-1.17
			c-4.16-0.28-8.33-0.46-12.48-0.86c-7.42-0.72-14.81-1.68-22.24-2.32c-4.9-0.43-9.83-0.48-14.75-0.7
			c-5.01-0.23-10.02-0.56-15.03-0.65c-3.08-0.06-6.17,0.3-9.26,0.34c-5.44,0.06-10.88-0.09-16.32,0.06
			c-7.38,0.21-14.75,0.59-22.12,0.94c-8.05,0.38-16.09,0.74-24.13,1.24c-10.81,0.67-21.61,1.43-32.4,2.24
			c-5.73,0.43-11.46,0.99-17.18,1.6C516.58,334.36,514.55,334.88,512.51,335.27z M520.55,224.21c0.01,0.16,0.02,0.31,0.03,0.47
			c0.21,0.07,0.41,0.17,0.62,0.21c6.28,1.15,11.99-1.11,17.59-3.3c6.77-2.64,10.6-8.48,14.21-14.41c1.6-2.62,2.32-5.46,2.57-8.47
			c0.65-7.77-3.42-13.43-8.57-18.41c-1.73-1.68-4.24-2.71-6.57-3.58c-3.46-1.29-7.14-1.31-10.84-1.56
			c-7.93-0.54-14.72,1.47-20.56,6.76c-2.67,2.42-3.39,5.63-3.46,9.12c-0.11,5.64,0.51,11.14,1.88,16.64
			c1.52,6.08,4.73,10.52,10.44,13.13c1.91,0.87,3.81,1.76,6.03,2.79C522.52,223.85,521.54,224.03,520.55,224.21z M634.8,185.92
			c-0.22-0.22-0.44-0.44-0.67-0.67c-0.65,0.68-1.46,1.27-1.92,2.07c-5.06,8.7-10.1,17.41-15.05,26.18c-1.47,2.61-2.61,5.4-4.07,8.47
			c1.43,0.25,2.19,0.39,2.71,0.48c3.13-5.53,4.98-11.47,9.85-15.97c0.51,0.9,0.89,1.51,1.21,2.16c0.97,1.93,1.73,3.99,2.91,5.79
			c1.22,1.86,2.71,3.58,4.27,5.17c1.8,1.84,4.12,2.55,6.58,1.65c3.56-1.29,4.74-4.88,6.93-7.5c-1.15,0.64-2.13,1.42-3.09,2.25
			c-0.96,0.83-1.82,1.79-2.84,2.53c-2.63,1.93-4.15,1.7-6.45-0.62c-2.96-2.99-4.85-6.59-6.42-10.43c-0.67-1.64-1.27-3.61-3.94-2.22
			C627.58,198.32,633.17,193.14,634.8,185.92z M587.06,202.68c-0.26,0.03-0.52,0.07-0.78,0.1c0.28,2.58,0.44,5.19,0.91,7.74
			c0.14,0.77,1.08,1.67,1.84,1.92c0.45,0.15,1.49-0.75,1.9-1.4c4.01-6.33,6.02-13.29,6.25-20.76c0.16-5.27-0.93-6.75-4.98-7.14
			c-0.11-1.72,1.64-3.42-0.18-5.63c-0.45,0.99-0.7,1.71-1.08,2.34c-1.03,1.73-1.75,3.92-3.26,5.03c-3.17,2.33-6.77,4.06-10.15,6.12
			c-0.35,0.21-0.39,0.93-0.58,1.41c0.46,0.06,1.02,0.31,1.36,0.14c1.2-0.61,2.32-1.35,3.47-2.06c1.94-1.2,3.88-2.41,6.16-3.82
			c-1.35,4.36-2.58,8.31-3.79,12.22c2.23,0.94,2.15,0.85,2.72-1.04c1.12-3.71,2.37-7.38,3.78-10.99c0.29-0.74,1.51-1.55,2.29-1.54
			c0.64,0.01,1.44,1.09,1.85,1.87c0.31,0.59,0.16,1.46,0.14,2.2c-0.17,5.65-1.56,11.03-3.77,16.21c-0.57,1.33-1.27,2.61-1.91,3.92
			c-0.21-0.02-0.42-0.05-0.64-0.07C588.1,207.18,587.58,204.93,587.06,202.68z M607.89,311.59c-0.71-1.24-1.26-2.41-2.01-3.44
			c-0.39-0.54-1.11-0.85-1.68-1.26c-0.17,0.63-0.62,1.35-0.46,1.89c0.33,1.12,0.84,2.26,1.54,3.2c0.81,1.08,0.77,1.88,0.12,3.02
			c-0.77,1.34-1.35,2.82-1.73,4.32c-0.26,1.04,0,2.23,1.59,1.92c1.01-0.2,2.02-0.5,2.97-0.9c1.05-0.46,2.18-1.69,3-1.49
			c1.06,0.26,1.85,1.61,2.76,2.5c0.43,0.42,0.77,1.01,1.28,1.24c0.68,0.3,1.48,0.32,2.23,0.46c-0.26-0.79-0.32-1.78-0.84-2.34
			c-1.18-1.28-2.58-2.35-3.87-3.48c1.65-2.08,3.07-3.87,4.64-5.84c2.29,0.54,4.47,1.89,5.75,3.96c1.62,2.62-1.18,4.56-2.14,7.27
			c2.51-1.15,4.16-2.41,4.62-4.84c0.4-2.15-0.28-3.79-2.12-5c-3.03-1.98-6.11-3.96-4.72-8.55c-0.4,0.09-1.02,0.13-1.04,0.25
			c-0.46,3.19-2.48,4.29-5.46,4.29c-0.44,0-0.88,0.53-1.31,0.81C610.08,310.18,609.15,310.78,607.89,311.59z M856.47,292.35
			c0.01-0.29,0.02-0.58,0.03-0.87c-0.99-0.19-1.97-0.5-2.96-0.54c-3.14-0.14-6.28-0.25-9.42-0.23c-4.45,0.03-8.91,0.11-13.36,0.34
			c-4.76,0.24-9.52,0.65-14.28,1.03c-1.19,0.09-2.36,0.34-3.54,0.51c0.02,0.18,0.04,0.35,0.07,0.53c1.85,0,3.7,0,5.56,0
			c-2.63,1.66-5.44,2.75-8.14,4.05c-5.41,2.6-11.03,4.43-17.07,3.52c-4.9-0.74-9.69-2.23-14.59-2.95
			c-6.04-0.89-12.13-1.4-18.22-1.92c-1.7-0.14-3.45,0.29-5.18,0.46c0.01,0.25,0.02,0.5,0.03,0.75c3.32,0,6.65-0.12,9.97,0.02
			c8.24,0.35,16.35,1.8,24.24,4.03c7.31,2.07,13.83,0.39,20.33-2.59c2.36-1.08,4.7-2.2,7.04-3.32c4.63-2.22,9.69-2.6,14.64-2.82
			c7.59-0.34,15.21-0.04,22.82-0.01C855.09,292.35,855.78,292.35,856.47,292.35z M510.05,408.56c-0.17,0-0.34,0-0.52,0
			c0,1.83-0.15,3.68,0.03,5.5c0.51,5.19,1.11,10.37,1.77,15.54c0.56,4.43,1.18,8.85,1.86,13.25c0.81,5.22,1.75,10.43,2.55,15.65
			c0.88,5.74,1.68,11.49,2.51,17.23c1.31,9.05,2.67,18.1,3.91,27.16c0.64,4.64,1.04,9.31,1.62,13.96c0.16,1.28,0.6,2.53,0.91,3.8
			c0.19-0.05,0.38-0.1,0.57-0.15c-0.19-1.16-0.43-2.31-0.56-3.47c-0.99-8.8-1.86-17.62-2.97-26.4c-0.63-5-1.68-9.95-2.46-14.94
			c-0.87-5.57-1.61-11.15-2.48-16.72c-0.55-3.49-1.28-6.96-1.83-10.45c-0.91-5.84-1.81-11.68-2.57-17.54c-0.65-4.99-1.1-10-1.62-15
			C510.52,413.51,510.29,411.04,510.05,408.56z M778.76,322.64c-0.39,1.63-0.72,2.67-0.84,3.73c-0.05,0.5,0.31,1.48,0.51,1.49
			c0.65,0.03,1.43-0.14,1.95-0.52c1.2-0.87,2.37-1.81,3.37-2.89c3.03-3.27,6.16-6.48,8.89-9.99c1.92-2.47,0.66-4.78-2.41-5.28
			c-0.51-0.08-0.99-0.28-1.52-0.43c0-0.7,0-1.39,0-2.45c-0.68,0.36-1.33,0.48-1.44,0.79c-0.66,2.01-2.33,2.34-4.04,3.05
			c-2.67,1.11-5.1,2.79-7.63,4.23c0.16,0.3,0.31,0.6,0.47,0.9c3.26-0.11,5.45-2.67,8.34-3.97c-1.79,2.75-3.59,5.51-5.38,8.26
			c0.3,0.27,0.59,0.54,0.89,0.81c0.67-0.56,1.48-1.01,2-1.69c1.94-2.53,3.64-5.26,5.75-7.62c0.58-0.65,2.27-0.29,3.46-0.39
			c-0.08,0.9,0.14,1.99-0.28,2.66c-2.89,4.54-6.63,8.31-10.91,11.77C779.58,324.33,779.31,323.77,778.76,322.64z M640.29,305.17
			c2.37,0.6,4.46,0.93,6.38,1.7c1,0.4,1.8,1.5,2.48,2.44c3.2,4.41-0.27,7.44-2.67,10.74c0.93,0.04,1.61,0.05,1.99-0.28
			c2.25-1.89,4.78-3.95,4.06-7.2c-0.71-3.23-2.15-6.28-5.7-7.69c-3.26-1.29-6.4-0.85-9.62,0.02c-3.5,0.95-5.46,3.9-4.79,7.44
			c0.45,2.36,2.91,3.67,6.01,3.21c1.95-0.29,3-2,2.69-4.4C640.89,309.38,640.63,307.63,640.29,305.17z M853.84,447.43
			c-0.35,0.09-0.7,0.18-1.05,0.27c0.85,2.39,1.42,4.93,2.6,7.14c3.12,5.81,4.35,11.83,2.97,18.34c-0.83,3.92-1.54,7.87-2.33,11.8
			c-1.97,9.75-2.89,19.63-3.43,29.55c-0.09,1.55-0.01,3.16,0.28,4.68c0.21,1.13,0.89,2.16,1.36,3.24c-0.12-1.83-0.74-3.45-0.62-5.01
			c0.58-7.82,1.07-15.66,2.13-23.42c0.88-6.48,2.59-12.85,3.74-19.3c0.54-3.05,0.93-6.19,0.86-9.27
			C860.18,458.73,855.58,453.61,853.84,447.43z M855.23,592.97c0.09,0,0.18,0,0.28,0c0.07-0.78,0.19-1.56,0.2-2.35
			c0.08-3.84,0.09-7.69,0.19-11.53c0.12-4.54,0.39-9.07,0.45-13.61c0.02-2.06,0.18-4.34-0.59-6.15c-1.97-4.57-2.6-9.35-2.56-14.17
			c0.05-6.6-1.14-12.98-2.57-19.35c-0.09-0.42-0.64-0.75-0.98-1.12c-0.26,0.6-0.18,0.95-0.13,1.32c0.72,6.29,1.44,12.58,2.16,18.86
			c0.5,4.3,0.58,8.7,1.62,12.86c1.49,5.92,2.09,11.83,1.96,17.89C855.13,581.41,855.23,587.19,855.23,592.97z M608.82,603.73
			c-14.46,1.81-28.88,3.98-43.38,5.34c-14.45,1.36-28.97,1.91-43.46,2.81C527.08,614.05,596.83,607.51,608.82,603.73z
			 M509.53,302.38c-0.02,0.32-0.03,0.63-0.05,0.95c4.32,0.55,8.65,1.62,12.96,1.52c6.76-0.15,13.51-0.96,20.24-1.74
			c8.44-0.98,16.85-2.24,25.28-3.33c3.26-0.42,6.54-0.71,9.82-1.05c0-0.19-0.01-0.37-0.01-0.56c-2.75,0-5.54-0.25-8.26,0.06
			c-4.47,0.51-8.89,1.43-13.35,2.07c-4.27,0.61-8.56,1.07-12.83,1.63c-10.12,1.34-20.22,2.91-30.41,0.49
			C511.85,302.16,510.67,302.38,509.53,302.38z M699.92,304.42c-0.16-0.14-0.33-0.27-0.49-0.41c-0.36,0.23-0.81,0.39-1.06,0.71
			c-3.53,4.51-7.06,9.01-10.49,13.59c-0.4,0.53-0.56,1.96-0.25,2.19c1.1,0.82,1.58-0.16,2.13-1.06c1.33-2.16,2.8-4.25,4.56-6.88
			c1.36,2.08,2.66,3.43,3.21,5.05c0.79,2.34,2.41,2.59,4.36,2.47c2.32-0.14,4.23-1.62,4.83-4.02c-0.94,0.59-1.58,0.95-2.19,1.38
			c-2.35,1.67-3.58,1.42-5.28-0.9c-1.32-1.81-2.79-3.51-4.22-5.3C696.62,309.07,699.22,307.38,699.92,304.42z M791.57,444.87
			c4.67-8.92,10.98-15.72,21.49-17.35C802.68,425.63,791.82,436.56,791.57,444.87z M721.38,318.11c2.16-4.95,6.6-8.65,6.6-14.35
			c-0.64,0.27-0.97,0.7-1.23,1.17c-1.4,2.44-2.76,4.9-4.16,7.33c-0.96,1.67-2.11,3.26-2.86,5.03c-0.3,0.71,0.03,2.45,0.42,2.57
			c3.42,1.02,6.91,1.16,10.25-0.35c0.51-0.23,0.74-1.1,1.1-1.67C727.87,318.86,724.76,319.74,721.38,318.11z M529.36,550.35
			c-0.32,0.13-0.65,0.25-0.97,0.38c0.45,1.34,0.74,2.78,1.39,4.01c1.2,2.28,2.75,4.39,3.9,6.69c0.56,1.12,0.83,2.54,0.73,3.79
			c-0.35,4.45-1.04,8.88-1.36,13.33c-0.22,3.13-0.04,6.29-0.04,9.87c0.22-0.92,0.41-1.46,0.47-2c0.64-6,1.33-12,1.87-18.02
			c0.22-2.43,0.83-5.17,0.01-7.27C533.85,557.35,531.41,553.93,529.36,550.35z M566.04,324.14c-0.31-2.59-0.69-4.55-0.75-6.52
			c-0.06-2.23,0.22-4.47,0.22-6.71c0-0.41-0.59-0.83-0.91-1.24c-0.46,0.37-1.29,0.72-1.31,1.11c-0.21,4.7-0.63,9.45,1.16,13.99
			c0.72,1.82,2.08,2.05,3.44,0.63c0.77-0.81,1.65-1.54,2.28-2.45c0.45-0.65,0.57-1.53,0.84-2.31c-0.27-0.16-0.53-0.33-0.8-0.49
			C569.03,321.28,567.85,322.42,566.04,324.14z M588.42,297.34c3.22,0.86,39.97,0.43,41.11-0.33
			C625.07,296.12,594.37,296.31,588.42,297.34z M671.15,596.92c-8.48-0.6-44.01,3.43-47.32,5.16
			C639.66,600.35,655.41,598.64,671.15,596.92z M754.4,324.39c0.88-0.04,1.18,0.02,1.41-0.08c3.41-1.44,5.31-4.31,6.53-7.54
			c0.97-2.54-0.17-4.14-2.49-3.97c-3.56,0.27-6.38,2.23-9.01,4.59c1.32,0.02,2.54-0.27,3.68-0.74c1.29-0.53,2.48-1.29,3.77-1.82
			c0.54-0.22,1.21-0.12,1.82-0.17c-0.07,0.63,0.06,1.38-0.24,1.86c-1.26,2-2.65,3.93-4.01,5.88
			C755.49,322.96,755.08,323.48,754.4,324.39z M818.29,429.1c-0.28-0.09-0.57-0.19-0.85-0.28c-1.02,0.86-2.03,1.74-3.06,2.58
			c-3.8,3.1-7.62,6.17-11.37,9.32c-0.41,0.35-0.42,1.17-0.62,1.77c0.56-0.09,1.25-0.01,1.65-0.31c2.25-1.7,4.45-3.47,6.64-5.26
			c2.36-1.93,4.73-3.85,7-5.88C818.11,430.67,818.1,429.77,818.29,429.1z M678.19,312.43c0.24,0.16,0.48,0.31,0.72,0.47
			c-0.13,1.01-0.03,2.13-0.44,3.02c-0.78,1.68-1.89,3.2-2.77,4.83c-0.2,0.37-0.03,0.93-0.03,1.41c0.41-0.06,0.96,0.03,1.2-0.2
			c2.18-2.09,3.97-4.47,4.4-7.54c0.26-1.87-1.31-3.6-3.03-3.38c-2.86,0.36-4.93,1.97-6.5,4.26c0.09,0.2,0.19,0.4,0.28,0.6
			C674.09,314.73,676.14,313.58,678.19,312.43z M806.93,313.96c-0.09,1.06-0.22,1.74-0.19,2.41c0.05,1.26,0.13,2.53,0.32,3.78
			c0.13,0.87,0.46,1.72,0.7,2.57c0.92-0.35,1.88-0.62,2.74-1.08c0.58-0.31,1.01-0.89,1.81-1.63c-1.16,0.18-1.86,0.29-2.4,0.38
			C808.7,318.41,810.26,315.51,806.93,313.96z M615.05,193.56c0.24-0.09,0.47-0.18,0.71-0.27c0.45-3.62-1.4-6.46-3.42-9.21
			c-0.21-0.28-1.25-0.32-1.56-0.06c-0.29,0.24-0.34,1.14-0.12,1.56C612.07,188.27,613.58,190.9,615.05,193.56z M849.38,415.95
			c0.15,0,0.31,0,0.46,0c0-9.01,0-18.03,0-27.04c-0.15,0-0.31,0-0.46,0.01C849.38,397.93,849.38,406.94,849.38,415.95z M506,367.59
			c3.69,3.43,2.13,7.98,2.89,11.96c1.43-0.22,1.65-1.73,0.88-6.84C509.12,368.38,508.26,367.27,506,367.59z M510,380.93
			c-0.35-0.01-0.7-0.03-1.05-0.04c0,4.76,0,9.51,0,14.27c0.12,0.01,0.23,0.02,0.35,0.02C509.54,390.43,509.77,385.68,510,380.93z
			 M798.34,315.96c-0.51-1.8-0.87-3.38-1.43-4.88c-0.13-0.35-0.93-0.58-1.44-0.61c-0.25-0.01-0.83,0.66-0.77,0.84
			c0.6,1.71,1.26,3.41,2.01,5.06c0.12,0.26,0.8,0.49,1.11,0.38C798.12,316.66,798.25,316.11,798.34,315.96z M826.64,318.95
			c2.23-1.56,0.67-3.47,0.41-5.17c-0.06-0.38-1.14-0.59-2.17-1.08C825.26,315.26,824.48,317.45,826.64,318.95z M722.12,311.57
			c-1.26-2.18-2.37-4.13-3.49-6.07C717.81,308.75,719.83,312.07,722.12,311.57z M509.38,397.28c-0.24,0.01-0.47,0.03-0.71,0.04
			c-0.03,3.42-0.6,6.86,0.72,10.2c0.22-0.01,0.43-0.03,0.65-0.04C509.82,404.08,509.6,400.68,509.38,397.28z M588.77,314.39
			c-0.91-2.85-2.81-4.64-4.65-4.51C585.37,312.6,586.92,314.16,588.77,314.39z M674.17,303.44c-0.24,0.37-0.49,0.73-0.73,1.1
			c1.36,0.88,2.7,1.8,4.11,2.61c0.17,0.1,0.87-0.3,0.96-0.58c0.1-0.31-0.12-0.95-0.4-1.11C676.83,304.72,675.49,304.1,674.17,303.44
			z M754.3,304.1c0.92,2.96,2.92,4.06,4.68,2.29C757.36,305.68,756.7,303.38,754.3,304.1z M739.94,296.42
			c0,0.13-0.01,0.26-0.01,0.38c3.27,0,6.54,0,9.81,0c0.01-0.13,0.01-0.26,0.02-0.38C746.48,296.42,743.21,296.42,739.94,296.42z
			 M640.3,297.56c0.01-0.13,0.02-0.25,0.02-0.38c-3.17,0-6.34,0-9.5,0c-0.01,0.13-0.02,0.25-0.02,0.38
			C633.97,297.56,637.13,297.56,640.3,297.56z M740.14,305c-1.21-0.87-2.09-1.53-3.02-2.13c-0.04-0.02-0.71,0.77-0.66,0.82
			c0.71,0.83,1.48,1.63,2.3,2.36C738.82,306.11,739.42,305.56,740.14,305z M746.6,613.82c0.05-0.16,0.09-0.32,0.14-0.48
			c-3.07-0.89-6.14-1.79-9.2-2.68c-0.05,0.18-0.1,0.36-0.15,0.54C740.45,612.07,743.53,612.94,746.6,613.82z M750.72,613.91
			c-0.02,0.19-0.04,0.39-0.06,0.58c2.88,0,5.77,0,8.65,0c0-0.07,0-0.14,0-0.2C756.45,614.16,753.58,614.03,750.72,613.91z
			 M734.75,308.73c-0.25-1.22-0.45-2.26-0.73-3.29c-0.01-0.05-0.73,0.09-1.12,0.14c0.27,1.01,0.54,2.02,0.83,3.02
			C733.75,308.65,734,308.63,734.75,308.73z"/>
		<path d="M627.01,396.05c2.22-3.48,5.66-4.3,9.46-4.34c3.66-0.04,7.31-0.1,10.97-0.12c4.48-0.03,8.96-0.13,13.43-0.01
			c5.22,0.14,10.45,0.28,15.64,0.79c4.08,0.4,8.11,1.3,12.14,2.08c2.16,0.42,3.95,0.17,5.9-1.1c6.2-4.03,12.56-7.82,18.89-11.64
			c0.58-0.35,1.56-0.64,2.03-0.38c0.42,0.23,0.55,1.28,0.52,1.96c-0.22,5.38-0.61,10.74-0.74,16.12c-0.1,4.31,0.64,8.55,1.47,12.8
			c1.12,5.74,1.34,11.49,0.01,17.34c-1.12,4.93-1.57,10.02-3.9,14.62c-2.65,5.22-5.29,10.44-7.67,15.13
			c5.36,0,11.34,0.19,17.29-0.05c7.54-0.3,15.07-1.12,22.61-1.4c7.25-0.27,14.51-0.16,21.76-0.21c5.59-0.04,11.2-0.31,16.78-0.03
			c5.86,0.29,11.7,1.16,17.55,1.67c0.85,0.07,1.99-0.17,2.58-0.72c1.9-1.76,3.72-3.64,5.37-5.64c4.08-4.93,7.75-10.24,12.15-14.86
			c3.98-4.19,8.99-7.03,14.93-7.92c3.86-0.58,9.1,4.27,7.25,9.33c-2.54,6.96-7.16,12.29-12.99,16.73c-1.49,1.14-2.68,2.68-4.48,4.52
			c-1.19,0.77-3.04,1.93-4.87,3.14c-0.5,0.33-0.88,0.82-1.39,1.14c-3.25,2.05-4.7,4.18-2.97,8.5c1.9,4.73,2.25,10.01,0.96,15.21
			c-0.53,2.15-0.55,4.43-1.03,6.6c-0.37,1.69,0.23,2.53,1.61,3.46c5.87,3.93,11.51,8.14,14.25,15.05c1.29,3.25,1.93,6.62,1.39,10.09
			c-0.86,5.54-6.6,6.29-9.86,4.6c-3.89-2.01-5.57-5.74-6.83-9.63c-1.03-3.18-1.74-6.46-2.65-9.69c-0.24-0.84-0.67-1.63-1.3-3.1
			c-1.22,2.72-2.17,4.9-3.17,7.06c-2.12,4.63-3.94,9.44-6.5,13.81c-2.43,4.13-6.52,6.94-10.87,8.66c-2.58,1.02-5.82,0.45-8.76,0.45
			c-0.54,0-1.23-0.57-1.59-1.07c-2.59-3.59-4.07-7.31-3.2-12.04c0.88-4.78,2.03-9.64,0.92-14.64c-0.55-2.47-1.3-3.64-3.89-3.82
			c-4.63-0.32-9.27-0.37-13.9-0.69c-4.15-0.29-8.29-0.81-12.75-1.26c0.07,0.85,0.02,1.8,0.23,2.68c1.63,6.78-0.05,13.24-2.02,19.62
			c-1.6,5.18-5.71,7.21-10.77,7.55c-1.95,0.13-3.95-0.04-5.9-0.25c-2.59-0.28-5.38-3.64-6-6.84c-0.64-3.32-1.4-6.63-2.1-9.94
			c-0.24-0.02-0.48-0.05-0.72-0.07c-2,2.15-4.14,4.19-5.96,6.48c-3.69,4.64-11.42,6.98-16.98,5.1c-4.81-1.62-6.55-8.23-4.78-11.94
			c0.34-0.71,0.58-1.48,0.88-2.27c2.78-0.5,5.88-0.46,8.39-1.67c3.21-1.55,5.98-4.03,8.84-6.24c1.91-1.47,3.65-3.17,5.52-4.82
			c-1.67-2.68-4.55-3.89-7.42-4.81c-3.47-1.1-7.15-1.51-10.64-2.58c-3.82-1.17-7.68-2.44-11.23-4.23c-4.33-2.19-5.5-6.6-6.34-11.01
			c-0.12-0.64-0.18-1.3-0.21-1.53c-6.17,0.56-12.14,1.49-18.13,1.54c-7.51,0.06-15.06-0.26-22.53-1.05
			c-6.48-0.69-13.08-1.01-19.19-3.92c-4.14-1.98-8.53-3.44-12.63-5.06c-2.37,2.24-4.65,4.79-7.33,6.84
			c-3.39,2.58-7.47,3.6-11.72,3.44c-2.58-0.1-3.54-1.19-3.31-3.78c0.18-2.1,0.51-4.39,1.52-6.18c2.27-4.03,5-7.8,7.37-11.43
			c-3.78-6-7.93-11.95-11.39-18.27c-2.61-4.77-2.2-9.9,0.63-14.7c1.73-2.94,3.57-5.83,4.96-8.92c0.49-1.08-0.29-2.71-0.39-4.09
			c-0.29-4.07-1.03-8.19-0.69-12.21c0.55-6.57,1.81-13.09,2.85-20.14c1.75,0.5,3.08,0.65,4.18,1.23c7.6,3.98,15.18,8,22.71,12.12
			c2.67,1.46,5.17,3.22,7.75,4.84c-0.07,0.4-0.14,0.81-0.21,1.19c26.99-3.18,53.7-2.83,80.51,3.29c-0.84-2.37-1.54-4.37-2.29-6.49
			c-2.33,0.98-4.45,1.87-6.57,2.76c-0.13-0.32-0.27-0.64-0.4-0.95c2.23-1.12,4.46-2.22,6.67-3.37c1.29-0.67,1.94-0.16,2.33,1.08
			c0.54,1.7,1.16,3.37,1.66,5.09c0.62,2.15,2.09,2.86,4.1,2.83c0.28-5.92,0.56-11.69,0.84-17.65c-0.44,0.19-0.78,0.3-1.08,0.49
			c-5.66,3.49-11.35,6.92-16.94,10.52c-2.05,1.32-3.95,1.86-6.48,1.45c-8.99-1.47-18.01-2.89-27.19-2.64
			c-8.14,0.22-16.29,0.32-24.44,0.25c-2.86-0.02-5.47,0.41-8.03,1.63C628.78,395.83,627.86,395.86,627.01,396.05z M747.2,500.34
			c1.02,0,1.67-0.04,2.32,0.01c8.26,0.66,16.52,1.24,24.76,2.05c2.1,0.21,4.16,1.06,6.17,1.79c0.55,0.2,1.19,1.05,1.21,1.62
			c0.18,4.97,0.74,9.92-0.67,14.9c-1.26,4.44-0.33,8.76,2.55,12.49c0.46,0.6,1.32,1.27,1.99,1.27c2.34-0.02,4.92,0.25,6.96-0.63
			c3.72-1.61,6.9-4.28,9.02-7.82c1.79-3,3.27-6.2,4.71-9.4c3.62-8.05,7.71-15.91,9.12-24.81c1.09-6.89,1.45-13.67-0.93-20.33
			c-1.22-3.41-1.33-3.35,1.4-5.76c3.12-2.76,6.17-5.61,9.34-8.33c3.16-2.72,6.53-5.19,9.61-8c3.31-3.02,5.49-6.84,6.83-11.14
			c0.61-1.96,0.43-3.57-1.2-5.05c-1.68-1.52-3.45-1.57-5.42-0.94c-5.67,1.82-10.47,4.77-14.24,9.57
			c-4.45,5.67-9.45,10.91-13.94,16.55c-1.66,2.09-3.48,2.7-5.81,2.32c-9.19-1.48-18.43-1.95-27.72-1.7
			c-4.41,0.12-8.82,0.22-13.24,0.3c-7.69,0.12-15.39,0.08-23.07,0.37c-6.34,0.24-12.66,0.88-18.99,1.3
			c-4.99,0.33-9.99,0.57-14.98,0.9c-0.55,0.04-1.23,0.19-1.62,0.54c-5.33,4.84-10.36,10.09-17.73,12.27c0.55,2.3,0.86,4.53,1.62,6.6
			c1.87,5.08,6.57,6.46,11.07,7.81c4.78,1.43,9.68,2.47,14.52,3.69c3.19,0.81,5.94,2.36,8.19,4.8c0.75,0.81,1.7,2.01,2.58,2.03
			c3.23,0.05,2.23,2.14,2.25,3.88c0.04,3.56-0.11,7.16,0.32,10.68c0.42,3.39,1.51,6.69,2.25,10.04c0.88,4.04,3.29,6.46,7.14,6.43
			c2.58-0.02,5.32-0.27,7.67-1.21c1.85-0.74,4.01-2.42,4.65-4.19c2.3-6.39,4.13-12.97,2.24-19.9
			C747.73,503.85,747.56,502.28,747.2,500.34z M682.64,471.57c0.62,0.41,1.22,1.09,1.56,0.98c1.76-0.57,3.66-1.07,5.14-2.12
			c2.91-2.07,5.71-4.33,8.29-6.8c3.8-3.63,7.68-7.25,9.81-12.27c1.31-3.07,3.08-5.96,4.18-9.09c3.1-8.87,4.99-17.96,3.65-27.43
			c-0.06-0.45-0.82-1.03-1.34-1.14c-4.54-0.89-9.07-1.88-13.65-2.47c-5.99-0.77-12.02-1.14-18.02-1.79
			c-5.94-0.64-11.85-1.68-17.8-2.04c-4.98-0.31-10.02-0.05-15.02,0.22c-8.28,0.46-16.57,0.94-24.81,1.78
			c-6.75,0.68-13.48,1.78-20.17,2.92c-3.77,0.64-7.45,1.76-11.23,2.68c0.49,1.47,0.8,2.4,1.11,3.33c-0.18,0.11-0.36,0.21-0.54,0.32
			c-0.78-0.93-1.57-1.86-2.9-3.44c-1.91,4.43-3.86,8.21-5.16,12.2c-1.05,3.22-0.99,6.75,0.81,9.8c2.61,4.43,5.6,8.63,8.18,13.08
			c1.18,2.03,2.6,2.32,4.42,1.53c1.65-0.72,3.17-1.75,4.88-2.71c-0.2,1.64,0.62,1.76,1.84,1.43c2.49-0.68,4.99-1.31,7.76-2.04
			c1.15,5.87,1.58,11.75-3.69,17.28c6.69,2.47,12.75,5.31,19.13,6.89c5.37,1.34,11.1,1.56,16.68,1.69
			c9.47,0.23,18.88,2.45,28.39,0.85C677.28,474.69,680.93,475.32,682.64,471.57z M594.5,380.59c-0.53,2.39-0.91,4.66-1.54,6.86
			c-2.13,7.46-2.58,14.97-1.14,22.61c0.6,3.18,1.02,3.38,4.15,2.73c6.84-1.42,13.68-2.89,20.57-3.97c6.75-1.06,13.56-1.82,20.37-2.4
			c6.09-0.51,12.21-0.79,18.31-0.8c6.49-0.01,13.01,0.17,19.47,0.73c5.26,0.45,10.44,1.96,15.7,2.33c8.1,0.57,16.18,1.06,24.35,3.48
			c-0.47-2.44-0.66-4.69-1.39-6.76c-0.36-1-1.61-2.04-2.67-2.37c-2.47-0.78-5.09-1.09-7.62-1.69c-11.17-2.67-22.59-3.12-33.81-3.84
			c-0.34,0.73-0.7,1.53-1.11,2.41c-1.86-0.97-2.08-3.48-4.64-2.84c-1.8,0.45-3.81,0.09-6,0.09c0.35,0.99,0.57,1.58,0.76,2.12
			c2.12-0.14,4.06-0.27,6-0.4c0.05,0.31,0.1,0.62,0.16,0.93c-1.53,0.44-3.07,0.89-4.55,1.32c1.28,0.9,2.64,1.85,3.99,2.8
			c-0.13,0.3-0.27,0.6-0.4,0.9c-1.23-0.3-2.78-0.25-3.62-0.99c-1.69-1.5-2.93-0.75-4.53-0.03c-1.56,0.69-3.32,0.91-5,1.34
			c-0.07-0.27-0.15-0.55-0.22-0.82c1.89-0.87,3.78-1.75,5.66-2.62c-0.06-0.16-0.11-0.32-0.17-0.48c-1.32,0.17-2.64,0.35-3.95,0.52
			c-0.09-0.22-0.17-0.45-0.26-0.67c0.68-0.35,1.33-0.76,2.03-1.03c0.87-0.33,1.79-0.55,2.66-0.8c-0.11-1.75-1.08-2.03-2.46-1.99
			c-10.69,0.31-21.36,0.79-31.86,3.01c-3.76,0.79-7.77,0.61-11.15,2.92c-0.46,0.31-1.3,0.06-1.97,0.08
			c-2.22,0.07-4.44,0.14-6.71,0.21c0.16,2.36,0.32,4.07,0.36,5.77c0.01,0.4-0.41,0.81-0.64,1.22c-0.37-0.36-0.99-0.68-1.07-1.1
			c-0.28-1.42-0.37-2.89-0.54-4.32c-3.01,0.2-5.32,2.59-8.35,1.56c1.84-1.19,3.76-2.13,5.76-2.85c1.22-0.44,2.1-0.85,2.2-2.37
			c0.03-0.48,0.95-1.26,1.5-1.29c3.47-0.2,6.98,0.01,10.43-0.36c4.62-0.49,9.2-1.38,13.99-2.13
			C622.22,394.18,599.61,381.79,594.5,380.59z M722.17,507.76c0.02-0.22,0.05-0.45,0.05-0.67c0.04-1.12,0.06-2.24,0.1-3.36
			c0.06-1.85-1.03-2.67-2.82-1.98c-0.88,0.34-1.7,0.94-2.43,1.56c-2.63,2.19-5.23,4.43-7.81,6.68c-2.49,2.17-5.15,3.73-8.67,3.48
			c-1.19-0.08-2.91,0.12-3.55,0.89c-2.78,3.32-1.65,10.01,2.61,11.08c3.58,0.9,7.5,1.08,10.64-1.02c2.89-1.94,5.12-4.83,7.73-7.2
			C720.85,514.65,722.97,511.86,722.17,507.76z M816.33,498.79c-0.62,1.59-1.33,2.8-1.52,4.09c-0.19,1.24-0.07,2.63,0.3,3.83
			c0.71,2.29,1.99,4.44,2.5,6.76c1.02,4.64,2.13,9.16,5.6,12.7c1.94,1.98,4.29,2.08,6.64,1.3c2.22-0.73,3.03-2.88,2.88-4.87
			c-0.21-2.93-0.72-5.94-1.7-8.71c-2.19-6.17-7.64-9.56-12.34-13.56C818.04,499.77,817.24,499.38,816.33,498.79z M597.78,469.69
			c1.41-2.12,2.76-4.07,4-6.1c0.28-0.46,0.45-1.4,0.18-1.73c-1.14-1.44-2.46-2.75-3.78-4.16c-1.05,1.1-2.13,2.03-2.97,3.15
			c-2.69,3.57-5.41,7.16-5.88,11.83c-0.25,2.44,0.9,3.57,3.25,2.99c2.51-0.62,5.1-1.26,7.38-2.44c3.17-1.64,5.73-4.14,7.73-7.32
			c-1.38-0.84-2.57-1.56-3.79-2.3C602.18,467.9,599.9,470.21,597.78,469.69z M604.93,457.58c1.56,0.88,1.25,1.92,0.61,2.9
			c-0.95,1.46-0.41,2.31,1,2.94c0.66,0.29,1.3,0.63,1.88,0.91c3.3-3.23,3.58-7.27,3.72-11.29c0.02-0.48-1.17-1.42-1.8-1.42
			c-1.46,0.01-2.91,0.63-4.38,0.71c-2.95,0.17-4.95,1.66-6.52,4.33c1.22,1.33,2.49,2.71,3.78,4.11
			C603.86,459.57,604.36,458.63,604.93,457.58z"/>
		<path d="M494.75,151.77c0.73,1.21,1.67,2.36,2.15,3.66c0.5,1.36,0.58,2.89,0.82,4.26c2.7-0.49,5.21-1.2,7.76-1.37
			c7.49-0.51,14.99-0.86,22.49-1.18c7.32-0.31,14.65-0.56,21.97-0.74c6.41-0.16,12.82-0.17,19.23-0.29
			c1.49-0.03,2.97-0.28,4.46-0.35c1.55-0.07,3.11-0.03,4.67-0.06c4.84-0.09,9.68-0.04,14.51-0.33c9.85-0.6,19.69-1.45,29.54-2.07
			c5.32-0.33,10.65-0.34,15.97-0.61c7.07-0.37,14.12-1.16,21.19-1.22c10.06-0.09,20.13,0.07,30.17,0.61
			c6.13,0.33,12.21,1.61,18.32,2.42c5.15,0.69,10.3,1.58,15.48,1.93c7.9,0.54,15.83,0.51,23.73,1.07c6.72,0.48,13.42,1.4,20.12,2.21
			c7.13,0.87,14.23,1.98,21.36,2.75c7.71,0.83,15.45,1.48,23.18,2.03c6.03,0.43,12.08,0.51,18.12,0.92
			c7.18,0.48,14.17,1.95,21.02,4.2c2.76,0.91,5.63,1.59,8.51,2c2.47,0.35,3.19,1.79,3.48,3.89c1.09,8.07,2.18,16.13,3.32,24.2
			c0.52,3.65,1.2,7.28,1.7,10.94c1.28,9.25,1.46,18.52,0.42,27.81c-0.15,1.31-0.22,2.63-0.81,3.95c0-1.04-0.07-2.08,0.01-3.11
			c0.97-12.72,0.35-25.32-2.15-37.88c-1.32-6.64-1.71-13.46-2.6-20.19c-0.29-2.21-0.77-4.42-1.36-6.57
			c-0.18-0.64-0.93-1.44-1.56-1.6c-6.03-1.56-12.06-3.16-18.15-4.45c-8.31-1.76-16.76-2.22-25.26-2.45
			c-7.07-0.19-14.11-1.25-21.17-1.86c-4.97-0.43-9.98-0.57-14.93-1.17c-4.62-0.56-9.19-1.6-13.79-2.33
			c-3.38-0.53-6.78-1.09-10.19-1.29c-8.13-0.46-16.27-0.74-24.41-1.06c-6.61-0.26-13.16-0.85-19.65-2.35
			c-3.97-0.92-8.12-1.12-12.19-1.55c-4.74-0.51-9.48-1.2-14.22-1.31c-9.32-0.22-18.65-0.23-27.98-0.08
			c-7.49,0.12-14.98,0.53-22.47,0.94c-6.92,0.38-13.83,0.95-20.75,1.39c-4.54,0.29-9.09,0.5-13.63,0.76
			c-7.98,0.46-15.96,1.12-23.94,1.37c-11.14,0.34-22.28,0.31-33.42,0.55c-9.7,0.2-19.41,0.44-29.1,0.87
			c-4.62,0.21-9.23,0.84-13.82,1.41c-2.84,0.35-2.87,0.88-2.59,3.71c0.53,5.4,0.92,10.83,1.03,16.26c0.15,7.33-0.09,14.67,0,22.01
			c0.13,11.3,0.17,22.62,0.68,33.91c0.48,10.6,1.54,21.17,2.31,31.75c0.51,6.94,0.86,13.89,1.48,20.82
			c0.86,9.53,2.01,19.03,2.87,28.56c0.85,9.46,1.54,18.93,2.2,28.4c0.42,5.97,0.69,11.94,0.98,17.92c0.05,0.98-0.16,1.98-0.25,2.97
			c-0.22,0-0.44,0.01-0.66,0.01c-0.11-1.38-0.23-2.76-0.34-4.15c-0.72-8.7-1.5-17.4-2.15-26.1c-0.58-7.81-0.87-15.65-1.58-23.44
			c-0.63-6.89-1.75-13.73-2.52-20.61c-0.51-4.53-0.83-9.09-1.17-13.64c-0.61-8.27-1.25-16.53-1.73-24.8
			c-0.47-8.21-0.85-16.44-1.09-24.66c-0.34-11.42-0.63-22.84-0.73-34.27c-0.06-7.16,0.46-14.32,0.33-21.48
			c-0.07-3.75-0.99-7.48-1.49-11.22c-0.17-1.24-0.09-2.52-0.33-3.74c-0.43-2.18-1.01-4.34-1.53-6.5
			C494.63,152.01,494.69,151.89,494.75,151.77z"/>
		<path d="M512.51,335.27c2.04-0.39,4.08-0.91,6.14-1.13c5.72-0.61,11.44-1.17,17.18-1.6c10.8-0.81,21.6-1.57,32.4-2.24
			c8.04-0.5,16.09-0.86,24.13-1.24c7.37-0.35,14.74-0.73,22.12-0.94c5.44-0.15,10.88,0,16.32-0.06c3.09-0.04,6.18-0.4,9.26-0.34
			c5.01,0.1,10.02,0.43,15.03,0.65c4.92,0.22,9.85,0.27,14.75,0.7c7.42,0.65,14.82,1.61,22.24,2.32c4.15,0.4,8.32,0.58,12.48,0.86
			c5.93,0.4,11.86,0.89,17.79,1.17c5.74,0.28,11.49,0.19,17.22,0.54c7.21,0.44,14.39,1.17,21.59,1.76
			c5.41,0.44,10.82,1.22,16.22,1.18c9.48-0.07,18.95-0.89,28.43-0.94c8.82-0.05,17.65,0.48,26.47,0.81
			c4.33,0.16,8.65,0.45,12.97,0.7c0.54,0.03,1.08,0.15,1.62,0.22c0.01,0.28,0.01,0.55,0.02,0.83c-1.59,0.12-3.19,0.41-4.77,0.33
			c-6.18-0.31-12.35-0.94-18.54-1.09c-8.58-0.2-17.17-0.2-25.75-0.04c-4.62,0.08-9.24,1.11-13.83,0.92
			c-8.78-0.38-17.53-1.44-26.31-2c-7.56-0.48-15.14-0.61-22.7-0.97c-5.22-0.25-10.44-0.63-15.66-0.95
			c-6.63-0.41-13.26-0.72-19.87-1.27c-5.62-0.47-11.2-1.31-16.81-1.86c-5.19-0.51-10.4-0.83-15.6-1.28
			c-5.59-0.49-11.17-1.1-16.76-1.53c-1.44-0.11-2.92,0.27-4.39,0.37c-0.57,0.04-1.15-0.09-1.73-0.13c-1.08-0.08-2.16-0.25-3.23-0.23
			c-7.32,0.18-14.64,0.36-21.96,0.62c-7.35,0.26-14.7,0.64-22.05,0.89c-3.55,0.12-7.12-0.03-10.67,0.13
			c-4.23,0.2-8.45,0.66-12.68,0.89c-7,0.38-14.01,0.56-21,1.03c-4.44,0.3-8.85,1-13.28,1.49c-7,0.78-14,1.54-21,2.31
			c-1.04,0.11-2.07,0.33-3.11,0.36c-0.87,0.03-1.74-0.15-2.62-0.24C512.54,335.95,512.52,335.61,512.51,335.27z"/>
		<path d="M520.55,224.21c0.99-0.18,1.98-0.36,3.39-0.62c-2.22-1.03-4.12-1.91-6.03-2.79c-5.71-2.61-8.92-7.05-10.44-13.13
			c-1.38-5.5-1.99-11-1.88-16.64c0.07-3.49,0.79-6.7,3.46-9.12c5.84-5.29,12.63-7.29,20.56-6.76c3.7,0.25,7.38,0.28,10.84,1.56
			c2.33,0.87,4.83,1.9,6.57,3.58c5.15,4.98,9.22,10.64,8.57,18.41c-0.25,3.01-0.98,5.85-2.57,8.47
			c-3.61,5.93-7.44,11.77-14.21,14.41c-5.6,2.18-11.31,4.44-17.59,3.3c-0.21-0.04-0.41-0.14-0.62-0.21
			C520.57,224.52,520.56,224.36,520.55,224.21z M507.16,192.07c-0.39,6.48,1.02,12.16,2.68,17.74c0.59,1.98,2.06,3.75,3.33,5.46
			c3.26,4.36,9.04,4.7,13.03,7.95c0.12,0.1,0.44,0.01,0.65-0.06c4.06-1.2,8.43-1.83,12.12-3.75c7.49-3.88,12.04-10.39,14.31-18.55
			c2.3-8.28-4.18-18.54-10.67-21.26c-8.82-3.69-17.94-4.27-26.89-0.09C510.19,182.1,506.01,185.67,507.16,192.07z"/>
		<path d="M634.8,185.92c-1.63,7.21-7.21,12.39-9.98,19.35c2.67-1.39,3.27,0.59,3.94,2.22c1.57,3.83,3.46,7.44,6.42,10.43
			c2.3,2.32,3.82,2.55,6.45,0.62c1.02-0.75,1.88-1.7,2.84-2.53c0.95-0.83,1.94-1.61,3.09-2.25c-2.19,2.62-3.37,6.2-6.93,7.5
			c-2.46,0.89-4.78,0.19-6.58-1.65c-1.56-1.6-3.05-3.31-4.27-5.17c-1.17-1.8-1.94-3.85-2.91-5.79c-0.32-0.64-0.7-1.25-1.21-2.16
			c-4.88,4.5-6.73,10.44-9.85,15.97c-0.52-0.09-1.28-0.23-2.71-0.48c1.46-3.07,2.6-5.86,4.07-8.47c4.94-8.77,9.99-17.48,15.05-26.18
			c0.46-0.79,1.27-1.38,1.92-2.07C634.35,185.48,634.58,185.7,634.8,185.92z"/>
		<path d="M587.06,202.68c0.52,2.25,1.04,4.5,1.56,6.75c0.21,0.02,0.42,0.05,0.64,0.07c0.64-1.3,1.34-2.58,1.91-3.92
			c2.2-5.18,3.6-10.56,3.77-16.21c0.02-0.74,0.17-1.6-0.14-2.2c-0.41-0.78-1.21-1.86-1.85-1.87c-0.78-0.01-2,0.8-2.29,1.54
			c-1.41,3.61-2.66,7.28-3.78,10.99c-0.57,1.88-0.48,1.98-2.72,1.04c1.21-3.91,2.44-7.85,3.79-12.22c-2.28,1.42-4.22,2.62-6.16,3.82
			c-1.14,0.71-2.27,1.45-3.47,2.06c-0.34,0.17-0.9-0.08-1.36-0.14c0.18-0.48,0.23-1.2,0.58-1.41c3.38-2.05,6.98-3.79,10.15-6.12
			c1.51-1.11,2.23-3.3,3.26-5.03c0.38-0.64,0.63-1.35,1.08-2.34c1.82,2.2,0.07,3.9,0.18,5.63c4.05,0.39,5.14,1.87,4.98,7.14
			c-0.22,7.47-2.24,14.43-6.25,20.76c-0.41,0.65-1.45,1.55-1.9,1.4c-0.76-0.25-1.7-1.15-1.84-1.92c-0.48-2.55-0.63-5.15-0.91-7.74
			C586.54,202.74,586.8,202.71,587.06,202.68z"/>
		<path d="M607.89,311.59c1.25-0.81,2.18-1.41,3.11-2.01c0.44-0.28,0.88-0.81,1.31-0.81c2.98,0,5-1.1,5.46-4.29
			c0.02-0.12,0.64-0.16,1.04-0.25c-1.39,4.59,1.69,6.57,4.72,8.55c1.85,1.21,2.53,2.85,2.12,5c-0.46,2.44-2.11,3.69-4.62,4.84
			c0.95-2.71,3.76-4.65,2.14-7.27c-1.28-2.07-3.46-3.42-5.75-3.96c-1.57,1.97-2.98,3.76-4.64,5.84c1.29,1.14,2.7,2.21,3.87,3.48
			c0.52,0.56,0.57,1.55,0.84,2.34c-0.75-0.14-1.55-0.16-2.23-0.46c-0.51-0.23-0.85-0.82-1.28-1.24c-0.9-0.89-1.7-2.24-2.76-2.5
			c-0.82-0.2-1.95,1.04-3,1.49c-0.94,0.41-1.96,0.71-2.97,0.9c-1.59,0.31-1.85-0.88-1.59-1.92c0.38-1.49,0.96-2.98,1.73-4.32
			c0.66-1.15,0.69-1.95-0.12-3.02c-0.7-0.93-1.21-2.07-1.54-3.2c-0.16-0.54,0.29-1.25,0.46-1.89c0.57,0.41,1.29,0.72,1.68,1.26
			C606.63,309.18,607.19,310.35,607.89,311.59z M611.58,315.52c1.06-1.27,2.05-2.34,2.87-3.52c0.26-0.38,0.08-1.07,0.1-1.61
			c-0.55,0.04-1.21-0.09-1.65,0.16c-1.2,0.7-2.31,1.56-3.63,2.48C610.03,313.86,610.67,314.54,611.58,315.52z M605.97,318.77
			c0.19,0.19,0.37,0.38,0.56,0.58c1.07-0.83,2.14-1.66,3.42-2.66c-0.9-0.68-1.46-1.1-2.25-1.7
			C607.06,316.4,606.52,317.58,605.97,318.77z"/>
		<path d="M856.47,292.35c-0.69,0-1.37,0-2.06,0c-7.61-0.03-15.23-0.34-22.82,0.01c-4.95,0.22-10.01,0.6-14.64,2.82
			c-2.34,1.12-4.68,2.24-7.04,3.32c-6.5,2.98-13.02,4.67-20.33,2.59c-7.89-2.24-16-3.68-24.24-4.03c-3.32-0.14-6.64-0.02-9.97-0.02
			c-0.01-0.25-0.02-0.5-0.03-0.75c1.73-0.17,3.48-0.6,5.18-0.46c6.08,0.51,12.18,1.03,18.22,1.92c4.9,0.72,9.69,2.21,14.59,2.95
			c6.05,0.91,11.66-0.93,17.07-3.52c2.71-1.3,5.51-2.39,8.14-4.05c-1.85,0-3.7,0-5.56,0c-0.02-0.18-0.04-0.35-0.07-0.53
			c1.18-0.17,2.36-0.42,3.54-0.51c4.76-0.38,9.51-0.79,14.28-1.03c4.45-0.22,8.91-0.3,13.36-0.34c3.14-0.02,6.28,0.09,9.42,0.23
			c0.99,0.04,1.98,0.35,2.96,0.54C856.49,291.77,856.48,292.06,856.47,292.35z"/>
		<path d="M510.05,408.56c0.24,2.47,0.46,4.95,0.72,7.42c0.52,5,0.97,10.01,1.62,15c0.76,5.86,1.66,11.7,2.57,17.54
			c0.55,3.49,1.28,6.96,1.83,10.45c0.87,5.57,1.61,11.15,2.48,16.72c0.78,4.98,1.83,9.93,2.46,14.94c1.11,8.79,1.98,17.6,2.97,26.4
			c0.13,1.16,0.37,2.32,0.56,3.47c-0.19,0.05-0.38,0.1-0.57,0.15c-0.31-1.26-0.75-2.51-0.91-3.8c-0.58-4.65-0.99-9.32-1.62-13.96
			c-1.24-9.06-2.6-18.11-3.91-27.16c-0.83-5.74-1.63-11.49-2.51-17.23c-0.8-5.22-1.74-10.43-2.55-15.65
			c-0.68-4.41-1.31-8.83-1.86-13.25c-0.65-5.17-1.25-10.35-1.77-15.54c-0.18-1.82-0.03-3.66-0.03-5.5
			C509.71,408.56,509.88,408.56,510.05,408.56z"/>
		<path d="M778.76,322.64c0.55,1.13,0.83,1.7,1.2,2.46c4.28-3.46,8.02-7.23,10.91-11.77c0.43-0.67,0.21-1.76,0.28-2.66
			c-1.18,0.1-2.88-0.25-3.46,0.39c-2.11,2.37-3.81,5.09-5.75,7.62c-0.52,0.68-1.32,1.13-2,1.69c-0.3-0.27-0.59-0.54-0.89-0.81
			c1.79-2.75,3.59-5.51,5.38-8.26c-2.89,1.3-5.08,3.85-8.34,3.97c-0.16-0.3-0.31-0.6-0.47-0.9c2.53-1.44,4.96-3.12,7.63-4.23
			c1.7-0.71,3.38-1.05,4.04-3.05c0.1-0.31,0.76-0.44,1.44-0.79c0,1.06,0,1.75,0,2.45c0.53,0.15,1.01,0.34,1.52,0.43
			c3.07,0.5,4.32,2.81,2.41,5.28c-2.72,3.52-5.86,6.72-8.89,9.99c-1,1.08-2.18,2.02-3.37,2.89c-0.52,0.38-1.3,0.55-1.95,0.52
			c-0.21-0.01-0.57-0.99-0.51-1.49C778.03,325.3,778.37,324.27,778.76,322.64z"/>
		<path d="M852.53,350.85c-0.15-0.57-0.49-1.17-0.44-1.72c0.64-6.08,1.28-12.15,2.04-18.21c0.64-5.09,1.45-10.16,2.2-15.24
			c0.77-5.16,1.59-10.31,2.34-15.47c1.2-8.26,2.28-16.54,3.55-24.79c0.86-5.59,1.99-11.13,2.95-16.7c0.72-4.17,1.35-8.34,2.03-12.52
			c0.22,0.04,0.45,0.07,0.67,0.11c-0.52,3.12-1.1,6.23-1.57,9.36c-2.12,14.22-4.17,28.45-6.31,42.67
			c-1.2,7.95-2.68,15.85-3.74,23.82c-1.16,8.72-1.97,17.49-2.98,26.23c-0.1,0.85-0.53,1.66-0.8,2.5L852.53,350.85z"/>
		<path d="M640.29,305.17c0.34,2.46,0.6,4.21,0.83,5.97c0.31,2.4-0.74,4.11-2.69,4.4c-3.1,0.47-5.56-0.85-6.01-3.21
			c-0.67-3.54,1.29-6.49,4.79-7.44c3.22-0.87,6.36-1.32,9.62-0.02c3.55,1.41,4.99,4.45,5.7,7.69c0.72,3.26-1.81,5.31-4.06,7.2
			c-0.39,0.33-1.06,0.32-1.99,0.28c2.4-3.3,5.87-6.33,2.67-10.74c-0.68-0.94-1.48-2.04-2.48-2.44
			C644.75,306.09,642.66,305.77,640.29,305.17z M638.61,306.23c-3.31,1.17-4.4,2.52-4.32,5.16c0.06,1.89,1.32,2.26,2.9,2.33
			c1.66,0.07,2.1-0.85,1.98-2.25C639.03,309.78,638.81,308.09,638.61,306.23z"/>
		<path d="M853.84,447.43c1.74,6.18,6.34,11.3,6.5,18.01c0.08,3.08-0.31,6.22-0.86,9.27c-1.15,6.45-2.86,12.82-3.74,19.3
			c-1.05,7.76-1.55,15.6-2.13,23.42c-0.12,1.56,0.5,3.18,0.62,5.01c-0.47-1.08-1.15-2.11-1.36-3.24c-0.29-1.53-0.37-3.13-0.28-4.68
			c0.55-9.92,1.46-19.79,3.43-29.55c0.79-3.93,1.5-7.88,2.33-11.8c1.37-6.51,0.14-12.53-2.97-18.34c-1.18-2.21-1.75-4.75-2.6-7.14
			C853.14,447.61,853.49,447.52,853.84,447.43z"/>
		<path d="M855.23,592.97c0-5.78-0.1-11.56,0.03-17.33c0.13-6.06-0.47-11.97-1.96-17.89c-1.04-4.16-1.13-8.56-1.62-12.86
			c-0.73-6.29-1.44-12.58-2.16-18.86c-0.04-0.36-0.12-0.72,0.13-1.32c0.34,0.37,0.88,0.69,0.98,1.12
			c1.43,6.37,2.62,12.75,2.57,19.35c-0.03,4.82,0.6,9.59,2.56,14.17c0.78,1.81,0.62,4.09,0.59,6.15c-0.05,4.54-0.32,9.07-0.45,13.61
			c-0.1,3.84-0.12,7.69-0.19,11.53c-0.02,0.78-0.13,1.56-0.2,2.35C855.41,592.97,855.32,592.97,855.23,592.97z"/>
		<path d="M608.82,603.73c-11.99,3.77-81.74,10.32-86.84,8.15c14.49-0.9,29.01-1.45,43.46-2.81
			C579.94,607.71,594.36,605.55,608.82,603.73z"/>
		<path d="M509.53,302.38c1.13,0,2.32-0.22,3.39,0.03c10.19,2.42,20.29,0.85,30.41-0.49c4.27-0.57,8.56-1.02,12.83-1.63
			c4.46-0.64,8.88-1.56,13.35-2.07c2.72-0.31,5.5-0.06,8.26-0.06c0,0.19,0.01,0.37,0.01,0.56c-3.27,0.35-6.55,0.63-9.82,1.05
			c-8.43,1.09-16.84,2.35-25.28,3.33c-6.73,0.78-13.48,1.59-20.24,1.74c-4.31,0.1-8.64-0.97-12.96-1.52
			C509.5,303.01,509.52,302.7,509.53,302.38z"/>
		<path d="M699.92,304.42c-0.7,2.97-3.3,4.65-4.9,6.8c1.43,1.79,2.9,3.49,4.22,5.3c1.7,2.32,2.93,2.57,5.28,0.9
			c0.6-0.43,1.25-0.79,2.19-1.38c-0.59,2.4-2.51,3.88-4.83,4.02c-1.95,0.12-3.56-0.13-4.36-2.47c-0.55-1.61-1.85-2.97-3.21-5.05
			c-1.76,2.63-3.23,4.71-4.56,6.88c-0.55,0.9-1.03,1.88-2.13,1.06c-0.31-0.23-0.15-1.65,0.25-2.19c3.43-4.58,6.96-9.08,10.49-13.59
			c0.25-0.32,0.7-0.47,1.06-0.71C699.59,304.15,699.75,304.28,699.92,304.42z"/>
		<path d="M791.57,444.87c0.25-8.31,11.1-19.23,21.49-17.35C802.55,429.15,796.24,435.95,791.57,444.87z"/>
		<path d="M721.38,318.11c3.38,1.63,6.49,0.75,10.11-0.29c-0.36,0.57-0.59,1.44-1.1,1.67c-3.34,1.51-6.83,1.37-10.25,0.35
			c-0.39-0.12-0.73-1.86-0.42-2.57c0.75-1.76,1.9-3.35,2.86-5.03c1.4-2.44,2.77-4.89,4.16-7.33c0.27-0.47,0.59-0.9,1.23-1.17
			C727.98,309.46,723.54,313.16,721.38,318.11z"/>
		<path d="M529.36,550.35c2.05,3.58,4.49,6.99,5.99,10.79c0.83,2.1,0.21,4.84-0.01,7.27c-0.54,6.01-1.22,12.01-1.87,18.02
			c-0.06,0.55-0.25,1.08-0.47,2c0-3.58-0.18-6.74,0.04-9.87c0.32-4.45,1.01-8.88,1.36-13.33c0.1-1.25-0.17-2.67-0.73-3.79
			c-1.15-2.31-2.69-4.41-3.9-6.69c-0.65-1.24-0.94-2.67-1.39-4.01C528.71,550.6,529.03,550.48,529.36,550.35z"/>
		<path d="M566.04,324.14c1.8-1.72,2.99-2.85,4.18-3.99c0.27,0.16,0.53,0.33,0.8,0.49c-0.27,0.78-0.39,1.66-0.84,2.31
			c-0.63,0.91-1.51,1.64-2.28,2.45c-1.36,1.42-2.71,1.19-3.44-0.63c-1.8-4.54-1.37-9.28-1.16-13.99c0.02-0.39,0.85-0.74,1.31-1.11
			c0.32,0.41,0.91,0.83,0.91,1.24c-0.01,2.24-0.29,4.48-0.22,6.71C565.35,319.59,565.73,321.55,566.04,324.14z"/>
		<path d="M588.42,297.34c5.95-1.03,36.65-1.21,41.11-0.33C628.38,297.77,591.64,298.19,588.42,297.34z"/>
		<path d="M671.15,596.92c-15.75,1.72-31.5,3.43-47.32,5.16C627.14,600.35,662.68,596.32,671.15,596.92z"/>
		<path d="M754.4,324.39c0.68-0.92,1.09-1.44,1.47-1.98c1.35-1.95,2.74-3.87,4.01-5.88c0.3-0.48,0.17-1.23,0.24-1.86
			c-0.61,0.05-1.28-0.05-1.82,0.17c-1.29,0.53-2.48,1.29-3.77,1.82c-1.14,0.47-2.36,0.76-3.68,0.74c2.63-2.36,5.44-4.33,9.01-4.59
			c2.32-0.17,3.46,1.43,2.49,3.97c-1.23,3.22-3.12,6.1-6.53,7.54C755.58,324.41,755.28,324.35,754.4,324.39z"/>
		<path d="M818.29,429.1c-0.19,0.66-0.18,1.56-0.62,1.96c-2.27,2.03-4.64,3.96-7,5.88c-2.19,1.78-4.38,3.56-6.64,5.26
			c-0.4,0.3-1.09,0.21-1.65,0.31c0.2-0.6,0.21-1.43,0.62-1.77c3.75-3.15,7.58-6.22,11.37-9.32c1.03-0.84,2.04-1.72,3.06-2.58
			C817.73,428.92,818.01,429.01,818.29,429.1z"/>
		<path d="M678.19,312.43c-2.05,1.15-4.1,2.31-6.16,3.46c-0.09-0.2-0.19-0.4-0.28-0.6c1.57-2.29,3.64-3.9,6.5-4.26
			c1.71-0.22,3.29,1.51,3.03,3.38c-0.43,3.08-2.22,5.45-4.4,7.54c-0.24,0.23-0.79,0.14-1.2,0.2c0-0.48-0.17-1.04,0.03-1.41
			c0.88-1.63,1.99-3.16,2.77-4.83c0.41-0.88,0.31-2,0.44-3.02C678.67,312.74,678.43,312.58,678.19,312.43z"/>
		<path d="M852.48,350.88c-0.08,2.36-0.09,4.72-0.24,7.07c-0.53,8.42-1.09,16.84-1.66,25.26c-0.03,0.47-0.18,0.94-0.64,1.44
			c-0.12-0.37-0.37-0.74-0.35-1.1c0.15-3.09,0.3-6.18,0.55-9.26c0.35-4.32,0.83-8.62,1.18-12.94c0.24-2.87,0.34-5.76,0.57-8.63
			c0.05-0.64,0.4-1.25,0.62-1.87C852.53,350.85,852.48,350.88,852.48,350.88z"/>
		<path d="M806.93,313.96c3.33,1.55,1.77,4.45,2.98,6.43c0.55-0.09,1.25-0.2,2.4-0.38c-0.8,0.74-1.24,1.32-1.81,1.63
			c-0.86,0.46-1.82,0.73-2.74,1.08c-0.24-0.86-0.57-1.7-0.7-2.57c-0.19-1.25-0.27-2.51-0.32-3.78
			C806.72,315.7,806.84,315.02,806.93,313.96z"/>
		<path d="M615.05,193.56c-1.47-2.65-2.98-5.29-4.39-7.98c-0.22-0.42-0.17-1.32,0.12-1.56c0.32-0.26,1.35-0.23,1.56,0.06
			c2.02,2.75,3.87,5.6,3.42,9.21C615.53,193.37,615.29,193.47,615.05,193.56z"/>
		<path d="M849.38,415.95c0-9.01,0-18.02,0-27.04c0.15,0,0.31,0,0.46-0.01c0,9.01,0,18.03,0,27.04
			C849.69,415.95,849.53,415.95,849.38,415.95z"/>
		<path d="M701.68,595.62c-1.99,0.04-3.99,0.12-5.98,0.12c-4.98,0.02-9.96,0.01-14.97-0.29c6.52-0.25,13.04-0.52,19.57-0.7
			c0.44-0.01,0.89,0.61,1.33,0.93L701.68,595.62z"/>
		<path d="M506,367.59c2.26-0.32,3.12,0.79,3.77,5.12c0.77,5.11,0.55,6.62-0.88,6.84C508.13,375.57,509.69,371.02,506,367.59z"/>
		<path d="M701.63,595.68c1.98,0.32,3.99,0.48,5.92,0.99c2.8,0.74,5.54,1.69,8.28,2.64c0.55,0.19,0.97,0.8,1.83,1.55
			c-0.93,0-1.37,0.11-1.74-0.02c-4.35-1.47-8.7-2.96-13.04-4.48c-0.43-0.15-0.8-0.5-1.2-0.75
			C701.68,595.62,701.63,595.68,701.63,595.68z"/>
		<path d="M510,380.93c-0.23,4.75-0.47,9.5-0.7,14.25c-0.12-0.01-0.23-0.02-0.35-0.02c0-4.76,0-9.51,0-14.27
			C509.3,380.9,509.65,380.92,510,380.93z"/>
		<path d="M798.34,315.96c-0.09,0.15-0.22,0.7-0.51,0.8c-0.3,0.1-0.99-0.12-1.11-0.38c-0.75-1.65-1.42-3.35-2.01-5.06
			c-0.07-0.19,0.51-0.86,0.77-0.84c0.51,0.03,1.31,0.26,1.44,0.61C797.47,312.58,797.84,314.16,798.34,315.96z"/>
		<path d="M826.64,318.95c-2.17-1.5-1.38-3.69-1.75-6.26c1.03,0.49,2.11,0.71,2.17,1.08C827.31,315.48,828.87,317.39,826.64,318.95z
			"/>
		<path d="M722.12,311.57c-2.3,0.51-4.32-2.82-3.49-6.07C719.75,307.44,720.87,309.39,722.12,311.57z"/>
		<path d="M509.38,397.28c0.22,3.4,0.44,6.8,0.66,10.2c-0.22,0.01-0.43,0.03-0.65,0.04c-1.32-3.33-0.75-6.78-0.72-10.2
			C508.91,397.31,509.14,397.29,509.38,397.28z"/>
		<path d="M588.77,314.39c-1.85-0.24-3.39-1.79-4.65-4.51C585.96,309.76,587.86,311.54,588.77,314.39z"/>
		<path d="M674.17,303.44c1.32,0.66,2.66,1.28,3.94,2.01c0.27,0.16,0.49,0.8,0.4,1.11c-0.09,0.28-0.79,0.68-0.96,0.58
			c-1.4-0.81-2.74-1.72-4.11-2.61C673.68,304.17,673.93,303.81,674.17,303.44z"/>
		<path d="M754.3,304.1c2.4-0.73,3.05,1.58,4.68,2.29C757.23,308.16,755.22,307.06,754.3,304.1z"/>
		<path d="M739.94,296.42c3.27,0,6.55,0,9.82,0c-0.01,0.13-0.01,0.26-0.02,0.38c-3.27,0-6.54,0-9.81,0
			C739.93,296.67,739.93,296.54,739.94,296.42z"/>
		<path d="M640.3,297.56c-3.17,0-6.34,0-9.5,0c0.01-0.13,0.02-0.25,0.02-0.38c3.17,0,6.34,0,9.5,0
			C640.32,297.31,640.31,297.43,640.3,297.56z"/>
		<path d="M740.14,305c-0.72,0.55-1.32,1.1-1.38,1.04c-0.82-0.73-1.58-1.52-2.3-2.36c-0.04-0.05,0.63-0.84,0.66-0.82
			C738.05,303.47,738.93,304.13,740.14,305z"/>
		<path d="M746.6,613.82c-3.07-0.87-6.15-1.75-9.22-2.62c0.05-0.18,0.1-0.36,0.15-0.54c3.07,0.89,6.14,1.79,9.2,2.68
			C746.69,613.5,746.65,613.66,746.6,613.82z"/>
		<path d="M750.72,613.91c2.86,0.13,5.73,0.25,8.59,0.38c0,0.07,0,0.14,0,0.2c-2.88,0-5.77,0-8.65,0
			C750.68,614.3,750.7,614.1,750.72,613.91z"/>
		<path d="M734.75,308.73c-0.74-0.09-1-0.08-1.02-0.13c-0.29-1-0.56-2.01-0.83-3.02c0.39-0.05,1.11-0.19,1.12-0.14
			C734.3,306.46,734.5,307.51,734.75,308.73z"/>
		<path class="volume_1_st0" d="M747.2,500.34c0.35,1.94,0.52,3.5,0.93,5c1.89,6.93,0.06,13.51-2.24,19.9c-0.64,1.76-2.79,3.44-4.65,4.19
			c-2.35,0.95-5.09,1.19-7.67,1.21c-3.85,0.03-6.26-2.39-7.14-6.43c-0.73-3.35-1.83-6.65-2.25-10.04
			c-0.43-3.52-0.28-7.12-0.32-10.68c-0.02-1.73,0.98-3.83-2.25-3.88c-0.88-0.01-1.83-1.22-2.58-2.03c-2.26-2.44-5-3.99-8.19-4.8
			c-4.84-1.23-9.74-2.26-14.52-3.69c-4.5-1.35-9.2-2.73-11.07-7.81c-0.76-2.07-1.07-4.3-1.62-6.6c7.37-2.17,12.4-7.43,17.73-12.27
			c0.39-0.35,1.06-0.51,1.62-0.54c4.99-0.32,9.99-0.57,14.98-0.9c6.33-0.42,12.65-1.06,18.99-1.3c7.68-0.29,15.38-0.24,23.07-0.37
			c4.41-0.07,8.83-0.18,13.24-0.3c9.29-0.25,18.53,0.22,27.72,1.7c2.34,0.38,4.15-0.23,5.81-2.32c4.49-5.64,9.49-10.88,13.94-16.55
			c3.77-4.8,8.57-7.75,14.24-9.57c1.97-0.63,3.74-0.58,5.42,0.94c1.63,1.48,1.82,3.08,1.2,5.05c-1.34,4.3-3.53,8.12-6.83,11.14
			c-3.07,2.81-6.45,5.29-9.61,8c-3.16,2.72-6.21,5.57-9.34,8.33c-2.73,2.41-2.62,2.35-1.4,5.76c2.38,6.66,2.02,13.44,0.93,20.33
			c-1.41,8.91-5.5,16.76-9.12,24.81c-1.43,3.2-2.92,6.4-4.71,9.4c-2.11,3.54-5.3,6.21-9.02,7.82c-2.04,0.88-4.62,0.61-6.96,0.63
			c-0.67,0-1.52-0.67-1.99-1.27c-2.88-3.73-3.81-8.05-2.55-12.49c1.41-4.98,0.85-9.92,0.67-14.9c-0.02-0.57-0.67-1.42-1.21-1.62
			c-2.01-0.74-4.07-1.59-6.17-1.79c-8.24-0.81-16.51-1.4-24.76-2.05C748.88,500.3,748.22,500.34,747.2,500.34z"/>
		<path class="volume_1_st0" d="M682.64,471.57c-1.72,3.75-5.37,3.12-8.48,3.65c-9.51,1.6-18.92-0.62-28.39-0.85
			c-5.58-0.14-11.31-0.36-16.68-1.69c-6.37-1.59-12.44-4.42-19.13-6.89c5.27-5.54,4.84-11.41,3.69-17.28
			c-2.78,0.73-5.28,1.36-7.76,2.04c-1.21,0.33-2.04,0.21-1.84-1.43c-1.71,0.97-3.23,1.99-4.88,2.71c-1.82,0.8-3.25,0.5-4.42-1.53
			c-2.58-4.44-5.57-8.65-8.18-13.08c-1.8-3.05-1.86-6.58-0.81-9.8c1.3-3.99,3.25-7.77,5.16-12.2c1.33,1.58,2.12,2.51,2.9,3.44
			c0.18-0.11,0.36-0.21,0.54-0.32c-0.31-0.93-0.62-1.85-1.11-3.33c3.78-0.92,7.47-2.04,11.23-2.68c6.7-1.15,13.42-2.24,20.17-2.92
			c8.25-0.83,16.53-1.32,24.81-1.78c5-0.28,10.03-0.53,15.02-0.22c5.95,0.37,11.86,1.4,17.8,2.04c6,0.65,12.04,1.02,18.02,1.79
			c4.58,0.59,9.11,1.58,13.65,2.47c0.52,0.1,1.28,0.69,1.34,1.14c1.34,9.47-0.55,18.56-3.65,27.43c-1.1,3.13-2.87,6.02-4.18,9.09
			c-2.14,5.02-6.01,8.63-9.81,12.27c-2.58,2.46-5.38,4.73-8.29,6.8c-1.47,1.05-3.37,1.54-5.14,2.12
			C683.86,472.66,683.26,471.97,682.64,471.57z M633.74,430.22c0.09-3.86-0.74-6.63-2.73-9.04c-1.6-1.95-3.21-2.28-4.87-0.35
			c-2.12,2.46-4.19,5.09-5.6,7.97c-1.35,2.74-1.51,5.85,0.12,8.83c1.51,2.75,5.31,4.09,7.62,2.07
			C631.33,437.05,634.06,434,633.74,430.22z"/>
		<path class="volume_1_st0" d="M594.5,380.59c5.11,1.2,27.72,13.59,31.09,17.01c-4.79,0.75-9.37,1.64-13.99,2.13
			c-3.45,0.37-6.96,0.16-10.43,0.36c-0.55,0.03-1.47,0.81-1.5,1.29c-0.1,1.52-0.99,1.93-2.2,2.37c-2,0.72-3.92,1.66-5.76,2.85
			c3.03,1.03,5.34-1.37,8.35-1.56c0.16,1.43,0.25,2.89,0.54,4.32c0.08,0.42,0.7,0.74,1.07,1.1c0.22-0.41,0.64-0.82,0.64-1.22
			c-0.03-1.71-0.2-3.41-0.36-5.77c2.26-0.07,4.48-0.14,6.71-0.21c0.67-0.02,1.51,0.23,1.97-0.08c3.39-2.31,7.4-2.12,11.15-2.92
			c10.5-2.22,21.17-2.7,31.86-3.01c1.38-0.04,2.35,0.24,2.46,1.99c-0.88,0.26-1.79,0.47-2.66,0.8c-0.71,0.27-1.36,0.68-2.03,1.03
			c0.09,0.22,0.17,0.45,0.26,0.67c1.32-0.17,2.64-0.35,3.95-0.52c0.06,0.16,0.11,0.32,0.17,0.48c-1.89,0.87-3.78,1.75-5.66,2.62
			c0.07,0.27,0.15,0.55,0.22,0.82c1.68-0.43,3.44-0.64,5-1.34c1.61-0.71,2.85-1.46,4.53,0.03c0.84,0.74,2.39,0.69,3.62,0.99
			c0.13-0.3,0.27-0.6,0.4-0.9c-1.36-0.95-2.71-1.91-3.99-2.8c1.49-0.43,3.02-0.87,4.55-1.32c-0.05-0.31-0.1-0.62-0.16-0.93
			c-1.94,0.13-3.89,0.26-6,0.4c-0.19-0.54-0.41-1.14-0.76-2.12c2.19,0,4.2,0.36,6-0.09c2.55-0.64,2.78,1.87,4.64,2.84
			c0.41-0.89,0.77-1.68,1.11-2.41c11.22,0.72,22.64,1.17,33.81,3.84c2.53,0.6,5.15,0.91,7.62,1.69c1.06,0.34,2.31,1.37,2.67,2.37
			c0.74,2.06,0.93,4.32,1.39,6.76c-8.17-2.42-16.25-2.91-24.35-3.48c-5.26-0.37-10.44-1.88-15.7-2.33
			c-6.47-0.56-12.98-0.74-19.47-0.73c-6.11,0.01-12.23,0.29-18.31,0.8c-6.81,0.57-13.62,1.34-20.37,2.4
			c-6.9,1.08-13.73,2.56-20.57,3.97c-3.13,0.65-3.55,0.45-4.15-2.73c-1.44-7.63-0.99-15.15,1.14-22.61
			C593.59,385.25,593.97,382.98,594.5,380.59z"/>
		<path class="volume_1_st0" d="M722.17,507.76c0.8,4.11-1.32,6.9-4.14,9.45c-2.61,2.37-4.85,5.26-7.73,7.2c-3.14,2.1-7.05,1.92-10.64,1.02
			c-4.27-1.07-5.39-7.76-2.61-11.08c0.64-0.77,2.36-0.97,3.55-0.89c3.51,0.25,6.18-1.31,8.67-3.48c2.58-2.25,5.18-4.48,7.81-6.68
			c0.74-0.61,1.55-1.21,2.43-1.56c1.79-0.7,2.88,0.13,2.82,1.98c-0.04,1.12-0.06,2.24-0.1,3.36
			C722.22,507.31,722.19,507.53,722.17,507.76z"/>
		<path class="volume_1_st0" d="M816.33,498.79c0.91,0.59,1.71,0.98,2.37,1.54c4.69,3.99,10.15,7.38,12.34,13.56
			c0.98,2.76,1.48,5.77,1.7,8.71c0.15,1.99-0.66,4.14-2.88,4.87c-2.36,0.78-4.7,0.68-6.64-1.3c-3.47-3.54-4.58-8.05-5.6-12.7
			c-0.51-2.32-1.79-4.47-2.5-6.76c-0.37-1.2-0.49-2.59-0.3-3.83C815,501.59,815.71,500.39,816.33,498.79z"/>
		<path class="volume_1_st0" d="M627.01,396.05c0.85-0.19,1.77-0.22,2.53-0.58c2.55-1.22,5.17-1.66,8.03-1.63
			c8.14,0.07,16.29-0.02,24.44-0.25c9.18-0.25,18.19,1.16,27.19,2.64c2.53,0.41,4.43-0.13,6.48-1.45
			c5.59-3.59,11.29-7.03,16.94-10.52c0.3-0.18,0.64-0.29,1.08-0.49c-0.28,5.95-0.56,11.73-0.84,17.65c-2.01,0.03-3.48-0.68-4.1-2.83
			c-0.49-1.71-1.12-3.39-1.66-5.09c-0.39-1.24-1.04-1.74-2.33-1.08c-2.21,1.15-4.45,2.25-6.67,3.37c0.13,0.32,0.27,0.64,0.4,0.95
			c2.12-0.89,4.24-1.78,6.57-2.76c0.75,2.12,1.45,4.12,2.29,6.49c-26.81-6.12-53.52-6.47-80.51-3.29c0.07-0.38,0.14-0.79,0.21-1.19
			C627.06,396.01,627.01,396.05,627.01,396.05z"/>
		<path class="volume_1_st0" d="M597.78,469.69c2.12,0.52,4.4-1.79,6.13-6.09c1.22,0.74,2.41,1.46,3.79,2.3c-2.01,3.18-4.56,5.68-7.73,7.32
			c-2.27,1.18-4.86,1.82-7.38,2.44c-2.36,0.58-3.5-0.55-3.25-2.99c0.47-4.67,3.19-8.26,5.88-11.83c0.84-1.11,1.92-2.04,2.97-3.15
			c1.32,1.42,2.64,2.72,3.78,4.16c0.27,0.34,0.1,1.27-0.18,1.73C600.55,465.62,599.19,467.58,597.78,469.69z"/>
		<path class="volume_1_st0" d="M604.93,457.58c-0.57,1.06-1.07,1.99-1.72,3.19c-1.28-1.4-2.56-2.78-3.78-4.11c1.57-2.67,3.57-4.16,6.52-4.33
			c1.47-0.08,2.92-0.7,4.38-0.71c0.62,0,1.81,0.94,1.8,1.42c-0.14,4.02-0.42,8.06-3.72,11.29c-0.58-0.28-1.22-0.62-1.88-0.91
			c-1.41-0.62-1.95-1.47-1-2.94C606.18,459.5,606.49,458.46,604.93,457.58z"/>
		<path class="volume_1_st0" d="M507.16,192.07c-1.14-6.41,3.03-9.97,8.55-12.55c8.95-4.18,18.08-3.59,26.89,0.09
			c6.49,2.71,12.98,12.98,10.67,21.26c-2.27,8.16-6.82,14.66-14.31,18.55c-3.7,1.92-8.06,2.54-12.12,3.75
			c-0.21,0.06-0.52,0.16-0.65,0.06c-3.98-3.25-9.76-3.59-13.03-7.95c-1.28-1.71-2.75-3.48-3.33-5.46
			C508.18,204.23,506.77,198.55,507.16,192.07z M529.35,212.05c0.3-0.08,0.61-0.17,0.91-0.25c0-0.93,0.08-1.87-0.01-2.79
			c-0.5-4.74-1.01-9.48-1.61-14.22c-0.36-2.88-0.82-5.74-1.39-8.59c-0.13-0.64-0.88-1.16-1.35-1.74c-0.18,0.15-0.36,0.29-0.54,0.44
			c0.05,1.03,0.04,2.07,0.16,3.09c0.91,7.37,1.82,14.74,2.8,22.1C528.41,210.78,528.99,211.4,529.35,212.05z"/>
		<path class="volume_1_st0" d="M611.58,315.52c-0.91-0.98-1.54-1.66-2.31-2.48c1.32-0.92,2.43-1.78,3.63-2.48c0.43-0.25,1.09-0.12,1.65-0.16
			c-0.02,0.55,0.16,1.23-0.1,1.61C613.63,313.18,612.64,314.25,611.58,315.52z"/>
		<path class="volume_1_st0" d="M605.97,318.77c0.54-1.19,1.08-2.37,1.73-3.79c0.8,0.6,1.35,1.02,2.25,1.7c-1.28,1-2.35,1.83-3.42,2.66
			C606.35,319.15,606.16,318.96,605.97,318.77z"/>
		<path class="volume_1_st0" d="M638.61,306.23c0.2,1.85,0.42,3.55,0.56,5.25c0.12,1.4-0.32,2.32-1.98,2.25c-1.58-0.07-2.84-0.44-2.9-2.33
			C634.21,308.75,635.3,307.41,638.61,306.23z"/>
		<path d="M633.74,430.22c0.32,3.77-2.4,6.83-5.45,9.49c-2.31,2.02-6.11,0.68-7.62-2.07c-1.64-2.98-1.47-6.09-0.12-8.83
			c1.42-2.89,3.49-5.52,5.6-7.97c1.67-1.94,3.27-1.6,4.87,0.35C632.99,423.59,633.83,426.36,633.74,430.22z"/>
		<path d="M529.35,212.05c-0.35-0.65-0.93-1.27-1.02-1.95c-0.98-7.36-1.9-14.73-2.8-22.1c-0.13-1.02-0.11-2.06-0.16-3.09
			c0.18-0.15,0.36-0.29,0.54-0.44c0.47,0.58,1.22,1.1,1.35,1.74c0.57,2.84,1.03,5.71,1.39,8.59c0.6,4.73,1.1,9.47,1.61,14.22
			c0.1,0.92,0.01,1.86,0.01,2.79C529.95,211.88,529.65,211.97,529.35,212.05z"/>
	</g>
</g>
</svg>
