<?xml version="1.0" encoding="utf-8"?>
<!-- Generator: Adobe Illustrator 26.3.1, SVG Export Plug-In . SVG Version: 6.00 Build 0)  -->
<svg version="1.1" xmlns="http://www.w3.org/2000/svg" xmlns:xlink="http://www.w3.org/1999/xlink" x="0px" y="0px"
	 viewBox="0 0 1366 768" style="enable-background:new 0 0 1366 768;" xml:space="preserve">
<style type="text/css">
	.st0{fill:#FFFFFF;}
	.st1{fill:none;stroke:#000000;stroke-width:257.9528;stroke-miterlimit:10;}
	.st2{fill:none;stroke:#000000;stroke-width:93.5433;stroke-miterlimit:10;}
	.st3{fill:none;stroke:#000000;stroke-width:68.0315;stroke-miterlimit:10;}
	.st4{fill:none;stroke:#000000;stroke-width:51.0236;stroke-miterlimit:10;}
	.st5{fill:none;stroke:#000000;stroke-width:53.8583;stroke-miterlimit:10;}
	.st6{fill:none;stroke:#000000;stroke-width:48.189;stroke-miterlimit:10;}
</style>
<g id="base">
	<g>
		<path class="st0" d="M414,162.9c149.7,0,299.4,0,449.1,0c0,199.5,0,399,0,598.5c-149.7,0-299.4,0-449.1,0
			C414,561.9,414,362.4,414,162.9z M675.63,476.2c0.33,3.55,0.56,7.41,1.07,11.24c0.62,4.68,2.21,9.07,5.91,12.18
			c2.33,1.96,5.15,3.35,7.88,5.07c-1,2.27-1.95,4.95-3.33,7.39c-0.83,1.46-1.25,3.85-3.97,3.32c-0.25-0.05-0.65,0.72-0.99,1.11
			c-2.41,2.72-4.69,5.58-7.28,8.11c-3.06,3-6.26,5.76-6.02,10.62c0.15,3.1-0.08,6.24,0.27,9.31c0.24,2.18,2.84,2.8,4.68,1.54
			c3.13-2.13,6.35-4.12,9.33-6.04c-0.49,3.32-1.43,6.69-1.34,10.03c0.08,2.95,0.02,5.04-2.98,5.01c-0.48,1.23-0.6,2.11-1.08,2.7
			c-1.07,1.32-2.37,2.44-3.46,3.74c-1.61,1.92-3.09,3.95-4.68,5.9c-3.83,4.72-7.69,9.42-11.54,14.13c-0.64,0.78-1.31,1.53-1.98,2.3
			c2.09,2.04,4.44,2.35,7.2,1.81c0.14,0.9,0.55,1.82,0.37,2.6c-1.06,4.67-2.17,9.33-3.5,13.92c-0.22,0.77-1.55,1.45-2.49,1.71
			c-1.34,0.38-2.8,0.43-4.21,0.44c-3.08,0.01-5.36,3.21-5.26,4.91c0.18,2.92,3.19,5.75,6.12,5.39c3.54-0.44,7.14-0.84,9.97-3.5
			c1.19-1.12,2.15-2.64,4.03-2.85c0.31-0.03,0.58-0.44,0.86-0.69c1.46-1.3,2.92-2.61,4.62-4.13c0.66-2.11,1.13-4.85,2.35-7.2
			c1.39-2.66,1.18-5.45,1.58-8.2c0.21-1.47-0.5-2.27-1.45-1.98c-1.38,4.4-2.57,8.36-3.86,12.29c-1.43,4.38-3.35,5.22-8.84,3.72
			c0.48-0.94,1.12-1.8,1.34-2.75c0.91-3.9,1.86-7.8,2.45-11.76c0.22-1.52,0.82-1.92,2.05-2.04c2.6-0.26,5.21-0.51,7.81-0.74
			c1.36-0.12,2.72-0.18,4.16-0.27c-0.51,2.56-0.55,4.91-1.46,6.86c-1.41,3.02-0.8,6.91-3.85,9.09c0.28,0.64,0.79,1.25,0.78,1.85
			c-0.04,2.3-0.2,4.61-0.41,6.9c-0.19,2.01,0.86,3.4,2.83,3.7c3.46,0.53,6.64-0.44,9.7-1.86c2.04-0.95,2.7-3.33,1.58-5.21
			c-1.13-1.89-2.3-3.75-3.31-5.38c0.41-0.71,0.93-1.31,1.04-1.97c0.04-0.25-0.89-0.62-1.32-1.01c-0.45-0.4-1.17-0.89-1.16-1.33
			c0.04-2.66,0.12-5.33,0.47-7.96c0.23-1.78,0.62-3.69,1.52-5.2c0.77-1.3,2.29-2.22,3.61-3.1c2.37-1.58,3.73-3.87,4.52-6.44
			c0.99-3.22,1.58-6.56,2.43-9.82c0.98-3.77,0.46-7.47-0.85-10.98c-0.68-1.83-0.85-3.38-0.15-5.14c0.67-1.68,1.25-3.39,1.93-5.25
			c0.81,0.45,1.55,1.12,2.37,1.25c0.77,0.12,2.13-0.06,2.39-0.55c2.43-4.68,4.64-9.48,6.99-14.2c0.91-1.83,0.31-3-1.35-3.81
			c-2.28-1.12-4.68-2.03-6.85-3.32c-1.11-0.66-2.3-1.84-2.63-3.02c-0.63-2.26-0.69-4.67-0.95-7.03c-0.21-1.92-0.28-3.87-0.63-5.76
			c-0.11-0.63-0.91-1.13-1.39-1.69c-0.39,0.61-0.85,1.18-1.13,1.83c-0.16,0.38-0.06,0.89,0,1.33c0.45,3.53,0.92,7.07,1.38,10.6
			c0.03,0.21-0.08,0.43-0.12,0.65c-0.58,0.11-1.13,0.22-1.91,0.37c0.39,0.6,0.79,0.98,0.89,1.43c0.19,0.82,0.57,1.89,0.23,2.47
			c-2.05,3.52-8.58,4.51-11.71,1.87c-1.16-0.98-2.07-2.38-0.95-3.69c4-4.7,6.45-10.19,8.56-15.89c0.13-0.34,0.33-0.86,0.58-0.91
			c2.55-0.49,5.07-1.9,7.73-0.45c2.67,1.46,3.44,1.56,5.55,0.66c-1.51-0.62-3.02-1.24-5-2.05c2.57-1.51,4.82-2.43,6.56-3.94
			c2.4-2.07,4.46-4.54,6.57-6.92c1.77-2,3.69-3.95,5.01-6.22c3.29-5.65,5.24-11.79,5.46-18.37c0.12-3.59,0.04-7.19-0.06-10.79
			c-0.1-3.43,2.21-5.49,3.86-8.12c-4.1,3.8-8.2,7.6-12.38,11.48c-0.17-2.84,1.78-4.67,3.2-6.63c1.19-1.65,2.84-2.96,4.29-4.43
			c-0.13-0.21-0.27-0.42-0.4-0.63c-0.99,0.13-1.99,0.26-2.44,0.32c-0.65,1-0.92,1.89-1.51,2.24c-3.84,2.26-5.17,6.29-6.46,10
			c-1.08,3.11-0.81,6.7-1.1,10.09c-0.19,2.24,0.65,2.96,3.09,2.7c-2.13-1.29-1.44-3-0.88-4.93c0.75,0.82,1.32,1.46,2.13,2.34
			c1.11-3.23,2.16-6.3,3.31-9.66c-0.09-0.15-0.41-0.7-0.7-1.21c0.94-1.09,1.77-2.1,2.67-3.04c0.29-0.31,0.78-0.42,1.19-0.62
			c0.04,0.44,0.14,0.89,0.1,1.33c-0.3,3.49-0.65,6.98-0.95,10.48c-0.12,1.41,0.06,2.89-0.27,4.24c-1.68,6.84-4.21,13.23-9.55,18.2
			c-2.52,2.34-7.05,1.67-8.49-1.46c-0.17-0.36-0.72-0.78-1.06-0.75c-0.41,0.03-1.04,0.43-1.15,0.79c-0.82,2.84-1.39,5.77-2.35,8.56
			c-0.48,1.4-0.08,3.21-2.48,3.92c-6.78,2.04-13.06-2.8-15.2-7.47c-2.8-6.12-3.06-12.57-2.53-19.12c0.03-0.42,0.18-0.89,0.42-1.23
			c1.72-2.39,3.48-4.76,5.21-7.13c0.34-0.47,0.53-1.19,0.98-1.42c2.88-1.44,4.77-3.53,5.2-6.84c0.1-0.73,0.71-1.41,1.11-2.09
			c1.36-2.34,2.72-4.67,4.1-7.03c-1.03-0.34-2.01-0.65-2.99-0.97c-0.89,3.15-11.66,22.71-14.45,24.5c3.33-8.02,8.87-14.8,9.44-23.69
			c-0.8-0.16-1.48-0.3-1.59-0.32c-0.97,1.06-1.83,2.39-2.14,2.28c-2.41-0.91-3.17,0.83-4.13,2.29c-0.88,1.34-1.71,2.71-2.55,4.04
			c-0.12-0.63-0.24-1.31-0.37-2c-0.2-0.11-0.39-0.21-0.59-0.32c-0.52,0.64-1.28,1.19-1.52,1.92c-0.58,1.75-0.69,3.67-1.4,5.35
			c-1.69,4.01-3.18,8.21-5.56,11.79c-4.27,6.42-9.09,12.49-13.77,18.62c-1.35,1.77-2.54,4.06-5.4,3.31c0,1.1,0.35,2.27-0.07,2.95
			c-0.97,1.56-2.3,2.92-3.53,4.31c-2.03,2.29-4.11,4.54-6.16,6.8c0.13,0.24,0.25,0.49,0.38,0.73c1.56-0.25,3.68,0.05,4.58-0.86
			c4.44-4.49,8.51-9.34,12.81-13.98c2.92-3.14,6.02-6.11,9-9.2C669.12,483.15,672.34,479.68,675.63,476.2z M835.63,552
			c3.31-0.08,6.47-0.82,8.83-3.2c1.91-1.94,4.08-4.04,4.97-6.49c1.56-4.3,1.34-7.33-4.09-7.83c-1.1-0.1-2.61,0.67-3.42,1.52
			c-2.97,3.14-5.84,5.17-10.69,3.63c-4.85-1.55-10.05-2.01-15.11-2.87c-1.69-0.29-3.41-0.36-5.67-0.58
			c4.91-3.36,6.51-8.27,8.67-13.01c0.52,0.54,0.98,0.92,1.3,1.39c2.61,3.8,6.41,5.72,10.72,6.82c3.42,0.87,8.94-1.01,9.92-3.58
			c1.27-3.33,2.48-6.72,3.28-10.19c1.58-6.84,2.73-13.71,2.81-20.83c0.06-5.26-1.11-9.71-4.98-12.97
			c-5.06-4.26-10.28-8.48-15.98-11.79c-4.21-2.44-9.39-3.12-13.94-5.06c-4.96-2.11-10.04-2.21-15.17-1.68
			c-3.36,0.34-6.66,1.31-9.97,2.07c-1.27,0.29-2.59,0.6-3.73,1.2c-3.82,2-7.6,4.06-11.32,6.24c-1.49,0.87-3.1,1.89-4.06,3.25
			c-2.84,4.03-5,8.58-8.12,12.36c-7.14,8.67-13.37,17.83-17.51,28.33c-2.14,5.43-1.78,10.48,2.09,15.03
			c4.99,5.87,10.8,3.68,13.79-1.01c1.11-1.73,2.1-3.54,3.14-5.32c1.65-2.81,3.38-5.58,4.93-8.44c2.29-4.22,4.33-8.58,6.75-12.72
			c0.99-1.69,2.68-2.97,4.05-4.44c0.19,0.13,0.39,0.27,0.58,0.4c-0.28,1.29-0.52,2.6-0.84,3.88c-0.24,0.93-0.72,1.8-0.87,2.74
			c-0.39,2.54-0.53,5.13-1.01,7.65c-1.13,5.97,1.17,10.82,4.94,15.1c1.33,1.51,3.26,2.51,5.01,3.81c-0.56,0.49-1.32,0.87-1.63,1.47
			c-0.93,1.86-2.6,3.97-2.28,5.67c0.47,2.59,2.34,4.93,3.71,7.32c0.14,0.24,1.09,0.35,1.33,0.13c2.01-1.78,3.95-3.65,5.97-5.55
			c0.43,2.04,1.15,4.15,1.23,6.28c0.04,1.22-0.61,2.99-1.55,3.61c-3.49,2.3-7.12,4.48-10.92,6.2c-1.87,0.84-1.85,1.92-1.61,3.3
			c0.45,2.52,4.28,5.59,7.22,5.94c1.23,0.15,2.46,0.34,3.64,0.5c0.29,3.08,0.85,3.91,3.54,4.69c1.42,0.42,2.96,0.81,4.41,0.69
			c3.17-0.25,6.16-0.98,7.35-4.62c1.2-3.68,2.45-7.35,3.93-10.92c1.69-4.1,4.53-4.7,8.05-1.94c-1.7,4.09-3.34,6.07-7.24,8.74
			c-1.73,1.18-2.71,3.84-1.88,5.49c1,1.96,2.96,1.92,4.72,1.72c1.6-0.19,3.21-0.69,4.7-1.32c1.55-0.66,2.52-0.51,3.64,0.88
			c2.28,2.82,5.93,2.95,7.63,0.17c1.81-2.96,3.56-6.09,4.54-9.39C834.58,560.53,834.91,556.33,835.63,552z M528.1,512.14
			c1.38-1.93,2.74-3.3,3.41-4.94c0.7-1.7,0.59-3.71,1.1-5.52c0.54-1.91,0.89-3.63-1.38-5.01c1.46-0.78,2.6-1.45,3.8-2.01
			c1.21-0.57,2.4-1.09,2.38-3.08c-1.04,0.24-1.97,0.27-2.71,0.66c-10.61,5.46-21.25,10.86-31.76,16.51
			c-7.34,3.95-14.54,8.17-21.7,12.45c-5.12,3.06-10.3,6.1-15.04,9.7c-8.8,6.68-17.4,13.6-27.28,18.7c-2.48,1.28-2.39,1.39-0.82,3.64
			c0.33,0.47,0.42,1.1,0.68,1.64c0.54,1.13,1.11,2.25,1.68,3.36c0.5,0.96,1.24,1.86,1.49,2.87c1.29,5.13,2.37,10.3,3.69,15.42
			c0.73,2.84,2.05,3.44,4.75,2.34c4-1.62,7.98-3.29,11.91-5.08c0.63-0.29,1.42-1.39,1.32-1.96c-0.89-4.89-1.85-9.77-3.04-14.6
			c-0.95-3.88-0.9-4.11,2.41-6.01c5.16-2.97,10.24-6.06,15.32-9.16c2.64-1.61,5.11-3.52,7.83-4.98c3.2-1.73,6.88-2.7,8.82-6.2
			c0.11-0.2,0.49-0.24,0.73-0.36c1.22-0.6,2.54-1.06,3.63-1.84c2.88-2.05,5.67-4.24,8.93-6.7c0.06,1.38-0.03,2.13,0.16,2.79
			c0.18,0.61,0.52,1.33,1.02,1.67c2.19,1.48,4.68,2.59,6.66,4.3c3.44,2.98,6.46,6.41,8.41,10.63c0.91,1.97,2.87,3.33,4.09,2.59
			c1.46-0.88,2.9-1.89,4.07-3.12c0.56-0.59,0.78-1.88,0.61-2.74c-0.67-3.49-2-6.91-2.26-10.41
			C530.62,522.16,530.17,516.72,528.1,512.14z M798.32,178.49c-0.2-0.19-0.4-0.37-0.6-0.56c-0.56,0.35-1.41,0.57-1.62,1.06
			c-1.23,2.88-2.26,5.84-3.44,8.74c-2.24,5.53-3.37,11.2-3.28,17.22c0.07,4.83-0.16,9.72-0.91,14.48c-1.45,9.21-3.68,18.3-5,27.53
			c-1.44,10.05-2.09,20.2-3.3,30.29c-1.03,8.59-2.35,17.16-3.59,25.72c-1.12,7.66-2.71,15.27-3.37,22.96
			c-0.78,8.96-2.18,17.86-1.96,26.95c0.26,10.72-0.37,21.46-0.6,32.19c-0.05,2.16-0.03,4.32-0.04,6.48c0,4.44,0,8.89,0,13.45
			c1.19,0.16,2.12,0.28,3.5,0.47c0.25-1.65,0.65-3.14,0.66-4.64c0.03-6.51-0.14-13.02-0.07-19.52c0.06-5.9,0.34-11.79,0.54-17.69
			c0.31-9.19,0.26-18.42,1.07-27.57c0.89-10.02,2.56-19.98,3.94-29.96c1.42-10.28,3.06-20.54,4.3-30.84c0.84-6.9,1-13.88,1.76-20.79
			c0.79-7.19,1.85-14.36,2.96-21.52c1.09-7.07,2.56-14.09,3.51-21.18c0.37-2.76-0.18-5.66-0.4-8.48c-0.52-6.62,1.53-12.7,3.86-18.73
			C797.02,182.56,797.63,180.51,798.32,178.49z M668.85,399.71c0-0.87-0.05-1.6,0.01-2.33c0.7-8.25,1.51-16.48,2.08-24.74
			c0.4-5.81,0.41-11.65,0.72-17.48c0.45-8.5,1.23-16.99,1.47-25.5c0.33-11.72,0.32-23.46,0.4-35.19c0.03-4.11-0.32-8.24-0.16-12.34
			c0.21-5.38,0.78-10.75,1.13-16.12c0.55-8.59,1.17-17.18,1.54-25.78c0.42-9.64,0.76-19.28,0.81-28.92
			c0.04-7.43,0.31-14.79,2.06-22.05c0.23-0.93,0.36-1.97,0.2-2.89c-0.1-0.55-0.82-1.3-1.35-1.38c-0.47-0.07-1.3,0.55-1.54,1.07
			c-0.36,0.78-0.33,1.74-0.51,2.62c-1.88,9.35-2.31,18.83-2.48,28.33c-0.09,5.22,0.21,10.45-0.02,15.66
			c-0.38,8.64-1.05,17.26-1.59,25.89c-0.22,3.5-0.44,7-0.67,10.5c-0.24,3.69-0.62,7.37-0.71,11.07c-0.09,3.71,0.18,7.43,0.17,11.15
			c-0.02,4.74-0.23,9.48-0.26,14.22c-0.02,3.8,0.26,7.6,0.14,11.4c-0.19,5.87-0.68,11.74-0.89,17.61
			c-0.24,6.76-0.23,13.52-0.49,20.28c-0.29,7.36-0.71,14.71-1.18,22.06c-0.44,6.92-1,13.83-1.57,20.74
			C665.93,400.01,666.05,400.17,668.85,399.71z M705.71,398.44c2.42,0.87,3.21-0.18,3.55-2.02c0.44-2.34,1.11-4.65,1.42-7.01
			c0.51-3.85,0.8-7.72,1.21-11.58c0.88-8.4,1.8-16.8,2.67-25.2c0.61-5.87,1.14-11.75,1.72-17.62c0.6-6.03,1.27-12.05,1.8-18.08
			c0.74-8.4,1.3-16.81,2.1-25.2c0.75-7.81,1.75-15.59,2.55-23.4c0.82-7.94,1.56-15.89,2.27-23.84c0.44-4.98,0.62-10,1.19-14.96
			c0.66-5.85,1.92-11.64,2.37-17.5c0.55-7.04,0.57-14.12,0.72-21.18c0.06-2.88-0.1-5.77-0.28-8.65c-0.03-0.54-0.52-1.19-0.98-1.51
			c-0.31-0.22-1.34-0.06-1.39,0.12c-0.17,0.58-0.07,1.25-0.01,1.87c0.16,1.46,0.46,2.91,0.5,4.37c0.03,1.1-0.33,2.2-0.38,3.31
			c-0.26,5.16-0.28,10.34-0.73,15.48c-1.06,12.07-2.31,24.12-3.51,36.18c-0.66,6.67-1.38,13.34-2.06,20.01
			c-1.06,10.32-2.12,20.63-3.17,30.95c-0.6,5.94-1.2,11.88-1.78,17.82c-0.41,4.16-0.76,8.33-1.19,12.49
			c-0.65,6.23-1.4,12.45-2.03,18.68c-0.28,2.82-0.24,5.67-0.56,8.49c-0.78,6.85-1.72,13.69-2.54,20.54
			c-0.89,7.46-1.68,14.93-2.56,22.38C706.41,395.06,706.02,396.71,705.71,398.44z M622.9,372.12c0.03,0,0.05,0,0.08,0
			c0.16,2.31,0.25,4.62,0.49,6.92c0.15,1.47,0.34,2.98,0.82,4.37c0.19,0.55,1.18,0.83,1.81,1.23c0.14-0.59,0.37-1.17,0.4-1.76
			c0.04-0.66-0.12-1.34-0.16-2.01c-0.38-7.59-0.84-15.18-1.09-22.78c-0.28-8.37-0.09-16.84-2.24-24.97
			c-2.89-10.96-2.35-22.07-2.23-33.14c0.08-7.8,1.04-15.6,1.74-23.39c0.57-6.4,1.46-12.78,1.97-19.19
			c0.8-9.97,1.26-19.97,2.17-29.93c0.52-5.64,1.41-11.27,2.58-16.81c0.76-3.6,2.33-7.03,3.55-10.53c0.2-0.59,0.42-1.17,0.64-1.76
			c-0.62-0.15-1.32-0.56-1.85-0.4c-0.65,0.19-1.4,0.73-1.71,1.32c-2.97,5.78-4.35,12.03-5.11,18.43
			c-1.06,8.96-2.25,17.91-3.09,26.89c-0.84,8.97-1.23,17.98-1.95,26.96c-0.64,7.85-1.7,15.67-2.16,23.53
			c-0.59,10.09-0.69,20.2,0.17,30.3c0.18,2.06,0.61,4.11,1.03,6.14c0.71,3.46,1.88,6.87,2.17,10.36
			C621.77,351.96,622.27,362.05,622.9,372.12z M601.62,382.15c0,1.69,0.1,3.04-0.02,4.37c-0.83,9.38-0.27,18.73,0.9,28.02
			c1.15,9.2,0.83,18.36,0.26,27.56c-0.35,5.74-0.56,11.5-0.73,17.25c-0.17,5.82-0.22,11.64-0.29,17.46
			c-0.01,0.46,0.25,0.91,0.38,1.37c0.54-0.16,1.44-0.19,1.56-0.5c0.45-1.22,0.88-2.53,0.89-3.81c0.04-5.01-0.28-10.03-0.12-15.03
			c0.27-8.44,1.14-16.87,1.14-25.3c0-8.36-0.84-16.73-1.14-25.09c-0.24-6.85-0.24-13.72-0.28-20.58c-0.01-2.02,0.29-4.04,0.25-6.05
			c-0.04-2.55-1.45-3.39-3.61-2.26c-4.18,2.18-8.25,4.59-12.54,6.53c-5.97,2.7-12.21,4.83-18.11,7.67
			c-2.94,1.42-6.79,0.74-8.94,3.92c-0.2,0.3-0.82,0.31-1.23,0.48c-5.05,2.05-9.65,4.79-13.32,8.87c-0.68,0.75-1.25,1.96-1.2,2.93
			c0.15,3.19,0.71,6.36,0.92,9.55c0.7,10.66,1.14,21.34,2.05,31.98c0.43,5.07,1.19,10.23,2.7,15.06c2.07,6.58,3.15,13.19,3.3,20.04
			c0.03,1.17,0.75,3.32,1.13,3.31c2.08-0.03,1.36-2.03,1.75-3.26c0.06-0.2-0.01-0.44-0.04-0.67c-0.67-4.84-1.29-9.69-2.04-14.52
			c-0.26-1.67-0.87-3.29-1.23-4.95c-0.57-2.59-1.02-5.21-1.62-7.8c-0.28-1.22-1-2.36-1.12-3.58c-0.37-3.75-0.55-7.53-0.82-11.29
			c-0.1-1.41-0.49-2.85-0.33-4.23c0.95-8.44,0.04-16.82-0.89-25.17c-0.69-6.26-0.31-7.55,4.14-10.43
			c6.39-4.15,13.54-6.54,20.53-9.38c7.46-3.02,14.71-6.59,22.05-9.92C597.74,383.89,599.54,383.08,601.62,382.15z M583.17,196.11
			c-0.61,2.61-1.36,4.97-1.66,7.38c-0.36,2.87-0.3,5.78-0.47,8.68c-0.45,7.75-0.85,15.47-2.04,23.2
			c-1.79,11.55-2.59,23.24-3.9,34.86c-0.22,1.98-0.78,3.93-1.29,5.87c-0.51,1.94-1.35,3.8-1.71,5.76
			c-1.92,10.57-3.63,21.17-5.62,31.73c-1.49,7.87-2.14,15.79-2.41,23.78c-0.11,3.29,0.1,6.57-1.38,9.83
			c-1.07,2.35-1.02,5.23-1.37,7.89c-0.11,0.86,0.12,1.76,0.19,2.64c0.3,0.04,0.6,0.08,0.9,0.13c0.52-2.13,1.05-4.26,1.56-6.32
			c0.86-0.06,1.48-0.1,1.97-0.14c0.2-1.97,0.35-3.75,0.55-5.52c0.31-2.74,0.69-5.47,0.96-8.21c0.83-8.33,1.44-16.68,2.5-24.98
			c0.68-5.37,2-10.67,3.03-16c0.69-3.58,1.29-7.19,2.11-10.74c0.91-3.98,2.3-7.86,2.98-11.87c0.94-5.49,1.5-11.05,2.05-16.59
			c0.58-5.86,0.59-11.79,1.48-17.59c1.26-8.29,2.88-16.49,2.86-24.94c-0.01-5.23,0.56-10.45,0.8-15.68
			C585.33,197.87,585.3,196.37,583.17,196.11z M568.87,216.27c0.78-0.5,1.42-0.79,1.9-1.25c4.12-3.89,7.05-8.42,7.67-14.21
			c0.4-3.73-1.7-7.01-5.24-8.08c-5.89-1.79-11.63-0.83-17.44,0.56c-3.31,0.79-5.01,2.93-5.8,5.85c-0.56,2.06-0.78,4.31-0.65,6.45
			c0.35,5.73,2.03,10.87,7.51,13.87c1.83,1,2.82,0.72,3.35-1.28c0.53-2,1.01-4.09,1.01-6.14c0-4.7-0.32-9.4-0.47-14.1
			c-0.06-2.05,1.15-3.36,3.18-3.42c2.02-0.06,4.05-0.09,6.07,0c2.8,0.12,3.94,1.14,4.94,3.73c1.11,2.87,0.37,5.53-0.93,7.99
			c-1.21,2.28-2.91,4.29-4.29,6.49C568.98,213.81,567.33,214.89,568.87,216.27z M826.42,198.86c0.29,0.25,0.59,0.5,0.88,0.75
			c-2.02,4.69-3.05,9.54-2.3,14.62c0.8,5.41,4,7.16,8.69,5.33c6.98-2.73,10.1-8.88,12.42-15.47c0.44-1.26,0.22-2.76,0.31-4.14
			c0.23-0.18,0.46-0.36,0.69-0.53c0.91,1.14,1.75,2.36,2.78,3.38c0.34,0.34,1.18,0.18,1.79,0.26c-0.09-0.52,0-1.22-0.3-1.53
			c-2.44-2.43-4.95-4.78-7.56-7.27c-0.22,0.46-0.53,0.8-0.49,1.09c0.22,1.6,0.67,3.18,0.76,4.78c0.32,5.48-2.3,9.83-5.78,13.67
			c-1.41,1.56-3.29,2.85-5.18,3.79c-2.23,1.11-3.79,0.41-4.05-2.01c-0.35-3.21-0.52-6.61,0.18-9.72c1-4.49,2.89-8.77,4.3-13.18
			c0.21-0.66-0.12-1.49-0.19-2.23c-0.77,0.21-1.79,0.18-2.28,0.67c-1.66,1.68-3.02,3.67-4.72,5.3c-2.68,2.56-5.57,4.89-8.33,7.37
			c-0.66,0.59-1.35,1.31-1.62,2.1c-0.31,0.92-0.18,1.98-0.24,2.99c0.33,0.17,0.66,0.34,0.99,0.51
			C820.23,205.87,823.33,202.37,826.42,198.86z M647.91,360.23c0.03,0.2,0.05,0.4,0.08,0.6c0.59,0,1.26,0.19,1.75-0.03
			c1.62-0.73,3.36-1.36,4.7-2.47c3.15-2.62,4.56-9.53,2.98-13.31c-1.44-3.44-3.43-4.39-6.95-3.16c-1.76,0.61-3.44,1.45-5.15,2.18
			c-0.94,0.4-1.88,0.8-2.82,1.2c-0.05-0.12-0.09-0.24-0.14-0.36c1.65-1.38,3.3-2.76,5.18-4.33c-3.13-2.18-5.27,0.31-7.64,0.66
			c0.6-7.16,0.6-7.16-1.58-7.09c-0.4,2.35-0.68,4.73-1.26,7.02c-0.21,0.84-1.01,1.77-1.8,2.17c-2.11,1.08-4.37,1.87-6.53,2.86
			c-0.46,0.21-0.77,0.76-1.14,1.15c0.55,0.43,1.09,1.18,1.65,1.2c0.83,0.02,1.7-0.43,2.51-0.77c1.32-0.55,2.61-1.18,3.92-1.78
			c0.2,0.19,0.4,0.37,0.61,0.56c-0.72,1.21-1.31,2.52-2.18,3.6c-0.98,1.22-2.28,2.17-3.29,3.37c-0.38,0.45-0.32,1.26-0.46,1.9
			c0.69,0,1.48,0.21,2.06-0.05c0.84-0.37,1.53-1.08,2.35-1.68c-0.25,2.29-0.55,4.43-0.67,6.58c-0.04,0.71,0.41,1.45,0.64,2.17
			c0.74-0.54,1.94-0.96,2.14-1.66c0.52-1.84,0.53-3.82,0.9-5.71c0.42-2.16-0.07-4.74,2.44-6.07c3.15-1.67,6.29-3.33,9.45-4.97
			c3.14-1.63,5.52-0.74,5.96,2.48c0.28,2.04,0.15,4.2-0.17,6.25c-0.56,3.59-2.79,5.83-6.28,6.84
			C648.71,359.72,648.32,360.01,647.91,360.23z M744.95,361.36c-1.4,0.83-2.74,1.39-3.78,2.3c-0.92,0.81-2.94,0.99-2.34,3.37
			c2.2-1.18,4.17-2.23,6.54-3.49c0.3,3.16,0.56,5.84,0.8,8.33c-1.53,0.5-2.71,0.76-3.78,1.25c-2.51,1.14-3.83,3.3-2.71,5.55
			c0.75,1.52,2.56,2.82,4.2,3.49c1.61,0.66,2.39-1.08,2.96-2.39c0.7-1.62,1.31-3.29,2.14-5.41c1.35,0.52,2.81,1.12,4.3,1.65
			c4.23,1.51,4.48,1.83,6.13-0.67c-3.34-2.19-6.95-3.48-10.95-3.51c-0.25-2.84-0.57-5.44-0.65-8.05c-0.02-0.74,0.45-1.76,1.03-2.19
			c1.91-1.42,4.02-2.56,5.96-3.95c0.7-0.5,1.13-1.39,1.69-2.1c-0.18-0.24-0.37-0.49-0.55-0.73c-2.9,1.78-5.79,3.57-8.65,5.33
			c-0.8-2.32-1.5-4.32-2.15-6.23c3.57-1.95,7.57-2.89,10.23-5.91c-0.19-0.35-0.38-0.7-0.57-1.05c-3.44,1.54-6.89,3.08-10.27,4.6
			c-0.83-1.64-1.45-3.08-2.29-4.38c-0.26-0.4-1.1-0.43-1.67-0.63c-0.16,0.56-0.55,1.18-0.43,1.68c0.38,1.58,0.95,3.12,1.44,4.68
			c-1.44,1.28-4.22,1.43-3.77,4.73c1.68-0.82,3.16-1.53,4.81-2.34C743.44,357.43,744.17,359.33,744.95,361.36z M802.04,378.89
			c1.53-3.51,3.09-6.86,4.45-10.29c0.59-1.49,0.92-3.11,1.11-4.71c0.07-0.57-0.6-1.23-0.94-1.86c-0.53,0.59-1.3,1.11-1.53,1.8
			c-0.53,1.62-0.48,3.47-1.21,4.96c-3.19,6.49-6.59,12.87-9.88,19.31c-0.36,0.71-0.45,1.55-0.67,2.33c0.24,0.19,0.49,0.37,0.73,0.56
			c0.83-0.65,1.94-1.12,2.43-1.96c2.36-3.98,5.23-7.43,9.15-9.97c1.64-1.06,3.12-1.37,4.55,0.26c1.13,1.29,2.24,2.6,3.4,3.85
			c0.75,0.81,1.46,1.92,2.41,2.25c4.57,1.55,13.57-0.49,16.09-5.93c0.75-1.61,1.12-3.28-0.16-5.27c-0.25,0.59-0.47,0.86-0.44,1.08
			c0.46,3.04-1.37,4.77-3.65,6.12c-2.72,1.61-5.71,2.02-8.85,1.72c-2.29-0.21-2.84-2.22-4.06-3.55c-0.66-0.72-1.2-1.57-1.95-2.16
			c-2.08-1.64-3.69-3.1-6.81-1.05C804.9,377.24,803.49,378.02,802.04,378.89z M640.12,246.39c0.11,0.27,0.22,0.54,0.34,0.81
			c0.76,0,1.61,0.22,2.26-0.05c1.16-0.47,2.16-1.32,3.31-1.85c0.6-0.27,1.53-0.5,2.01-0.23c2.59,1.47,3.23,4.54,1.55,7.06
			c-1.09,1.63-2.29,3.18-3.43,4.76c0.13,0.19,0.26,0.38,0.39,0.57c0.76-0.3,1.74-0.39,2.23-0.92c1.55-1.69,2.96-3.52,4.34-5.36
			c1.09-1.44,1.01-2.75-0.36-4.16c-1.15-1.18-1.92-2.73-2.82-4.05c2.27-2.51,5.88-3.37,6.6-7.44c-3.63,0.41-5.15,3.9-8.17,4.54
			c-1.98-3.28-1.98-3.27,1.1-5.45c1.1-0.78,2.25-1.5,3.23-2.41c0.5-0.46,0.68-1.28,1-1.93c-0.77-0.11-1.56-0.38-2.29-0.28
			c-0.52,0.07-0.95,0.68-1.45,0.99c-1.48,0.95-2.98,1.87-4.71,2.95c-0.85-1.98-1.25-4.19-4.14-3.56c0.52,1.56,1.01,3,1.55,4.6
			c-1.26,0.72-2.6,1.36-3.78,2.23c-0.46,0.34-0.53,1.21-0.77,1.83c0.58,0.13,1.21,0.48,1.72,0.35c0.99-0.27,1.88-0.97,2.87-1.19
			c0.61-0.14,1.64,0.06,1.97,0.49c0.78,1.03,1.25,2.28,1.77,3.3C644.15,243.6,642.13,245,640.12,246.39z M595.84,232.86
			c0.3-0.08,0.6-0.17,0.91-0.25c0.37-1.56,0.64-3.17,1.14-4.69c1.33-4.03,3-7.96,4.07-12.05c0.88-3.37,2.31-5.9,5.56-7.51
			c2.86-1.41,5.47-3.33,8.21-4.99c1.11-0.67,1.78-1.56,0.94-2.73c-0.92-1.28-1.84-0.49-2.83,0.19c-3.06,2.12-6.2,4.12-9.57,6.34
			c0-3.04,0.08-5.58-0.06-8.11c-0.03-0.63-0.78-1.22-1.19-1.84c-0.32,0.6-0.83,1.17-0.91,1.79c-0.15,1.18,0,2.39-0.05,3.59
			c-0.16,3.97-1.15,7.46-5.33,9.09c-0.41,0.16-0.96,0.39-1.09,0.73c-0.33,0.82-0.44,1.72-0.65,2.59c0.75-0.02,1.53,0.11,2.23-0.09
			c0.68-0.19,1.27-0.72,2.04-1.18c0.03,0.43,0.13,0.72,0.06,0.97c-0.87,3.43-1.75,6.87-2.66,10.29c-0.5,1.87-1.2,3.7-1.56,5.59
			C594.97,231.28,595.57,232.11,595.84,232.86z M759.84,189.87c-1.55-0.95-2.97-0.29-3.68,0.88c-1.46,2.4-2.87,4.93-3.72,7.59
			c-1.18,3.67-2.25,7.48-2.57,11.3c-0.31,3.74,0.06,7.63,0.73,11.34c0.47,2.64,2.58,3.2,4.53,1.39c2.49-2.32,4.96-4.76,6.89-7.53
			c1.53-2.2,2.23-4.98,3.3-7.51c-0.22-0.11-0.43-0.22-0.65-0.33c-3.3,4.51-5.98,9.56-10.73,12.94
			C751.16,212.66,753.88,198.97,759.84,189.87z M753.52,297.38c1.17,2.64,2.45,5.09,3.3,7.68c0.32,0.99-0.24,2.36-0.66,3.46
			c-0.36,0.93-1.09,1.72-1.65,2.58c0.21,0.17,0.41,0.33,0.62,0.5c0.81-0.7,1.66-1.36,2.41-2.12c1.73-1.75,2.81-3.5,1.29-6.13
			c-1.28-2.22-2.01-4.75-3.04-7.29c2.27-1.24,4.42-2.29,6.43-3.56c0.61-0.39,0.85-1.37,1.26-2.09c-0.7,0.11-1.41,0.15-2.08,0.36
			c-0.56,0.18-1.05,0.56-1.59,0.83c-4.67,2.42-4.67,2.42-6.16-2.54c-0.04-0.13,0.01-0.28,0.03-0.58c2.4-1.31,4.87-2.65,7.33-4
			c-3.27-1.97-5.25,1.36-7.99,1.23c-0.22-1.1-0.36-2.29-0.73-3.4c-0.14-0.41-0.83-0.62-1.27-0.93c-0.24,0.48-0.7,0.96-0.68,1.43
			c0.04,1.41,0.27,2.81,0.41,4.05c-2.54,1.45-4.93,2.81-7.31,4.17c0.16,0.35,0.33,0.7,0.49,1.05c2.46-0.8,4.92-1.61,7.38-2.41
			c0.24,0.64,0.54,1.39,0.79,2.17c0.57,1.76,0.97,3.38-1.25,4.51c-1.71,0.87-3.24,2.12-4.8,3.27c-0.64,0.47-1.14,1.14-1.7,1.72
			C748.16,301.51,750.27,298.41,753.52,297.38z M694.54,244.52c-0.08,0.96-0.17,1.84-0.23,2.72c-0.36,5.08-2.26,9.7-4.19,14.33
			c-0.58,1.39-0.23,3.59-1.17,4.31c-2.67,2.05,0.14,3.95-0.45,5.85c0.55-0.46,0.84-0.96,1.03-1.49c0.94-2.61,1.58-5.38,2.85-7.82
			c2.81-5.45,4.54-11.12,4.99-17.24c0.06-0.82,1.19-1.82,2.06-2.26c2.2-1.09,4.58-1.82,6.82-2.84c1.48-0.68,2.77-1.65,1.85-3.12
			c-3.33,1.45-6.51,2.84-9.82,4.28c-0.28-3.67-0.51-6.77-0.74-9.87c-2.02,0.19-2.03,0.19-2.1,1.68c-0.11,2.38-0.1,4.77-0.41,7.13
			c-0.09,0.71-0.96,1.57-1.68,1.88c-0.92,0.4-2.08,0.18-3.08,0.46c-0.84,0.23-1.59,0.79-2.38,1.21c0.09,0.27,0.18,0.53,0.27,0.8
			C690.18,244.52,692.21,244.52,694.54,244.52z M588.63,348.55c-0.03,0.16-0.06,0.33-0.09,0.49c0.47,0.17,0.92,0.44,1.4,0.49
			c4.46,0.51,8.63-2.61,9.5-7.06c1.17-6.04-2.8-9.85-8.72-8.16c-3.02,0.86-5.92,2.17-8.75,3.24c0.22-1.07,0.55-2.55,0.85-4.04
			c0.69-3.52,1.82-6.69,5.25-8.64c1.38-0.79,2.48-2.14,3.57-3.36c0.41-0.46,0.42-1.27,0.62-1.92c-0.2-0.1-0.4-0.2-0.6-0.3
			c-2.24,1.73-4.47,3.45-6.4,4.94c-0.73-0.8-1.2-1.31-1.67-1.83c-0.31,0.59-0.85,1.16-0.89,1.76c-0.12,1.83-0.99,3.02-2.52,3.96
			c-1.07,0.66-2.05,1.51-2.94,2.4c-0.43,0.43-0.55,1.17-0.82,1.77c0.71-0.18,1.5-0.21,2.11-0.56c0.93-0.53,1.73-1.29,2.59-1.95
			c0.15,0.14,0.3,0.28,0.45,0.42c-0.85,3.59-1.7,7.18-2.71,11.47c1.18-0.57,1.95-0.82,2.57-1.27c3.26-2.34,6.66-4.53,10.83-4.16
			c1.58,0.14,3.66,1.03,4.48,2.27c2.24,3.38-0.23,8.44-4.23,9.35C591.22,348.16,589.92,348.33,588.63,348.55z M557.77,237.76
			c-2.6,3.34-5.36,6.23-5.86,10.63c-0.39,3.46,2.47,7.11,5.95,6.98c3.43-0.13,6.26-1.78,9.04-3.54c0.09-0.06,0.01-0.4,0.01-0.18
			c-3.01,0.26-5.98,0.61-8.96,0.75c-1.78,0.08-2.68-1.01-2.75-2.8c-0.12-2.91,1.1-5.39,2.92-7.44c2.54-2.87,5.42-5.43,8.1-8.18
			c0.36-0.37,0.73-1.13,0.57-1.48c-0.18-0.4-0.96-0.8-1.44-0.76c-0.89,0.07-1.78,0.39-2.62,0.73c-1.3,0.53-2.53,1.23-3.84,1.74
			c-2.91,1.13-5.87,2.15-8.76,3.31c-0.5,0.2-0.8,0.88-1.19,1.34c0.54,0.38,1.12,1.13,1.6,1.07c1.45-0.18,2.87-0.63,4.28-1.06
			C555.83,238.58,556.79,238.14,557.77,237.76z M641.7,286.01c0-0.74,0.08-1.56-0.02-2.35c-0.1-0.73-0.41-1.42-0.62-2.13
			c-0.67,0.51-1.4,0.97-1.98,1.57c-0.26,0.28-0.27,0.84-0.31,1.28c-0.18,1.92-1.21,3.22-2.67,4.46c-1.97,1.66-3.76,3.56-5.43,5.52
			c-0.53,0.62-0.63,1.79-0.52,2.66c0.03,0.28,1.37,0.4,2.17,0.6c0.02-2.04,1.8-4.41,4.54-5.85c-0.64,1.29-1.15,2.04-1.4,2.88
			c-0.24,0.79-0.29,1.67-0.23,2.49c0.02,0.24,0.87,0.71,0.99,0.62c0.68-0.53,1.51-1.08,1.82-1.83c0.78-1.83,1.36-3.74,1.91-5.66
			c0.57-2.01,2.35-1.62,3.69-1.79c0.65-0.08,1.95,0.71,2.07,1.3c1.06,5.06,0.15,9.73-3.39,13.68c-1.05,1.17-2.16,1.17-3.23-0.02
			c-0.69-0.77-1.37-1.56-2.24-2.56c-0.47,2.78,0.53,4.08,2.79,4.95c2.23,0.85,3.91,0.79,5.07-1.48c1.08-2.1,2.46-4.11,3.11-6.34
			c1.95-6.61,1.4-11.61-5.85-11.79C641.9,286.21,641.84,286.13,641.7,286.01z M541.75,335.18c-0.39-0.84-0.77-2.03-1.46-3
			c-0.25-0.35-1.56-0.47-1.83-0.17c-0.39,0.42-0.63,1.6-0.33,1.96c2.23,2.64,1.81,5.76,2.07,8.86c-1.12,0.21-2.08,0.33-3.02,0.57
			c-1.64,0.41-2.58,1.99-1.62,3.16c0.77,0.94,2.16,1.86,3.28,1.86c1.07,0,2.8-0.99,3.08-1.89c0.69-2.3,2.07-2.07,3.62-1.55
			c2.05,0.69,4.01,1.63,6.05,2.32c1.03,0.35,2.17,0.4,3.26,0.59c0.1-0.34,0.19-0.68,0.29-1.02c-3.65-2.41-7.95-3.23-12.19-4.31
			c-0.07-0.93-0.44-1.99-0.15-2.81c0.45-1.25,1.12-2.71,2.15-3.39c1.63-1.09,3.6-1.72,5.5-2.35c1.48-0.49,1.62-1.27,0.84-2.88
			C548.08,332.47,544.93,333.82,541.75,335.18z M711,208.94c-0.24-0.21-0.47-0.43-0.71-0.64c-0.49,0.29-0.97,0.61-1.47,0.88
			c-2.22,1.23-4.37,2.61-6.69,3.61c-2.36,1.02-3.58,0.2-3.64-2.33c-0.08-3.36,0.02-6.74,0.11-10.1c0.06-2.46,0.3-4.91,0.24-7.36
			c-0.01-0.46-1.06-1.27-1.59-1.24c-0.5,0.03-1.22,0.88-1.37,1.49c-0.23,0.99,0.2,2.18-0.13,3.11c-1.75,4.96-0.89,10.09-1.07,15.14
			c-0.08,2.31,1.29,3.3,3.61,3.66c3.97,0.61,7.16-1.01,10.12-3.29C709.44,211.08,710.15,209.92,711,208.94z M648.11,218.88
			c2.34,0.77,3.52-0.93,4.22-2.35c1.44-2.93,2.71-6.01,3.54-9.16c1.16-4.39-2.63-8.69-6.89-7.87c-5.1,0.98-9.28,3.92-13.21,7.15
			c-0.46,0.38-0.37,1.41-0.54,2.14c0.72-0.08,1.58,0.06,2.13-0.29c2.45-1.55,4.75-3.37,7.25-4.83c1.44-0.84,3.15-1.43,4.8-1.64
			c0.79-0.1,2.35,0.84,2.47,1.51c0.38,2.08,0.75,4.4,0.19,6.36C651.2,212.92,649.55,215.72,648.11,218.88z M552.12,297.21
			c-0.21-0.2-0.42-0.41-0.63-0.61c-0.54,0.48-1.28,0.87-1.59,1.47c-1.02,2.03-1.58,4.35-2.87,6.18c-2.69,3.84-5.76,7.41-8.59,11.16
			c-0.46,0.61-0.49,1.54-0.72,2.32c0.94-0.09,2.15,0.15,2.78-0.34c1.01-0.79,1.55-2.14,2.45-3.11c0.92-0.98,2.03-1.76,3.06-2.64
			c0.62,0.75,1.37,1.43,1.83,2.26c2.56,4.66,2.75,4.77,7.82,3.38c0.36-0.1,0.81-0.07,1.08-0.28c0.71-0.54,1.35-1.19,2.02-1.79
			c-0.03-0.33-0.07-0.66-0.1-0.99c-4.74,2.65-6.96,0.34-9.44-3.22c-1.7-2.44-1.28-3.69-0.05-5.82
			C550.57,302.73,552.31,300.27,552.12,297.21z M585,310.03c0.49-1.16,0.75-1.55,0.81-1.98c0.77-5.08,1.68-10.14,2.2-15.24
			c0.2-1.98,1.21-2.89,2.65-3.76c3.23-1.96,6.46-3.91,9.66-5.93c0.35-0.22,0.47-0.82,0.69-1.24c-0.51-0.14-1.13-0.52-1.53-0.36
			c-1.3,0.53-2.57,1.18-3.78,1.92c-2,1.22-3.94,2.55-5.9,3.83c-0.16-0.13-0.32-0.27-0.48-0.4c0.66-1.69,1.4-3.36,1.95-5.09
			c0.18-0.56-0.16-1.28-0.26-1.93c-0.58,0.39-1.23,0.71-1.73,1.18c-0.29,0.28-0.33,0.81-0.52,1.22c-1.36,2.84-2.76,5.66-4.08,8.52
			c-0.21,0.45-0.21,1.46-0.01,1.55c1.6,0.74,0.68,1.89,0.57,2.88c-0.47,4.13-1.03,8.26-1.43,12.4
			C583.75,308.18,584.41,308.85,585,310.03z M568.71,274.09c-3.02,0.74-4.13-1.27-3.82-6.55c1.07-0.92,3.25-0.57,3.18-3.07
			c-1.4,0.11-2.69,0.22-3.95,0.32c-0.44-0.97-0.76-1.96-1.32-2.8c-0.26-0.38-0.99-0.44-1.5-0.65c-0.15,0.51-0.57,1.14-0.41,1.53
			c0.92,2.28,0.92,4.13-1.8,5.1c-0.19,0.07-0.41,0.26-0.49,0.45c-0.2,0.52-0.33,1.07-0.49,1.61c0.61,0.05,1.27,0.26,1.82,0.1
			c0.82-0.23,1.56-0.72,2.4-1.13c0.47,3.14,0.47,3.14-1.98,4.54c-1.36,0.78-2.49,3.52-1.83,4.93c0.35,0.75,1.09,1.71,1.76,1.8
			c0.77,0.1,1.8-0.49,2.45-1.08c0.73-0.66,1.17-1.65,1.72-2.47C568.1,278.05,569.2,277.38,568.71,274.09z M548.28,263.24
			c-2.67-0.02-2.98,1.13-3.46,2.84c-1.47,5.32-1.8,10.65-1.14,16.08c0.34,2.76,2.08,3.67,4.63,2.3c2.09-1.12,4.17-2.36,5.96-3.88
			c1.26-1.08,2.03-2.73,3.03-4.12c-0.16-0.08-0.32-0.16-0.47-0.24c-3.18,2.01-6.37,4.03-9.97,6.3c0-3.87-0.18-6.93,0.05-9.96
			C547.13,269.52,547.78,266.5,548.28,263.24z M746.29,253.09c0.18,0.35,0.36,0.71,0.55,1.06c0.76-0.29,1.56-0.53,2.29-0.89
			c3.98-1.99,7.8-4.38,11.95-5.9c4.07-1.49,6.68,0.72,7.22,5.05c0.48,3.82-0.96,7.03-2.74,10.2c-1.09,1.95-2.21,3.88-3.44,6.04
			c0.7,0,0.97,0.09,1.12-0.01c3.32-2.14,8.6-11.85,7.57-16.99c-1.09-5.45-4.19-6.9-8.53-6.27c-2.68,0.39-5.39,1.29-7.82,2.5
			C751.58,249.3,748.99,251.32,746.29,253.09z M594.59,244.07c-0.61,0.81-0.98,1.08-1.01,1.39c-0.66,6.08-1.45,12.14-1.83,18.24
			c-0.15,2.34,2.31,4.97,4.12,5.38c4.52,1.03,12.53-2.87,14.47-7.16c0.38-0.83,0.28-1.88,0.41-2.83c-0.23-0.04-0.46-0.07-0.69-0.11
			c-0.67,1.17-1.14,2.54-2.05,3.48c-2.48,2.55-5.69,3.83-9.16,4.3c-3.1,0.41-4.92-1.17-4.82-4.32c0.12-3.94,0.6-7.87,0.81-11.82
			C594.93,248.63,595.57,246.59,594.59,244.07z M811.53,336.73c-0.23-0.1-0.46-0.19-0.69-0.29c-2.8,3.4-4.77,7.55-8.78,9.98
			c-0.19-1.39-0.56-2.64-0.5-3.86c0.16-3.27,0.58-6.53,0.73-9.81c0.03-0.67-0.68-1.38-1.04-2.07c-0.62,0.46-1.73,0.87-1.8,1.4
			c-0.64,5.15-2.13,10.27-0.33,15.52c0.76,2.21,1.78,2.84,3.57,1.25c2.23-1.98,4.48-4.02,6.28-6.37
			C810.21,340.86,810.7,338.67,811.53,336.73z M809.86,294.03c0.13,0.32,0.26,0.64,0.38,0.96c0.96-0.28,1.95-0.48,2.87-0.85
			c3.24-1.29,6.44-2.68,9.68-3.96c2.21-0.88,2.73-0.51,2.44,1.9c-0.2,1.69-0.53,3.4-1.1,4.99c-1.33,3.76-2.84,7.46-4.45,11.64
			c0.83-0.37,1.61-0.47,1.94-0.9c0.79-1.05,1.53-2.21,2.02-3.43c1.24-3.11,2.48-6.23,3.42-9.44c0.49-1.65,0.61-3.51,0.43-5.23
			c-0.23-2.2-1.39-2.69-3.49-1.89c-2.86,1.09-5.73,2.14-8.54,3.35C813.55,292,811.73,293.06,809.86,294.03z M832.91,237.13
			c-0.13,0.19-0.27,0.39-0.4,0.58c0.1,0.26,0.2,0.52,0.31,0.77c1.87,4.09,1.66,5.1-1.63,8.14c-1.65,1.53-2.33,4.84-1.17,6.57
			c0.44,0.65,1.38,1.34,2.07,1.32c0.68-0.02,1.64-0.76,1.96-1.44c0.71-1.52,1.22-3.17,1.6-4.82c0.35-1.53,1.24-1.73,2.21-0.92
			c0.87,0.72,1.39,1.86,2.07,2.81c2.55-1.92,0.94-4.4-2.07-5.33c-1.37-0.43-1.62-1.05-1.73-2.35c-0.12-1.42-0.61-2.87-1.23-4.17
			C834.61,237.73,833.59,237.51,832.91,237.13z M709.63,446.16c-0.16-0.16-0.32-0.31-0.47-0.47c-2.14,1.48-4.19,3.12-6.44,4.41
			c-2.55,1.47-3.43,4.16-5.12,6.25c-1.94,2.41-2.69,5.05-2.38,8.08c0.69-1.45,0.92-3.07,1.56-4.5c0.6-1.34,1.62-2.48,2.46-3.7
			c0.18,0.13,0.35,0.26,0.53,0.39c-0.48,2.44-1.1,4.86-1.41,7.32c-0.68,5.43-0.56,5.72,0.76,6.52c0.36-2.41,0.8-4.97,1.11-7.56
			c0.57-4.69,2.59-8.73,5.52-12.34C706.98,449.03,708.33,447.62,709.63,446.16z M551.43,440.61c-0.27,0.1-0.54,0.21-0.8,0.31
			c0.58,1.22,0.88,2.78,1.82,3.56c0.76,0.63,2.44,0.73,3.47,0.38c3.62-1.25,4.88-3.89,4.41-8.46c-0.23-2.22-3.09-4.84-5.37-4.91
			c-2.59-0.08-3.02,0.43-3.49,4.22c-0.16,1.29-0.41,2.62,1.19,3.79c0.15-1.41,0.07-2.56,0.44-3.55c0.25-0.68,1.38-1.7,1.66-1.58
			c1.21,0.56,2.63,1.26,3.27,2.33c0.78,1.31,0.8,2.96-0.62,4.27C555.16,443.04,554.1,443.03,551.43,440.61z M711.54,476.41
			c-0.04,0-0.09-0.01-0.13-0.01c0-0.45,0.15-0.97-0.03-1.33c-0.45-0.9-1.18-2.49-1.56-2.43c-1.37,0.24-3.69,0.96-3.75,1.65
			c-0.24,2.96,0.08,6,0.49,8.97c0.07,0.51,1.6,1.14,2.44,1.11c0.64-0.02,1.67-0.9,1.8-1.54
			C711.23,480.73,711.32,478.56,711.54,476.41z M820.39,327.24c0.78,4.45,1.5,8.67,2.26,12.88c0.16,0.87,0.42,1.72,0.63,2.58
			c0.61-0.91,1.27-1.8,1.81-2.76c0.2-0.36,0.12-0.88,0.13-1.33c0.12-3.47-0.73-6.7-2.07-9.9
			C822.48,327.13,821.7,326.84,820.39,327.24z M610.28,301.27c-0.15-0.19-0.29-0.37-0.44-0.56c-1.77,0.74-3.49,1.64-5.32,2.19
			c-3.2,0.97-6.45,1.85-9.81,0.42c-0.43-0.18-1.12,0.24-1.69,0.39c0.21,0.73,0.28,1.54,0.67,2.15c0.21,0.33,0.95,0.37,1.46,0.43
			c4.76,0.57,9.25-0.1,13.2-3.01C609.1,302.75,609.64,301.95,610.28,301.27z M710.99,288.11c0-1.92-1.45-4.05-2.74-4.05
			c-3.41,0.02-4.85,0.9-4.87,2.96c-0.02,2.65,2.25,5.87,4.21,5.98C709.16,293.09,710.99,290.45,710.99,288.11z M713.71,450.72
			c-3.52-0.18-4.99,3.64-4.77,12.75c0.67-0.42,1.62-1.05,1.57-1.59c-0.24-2.4,1.18-4.05,2.32-5.82c0.94-1.46,1.98-2.85,2.97-4.28
			c-0.12-0.16-0.24-0.31-0.36-0.47c-0.72,0.45-1.43,0.9-2.37,1.49C713.32,452.02,713.49,451.44,713.71,450.72z M620.52,210.1
			c-0.96-1.67-2.07-1.58-3.32-0.93c-3.52,1.81-7.05,3.6-10.54,5.46c-0.74,0.39-1.32,1.07-2.02,1.66c1.95,1.49,3.17,1.11,5.54-0.5
			c2.67-1.81,5.59-3.24,8.42-4.82C619.15,210.67,619.76,210.45,620.52,210.1z M814.03,266.43c0.61,3.04,1.16,5.89,1.77,8.72
			c0.28,1.31,0.56,2.65,1.07,3.88c0.18,0.44,1.03,0.61,1.58,0.9c0.32-0.61,1-1.29,0.89-1.81c-0.75-3.49-1.68-6.94-2.51-10.42
			C816.48,266.24,815.6,266.05,814.03,266.43z M765.98,198.44c0.04,0.25,0.08,0.5,0.12,0.75c0.33,0.13,0.7,0.44,0.98,0.38
			c5.14-1.14,10.28-2.31,15.4-3.52c0.24-0.06,0.54-0.56,0.51-0.81c-0.03-0.3-0.38-0.76-0.63-0.79c-0.72-0.08-1.47-0.07-2.18,0.08
			c-3.12,0.66-6.26,1.29-9.34,2.1C769.18,197.06,767.6,197.82,765.98,198.44z M658.17,296.04c0.67-2.3-4.58-13.21-6.47-13.66
			C652.53,287.55,653.39,292.51,658.17,296.04z M617.86,228.13c-0.01-0.21-0.03-0.41-0.04-0.62c-0.34-0.23-0.68-0.64-1.03-0.65
			c-4.17-0.15-8.35-0.28-12.52-0.29c-0.23,0-0.79,1.33-0.64,1.47c0.5,0.49,1.22,0.92,1.9,1c2.15,0.25,4.34,0.56,6.48,0.41
			C613.98,229.32,615.91,228.6,617.86,228.13z M641.7,263.07c-0.25,0.11-0.49,0.22-0.74,0.33c0,0.77-0.3,1.73,0.05,2.28
			c2.15,3.41,8.73,5.76,12.54,4.56c0.35-0.11,0.61-0.52,1.12-0.98C649.63,268.34,644.68,267.85,641.7,263.07z M760.79,324.59
			c-3.23-2.32-6.29-4.54-9.39-6.7c-0.22-0.16-1.1,0.14-1.11,0.24c-0.01,0.62-0.09,1.49,0.27,1.81c2.04,1.83,4.16,3.59,6.34,5.26
			C758.11,326.12,759.41,326.06,760.79,324.59z M780.97,211.59c-4.89,3.65-9.08,1.86-13.19-1.54c0.11,3.7,2.95,5.39,7.97,5.41
			C778.78,215.47,780.88,214.12,780.97,211.59z M711.54,267.44c-0.44-0.34-0.71-0.73-1.01-0.76c-2.99-0.28-5.99-0.54-8.98-0.71
			c-0.34-0.02-1,0.56-1.01,0.89c-0.03,0.58,0.12,1.44,0.53,1.74C703.25,270.21,708.97,269.6,711.54,267.44z M698.68,256.71
			c1.52-0.82,2.74-1.59,4.04-2.15c1.98-0.85,4.04-1.51,6.02-2.35c0.45-0.19,0.73-0.8,1.09-1.22c-0.51-0.33-0.99-0.83-1.55-0.95
			c-0.54-0.12-1.21,0.05-1.74,0.28c-2.04,0.89-4.08,1.78-6.04,2.81C699.38,253.72,698.02,254.36,698.68,256.71z M661.35,278.37
			c-0.99,0.51-2.19,0.73-2.46,1.36c-0.71,1.64-1.04,3.44-1.43,5.2c-0.05,0.21,0.42,0.53,0.64,0.8c0.89-0.8,1.78-1.59,2.67-2.39
			c0.65,0.38,1.29,0.75,1.94,1.13c0.25-0.16,0.5-0.32,0.75-0.48C662.78,282.18,662.1,280.38,661.35,278.37z M841.99,182.86
			c-0.15,0.22-0.3,0.44-0.45,0.66c1.31,2.99,2.55,6.01,3.98,8.94c0.29,0.59,1.28,0.83,1.95,1.24c0.23-0.23,0.47-0.47,0.7-0.7
			c-1.34-2.94-2.61-5.91-4.09-8.78C843.76,183.58,842.71,183.3,841.99,182.86z M657.28,314.37c0.38-1.98-3.09-6.72-4.87-6.7
			c-1.01,0.01-2.3,0.51-1.37,1.73C652.66,311.53,654.2,313.96,657.28,314.37z M574.6,235.1c0.31-2.83,0.65-5.53,0.86-8.23
			c0.03-0.4-0.56-0.85-0.86-1.28c-0.3,0.27-0.8,0.49-0.88,0.82c-0.49,2-0.95,4.02-1.29,6.05
			C572.19,233.92,573.02,234.73,574.6,235.1z M594.99,294.07c4.75,0.53,9.21-1.77,8.53-4.35
			C600.79,291.1,597.41,291.03,594.99,294.07z M570.44,235.62c0-2.66,0.08-4.8-0.05-6.93c-0.03-0.54-0.7-1.08-1.19-1.5
			c-0.11-0.09-0.82,0.29-1.02,0.6C567.19,229.32,568.23,233.86,570.44,235.62z M572.17,261.17c1.94-2.92,1.98-6.61,0.09-8.13
			C570.2,256.02,570.16,259.5,572.17,261.17z M835.87,238.42c2.69,1.19,4.87,0.59,7.74-1.85c-0.79-0.4-1.6-1.16-2.04-0.99
			C839.77,236.3,838.08,237.29,835.87,238.42z M550.05,354.77c2.19,0.52,3.92-0.14,4.3-1.8c0.1-0.43-0.28-1.33-0.62-1.44
			C552.58,351.16,550.07,353.47,550.05,354.77z M569.68,260.81c-0.91-1.24-1.72-2.34-2.53-3.44c-0.36,0.47-1.12,1.16-1.01,1.37
			c0.65,1.22,1.51,2.33,2.3,3.48C568.8,261.81,569.15,261.41,569.68,260.81z M848.89,184.72c0.4-3.29,0.04-4.01-2.14-4.37
			C846.42,183.57,846.84,184.43,848.89,184.72z"/>
		<path d="M675.63,476.2c-3.28,3.48-6.51,6.95-9.79,10.37c-2.97,3.09-6.08,6.06-9,9.2c-4.3,4.63-8.37,9.49-12.81,13.98
			c-0.9,0.91-3.02,0.6-4.58,0.86c-0.13-0.24-0.25-0.49-0.38-0.73c2.06-2.26,4.13-4.51,6.16-6.8c1.24-1.39,2.56-2.75,3.53-4.31
			c0.42-0.68,0.07-1.84,0.07-2.95c2.86,0.75,4.05-1.54,5.4-3.31c4.68-6.14,9.5-12.2,13.77-18.62c2.38-3.58,3.86-7.79,5.56-11.79
			c0.71-1.68,0.82-3.6,1.4-5.35c0.24-0.73,1-1.29,1.52-1.92c0.2,0.11,0.39,0.21,0.59,0.32c0.13,0.68,0.25,1.37,0.37,2
			c0.84-1.33,1.67-2.7,2.55-4.04c0.96-1.47,1.72-3.2,4.13-2.29c0.31,0.12,1.18-1.22,2.14-2.28c0.11,0.02,0.8,0.16,1.59,0.32
			c-0.57,8.89-6.11,15.67-9.44,23.69c2.79-1.8,13.57-21.36,14.45-24.5c0.98,0.32,1.96,0.64,2.99,0.97c-1.38,2.36-2.75,4.69-4.1,7.03
			c-0.4,0.69-1.01,1.36-1.11,2.09c-0.43,3.32-2.33,5.4-5.2,6.84c-0.45,0.23-0.64,0.95-0.98,1.42c-1.74,2.38-3.5,4.74-5.21,7.13
			c-0.24,0.34-0.39,0.81-0.42,1.23c-0.53,6.55-0.27,13,2.53,19.12c2.14,4.67,8.42,9.51,15.2,7.47c2.39-0.72,1.99-2.52,2.48-3.92
			c0.96-2.79,1.53-5.71,2.35-8.56c0.1-0.36,0.74-0.76,1.15-0.79c0.34-0.02,0.9,0.4,1.06,0.75c1.44,3.13,5.97,3.8,8.49,1.46
			c5.34-4.97,7.87-11.36,9.55-18.2c0.33-1.35,0.15-2.83,0.27-4.24c0.3-3.49,0.64-6.98,0.95-10.48c0.04-0.44-0.06-0.88-0.1-1.33
			c-0.4,0.2-0.89,0.32-1.19,0.62c-0.9,0.94-1.73,1.96-2.67,3.04c0.3,0.51,0.62,1.06,0.7,1.21c-1.15,3.37-2.21,6.43-3.31,9.66
			c-0.8-0.88-1.37-1.51-2.13-2.34c-0.56,1.94-1.25,3.64,0.88,4.93c-2.43,0.26-3.28-0.46-3.09-2.7c0.28-3.38,0.02-6.97,1.1-10.09
			c1.29-3.7,2.62-7.74,6.46-10c0.59-0.34,0.85-1.23,1.51-2.24c0.45-0.06,1.44-0.19,2.44-0.32c0.13,0.21,0.27,0.42,0.4,0.63
			c-1.45,1.46-3.1,2.78-4.29,4.43c-1.42,1.97-3.37,3.79-3.2,6.63c4.18-3.88,8.28-7.68,12.38-11.48c-1.65,2.63-3.96,4.69-3.86,8.12
			c0.11,3.59,0.18,7.2,0.06,10.79c-0.22,6.58-2.18,12.72-5.46,18.37c-1.33,2.28-3.25,4.23-5.01,6.22c-2.11,2.38-4.18,4.85-6.57,6.92
			c-1.74,1.51-3.99,2.43-6.56,3.94c1.98,0.81,3.49,1.43,5,2.05c-2.11,0.9-2.87,0.8-5.55-0.66c-2.66-1.45-5.18-0.03-7.73,0.45
			c-0.25,0.05-0.45,0.57-0.58,0.91c-2.11,5.7-4.56,11.19-8.56,15.89c-1.12,1.31-0.21,2.71,0.95,3.69c3.13,2.64,9.66,1.65,11.71-1.87
			c0.34-0.59-0.04-1.66-0.23-2.47c-0.1-0.45-0.51-0.84-0.89-1.43c0.78-0.15,1.33-0.26,1.91-0.37c0.04-0.22,0.15-0.44,0.12-0.65
			c-0.45-3.53-0.92-7.07-1.38-10.6c-0.06-0.44-0.16-0.96,0-1.33c0.28-0.65,0.74-1.22,1.13-1.83c0.48,0.56,1.27,1.06,1.39,1.69
			c0.35,1.9,0.41,3.84,0.63,5.76c0.26,2.35,0.32,4.77,0.95,7.03c0.33,1.18,1.52,2.36,2.63,3.02c2.17,1.3,4.57,2.21,6.85,3.32
			c1.66,0.81,2.26,1.98,1.35,3.81c-2.35,4.73-4.56,9.52-6.99,14.2c-0.25,0.49-1.61,0.68-2.39,0.55c-0.82-0.13-1.56-0.8-2.37-1.25
			c-0.68,1.86-1.26,3.57-1.93,5.25c-0.7,1.76-0.53,3.31,0.15,5.14c1.31,3.51,1.83,7.21,0.85,10.98c-0.85,3.26-1.45,6.6-2.43,9.82
			c-0.79,2.57-2.14,4.87-4.52,6.44c-1.33,0.88-2.84,1.81-3.61,3.1c-0.9,1.51-1.28,3.41-1.52,5.2c-0.35,2.63-0.42,5.3-0.47,7.96
			c-0.01,0.44,0.72,0.93,1.16,1.33c0.43,0.38,1.36,0.76,1.32,1.01c-0.11,0.66-0.63,1.26-1.04,1.97c1.01,1.63,2.18,3.49,3.31,5.38
			c1.12,1.88,0.46,4.27-1.58,5.21c-3.06,1.42-6.24,2.39-9.7,1.86c-1.97-0.3-3.02-1.69-2.83-3.7c0.21-2.29,0.37-4.6,0.41-6.9
			c0.01-0.6-0.49-1.21-0.78-1.85c3.05-2.18,2.45-6.07,3.85-9.09c0.91-1.95,0.95-4.29,1.46-6.86c-1.45,0.09-2.81,0.15-4.16,0.27
			c-2.61,0.23-5.21,0.48-7.81,0.74c-1.23,0.12-1.83,0.52-2.05,2.04c-0.58,3.95-1.53,7.86-2.45,11.76c-0.22,0.95-0.87,1.8-1.34,2.75
			c5.5,1.5,7.42,0.65,8.84-3.72c1.28-3.93,2.48-7.89,3.86-12.29c0.94-0.3,1.66,0.51,1.45,1.98c-0.39,2.74-0.19,5.53-1.58,8.2
			c-1.23,2.35-1.69,5.09-2.35,7.2c-1.7,1.52-3.16,2.83-4.62,4.13c-0.28,0.25-0.55,0.66-0.86,0.69c-1.88,0.21-2.84,1.73-4.03,2.85
			c-2.83,2.66-6.43,3.06-9.97,3.5c-2.93,0.37-5.94-2.47-6.12-5.39c-0.1-1.71,2.17-4.9,5.26-4.91c1.41-0.01,2.87-0.06,4.21-0.44
			c0.94-0.26,2.27-0.95,2.49-1.71c1.33-4.59,2.44-9.26,3.5-13.92c0.18-0.78-0.23-1.7-0.37-2.6c-2.77,0.53-5.11,0.23-7.2-1.81
			c0.67-0.77,1.34-1.52,1.98-2.3c3.85-4.7,7.71-9.41,11.54-14.13c1.58-1.95,3.06-3.98,4.68-5.9c1.09-1.3,2.4-2.42,3.46-3.74
			c0.48-0.59,0.61-1.46,1.08-2.7c3,0.03,3.06-2.06,2.98-5.01c-0.09-3.34,0.85-6.71,1.34-10.03c-2.97,1.92-6.2,3.91-9.33,6.04
			c-1.84,1.25-4.43,0.63-4.68-1.54c-0.35-3.07-0.12-6.21-0.27-9.31c-0.24-4.85,2.96-7.62,6.02-10.62c2.59-2.54,4.87-5.39,7.28-8.11
			c0.34-0.38,0.74-1.15,0.99-1.11c2.72,0.54,3.14-1.86,3.97-3.32c1.39-2.44,2.34-5.13,3.33-7.39c-2.73-1.72-5.54-3.11-7.88-5.07
			c-3.7-3.11-5.28-7.5-5.91-12.18C676.18,483.61,675.95,479.75,675.63,476.2z M690.31,544.66c1.33,0.45,2.16,0.55,2.79,0.97
			c2.29,1.53,2.29,1.58,3.13-1c0.35-1.06,0.51-2.17,0.84-3.24c0.26-0.83,0.54-1.69,1.02-2.4c0.28-0.41,0.97-0.55,1.48-0.81
			c0.23,0.49,0.72,1.02,0.65,1.47c-0.28,1.88,0.89,1.64,1.89,1.67c2.47-4.78,4.85-9.39,7.38-14.29c-3.42-1.47-6.54-2.82-9.74-4.19
			c-0.75,0.88-1.25,1.78-2.01,2.32c-1.61,1.14-3.3,2.82-5.06,2.96c-4.12,0.32-8.28-0.15-10.76-4.36c-0.68-1.15-1.54-1.21-2.51-0.16
			c-1.69,1.84-3.5,3.56-5.17,5.41c-0.99,1.1-2.42,2.27-2.59,3.55c-0.49,3.69-0.45,7.46-0.61,11.2c0.26,0.07,0.52,0.13,0.78,0.2
			c1.91-1.08,3.89-2.06,5.72-3.27c2.56-1.69,5.01-3.55,7.53-5.32c0.21-0.15,0.51-0.16,0.77-0.23c1.44-0.43,2.91-0.8,4.32-1.31
			c0.83-0.3,1.59-0.82,2.37-1.24c0.16,0.23,0.33,0.46,0.49,0.68c-1,0.89-2.07,1.72-2.99,2.69c-1.52,1.58-3.65,3.02-4.25,4.92
			c-1.07,3.37-1.22,7.03-1.63,10.58c-0.06,0.49,0.54,1.33,1.04,1.56c3.39,1.57,6.09-1.2,9.86-1.21
			C693.38,549.28,692.06,547.29,690.31,544.66z M660.91,583.36c1.22-0.13,2.21,0.05,2.79-0.35c1.24-0.87,2.24-1.03,3.38,0.07
			c0.22,0.22,0.69,0.26,1.04,0.25c3.72-0.16,7.45-0.31,11.17-0.55c1.08-0.07,2.37,0.06,2.74-1.55c0.07-0.33,1.04-0.39,1.5-0.7
			c0.77-0.52,1.83-1.01,2.13-1.77c0.63-1.62,1.43-2.33,3.24-1.59c-0.03,0.59-0.06,1.18-0.1,1.92c5.53-4.41,8.65-17.76,6.12-25.09
			c-3.65,0.69-7.29,1.28-10.88,2.12c-0.89,0.21-1.72,1.11-2.38,1.86c-4.58,5.27-9.17,10.53-13.63,15.91
			C665.63,576.78,663.48,579.91,660.91,583.36z M679.13,610.62c3.06,0.93,3.06,0.93,9.67-1.64c0.29-3.36-2.1-5.44-3.86-7.76
			c-0.45-0.6-1.77-1.07-2.44-0.86c-0.95,0.31-2.21,1.2-2.39,2.04C679.56,605.05,679.44,607.79,679.13,610.62z M668.1,604.66
			c-1.98,0.23-4.37-1.55-5.77,1.22c-0.08,0.15-0.54,0.13-0.83,0.16c-2.52,0.25-5.05,0.48-7.57,0.76c-2.25,0.25-3.43,1.38-3.18,2.93
			c0.29,1.81,2.49,3.39,4.42,2.91C660.27,611.35,664.64,608.77,668.1,604.66z M702.74,491.69c-0.58,2.26-1.22,4.82-1.96,7.72
			c4.41-1.87,7.15-3.96,7.76-5.6C706.74,493.15,704.94,492.49,702.74,491.69z M669.49,477.68c3.43-3.13,6.53-6.43,6.44-11.48
			C673.79,470.03,671.64,473.86,669.49,477.68z M684.19,597.97c-1.04-1.17-1.72-1.94-2.41-2.71c-0.19,0.96-0.38,1.92-0.61,3.11
			C682.26,598.22,682.83,598.15,684.19,597.97z M685.38,451.89c-3,1.27-3.19,1.81-1.86,4.23
			C684.12,454.78,684.63,453.62,685.38,451.89z"/>
		<path d="M835.63,552c-0.73,4.33-1.05,8.53-2.22,12.48c-0.98,3.3-2.73,6.43-4.54,9.39c-1.7,2.78-5.35,2.65-7.63-0.17
			c-1.13-1.4-2.09-1.54-3.64-0.88c-1.49,0.63-3.1,1.14-4.7,1.32c-1.76,0.2-3.72,0.24-4.72-1.72c-0.83-1.64,0.15-4.3,1.88-5.49
			c3.9-2.67,5.53-4.65,7.24-8.74c-3.52-2.77-6.36-2.17-8.05,1.94c-1.47,3.57-2.73,7.24-3.93,10.92c-1.19,3.64-4.18,4.37-7.35,4.62
			c-1.45,0.11-2.99-0.28-4.41-0.69c-2.69-0.79-3.25-1.61-3.54-4.69c-1.18-0.16-2.41-0.35-3.64-0.5c-2.94-0.36-6.77-3.42-7.22-5.94
			c-0.24-1.38-0.27-2.45,1.61-3.3c3.81-1.71,7.43-3.89,10.92-6.2c0.94-0.62,1.59-2.4,1.55-3.61c-0.08-2.13-0.79-4.23-1.23-6.28
			c-2.02,1.9-3.95,3.77-5.97,5.55c-0.24,0.21-1.19,0.1-1.33-0.13c-1.37-2.39-3.24-4.73-3.71-7.32c-0.31-1.7,1.36-3.82,2.28-5.67
			c0.3-0.61,1.06-0.98,1.63-1.47c-1.75-1.3-3.67-2.3-5.01-3.81c-3.77-4.27-6.07-9.13-4.94-15.1c0.48-2.52,0.62-5.11,1.01-7.65
			c0.14-0.94,0.63-1.81,0.87-2.74c0.33-1.28,0.57-2.59,0.84-3.88c-0.19-0.13-0.39-0.27-0.58-0.4c-1.37,1.47-3.07,2.75-4.05,4.44
			c-2.42,4.14-4.46,8.5-6.75,12.72c-1.56,2.86-3.28,5.63-4.93,8.44c-1.04,1.78-2.03,3.58-3.14,5.32c-2.99,4.69-8.8,6.88-13.79,1.01
			c-3.87-4.55-4.23-9.6-2.09-15.03c4.14-10.5,10.37-19.66,17.51-28.33c3.11-3.78,5.28-8.33,8.12-12.36
			c0.96-1.37,2.57-2.38,4.06-3.25c3.71-2.18,7.5-4.24,11.32-6.24c1.14-0.6,2.46-0.91,3.73-1.2c3.31-0.76,6.61-1.73,9.97-2.07
			c5.13-0.52,10.21-0.43,15.17,1.68c4.55,1.94,9.73,2.62,13.94,5.06c5.7,3.3,10.92,7.53,15.98,11.79c3.87,3.26,5.04,7.71,4.98,12.97
			c-0.08,7.12-1.24,13.99-2.81,20.83c-0.8,3.47-2,6.86-3.28,10.19c-0.98,2.57-6.51,4.46-9.92,3.58c-4.31-1.1-8.11-3.02-10.72-6.82
			c-0.32-0.47-0.79-0.84-1.3-1.39c-2.16,4.74-3.76,9.65-8.67,13.01c2.26,0.22,3.98,0.29,5.67,0.58c5.06,0.86,10.26,1.32,15.11,2.87
			c4.85,1.55,7.72-0.48,10.69-3.63c0.81-0.85,2.31-1.62,3.42-1.52c5.43,0.5,5.65,3.53,4.09,7.83c-0.89,2.45-3.05,4.55-4.97,6.49
			C842.11,551.18,838.94,551.92,835.63,552z M819.56,507.78c0.23-0.18,0.45-0.37,0.68-0.55c0.5,0.44,1.17,0.79,1.46,1.34
			c1.44,2.73,1.02,5.54-0.05,8.23c-0.86,2.14-1.29,4.21,0.09,6.2c2.69,3.89,6.42,6.24,11.1,6.91c2.66,0.38,5.3-0.98,6-3.26
			c1.58-5.12,3.38-10.24,4.24-15.49c0.9-5.5,0.91-11.16,1.09-16.76c0.09-2.87-0.45-5.83-2.68-7.85c-3.52-3.2-7.27-6.16-10.98-9.14
			c-4.37-3.51-9.56-5.35-14.7-7.41c-10.85-4.34-21.45-2.77-31.88,1.03c-4.23,1.54-8.05,4.25-12,6.53c-0.78,0.45-1.37,1.35-1.87,2.15
			c-2.22,3.53-4.01,7.39-6.61,10.6c-7.28,8.95-14.15,18.08-18.32,28.99c-1.46,3.81-2.64,7.6-0.32,11.37
			c3.17,5.16,5.62,6.76,10.31,1.67c1.38-1.5,2.46-3.33,3.45-5.14c2.65-4.85,5.11-9.79,7.76-14.64c1.46-2.67,2.88-5.43,4.8-7.75
			c2.04-2.47,4.65-4.48,7.04-6.67c0.18-0.17,0.53-0.2,0.81-0.21c2.03-0.08,2.69,1.19,2.06,3.6c-0.99,3.75-2.07,7.49-2.73,11.31
			c-0.53,3.07-0.86,6.27-0.63,9.36c0.57,7.61,10.61,15.07,17.88,14.29c2.29-0.25,4.64-0.27,6.94-0.12c4.35,0.28,7.72-1.53,9.84-5.09
			c2.73-4.59,5.34-9.26,6.53-14.61C819.52,513.7,821.05,510.93,819.56,507.78z M799.71,566.14c0.05,0.28,0.1,0.55,0.15,0.83
			c-2.09,0.9-4.18,1.78-6.25,2.72c-1.32,0.6-1.74,2.78-0.62,3.01c2.19,0.46,4.56,0.85,6.73,0.5c2.78-0.45,3.5-3.14,4.3-5.49
			c1.23-3.6,2.34-7.25,3.76-10.77c1.07-2.65,3.68-3.54,6.33-2.55c0.98,0.37,1.95,0.74,2.92,1.12c3.02,1.19,3.77,3.88,1.88,6.53
			c-0.36,0.5-0.72,1.28-0.58,1.81c0.49,1.97,1.18,3.88,1.87,6.05c1.76-1.01,3.07-1.77,4.38-2.53c0.1,0.12,0.2,0.24,0.3,0.36
			c-1.06,1.19-2.11,2.39-3.17,3.57c2.81,3.63,3.75,3.7,5.9,0.51c3.8-5.64,4.98-12.06,5.4-18.66c0.17-2.73,0.37-3.1,3.22-3.1
			c2.77,0,5.31-0.64,7.18-2.89c1.19-1.43,2.4-2.85,3.48-4.36c1.12-1.58,1.45-5.44,0.53-5.89c-2.08-1.01-3.52,0.17-4.88,1.61
			c-0.55,0.58-1.56,0.86-1.88,1.52c-1.14,2.31-2.45,3.32-5.24,2.3c-4.16-1.53-8.88-0.87-12.97-2.96c-0.56-0.28-1.31-0.21-1.98-0.24
			c-4.03-0.15-8.06-0.38-12.1-0.38c-1.82,0-3.74,0.14-5.44,0.73c-2.65,0.94-5.22,1.16-7.9,0.39c-0.75-0.22-1.49-0.49-2.63-0.87
			c0.58,2.27,1.01,4.12,1.54,5.94c0.07,0.26,0.56,0.42,0.88,0.58c2.95,1.49,3.55,3.02,2.38,6.14c-0.55,1.45-1.6,2.89-1.61,4.34
			c-0.03,3.87,0.02,7.7-2.18,11.38C795.73,566.81,797.66,565.77,799.71,566.14z M793.84,556.88c-4.26,2.08-7.94,3.8-11.51,5.73
			c-0.43,0.23-0.6,1.78-0.28,2.38c1.02,1.9,5.6,3.64,7.73,3.02c0.6-0.17,1.13-0.84,1.52-1.41c0.39-0.57,0.64-1.28,0.8-1.96
			C792.69,562.2,793.21,559.73,793.84,556.88z M815.98,564.55c-0.64,0.6-1,0.96-1.39,1.29c-1.24,1.05-2.65,1.96-3.67,3.2
			c-0.55,0.67-0.62,1.91-0.49,2.84c0.04,0.27,1.58,0.59,2.34,0.44c1.93-0.37,3.81-1,5.87-1.57
			C817.71,568.57,816.9,566.69,815.98,564.55z M786.58,536.81c-0.95,1.73-1.61,2.93-2.32,4.23
			C786.29,541.4,787.01,540.2,786.58,536.81z"/>
		<path d="M528.1,512.14c2.07,4.57,2.52,10.02,2.94,15.55c0.26,3.5,1.59,6.92,2.26,10.41c0.17,0.87-0.05,2.15-0.61,2.74
			c-1.16,1.23-2.61,2.24-4.07,3.12c-1.23,0.74-3.18-0.62-4.09-2.59c-1.95-4.22-4.97-7.65-8.41-10.63c-1.97-1.71-4.47-2.82-6.66-4.3
			c-0.5-0.34-0.85-1.05-1.02-1.67c-0.19-0.67-0.1-1.41-0.16-2.79c-3.26,2.46-6.05,4.65-8.93,6.7c-1.09,0.78-2.42,1.24-3.63,1.84
			c-0.25,0.12-0.63,0.16-0.73,0.36c-1.95,3.5-5.62,4.47-8.82,6.2c-2.72,1.46-5.19,3.37-7.83,4.98c-5.08,3.1-10.17,6.19-15.32,9.16
			c-3.31,1.91-3.36,2.13-2.41,6.01c1.18,4.83,2.14,9.71,3.04,14.6c0.1,0.57-0.69,1.67-1.32,1.96c-3.93,1.79-7.91,3.45-11.91,5.08
			c-2.71,1.1-4.02,0.51-4.75-2.34c-1.31-5.12-2.4-10.3-3.69-15.42c-0.26-1.02-1-1.91-1.49-2.87c-0.58-1.11-1.14-2.23-1.68-3.36
			c-0.26-0.53-0.35-1.16-0.68-1.64c-1.57-2.25-1.66-2.36,0.82-3.64c9.88-5.1,18.48-12.02,27.28-18.7c4.74-3.6,9.92-6.64,15.04-9.7
			c7.16-4.28,14.36-8.5,21.7-12.45c10.51-5.65,21.15-11.05,31.76-16.51c0.74-0.38,1.66-0.41,2.71-0.66
			c0.02,1.99-1.17,2.51-2.38,3.08c-1.2,0.56-2.34,1.23-3.8,2.01c2.27,1.38,1.92,3.1,1.38,5.01c-0.51,1.8-0.4,3.81-1.1,5.52
			C530.84,508.85,529.48,510.21,528.1,512.14z M522.31,511.05c-0.07-0.22-0.15-0.44-0.22-0.67c0.81-0.04,1.63-0.07,2.44-0.11
			c2.06-0.09,3.69-1.04,4.45-2.9c1.25-3.07,1.55-6.31,1.04-9.76c-0.56,0.11-0.95,0.1-1.24,0.26c-4.81,2.5-9.61,5.03-14.4,7.55
			c-6.04,3.18-12.15,6.22-18.09,9.59c-6.09,3.46-12.04,7.18-17.99,10.88c-4.29,2.67-8.58,5.36-12.71,8.27
			c-3.35,2.35-6.36,5.18-9.71,7.53c-4.91,3.46-9.99,6.68-14.55,9.71c1.35,0.88,3.03,1.98,4.72,3.08c-0.53,0.23-0.86,0.1-1.18-0.06
			c-0.36-0.18-0.71-0.4-1.17-0.65c0.13,3.12,0.61,3.51,3.1,2.53c2.83-1.11,5.65-2.23,8.43-3.46c0.9-0.4,1.64-1.15,2.3-1.62
			c1.33-0.48,2.64-0.73,3.72-1.38c3.99-2.41,7.85-5.03,11.85-7.42c3.73-2.23,7.63-4.17,11.34-6.44c4.49-2.75,8.89-5.64,13.26-8.59
			c2.5-1.69,4.72-3.81,7.29-5.39c5.12-3.15,10.4-6.04,15.58-9.1C521.26,512.48,521.73,511.68,522.31,511.05z M510.32,524.07
			c0.11-0.16,0.22-0.32,0.33-0.47c3.15,2.02,6.72,3.6,9.33,6.17c2.87,2.82,4.8,6.58,7.24,9.86c0.43,0.57,1.5,1.29,1.92,1.11
			c0.91-0.39,2.11-0.98,1.49-2.52c-0.54-1.35-1.13-2.73-1.37-4.16c-0.74-4.4-1.27-8.84-2-13.24c-0.36-2.19-0.91-4.35-1.55-6.48
			c-0.12-0.41-1.25-0.96-1.58-0.79c-4.96,2.57-9.85,5.25-14.74,7.88C509.79,522.54,510.05,523.3,510.32,524.07z M449.17,577.19
			c3.56-1.54,6.63-3.01,9.81-4.18c1.76-0.65,2.1-1.62,1.67-3.23c-0.76-2.87-1.58-5.73-2.22-8.63c-0.48-2.21-0.72-4.47-1.09-6.84
			c-4.26,1.81-8.25,3.5-12.53,5.31C446.23,565.31,447.65,571.04,449.17,577.19z"/>
		<path d="M798.32,178.49c-0.68,2.02-1.3,4.07-2.07,6.06c-2.33,6.03-4.38,12.11-3.86,18.73c0.22,2.83,0.77,5.72,0.4,8.48
			c-0.95,7.09-2.42,14.11-3.51,21.18c-1.11,7.15-2.17,14.32-2.96,21.52c-0.76,6.91-0.92,13.89-1.76,20.79
			c-1.25,10.3-2.88,20.56-4.3,30.84c-1.38,9.98-3.05,19.94-3.94,29.96c-0.81,9.15-0.76,18.37-1.07,27.57
			c-0.2,5.9-0.48,11.79-0.54,17.69c-0.07,6.51,0.1,13.02,0.07,19.52c-0.01,1.5-0.42,2.99-0.66,4.64c-1.37-0.18-2.31-0.31-3.5-0.47
			c0-4.56,0-9.01,0-13.45c0-2.16-0.01-4.32,0.04-6.48c0.23-10.73,0.87-21.47,0.6-32.19c-0.22-9.09,1.18-17.99,1.96-26.95
			c0.67-7.69,2.26-15.31,3.37-22.96c1.25-8.57,2.56-17.13,3.59-25.72c1.21-10.08,1.87-20.24,3.3-30.29c1.32-9.22,3.55-18.32,5-27.53
			c0.75-4.76,0.98-9.66,0.91-14.48c-0.09-6.02,1.04-11.69,3.28-17.22c1.18-2.9,2.21-5.86,3.44-8.74c0.21-0.49,1.06-0.71,1.62-1.06
			C797.91,178.12,798.11,178.3,798.32,178.49z"/>
		<path d="M668.85,399.71c-2.79,0.47-2.92,0.31-2.72-2.11c0.56-6.91,1.12-13.82,1.57-20.74c0.47-7.35,0.9-14.7,1.18-22.06
			c0.27-6.76,0.25-13.52,0.49-20.28c0.21-5.87,0.71-11.74,0.89-17.61c0.12-3.79-0.16-7.6-0.14-11.4c0.03-4.74,0.24-9.48,0.26-14.22
			c0.02-3.72-0.25-7.44-0.17-11.15c0.09-3.69,0.47-7.38,0.71-11.07c0.23-3.5,0.45-7,0.67-10.5c0.55-8.63,1.21-17.25,1.59-25.89
			c0.23-5.21-0.07-10.44,0.02-15.66c0.17-9.5,0.59-18.98,2.48-28.33c0.18-0.88,0.14-1.84,0.51-2.62c0.24-0.52,1.07-1.14,1.54-1.07
			c0.53,0.08,1.25,0.83,1.35,1.38c0.17,0.92,0.03,1.96-0.2,2.89c-1.75,7.25-2.02,14.62-2.06,22.05c-0.05,9.64-0.4,19.29-0.81,28.92
			c-0.37,8.6-0.98,17.19-1.54,25.78c-0.35,5.38-0.92,10.74-1.13,16.12c-0.16,4.11,0.19,8.23,0.16,12.34
			c-0.07,11.73-0.06,23.46-0.4,35.19c-0.24,8.51-1.02,17-1.47,25.5c-0.31,5.82-0.31,11.66-0.72,17.48
			c-0.57,8.25-1.39,16.49-2.08,24.74C668.8,398.1,668.85,398.83,668.85,399.71z"/>
		<path d="M705.71,398.44c0.31-1.73,0.71-3.38,0.9-5.06c0.88-7.46,1.67-14.93,2.56-22.38c0.81-6.85,1.76-13.68,2.54-20.54
			c0.32-2.81,0.28-5.67,0.56-8.49c0.63-6.23,1.37-12.45,2.03-18.68c0.44-4.16,0.79-8.33,1.19-12.49c0.58-5.94,1.18-11.88,1.78-17.82
			c1.05-10.32,2.11-20.63,3.17-30.95c0.68-6.67,1.4-13.34,2.06-20.01c1.2-12.06,2.45-24.11,3.51-36.18
			c0.45-5.14,0.47-10.32,0.73-15.48c0.05-1.11,0.42-2.21,0.38-3.31c-0.04-1.46-0.34-2.91-0.5-4.37c-0.07-0.63-0.16-1.3,0.01-1.87
			c0.05-0.18,1.08-0.33,1.39-0.12c0.47,0.32,0.95,0.97,0.98,1.51c0.18,2.88,0.34,5.77,0.28,8.65c-0.15,7.06-0.17,14.14-0.72,21.18
			c-0.45,5.86-1.71,11.65-2.37,17.5c-0.56,4.97-0.74,9.98-1.19,14.96c-0.71,7.95-1.45,15.9-2.27,23.84
			c-0.8,7.8-1.81,15.59-2.55,23.4c-0.8,8.39-1.36,16.8-2.1,25.2c-0.53,6.03-1.21,12.05-1.8,18.08c-0.58,5.87-1.12,11.75-1.72,17.62
			c-0.87,8.4-1.78,16.8-2.67,25.2c-0.41,3.86-0.7,7.73-1.21,11.58c-0.31,2.36-0.98,4.66-1.42,7.01
			C708.91,398.26,708.13,399.32,705.71,398.44z"/>
		<path d="M622.9,372.12c-0.63-10.07-1.13-20.16-1.97-30.21c-0.29-3.49-1.46-6.9-2.17-10.36c-0.42-2.03-0.85-4.08-1.03-6.14
			c-0.86-10.09-0.76-20.21-0.17-30.3c0.46-7.86,1.52-15.68,2.16-23.53c0.73-8.98,1.12-17.99,1.95-26.96
			c0.84-8.98,2.03-17.93,3.09-26.89c0.76-6.4,2.13-12.65,5.11-18.43c0.31-0.59,1.05-1.13,1.71-1.32c0.53-0.16,1.23,0.25,1.85,0.4
			c-0.21,0.59-0.43,1.17-0.64,1.76c-1.21,3.5-2.78,6.93-3.55,10.53c-1.17,5.54-2.07,11.17-2.58,16.81
			c-0.91,9.96-1.37,19.96-2.17,29.93c-0.52,6.41-1.4,12.78-1.97,19.19c-0.7,7.79-1.66,15.58-1.74,23.39
			c-0.12,11.07-0.66,22.19,2.23,33.14c2.14,8.13,1.96,16.59,2.24,24.97c0.25,7.6,0.71,15.19,1.09,22.78
			c0.03,0.67,0.19,1.34,0.16,2.01c-0.03,0.59-0.26,1.17-0.4,1.76c-0.63-0.4-1.62-0.68-1.81-1.23c-0.47-1.39-0.67-2.89-0.82-4.37
			c-0.23-2.3-0.33-4.61-0.49-6.92C622.95,372.12,622.93,372.12,622.9,372.12z"/>
		<path d="M601.62,382.15c-2.08,0.93-3.88,1.74-5.67,2.55c-7.34,3.33-14.58,6.9-22.05,9.92c-6.99,2.83-14.14,5.23-20.53,9.38
			c-4.44,2.88-4.83,4.18-4.14,10.43c0.93,8.35,1.84,16.73,0.89,25.17c-0.16,1.38,0.23,2.82,0.33,4.23
			c0.27,3.76,0.45,7.54,0.82,11.29c0.12,1.22,0.84,2.36,1.12,3.58c0.59,2.59,1.05,5.21,1.62,7.8c0.37,1.66,0.98,3.28,1.23,4.95
			c0.75,4.83,1.37,9.68,2.04,14.52c0.03,0.22,0.1,0.47,0.04,0.67c-0.39,1.24,0.33,3.23-1.75,3.26c-0.38,0.01-1.11-2.14-1.13-3.31
			c-0.15-6.85-1.23-13.46-3.3-20.04c-1.52-4.83-2.27-9.99-2.7-15.06c-0.91-10.64-1.35-21.32-2.05-31.98
			c-0.21-3.19-0.77-6.36-0.92-9.55c-0.04-0.97,0.53-2.18,1.2-2.93c3.67-4.08,8.28-6.82,13.32-8.87c0.42-0.17,1.03-0.18,1.23-0.48
			c2.15-3.18,6-2.5,8.94-3.92c5.9-2.84,12.14-4.97,18.11-7.67c4.29-1.94,8.36-4.35,12.54-6.53c2.17-1.13,3.57-0.3,3.61,2.26
			c0.03,2.01-0.27,4.03-0.25,6.05c0.04,6.86,0.04,13.72,0.28,20.58c0.29,8.37,1.14,16.73,1.14,25.09c0,8.43-0.87,16.86-1.14,25.3
			c-0.16,5,0.15,10.02,0.12,15.03c-0.01,1.28-0.44,2.59-0.89,3.81c-0.12,0.32-1.02,0.34-1.56,0.5c-0.13-0.46-0.38-0.92-0.38-1.37
			c0.07-5.82,0.12-11.64,0.29-17.46c0.17-5.75,0.38-11.51,0.73-17.25c0.56-9.2,0.89-18.36-0.26-27.56
			c-1.16-9.29-1.73-18.64-0.9-28.02C601.72,385.19,601.62,383.84,601.62,382.15z"/>
		<path d="M583.17,196.11c2.13,0.27,2.16,1.77,2.1,3.16c-0.24,5.23-0.81,10.45-0.8,15.68c0.02,8.45-1.6,16.65-2.86,24.94
			c-0.88,5.81-0.9,11.74-1.48,17.59c-0.54,5.55-1.11,11.1-2.05,16.59c-0.68,4.01-2.07,7.89-2.98,11.87
			c-0.82,3.55-1.42,7.16-2.11,10.74c-1.03,5.33-2.35,10.62-3.03,16c-1.06,8.3-1.67,16.65-2.5,24.98c-0.27,2.74-0.65,5.47-0.96,8.21
			c-0.2,1.77-0.36,3.55-0.55,5.52c-0.49,0.03-1.12,0.08-1.97,0.14c-0.51,2.06-1.03,4.19-1.56,6.32c-0.3-0.04-0.6-0.08-0.9-0.13
			c-0.07-0.88-0.3-1.79-0.19-2.64c0.34-2.66,0.3-5.53,1.37-7.89c1.48-3.25,1.26-6.53,1.38-9.83c0.27-7.98,0.92-15.91,2.41-23.78
			c2-10.55,3.7-21.16,5.62-31.73c0.36-1.96,1.2-3.82,1.71-5.76c0.51-1.94,1.06-3.89,1.29-5.87c1.3-11.62,2.11-23.32,3.9-34.86
			c1.2-7.73,1.59-15.45,2.04-23.2c0.17-2.89,0.11-5.81,0.47-8.68C581.81,201.07,582.56,198.72,583.17,196.11z"/>
		<path d="M568.87,216.27c-1.55-1.38,0.1-2.46,0.8-3.56c1.39-2.19,3.09-4.21,4.29-6.49c1.3-2.46,2.04-5.12,0.93-7.99
			c-1-2.59-2.14-3.61-4.94-3.73c-2.02-0.08-4.05-0.06-6.07,0c-2.02,0.06-3.24,1.37-3.18,3.42c0.15,4.7,0.47,9.4,0.47,14.1
			c0,2.05-0.48,4.14-1.01,6.14c-0.53,2.01-1.52,2.29-3.35,1.28c-5.49-3.01-7.16-8.14-7.51-13.87c-0.13-2.14,0.09-4.39,0.65-6.45
			c0.79-2.92,2.49-5.06,5.8-5.85c5.81-1.39,11.56-2.35,17.44-0.56c3.55,1.08,5.65,4.36,5.24,8.08c-0.63,5.79-3.55,10.33-7.67,14.21
			C570.29,215.48,569.66,215.77,568.87,216.27z M556.65,216.82c0.28-0.14,0.55-0.29,0.83-0.43c1.56-6.9,0.86-13.87,0.6-20.83
			c-4.42,0.59-6.13,2-6.67,6.2c-0.43,3.34-0.31,6.78,1.42,9.81C553.89,213.44,555.36,215.08,556.65,216.82z"/>
		<path d="M826.42,198.86c-3.09,3.5-6.19,7-9.28,10.5c-0.33-0.17-0.66-0.34-0.99-0.51c0.06-1-0.08-2.07,0.24-2.99
			c0.27-0.8,0.97-1.52,1.62-2.1c2.76-2.48,5.65-4.81,8.33-7.37c1.71-1.63,3.06-3.62,4.72-5.3c0.49-0.49,1.5-0.46,2.28-0.67
			c0.08,0.75,0.4,1.58,0.19,2.23c-1.41,4.4-3.3,8.69-4.3,13.18c-0.7,3.11-0.52,6.51-0.18,9.72c0.26,2.42,1.82,3.12,4.05,2.01
			c1.9-0.94,3.77-2.23,5.18-3.79c3.48-3.84,6.1-8.19,5.78-13.67c-0.09-1.6-0.55-3.18-0.76-4.78c-0.04-0.29,0.27-0.62,0.49-1.09
			c2.62,2.49,5.13,4.84,7.56,7.27c0.31,0.3,0.21,1.01,0.3,1.53c-0.61-0.07-1.45,0.08-1.79-0.26c-1.03-1.02-1.87-2.24-2.78-3.38
			c-0.23,0.18-0.46,0.36-0.69,0.53c-0.08,1.39,0.14,2.88-0.31,4.14c-2.31,6.59-5.44,12.74-12.42,15.47
			c-4.69,1.83-7.89,0.08-8.69-5.33c-0.75-5.08,0.28-9.93,2.3-14.62C827.01,199.37,826.71,199.12,826.42,198.86z"/>
		<path d="M647.91,360.23c0.41-0.22,0.8-0.52,1.24-0.65c3.49-1.02,5.72-3.26,6.28-6.84c0.32-2.05,0.45-4.21,0.17-6.25
			c-0.44-3.22-2.83-4.11-5.96-2.48c-3.16,1.64-6.31,3.3-9.45,4.97c-2.51,1.33-2.02,3.91-2.44,6.07c-0.37,1.89-0.38,3.87-0.9,5.71
			c-0.2,0.7-1.4,1.12-2.14,1.66c-0.23-0.73-0.67-1.46-0.64-2.17c0.12-2.15,0.42-4.29,0.67-6.58c-0.82,0.61-1.51,1.31-2.35,1.68
			c-0.58,0.26-1.36,0.05-2.06,0.05c0.14-0.65,0.08-1.46,0.46-1.9c1.01-1.2,2.31-2.15,3.29-3.37c0.87-1.08,1.47-2.39,2.18-3.6
			c-0.2-0.19-0.4-0.37-0.61-0.56c-1.3,0.6-2.6,1.23-3.92,1.78c-0.81,0.34-1.68,0.79-2.51,0.77c-0.56-0.02-1.1-0.77-1.65-1.2
			c0.38-0.39,0.68-0.94,1.14-1.15c2.16-0.99,4.42-1.77,6.53-2.86c0.78-0.4,1.58-1.33,1.8-2.17c0.59-2.3,0.86-4.67,1.26-7.02
			c2.18-0.06,2.18-0.06,1.58,7.09c2.37-0.35,4.51-2.84,7.64-0.66c-1.88,1.57-3.53,2.95-5.18,4.33c0.05,0.12,0.09,0.24,0.14,0.36
			c0.94-0.4,1.88-0.8,2.82-1.2c1.72-0.73,3.4-1.57,5.15-2.18c3.53-1.23,5.51-0.29,6.95,3.16c1.58,3.78,0.17,10.69-2.98,13.31
			c-1.33,1.11-3.08,1.74-4.7,2.47c-0.49,0.22-1.16,0.03-1.75,0.03C647.96,360.63,647.94,360.43,647.91,360.23z"/>
		<path d="M744.95,361.36c-0.78-2.03-1.5-3.93-2.33-6.07c-1.65,0.8-3.13,1.52-4.81,2.34c-0.45-3.3,2.33-3.46,3.77-4.74
			c-0.5-1.56-1.07-3.09-1.45-4.68c-0.12-0.5,0.27-1.12,0.43-1.68c0.57,0.2,1.41,0.23,1.67,0.63c0.83,1.3,1.45,2.74,2.29,4.38
			c3.39-1.51,6.83-3.06,10.27-4.6c0.19,0.35,0.38,0.7,0.57,1.05c-2.65,3.02-6.65,3.96-10.23,5.91c0.66,1.9,1.35,3.9,2.15,6.23
			c2.86-1.76,5.76-3.54,8.65-5.33c0.18,0.24,0.37,0.49,0.55,0.73c-0.56,0.71-0.99,1.59-1.69,2.1c-1.94,1.39-4.05,2.53-5.96,3.95
			c-0.58,0.43-1.05,1.46-1.03,2.19c0.08,2.61,0.4,5.21,0.65,8.05c4,0.03,7.61,1.32,10.95,3.51c-1.65,2.49-1.9,2.17-6.13,0.67
			c-1.49-0.53-2.95-1.13-4.3-1.65c-0.83,2.12-1.43,3.79-2.14,5.41c-0.57,1.31-1.36,3.05-2.96,2.39c-1.64-0.67-3.45-1.98-4.2-3.49
			c-1.11-2.25,0.2-4.4,2.71-5.55c1.08-0.49,2.25-0.75,3.78-1.25c-0.24-2.49-0.5-5.17-0.8-8.33c-2.37,1.27-4.34,2.32-6.54,3.49
			c-0.61-2.38,1.42-2.56,2.34-3.37C742.2,362.75,743.55,362.19,744.95,361.36z M746.31,374.15c-1.68,0.76-2.86,1.02-3.62,1.73
			c-0.58,0.54-1.08,1.83-0.82,2.46c0.33,0.82,1.46,1.32,2.24,1.95c0.46-0.7,1.08-1.35,1.35-2.13
			C745.84,377.1,745.95,375.93,746.31,374.15z"/>
		<path d="M802.04,378.89c1.45-0.87,2.86-1.64,4.2-2.52c3.12-2.05,4.73-0.59,6.81,1.05c0.75,0.59,1.29,1.45,1.95,2.16
			c1.22,1.32,1.77,3.33,4.06,3.55c3.15,0.29,6.13-0.11,8.85-1.72c2.27-1.35,4.1-3.07,3.65-6.12c-0.03-0.22,0.19-0.49,0.44-1.08
			c1.27,1.99,0.91,3.66,0.16,5.27c-2.53,5.45-11.52,7.49-16.09,5.93c-0.95-0.32-1.66-1.44-2.41-2.25c-1.17-1.26-2.27-2.57-3.4-3.85
			c-1.43-1.63-2.91-1.32-4.55-0.26c-3.92,2.54-6.79,5.99-9.15,9.97c-0.5,0.84-1.61,1.32-2.43,1.96c-0.24-0.19-0.49-0.37-0.73-0.56
			c0.22-0.78,0.31-1.62,0.67-2.33c3.28-6.44,6.68-12.82,9.88-19.31c0.73-1.49,0.69-3.35,1.21-4.96c0.23-0.69,1-1.21,1.53-1.8
			c0.33,0.62,1.01,1.28,0.94,1.86c-0.19,1.59-0.52,3.22-1.11,4.71C805.13,372.02,803.57,375.38,802.04,378.89z"/>
		<path d="M640.12,246.39c2.02-1.4,4.03-2.8,6.32-4.38c-0.52-1.02-1-2.28-1.77-3.3c-0.33-0.43-1.36-0.63-1.97-0.49
			c-1,0.22-1.88,0.92-2.87,1.19c-0.5,0.14-1.14-0.21-1.72-0.35c0.25-0.63,0.31-1.49,0.77-1.83c1.17-0.87,2.52-1.51,3.78-2.23
			c-0.54-1.6-1.03-3.04-1.55-4.6c2.89-0.63,3.29,1.58,4.14,3.56c1.73-1.08,3.23-2.01,4.71-2.95c0.5-0.32,0.93-0.92,1.45-0.99
			c0.74-0.1,1.53,0.17,2.29,0.28c-0.32,0.65-0.5,1.47-1,1.93c-0.98,0.91-2.13,1.64-3.23,2.41c-3.07,2.18-3.08,2.17-1.1,5.45
			c3.02-0.64,4.53-4.13,8.17-4.54c-0.72,4.08-4.33,4.93-6.6,7.44c0.89,1.32,1.66,2.87,2.82,4.05c1.37,1.41,1.45,2.72,0.36,4.16
			c-1.38,1.84-2.79,3.67-4.34,5.36c-0.49,0.54-1.47,0.63-2.23,0.92c-0.13-0.19-0.26-0.38-0.39-0.57c1.15-1.58,2.35-3.13,3.43-4.76
			c1.68-2.52,1.04-5.59-1.55-7.06c-0.48-0.27-1.41-0.05-2.01,0.23c-1.14,0.53-2.15,1.37-3.31,1.85c-0.65,0.27-1.5,0.05-2.26,0.05
			C640.34,246.93,640.23,246.66,640.12,246.39z"/>
		<path d="M595.84,232.86c-0.27-0.76-0.87-1.58-0.74-2.27c0.36-1.89,1.06-3.72,1.56-5.59c0.92-3.42,1.79-6.86,2.66-10.29
			c0.06-0.25-0.03-0.54-0.06-0.97c-0.77,0.47-1.36,0.99-2.04,1.18c-0.69,0.2-1.48,0.07-2.23,0.09c0.2-0.87,0.32-1.77,0.65-2.59
			c0.13-0.34,0.69-0.57,1.09-0.73c4.18-1.63,5.17-5.12,5.33-9.09c0.05-1.2-0.1-2.41,0.05-3.59c0.08-0.63,0.59-1.2,0.91-1.79
			c0.42,0.61,1.16,1.2,1.19,1.84c0.14,2.53,0.06,5.07,0.06,8.11c3.37-2.22,6.51-4.23,9.57-6.34c0.99-0.69,1.91-1.48,2.83-0.19
			c0.84,1.17,0.17,2.06-0.94,2.73c-2.74,1.66-5.35,3.58-8.21,4.99c-3.25,1.61-4.68,4.14-5.56,7.51c-1.07,4.09-2.74,8.02-4.07,12.05
			c-0.5,1.52-0.77,3.12-1.14,4.69C596.44,232.7,596.14,232.78,595.84,232.86z"/>
		<path d="M759.84,189.87c-5.96,9.1-8.68,22.79-5.9,30.06c4.75-3.39,7.42-8.44,10.73-12.94c0.22,0.11,0.43,0.22,0.65,0.33
			c-1.07,2.52-1.77,5.3-3.3,7.51c-1.93,2.77-4.4,5.21-6.89,7.53c-1.94,1.81-4.05,1.25-4.53-1.39c-0.66-3.72-1.04-7.6-0.73-11.34
			c0.32-3.82,1.4-7.62,2.57-11.3c0.85-2.66,2.26-5.18,3.72-7.59C756.87,189.58,758.29,188.92,759.84,189.87z"/>
		<path d="M753.52,297.38c-3.24,1.03-5.35,4.13-9.19,3.96c0.56-0.58,1.06-1.24,1.7-1.72c1.56-1.15,3.09-2.4,4.8-3.27
			c2.22-1.13,1.82-2.74,1.25-4.51c-0.25-0.77-0.56-1.53-0.79-2.17c-2.46,0.8-4.92,1.61-7.38,2.41c-0.16-0.35-0.33-0.7-0.49-1.05
			c2.38-1.36,4.77-2.72,7.31-4.17c-0.14-1.24-0.36-2.64-0.41-4.05c-0.01-0.47,0.44-0.95,0.68-1.43c0.44,0.3,1.13,0.52,1.27,0.93
			c0.37,1.11,0.51,2.3,0.73,3.4c2.74,0.13,4.72-3.2,7.99-1.23c-2.46,1.34-4.93,2.69-7.33,4c-0.02,0.3-0.07,0.45-0.03,0.58
			c1.49,4.95,1.49,4.95,6.16,2.54c0.53-0.27,1.03-0.66,1.59-0.83c0.67-0.21,1.38-0.25,2.08-0.36c-0.41,0.71-0.65,1.7-1.26,2.09
			c-2.01,1.27-4.15,2.32-6.43,3.56c1.03,2.53,1.76,5.07,3.04,7.29c1.52,2.63,0.44,4.38-1.29,6.13c-0.75,0.76-1.6,1.42-2.41,2.12
			c-0.21-0.17-0.41-0.33-0.62-0.5c0.56-0.85,1.29-1.64,1.65-2.58c0.42-1.1,0.98-2.47,0.66-3.46
			C755.97,302.46,754.68,300.02,753.52,297.38z"/>
		<path d="M694.54,244.52c-2.33,0-4.36,0-6.38,0c-0.09-0.27-0.18-0.53-0.27-0.8c0.79-0.41,1.54-0.97,2.38-1.21
			c1-0.28,2.16-0.06,3.08-0.46c0.72-0.31,1.59-1.17,1.68-1.88c0.31-2.35,0.29-4.75,0.41-7.13c0.07-1.49,0.08-1.49,2.1-1.68
			c0.23,3.1,0.46,6.2,0.74,9.87c3.31-1.45,6.49-2.83,9.82-4.28c0.92,1.47-0.37,2.44-1.85,3.12c-2.24,1.03-4.62,1.76-6.82,2.84
			c-0.87,0.43-2,1.44-2.06,2.26c-0.44,6.12-2.18,11.79-4.99,17.24c-1.26,2.45-1.9,5.21-2.85,7.82c-0.19,0.53-0.49,1.03-1.03,1.49
			c0.59-1.9-2.21-3.8,0.45-5.85c0.93-0.72,0.59-2.93,1.17-4.31c1.93-4.63,3.83-9.25,4.19-14.33
			C694.37,246.36,694.46,245.48,694.54,244.52z"/>
		<path d="M588.63,348.55c1.29-0.22,2.59-0.39,3.87-0.68c4.01-0.91,6.48-5.97,4.23-9.35c-0.82-1.23-2.9-2.12-4.48-2.27
			c-4.17-0.37-7.57,1.82-10.83,4.16c-0.62,0.45-1.39,0.69-2.57,1.27c1.02-4.3,1.87-7.89,2.71-11.47c-0.15-0.14-0.3-0.28-0.45-0.42
			c-0.86,0.66-1.66,1.41-2.59,1.95c-0.61,0.35-1.4,0.38-2.11,0.56c0.26-0.6,0.39-1.34,0.82-1.77c0.89-0.9,1.86-1.75,2.94-2.4
			c1.53-0.94,2.4-2.13,2.52-3.96c0.04-0.6,0.58-1.17,0.89-1.76c0.47,0.52,0.94,1.03,1.67,1.83c1.93-1.49,4.16-3.21,6.4-4.94
			c0.2,0.1,0.4,0.2,0.6,0.3c-0.19,0.65-0.21,1.46-0.62,1.92c-1.09,1.22-2.18,2.57-3.57,3.36c-3.42,1.95-4.56,5.12-5.25,8.64
			c-0.29,1.49-0.62,2.97-0.85,4.04c2.83-1.06,5.73-2.38,8.75-3.24c5.93-1.68,9.9,2.12,8.72,8.16c-0.87,4.45-5.04,7.57-9.5,7.06
			c-0.48-0.05-0.93-0.32-1.4-0.49C588.57,348.88,588.6,348.72,588.63,348.55z"/>
		<path d="M557.77,237.76c-0.98,0.38-1.94,0.82-2.94,1.13c-1.41,0.43-2.83,0.88-4.28,1.06c-0.48,0.06-1.07-0.69-1.6-1.07
			c0.39-0.46,0.69-1.14,1.19-1.34c2.9-1.16,5.85-2.18,8.76-3.31c1.31-0.51,2.54-1.21,3.84-1.74c0.84-0.34,1.73-0.66,2.62-0.73
			c0.48-0.04,1.26,0.35,1.44,0.76c0.16,0.35-0.21,1.12-0.57,1.48c-2.69,2.74-5.56,5.31-8.1,8.18c-1.81,2.04-3.04,4.52-2.92,7.44
			c0.07,1.79,0.97,2.88,2.75,2.8c2.98-0.14,5.95-0.49,8.96-0.75c0-0.23,0.08,0.12-0.01,0.18c-2.79,1.76-5.62,3.41-9.04,3.54
			c-3.48,0.13-6.35-3.52-5.95-6.98C552.4,243.99,555.16,241.11,557.77,237.76z"/>
		<path d="M641.7,286.01c0.14,0.11,0.2,0.2,0.25,0.2c7.25,0.18,7.8,5.18,5.85,11.79c-0.66,2.23-2.04,4.24-3.11,6.34
			c-1.16,2.27-2.85,2.33-5.07,1.48c-2.26-0.86-3.26-2.17-2.79-4.95c0.87,1,1.55,1.79,2.24,2.56c1.06,1.19,2.18,1.18,3.23,0.02
			c3.55-3.95,4.45-8.62,3.39-13.68c-0.12-0.58-1.42-1.38-2.07-1.3c-1.34,0.17-3.12-0.22-3.69,1.79c-0.55,1.91-1.13,3.83-1.91,5.66
			c-0.32,0.74-1.14,1.3-1.82,1.83c-0.12,0.09-0.98-0.38-0.99-0.62c-0.05-0.83,0-1.7,0.23-2.49c0.25-0.83,0.76-1.59,1.4-2.88
			c-2.75,1.44-4.53,3.82-4.54,5.85c-0.8-0.21-2.13-0.33-2.17-0.6c-0.11-0.87-0.01-2.04,0.52-2.66c1.67-1.96,3.46-3.86,5.43-5.52
			c1.46-1.24,2.49-2.54,2.67-4.46c0.04-0.44,0.05-1.01,0.31-1.28c0.58-0.6,1.31-1.06,1.98-1.57c0.22,0.71,0.52,1.41,0.62,2.13
			C641.78,284.45,641.7,285.27,641.7,286.01z"/>
		<path d="M541.75,335.18c3.19-1.36,6.34-2.71,9.53-4.08c0.79,1.61,0.64,2.38-0.84,2.88c-1.89,0.63-3.86,1.26-5.5,2.35
			c-1.03,0.69-1.69,2.15-2.15,3.39c-0.3,0.82,0.08,1.88,0.15,2.81c4.25,1.09,8.55,1.9,12.19,4.31c-0.1,0.34-0.19,0.68-0.29,1.02
			c-1.09-0.19-2.23-0.24-3.26-0.59c-2.04-0.69-4.01-1.63-6.05-2.32c-1.56-0.53-2.93-0.75-3.62,1.55c-0.27,0.91-2.01,1.9-3.08,1.89
			c-1.12,0-2.52-0.92-3.28-1.86c-0.95-1.16-0.01-2.75,1.62-3.16c0.94-0.23,1.9-0.36,3.02-0.57c-0.26-3.09,0.15-6.22-2.07-8.86
			c-0.3-0.35-0.06-1.53,0.33-1.96c0.27-0.29,1.57-0.18,1.83,0.17C540.97,333.15,541.36,334.34,541.75,335.18z"/>
		<path d="M711,208.94c-0.85,0.99-1.56,2.15-2.58,2.93c-2.96,2.28-6.15,3.9-10.12,3.29c-2.32-0.36-3.69-1.34-3.61-3.66
			c0.18-5.05-0.69-10.18,1.07-15.14c0.33-0.93-0.1-2.12,0.13-3.11c0.14-0.6,0.86-1.46,1.37-1.49c0.53-0.03,1.58,0.78,1.59,1.24
			c0.06,2.45-0.18,4.91-0.24,7.36c-0.08,3.37-0.19,6.74-0.11,10.1c0.06,2.53,1.28,3.35,3.64,2.33c2.32-1,4.47-2.39,6.69-3.61
			c0.5-0.28,0.98-0.59,1.47-0.88C710.53,208.51,710.77,208.72,711,208.94z"/>
		<path d="M648.11,218.88c1.44-3.16,3.08-5.96,3.95-8.99c0.56-1.96,0.2-4.28-0.19-6.36c-0.12-0.67-1.68-1.61-2.47-1.51
			c-1.65,0.21-3.35,0.8-4.8,1.64c-2.5,1.46-4.79,3.28-7.25,4.83c-0.55,0.35-1.41,0.21-2.13,0.29c0.17-0.73,0.08-1.76,0.54-2.14
			c3.93-3.24,8.11-6.17,13.21-7.15c4.26-0.82,8.05,3.48,6.89,7.87c-0.83,3.15-2.1,6.22-3.54,9.16
			C651.63,217.95,650.45,219.64,648.11,218.88z"/>
		<path d="M552.12,297.21c0.19,3.07-1.55,5.52-2.95,7.96c-1.22,2.13-1.65,3.38,0.05,5.82c2.48,3.56,4.7,5.87,9.44,3.22
			c0.03,0.33,0.07,0.66,0.1,0.99c-0.67,0.6-1.31,1.24-2.02,1.79c-0.27,0.21-0.72,0.18-1.08,0.28c-5.07,1.39-5.26,1.28-7.82-3.38
			c-0.46-0.84-1.21-1.51-1.83-2.26c-1.03,0.87-2.15,1.66-3.06,2.64c-0.9,0.96-1.44,2.32-2.45,3.11c-0.63,0.49-1.83,0.25-2.78,0.34
			c0.23-0.78,0.26-1.71,0.72-2.32c2.83-3.74,5.9-7.32,8.59-11.16c1.28-1.83,1.85-4.15,2.87-6.18c0.3-0.6,1.05-0.99,1.59-1.47
			C551.7,296.8,551.91,297,552.12,297.21z"/>
		<path d="M585,310.03c-0.6-1.17-1.25-1.84-1.19-2.45c0.4-4.14,0.95-8.27,1.43-12.4c0.11-0.99,1.03-2.14-0.57-2.88
			c-0.2-0.09-0.2-1.1,0.01-1.55c1.32-2.86,2.72-5.68,4.08-8.52c0.19-0.4,0.23-0.94,0.52-1.22c0.5-0.48,1.15-0.8,1.73-1.18
			c0.1,0.65,0.44,1.37,0.26,1.93c-0.54,1.73-1.28,3.4-1.95,5.09c0.16,0.13,0.32,0.27,0.48,0.4c1.96-1.28,3.9-2.6,5.9-3.83
			c1.2-0.74,2.47-1.39,3.78-1.92c0.39-0.16,1.01,0.23,1.53,0.36c-0.23,0.42-0.34,1.02-0.69,1.24c-3.2,2.01-6.43,3.97-9.66,5.93
			c-1.43,0.87-2.44,1.78-2.65,3.76c-0.52,5.1-1.42,10.17-2.2,15.24C585.75,308.47,585.49,308.86,585,310.03z"/>
		<path d="M568.71,274.09c0.49,3.29-0.61,3.96-4.25,2.63c-0.55,0.82-0.99,1.81-1.72,2.47c-0.65,0.59-1.68,1.18-2.45,1.08
			c-0.67-0.09-1.42-1.05-1.76-1.8c-0.65-1.41,0.48-4.15,1.83-4.93c2.45-1.41,2.45-1.41,1.98-4.54c-0.84,0.41-1.58,0.9-2.4,1.13
			c-0.55,0.16-1.21-0.05-1.82-0.1c0.16-0.54,0.29-1.09,0.49-1.61c0.07-0.19,0.29-0.38,0.49-0.45c2.72-0.96,2.73-2.82,1.8-5.1
			c-0.16-0.39,0.26-1.01,0.41-1.53c0.51,0.21,1.24,0.27,1.5,0.65c0.56,0.84,0.88,1.83,1.32,2.8c1.26-0.1,2.55-0.2,3.95-0.32
			c0.08,2.5-2.1,2.15-3.18,3.07C564.58,272.82,565.69,274.83,568.71,274.09z"/>
		<path d="M548.28,263.24c-0.5,3.26-1.15,6.28-1.38,9.33c-0.23,3.03-0.05,6.09-0.05,9.96c3.6-2.28,6.78-4.29,9.97-6.3
			c0.16,0.08,0.32,0.16,0.47,0.24c-0.99,1.39-1.76,3.05-3.03,4.12c-1.79,1.53-3.87,2.76-5.96,3.88c-2.55,1.37-4.29,0.46-4.63-2.3
			c-0.66-5.43-0.33-10.76,1.14-16.08C545.29,264.38,545.61,263.22,548.28,263.24z"/>
		<path d="M746.29,253.09c2.71-1.77,5.29-3.78,8.16-5.22c2.43-1.21,5.14-2.11,7.82-2.5c4.35-0.63,7.45,0.82,8.53,6.27
			c1.03,5.14-4.26,14.85-7.57,16.99c-0.15,0.1-0.42,0.01-1.12,0.01c1.23-2.15,2.34-4.09,3.44-6.04c1.78-3.16,3.23-6.38,2.74-10.2
			c-0.55-4.33-3.15-6.54-7.22-5.05c-4.15,1.52-7.97,3.92-11.95,5.9c-0.73,0.36-1.52,0.6-2.29,0.89
			C746.65,253.79,746.47,253.44,746.29,253.09z"/>
		<path d="M594.59,244.07c0.98,2.52,0.34,4.57,0.23,6.55c-0.22,3.94-0.69,7.87-0.81,11.82c-0.1,3.15,1.72,4.74,4.82,4.32
			c3.47-0.46,6.68-1.74,9.16-4.3c0.91-0.94,1.38-2.31,2.05-3.48c0.23,0.04,0.46,0.07,0.69,0.11c-0.12,0.95-0.03,2-0.41,2.83
			c-1.93,4.28-9.94,8.19-14.47,7.16c-1.81-0.41-4.27-3.04-4.12-5.38c0.38-6.09,1.17-12.16,1.83-18.24
			C593.61,245.15,593.98,244.88,594.59,244.07z"/>
		<path d="M811.53,336.73c-0.83,1.94-1.32,4.13-2.56,5.75c-1.8,2.35-4.05,4.39-6.28,6.37c-1.8,1.6-2.82,0.96-3.57-1.25
			c-1.81-5.25-0.31-10.37,0.33-15.52c0.07-0.53,1.17-0.94,1.8-1.4c0.37,0.69,1.07,1.39,1.04,2.07c-0.15,3.27-0.56,6.53-0.73,9.81
			c-0.06,1.23,0.31,2.47,0.5,3.86c4.01-2.43,5.99-6.58,8.78-9.98C811.07,336.54,811.3,336.63,811.53,336.73z"/>
		<path d="M809.86,294.03c1.87-0.96,3.69-2.03,5.61-2.86c2.81-1.21,5.68-2.26,8.54-3.35c2.1-0.81,3.26-0.31,3.49,1.89
			c0.18,1.72,0.06,3.58-0.43,5.23c-0.95,3.2-2.18,6.33-3.42,9.44c-0.49,1.22-1.23,2.37-2.02,3.43c-0.33,0.43-1.1,0.53-1.94,0.9
			c1.61-4.18,3.12-7.88,4.45-11.64c0.57-1.6,0.89-3.31,1.1-4.99c0.29-2.41-0.22-2.78-2.44-1.9c-3.24,1.28-6.45,2.67-9.68,3.96
			c-0.92,0.37-1.91,0.57-2.87,0.85C810.12,294.66,809.99,294.34,809.86,294.03z"/>
		<path d="M832.91,237.13c0.68,0.38,1.71,0.6,1.99,1.18c0.63,1.29,1.11,2.74,1.23,4.17c0.11,1.3,0.36,1.92,1.73,2.35
			c3.01,0.94,4.62,3.42,2.07,5.33c-0.68-0.95-1.2-2.09-2.07-2.81c-0.97-0.81-1.86-0.61-2.21,0.92c-0.38,1.65-0.88,3.29-1.6,4.82
			c-0.32,0.67-1.27,1.42-1.96,1.44c-0.69,0.02-1.63-0.67-2.07-1.32c-1.17-1.73-0.49-5.04,1.17-6.57c3.29-3.05,3.5-4.06,1.63-8.14
			c-0.11-0.25-0.21-0.51-0.31-0.77C832.64,237.52,832.78,237.32,832.91,237.13z M833.51,248.21c-0.31-0.09-0.63-0.19-0.94-0.28
			c-0.4,1.39-0.8,2.78-1.2,4.18c0.29,0.09,0.58,0.18,0.87,0.27C832.66,250.98,833.08,249.6,833.51,248.21z"/>
		<path d="M709.63,446.16c-1.3,1.46-2.66,2.88-3.89,4.4c-2.93,3.62-4.95,7.65-5.52,12.34c-0.31,2.58-0.75,5.15-1.11,7.56
			c-1.32-0.8-1.43-1.09-0.76-6.52c0.31-2.46,0.93-4.88,1.41-7.32c-0.18-0.13-0.35-0.26-0.53-0.39c-0.84,1.23-1.86,2.37-2.46,3.7
			c-0.64,1.43-0.87,3.05-1.56,4.5c-0.31-3.03,0.44-5.68,2.38-8.08c1.69-2.09,2.56-4.78,5.12-6.25c2.25-1.3,4.3-2.93,6.44-4.41
			C709.32,445.84,709.47,446,709.63,446.16z"/>
		<path d="M551.43,440.61c2.68,2.42,3.74,2.43,5.97,0.36c1.42-1.32,1.4-2.97,0.62-4.27c-0.64-1.07-2.06-1.77-3.27-2.33
			c-0.28-0.13-1.41,0.9-1.66,1.58c-0.37,0.99-0.29,2.14-0.44,3.55c-1.6-1.17-1.35-2.5-1.19-3.79c0.47-3.79,0.9-4.3,3.49-4.22
			c2.28,0.07,5.15,2.69,5.37,4.91c0.47,4.57-0.79,7.22-4.41,8.46c-1.03,0.36-2.71,0.26-3.47-0.38c-0.94-0.78-1.24-2.34-1.82-3.56
			C550.89,440.82,551.16,440.72,551.43,440.61z"/>
		<path d="M711.54,476.41c-0.22,2.15-0.31,4.32-0.73,6.43c-0.13,0.64-1.16,1.53-1.8,1.54c-0.84,0.02-2.37-0.6-2.44-1.11
			c-0.42-2.97-0.74-6-0.49-8.97c0.06-0.7,2.39-1.41,3.75-1.65c0.38-0.07,1.11,1.53,1.56,2.43c0.18,0.36,0.03,0.88,0.03,1.33
			C711.45,476.41,711.49,476.41,711.54,476.41z"/>
		<path d="M820.39,327.24c1.32-0.4,2.09-0.11,2.75,1.47c1.34,3.2,2.19,6.43,2.07,9.9c-0.02,0.45,0.07,0.97-0.13,1.33
			c-0.53,0.96-1.2,1.84-1.81,2.76c-0.21-0.86-0.47-1.71-0.63-2.58C821.89,335.91,821.16,331.69,820.39,327.24z"/>
		<path d="M610.28,301.27c-0.63,0.68-1.18,1.48-1.92,2.02c-3.95,2.91-8.45,3.58-13.2,3.01c-0.51-0.06-1.26-0.11-1.46-0.43
			c-0.39-0.61-0.47-1.43-0.67-2.15c0.57-0.14,1.26-0.57,1.69-0.39c3.36,1.43,6.6,0.55,9.81-0.42c1.83-0.55,3.55-1.45,5.32-2.19
			C609.99,300.9,610.13,301.09,610.28,301.27z"/>
		<path d="M710.99,288.11c0,2.34-1.83,4.98-3.4,4.89c-1.97-0.11-4.23-3.32-4.21-5.98c0.02-2.07,1.45-2.94,4.87-2.96
			C709.54,284.06,710.99,286.2,710.99,288.11z M707.87,291.37c0.84-1.22,1.79-2.04,1.64-2.47c-0.4-1.13-1.29-2.09-1.98-3.12
			c-0.59,0.87-1.61,1.73-1.64,2.62C705.86,289.19,706.92,290.02,707.87,291.37z"/>
		<path d="M713.71,450.72c-0.22,0.72-0.4,1.3-0.63,2.09c0.94-0.59,1.65-1.04,2.37-1.49c0.12,0.16,0.24,0.31,0.36,0.47
			c-1,1.42-2.04,2.82-2.97,4.28c-1.14,1.78-2.55,3.42-2.32,5.82c0.05,0.53-0.9,1.16-1.57,1.59
			C708.73,454.37,710.19,450.54,713.71,450.72z"/>
		<path d="M620.52,210.1c-0.77,0.34-1.37,0.56-1.93,0.87c-2.82,1.58-5.75,3.01-8.42,4.82c-2.37,1.61-3.59,1.98-5.54,0.5
			c0.7-0.59,1.29-1.27,2.02-1.66c3.49-1.86,7.02-3.65,10.54-5.46C618.45,208.52,619.56,208.43,620.52,210.1z"/>
		<path d="M814.03,266.43c1.57-0.39,2.46-0.19,2.8,1.27c0.82,3.48,1.76,6.93,2.51,10.42c0.11,0.52-0.57,1.2-0.89,1.81
			c-0.55-0.29-1.4-0.46-1.58-0.9c-0.51-1.23-0.79-2.57-1.07-3.88C815.19,272.32,814.64,269.47,814.03,266.43z"/>
		<path d="M765.98,198.44c1.62-0.62,3.2-1.39,4.87-1.82c3.09-0.81,6.22-1.45,9.34-2.1c0.7-0.15,1.46-0.16,2.18-0.08
			c0.25,0.03,0.6,0.49,0.63,0.79c0.03,0.26-0.27,0.76-0.51,0.81c-5.13,1.21-10.26,2.39-15.4,3.52c-0.29,0.06-0.65-0.24-0.98-0.38
			C766.06,198.94,766.02,198.69,765.98,198.44z"/>
		<path d="M658.17,296.04c-4.78-3.53-5.64-8.48-6.47-13.66C653.59,282.83,658.84,293.73,658.17,296.04z"/>
		<path d="M617.86,228.13c-1.95,0.46-3.88,1.18-5.85,1.33c-2.14,0.16-4.33-0.16-6.48-0.41c-0.68-0.08-1.4-0.52-1.9-1
			c-0.15-0.14,0.41-1.47,0.64-1.47c4.17,0.02,8.35,0.14,12.52,0.29c0.35,0.01,0.69,0.42,1.03,0.65
			C617.83,227.72,617.85,227.93,617.86,228.13z"/>
		<path d="M641.7,263.07c2.97,4.77,7.93,5.27,12.98,6.19c-0.52,0.46-0.77,0.87-1.12,0.98c-3.81,1.19-10.39-1.15-12.54-4.56
			c-0.35-0.55-0.05-1.51-0.05-2.28C641.21,263.29,641.46,263.18,641.7,263.07z"/>
		<path d="M760.79,324.59c-1.39,1.47-2.68,1.53-3.88,0.61c-2.18-1.67-4.3-3.43-6.34-5.26c-0.36-0.32-0.28-1.2-0.27-1.81
			c0-0.1,0.88-0.39,1.11-0.24C754.51,320.05,757.57,322.27,760.79,324.59z"/>
		<path d="M780.97,211.59c-0.09,2.53-2.2,3.88-5.22,3.87c-5.02-0.02-7.85-1.71-7.97-5.41C771.89,213.45,776.08,215.24,780.97,211.59
			z"/>
		<path d="M711.54,267.44c-2.56,2.17-8.28,2.78-10.48,1.16c-0.4-0.3-0.56-1.16-0.53-1.74c0.02-0.33,0.67-0.91,1.01-0.89
			c3,0.17,5.99,0.42,8.98,0.71C710.83,266.71,711.1,267.1,711.54,267.44z"/>
		<path d="M698.68,256.71c-0.66-2.35,0.7-2.99,1.82-3.58c1.96-1.03,4.01-1.92,6.04-2.81c0.53-0.23,1.2-0.4,1.74-0.28
			c0.56,0.12,1.04,0.62,1.55,0.95c-0.36,0.42-0.64,1.03-1.09,1.22c-1.98,0.84-4.04,1.5-6.02,2.35
			C701.42,255.13,700.2,255.89,698.68,256.71z"/>
		<path d="M661.35,278.37c0.75,2.01,1.42,3.81,2.1,5.62c-0.25,0.16-0.5,0.32-0.75,0.48c-0.65-0.38-1.29-0.75-1.94-1.13
			c-0.89,0.8-1.78,1.59-2.67,2.39c-0.23-0.27-0.69-0.59-0.64-0.8c0.4-1.76,0.73-3.56,1.43-5.2
			C659.16,279.1,660.36,278.88,661.35,278.37z"/>
		<path d="M841.99,182.86c0.72,0.44,1.76,0.71,2.09,1.35c1.47,2.87,2.74,5.84,4.09,8.78c-0.23,0.23-0.47,0.47-0.7,0.7
			c-0.67-0.4-1.66-0.65-1.95-1.24c-1.43-2.93-2.67-5.95-3.98-8.94C841.7,183.3,841.85,183.08,841.99,182.86z"/>
		<path d="M657.28,314.37c-3.09-0.41-4.63-2.84-6.24-4.97c-0.93-1.22,0.36-1.71,1.37-1.73
			C654.19,307.65,657.66,312.39,657.28,314.37z"/>
		<path d="M574.6,235.1c-1.58-0.38-2.41-1.18-2.17-2.65c0.33-2.03,0.8-4.05,1.29-6.05c0.08-0.32,0.58-0.55,0.88-0.82
			c0.3,0.43,0.89,0.88,0.86,1.28C575.26,229.58,574.92,232.27,574.6,235.1z"/>
		<path d="M594.99,294.07c2.42-3.05,5.8-2.97,8.53-4.35C604.21,292.31,599.75,294.61,594.99,294.07z"/>
		<path d="M570.44,235.62c-2.2-1.76-3.25-6.3-2.26-7.82c0.2-0.31,0.92-0.69,1.02-0.6c0.49,0.41,1.15,0.96,1.19,1.5
			C570.51,230.82,570.44,232.96,570.44,235.62z"/>
		<path d="M572.17,261.17c-2-1.67-1.97-5.15,0.09-8.13C574.15,254.56,574.11,258.25,572.17,261.17z"/>
		<path d="M835.87,238.42c2.21-1.14,3.9-2.13,5.7-2.83c0.44-0.17,1.25,0.58,2.04,0.99C840.73,239.01,838.56,239.61,835.87,238.42z"
			/>
		<path d="M550.05,354.77c0.02-1.3,2.53-3.61,3.68-3.24c0.34,0.11,0.72,1.01,0.62,1.44C553.97,354.62,552.24,355.29,550.05,354.77z"
			/>
		<path d="M569.68,260.81c-0.53,0.61-0.88,1.01-1.23,1.41c-0.79-1.15-1.65-2.26-2.3-3.48c-0.12-0.22,0.65-0.9,1.01-1.37
			C567.96,258.46,568.77,259.56,569.68,260.81z"/>
		<path d="M848.89,184.72c-2.06-0.29-2.48-1.15-2.14-4.37C848.93,180.71,849.29,181.44,848.89,184.72z"/>
		<path class="st0" d="M690.31,544.66c1.74,2.63,3.06,4.62,4.75,7.17c-3.77,0.01-6.47,2.78-9.86,1.21c-0.5-0.23-1.09-1.07-1.04-1.56
			c0.4-3.55,0.56-7.22,1.63-10.58c0.6-1.9,2.74-3.34,4.25-4.92c0.93-0.96,1.99-1.8,2.99-2.69c-0.16-0.23-0.33-0.46-0.49-0.68
			c-0.79,0.42-1.54,0.94-2.37,1.24c-1.41,0.51-2.88,0.88-4.32,1.31c-0.26,0.08-0.56,0.09-0.77,0.23c-2.51,1.77-4.96,3.63-7.53,5.32
			c-1.83,1.21-3.81,2.19-5.72,3.27c-0.26-0.07-0.52-0.13-0.78-0.2c0.17-3.74,0.12-7.5,0.61-11.2c0.17-1.28,1.6-2.45,2.59-3.55
			c1.67-1.85,3.48-3.58,5.17-5.41c0.97-1.05,1.83-0.99,2.51,0.16c2.48,4.21,6.64,4.68,10.76,4.36c1.76-0.14,3.45-1.82,5.06-2.96
			c0.76-0.53,1.26-1.43,2.01-2.32c3.19,1.37,6.32,2.72,9.74,4.19c-2.53,4.9-4.91,9.51-7.38,14.29c-1.01-0.03-2.17,0.21-1.89-1.67
			c0.07-0.45-0.42-0.98-0.65-1.47c-0.51,0.26-1.2,0.39-1.48,0.81c-0.48,0.71-0.76,1.57-1.02,2.4c-0.33,1.06-0.5,2.18-0.84,3.24
			c-0.85,2.58-0.84,2.53-3.13,1C692.48,545.22,691.64,545.11,690.31,544.66z"/>
		<path class="st0" d="M660.91,583.36c2.58-3.45,4.72-6.57,7.13-9.48c4.45-5.38,9.05-10.64,13.63-15.91
			c0.66-0.76,1.48-1.66,2.38-1.86c3.59-0.84,7.23-1.43,10.88-2.12c2.53,7.34-0.6,20.69-6.12,25.09c0.04-0.75,0.07-1.33,0.1-1.92
			c-1.81-0.75-2.61-0.03-3.24,1.59c-0.29,0.75-1.35,1.24-2.13,1.77c-0.47,0.32-1.43,0.38-1.5,0.7c-0.37,1.62-1.65,1.48-2.74,1.55
			c-3.72,0.24-7.44,0.39-11.17,0.55c-0.35,0.02-0.82-0.03-1.04-0.25c-1.14-1.1-2.14-0.94-3.38-0.07
			C663.11,583.41,662.12,583.23,660.91,583.36z"/>
		<path class="st0" d="M679.13,610.62c0.31-2.84,0.43-5.57,0.99-8.21c0.18-0.84,1.44-1.74,2.39-2.04c0.67-0.22,1.99,0.26,2.44,0.86
			c1.76,2.32,4.15,4.4,3.86,7.76C682.2,611.55,682.2,611.55,679.13,610.62z"/>
		<path class="st0" d="M668.1,604.66c-3.47,4.1-7.83,6.68-12.94,7.97c-1.93,0.48-4.13-1.09-4.42-2.91
			c-0.25-1.55,0.94-2.67,3.18-2.93c2.52-0.28,5.05-0.51,7.57-0.76c0.29-0.03,0.75,0,0.83-0.16
			C663.73,603.11,666.12,604.89,668.1,604.66z"/>
		<path class="st0" d="M702.74,491.69c2.19,0.8,4,1.46,5.8,2.12c-0.61,1.64-3.35,3.73-7.76,5.6
			C701.52,496.51,702.17,493.95,702.74,491.69z"/>
		<path class="st0" d="M669.49,477.68c2.15-3.83,4.29-7.66,6.44-11.48C676.02,471.26,672.92,474.56,669.49,477.68z"/>
		<path class="st0" d="M684.19,597.97c-1.36,0.18-1.93,0.25-3.02,0.39c0.23-1.18,0.42-2.14,0.61-3.11
			C682.47,596.03,683.15,596.8,684.19,597.97z"/>
		<path class="st0" d="M685.38,451.89c-0.76,1.73-1.27,2.89-1.86,4.23C682.19,453.71,682.39,453.16,685.38,451.89z"/>
		<path class="st0" d="M819.56,507.78c1.49,3.15-0.04,5.92-0.7,8.87c-1.2,5.35-3.81,10.03-6.53,14.61
			c-2.11,3.56-5.48,5.36-9.84,5.09c-2.3-0.15-4.65-0.12-6.94,0.12c-7.27,0.78-17.31-6.68-17.88-14.29c-0.23-3.09,0.1-6.29,0.63-9.36
			c0.66-3.81,1.75-7.56,2.73-11.31c0.63-2.41-0.02-3.68-2.06-3.6c-0.28,0.01-0.63,0.04-0.81,0.21c-2.38,2.19-4.99,4.2-7.04,6.67
			c-1.92,2.32-3.34,5.08-4.8,7.75c-2.65,4.84-5.11,9.79-7.76,14.64c-0.99,1.81-2.07,3.64-3.45,5.14c-4.69,5.1-7.14,3.5-10.31-1.67
			c-2.32-3.77-1.13-7.56,0.32-11.37c4.17-10.91,11.04-20.04,18.32-28.99c2.61-3.2,4.4-7.07,6.61-10.6c0.5-0.8,1.09-1.69,1.87-2.15
			c3.94-2.29,7.76-4.99,12-6.53c10.42-3.8,21.03-5.37,31.88-1.03c5.14,2.06,10.33,3.9,14.7,7.41c3.71,2.99,7.46,5.94,10.98,9.14
			c2.22,2.02,2.77,4.98,2.68,7.85c-0.18,5.6-0.19,11.26-1.09,16.76c-0.86,5.26-2.66,10.37-4.24,15.49c-0.71,2.29-3.35,3.64-6,3.26
			c-4.68-0.67-8.41-3.02-11.1-6.91c-1.37-1.99-0.94-4.06-0.09-6.2c1.08-2.69,1.49-5.5,0.05-8.23c-0.29-0.55-0.97-0.9-1.46-1.34
			C820.01,507.41,819.78,507.6,819.56,507.78z M791.14,514.31c-0.48,0.46-0.7,0.64-0.88,0.85c-1.68,1.96,0.11,7.2,1.9,8.51
			c3.12,2.29,6.61,2.09,9.12-0.4c1.38-1.37,2.41-3.04,1.64-4.75c-0.5-1.11-2.15-2.18-3.42-2.38c-2.41-0.37-4.92-0.11-7.55-0.11
			C791.83,515.78,791.56,515.2,791.14,514.31z M789.4,500.08c0,1.67,0.02,3.23-0.01,4.79c-0.03,1.32,0.53,2.43,1.85,2.22
			c0.84-0.14,1.87-1.11,2.19-1.95c0.79-2.04,1.24-4.21,1.8-6.34c0.32-1.19,0.69-2.44-1-2.91c-1.52-0.42-2.08,0.33-2.44,1.78
			C791.5,498.87,791.42,500.72,789.4,500.08z M805.12,504.55c0.4,0.69,0.91,1.59,1.43,2.49c0.65-0.69,1.61-1.28,1.91-2.1
			c0.92-2.5,1.69-5.08,2.3-7.67c0.15-0.65-0.53-1.49-0.84-2.25c-0.78,0.34-2.04,0.5-2.25,1.05
			C806.71,498.69,806.04,501.42,805.12,504.55z M789.29,491.05c0.09,0.18,0.19,0.36,0.28,0.55c0.91-0.3,1.89-0.47,2.72-0.93
			c1.76-0.96,3.46-2.04,5.13-3.15c0.42-0.28,0.64-0.85,0.95-1.29c-0.59-0.06-1.31-0.38-1.74-0.15c-2.22,1.17-4.38,2.46-6.52,3.78
			C789.73,490.1,789.56,490.65,789.29,491.05z M811.98,487.32c-0.19,0.22-0.38,0.44-0.57,0.66c1.63,1.93,3.25,3.87,4.92,5.77
			c0.16,0.18,0.66,0.06,1,0.08c0-0.4,0.18-0.92-0.01-1.19c-1.08-1.48-2.18-2.96-3.41-4.32
			C813.46,487.83,812.64,487.65,811.98,487.32z"/>
		<path class="st0" d="M799.71,566.14c-2.05-0.37-3.98,0.67-6.3,1.27c2.2-3.69,2.15-7.51,2.18-11.38c0.01-1.45,1.06-2.88,1.61-4.34
			c1.17-3.12,0.57-4.65-2.38-6.14c-0.32-0.16-0.81-0.32-0.88-0.58c-0.53-1.82-0.96-3.67-1.54-5.94c1.14,0.38,1.88,0.65,2.63,0.87
			c2.68,0.76,5.24,0.54,7.9-0.39c1.69-0.6,3.62-0.74,5.44-0.73c4.03,0.01,8.07,0.23,12.1,0.38c0.67,0.03,1.43-0.05,1.98,0.24
			c4.09,2.09,8.81,1.43,12.97,2.96c2.79,1.02,4.1,0.01,5.24-2.3c0.32-0.65,1.33-0.93,1.88-1.52c1.36-1.44,2.81-2.62,4.88-1.61
			c0.92,0.45,0.59,4.31-0.53,5.89c-1.08,1.51-2.29,2.93-3.48,4.36c-1.86,2.25-4.41,2.89-7.18,2.89c-2.85,0-3.05,0.36-3.22,3.1
			c-0.42,6.6-1.6,13.02-5.4,18.66c-2.15,3.2-3.09,3.12-5.9-0.51c1.05-1.19,2.11-2.38,3.17-3.57c-0.1-0.12-0.2-0.24-0.3-0.36
			c-1.31,0.76-2.62,1.51-4.38,2.53c-0.69-2.17-1.38-4.09-1.87-6.05c-0.13-0.53,0.23-1.31,0.58-1.81c1.88-2.66,1.14-5.34-1.88-6.53
			c-0.97-0.38-1.95-0.75-2.92-1.12c-2.65-0.99-5.25-0.1-6.33,2.55c-1.42,3.52-2.54,7.17-3.76,10.77c-0.8,2.35-1.52,5.04-4.3,5.49
			c-2.17,0.35-4.54-0.04-6.73-0.5c-1.13-0.24-0.71-2.42,0.62-3.01c2.07-0.94,4.17-1.81,6.25-2.72
			C799.8,566.69,799.76,566.42,799.71,566.14z"/>
		<path class="st0" d="M793.84,556.88c-0.63,2.85-1.15,5.32-1.73,7.77c-0.16,0.68-0.41,1.39-0.8,1.96
			c-0.38,0.56-0.92,1.23-1.52,1.41c-2.13,0.62-6.72-1.12-7.73-3.02c-0.32-0.61-0.15-2.15,0.28-2.38
			C785.9,560.68,789.58,558.96,793.84,556.88z"/>
		<path class="st0" d="M815.98,564.55c0.92,2.14,1.73,4.01,2.67,6.2c-2.06,0.57-3.94,1.2-5.87,1.57c-0.77,0.15-2.3-0.17-2.34-0.44
			c-0.14-0.92-0.06-2.17,0.49-2.84c1.02-1.24,2.43-2.14,3.67-3.2C814.98,565.51,815.34,565.15,815.98,564.55z"/>
		<path class="st0" d="M786.58,536.81c0.43,3.39-0.28,4.59-2.32,4.23C784.97,539.74,785.63,538.54,786.58,536.81z"/>
		<path class="st0" d="M522.31,511.05c-0.58,0.62-1.05,1.42-1.75,1.84c-5.18,3.06-10.46,5.95-15.58,9.1
			c-2.56,1.58-4.78,3.7-7.29,5.39c-4.36,2.95-8.77,5.84-13.26,8.59c-3.71,2.27-7.61,4.21-11.34,6.44c-4,2.39-7.86,5.01-11.85,7.42
			c-1.08,0.65-2.4,0.91-3.72,1.38c-0.66,0.48-1.4,1.23-2.3,1.62c-2.78,1.23-5.6,2.35-8.43,3.46c-2.49,0.98-2.97,0.59-3.1-2.53
			c0.45,0.26,0.8,0.47,1.17,0.65c0.31,0.16,0.65,0.28,1.18,0.06c-1.69-1.1-3.38-2.2-4.72-3.08c4.55-3.02,9.63-6.25,14.55-9.71
			c3.35-2.35,6.36-5.18,9.71-7.53c4.13-2.9,8.42-5.6,12.71-8.27c5.95-3.7,11.9-7.42,17.99-10.88c5.93-3.37,12.05-6.41,18.09-9.59
			c4.8-2.53,9.59-5.05,14.4-7.55c0.3-0.16,0.68-0.15,1.24-0.26c0.51,3.46,0.21,6.69-1.04,9.76c-0.75,1.86-2.39,2.81-4.45,2.9
			c-0.81,0.04-1.63,0.07-2.44,0.11C522.16,510.61,522.24,510.83,522.31,511.05z"/>
		<path class="st0" d="M510.32,524.07c-0.27-0.76-0.54-1.53-0.93-2.63c4.88-2.64,9.78-5.31,14.74-7.88
			c0.33-0.17,1.46,0.38,1.58,0.79c0.64,2.12,1.19,4.29,1.55,6.48c0.73,4.4,1.26,8.84,2,13.24c0.24,1.42,0.82,2.8,1.37,4.16
			c0.62,1.54-0.58,2.13-1.49,2.52c-0.42,0.18-1.5-0.54-1.92-1.11c-2.43-3.28-4.37-7.04-7.24-9.86c-2.61-2.57-6.18-4.15-9.33-6.17
			C510.54,523.75,510.43,523.91,510.32,524.07z"/>
		<path class="st0" d="M449.17,577.19c-1.52-6.15-2.94-11.88-4.35-17.56c4.28-1.81,8.27-3.5,12.53-5.31
			c0.37,2.36,0.6,4.63,1.09,6.84c0.64,2.9,1.45,5.76,2.22,8.63c0.43,1.6,0.09,2.58-1.67,3.23
			C455.81,574.19,452.74,575.66,449.17,577.19z"/>
		<path class="st0" d="M556.65,216.82c-1.29-1.74-2.76-3.38-3.83-5.25c-1.73-3.03-1.85-6.47-1.42-9.81c0.54-4.2,2.25-5.61,6.67-6.2
			c0.27,6.97,0.97,13.93-0.6,20.83C557.2,216.53,556.92,216.68,556.65,216.82z"/>
		<path class="st0" d="M746.31,374.15c-0.36,1.78-0.48,2.95-0.85,4.02c-0.27,0.77-0.89,1.42-1.35,2.13
			c-0.78-0.64-1.9-1.13-2.24-1.95c-0.26-0.63,0.24-1.92,0.82-2.46C743.45,375.17,744.63,374.91,746.31,374.15z"/>
		<path class="st0" d="M833.51,248.21c-0.42,1.39-0.85,2.77-1.27,4.16c-0.29-0.09-0.58-0.18-0.87-0.27c0.4-1.39,0.8-2.78,1.2-4.18
			C832.88,248.02,833.19,248.11,833.51,248.21z"/>
		<path class="st0" d="M707.87,291.37c-0.95-1.34-2.02-2.18-1.99-2.97c0.03-0.89,1.05-1.75,1.64-2.62c0.69,1.03,1.58,1.99,1.98,3.12
			C709.67,289.32,708.72,290.15,707.87,291.37z"/>
		<path d="M791.14,514.31c0.42,0.89,0.69,1.47,0.81,1.72c2.63,0,5.14-0.27,7.55,0.11c1.27,0.2,2.91,1.26,3.42,2.38
			c0.77,1.71-0.26,3.38-1.64,4.75c-2.51,2.49-6.01,2.69-9.12,0.4c-1.79-1.31-3.58-6.55-1.9-8.51
			C790.44,514.95,790.66,514.77,791.14,514.31z M792.29,517.76c0.31,1.06,0.48,2.01,0.86,2.88c1.24,2.84,3.26,3.51,5.7,1.66
			c0.89-0.67,1.23-2.07,1.82-3.13c-0.88-0.37-1.74-0.95-2.66-1.07C796.26,517.85,794.47,517.87,792.29,517.76z"/>
		<path d="M789.4,500.08c2.02,0.64,2.1-1.21,2.4-2.42c0.36-1.44,0.92-2.2,2.44-1.78c1.69,0.47,1.32,1.72,1,2.91
			c-0.57,2.13-1.01,4.3-1.8,6.34c-0.33,0.84-1.36,1.81-2.19,1.95c-1.32,0.22-1.88-0.9-1.85-2.22
			C789.43,503.31,789.4,501.75,789.4,500.08z"/>
		<path d="M805.12,504.55c0.91-3.14,1.59-5.86,2.56-8.48c0.2-0.55,1.47-0.71,2.25-1.05c0.3,0.75,0.99,1.6,0.84,2.25
			c-0.61,2.6-1.38,5.17-2.3,7.67c-0.3,0.82-1.25,1.41-1.91,2.1C806.04,506.15,805.52,505.24,805.12,504.55z"/>
		<path d="M789.29,491.05c0.27-0.4,0.44-0.95,0.82-1.18c2.14-1.32,4.3-2.61,6.52-3.78c0.43-0.23,1.15,0.09,1.74,0.15
			c-0.31,0.44-0.53,1.01-0.95,1.29c-1.67,1.11-3.38,2.18-5.13,3.15c-0.83,0.45-1.81,0.63-2.72,0.93
			C789.48,491.42,789.38,491.23,789.29,491.05z"/>
		<path d="M811.98,487.32c0.65,0.33,1.48,0.51,1.93,1.01c1.23,1.36,2.33,2.83,3.41,4.32c0.19,0.26,0.02,0.78,0.01,1.19
			c-0.34-0.02-0.84,0.1-1-0.08c-1.67-1.89-3.29-3.84-4.92-5.77C811.61,487.77,811.8,487.54,811.98,487.32z"/>
		<path class="st0" d="M792.29,517.76c2.18,0.11,3.97,0.1,5.72,0.33c0.92,0.13,1.77,0.7,2.66,1.07c-0.59,1.07-0.93,2.46-1.82,3.13
			c-2.44,1.85-4.45,1.18-5.7-1.66C792.77,519.77,792.6,518.82,792.29,517.76z"/>
	</g>
</g>
<g id="mask">
	<path class="st1" d="M425,492c38.13-4.01,90.28-4.52,148,12c63.92,18.3,88.17,44.18,155,66c36.23,11.83,86.85,23.08,152,22"/>
	<path class="st2" d="M838,169c-4.58,35.8-8.41,64.71-11,84c-6.52,48.6-8.78,63.42-10,87c-1.59,30.76-0.35,56.09,1,73"/>
	<path class="st3" d="M753,172c0.4,20.48,0.38,46.63-1,77c-0.33,7.24-1.16,24.06-6,81c-1.82,21.48-4.15,47.82-7,78"/>
	<path class="st4" d="M695,176c-0.24,28.67-0.64,52.85-1,71c-0.85,42.84-1.31,64.81-3,92c-1.76,28.25-4.12,51.63-6,68"/>
	<path class="st5" d="M654,181c-3.43,30.52-5.84,56.24-7.5,75.5c-2.66,30.83-4.18,48.78-5,73c-0.91,26.98-0.53,49.37,0,65"/>
	<path class="st6" d="M605,179c-1.59,24.97-3.36,46.88-5,65c-1.29,14.24-3.36,37.03-7,67c-2.5,20.58-4.96,38.23-7,52"/>
	<path class="st6" d="M562,184c-0.26,12.96-1.1,33.21-4,58c-2.76,23.58-5.34,33.81-8,56c-1.81,15.09-3.84,37.33-4,65"/>
</g>
</svg>
