<?xml version="1.0" encoding="utf-8"?>
<!-- Generator: Adobe Illustrator 26.3.1, SVG Export Plug-In . SVG Version: 6.00 Build 0)  -->
<svg version="1.1" xmlns="http://www.w3.org/2000/svg" xmlns:xlink="http://www.w3.org/1999/xlink" x="0px" y="0px"
	 viewBox="0 0 1366 768" style="enable-background:new 0 0 1366 768;" xml:space="preserve">
<style type="text/css">
	.vol2_2_st0{fill:#ffffff;}
	.vol2_2_st1{fill:none;stroke:#ffffff;stroke-width:274.9606;stroke-miterlimit:10;}
	.vol2_2_st2{fill:none;stroke:#ffffff;stroke-width:68.0315;stroke-miterlimit:10;}
	.vol2_2_st3{fill:none;stroke:#ffffff;stroke-width:53.8583;stroke-miterlimit:10;}
	.vol2_2_st4{fill:none;stroke:#ffffff;stroke-width:65.1969;stroke-miterlimit:10;}
</style>
<g id="base">
	<g>
		<path class="vol2_2_st0" d="M893.55,703.8c-149.95,0-299.72,0-449.55,0c0-180.57,0-361.14,0-541.8c149.81,0,299.68,0,449.55,0
			C893.55,342.53,893.55,523.14,893.55,703.8z M578.76,412.29c-0.26-0.47-0.52-0.94-0.79-1.45c0.19-0.14,0.56-0.4,1.34-0.95
			c-1.95,0.25-3.35,0.43-4.76,0.61c0.02,0.15,0.04,0.31,0.06,0.46c0.54,0.09,1.08,0.18,2.23,0.36c-0.99,0.58-1.49,0.87-1.48,0.87
			c-0.43,2.31-0.79,4.24-1.16,6.17c0.64-0.3,0.8-0.81,1.06-1.25c1.04-1.73,0.66-4.51,3.56-4.9c-0.93,1.99-2.1,3.91-2.73,5.99
			c-1.94,6.34-2.1,12.76,0.27,19.04c0.65,1.73,1.69,3.53,3.53,4.15c-0.99-2.18-2.47-4.22-2.79-6.43c-0.57-3.94-1.03-8.07-0.47-11.97
			c0.76-5.28,2.5-10.42,7.77-13.3c0.41-0.23,0.47-1.08,0.7-1.64c1.02,0.07,2.03,0.15,3.05,0.22c-0.67,0.63-1.4,1.2-2,1.9
			c-2.98,3.45-4.21,7.68-4.62,12.04c-0.38,3.98-0.2,8.02-0.03,12.03c0.08,1.89,0.6,3.79,1.19,5.61c0.45,1.4,1.52,1.93,2.51,1.26
			c-0.72-2.13-1.37-4.04-2.02-5.95c0.22-0.11,0.44-0.21,0.66-0.32c2.3,2.63,4.59,5.27,7.27,8.34c-2.55-7.75-3.09-14.86-1.05-22.07
			c0.27,3.79,0.15,7.61,0.51,11.38c0.37,3.81,4.13,9.11,6.51,9.66c-2.71-4.68-5.54-9.26-4.25-15.02c0.82,3.4,1.35,6.9,4.75,9.21
			c-0.82-2.02-2.01-3.73-2.15-5.52c-0.47-6.03,0.46-11.96,2.11-17.77c0.35-1.23,0.8-2.44,1.21-3.66c-3.57,3.85-3.92,9-5.76,14.06
			c-1.03-3.39,1.93-12.58,4.37-15.44c-0.91-0.04-2.11-0.06-2.45,0.48c-1.65,2.53-3.08,5.21-4.52,7.87
			c-0.12,0.22,0.25,0.71,0.18,0.54c-2.59,2.88-3.29,6.17-3.57,9.45c-0.29,3.4-0.06,6.84-0.06,10.51c-5.32-5.86-2.28-12.2-1.32-18.53
			c-2.31,0.66-2.1-0.66-1.55-2.05c0.41-1.04,1.07-1.97,1.49-3c0.8-1.96,1.5-3.98,4.51-3.25c-0.65-0.59-1.29-1.19-1.94-1.78
			c-0.36-0.18-0.72-0.35-1.08-0.53c0.05-0.14,0.09-0.29,0.14-0.43c0.94,0,1.89,0,2.83,0c-6.23-2.21-12.61-2.41-19.01-2.28
			c-3.08,0.06-6.29,0.06-9.2,0.91c-7.26,2.14-14.33,4.78-20.9,8.73c-2.85,1.71-6.05,2.77-8.12,5.58c-0.28,0.39-0.72,0.78-0.76,1.21
			c-0.25,2.51-0.32,5.05-0.62,7.55c-0.54,4.57,0.65,9.27-1.15,13.74c-0.67,1.65-1.1,3.4-1.8,5.04c-1.72,4.07-3.53,8.1-5.3,12.15
			c-0.28-0.09-0.56-0.17-0.84-0.26c5.23-11.51,8.72-23.33,6.85-36.17c-0.64,1.17-1.12,2.44-1.08,3.7c0.2,7.02-1.01,13.8-3.32,20.39
			c-2.24,6.37-4.62,12.69-6.97,19.02c-0.4,1.09-0.93,2.14-1.44,3.29c-0.48-0.52-0.79-0.85-1.1-1.18c1.47,3.63-0.29,6.85-1.07,10.09
			c-0.35,1.45-1.48,2.7-2.2,4.06c-0.15,0.28-0.18,0.88-0.01,1c0.3,0.23,0.92,0.44,1.18,0.28c0.68-0.41,1.4-0.93,1.83-1.58
			c2.21-3.28,4.34-6.63,6.51-9.94c0.31-0.47,0.66-1.12,1.12-1.26c1.47-0.46,3-0.72,4.58-1.08c-2.59,4.3-5.28,8.76-8.16,13.54
			c3.06-0.72,4.05-3.89,6.85-4.77c-1.14,2.26-2.28,4.52-3.72,7.36c4.34-2.64,4.34-7.68,7.35-10.5c0.17,0.1,0.34,0.19,0.5,0.29
			c-3.05,5.99-6.1,11.97-9.16,18c1.2,0.74,1.46,0.72,2.36-1.02c4.45-8.62,8.85-17.27,13.29-25.89c0.33-0.65,0.84-1.21,1.27-1.81
			c0.24,0.14,0.48,0.27,0.72,0.41c-2.73,7.45-6.96,14.25-10.31,21.79c2.05-2.03,3.82-3.79,5.6-5.55c0.13,0.13,0.27,0.27,0.4,0.4
			c-1.23,2.18-2.45,4.36-3.68,6.53c0.22,0.13,0.44,0.26,0.66,0.4c3.85-6.01,7.69-12.03,11.33-17.71
			c5.62,3.54,10.87,6.84,16.34,10.29c-0.07,0.28-0.27,0.99-0.44,1.7c-0.52,2.16-1.46,4.31-1.48,6.47
			c-0.04,5.18-2.85,8.14-7.08,10.39c-3.67,1.96-7.2,4.18-10.78,6.3c-1.43,0.85-2.18,2.15-1.89,3.76c1.01,5.56,2.08,11.11,3.25,16.64
			c0.25,1.19,2.4,1.58,3.37,0.75c2.32-1.98,4.56-4.06,6.94-5.98c1.45-1.16,3.09-2.09,4.65-3.12c-5.43,0-8.22,4.63-12.92,6.98
			c-0.93-5.22-1.83-10.18-2.7-15.15c-0.26-1.48,0.29-2.56,1.65-3.35c2.19-1.27,4.32-2.64,6.43-4.04c2.83-1.9,5.63-2.4,8.6-0.28
			c0.9,0.65,1.96,1.1,2.97,1.57c4.93,2.31,9.53,1.91,13.81-1.63c3.31-2.74,4.07-6.55,4.59-10.76c2.5,1.2,5.21,1.89,7.08,3.54
			c2.22,1.96,4.93,4.59,5.27,7.21c0.57,4.38-0.61,8.97-0.99,13.48c-0.19,2.21-1.28,2.08-2.9,1.41c-1.32-0.54-2.76-0.78-4.14-1.16
			c-0.06,0.22-0.12,0.45-0.18,0.67c1.32,0.8,2.8,1.43,3.93,2.45c1.69,1.53,3.56,1.87,5.65,1.52c4.62-0.78,8.19-3.23,11.15-6.83
			c3.26-3.97,3.9-8.27,2.16-12.98c-1.31-3.55-3.13-4.66-6.8-3.54c-2,0.61-3.71,2.14-5.74,3.36c0,0-0.27-0.31-0.48-0.65
			c-1.81-3.01-3.68-5.96-7.01-7.54c-2-0.95-4.03-1.83-6.02-2.81c-0.48-0.23-1.14-0.63-1.22-1.06c-0.55-2.74-0.96-5.51-1.43-8.36
			c-1.44-0.5-3.61,1.21-4.96-1.31c3.96-1.49,7.85-2.95,11.68-4.39c0.03,0.04-0.16-0.23-0.09-0.12c3.3-2.65,6.59-5.19,9.76-7.87
			c9.21-7.81,13.63-18.02,14.45-29.86c0.54-7.79-0.05-15.55-2.08-23.13c-0.67-2.52-0.17-4.55,1.93-6.15
			c0.18-0.14,0.22-0.45,0.33-0.69c-0.19-0.19-0.38-0.39-0.57-0.58c-0.78,0.64-1.75,1.15-2.28,1.95c-0.63,0.98-0.92,2.19-1.29,3.33
			c-0.7,2.19-1.34,4.4-2.01,6.6c-0.4-0.72-0.38-1.34-0.21-1.92c0.47-1.64,1.04-3.25,1.47-4.9c0.1-0.4-0.21-0.9-0.33-1.35
			c-0.36,0.36-0.88,0.66-1.05,1.1c-0.37,0.95-0.43,2.03-0.86,2.95c-1.46,3.15-1.16,6.4-0.71,9.66c0.15,1.05,0.65,2.06,1.18,3.66
			c0.42-3.06-0.72-5.54,0.14-7.86c0.26,0,0.52-0.01,0.77-0.01c0.5,2.61,0.99,5.22,1.49,7.83c0.19-0.02,0.39-0.04,0.58-0.06
			c0.03-4.2-1.09-8.44-0.04-12.65c0.61,0.73,0.88,1.48,0.94,2.24c0.3,4.03,0.6,8.06,0.81,12.1c0.5,9.62-1.41,18.76-5.84,27.31
			c-2.72,5.25-7.5,8.68-11.68,12.61c-1.58,1.49-3.76,2.37-5.72,3.41c-0.38,0.2-1.34,0.08-1.5-0.19c-0.99-1.78-1.94-3.6-2.63-5.51
			c-0.15-0.42,0.7-1.63,1.28-1.8c2.44-0.69,4.98-1.03,7.44-1.66c2.19-0.56,4.33-1.33,6.49-2.01c-2.6-0.41-5.01-0.42-7.42-0.4
			c-0.18,0-0.34,0.23-0.53,0.33c-0.78,0.43-1.51,1.03-2.34,1.23c-1.74,0.41-3.55,0.54-5.3,0.92c-1.32,0.29-2.16,0.77-1.83,2.62
			c0.52,2.89,0.68,5.8,3.96,8.23c-4.41,1.54-8.19,2.82-11.94,4.17c-3.21,1.15-6.34,0.44-9.11-0.96c-3.85-1.95-7.49-4.34-11.04-6.8
			c-1.35-0.94-3.22-2.32-2.38-4.36c1.31-3.18,3.07-6.17,4.59-9.27c3.64-7.42,7.79-14.67,7.76-23.32c0-0.99,0.47-1.99,0.72-2.99
			c0.47,1.88,0.15,3.75,0.55,5.45c0.49,2.11,1.29,4.28,2.49,6.07c1.09,1.62,2.7,1.12,3.32-0.68c-2.15,0.22-2.4,0.15-3.33-1.95
			c-0.53-1.21-1.05-2.55-1.07-3.84c-0.08-4.26,0.08-8.53,0.13-12.79c0.03-2.27,0.82-4.71-1.79-6.79c-2.25,5.88-1.52,12.14-3.19,17.9
			c-1.67,5.78-3.43,11.54-5.15,17.31c-0.07-0.04-0.15-0.07-0.22-0.11c2.21-9.95,4.42-19.89,6.66-30c-0.61,0.04-0.85-0.01-1.02,0.08
			c-0.26,0.13-0.49,0.33-0.72,0.52c-2.25,1.94-1.71,4.74-2.24,7.22c-0.34,1.59-0.67,3.17-1.01,4.76c-0.21-0.03-0.42-0.07-0.63-0.1
			c0.05-0.85,0.1-1.7,0.13-2.55c0.09-2.24,0.25-4.48,0.24-6.72c-0.01-1.63-0.4-3.16-2.9-3.38c0.77-1.57,1.4-2.87,2.04-4.17
			c-0.14-0.14-0.28-0.27-0.42-0.41c-0.82,0.33-1.64,0.66-2.6,1.05c-0.05-1.27-1.9-2.45-0.19-3.6c2.78-1.86,5.55-3.85,8.6-5.13
			c7.69-3.23,15.84-3.42,24.01-2.63c1.79,0.17,3.52,0.93,5.28,1.41C582.37,408.52,580.36,410.1,578.76,412.29z M764.23,495.03
			c-0.18,1.29-0.36,2.46-0.51,3.64c-0.66,5.2-1.13,10.5,2.67,14.74c2.27,2.53,4.88,5.05,7.86,6.55c4.54,2.3,9.41,4.27,14.36,5.34
			c4.62,1,9.6,2.05,14.28-0.46c0.33-0.18,0.85-0.04,1.27,0.03c3.07,0.5,6.12,1.24,9.2,1.49c7.3,0.59,14.66,0.61,21.93,1.47
			c9.78,1.16,19.53,0.51,29.3,0.28c0.48-0.01,0.95-0.27,1.32-0.38c-0.19-5.32,0.05-10.3,3.96-14.31c1.55-1.58,3.83-2.39,5.18-1.61
			c2.46,1.42,4.02,4.38,3.38,6.47c-1.66,5.4-5.82,8.87-9.63,12.65c-2.03,2.02-4.4,4.07-5.46,6.6c-1.48,3.55-2.01,7.52-2.72,11.36
			c-1.04,5.58-1.62,11.25-2.88,16.77c-0.99,4.33-3.76,7.45-8.4,8.39c-2.2,0.44-3.14-0.63-2.51-2.74c0.21-0.72,0.35-1.45,0.53-2.18
			c-0.19-0.09-0.39-0.19-0.58-0.28c-0.66,0.78-1.32,1.55-2.22,2.61c-0.89-1.48-1.72-2.7-2.37-4.01c-1.54-3.14-1.5-3.15,1.59-4.62
			c0.07-0.03,0.05-0.24,0.11-0.54c-1.02,0-2,0-2.61,0c-1.17-1.95-2-4.02-3.42-5.54c-4.24-4.52-9.87-5.26-15.68-5
			c-0.81,0.04-1.77,1.05-2.32,1.85c-3.07,4.4-2.72,8.93-0.8,13.77c1.32,3.33,2.71,6.82,1.77,10.66c-0.4,1.62-1.21,2.41-2.81,2.72
			c-1.82,0.36-3.62,0.91-5.4,1.43c-2.63,0.78-5.04,0.55-7.03-1.5c-0.93-0.96-1.82-1.99-2.59-3.09c-1.79-2.58-1.68-3.12,0.75-4.96
			c0.07-0.06,0.02-0.27,0.04-0.57c-0.6-0.04-1.2-0.08-1.9-0.13c0.85-4.34,3.74-8.14,2.27-13c1.16,0.44,1.84,0.7,2.62,0.99
			c-8.18-10.42-17.27-19.91-22.15-32.33c1.34,11.84,10.58,19.15,16.79,28.92c-6.31-1.82-9.28,3.17-13.47,5.42
			c-0.21,0.11-0.27,0.51-0.39,0.78c-0.54,1.22-0.96,2.5-1.62,3.65c-2.5,4.35-0.48,10.55,5.25,10.32c2.85-0.11,5.69-0.55,8.67-0.86
			c0.39,0.63,0.9,1.54,1.49,2.39c2.09,3.04,4.58,6.06,8.52,5.74c3.95-0.32,7.84-1.63,11.71-2.71c0.73-0.2,1.43-1.29,1.72-2.11
			c1.3-3.64,0.07-7.04-1.17-10.45c-0.84-2.31-1.85-4.64-2.16-7.04c-0.77-6.02,2.14-8.84,8.07-8.04c3.55,0.48,6.85,1.64,9.14,4.68
			c1.23,1.63,1.7,5.1,0.52,5.57c-3.5,1.39-4.13,4.94-6.04,7.48c-1.81,2.41-0.43,5.72,2.53,5.76c2.59,0.03,5.26-0.55,7.76-1.32
			c1.8-0.56,3.3-1.87,5.26-0.32c0.52,0.41,1.62,0.25,2.41,0.13c5.41-0.83,10.57-5.57,11.46-10.97c1.04-6.32,1.44-12.75,2.62-19.04
			c0.67-3.59,1.75-7.39,3.73-10.38c2.08-3.14,5.31-5.6,8.3-8.04c5.03-4.09,6.36-9.85,2.73-14.24c-1.56-1.89-3.27-3.78-6.46-2.91
			c-4.84,1.32-6.56,5.06-7.74,9.22c-0.66,2.31-0.74,4.77-1.07,7.07c-19.62,1.35-38.76-2.03-58.57-2.36
			c3.46-5.88,3.33-11.24,1.45-16.8c-0.51-1.5-0.09-3.32-0.09-5c1.65,0.29,3.49,0.21,4.92,0.94c4.57,2.36,8.96,5.06,13.46,7.54
			c3.19,1.76,6.42,4.07,10.22,3.25c2.67-0.58,5.39-1.86,7.58-3.5c3.86-2.9,8.43-5.39,9.39-10.89c0.16-0.94,0.41-1.87,0.68-2.79
			c1.4-4.73,2.58-9.5,1.79-14.48c-0.17-1.06-1.22-2.06-1.18-3.06c0.2-4.67-1.93-8.69-3.32-12.91c-2.29-6.93-4.9-13.75-6.94-20.75
			c-0.99-3.38-2.21-6.52-4.53-9.08c-4.64-5.12-10.55-8.23-17.19-9.91c-4.85-1.23-9.71-2.61-14.65-3.18
			c-6.87-0.8-13.62,0.35-20.29,2.34c-7.37,2.21-14.88,3.91-21.67,7.73c-0.48,0.27-1.13,0.4-1.69,0.37
			c-1.78-0.09-2.69,0.89-3.34,2.37c-0.69,1.57-1.29,3.2-2.19,4.64c-3.07,4.94-6.26,9.81-9.4,14.71c-0.64,1.01-1.2,2.07-1.9,3.04
			c-2.59,3.58-5.36,7.05-7.82,10.72c-4,5.99-6.71,12.62-8.89,19.46c-1.21,3.78-2.11,7.61-0.83,11.6c1.31,4.05,3.24,7.73,6.53,10.5
			c4.12,3.48,11.81,2.55,16.34-1.59c3.98-3.62,7.69-7.54,11.46-11.38C763.16,497.14,763.54,496.16,764.23,495.03z M457.16,663.71
			c0.67,1.49,0.85,2.45,2.52,2.07c2.83-0.64,5.72-1.01,8.59-1.41c5.37-0.75,10.75-1.46,16.14-2.14c2.58-0.33,5.19-0.46,7.75-0.88
			c0.56-0.09,1.36-1,1.39-1.57c0.11-1.78,0.03-3.59-0.2-5.35c-1.52-11.89-0.68-23.73,0.48-35.58c0.54-5.5,1.25-11.03,1.21-16.55
			c-0.06-8.13-0.73-16.26-1.13-24.39c-0.47-9.55-1.12-19.1-1.35-28.66c-0.22-9.35-0.1-18.71,0.03-28.06
			c0.12-9.2,0.4-18.41,0.68-27.61c0.28-8.97,0.72-17.94,0.95-26.91c0.17-6.79,0.41-13.6,0.06-20.37c-0.3-5.95-1.38-11.86-2.08-17.8
			c-0.38-3.22-0.34-3.23-3.52-2.4c-0.36,0.09-0.74,0.16-1.08,0.29c-10.43,4.05-21.37,6.1-32.26,8.39c-2.76,0.58-5.5,1.32-8.2,2.15
			c-0.59,0.18-0.95,1.07-1.42,1.63c0.13,0.23,0.26,0.46,0.38,0.69c7.19-1.65,14.41-3.15,21.55-5c7.24-1.89,14.39-4.14,21.38-6.17
			c2.99,10.69,2.28,21.57,2.3,32.38c0.01,4.7-0.87,9.39-1.01,14.1c-0.41,13.24-0.61,26.48-0.99,39.72
			c-0.05,1.57-0.75,3.11-1.09,4.68c-0.25,1.14-0.85,2.45-0.52,3.42c2,5.79,1.6,11.79,1.69,17.72c0.13,9.48-0.36,18.94,1.26,28.38
			c0.88,5.16,0.98,10.46,1.29,15.7c0.27,4.62,0.58,9.25,0.46,13.87c-0.18,6.57-0.69,13.13-1.15,19.7
			c-0.43,6.18-1.48,12.37-1.33,18.54c0.15,6.05-1.39,12.24,1.02,18.2c0.45,1.11,0.33,2.53,0.19,3.78c-0.06,0.53-0.78,1.35-1.27,1.42
			c-5.15,0.64-10.33,1.1-15.49,1.73C468.75,662.1,463.12,662.91,457.16,663.71z M711.75,171.9c-2.88,1.14-3.77,3.37-4.61,5.39
			c-2.89,6.97-4.11,14.34-4.64,21.83c-0.25,3.51-0.03,7.07-0.58,10.52c-0.63,4-0.18,7.75,1.19,11.46
			c2.37,6.45,4.87,12.85,7.12,19.35c3.16,9.12,6.16,18.29,9.16,27.46c0.72,2.21,1.16,4.5-0.33,6.68c-1.26,1.85-2.59,3.68-3.62,5.65
			c-1.81,3.46-4.17,6.64-4.93,10.64c-0.53,2.84-1.71,5.56-2.27,8.39c-1.11,5.61-2.2,11.24-2.89,16.91
			c-0.5,4.06-0.36,8.21-0.48,12.32c-0.04,1.49-0.01,2.97-0.01,4.46c0.33,0.07,0.66,0.14,1,0.2c0.65-1.91,1.63-3.77,1.88-5.73
			c0.37-2.96,0.16-5.99,0.32-8.98c0.77-13.95,3.35-27.4,11.01-39.45c1.16-1.82,1.79-3.96,5.26-3.51c-3.36-3.44-0.21-6.09-0.29-9.07
			c-0.6,0.94-1.19,1.87-2.12,3.33c-1.14-3.7-2.1-6.8-2.91-9.41c3.52-0.95,6.77-1.87,10.06-2.66c0.51-0.12,1.16,0.37,1.74,0.58
			c-0.31,0.6-0.49,1.37-0.98,1.75c-0.48,0.37-1.29,0.3-1.92,0.51c-1.81,0.6-3.6,1.25-5.55,1.94c0.56,1,0.94,1.68,1.33,2.37
			c2.26-0.77,4.37-1.49,6.48-2.22c1.28-0.44,1.89,0.13,1.92,1.35c0.05,1.78,0.01,3.55,0.01,5.41c-1.53,0.22-3.09,0.35-4.6,0.7
			c-0.86,0.2-2.36,0.83-2.33,1.16c0.09,1.01,0.58,2.16,1.29,2.89c0.79,0.82,1.92,1.46,3.02,1.81c2.32,0.74,3.42,0.24,4.11-2.09
			c0.63-2.14,2.06-2.34,3.77-2.1c2.58,0.37,5.14,0.92,7.72,1.28c0.7,0.1,1.45-0.23,2.18-0.37c-0.55-0.49-1.04-1.13-1.68-1.43
			c-0.73-0.34-1.59-0.41-2.4-0.54c-2.71-0.44-5.43-0.86-8.12-1.28c-0.23-2.02-0.21-4.01-0.75-5.82c-0.45-1.53,0.12-2.2,1.28-2.56
			c1.34-0.42,2.77-0.53,4.15-0.86c0.69-0.17,1.34-0.52,2.06-0.81c-1.31-2.08-2.86-1.95-4.54-1.42c-0.78,0.24-1.62,0.6-2.39,0.51
			c-0.73-0.09-1.39-0.7-2.08-1.09c0.47-0.52,0.84-1.32,1.41-1.5c2.87-0.9,5.78-1.64,8.93-2.5c-1.31-2.2-2.92-2.17-4.65-1.62
			c-1.49,0.48-2.97,1-4.43,1.57c-1.33,0.52-2.16,0.31-2.86-1.1c-0.59-1.18-1.64-2.14-2.49-3.19c-0.26,0.17-0.51,0.33-0.77,0.5
			c0.26,0.8,0.43,1.65,0.81,2.39c0.84,1.63,0.86,2.74-1.27,3.31c-3.12,0.84-6.18,1.88-9.36,2.86c-2.02-6.81-4.05-13.78-6.15-20.72
			c-0.86-2.86-1.54-5.84-2.88-8.47c-2.16-4.24-3.76-8.69-3.86-13.35c-0.18-7.93-0.1-15.9,0.63-23.79
			c0.58-6.26,1.38-12.71,5.45-18.04C711.55,173.41,711.52,172.9,711.75,171.9z M548.5,585.92c0.07,0.23,0.14,0.46,0.22,0.68
			c-0.78,0.2-1.55,0.54-2.34,0.58c-2,0.1-4.03-0.12-6.01,0.12c-2.11,0.26-3.28,2.28-2.41,3.92c1.33,2.5,2.68,5,4.24,7.36
			c1.67,2.53,4.69,3.12,6.81,1.23c4.16-3.71,7.54-8.07,9.69-13.27c0.31-0.75-0.04-1.76-0.1-2.96c-0.66,0.43-0.84,0.48-0.9,0.59
			c-0.25,0.46-0.51,0.92-0.69,1.41c-1.79,4.84-5.09,8.59-8.67,12.14c-1.79,1.78-3.52,1.7-4.81-0.43c-1.31-2.16-2.31-4.51-3.26-6.85
			c-0.18-0.44,0.48-1.76,0.8-1.78c1.46-0.09,3.03-0.13,4.39,0.32c2.34,0.79,3.42,0.57,4.44-1.7c1.93-4.32,3.8-8.66,5.65-12.9
			c0.54,0.39,0.93,0.89,1.4,0.98c0.91,0.17,1.95-0.09,2.8,0.2c1.82,0.63,3.57,1.5,5.52,2.35c-0.41,2.24-0.86,4.56-1.27,6.89
			c-0.77,4.41-1.59,8.81-2.21,13.24c-0.1,0.68,0.63,1.7,1.26,2.23c2.38,1.98,5.34,1.52,8.11,1.5c0.67,0,1.77-0.99,1.89-1.67
			c0.17-1-0.14-2.23-0.62-3.17c-1.9-3.74-3.21-7.4-1.78-11.75c0.61-1.85,0.1-4.07,0.1-6.17c0.28-0.01,0.58-0.04,0.87-0.04
			c4.16-0.01,5.92-1.64,6-5.72c0.17-8.84-1.8-17.29-4.89-25.5c-0.23-0.6-0.96-1.01-1.46-1.51c-0.22,0.14-0.43,0.27-0.65,0.4
			c0.76,2.6,1.56,5.19,2.27,7.8c1.79,6.59,2.94,13.27,2.85,20.13c-0.02,1.78-1.09,2.61-2.51,2.5c-2.12-0.17-4.25-0.68-6.3-1.31
			c-2.56-0.78-5.06-1.76-7.54-2.79c-1.16-0.48-2.2-1.27-3.84-2.24c-2.13,0.42-5.02-0.44-7.93-2.78c3.65-7.81,8.15-15.29,9.91-24.48
			c1.78,0.97,3.34,1.87,4.95,2.67c0.96,0.48,2.2,1.33,2.99,1.06c2.86-0.95,5.68-2.12,8.33-3.55c3.1-1.67,4.27-4.86,5.39-7.98
			c1.83-5.11,2.34-10.41,1.99-15.8c-0.07-1.04-0.36-2.07-0.55-3.11c-0.27-0.05-0.54-0.11-0.81-0.16c-0.31,0.58-0.96,1.22-0.88,1.73
			c0.74,4.47-0.19,8.82-1.22,13.06c-1.37,5.69-2.48,11.83-10.21,12.6c-1.48,0.15-7.62-0.7-8.61-1.85c-0.17-0.19-0.21-0.5-0.27-0.77
			c-0.28-1.2-0.51-2.42-0.84-3.62c-1.3-4.74-2.62-9.49-3.99-14.21c-0.18-0.64-0.71-1.17-1.08-1.76c-0.39,0.7-1.14,1.43-1.08,2.08
			c0.15,1.75,0.57,3.5,1.02,5.2c0.75,2.81,1.79,5.55,2.41,8.38c1.39,6.34-1.32,11.99-3.6,17.56c-2.02,4.94-4.78,9.58-7.34,14.59
			c3.12,1.25,6.22,2.5,9.64,3.87c-1.85,4.06-2.42,9.01-6.65,12.42C547.82,585.92,548.16,585.92,548.5,585.92z M829.74,181.71
			c-0.32-0.04-0.63-0.09-0.95-0.13c-0.25,0.62-0.66,1.23-0.72,1.87c-0.2,2,0.02,4.08-0.43,6.01c-2.64,11.35-3.15,22.94-3.89,34.49
			c-0.57,8.73-0.52,17.5-0.71,26.26c-0.17,7.78-0.22,15.57-0.45,23.35c-0.18,6.13-0.31,12.28-0.92,18.38
			c-0.62,6.25-1.73,12.45-2.73,18.65c-1.28,7.97-2.84,15.89-3.96,23.88c-1.3,9.32-2.22,18.7-3.36,28.05
			c-0.55,4.52-1.26,9.01-1.77,13.53c-0.35,3.12-0.52,6.26-0.62,9.39c-0.01,0.45,0.8,0.94,1.23,1.4c0.39-0.49,1.05-0.94,1.11-1.47
			c0.41-3.12,0.63-6.26,1.01-9.38c0.9-7.26,1.8-14.52,2.81-21.77c1.15-8.2,2.36-16.4,3.69-24.58c1.02-6.26,2.4-12.47,3.35-18.75
			c0.9-5.99,1.66-12.02,2.11-18.05c0.57-7.68,0.99-15.39,1.08-23.1c0.1-8.53-0.36-17.07-0.37-25.6c0-5.39,0.34-10.79,0.59-16.18
			c0.32-7.03,0.48-14.08,1.1-21.08c0.55-6.18,1.68-12.31,2.45-18.48C829.69,186.19,829.64,183.94,829.74,181.71z M757.67,363.92
			c-0.49-1.5-1.27-2.85-1.32-4.23c-0.08-2.14,0.31-4.3,0.52-6.45c0.86-9.01,1.79-18.01,2.55-27.02c0.73-8.57,1.49-17.14,1.87-25.73
			c0.31-6.94-0.11-13.9,0.11-20.85c0.34-10.69,0.95-21.37,1.46-32.05c0.18-3.65,0.3-7.32,0.67-10.96
			c0.56-5.58,1.31-11.14,1.97-16.71c1.17-9.78,2.3-19.57,3.53-29.34c0.43-3.41,1.16-6.77,1.66-10.17c0.12-0.82-0.15-1.69-0.24-2.54
			c-0.25-0.03-0.5-0.05-0.75-0.08c-0.36,0.59-0.92,1.15-1.06,1.79c-1.05,4.87-2.32,9.71-2.94,14.64
			c-1.44,11.33-2.6,22.71-3.79,34.07c-0.66,6.25-1.29,12.51-1.68,18.78c-0.58,9.19-1.09,18.39-1.35,27.59
			c-0.35,12.27-0.12,24.55-0.73,36.8c-0.49,9.85-1.84,19.66-2.88,29.47c-0.54,5.13-1.36,10.24-1.78,15.38
			c-0.17,2.11,0.28,4.29,0.62,6.42c0.07,0.46,0.82,1.02,1.35,1.15C756.28,364.07,757.18,363.92,757.67,363.92z M642.29,326.11
			c1.09-0.53,1.83-0.64,2.08-1.06c0.87-1.44,2.14-2.94,2.24-4.49c0.29-4.31,0.06-8.66,0.05-13c-0.04-13.02,0.65-25.99,2-38.95
			c0.54-5.12,0.59-10.3,0.79-15.46c0.48-12.42,0.93-24.84,1.36-37.27c0.32-9.05,2.8-17.71,4.77-26.46c0.8-3.55,1.63-7.13,1.9-10.74
			c0.17-2.24-0.61-4.57-1.09-6.84c-0.14-0.65-0.65-1.24-1.07-1.79c-0.05-0.07-0.84,0.19-0.89,0.4c-0.19,0.75-0.52,1.69-0.24,2.31
			c1.35,2.97,1.66,6.08,0.97,9.16c-1.19,5.31-2.79,10.53-4.05,15.83c-1.02,4.28-2.16,8.58-2.58,12.93
			c-0.72,7.52-0.99,15.09-1.33,22.64c-0.21,4.48-0.2,8.97-0.29,13.46c-0.14,6.72-0.29,13.45-0.44,20.17
			c-0.01,0.58,0.1,1.41-0.23,1.69c-1.96,1.71-1.45,3.96-1.5,6.08c-0.05,2.55,0.09,5.1-0.02,7.64c-0.34,8.15-0.89,16.29-1.11,24.44
			C643.46,313.05,645.38,319.39,642.29,326.11z M595.64,322.54c0.89-0.8,1.72-1.19,1.76-1.64c0.15-2.08,0.51-4.28,0.01-6.23
			c-1.4-5.44-0.59-10.87-0.27-16.26c0.53-8.96,1.55-17.88,2.36-26.82c0.86-9.46,1.4-18.96,2.65-28.37
			c1.21-9.11,3.11-18.12,4.75-27.17c0.86-4.78,1.85-9.53,2.69-14.32c1.33-7.49,2.6-14.99,3.81-22.5c0.07-0.42-0.58-0.95-0.9-1.44
			c-0.42,0.41-1.13,0.77-1.21,1.24c-0.24,1.39-0.08,2.86-0.35,4.25c-1.72,8.79-3.5,17.57-5.31,26.35
			c-1.05,5.12-2.46,10.18-3.23,15.34c-1.19,7.96-1.96,15.98-2.92,23.97c-0.23,1.91-0.42,3.83-0.74,5.73
			c-0.58,3.43-1.5,6.83-1.83,10.28c-0.62,6.54-0.89,13.12-1.38,19.68c-0.4,5.3-0.98,10.58-1.35,15.88
			c-0.24,3.41-0.47,6.84-0.29,10.24c0.13,2.43,0.98,4.81,1.41,7.24C595.5,319.25,595.49,320.58,595.64,322.54z M673.63,187.18
			c0,3.19-0.22,6.31,0.08,9.39c0.2,2.02-0.52,2.8-2.17,3.71c-3.11,1.7-5.22,4.44-6.13,7.9c-0.61,2.36,0.56,4.18,2.31,5.7
			c1.64,1.42,3.06,0.45,4.51-0.35c0.89-0.49,1.79-0.96,2.1-1.13c1.45,0.93,2.48,1.6,3.51,2.27c0.04-1.16,0.4-2.43,0.04-3.45
			c-0.6-1.7-0.43-2.99,0.72-4.35c0.86-1.02,1.7-2.13,2.21-3.34c1.5-3.6,1.43-3.62,5.14-2.41c3.55,1.16,4.49,3.64,2.35,6.76
			c-1.53,2.23-3.32,4.27-5.25,6.73c0.77-0.1,1.25-0.08,1.65-0.24c2.91-1.15,4.99-3.26,6.44-5.97c1.92-3.59,0.94-6.81-2.69-8.65
			c-1.7-0.86-3.55-1.44-5.23-2.1c-0.13-1.18-0.26-2.41-0.4-3.64c-0.3-0.13-0.59-0.26-0.89-0.39c-0.3,3.75-2.18,5.01-5.77,3.99
			c0.18-3.4,0.31-6.9,0.6-10.38c0.04-0.5,0.71-1.18,1.23-1.38c3-1.14,6.05-2.16,9.07-3.24c1.4-0.5,2.81-1,4.17-1.62
			c0.36-0.17,0.51-0.79,0.75-1.2c-0.47-0.27-0.91-0.71-1.4-0.77c-0.46-0.05-0.96,0.32-1.44,0.49c-3.87,1.42-7.74,2.84-12.11,4.44
			c0-2.06,0.05-3.4-0.01-4.73c-0.1-2.24-0.3-2.43-2.32-2.32c0,1.99,0.1,4-0.06,6c-0.05,0.61-0.69,1.54-1.23,1.67
			c-1.94,0.47-3.97,0.61-5.94,0.99c-0.63,0.12-1.19,0.62-1.79,0.95c0.5,0.46,0.92,1.13,1.5,1.31c0.74,0.23,1.62,0.15,2.42,0.04
			C671.06,187.7,672.5,187.39,673.63,187.18z M680.26,266.74c0.09-0.21,0.18-0.41,0.27-0.62c-1.57-0.71-3.16-1.39-4.72-2.12
			c-4.65-2.17-6.78-9.62-3.61-13.56c3.01-3.75,6.44-7.15,9.62-10.76c0.48-0.54,0.62-1.37,0.92-2.07c-0.72-0.17-1.52-0.62-2.16-0.46
			c-2.09,0.54-4.12,1.31-6.19,1.96c-2.04,0.64-4.1,1.24-6.15,1.86c0.22,0.15,0.45,0.29,0.67,0.44c2.73-3.17,5.3-6.49,8.24-9.45
			c2.24-2.25,4.96-4.02,7.4-6.08c0.42-0.35,0.54-1.07,0.79-1.62c-0.51-0.23-0.99-0.54-1.52-0.65c-0.42-0.09-0.89,0.03-1.33,0.12
			c-3.88,0.74-7.77,1.49-11.64,2.26c-1.54,0.31-3.08,0.63-4.58,1.08c-0.33,0.1-0.75,0.85-0.66,1.16c0.11,0.38,0.72,0.87,1.11,0.87
			c1.33,0,2.68-0.08,3.98-0.33c2.56-0.49,5.1-1.11,7.64-1.67c0.12,0.19,0.23,0.38,0.35,0.57c-3.18,0.67-4.88,2.75-5.98,5.51
			c-0.27,0.68-1.17,1.12-1.8,1.65c-0.8,0.67-1.64,1.29-2.41,1.99c-2.54,2.32-5.02,4.7-7.59,6.99c-0.72,0.64-1.89,1.04-0.94,2.23
			c0.69,0.87,1.49,1.16,2.72,0.46c2.19-1.26,4.52-2.31,6.88-3.21c2.28-0.87,4.67-1.43,7.01-2.13c0.1,0.16,0.2,0.32,0.3,0.48
			c-1.87,1.91-3.86,3.72-5.58,5.76c-1.36,1.61-3.34,3.49-3.37,5.28C667.8,260.56,670.12,266.83,680.26,266.74z M793.8,283.87
			c0.26-1.76,0.18-3.22,0.72-4.39c0.96-2.08,2.4-3.94,3.45-5.99c1.31-2.55,4.78-3.51,7-1.7c0.7,0.57,1.1,1.5,1.64,2.27
			c-0.95,0.19-1.45,0.07-1.94-0.07c-4.08-1.1-6.63,1.18-6,5.36c0.37,2.49,3.08,3.65,5.06,2.11c1.28-1,2.46-2.14,3.68-3.22
			c0.3-0.27,0.59-0.54,0.89-0.8c1.08,1.66,2.16,3.32,3.24,4.97c0.81-2.63-0.81-3.73-1.96-5.14c-0.59-0.72-0.82-1.72-1.21-2.6
			c-0.57-1.31-0.78-3.14-1.77-3.82c-1.98-1.36-4.4-2.08-6.86-3.17c0.07-0.64,0.28-1.81,0.32-3c0.01-0.41-0.38-0.83-0.59-1.24
			c-0.38,0.29-0.95,0.51-1.1,0.89c-0.41,1.04-0.61,2.16-0.98,3.22c-0.19,0.53-0.44,1.28-0.87,1.45c-2.72,1.13-5.49,2.14-8.44,3.26
			c-0.21-1.03-0.42-1.82-0.53-2.62c-0.12-0.89,0.05-1.86-0.26-2.67c-0.28-0.71-1.04-1.24-1.58-1.84c-0.22,0.61-0.54,1.21-0.62,1.84
			c-0.09,0.65-0.1,1.4,0.13,2c1.28,3.38,0.21,5.92-2.28,8.41c-2.2,2.2-2.2,4.94-0.67,6.96c1.28,1.69,4.21,2.11,6.84,0.83
			C790.74,284.35,792.05,282.56,793.8,283.87z M801.27,180.68c-0.67,1.63-1.31,3.1-1.89,4.58c-0.66,1.68-1.26,3.35-3.23,4.03
			c-4.22,1.45-7.12,4.59-9.62,8.06c-0.47,0.65,0.02,2.01,0.07,3.04c0.75-0.43,1.62-0.74,2.24-1.31c2.03-1.88,3.97-3.86,5.94-5.8
			c0.17,0.13,0.34,0.27,0.51,0.4c-0.06,0.33-0.05,0.69-0.18,0.98c-0.93,2.08-2.11,4.07-2.74,6.23c-0.27,0.92,0.61,2.16,0.97,3.26
			c0.62-0.57,1.49-1.03,1.83-1.74c1.41-3.02,2.73-6.09,3.93-9.19c0.68-1.74,1.93-2.63,3.59-2.31c1.25,0.25,2.78,0.97,3.4,1.97
			c0.82,1.31,1.12,3.09,1.2,4.68c0.28,6.11-4.25,9.26-8.32,13.27c0-2.93,0-5.36,0-7.79c-1.89,3.17-2.48,6.42-1.26,9.83
			c0.51,1.42,1.41,1.64,2.58,0.69c1.04-0.85,2.07-1.71,3.09-2.59c4.72-4.08,7.37-8.84,5.85-15.4c-1.03-4.44-2.97-6.8-7.39-7.79
			C801.6,185.52,804.19,183.13,801.27,180.68z M843.42,323.04c-1.92,2.71-1.44,5.37,1.11,7.1c2.5,1.7,6.72,0.95,9.42-1.66
			c3.69-3.57,6.34-12.68,0.45-18.99c-1.58-1.7-1.95-3.11-1.51-5.23c0.31-1.51,0.44-3.3-1.65-4.23c-0.49,1.85-0.87,3.57-1.43,5.24
			c-0.21,0.63-0.76,1.51-1.3,1.63c-4.49,1-7.1,4.49-10.12,7.44c-0.98,0.95-2.15,2.04-0.53,3.29c1.56,1.21,1.91-0.62,2.69-1.34
			c1.99-1.83,4.01-3.63,6.02-5.44c0.17,0.14,0.33,0.27,0.5,0.41c-1.26,2.15-2.46,4.34-3.8,6.44c-0.87,1.37-0.27,2.34,0.77,3.02
			c0.22,0.14,1.4-0.77,1.8-1.41c1.91-3.08,3.71-6.22,5.56-9.38c0.44,0.2,0.76,0.27,0.97,0.46c3.58,3.17,3.45,7.27,2.65,11.41
			c-0.69,3.54-3.16,5.72-6.45,6.87c-2.2,0.77-4.38-0.6-4.92-2.9C843.47,324.97,843.51,324.14,843.42,323.04z M685.29,289.86
			c2.43-0.81,4.71-1.51,6.93-2.34c0.49-0.18,0.81-0.8,1.21-1.22c-0.5-0.45-0.93-1.16-1.5-1.29c-0.67-0.16-1.47,0.11-2.19,0.3
			c-4.38,1.17-8.75,2.35-13.11,3.6c-0.47,0.13-1.14,0.65-1.15,1.01c-0.01,0.46,0.45,1.17,0.89,1.35c0.65,0.27,1.46,0.29,2.17,0.19
			c1.53-0.22,3.04-0.6,4.52-0.9c1.59,3.67,1.59,3.67-1.99,4.66c-0.65,0.18-1.43,0.26-1.87,0.68c-0.53,0.51-0.76,1.34-1.12,2.02
			c0.78,0.11,1.61,0.44,2.32,0.27c1.31-0.32,2.54-0.94,4.06-1.53c0,2.37,0,4.23,0,5.97c-1.61,0-3.07-0.33-4.26,0.09
			c-1.25,0.44-2.83,1.38-3.22,2.47c-0.51,1.43-0.23,3.3,0.22,4.84c0.17,0.59,1.84,1.24,2.63,1.05c1.3-0.32,2.53-1.19,3.61-2.05
			c1.01-0.8,1.71-2.59,2.67-2.68c1.21-0.12,2.54,1.04,3.82,1.66c0.13,0.06,0.27,0.22,0.39,0.2c0.67-0.07,1.34-0.18,2.01-0.28
			c-0.28-0.55-0.5-1.17-0.88-1.64c-0.26-0.32-0.73-0.54-1.15-0.66c-2.78-0.77-4.04-2.41-3.23-5.36c0.11-0.41,0.05-0.92-0.1-1.33
			c-0.82-2.34,0.1-3.38,2.45-3.47c0.29-0.01,0.63-0.06,0.86-0.21c0.79-0.52,2.26-1.29,2.17-1.6c-0.41-1.48-1.63-1.35-2.9-0.91
			c-1.02,0.36-2.11,0.52-3.26,0.79C685.96,292.25,685.67,291.2,685.29,289.86z M619.83,277.64c0.17,0.06,0.35,0.12,0.52,0.18
			c-0.65,1.49-1.41,2.95-1.9,4.49c-0.22,0.69-0.21,1.8,0.21,2.27c0.51,0.57,1.55,0.86,2.36,0.87c0.33,0,0.87-1.04,0.97-1.66
			c0.38-2.35,0.55-4.74,0.93-7.09c0.12-0.75,0.48-1.56,0.97-2.14c1.73-2.05,4.13-2.93,6.68-3.25c3.08-0.39,4.52,1.62,3.71,4.62
			c-0.8,2.99-3.02,4.71-5.21,6.54c-0.69,0.58-1.29,1.26-2.01,1.98c0.47,0.25,0.6,0.36,0.73,0.39c0.22,0.04,0.48,0.1,0.66,0.02
			c3.7-1.7,6.81-3.94,8.01-8.15c1.1-3.86-0.78-6.97-4.79-7.25c-1.83-0.13-3.7,0.31-5.52,0.49c-0.24-0.43-0.52-1.55-1.01-1.66
			c-1.54-0.34-1.23-1.31-1.31-2.36c-0.06-0.89-0.52-1.75-0.81-2.62c-1.32,2.25-1.47,4.82-2.83,6.12c-1.5,1.43-4.12,1.68-6.3,2.46
			c0.76,1.14,0.76,1.14,6.95,0.61c-2.38,2.29-4.39,4.22-6.58,6.31c0.61,0.52,1.39,1.48,1.64,1.36
			C617.29,279.46,618.54,278.5,619.83,277.64z M850.68,294.45c1.26-3.29,2.19-6.44,2.09-9.86c-0.03-0.92,0.09-1.97,0.51-2.76
			c0.94-1.78,2.31-3.34,3.15-5.15c1.39-3.01,2.61-6.12,3.66-9.27c0.23-0.68-0.34-1.97-0.95-2.48c-0.43-0.36-1.65-0.06-2.37,0.27
			c-4.47,2.06-8.88,4.26-13.36,6.32c-1.83,0.84-3.78,1.43-5.79,2.18c1.99,2.17,2.36,2.41,4.63,1.44c4.96-2.1,9.85-4.36,15.4-6.85
			c-2.17,4-4.11,7.58-6.23,11.48c-2.02-3.86-3.54-5.05-5.71-4.56c0.46,0.74,0.86,1.42,1.3,2.08c0.7,1.04,1.57,1.99,2.13,3.1
			c1.86,3.72,0.83,7.51-0.24,11.15C848.39,293.27,848.88,293.84,850.68,294.45z M862.38,189.07c1.42,6.5,0.78,12.71-0.26,18.9
			c-0.07,0.43-0.84,0.87-1.38,1.07c-2.71,1-5.48,1.84-8.17,2.92c-0.62,0.25-0.97,1.18-1.45,1.79c0.88,0.45,1.91,1.44,2.63,1.25
			c2.55-0.66,4.98-1.75,7.47-2.63c1.4-0.49,2.82-0.91,4.25-1.31c1.36-0.38,1.26-1.12,0.79-2.21c-0.4-0.94-0.8-2.03-0.69-3
			c0.71-6.31,0.38-12.53-1.16-18.69c-0.47-1.9-1.49-2.2-3-1.07c-2.31,1.73-4.71,3.35-7.07,5.02c-1.4,0.99-2.92,1.85-4.15,3.02
			c-0.49,0.47-0.32,1.62-0.45,2.46c0.75-0.06,1.68,0.14,2.23-0.22C855.45,194.04,858.81,191.59,862.38,189.07z M860.04,247.42
			c-3.96,1.11-7.41,2.02-10.82,3.08c-0.71,0.22-1.24,1.01-1.86,1.53c0.84,0.28,1.76,0.93,2.51,0.78c2.61-0.55,5.16-1.41,7.74-2.1
			c2.02-0.54,3.42-1.17,4.06-3.74c1.5-6.01,1.5-11.99,0.83-18.02c-0.26-2.33-1.91-2.84-3.72-1.44c-0.81,0.63-1.77,1.06-2.66,1.58
			c-3.05,1.8-6.13,3.58-9.14,5.46c-0.35,0.22-0.66,1.22-0.48,1.45c0.35,0.44,1.08,0.83,1.63,0.81c0.61-0.02,1.21-0.5,1.8-0.81
			c3.26-1.73,6.51-3.47,10.11-5.39c-0.02,5.5,0.88,10.7-1.62,15.97C858.81,246.77,859.34,247.05,860.04,247.42z M613.54,306.56
			c2.37-3.29,4.68-6.63,7.14-9.86c0.74-0.96,1.66-1.85,0.35-2.7c-0.4-0.26-1.91,0.51-2.43,1.19c-3.91,5.06-7.72,10.2-11.5,15.36
			c-0.49,0.68-0.62,1.62-0.92,2.44c0.99,0.04,2.2,0.46,2.91,0.04c2.49-1.47,4.9-3.11,7.13-4.93c1.07-0.87,1.52-0.96,2.5,0.04
			c3.71,3.82,5.52,4.11,10.32,1.94c2.41-1.09,4.21-3.62,3.82-6c-1.02,0.85-1.79,1.96-2.74,2.88c-3.29,3.2-6.3,3.22-9.46,0.18
			C617.47,304.03,617.47,304.03,613.54,306.56z M620.51,238.83c-0.83,4.13-1.66,8.1-2.38,12.09c-0.09,0.49,0.43,1.09,0.66,1.63
			c0.63-0.4,1.69-0.69,1.82-1.21c0.86-3.31,1.42-6.7,2.28-10.02c0.43-1.65,0.84-3.77,2.02-4.65c1.98-1.47,4.56-2.12,6.9-3.09
			c0.98-0.41,2.87-0.01,2.25-1.85c-0.2-0.59-1.96-0.9-3-0.9c-0.99,0-2,0.54-2.98,0.91c-1.23,0.46-2.44,0.98-3.83,1.55
			c0-1.4,0.11-2.6-0.06-3.77c-0.07-0.46-0.76-0.83-1.17-1.24c-0.34,0.47-0.98,0.94-0.98,1.41c-0.01,3.13-0.17,6.04-4.23,6.6
			c-0.41,0.06-0.69,0.98-1.04,1.51c0.58,0.34,1.13,0.82,1.76,1C619.14,238.97,619.83,238.83,620.51,238.83z M730.17,311.04
			c0.45-1.51,1-2.68,1.09-3.89c0.06-0.79-0.52-1.64-0.81-2.46c-0.46,0.61-1.07,1.16-1.37,1.85c-1.49,3.35-2.77,6.86-7.28,7.12
			c-0.53,0.03-1.05,0.29-1.58,0.45c-0.04,0.23-0.07,0.46-0.11,0.68c1.26,0.47,2.52,0.94,3.75,1.39c-1.3,2.79-2.73,5.73-4.02,8.73
			c-0.26,0.6,0.02,1.43,0.06,2.16c0.56-0.34,1.33-0.55,1.65-1.05c1.37-2.11,2.96-4.17,3.84-6.49c1.76-4.61,5.09-6.72,9.74-7.34
			c0.91-0.12,1.8-0.61,2.61-1.08c0.35-0.21,0.77-0.99,0.64-1.2c-0.27-0.44-0.86-0.92-1.34-0.94c-0.7-0.04-1.44,0.27-2.14,0.49
			C733.38,309.93,731.87,310.46,730.17,311.04z M628.42,218.15c1.83-1.15,3.42-1.76,4.44-2.9c1.26-1.4,2.03-3.25,3.02-4.89
			c1.35-2.22,2.88-4.34,4.03-6.65c2.13-4.27,0.04-9.26-4.05-9.81c-3.31-0.44-5.82,1.5-8.3,3.3c-0.26,0.19-0.15,0.9-0.27,1.81
			c1.24-0.52,2.11-0.87,2.97-1.26c1.08-0.49,2.1-1.15,3.21-1.52c2.98-0.97,4.61,0.32,4.19,3.43c-0.2,1.49-0.86,2.98-1.56,4.34
			c-0.74,1.46-1.59,2.95-2.73,4.09c-2.33,2.33-1.87,6.29-4.93,8.14C628.26,216.37,628.42,217.06,628.42,218.15z M666.34,281.43
			c-0.77-0.12-2.17-1.38-3.05,0.62c-0.57,1.28-0.99,2.65-1.29,4.02c-1.07,4.87-2.18,9.75-3.01,14.66c-0.3,1.77-0.13,3.74,0.32,5.49
			c0.65,2.54,2.33,2.92,4.11,1.05c1.81-1.9,3.43-3.97,5.13-5.97c-0.17-0.18-0.35-0.37-0.52-0.55c-2.91,0.3-3.79,3.87-6.66,4.5
			c-0.07-0.5-0.26-0.95-0.18-1.34c1.4-6.93,2.81-13.85,4.27-20.76C665.58,282.52,666.05,281.96,666.34,281.43z M803.24,311.78
			c-0.2-0.09-0.41-0.18-0.61-0.28c-0.39,0.28-0.84,0.51-1.17,0.86c-2.6,2.81-5.8,4.35-9.61,4.69c-2.45,0.22-3.36-0.49-3.85-2.94
			c-0.7-3.49,0.35-6.63,1.75-9.73c0.52-1.16,1.28-2.26,1.5-3.47c0.12-0.62-0.69-1.42-1.08-2.14c-0.6,0.39-1.42,0.65-1.76,1.2
			c-0.62,1-1.17,2.13-1.38,3.27c-0.65,3.56-1.38,7.15-1.57,10.75c-0.13,2.47,1.7,4.08,4.13,4.59c5.17,1.1,9.37-0.77,12.88-4.43
			C802.98,313.62,802.99,312.59,803.24,311.78z M585.54,458.91c3.18,0.39,3.53,0.11,3.54-3.18c0.01-1.03-0.13-2.08-0.31-3.1
			c-0.5-2.94-3.49-4.86-6.37-4.07c-0.43,0.12-0.87,0.54-1.1,0.93c-0.41,0.7-0.78,1.46-0.96,2.24c-0.19,0.8-0.43,1.78-0.15,2.47
			c0.72,1.77,1.65,3.47,2.65,5.11c0.32,0.52,1.08,0.91,1.7,1.02C584.78,460.37,585.18,459.44,585.54,458.91z M546.35,528.41
			c-1.47,0.59-2.38,0.88-3.21,1.31c-2.69,1.39-5.46,2.19-8.57,2.05c-4.21-0.18-7.02-5.18-5.28-8.85c0.64-1.34,1.39-2.63,2.06-3.96
			c1.81-3.58,3.63-7.16,5.38-10.77c0.28-0.58,0.25-1.32,0.36-1.98c-0.2-0.07-0.41-0.14-0.61-0.21c-0.26,0.45-0.54,0.9-0.78,1.36
			c-2.01,3.89-3.7,8.01-6.13,11.62c-1.95,2.9-3.02,5.73-2.76,9.16c0.2,2.63,1.83,4.33,3.98,5.19
			C534.81,534.93,543.29,532.72,546.35,528.41z M722.31,236.57c-0.2-1.34-0.7-2.6-0.52-3.76c0.47-3.07,1.14-6.13,1.93-9.13
			c0.28-1.06,0.92-2.08-0.47-2.56c-1.22-0.42-2.21,0.21-2.5,1.55c-0.68,3.2-1.64,6.38-1.87,9.61c-0.15,2.02,0.63,4.19,1.33,6.17
			c0.61,1.74,2.31,1.94,3.77,0.79c0.7-0.55,1.48-0.99,2.19-1.53c1.65-1.25,3.28-2.53,4.92-3.8c-0.18-0.31-0.35-0.61-0.53-0.92
			C727.91,234.13,725.26,235.28,722.31,236.57z M779.69,349.05c-1.74,0.78-3.28,1.63-4.92,2.18c-2.06,0.69-2.89,0.14-2.68-2.02
			c0.37-3.84,1.07-7.65,1.65-11.47c0.16-1.03,0.58-2.06,0.5-3.06c-0.05-0.64-0.81-1.22-1.26-1.83c-0.57,0.43-1.55,0.79-1.65,1.31
			c-0.87,4.75-1.77,9.51-2.26,14.31c-0.28,2.81,1.33,4.45,3.7,4.72C775.93,353.55,778.91,351.86,779.69,349.05z M732.08,199.5
			c-1.58,0.71-3.15,1.44-4.74,2.13c-1.88,0.82-2.83,0.46-2.88-1.56c-0.07-2.5,0.22-5.05,0.65-7.53c0.45-2.58,1.25-5.1,1.9-7.67
			c-1.89-0.52-2.57,0.25-2.92,1.6c-0.42,1.66-1.08,3.29-1.3,4.97c-0.43,3.3-0.9,6.64-0.83,9.95c0.06,2.81,2.24,4.42,4.46,3.67
			C729.04,204.19,731.04,202.46,732.08,199.5z M725.32,282.29c-0.31,0.15-0.62,0.29-0.93,0.44c0.31,1.24,0.49,2.53,0.97,3.7
			c1.14,2.84,2.49,5.59,3.63,8.42c2.6,6.45,3.85,7.03,10.21,4.01c1.77-0.84,3.27-2.27,4.89-3.44c-0.18-0.27-0.36-0.54-0.55-0.81
			c-0.6,0.31-1.2,0.64-1.81,0.93c-2.09,0.96-4.16,1.96-6.29,2.83c-1.32,0.55-2.37-0.01-2.95-1.27c-1.86-4.05-3.65-8.13-5.52-12.17
			C726.53,284,725.87,283.17,725.32,282.29z M795.87,243.13c-0.11-0.26-0.22-0.52-0.33-0.78c-1.81,0.44-3.63,0.88-5.23,1.27
			c0-4.33-0.09-8.35,0.04-12.36c0.06-1.75-0.71-2.4-2.6-2.76c-0.17,5.15-0.41,10.13-0.44,15.11c-0.01,1.72,1.73,2.86,3.34,2.22
			C792.46,245.12,794.13,244.05,795.87,243.13z M572.15,412.91c-1.21,0.68-2.88,1.37-4.25,2.45c-2.33,1.84-3.01,4.56-2.99,7.38
			c0.04,4.97,0.05,9.96,0.46,14.91c0.17,2.09,1.29,4.11,1.99,6.16c0.21-0.08,0.42-0.15,0.63-0.23c-0.32-1.03-0.66-2.05-0.96-3.09
			c-0.18-0.62-0.46-1.27-0.43-1.89c0.07-1.39,0.69-2.85,0.43-4.14C565.32,426.31,568.41,419.44,572.15,412.91z M744.03,185.07
			c0.39,4.17,0.74,8.07,1.14,11.97c0.08,0.8,0.17,1.65,0.54,2.33c0.19,0.35,1.01,0.55,1.5,0.49c0.38-0.05,0.99-0.63,0.99-0.97
			c0.06-4.26,0.34-8.57-1.69-12.54C745.91,185.14,744.94,184.6,744.03,185.07z M743.23,238.18c2.08-2.46,3.59-4.51,3.2-7.2
			c-0.42-2.86-1.1-5.69-1.9-8.47c-0.4-1.4-1.49-2.15-3.02-1.33c0.77,2.81,1.85,5.42,2.13,8.12
			C743.93,232,743.42,234.78,743.23,238.18z M808.17,244.06c0.21,0.15,0.42,0.3,0.63,0.45c0.53-0.67,1.46-1.32,1.51-2.02
			c0.21-3.37,0.41-6.78,0.15-10.13c-0.13-1.69-1.18-3.34-1.96-4.94c-0.18-0.38-0.95-0.48-1.44-0.71c-0.07,0.52-0.29,1.07-0.19,1.54
			c0.38,1.74,1.15,3.44,1.25,5.18C808.31,236.97,808.17,240.52,808.17,244.06z M634.12,172.83c-2.2,0.51-2.49,1.54-1.62,3.2
			c1.17,2.23,2.22,4.53,3.32,6.8c0.68,1.4,1.35,2.81,2.05,4.27c1.91-0.91,1.56-2.71,0.96-4.16
			C637.41,179.52,635.72,176.22,634.12,172.83z M562.71,414.83c-2.11,5.15-1.22,18.1,1.74,21.62c-0.27-1.27-0.5-2.01-0.57-2.77
			c-0.43-4.91-1.01-9.81-1.16-14.73c-0.08-2.75,1.25-4.98,4.25-5.76c1.66-0.44,3.28-1.05,4.91-1.58c-9.7,1.31-9.83,1.35-11.4,3.22
			C561.22,414.83,561.86,414.83,562.71,414.83z M865.74,307.92c-0.14,0.04-0.28,0.07-0.42,0.11c1.09,3.91,2.16,7.83,3.32,11.73
			c0.12,0.42,0.78,0.67,1.19,1c0.23-0.54,0.55-1.06,0.66-1.63c0.06-0.32-0.24-0.69-0.31-1.05c-0.71-3.63-1.35-7.28-2.14-10.89
			c-0.17-0.79-0.86-1.47-1.31-2.21c-0.36,0.76-0.74,1.51-1.06,2.29C865.6,307.44,865.71,307.7,865.74,307.92z M810.84,182.32
			c-0.96,2.47,4.23,11.42,7,12.38C818.41,192.92,813.83,184.73,810.84,182.32z M628.93,329.97c4.08-1.57,7.35-10.13,5.47-14.28
			C632.56,320.49,630.79,325.11,628.93,329.97z M742.43,315.36c-4.49-1.28-10.72,0.43-12.02,3.18c3.49-0.57,6.86-1.07,10.2-1.71
			C741.18,316.72,741.65,316.01,742.43,315.36z M574.28,419.86c-2.63,5.63-2.35,11.47-1.38,17.34c0.46,2.75,1.15,3.69,2.78,4.16
			C571.86,434.43,573.43,427.14,574.28,419.86z M801.95,334.19c-2.09-1.34-9.63-0.27-12.15,1.6
			C791.37,337.33,798.28,336.48,801.95,334.19z M730.62,323.69c-0.08,0.37-0.16,0.75-0.24,1.12c0.84,0.23,1.67,0.52,2.52,0.69
			c2.32,0.46,4.65,0.97,6.99,1.26c0.75,0.09,1.58-0.43,2.37-0.66c-0.31-0.42-0.57-1.15-0.93-1.2
			C737.78,324.43,734.2,324.07,730.62,323.69z M741.16,334.08c-0.22-0.33-0.71-1.09-1.2-1.85c-0.74,0.49-1.6,0.87-2.17,1.52
			c-0.57,0.64-0.69,1.69-1.27,2.32c-1.18,1.28-0.32,1.66,0.73,1.88C739.19,338.36,741.22,336.63,741.16,334.08z M638,240.65
			c-1.25-0.89-2.1-2.01-2.89-1.97c-2.09,0.11-4.16,0.72-6.24,1.13C629.57,242.66,630.34,242.74,638,240.65z M692.5,276.04
			c0.89,1.93,1.84,3.59,2.45,5.36c1.08,3.15,1.59,3.81,3.37,3.56C697.78,280.28,695.38,276.43,692.5,276.04z M628.19,246
			c1.7,3.85,5.14,2.63,7.8,3.12c0.66,0.12,1.54-0.96,2.61-1.69C634.81,246.91,631.71,246.48,628.19,246z M791.02,350.2
			c-0.01,0.28-0.02,0.56-0.04,0.84c3.54,2.6,9.12,2.54,9.81,0C797.54,350.76,794.28,350.48,791.02,350.2z M702.76,281.43
			c-0.7-6.35-0.92-6.93-2.9-7.75C699.21,277.34,700.7,281.55,702.76,281.43z M878.71,305.56c0.26,2.76,0.5,5.26,0.76,8.01
			c0.4-0.17,1.31-0.27,1.73-0.77C882.39,311.39,880.82,306.57,878.71,305.56z M876.52,314.02c-0.6-2.07-1.09-3.92-1.72-5.73
			c-0.12-0.36-0.76-0.54-1.16-0.8c-0.16,0.43-0.52,0.9-0.44,1.28c0.4,1.8,0.88,3.59,1.44,5.34c0.12,0.39,0.71,0.63,1.08,0.93
			C876.01,314.68,876.3,314.31,876.52,314.02z M571.81,419.41c-1.82,4.76-2.39,9.74-1.37,15.26
			C570.92,429.33,571.37,424.37,571.81,419.41z M640.63,225.3c0.68,2.17,1.36,4.34,2.09,6.66
			C644.94,230.09,644.09,226.87,640.63,225.3z M638.99,231.48c0.21-0.09,0.41-0.18,0.62-0.27c-0.36-3.82-1.09-5.09-3.53-5.37
			C637.14,227.89,638.06,229.69,638.99,231.48z M631.1,318.11c2.21-1.25,1.58-2.92,1.8-4.25c0.05-0.33-0.46-0.75-0.71-1.13
			c-0.36,0.3-1,0.58-1.03,0.92C631.03,314.93,631.1,316.24,631.1,318.11z M444.89,435.56c0.02,0.26,0.06,0.75,0.15,1.97
			c2.17-1.43,3.97-2.63,5.78-3.82c-0.1-0.18-0.2-0.35-0.3-0.53C448.75,433.92,446.99,434.67,444.89,435.56z M628.09,318.06
			c0.3,0.06,0.6,0.12,0.9,0.18c0.27-0.81,0.69-1.61,0.74-2.43c0.01-0.23-1.03-0.53-1.98-0.98
			C627.9,316.27,627.99,317.16,628.09,318.06z"/>
		<path d="M585.13,408.1c-1.76-0.49-3.49-1.24-5.28-1.41c-8.17-0.79-16.32-0.6-24.01,2.63c-3.05,1.28-5.82,3.28-8.6,5.13
			c-1.71,1.15,0.14,2.33,0.19,3.6c0.96-0.39,1.78-0.72,2.6-1.05c0.14,0.14,0.28,0.27,0.42,0.41c-0.64,1.3-1.27,2.6-2.04,4.17
			c2.51,0.22,2.89,1.75,2.9,3.38c0.01,2.24-0.15,4.48-0.24,6.72c-0.04,0.85-0.09,1.7-0.13,2.55c0.21,0.03,0.42,0.07,0.63,0.1
			c0.33-1.59,0.67-3.17,1.01-4.76c0.53-2.47-0.01-5.28,2.24-7.22c0.22-0.19,0.45-0.4,0.72-0.52c0.17-0.08,0.41-0.04,1.02-0.08
			c-2.24,10.11-4.45,20.05-6.66,30c0.07,0.04,0.15,0.07,0.22,0.11c1.72-5.77,3.48-11.52,5.15-17.31c1.67-5.76,0.94-12.02,3.19-17.9
			c2.61,2.08,1.82,4.52,1.79,6.79c-0.06,4.26-0.21,8.53-0.13,12.79c0.02,1.29,0.54,2.63,1.07,3.84c0.92,2.1,1.18,2.17,3.33,1.95
			c-0.62,1.8-2.22,2.29-3.32,0.68c-1.2-1.78-2-3.95-2.49-6.07c-0.4-1.7-0.08-3.57-0.55-5.45c-0.25,1-0.73,1.99-0.72,2.99
			c0.03,8.66-4.12,15.91-7.76,23.32c-1.52,3.1-3.28,6.09-4.59,9.27c-0.84,2.04,1.03,3.43,2.38,4.36c3.55,2.47,7.2,4.86,11.04,6.8
			c2.77,1.4,5.91,2.11,9.11,0.96c3.76-1.35,7.54-2.63,11.94-4.17c-3.28-2.42-3.45-5.34-3.96-8.23c-0.33-1.85,0.51-2.33,1.83-2.62
			c1.75-0.38,3.56-0.51,5.3-0.92c0.83-0.2,1.57-0.8,2.34-1.23c0.18-0.1,0.35-0.33,0.53-0.33c2.41-0.02,4.82-0.02,7.42,0.4
			c-2.16,0.68-4.3,1.45-6.49,2.01c-2.46,0.63-5,0.97-7.44,1.66c-0.58,0.16-1.43,1.38-1.28,1.8c0.69,1.91,1.64,3.73,2.63,5.51
			c0.15,0.27,1.12,0.4,1.5,0.19c1.96-1.05,4.14-1.93,5.72-3.41c4.17-3.92,8.96-7.36,11.68-12.61c4.43-8.55,6.34-17.69,5.84-27.31
			c-0.21-4.04-0.51-8.07-0.81-12.1c-0.06-0.76-0.32-1.51-0.94-2.24c-1.05,4.21,0.07,8.45,0.04,12.65c-0.19,0.02-0.39,0.04-0.58,0.06
			c-0.5-2.61-0.99-5.22-1.49-7.83c-0.26,0-0.52,0.01-0.77,0.01c-0.86,2.31,0.28,4.8-0.14,7.86c-0.53-1.6-1.04-2.61-1.18-3.66
			c-0.45-3.26-0.75-6.51,0.71-9.66c0.43-0.92,0.49-2,0.86-2.95c0.17-0.44,0.69-0.74,1.05-1.1c0.12,0.45,0.43,0.96,0.33,1.35
			c-0.43,1.65-1,3.26-1.47,4.9c-0.17,0.58-0.19,1.21,0.21,1.92c0.67-2.2,1.31-4.41,2.01-6.6c0.36-1.14,0.65-2.35,1.29-3.33
			c0.52-0.8,1.5-1.31,2.28-1.95c0.19,0.19,0.38,0.39,0.57,0.58c-0.11,0.23-0.15,0.55-0.33,0.69c-2.1,1.6-2.61,3.63-1.93,6.15
			c2.03,7.58,2.62,15.35,2.08,23.13c-0.81,11.83-5.24,22.05-14.45,29.86c-3.17,2.68-6.46,5.22-9.76,7.87
			c-0.08-0.11,0.11,0.16,0.09,0.12c-3.83,1.44-7.72,2.9-11.68,4.39c1.35,2.51,3.52,0.8,4.96,1.31c0.47,2.85,0.89,5.62,1.43,8.36
			c0.08,0.42,0.74,0.82,1.22,1.06c1.99,0.97,4.02,1.86,6.02,2.81c3.33,1.58,5.2,4.53,7.01,7.54c0.21,0.34,0.48,0.65,0.48,0.65
			c2.02-1.22,3.74-2.76,5.74-3.36c3.67-1.12,5.49,0,6.8,3.54c1.74,4.72,1.1,9.01-2.16,12.98c-2.96,3.6-6.52,6.05-11.15,6.83
			c-2.09,0.35-3.96,0.01-5.65-1.52c-1.13-1.02-2.61-1.65-3.93-2.45c0.06-0.22,0.12-0.45,0.18-0.67c1.39,0.38,2.82,0.62,4.14,1.16
			c1.62,0.67,2.72,0.8,2.9-1.41c0.38-4.51,1.56-9.11,0.99-13.48c-0.34-2.62-3.04-5.25-5.27-7.21c-1.87-1.65-4.58-2.35-7.08-3.54
			c-0.52,4.21-1.27,8.02-4.59,10.76c-4.28,3.54-8.87,3.94-13.81,1.63c-1.01-0.48-2.07-0.93-2.97-1.57c-2.97-2.12-5.77-1.62-8.6,0.28
			c-2.1,1.41-4.24,2.77-6.43,4.04c-1.36,0.79-1.9,1.87-1.65,3.35c0.86,4.97,1.76,9.94,2.7,15.15c4.7-2.36,7.5-6.98,12.92-6.98
			c-1.56,1.03-3.2,1.95-4.65,3.12c-2.38,1.91-4.62,3.99-6.94,5.98c-0.98,0.84-3.12,0.44-3.37-0.75c-1.16-5.53-2.23-11.08-3.25-16.64
			c-0.29-1.62,0.46-2.92,1.89-3.76c3.59-2.11,7.11-4.34,10.78-6.3c4.23-2.26,7.04-5.21,7.08-10.39c0.02-2.16,0.95-4.32,1.48-6.47
			c0.17-0.71,0.37-1.42,0.44-1.7c-5.47-3.44-10.72-6.75-16.34-10.29c-3.64,5.68-7.48,11.7-11.33,17.71
			c-0.22-0.13-0.44-0.26-0.66-0.4c1.23-2.18,2.45-4.36,3.68-6.53c-0.13-0.13-0.27-0.27-0.4-0.4c-1.77,1.76-3.55,3.52-5.6,5.55
			c3.35-7.55,7.58-14.34,10.31-21.79c-0.24-0.14-0.48-0.27-0.72-0.41c-0.43,0.6-0.94,1.16-1.27,1.81
			c-4.44,8.63-8.85,17.27-13.29,25.89c-0.9,1.75-1.17,1.77-2.36,1.02c3.07-6.03,6.11-12.01,9.16-18c-0.17-0.1-0.34-0.19-0.5-0.29
			c-3.01,2.82-3.01,7.87-7.35,10.5c1.44-2.84,2.58-5.1,3.72-7.36c-2.81,0.88-3.79,4.05-6.85,4.77c2.88-4.78,5.57-9.24,8.16-13.54
			c-1.58,0.35-3.11,0.62-4.58,1.08c-0.46,0.14-0.81,0.79-1.12,1.26c-2.18,3.31-4.3,6.65-6.51,9.94c-0.44,0.65-1.15,1.17-1.83,1.58
			c-0.26,0.16-0.88-0.05-1.18-0.28c-0.16-0.13-0.13-0.72,0.01-1c0.72-1.37,1.85-2.62,2.2-4.06c0.79-3.24,2.54-6.45,1.07-10.09
			c0.31,0.33,0.62,0.66,1.1,1.18c0.51-1.15,1.04-2.2,1.44-3.29c2.35-6.33,4.73-12.65,6.97-19.02c2.31-6.58,3.52-13.37,3.32-20.39
			c-0.04-1.26,0.44-2.53,1.08-3.7c1.87,12.83-1.62,24.66-6.85,36.17c0.28,0.09,0.56,0.17,0.84,0.26c1.77-4.05,3.58-8.08,5.3-12.15
			c0.69-1.64,1.13-3.39,1.8-5.04c1.8-4.47,0.61-9.17,1.15-13.74c0.3-2.51,0.37-5.04,0.62-7.55c0.04-0.42,0.48-0.82,0.76-1.21
			c2.07-2.81,5.27-3.87,8.12-5.58c6.58-3.94,13.64-6.59,20.9-8.73c2.91-0.86,6.12-0.85,9.2-0.91c6.39-0.12,12.78,0.07,19.01,2.28
			c-0.94,0-1.89,0-2.83,0c-0.05,0.14-0.09,0.29-0.14,0.43c0.36,0.18,0.72,0.35,1.08,0.53l0.02,0c-1.02-0.07-2.03-0.15-3.05-0.22
			C585.09,408.06,585.13,408.1,585.13,408.1z M556.43,500.05c1.27,0.75,2.92,1.75,4.6,2.7c0.65,0.37,1.34,0.66,2.04,0.91
			c4.64,1.64,9.64-0.62,11.31-5.25c1.66-4.61,1.03-9.34,0.39-14.04c-0.05-0.37-0.41-0.89-0.73-0.99c-3.1-0.95-5.92-3.6-9.52-1.65
			c-0.24,0.13-0.59,0.11-0.89,0.08c-1.43-0.17-2.18,0.52-2.12,1.89c0.1,2.39-1.02,3.87-3.12,4.79c-0.18,0.08-0.25,0.41-0.43,0.72
			c0.83-0.09,1.46-0.16,2.09-0.23c0.08,0.76,0.44,1.64,0.19,2.27C559.11,494.11,557.81,496.9,556.43,500.05z M590.59,519.96
			c6.62-0.62,13.71-7.16,12.71-15.4c-0.27-2.24-1-4.61-3.39-5.37c-2.48-0.8-3.94,1.34-5.42,2.84c-0.91,0.92-1.49,2.16-2.23,3.28
			c0.54,0.38,0.89,0.62,0.88,0.62C592.28,510.73,591.44,515.3,590.59,519.96z M541.2,426.45c-0.72,2.29-1.88,4.82-2.26,7.47
			c-0.39,2.67,0,5.44,0.04,8.17c0.29,0.02,0.59,0.05,0.88,0.07c0.95-2.37,2.39-4.66,2.75-7.11c0.46-3.19-0.35-6.57,0.17-9.75
			c0.52-3.23-1.77-6.73,0.98-9.69c0.01-0.01-0.16-0.19-0.5-0.61c-0.56,0.84-1.35,1.52-1.5,2.33c-0.64,3.29-1.09,6.61-1.63,10.05
			C540.66,426.92,541.11,426.52,541.2,426.45z M529.06,457.99c-0.18-0.05-0.37-0.11-0.55-0.16c-1.93,4.17-3.86,8.34-5.78,12.52
			c0.22,0.1,0.44,0.2,0.65,0.3C526.53,467,527.27,462.25,529.06,457.99z M536.13,450.56c0.29,0.03,0.58,0.06,0.87,0.09
			c-0.2-2.75,3.65-4.79,0.73-8.4C537.15,445.26,536.64,447.91,536.13,450.56z M539.54,470.47c-0.2-0.07-0.4-0.15-0.6-0.22
			c-1.62,2.95-3.24,5.91-4.86,8.86c0.21,0.12,0.42,0.23,0.63,0.35C536.5,476.56,538.82,473.97,539.54,470.47z"/>
		<path d="M764.23,495.03c-0.69,1.13-1.07,2.11-1.75,2.8c-3.77,3.84-7.49,7.76-11.46,11.38c-4.53,4.13-12.22,5.07-16.34,1.59
			c-3.28-2.77-5.22-6.45-6.53-10.5c-1.29-3.99-0.38-7.82,0.83-11.6c2.18-6.84,4.89-13.47,8.89-19.46c2.46-3.67,5.22-7.14,7.82-10.72
			c0.7-0.97,1.26-2.03,1.9-3.04c3.14-4.9,6.33-9.77,9.4-14.71c0.9-1.44,1.5-3.07,2.19-4.64c0.65-1.48,1.57-2.46,3.34-2.37
			c0.56,0.03,1.2-0.1,1.69-0.37c6.79-3.82,14.3-5.52,21.67-7.73c6.68-2,13.42-3.15,20.29-2.34c4.94,0.58,9.8,1.96,14.65,3.18
			c6.64,1.68,12.54,4.79,17.19,9.91c2.32,2.56,3.54,5.7,4.53,9.08c2.05,6.99,4.66,13.82,6.94,20.75c1.39,4.22,3.52,8.24,3.32,12.91
			c-0.04,1,1.01,2,1.18,3.06c0.79,4.98-0.39,9.75-1.79,14.48c-0.27,0.92-0.52,1.85-0.68,2.79c-0.95,5.5-5.52,7.99-9.39,10.89
			c-2.19,1.64-4.91,2.93-7.58,3.5c-3.8,0.82-7.03-1.49-10.22-3.25c-4.51-2.48-8.9-5.19-13.46-7.54c-1.42-0.73-3.27-0.65-4.92-0.94
			c0.01,1.67-0.42,3.49,0.09,5c1.88,5.57,2.01,10.92-1.45,16.8c19.81,0.34,38.95,3.71,58.57,2.36c0.33-2.3,0.42-4.77,1.07-7.07
			c1.18-4.15,2.91-7.89,7.74-9.22c3.19-0.87,4.9,1.02,6.46,2.91c3.63,4.4,2.3,10.15-2.73,14.24c-2.99,2.44-6.22,4.9-8.3,8.04
			c-1.98,2.99-3.06,6.79-3.73,10.38c-1.18,6.29-1.59,12.72-2.62,19.04c-0.89,5.4-6.05,10.14-11.46,10.97
			c-0.8,0.12-1.89,0.28-2.41-0.13c-1.96-1.55-3.46-0.24-5.26,0.32c-2.49,0.77-5.17,1.35-7.76,1.32c-2.95-0.04-4.34-3.35-2.53-5.76
			c1.92-2.55,2.54-6.09,6.04-7.48c1.18-0.47,0.7-3.93-0.52-5.57c-2.29-3.05-5.58-4.21-9.14-4.68c-5.93-0.8-8.84,2.02-8.07,8.04
			c0.31,2.4,1.32,4.73,2.16,7.04c1.23,3.41,2.46,6.81,1.17,10.45c-0.3,0.83-1,1.91-1.72,2.11c-3.86,1.08-7.75,2.4-11.71,2.71
			c-3.94,0.32-6.43-2.7-8.52-5.74c-0.59-0.86-1.1-1.77-1.49-2.39c-2.98,0.31-5.82,0.74-8.67,0.86c-5.73,0.23-7.74-5.97-5.25-10.32
			c0.66-1.15,1.09-2.43,1.62-3.65c0.12-0.27,0.18-0.67,0.39-0.78c4.19-2.26,7.16-7.24,13.47-5.42
			c-6.21-9.77-15.45-17.08-16.79-28.92c4.88,12.42,13.97,21.91,22.15,32.33c-0.79-0.3-1.47-0.56-2.62-0.99
			c1.48,4.86-1.42,8.67-2.27,13c0.7,0.05,1.3,0.09,1.9,0.13c-0.02,0.3,0.03,0.52-0.04,0.57c-2.42,1.85-2.54,2.39-0.75,4.96
			c0.77,1.1,1.66,2.13,2.59,3.09c1.99,2.05,4.4,2.28,7.03,1.5c1.79-0.53,3.58-1.07,5.4-1.43c1.6-0.32,2.41-1.1,2.81-2.72
			c0.94-3.84-0.45-7.32-1.77-10.66c-1.91-4.84-2.27-9.37,0.8-13.77c0.55-0.8,1.51-1.81,2.32-1.85c5.81-0.26,11.44,0.48,15.68,5
			c1.42,1.51,2.24,3.59,3.42,5.54c0.6,0,1.59,0,2.61,0c-0.05,0.3-0.04,0.51-0.11,0.54c-3.1,1.47-3.13,1.48-1.59,4.62
			c0.65,1.31,1.48,2.53,2.37,4.01c0.9-1.06,1.56-1.83,2.22-2.61c0.19,0.09,0.39,0.19,0.58,0.28c-0.17,0.73-0.32,1.46-0.53,2.18
			c-0.63,2.11,0.31,3.19,2.51,2.74c4.63-0.94,7.41-4.06,8.4-8.39c1.26-5.52,1.85-11.19,2.88-16.77c0.71-3.83,1.24-7.81,2.72-11.36
			c1.06-2.53,3.43-4.59,5.46-6.6c3.81-3.78,7.97-7.25,9.63-12.65c0.64-2.09-0.92-5.06-3.38-6.47c-1.34-0.78-3.63,0.03-5.18,1.61
			c-3.91,4.01-4.15,8.99-3.96,14.31c-0.36,0.11-0.84,0.37-1.32,0.38c-9.77,0.22-19.51,0.88-29.3-0.28
			c-7.26-0.86-14.62-0.89-21.93-1.47c-3.09-0.25-6.14-0.99-9.2-1.49c-0.42-0.07-0.95-0.21-1.27-0.03
			c-4.68,2.51-9.65,1.47-14.28,0.46c-4.95-1.08-9.82-3.04-14.36-5.34c-2.97-1.5-5.59-4.03-7.86-6.55c-3.8-4.24-3.33-9.54-2.67-14.74
			C763.87,497.49,764.05,496.32,764.23,495.03z M806.73,499.93c3.57,1.46,7.31,2.73,10.81,4.47c3.95,1.95,7.65,4.39,11.54,6.46
			c3.33,1.78,6.69,2.02,9.9-0.48c1.3-1.01,2.83-1.74,4.02-2.86c2.35-2.23,5.49-3.93,6.2-7.45c0.89-4.4,1.59-8.84,2.25-13.29
			c0.19-1.31,0.07-2.7-0.13-4.02c-1.15-7.59-3.81-14.72-6.65-21.82c-1.57-3.92-3.1-7.96-3.86-12.09c-2.04-11.05-8.76-18.08-20-20.22
			c-3.89-0.74-7.8-1.38-11.66-2.24c-7-1.56-13.8-0.54-20.54,1.4c-4.07,1.18-8.15,2.34-12.17,3.68c-2.81,0.93-5.66,1.91-8.23,3.33
			c-1.79,0.98-3.15,2.1-4.33,0.32c-6.66,10.33-13.14,20.84-20.09,31.03c-4.96,7.27-9.04,14.85-11.75,23.25
			c-2.19,6.8-1.38,12.74,3.3,18.2c2.99,3.48,6.66,4.74,10.27,1.96c5.48-4.21,10.51-9.05,15.4-13.95c1.24-1.25,2.32-2.17,3.94-2.75
			c1.58-0.57,2.18,0.12,2.18,1.42c0,1.71-0.19,3.44-0.5,5.12c-1.15,6.17,0.03,11.76,5.04,15.73c7.72,6.12,16.63,9.3,26.58,9.21
			c2.97-0.03,4.91-1.79,5.82-4.63c2.01-6.25-1.13-12.01-1.14-18.13c-1.18,0-1.96,0-2.74,0c4.65,0.17,3.36-5.31,6.54-6.87
			C806.73,496.7,806.73,498.45,806.73,499.93z M799.05,574.04c-0.08-0.25-0.17-0.51-0.25-0.76c0.36-1.4,0.64-2.83,1.1-4.2
			c0.81-2.38,1.93-4.66,2.58-7.08c0.71-2.66-0.43-4.05-3.15-3.97c-1.2,0.03-2.5,0.42-3.55,1.01c-3.86,2.17-6.46,5.56-8.36,9.47
			c-1.66,3.43,0.15,6.46,3.97,6.46C793.95,574.98,796.5,574.37,799.05,574.04z M838.3,565.62c-2.7,1.92-3.85,4.85-4.97,7.7
			c-0.43,1.1,0.18,2.46,1.75,2.55c3.17,0.18,5.84-1.12,8.31-2.81C841.66,570.51,840.08,568.21,838.3,565.62z"/>
		<path d="M457.16,663.71c5.96-0.8,11.59-1.61,17.25-2.3c5.16-0.63,10.33-1.09,15.49-1.73c0.5-0.06,1.21-0.89,1.27-1.42
			c0.13-1.25,0.26-2.66-0.19-3.78c-2.41-5.96-0.87-12.15-1.02-18.2c-0.15-6.16,0.9-12.35,1.33-18.54c0.46-6.56,0.97-13.12,1.15-19.7
			c0.12-4.62-0.18-9.25-0.46-13.87c-0.31-5.24-0.41-10.54-1.29-15.7c-1.62-9.44-1.13-18.91-1.26-28.38
			c-0.08-5.93,0.31-11.93-1.69-17.72c-0.33-0.97,0.27-2.28,0.52-3.42c0.34-1.57,1.05-3.11,1.09-4.68
			c0.38-13.24,0.58-26.48,0.99-39.72c0.14-4.71,1.02-9.4,1.01-14.1c-0.02-10.81,0.68-21.69-2.3-32.38
			c-6.99,2.03-14.14,4.28-21.38,6.17c-7.13,1.86-14.36,3.35-21.55,5c-0.13-0.23-0.26-0.46-0.38-0.69c0.47-0.56,0.84-1.45,1.42-1.63
			c2.7-0.83,5.44-1.57,8.2-2.15c10.89-2.3,21.83-4.34,32.26-8.39c0.35-0.13,0.72-0.2,1.08-0.29c3.18-0.82,3.14-0.82,3.52,2.4
			c0.69,5.93,1.78,11.85,2.08,17.8c0.34,6.77,0.11,13.58-0.06,20.37c-0.23,8.97-0.67,17.94-0.95,26.91
			c-0.28,9.2-0.56,18.4-0.68,27.61c-0.13,9.35-0.25,18.71-0.03,28.06c0.23,9.56,0.88,19.11,1.35,28.66
			c0.4,8.13,1.07,16.26,1.13,24.39c0.04,5.51-0.67,11.04-1.21,16.55c-1.17,11.85-2,23.69-0.48,35.58c0.23,1.77,0.31,3.58,0.2,5.35
			c-0.04,0.57-0.84,1.48-1.39,1.57c-2.56,0.42-5.17,0.55-7.75,0.88c-5.38,0.68-10.76,1.39-16.14,2.14c-2.87,0.4-5.76,0.77-8.59,1.41
			C458.01,666.16,457.83,665.2,457.16,663.71z"/>
		<path d="M711.75,171.9c-0.23,1-0.2,1.51-0.44,1.82c-4.07,5.33-4.86,11.78-5.45,18.04c-0.74,7.88-0.81,15.86-0.63,23.79
			c0.1,4.65,1.7,9.1,3.86,13.35c1.34,2.63,2.02,5.61,2.88,8.47c2.1,6.95,4.13,13.91,6.15,20.72c3.18-0.98,6.24-2.03,9.36-2.86
			c2.13-0.57,2.11-1.68,1.27-3.31c-0.38-0.74-0.55-1.59-0.81-2.39c0.26-0.17,0.51-0.33,0.77-0.5c0.85,1.06,1.9,2.01,2.49,3.19
			c0.7,1.41,1.53,1.62,2.86,1.1c1.46-0.57,2.94-1.09,4.43-1.57c1.73-0.55,3.33-0.58,4.65,1.62c-3.15,0.86-6.07,1.6-8.93,2.5
			c-0.57,0.18-0.95,0.99-1.41,1.5c0.69,0.38,1.35,1,2.08,1.09c0.77,0.09,1.61-0.26,2.39-0.51c1.68-0.52,3.23-0.65,4.54,1.42
			c-0.72,0.29-1.37,0.64-2.06,0.81c-1.37,0.33-2.81,0.44-4.15,0.86c-1.16,0.36-1.73,1.03-1.28,2.56c0.54,1.82,0.52,3.8,0.75,5.82
			c2.69,0.42,5.41,0.84,8.12,1.28c0.81,0.13,1.67,0.2,2.4,0.54c0.64,0.3,1.13,0.94,1.68,1.43c-0.73,0.13-1.48,0.46-2.18,0.37
			c-2.58-0.36-5.14-0.91-7.72-1.28c-1.71-0.25-3.14-0.04-3.77,2.1c-0.69,2.33-1.79,2.83-4.11,2.09c-1.1-0.35-2.23-0.99-3.02-1.81
			c-0.71-0.73-1.19-1.88-1.29-2.89c-0.03-0.32,1.47-0.95,2.33-1.16c1.51-0.35,3.07-0.48,4.6-0.7c0-1.86,0.04-3.64-0.01-5.41
			c-0.04-1.23-0.65-1.8-1.92-1.35c-2.11,0.73-4.22,1.45-6.48,2.22c-0.39-0.7-0.77-1.37-1.33-2.37c1.95-0.68,3.74-1.33,5.55-1.94
			c0.63-0.21,1.44-0.14,1.92-0.51c0.49-0.38,0.67-1.15,0.98-1.75c-0.58-0.21-1.24-0.7-1.74-0.58c-3.28,0.79-6.54,1.71-10.06,2.66
			c0.81,2.61,1.76,5.71,2.91,9.41c0.93-1.46,1.52-2.39,2.12-3.33c0.08,2.99-3.07,5.63,0.29,9.07c-3.47-0.45-4.1,1.69-5.26,3.51
			c-7.66,12.05-10.24,25.49-11.01,39.45c-0.17,2.99,0.05,6.02-0.32,8.98c-0.25,1.96-1.22,3.82-1.88,5.73c-0.33-0.07-0.66-0.14-1-0.2
			c0-1.49-0.04-2.98,0.01-4.46c0.12-4.11-0.02-8.25,0.48-12.32c0.7-5.67,1.78-11.3,2.89-16.91c0.56-2.84,1.74-5.55,2.27-8.39
			c0.75-4,3.12-7.18,4.93-10.64c1.03-1.98,2.36-3.8,3.62-5.65c1.49-2.18,1.05-4.46,0.33-6.68c-3-9.17-6-18.34-9.16-27.46
			c-2.25-6.49-4.75-12.9-7.12-19.35c-1.36-3.71-1.82-7.46-1.19-11.46c0.55-3.45,0.33-7.02,0.58-10.52
			c0.53-7.49,1.76-14.86,4.64-21.83C707.98,175.27,708.87,173.05,711.75,171.9z M731.72,271.76c-1.5,0.21-2.57,0.35-3.84,0.53
			C729.63,274.61,730.25,274.55,731.72,271.76z"/>
		<path d="M548.5,585.92c-0.34,0-0.68,0-1.38,0c4.24-3.41,4.8-8.35,6.65-12.42c-3.42-1.38-6.52-2.62-9.64-3.87
			c2.56-5.01,5.32-9.65,7.34-14.59c2.27-5.57,4.98-11.22,3.6-17.56c-0.62-2.83-1.65-5.57-2.41-8.38c-0.46-1.71-0.87-3.45-1.02-5.2
			c-0.06-0.66,0.7-1.39,1.08-2.08c0.37,0.58,0.89,1.12,1.08,1.76c1.37,4.72,2.68,9.47,3.99,14.21c0.33,1.19,0.56,2.41,0.84,3.62
			c0.06,0.27,0.1,0.58,0.27,0.77c0.98,1.15,7.12,2,8.61,1.85c7.73-0.77,8.83-6.91,10.21-12.6c1.02-4.24,1.95-8.59,1.22-13.06
			c-0.09-0.51,0.57-1.15,0.88-1.73c0.27,0.05,0.54,0.11,0.81,0.16c0.19,1.04,0.48,2.06,0.55,3.11c0.35,5.39-0.16,10.68-1.99,15.8
			c-1.11,3.11-2.29,6.31-5.39,7.98c-2.65,1.43-5.47,2.6-8.33,3.55c-0.8,0.26-2.03-0.59-2.99-1.06c-1.61-0.79-3.16-1.7-4.95-2.67
			c-1.76,9.2-6.25,16.67-9.91,24.48c2.91,2.34,5.8,3.2,7.93,2.78c1.64,0.97,2.68,1.76,3.84,2.24c2.47,1.03,4.98,2.01,7.54,2.79
			c2.05,0.63,4.17,1.13,6.3,1.31c1.41,0.12,2.48-0.72,2.51-2.5c0.1-6.87-1.06-13.54-2.85-20.13c-0.71-2.61-1.51-5.2-2.27-7.8
			c0.22-0.14,0.43-0.27,0.65-0.4c0.5,0.5,1.23,0.91,1.46,1.51c3.09,8.22,5.06,16.66,4.89,25.5c-0.08,4.08-1.84,5.72-6,5.72
			c-0.29,0-0.59,0.02-0.87,0.04c0,2.11,0.51,4.33-0.1,6.17c-1.43,4.35-0.11,8.01,1.78,11.75c0.48,0.94,0.79,2.17,0.62,3.17
			c-0.12,0.67-1.22,1.66-1.89,1.67c-2.78,0.02-5.73,0.49-8.11-1.5c-0.63-0.52-1.35-1.54-1.26-2.23c0.62-4.43,1.44-8.83,2.21-13.24
			c0.41-2.33,0.85-4.66,1.27-6.89c-1.95-0.85-3.69-1.72-5.52-2.35c-0.85-0.29-1.88-0.03-2.8-0.2c-0.47-0.09-0.86-0.59-1.4-0.98
			c-1.85,4.24-3.72,8.58-5.65,12.9c-1.02,2.28-2.09,2.49-4.44,1.7c-1.36-0.46-2.93-0.41-4.39-0.32c-0.33,0.02-0.98,1.34-0.8,1.78
			c0.95,2.34,1.95,4.7,3.26,6.85c1.29,2.13,3.02,2.21,4.81,0.43c3.58-3.55,6.88-7.3,8.67-12.14c0.18-0.49,0.44-0.95,0.69-1.41
			c0.06-0.11,0.23-0.16,0.9-0.59c0.06,1.2,0.41,2.22,0.1,2.96c-2.15,5.2-5.53,9.56-9.69,13.27c-2.12,1.89-5.14,1.3-6.81-1.23
			c-1.56-2.36-2.92-4.86-4.24-7.36c-0.87-1.64,0.3-3.66,2.41-3.92c1.98-0.24,4.01-0.02,6.01-0.12c0.79-0.04,1.56-0.38,2.34-0.58
			C548.65,586.38,548.57,586.15,548.5,585.92z M571.48,599.94c-0.77-1.55-1.57-2.69-1.91-3.95c-0.6-2.19-1.24-4.45-1.29-6.69
			c-0.07-3.04,0.42-6.08,0.65-9.12c0.1-1.34-0.53-1.94-1.85-1.73c-1.04,5.32-2.12,10.56-3.06,15.83c-0.77,4.32,0.62,5.84,5.07,5.81
			C569.73,600.08,570.38,600.01,571.48,599.94z"/>
		<path d="M829.74,181.71c-0.1,2.23-0.05,4.48-0.33,6.69c-0.77,6.17-1.9,12.3-2.45,18.48c-0.62,7.01-0.79,14.05-1.1,21.08
			c-0.24,5.39-0.59,10.78-0.59,16.18c0.01,8.53,0.46,17.07,0.37,25.6c-0.09,7.7-0.5,15.41-1.08,23.1
			c-0.45,6.04-1.2,12.07-2.11,18.05c-0.95,6.27-2.33,12.48-3.35,18.75c-1.33,8.18-2.54,16.37-3.69,24.58
			c-1.02,7.24-1.91,14.51-2.81,21.77c-0.39,3.12-0.6,6.26-1.01,9.38c-0.07,0.53-0.73,0.98-1.11,1.47c-0.43-0.47-1.25-0.95-1.23-1.4
			c0.1-3.14,0.27-6.28,0.62-9.39c0.5-4.52,1.22-9.01,1.77-13.53c1.13-9.35,2.06-18.73,3.36-28.05c1.11-7.99,2.68-15.91,3.96-23.88
			c1-6.21,2.11-12.41,2.73-18.65c0.6-6.1,0.73-12.25,0.92-18.38c0.23-7.78,0.28-15.57,0.45-23.35c0.19-8.75,0.15-17.53,0.71-26.26
			c0.75-11.54,1.25-23.14,3.89-34.49c0.45-1.93,0.23-4.01,0.43-6.01c0.06-0.64,0.47-1.25,0.72-1.87
			C829.11,181.62,829.42,181.66,829.74,181.71z"/>
		<path d="M757.67,363.92c-0.49,0-1.4,0.14-2.22-0.05c-0.53-0.12-1.28-0.69-1.35-1.15c-0.34-2.12-0.79-4.31-0.62-6.42
			c0.43-5.14,1.24-10.25,1.78-15.38c1.04-9.82,2.39-19.63,2.88-29.47c0.62-12.25,0.38-24.54,0.73-36.8
			c0.26-9.2,0.77-18.4,1.35-27.59c0.39-6.27,1.03-12.53,1.68-18.78c1.19-11.37,2.35-22.74,3.79-34.07c0.63-4.93,1.9-9.77,2.94-14.64
			c0.14-0.64,0.7-1.19,1.06-1.79c0.25,0.03,0.5,0.05,0.75,0.08c0.09,0.85,0.36,1.72,0.24,2.54c-0.5,3.4-1.23,6.76-1.66,10.17
			c-1.23,9.77-2.36,19.56-3.53,29.34c-0.67,5.57-1.41,11.13-1.97,16.71c-0.36,3.64-0.49,7.3-0.67,10.96
			c-0.52,10.68-1.12,21.36-1.46,32.05c-0.22,6.94,0.19,13.91-0.11,20.85c-0.38,8.59-1.14,17.16-1.87,25.73
			c-0.77,9.02-1.7,18.02-2.55,27.02c-0.2,2.15-0.6,4.31-0.52,6.45C756.41,361.07,757.18,362.43,757.67,363.92z"/>
		<path d="M642.29,326.11c3.09-6.72,1.17-13.06,1.34-19.3c0.22-8.15,0.77-16.29,1.11-24.44c0.11-2.54-0.03-5.09,0.02-7.64
			c0.05-2.12-0.46-4.37,1.5-6.08c0.32-0.28,0.21-1.11,0.23-1.69c0.16-6.72,0.3-13.45,0.44-20.17c0.09-4.49,0.09-8.98,0.29-13.46
			c0.35-7.55,0.61-15.12,1.33-22.64c0.42-4.35,1.56-8.65,2.58-12.93c1.26-5.3,2.85-10.52,4.05-15.83c0.69-3.08,0.38-6.19-0.97-9.16
			c-0.28-0.61,0.05-1.55,0.24-2.31c0.05-0.21,0.84-0.47,0.89-0.4c0.42,0.55,0.94,1.14,1.07,1.79c0.47,2.27,1.26,4.6,1.09,6.84
			c-0.28,3.61-1.11,7.19-1.9,10.74c-1.97,8.76-4.45,17.41-4.77,26.46c-0.44,12.42-0.89,24.84-1.36,37.27
			c-0.2,5.16-0.26,10.33-0.79,15.46c-1.35,12.95-2.03,25.93-2,38.95c0.01,4.34,0.24,8.68-0.05,13c-0.1,1.55-1.37,3.05-2.24,4.49
			C644.12,325.47,643.37,325.58,642.29,326.11z"/>
		<path d="M595.64,322.54c-0.14-1.95-0.13-3.28-0.35-4.57c-0.42-2.42-1.28-4.81-1.41-7.24c-0.18-3.4,0.05-6.84,0.29-10.24
			c0.37-5.3,0.95-10.58,1.35-15.88c0.49-6.56,0.76-13.14,1.38-19.68c0.33-3.45,1.25-6.85,1.83-10.28c0.32-1.9,0.51-3.82,0.74-5.73
			c0.96-7.99,1.73-16.01,2.92-23.97c0.77-5.16,2.18-10.22,3.23-15.34c1.81-8.78,3.58-17.56,5.31-26.35
			c0.27-1.38,0.11-2.85,0.35-4.25c0.08-0.47,0.79-0.83,1.21-1.24c0.32,0.48,0.96,1.02,0.9,1.44c-1.22,7.51-2.49,15.01-3.81,22.5
			c-0.85,4.78-1.83,9.54-2.69,14.32c-1.63,9.05-3.54,18.06-4.75,27.17c-1.25,9.41-1.79,18.91-2.65,28.37
			c-0.81,8.94-1.82,17.87-2.36,26.82c-0.32,5.39-1.13,10.83,0.27,16.26c0.5,1.95,0.14,4.16-0.01,6.23
			C597.36,321.35,596.52,321.74,595.64,322.54z"/>
		<path d="M673.63,187.18c-1.13,0.21-2.57,0.53-4.03,0.72c-0.8,0.11-1.68,0.19-2.42-0.04c-0.58-0.18-1.01-0.86-1.5-1.31
			c0.59-0.33,1.15-0.82,1.79-0.95c1.97-0.38,3.99-0.52,5.94-0.99c0.53-0.13,1.18-1.06,1.23-1.67c0.15-1.99,0.06-4.01,0.06-6
			c2.02-0.11,2.22,0.08,2.32,2.32c0.06,1.33,0.01,2.66,0.01,4.73c4.37-1.6,8.24-3.02,12.11-4.44c0.48-0.18,0.98-0.54,1.44-0.49
			c0.49,0.05,0.94,0.49,1.4,0.77c-0.24,0.41-0.39,1.04-0.75,1.2c-1.35,0.62-2.76,1.12-4.17,1.62c-3.02,1.08-6.07,2.09-9.07,3.24
			c-0.53,0.2-1.19,0.88-1.23,1.38c-0.28,3.48-0.42,6.97-0.6,10.38c3.6,1.01,5.47-0.24,5.77-3.99c0.3,0.13,0.59,0.26,0.89,0.39
			c0.13,1.23,0.27,2.46,0.4,3.64c1.67,0.66,3.52,1.24,5.23,2.1c3.63,1.84,4.62,5.05,2.69,8.65c-1.45,2.71-3.52,4.82-6.44,5.97
			c-0.4,0.16-0.88,0.13-1.65,0.24c1.93-2.46,3.73-4.51,5.25-6.73c2.14-3.12,1.2-5.6-2.35-6.76c-3.71-1.22-3.65-1.19-5.14,2.41
			c-0.51,1.21-1.35,2.33-2.21,3.34c-1.14,1.36-1.32,2.65-0.72,4.35c0.36,1.02,0,2.29-0.04,3.45c-1.03-0.67-2.07-1.34-3.51-2.27
			c-0.31,0.17-1.21,0.64-2.1,1.13c-1.45,0.8-2.87,1.78-4.51,0.35c-1.74-1.52-2.92-3.34-2.31-5.7c0.9-3.47,3.02-6.2,6.13-7.9
			c1.65-0.9,2.37-1.68,2.17-3.71C673.41,193.49,673.63,190.36,673.63,187.18z M674.04,201.87c-3.87,1.39-4.85,4.41-5.14,7.69
			c-0.06,0.72,1.03,2.06,1.79,2.23c1.25,0.28,3.85-2.9,3.79-4.38C674.41,205.64,674.2,203.87,674.04,201.87z M679.85,200.55
			c-3.86-0.65-3.58-0.08-2.53,4.82C678.28,203.55,679,202.17,679.85,200.55z"/>
		<path d="M680.26,266.74c-10.15,0.09-12.47-6.18-12.32-14.07c0.03-1.79,2.02-3.67,3.37-5.28c1.72-2.04,3.71-3.85,5.58-5.76
			c-0.1-0.16-0.2-0.32-0.3-0.48c-2.34,0.7-4.73,1.26-7.01,2.13c-2.36,0.9-4.69,1.96-6.88,3.21c-1.23,0.71-2.02,0.41-2.72-0.46
			c-0.95-1.19,0.22-1.58,0.94-2.23c2.57-2.29,5.05-4.67,7.59-6.99c0.77-0.7,1.62-1.32,2.41-1.99c0.63-0.53,1.53-0.97,1.8-1.65
			c1.1-2.76,2.79-4.84,5.98-5.51c-0.12-0.19-0.23-0.38-0.35-0.57c-2.55,0.56-5.08,1.18-7.64,1.67c-1.3,0.25-2.65,0.33-3.98,0.33
			c-0.39,0-1-0.49-1.11-0.87c-0.09-0.31,0.33-1.06,0.66-1.16c1.5-0.45,3.04-0.77,4.58-1.08c3.88-0.77,7.76-1.52,11.64-2.26
			c0.44-0.08,0.91-0.21,1.33-0.12c0.53,0.11,1.02,0.43,1.52,0.65c-0.26,0.55-0.37,1.27-0.79,1.62c-2.44,2.06-5.17,3.82-7.4,6.08
			c-2.94,2.96-5.51,6.28-8.24,9.45c-0.22-0.15-0.45-0.29-0.67-0.44c2.05-0.62,4.11-1.22,6.15-1.86c2.06-0.65,4.09-1.43,6.19-1.96
			c0.64-0.16,1.43,0.29,2.16,0.46c-0.3,0.7-0.45,1.53-0.92,2.07c-3.18,3.61-6.62,7.01-9.62,10.76c-3.17,3.94-1.04,11.39,3.61,13.56
			c1.56,0.73,3.15,1.42,4.72,2.12C680.45,266.33,680.36,266.54,680.26,266.74z"/>
		<path d="M588.13,408.28c0.65,0.59,1.29,1.19,1.94,1.78c-3.01-0.73-3.7,1.29-4.51,3.25c-0.42,1.03-1.09,1.96-1.49,3
			c-0.55,1.39-0.76,2.71,1.55,2.05c-0.97,6.33-4.01,12.67,1.32,18.53c0-3.67-0.23-7.11,0.06-10.51c0.28-3.29,0.98-6.58,3.57-9.45
			c0.07,0.17-0.3-0.32-0.18-0.54c1.44-2.66,2.87-5.34,4.52-7.87c0.35-0.54,1.55-0.52,2.45-0.48c-2.45,2.86-5.4,12.05-4.37,15.44
			c1.83-5.06,2.19-10.21,5.76-14.06c-0.41,1.22-0.86,2.43-1.21,3.66c-1.65,5.81-2.58,11.74-2.11,17.77c0.14,1.79,1.33,3.5,2.15,5.52
			c-3.4-2.31-3.93-5.81-4.75-9.21c-1.3,5.76,1.54,10.34,4.25,15.02c-2.37-0.55-6.14-5.86-6.51-9.66c-0.36-3.77-0.25-7.59-0.51-11.38
			c-2.04,7.21-1.5,14.32,1.05,22.07c-2.68-3.07-4.98-5.71-7.27-8.34c-0.22,0.11-0.44,0.21-0.66,0.32c0.65,1.91,1.3,3.82,2.02,5.95
			c-0.99,0.67-2.06,0.14-2.51-1.26c-0.58-1.82-1.1-3.72-1.19-5.61c-0.18-4-0.35-8.05,0.03-12.03c0.41-4.36,1.64-8.59,4.62-12.04
			c0.6-0.69,1.33-1.27,2-1.9C588.14,408.28,588.13,408.28,588.13,408.28z"/>
		<path d="M793.8,283.87c-1.75-1.31-3.06,0.48-4.7,1.28c-2.63,1.28-5.56,0.86-6.84-0.83c-1.53-2.01-1.53-4.76,0.67-6.96
			c2.49-2.49,3.55-5.03,2.28-8.41c-0.23-0.6-0.21-1.34-0.13-2c0.08-0.63,0.4-1.23,0.62-1.84c0.55,0.61,1.31,1.13,1.58,1.84
			c0.31,0.8,0.14,1.78,0.26,2.67c0.11,0.8,0.32,1.59,0.53,2.62c2.95-1.12,5.72-2.12,8.44-3.26c0.42-0.18,0.68-0.92,0.87-1.45
			c0.37-1.06,0.56-2.18,0.98-3.22c0.15-0.38,0.72-0.6,1.1-0.89c0.21,0.41,0.6,0.83,0.59,1.24c-0.04,1.18-0.24,2.36-0.32,3
			c2.46,1.09,4.88,1.81,6.86,3.17c1,0.68,1.2,2.52,1.77,3.82c0.38,0.88,0.62,1.88,1.21,2.6c1.15,1.41,2.78,2.52,1.96,5.14
			c-1.08-1.66-2.16-3.32-3.24-4.97c-0.3,0.27-0.59,0.54-0.89,0.8c-1.22,1.08-2.39,2.22-3.68,3.22c-1.98,1.54-4.69,0.38-5.06-2.11
			c-0.62-4.18,1.92-6.45,6-5.36c0.49,0.13,0.99,0.25,1.94,0.07c-0.54-0.77-0.94-1.7-1.64-2.27c-2.22-1.81-5.68-0.85-7,1.7
			c-1.06,2.05-2.49,3.91-3.45,5.99C793.97,280.65,794.06,282.11,793.8,283.87z M787.68,276.47c-1.12,1.22-2.3,2.06-2.83,3.2
			c-0.49,1.05-0.28,2.42-0.38,3.64c1.06-0.14,2.23-0.06,3.16-0.49c1.03-0.48,1.85-1.42,2.72-2.12
			C789.31,279.06,788.57,277.88,787.68,276.47z M806.23,277.49c-0.27-0.47-0.54-0.94-0.81-1.41c-1.05-0.06-2.18-0.38-3.11-0.08
			c-0.72,0.23-1.42,1.17-1.68,1.94c-0.21,0.62,0.26,1.47,0.43,2.21c0.78-0.32,1.58-0.58,2.32-0.96
			C804.36,278.67,805.28,278.06,806.23,277.49z M795.48,272.86c-0.16-0.2-0.32-0.41-0.49-0.61c-1.63,1.01-3.39,1.88-4.76,3.16
			c-0.27,0.26,0.96,2.12,1.75,3.77C793.38,276.67,794.43,274.76,795.48,272.86z"/>
		<path d="M801.27,180.68c2.92,2.45,0.34,4.84,0.56,7.1c4.41,0.99,6.35,3.36,7.39,7.79c1.53,6.56-1.13,11.33-5.85,15.4
			c-1.02,0.88-2.05,1.74-3.09,2.59c-1.17,0.96-2.07,0.73-2.58-0.69c-1.23-3.41-0.63-6.66,1.26-9.83c0,2.43,0,4.86,0,7.79
			c4.07-4.01,8.59-7.16,8.32-13.27c-0.07-1.6-0.38-3.38-1.2-4.68c-0.62-1-2.16-1.72-3.4-1.97c-1.66-0.33-2.91,0.57-3.59,2.31
			c-1.21,3.1-2.53,6.17-3.93,9.19c-0.33,0.71-1.2,1.16-1.83,1.74c-0.36-1.1-1.23-2.34-0.97-3.26c0.63-2.16,1.8-4.16,2.74-6.23
			c0.13-0.29,0.12-0.65,0.18-0.98c-0.17-0.13-0.34-0.27-0.51-0.4c-1.97,1.94-3.91,3.92-5.94,5.8c-0.62,0.57-1.48,0.88-2.24,1.31
			c-0.05-1.03-0.54-2.38-0.07-3.04c2.51-3.47,5.4-6.61,9.62-8.06c1.97-0.68,2.57-2.34,3.23-4.03
			C799.96,183.77,800.59,182.3,801.27,180.68z"/>
		<path d="M843.42,323.04c0.09,1.11,0.05,1.93,0.23,2.71c0.53,2.3,2.72,3.68,4.92,2.9c3.29-1.15,5.76-3.33,6.45-6.87
			c0.8-4.13,0.93-8.24-2.65-11.41c-0.21-0.19-0.53-0.25-0.97-0.46c-1.85,3.15-3.65,6.3-5.56,9.38c-0.4,0.64-1.58,1.55-1.8,1.41
			c-1.04-0.68-1.63-1.65-0.77-3.02c1.34-2.1,2.54-4.29,3.8-6.44c-0.17-0.14-0.33-0.27-0.5-0.41c-2.01,1.81-4.03,3.61-6.02,5.44
			c-0.79,0.72-1.13,2.55-2.69,1.34c-1.62-1.25-0.45-2.34,0.53-3.29c3.02-2.95,5.63-6.44,10.12-7.44c0.54-0.12,1.09-0.99,1.3-1.63
			c0.56-1.67,0.94-3.4,1.43-5.24c2.09,0.93,1.96,2.73,1.65,4.23c-0.44,2.12-0.08,3.54,1.51,5.23c5.89,6.31,3.24,15.42-0.45,18.99
			c-2.7,2.61-6.92,3.36-9.42,1.66C841.98,328.4,841.5,325.74,843.42,323.04z"/>
		<path d="M685.29,289.86c0.38,1.34,0.68,2.39,1.03,3.65c1.15-0.27,2.24-0.43,3.26-0.79c1.27-0.44,2.49-0.57,2.9,0.91
			c0.09,0.31-1.39,1.09-2.17,1.6c-0.24,0.15-0.57,0.2-0.86,0.21c-2.34,0.08-3.27,1.13-2.45,3.47c0.14,0.41,0.21,0.92,0.1,1.33
			c-0.8,2.95,0.45,4.59,3.23,5.36c0.42,0.12,0.89,0.33,1.15,0.66c0.38,0.48,0.59,1.09,0.88,1.64c-0.67,0.1-1.34,0.21-2.01,0.28
			c-0.12,0.01-0.26-0.14-0.39-0.2c-1.28-0.61-2.61-1.77-3.82-1.66c-0.96,0.09-1.67,1.88-2.67,2.68c-1.08,0.86-2.31,1.73-3.61,2.05
			c-0.78,0.2-2.45-0.46-2.63-1.05c-0.45-1.53-0.73-3.4-0.22-4.84c0.39-1.09,1.97-2.04,3.22-2.47c1.19-0.42,2.64-0.09,4.26-0.09
			c0-1.74,0-3.6,0-5.97c-1.52,0.59-2.76,1.21-4.06,1.53c-0.71,0.17-1.54-0.16-2.32-0.27c0.36-0.69,0.59-1.51,1.12-2.02
			c0.44-0.42,1.22-0.5,1.87-0.68c3.58-0.99,3.58-0.99,1.99-4.66c-1.48,0.3-2.99,0.68-4.52,0.9c-0.71,0.1-1.53,0.08-2.17-0.19
			c-0.43-0.18-0.9-0.89-0.89-1.35c0.01-0.35,0.68-0.88,1.15-1.01c4.36-1.24,8.73-2.42,13.11-3.6c0.72-0.19,1.52-0.46,2.19-0.3
			c0.57,0.14,1.01,0.84,1.5,1.29c-0.4,0.42-0.72,1.04-1.21,1.22C690,288.35,687.72,289.05,685.29,289.86z M683.41,305.76
			c-3.97-1.14-5.02,0-3.76,3.54C680.99,308.04,682.2,306.9,683.41,305.76z"/>
		<path d="M619.83,277.64c-1.29,0.86-2.54,1.82-3.92,2.51c-0.24,0.12-1.03-0.84-1.64-1.36c2.18-2.1,4.19-4.03,6.58-6.31
			c-6.2,0.52-6.2,0.52-6.95-0.61c2.18-0.78,4.79-1.03,6.3-2.46c1.36-1.29,1.51-3.87,2.83-6.12c0.28,0.87,0.75,1.73,0.81,2.62
			c0.08,1.05-0.23,2.02,1.31,2.36c0.5,0.11,0.77,1.23,1.01,1.66c1.82-0.18,3.69-0.62,5.52-0.49c4.01,0.29,5.89,3.39,4.79,7.25
			c-1.2,4.22-4.31,6.46-8.01,8.15c-0.18,0.08-0.44,0.02-0.66-0.02c-0.14-0.03-0.26-0.13-0.73-0.39c0.72-0.71,1.32-1.4,2.01-1.98
			c2.19-1.82,4.41-3.55,5.21-6.54c0.81-3.01-0.63-5.01-3.71-4.62c-2.55,0.32-4.95,1.2-6.68,3.25c-0.49,0.58-0.85,1.39-0.97,2.14
			c-0.37,2.35-0.55,4.74-0.93,7.09c-0.1,0.62-0.64,1.66-0.97,1.66c-0.81,0-1.85-0.3-2.36-0.87c-0.42-0.47-0.43-1.58-0.21-2.27
			c0.5-1.54,1.25-3,1.9-4.49C620.18,277.76,620,277.7,619.83,277.64z"/>
		<path d="M850.68,294.45c-1.79-0.61-2.29-1.18-1.78-2.92c1.07-3.64,2.09-7.42,0.24-11.15c-0.55-1.11-1.42-2.06-2.13-3.1
			c-0.44-0.66-0.84-1.34-1.3-2.08c2.17-0.49,3.69,0.7,5.71,4.56c2.11-3.9,4.06-7.48,6.23-11.48c-5.56,2.48-10.44,4.75-15.4,6.85
			c-2.27,0.96-2.65,0.73-4.63-1.44c2.01-0.75,3.96-1.34,5.79-2.18c4.48-2.05,8.88-4.25,13.36-6.32c0.72-0.33,1.94-0.63,2.37-0.27
			c0.61,0.51,1.18,1.8,0.95,2.48c-1.05,3.15-2.26,6.26-3.66,9.27c-0.84,1.81-2.21,3.37-3.15,5.15c-0.42,0.79-0.53,1.84-0.51,2.76
			C852.86,288.01,851.93,291.17,850.68,294.45z"/>
		<path d="M862.38,189.07c-3.57,2.52-6.93,4.97-10.38,7.28c-0.55,0.37-1.48,0.16-2.23,0.22c0.13-0.84-0.04-1.99,0.45-2.46
			c1.22-1.17,2.75-2.03,4.15-3.02c2.36-1.67,4.76-3.28,7.07-5.02c1.5-1.13,2.52-0.83,3,1.07c1.54,6.16,1.87,12.38,1.16,18.69
			c-0.11,0.97,0.29,2.07,0.69,3c0.47,1.1,0.56,1.83-0.79,2.21c-1.43,0.4-2.85,0.82-4.25,1.31c-2.49,0.88-4.93,1.97-7.47,2.63
			c-0.72,0.19-1.74-0.8-2.63-1.25c0.48-0.62,0.83-1.54,1.45-1.79c2.68-1.07,5.45-1.92,8.17-2.92c0.53-0.2,1.3-0.64,1.38-1.07
			C863.16,201.78,863.8,195.57,862.38,189.07z"/>
		<path d="M860.04,247.42c-0.7-0.37-1.23-0.65-1.61-0.85c2.49-5.27,1.6-10.47,1.62-15.97c-3.6,1.92-6.85,3.66-10.11,5.39
			c-0.59,0.31-1.19,0.79-1.8,0.81c-0.56,0.02-1.28-0.37-1.63-0.81c-0.18-0.23,0.13-1.23,0.48-1.45c3.01-1.87,6.08-3.65,9.14-5.46
			c0.89-0.53,1.85-0.96,2.66-1.58c1.81-1.4,3.46-0.89,3.72,1.44c0.67,6.04,0.68,12.01-0.83,18.02c-0.64,2.57-2.04,3.2-4.06,3.74
			c-2.58,0.69-5.13,1.55-7.74,2.1c-0.75,0.16-1.67-0.5-2.51-0.78c0.61-0.53,1.15-1.31,1.86-1.53
			C852.62,249.44,856.08,248.53,860.04,247.42z"/>
		<path d="M613.54,306.56c3.92-2.53,3.92-2.53,7.14,0.58c3.16,3.05,6.17,3.02,9.46-0.18c0.95-0.92,1.72-2.03,2.74-2.88
			c0.39,2.38-1.41,4.91-3.82,6c-4.8,2.17-6.61,1.88-10.32-1.94c-0.98-1-1.43-0.91-2.5-0.04c-2.23,1.83-4.65,3.47-7.13,4.93
			c-0.71,0.42-1.93,0-2.91-0.04c0.3-0.82,0.42-1.77,0.92-2.44c3.78-5.16,7.59-10.3,11.5-15.36c0.52-0.67,2.03-1.45,2.43-1.19
			c1.3,0.85,0.38,1.73-0.35,2.7C618.23,299.92,615.91,303.26,613.54,306.56z"/>
		<path d="M620.51,238.83c-0.68,0-1.37,0.13-1.98-0.04c-0.63-0.18-1.18-0.65-1.76-1c0.34-0.52,0.63-1.45,1.04-1.51
			c4.06-0.56,4.22-3.47,4.23-6.6c0-0.47,0.64-0.94,0.98-1.41c0.41,0.41,1.11,0.78,1.17,1.24c0.17,1.17,0.06,2.37,0.06,3.77
			c1.39-0.57,2.6-1.09,3.83-1.55c0.98-0.37,1.98-0.91,2.98-0.91c1.04,0,2.8,0.3,3,0.9c0.63,1.84-1.26,1.45-2.25,1.85
			c-2.34,0.97-4.92,1.62-6.9,3.09c-1.18,0.88-1.59,3-2.02,4.65c-0.86,3.31-1.42,6.71-2.28,10.02c-0.14,0.53-1.19,0.81-1.82,1.21
			c-0.24-0.55-0.75-1.15-0.66-1.63C618.85,246.94,619.68,242.97,620.51,238.83z"/>
		<path d="M730.17,311.04c1.7-0.57,3.21-1.1,4.73-1.59c0.7-0.22,1.44-0.53,2.14-0.49c0.48,0.03,1.08,0.5,1.34,0.94
			c0.13,0.21-0.29,0.99-0.64,1.2c-0.81,0.48-1.7,0.96-2.61,1.08c-4.65,0.62-7.98,2.72-9.74,7.34c-0.88,2.32-2.46,4.38-3.84,6.49
			c-0.32,0.5-1.09,0.71-1.65,1.05c-0.03-0.73-0.31-1.56-0.06-2.16c1.29-3,2.72-5.94,4.02-8.73c-1.23-0.46-2.49-0.93-3.75-1.39
			c0.04-0.23,0.07-0.46,0.11-0.68c0.53-0.16,1.05-0.42,1.58-0.45c4.51-0.27,5.79-3.77,7.28-7.12c0.3-0.68,0.91-1.23,1.37-1.85
			c0.29,0.82,0.88,1.67,0.81,2.46C731.17,308.35,730.63,309.53,730.17,311.04z"/>
		<path d="M628.42,218.15c0-1.09-0.16-1.78,0.02-1.89c3.06-1.86,2.6-5.82,4.93-8.14c1.14-1.14,1.98-2.64,2.73-4.09
			c0.7-1.36,1.35-2.85,1.56-4.34c0.42-3.11-1.21-4.4-4.19-3.43c-1.12,0.36-2.14,1.02-3.21,1.52c-0.85,0.39-1.73,0.74-2.97,1.26
			c0.12-0.91,0.01-1.62,0.27-1.81c2.48-1.8,4.99-3.74,8.3-3.3c4.1,0.54,6.19,5.53,4.05,9.81c-1.15,2.31-2.68,4.43-4.03,6.65
			c-1,1.64-1.77,3.49-3.02,4.89C631.84,216.39,630.24,217,628.42,218.15z"/>
		<path d="M666.34,281.43c-0.28,0.53-0.75,1.09-0.89,1.72c-1.46,6.91-2.87,13.83-4.27,20.76c-0.08,0.39,0.11,0.84,0.18,1.34
			c2.87-0.63,3.75-4.2,6.66-4.5c0.17,0.18,0.35,0.37,0.52,0.55c-1.7,2-3.33,4.07-5.13,5.97c-1.78,1.87-3.46,1.48-4.11-1.05
			c-0.45-1.75-0.62-3.72-0.32-5.49c0.83-4.92,1.94-9.79,3.01-14.66c0.3-1.37,0.72-2.74,1.29-4.02
			C664.17,280.05,665.57,281.31,666.34,281.43z"/>
		<path d="M803.24,311.78c-0.25,0.8-0.26,1.83-0.78,2.38c-3.51,3.66-7.7,5.54-12.88,4.43c-2.43-0.52-4.26-2.12-4.13-4.59
			c0.19-3.6,0.92-7.18,1.57-10.75c0.21-1.14,0.76-2.28,1.38-3.27c0.35-0.55,1.16-0.81,1.76-1.2c0.39,0.72,1.19,1.52,1.08,2.14
			c-0.23,1.21-0.98,2.32-1.5,3.47c-1.4,3.1-2.45,6.24-1.75,9.73c0.49,2.45,1.4,3.16,3.85,2.94c3.81-0.34,7.01-1.88,9.61-4.69
			c0.32-0.35,0.77-0.57,1.17-0.86C802.83,311.6,803.03,311.69,803.24,311.78z"/>
		<path d="M585.54,458.91c-0.36,0.54-0.76,1.47-1,1.43c-0.62-0.11-1.39-0.5-1.7-1.02c-1-1.64-1.93-3.34-2.65-5.11
			c-0.28-0.69-0.04-1.67,0.15-2.47c0.19-0.78,0.55-1.55,0.96-2.24c0.23-0.4,0.67-0.82,1.1-0.93c2.89-0.79,5.88,1.13,6.37,4.07
			c0.17,1.02,0.31,2.07,0.31,3.1C589.07,459.02,588.72,459.29,585.54,458.91z"/>
		<path d="M546.35,528.41c-3.06,4.31-11.54,6.52-15.55,4.93c-2.15-0.86-3.78-2.56-3.98-5.19c-0.26-3.43,0.81-6.27,2.76-9.16
			c2.43-3.61,4.12-7.72,6.13-11.62c0.24-0.46,0.52-0.91,0.78-1.36c0.2,0.07,0.41,0.14,0.61,0.21c-0.11,0.66-0.08,1.4-0.36,1.98
			c-1.75,3.61-3.57,7.18-5.38,10.77c-0.67,1.33-1.42,2.62-2.06,3.96c-1.75,3.67,1.06,8.67,5.28,8.85c3.12,0.13,5.88-0.66,8.57-2.05
			C543.97,529.29,544.88,529,546.35,528.41z"/>
		<path d="M722.31,236.57c2.95-1.29,5.6-2.44,8.24-3.58c0.18,0.31,0.35,0.61,0.53,0.92c-1.64,1.27-3.27,2.55-4.92,3.8
			c-0.71,0.54-1.49,0.98-2.19,1.53c-1.46,1.15-3.15,0.95-3.77-0.79c-0.7-1.98-1.48-4.15-1.33-6.17c0.24-3.23,1.19-6.41,1.87-9.61
			c0.29-1.34,1.27-1.97,2.5-1.55c1.39,0.48,0.75,1.5,0.47,2.56c-0.79,3.01-1.46,6.06-1.93,9.13
			C721.61,233.97,722.11,235.23,722.31,236.57z"/>
		<path d="M779.69,349.05c-0.77,2.81-3.76,4.5-6.91,4.14c-2.37-0.27-3.99-1.91-3.7-4.72c0.49-4.8,1.39-9.56,2.26-14.31
			c0.09-0.52,1.08-0.88,1.65-1.31c0.44,0.61,1.21,1.19,1.26,1.83c0.08,1-0.34,2.03-0.5,3.06c-0.58,3.82-1.28,7.63-1.65,11.47
			c-0.21,2.16,0.63,2.71,2.68,2.02C776.41,350.69,777.95,349.84,779.69,349.05z"/>
		<path d="M732.08,199.5c-1.04,2.96-3.04,4.69-5.65,5.57c-2.22,0.75-4.4-0.86-4.46-3.67c-0.07-3.31,0.4-6.65,0.83-9.95
			c0.22-1.68,0.87-3.31,1.3-4.97c0.34-1.36,1.03-2.13,2.92-1.6c-0.65,2.56-1.45,5.08-1.9,7.67c-0.43,2.48-0.72,5.02-0.65,7.53
			c0.06,2.02,1.01,2.38,2.88,1.56C728.93,200.94,730.5,200.21,732.08,199.5z"/>
		<path d="M725.32,282.29c0.56,0.88,1.21,1.71,1.65,2.65c1.87,4.04,3.66,8.12,5.52,12.17c0.58,1.26,1.63,1.81,2.95,1.27
			c2.12-0.88,4.2-1.87,6.29-2.83c0.62-0.28,1.21-0.62,1.81-0.93c0.18,0.27,0.36,0.54,0.55,0.81c-1.62,1.16-3.12,2.59-4.89,3.44
			c-6.35,3.02-7.6,2.44-10.21-4.01c-1.14-2.83-2.49-5.59-3.63-8.42c-0.47-1.17-0.65-2.46-0.97-3.7
			C724.7,282.58,725.01,282.44,725.32,282.29z"/>
		<path d="M795.87,243.13c-1.73,0.92-3.41,1.99-5.22,2.71c-1.61,0.63-3.35-0.51-3.34-2.22c0.04-4.98,0.28-9.97,0.44-15.11
			c1.88,0.36,2.65,1.01,2.6,2.76c-0.13,4.01-0.04,8.03-0.04,12.36c1.6-0.39,3.42-0.83,5.23-1.27
			C795.65,242.61,795.76,242.87,795.87,243.13z"/>
		<path d="M585.09,408.06c-0.23,0.56-0.29,1.42-0.7,1.64c-5.26,2.89-7,8.02-7.77,13.3c-0.56,3.9-0.1,8.02,0.47,11.97
			c0.32,2.21,1.8,4.25,2.79,6.43c-1.84-0.62-2.88-2.42-3.53-4.15c-2.36-6.27-2.2-12.69-0.27-19.04c0.63-2.08,1.81-4,2.73-5.99
			c0,0-0.06,0.07-0.06,0.07c1.6-2.2,3.61-3.77,6.37-4.19C585.13,408.1,585.09,408.06,585.09,408.06z"/>
		<path d="M572.15,412.91c-3.74,6.53-6.83,13.4-5.13,21.55c0.27,1.29-0.35,2.75-0.43,4.14c-0.03,0.62,0.25,1.27,0.43,1.89
			c0.3,1.03,0.64,2.06,0.96,3.09c-0.21,0.08-0.42,0.15-0.63,0.23c-0.69-2.05-1.81-4.07-1.99-6.16c-0.4-4.95-0.42-9.93-0.46-14.91
			c-0.02-2.82,0.66-5.54,2.99-7.38C569.26,414.28,570.93,413.6,572.15,412.91z M566.34,423.62c0.95-2.62,1.89-5.24,2.84-7.87
			C566.26,417.72,566.41,420.75,566.34,423.62z"/>
		<path d="M744.03,185.07c0.91-0.47,1.88,0.07,2.49,1.27c2.03,3.97,1.74,8.28,1.69,12.54c0,0.35-0.61,0.92-0.99,0.97
			c-0.49,0.07-1.32-0.13-1.5-0.49c-0.37-0.68-0.46-1.53-0.54-2.33C744.78,193.14,744.42,189.24,744.03,185.07z"/>
		<path d="M743.23,238.18c0.2-3.39,0.7-6.18,0.41-8.88c-0.28-2.7-1.36-5.31-2.13-8.12c1.53-0.82,2.62-0.07,3.02,1.33
			c0.79,2.78,1.48,5.61,1.9,8.47C746.82,233.66,745.31,235.72,743.23,238.18z"/>
		<path d="M808.17,244.06c0-3.54,0.14-7.09-0.06-10.62c-0.1-1.74-0.87-3.44-1.25-5.18c-0.1-0.48,0.12-1.03,0.19-1.54
			c0.5,0.23,1.26,0.33,1.44,0.71c0.78,1.6,1.83,3.25,1.96,4.94c0.26,3.36,0.06,6.76-0.15,10.13c-0.04,0.7-0.98,1.35-1.51,2.02
			C808.59,244.36,808.38,244.21,808.17,244.06z"/>
		<path d="M634.12,172.83c1.6,3.39,3.3,6.69,4.7,10.11c0.59,1.45,0.95,3.25-0.96,4.16c-0.7-1.47-1.37-2.87-2.05-4.27
			c-1.1-2.27-2.15-4.56-3.32-6.8C631.63,174.37,631.92,173.33,634.12,172.83z"/>
		<path d="M562.71,414.83c-0.86,0-1.5,0-2.22,0c1.57-1.87,1.7-1.91,11.4-3.22c-1.64,0.53-3.25,1.15-4.91,1.58
			c-3,0.79-4.33,3.02-4.25,5.76c0.15,4.92,0.73,9.82,1.16,14.73c0.07,0.76,0.3,1.5,0.57,2.77
			C561.49,432.93,560.6,419.99,562.71,414.83z"/>
		<path d="M865.74,307.92c-0.03-0.22-0.14-0.48-0.07-0.66c0.32-0.78,0.7-1.53,1.06-2.29c0.45,0.73,1.13,1.41,1.31,2.21
			c0.79,3.61,1.43,7.26,2.14,10.89c0.07,0.36,0.38,0.74,0.31,1.05c-0.12,0.56-0.43,1.09-0.66,1.63c-0.41-0.33-1.07-0.59-1.19-1
			c-1.16-3.89-2.23-7.81-3.32-11.73C865.46,307.99,865.6,307.96,865.74,307.92z"/>
		<path d="M810.84,182.32c2.99,2.41,7.57,10.6,7,12.38C815.06,193.74,809.88,184.79,810.84,182.32z"/>
		<path d="M628.93,329.97c1.86-4.86,3.63-9.48,5.47-14.28C636.29,319.84,633.01,328.4,628.93,329.97z"/>
		<path d="M742.43,315.36c-0.78,0.65-1.24,1.35-1.82,1.46c-3.34,0.64-6.7,1.14-10.2,1.71C731.71,315.79,737.93,314.08,742.43,315.36
			z"/>
		<path d="M574.28,419.86c-0.85,7.27-2.42,14.56,1.4,21.5c-1.63-0.47-2.32-1.41-2.78-4.16
			C571.92,431.33,571.64,425.49,574.28,419.86z"/>
		<path d="M801.95,334.19c-3.67,2.29-10.58,3.15-12.15,1.6C792.33,333.92,799.86,332.85,801.95,334.19z"/>
		<path d="M730.62,323.69c3.58,0.38,7.16,0.74,10.72,1.2c0.36,0.05,0.62,0.78,0.93,1.2c-0.79,0.24-1.62,0.76-2.37,0.66
			c-2.35-0.29-4.67-0.79-6.99-1.26c-0.85-0.17-1.68-0.46-2.52-0.69C730.47,324.43,730.54,324.06,730.62,323.69z"/>
		<path d="M741.16,334.08c0.06,2.55-1.97,4.28-3.92,3.86c-1.04-0.22-1.91-0.6-0.73-1.88c0.58-0.63,0.7-1.67,1.27-2.32
			c0.57-0.64,1.43-1.02,2.17-1.52C740.45,332.99,740.94,333.75,741.16,334.08z"/>
		<path d="M638,240.65c-7.66,2.09-8.43,2.01-9.13-0.84c2.08-0.41,4.14-1.02,6.24-1.13C635.9,238.64,636.75,239.76,638,240.65z"/>
		<path d="M692.5,276.04c2.88,0.39,5.28,4.24,5.82,8.92c-1.78,0.25-2.29-0.41-3.37-3.56C694.34,279.63,693.39,277.97,692.5,276.04z"
			/>
		<path d="M628.19,246c3.53,0.48,6.63,0.91,10.41,1.43c-1.07,0.73-1.95,1.81-2.61,1.69C633.33,248.63,629.89,249.85,628.19,246z"/>
		<path d="M791.02,350.2c3.26,0.28,6.52,0.56,9.77,0.84c-0.69,2.54-6.27,2.6-9.81,0C791,350.76,791.01,350.48,791.02,350.2z"/>
		<path d="M702.76,281.43c-2.07,0.12-3.55-4.09-2.9-7.75C701.84,274.51,702.06,275.09,702.76,281.43z"/>
		<path d="M878.71,305.56c2.12,1.01,3.68,5.82,2.49,7.24c-0.42,0.5-1.33,0.6-1.73,0.77C879.2,310.82,878.97,308.33,878.71,305.56z"
			/>
		<path d="M578.82,412.22c-2.89,0.39-2.51,3.17-3.56,4.9c-0.27,0.44-0.42,0.95-1.06,1.25c0.36-1.93,0.72-3.86,1.16-6.17
			c-0.01,0.01,0.48-0.28,1.48-0.87c-1.15-0.19-1.69-0.28-2.23-0.36c-0.02-0.15-0.04-0.31-0.06-0.46c1.41-0.18,2.81-0.36,4.76-0.61
			c-0.78,0.55-1.15,0.81-1.34,0.95c0.28,0.5,0.53,0.98,0.79,1.45C578.76,412.29,578.82,412.22,578.82,412.22z"/>
		<path d="M876.52,314.02c-0.23,0.29-0.51,0.66-0.8,1.02c-0.37-0.31-0.96-0.55-1.08-0.93c-0.56-1.76-1.04-3.54-1.44-5.34
			c-0.08-0.37,0.28-0.85,0.44-1.28c0.4,0.26,1.04,0.44,1.16,0.8C875.43,310.1,875.92,311.95,876.52,314.02z"/>
		<path d="M571.81,419.41c-0.44,4.96-0.89,9.92-1.37,15.26C569.42,429.15,569.99,424.17,571.81,419.41z"/>
		<path d="M640.63,225.3c3.45,1.57,4.31,4.78,2.09,6.66C641.99,229.64,641.31,227.47,640.63,225.3z"/>
		<path d="M638.99,231.48c-0.93-1.8-1.85-3.59-2.91-5.64c2.44,0.27,3.16,1.54,3.53,5.37C639.4,231.3,639.2,231.39,638.99,231.48z"/>
		<path d="M631.1,318.11c0-1.87-0.07-3.17,0.05-4.46c0.03-0.34,0.67-0.61,1.03-0.92c0.25,0.38,0.76,0.8,0.71,1.13
			C632.68,315.18,633.31,316.85,631.1,318.11z"/>
		<path d="M444.89,435.56c2.11-0.89,3.87-1.64,5.63-2.38c0.1,0.18,0.2,0.35,0.3,0.53c-1.8,1.19-3.61,2.39-5.78,3.82
			C444.94,436.32,444.91,435.82,444.89,435.56z"/>
		<path d="M628.09,318.06c-0.09-0.89-0.19-1.79-0.34-3.24c0.95,0.45,1.99,0.75,1.98,0.98c-0.05,0.82-0.46,1.62-0.74,2.43
			C628.69,318.18,628.39,318.12,628.09,318.06z"/>
		<path class="vol2_2_st0" d="M556.43,500.05c1.39-3.15,2.69-5.94,3.81-8.79c0.25-0.63-0.11-1.51-0.19-2.27c-0.63,0.07-1.26,0.14-2.09,0.23
			c0.18-0.31,0.25-0.64,0.43-0.72c2.1-0.91,3.22-2.4,3.12-4.79c-0.06-1.37,0.69-2.06,2.12-1.89c0.29,0.03,0.65,0.05,0.89-0.08
			c3.61-1.96,6.43,0.7,9.52,1.65c0.32,0.1,0.68,0.62,0.73,0.99c0.64,4.7,1.27,9.43-0.39,14.04c-1.66,4.62-6.67,6.89-11.31,5.25
			c-0.7-0.25-1.39-0.55-2.04-0.91C559.35,501.8,557.69,500.8,556.43,500.05z"/>
		<path class="vol2_2_st0" d="M590.59,519.96c0.85-4.66,1.69-9.23,2.57-14.04c0.01,0-0.34-0.24-0.88-0.62c0.74-1.12,1.32-2.36,2.23-3.28
			c1.48-1.5,2.94-3.64,5.42-2.84c2.39,0.77,3.12,3.14,3.39,5.37C604.3,512.8,597.21,519.34,590.59,519.96z"/>
		<path class="vol2_2_st0" d="M541.2,426.45c-0.08,0.07-0.54,0.47-1.07,0.94c0.54-3.44,0.99-6.77,1.63-10.05c0.16-0.8,0.94-1.49,1.5-2.33
			c0.34,0.41,0.51,0.59,0.5,0.61c-2.75,2.96-0.46,6.46-0.98,9.69c-0.52,3.17,0.3,6.56-0.17,9.75c-0.36,2.45-1.79,4.75-2.75,7.11
			c-0.29-0.02-0.59-0.05-0.88-0.07c-0.05-2.73-0.43-5.51-0.04-8.17C539.32,431.27,540.47,428.74,541.2,426.45z"/>
		<path class="vol2_2_st0" d="M529.06,457.99c-1.79,4.26-2.53,9.01-5.68,12.65c-0.22-0.1-0.44-0.2-0.65-0.3c1.93-4.17,3.86-8.34,5.78-12.52
			C528.69,457.88,528.88,457.93,529.06,457.99z"/>
		<path class="vol2_2_st0" d="M536.13,450.56c0.51-2.65,1.02-5.29,1.6-8.3c2.92,3.61-0.93,5.65-0.73,8.4
			C536.71,450.62,536.42,450.59,536.13,450.56z"/>
		<path class="vol2_2_st0" d="M539.54,470.47c-0.72,3.5-3.04,6.09-4.84,8.98c-0.21-0.12-0.42-0.23-0.63-0.35c1.62-2.95,3.24-5.91,4.86-8.86
			C539.14,470.33,539.34,470.4,539.54,470.47z"/>
		<path class="vol2_2_st0" d="M806.73,499.93c0-1.48,0-3.23,0-5.2c-3.19,1.56-1.89,7.04-6.54,6.87c0.78,0,1.57,0,2.74,0
			c0.01,6.12,3.15,11.88,1.14,18.13c-0.91,2.84-2.85,4.6-5.82,4.63c-9.95,0.09-18.86-3.09-26.58-9.21c-5-3.97-6.18-9.56-5.04-15.73
			c0.31-1.68,0.5-3.41,0.5-5.12c0-1.3-0.6-1.98-2.18-1.42c-1.62,0.58-2.7,1.51-3.94,2.75c-4.89,4.9-9.93,9.74-15.4,13.95
			c-3.61,2.78-7.28,1.52-10.27-1.96c-4.69-5.46-5.5-11.41-3.3-18.2c2.71-8.4,6.79-15.98,11.75-23.25
			c6.95-10.19,13.43-20.7,20.09-31.03c1.18,1.78,2.54,0.67,4.33-0.32c2.58-1.42,5.42-2.39,8.23-3.33c4.02-1.34,8.1-2.51,12.17-3.68
			c6.74-1.95,13.54-2.96,20.54-1.4c3.86,0.86,7.77,1.5,11.66,2.24c11.24,2.14,17.96,9.17,20,20.22c0.76,4.13,2.29,8.17,3.86,12.09
			c2.84,7.1,5.5,14.22,6.65,21.82c0.2,1.32,0.32,2.71,0.13,4.02c-0.65,4.44-1.35,8.89-2.25,13.29c-0.71,3.51-3.85,5.22-6.2,7.45
			c-1.18,1.12-2.72,1.85-4.02,2.86c-3.21,2.5-6.57,2.25-9.9,0.48c-3.89-2.07-7.59-4.52-11.54-6.46
			C814.04,502.66,810.3,501.38,806.73,499.93z M777.64,495.35c-1.33,1.83-0.75,3.54,1.77,3.44c2.81-0.11,4.84,0.68,6.39,2.93
			c0.17,0.24,0.45,0.4,0.67,0.6c1.51,1.4,3.49,2.08,5.11,0.97c1.32-0.9,2.34-2.65,2.86-4.23c0.73-2.24-1.29-2.83-2.86-3.79
			c-3.76-2.28-4.45-3.08-2.35-7.11c1.61-3.1,0.96-4.33-2.61-4.47c-2.5-0.1-2.91,0.24-2.82,2.76c0.07,1.93,0.36,3.84,0.48,5.77
			c0.06,0.95,0.55,2.24-1.24,2.26c-0.2,0-0.57,0.33-0.56,0.49c0.11,1.58-0.77,2.36-2.15,2.1
			C779.43,496.89,778.66,496.03,777.64,495.35z M792.97,472.15c1.31,0.72,2.18,1.3,3.12,1.69c1.2,0.5,2.54,0.59,2.73-1.09
			c0.51-4.42,0.91-8.86,1.17-13.31c0.03-0.52-1.13-1.1-1.74-1.65c-0.42,0.56-0.99,1.06-1.22,1.68c-0.46,1.24-0.69,2.56-1.1,3.82
			C794.96,466.29,793.94,469.27,792.97,472.15z M782.27,463.77c-0.52-1.71-0.72-3.17-1.41-4.35c-0.38-0.65-1.56-0.97-2.43-1.1
			c-0.29-0.04-0.88,0.93-1.09,1.52c-0.6,1.65-1.22,3.31-1.55,5.02c-0.36,1.84-2.02,3.93,0.58,5.51c0.14,0.09,0.11,0.43,0.22,0.61
			c0.37,0.57,0.8,1.6,1.14,1.57c0.74-0.05,1.87-0.49,2.08-1.06C780.79,468.9,781.51,466.21,782.27,463.77z"/>
		<path class="vol2_2_st0" d="M799.05,574.04c-2.55,0.33-5.1,0.94-7.65,0.94c-3.82,0.01-5.63-3.03-3.97-6.46c1.89-3.92,4.5-7.3,8.36-9.47
			c1.05-0.59,2.35-0.98,3.55-1.01c2.72-0.08,3.86,1.31,3.15,3.97c-0.65,2.42-1.76,4.7-2.58,7.08c-0.47,1.36-0.74,2.79-1.1,4.2
			C798.89,573.53,798.97,573.79,799.05,574.04z"/>
		<path class="vol2_2_st0" d="M838.3,565.62c1.77,2.59,3.35,4.9,5.09,7.44c-2.47,1.7-5.14,2.99-8.31,2.81c-1.57-0.09-2.18-1.45-1.75-2.55
			C834.45,570.47,835.6,567.53,838.3,565.62z"/>
		<path class="vol2_2_st0" d="M731.72,271.76c-1.48,2.79-2.09,2.85-3.84,0.53C729.15,272.11,730.22,271.96,731.72,271.76z"/>
		<path class="vol2_2_st0" d="M571.48,599.94c-1.09,0.07-1.75,0.14-2.41,0.15c-4.46,0.03-5.84-1.49-5.07-5.81
			c0.94-5.27,2.03-10.51,3.06-15.83c1.33-0.2,1.95,0.4,1.85,1.73c-0.22,3.04-0.71,6.09-0.65,9.12c0.05,2.24,0.69,4.5,1.29,6.69
			C569.91,597.25,570.71,598.39,571.48,599.94z"/>
		<path class="vol2_2_st0" d="M674.04,201.87c0.17,2,0.38,3.77,0.44,5.55c0.06,1.48-2.54,4.66-3.79,4.38c-0.76-0.17-1.85-1.51-1.79-2.23
			C669.18,206.29,670.16,203.26,674.04,201.87z"/>
		<path class="vol2_2_st0" d="M679.85,200.55c-0.85,1.63-1.57,3-2.53,4.82C676.27,200.47,675.99,199.9,679.85,200.55z"/>
		<path class="vol2_2_st0" d="M787.68,276.47c0.89,1.41,1.64,2.59,2.67,4.23c-0.86,0.7-1.68,1.64-2.72,2.12c-0.93,0.43-2.1,0.35-3.16,0.49
			c0.1-1.23-0.11-2.6,0.38-3.64C785.38,278.53,786.55,277.69,787.68,276.47z"/>
		<path class="vol2_2_st0" d="M806.23,277.49c-0.95,0.57-1.88,1.18-2.85,1.69c-0.74,0.39-1.54,0.65-2.32,0.96
			c-0.17-0.75-0.64-1.59-0.43-2.21c0.26-0.77,0.97-1.71,1.68-1.94c0.93-0.3,2.07,0.03,3.11,0.08
			C805.69,276.55,805.96,277.02,806.23,277.49z"/>
		<path class="vol2_2_st0" d="M795.48,272.86c-1.05,1.9-2.1,3.81-3.49,6.32c-0.79-1.65-2.02-3.52-1.75-3.77c1.37-1.29,3.14-2.15,4.76-3.16
			C795.16,272.45,795.32,272.66,795.48,272.86z"/>
		<path class="vol2_2_st0" d="M683.41,305.76c-1.21,1.14-2.41,2.27-3.76,3.54C678.39,305.76,679.43,304.62,683.41,305.76z"/>
		<path class="vol2_2_st0" d="M566.34,423.62c0.07-2.88-0.08-5.91,2.84-7.87C568.23,418.38,567.29,421,566.34,423.62z"/>
		<path d="M777.64,495.35c1.02,0.68,1.79,1.54,2.69,1.71c1.38,0.26,2.26-0.52,2.15-2.1c-0.01-0.16,0.36-0.49,0.56-0.49
			c1.79-0.01,1.29-1.3,1.24-2.26c-0.12-1.92-0.41-3.84-0.48-5.77c-0.09-2.51,0.32-2.86,2.82-2.76c3.57,0.15,4.22,1.38,2.61,4.47
			c-2.09,4.03-1.41,4.82,2.35,7.11c1.57,0.96,3.59,1.55,2.86,3.79c-0.51,1.58-1.53,3.33-2.86,4.23c-1.63,1.11-3.6,0.43-5.11-0.97
			c-0.22-0.2-0.5-0.36-0.67-0.6c-1.56-2.25-3.58-3.04-6.39-2.93C776.89,498.9,776.32,497.19,777.64,495.35z M786.98,495.19
			c-0.52,0.78-1.04,1.55-1.73,2.58c1.37,1.21,2.58,2.54,4.06,3.46c0.55,0.34,2.11,0.02,2.5-0.52c0.71-0.97,1.13-2.41-0.38-3.28
			C790.02,496.63,788.54,495.97,786.98,495.19z"/>
		<path d="M792.97,472.15c0.97-2.89,1.99-5.86,2.96-8.85c0.41-1.26,0.64-2.59,1.1-3.82c0.23-0.63,0.8-1.13,1.22-1.68
			c0.61,0.55,1.77,1.14,1.74,1.65c-0.26,4.44-0.66,8.88-1.17,13.31c-0.19,1.68-1.53,1.59-2.73,1.09
			C795.14,473.45,794.28,472.87,792.97,472.15z"/>
		<path d="M782.27,463.77c-0.75,2.44-1.47,5.13-2.46,7.72c-0.22,0.57-1.34,1.01-2.08,1.06c-0.34,0.02-0.78-1-1.14-1.57
			c-0.12-0.18-0.08-0.52-0.22-0.61c-2.6-1.58-0.94-3.66-0.58-5.51c0.33-1.71,0.96-3.37,1.55-5.02c0.22-0.59,0.8-1.56,1.09-1.52
			c0.87,0.13,2.04,0.45,2.43,1.1C781.54,460.6,781.75,462.07,782.27,463.77z"/>
		<path class="vol2_2_st0" d="M786.98,495.19c1.56,0.78,3.04,1.44,4.44,2.24c1.51,0.87,1.09,2.31,0.38,3.28c-0.39,0.54-1.94,0.86-2.5,0.52
			c-1.47-0.92-2.69-2.25-4.06-3.46C785.94,496.74,786.46,495.97,786.98,495.19z"/>
	</g>
</g>
</svg>
