<?xml version="1.0" encoding="utf-8"?>
<!-- Generator: Adobe Illustrator 26.3.1, SVG Export Plug-In . SVG Version: 6.00 Build 0)  -->
<svg version="1.1" xmlns="http://www.w3.org/2000/svg" xmlns:xlink="http://www.w3.org/1999/xlink" x="0px" y="0px"
	 viewBox="0 0 1366 768" style="enable-background:new 0 0 1366 768;" xml:space="preserve">
<style type="text/css">
	.vol2_4_st0{fill:#FFFFFF;}
	.vol2_4_st1{fill:none;stroke:#ffffff;stroke-width:223.937;stroke-miterlimit:10;}
	.vol2_4_st2{fill:none;stroke:#ffffff;stroke-width:73.7008;stroke-miterlimit:10;}
	.vol2_4_st3{fill:none;stroke:#ffffff;stroke-width:51.0236;stroke-miterlimit:10;}
	.vol2_4_st4{fill:none;stroke:#ffffff;stroke-width:62.3622;stroke-miterlimit:10;}
	.vol2_4_st5{fill:none;stroke:#ffffff;stroke-width:56.6929;stroke-miterlimit:10;}
	.vol2_4_st6{fill:none;stroke:#ffffff;stroke-width:48.189;stroke-miterlimit:10;}
</style>
<g id="base">
	<g>
		<path class="vol2_4_st0" d="M427.95,163.8c150.13,0,300.27,0,450.45,0c0,174.56,0,349.14,0,523.8c-150.12,0-300.28,0-450.45,0
			C427.95,513.05,427.95,338.43,427.95,163.8z M553.08,433.4c-0.32,0.39-0.6,0.85-0.98,1.17c-3.1,2.68-3.49,6.64-4.7,10.18
			c-0.41,1.19-0.27,2.56-0.38,3.85c0.22,0.03,0.44,0.06,0.66,0.09c0.9-4.86,2.33-9.48,5.39-13.46c0.3-0.38-0.03-1.25-0.06-1.89
			c0.82-1.03,1.63-2.06,2.45-3.09c1.28-1.6,2.56-3.21,3.84-4.81c-3.2,1.63-4.91,4.45-6.31,7.51
			C552.95,433.07,553.05,433.25,553.08,433.4z M593.17,426.62c-0.17,0.05-0.34,0.09-0.51,0.14c0,2.21,0.01,4.41-0.01,6.61
			c-0.01,1.34,0.22,2.77-0.17,4c-1.44,4.63-2.93,9.25-4.7,13.76c-3.45,8.76-7.14,17.45-16.1,22.21c-4.95,2.63-9.99,5.1-15.04,7.53
			c-0.52,0.25-1.89-0.05-2.03-0.41c-0.78-2.02-1.3-4.15-1.91-6.23c0.26-0.17,0.52-0.34,0.78-0.51c1.37,0.77,2.67,1.74,4.12,2.27
			c2.64,0.96,3.43,0.7,4.35-0.98c-4.21-0.71-8.41-1.44-10.25-6.29c-1.36,4.75-0.32,8.96,1.23,13.19c-5.7,1.8-11.38,2.32-17.14,1.2
			c-7.21-1.41-12.35-5.58-14.35-12.63c-1.19-4.18-1.13-8.71-1.59-13.09c-0.03-0.31,0.27-0.68,0.49-0.98
			c2.46-3.37,4.93-6.73,7.39-10.1c2.77-3.8,5.68-7.51,8.23-11.46c2.21-3.42,4.03-7.11,5.97-10.7c0.61-1.13,1.05-2.35,1.57-3.53
			c-0.21-0.11-0.41-0.21-0.62-0.32c-3.7,2.95-3.71,8.31-7.12,11.49c2.18-4.65,4.82-9.13,4.14-14.64c-0.98,0.66-2,1.5-2.02,2.36
			c-0.08,4.42-1.64,8.17-4.8,11.63c0.48-2.12,0.94-3.96,1.31-5.82c0.36-1.79,1.44-3.66-0.36-5.43c-3,11.14-5.91,22.23-14.21,30.85
			c0.89-2.15,1.95-4.23,3.21-6.18c3.68-5.7,6.2-11.73,5.6-18.7c-0.19-2.24,0.37-4.1,2.7-5.09c-1.56-0.92-5.5,1.58-5.83,3.4
			c-0.18,1-0.45,2.03-0.91,2.92c-3.18,6.11-4.83,12.67-5.93,19.41c-0.12,0.72-0.28,1.48-0.64,2.1c-3.1,5.39-6.74,10.39-10.92,14.98
			c-1.47,1.61-2.97,3.19-4.45,4.79c-0.14-0.09-0.28-0.19-0.42-0.28c0.51-2.05,1.03-4.1,1.54-6.15c-0.18-0.06-0.36-0.13-0.54-0.19
			c-0.74,2.33-1.64,4.62-2.17,7c-0.38,1.7-0.7,2.96-2.83,2c-0.15,1.02-0.42,1.91-0.35,2.78c0.07,0.89,0.23,2.09,0.82,2.52
			c0.52,0.38,1.93,0.21,2.51-0.25c2.21-1.76,4.33-3.66,6.34-5.65c3.22-3.19,6.34-6.5,9.5-9.76c0.27-0.28,0.53-0.56,1.06-1.12
			c0.23,2.75,0.55,5.11,0.6,7.47c0.16,7.7,6.48,16.37,14.05,17.73c1.22,0.22,1.68,0.94,1.3,2.08c-0.89,2.66-1.72,5.35-2.8,7.93
			c-0.67,1.63-1.53,3.27-2.66,4.6c-3.34,3.9-6.92,7.6-10.3,11.47c-3.08,3.53-6.03,7.18-8.99,10.8c-2.02,2.47-4.31,4.91-4.66,8.21
			c-0.35,3.25-3.14,4.58-4.73,6.83c-0.27,0.38-1.36,0.35-2.03,0.23c-1.69-0.3-3.21-0.09-4.19,1.41c-1.96,2.99-3.79,6.07-5.73,9.08
			c-1.11,1.73-2.19,3.53-3.54,5.07c-1.05,1.2-1.22,2.41-0.26,3.36c1.38,1.38,2.98,2.65,4.69,3.55c2.97,1.56,6.14,2.74,9.16,4.21
			c3.33,1.62,3.71,1.49,5.63-1.74c2.21-3.71,4.7-7.26,6.78-11.03c0.79-1.43,0.78-3.3,1.16-4.97c0.16-0.7,0.21-1.5,0.6-2.05
			c1.93-2.72,3.56-5.52,3.47-9.02c-0.03-0.98,4.28-5.26,5.27-5.29c0.19-0.01,0.4,0.15,0.59,0.24c1.54,0.77,2.6,0.24,3.64-1.06
			c1.26-1.58,2.75-2.97,4.45-4.77c0,4.88,0,9.18,0,13.39c-1.56,0.1-3,0.18-4.54,0.28c0,1.47,0.19,2.7-0.03,3.84
			c-0.8,4.04-1.65,8.07-2.64,12.07c-1.48,6.03-3.02,12.06-4.67,18.04c-0.81,2.91-1.97,5.72-2.92,8.6c-0.96,2.9-1.69,5.88-2.82,8.71
			c-1.01,2.51-1.12,2.85,1.37,3.67c2.09,0.69,4.28,1.09,6.5,1.63c-1.22,3.99-2.41,7.92-3.49,11.46c-4.78,0.22-9.13,0.18-13.41,0.69
			c-2.98,0.35-5.28,3.16-4,5.88c0.66,1.4,1.61,2.75,2.73,3.8c0.84,0.79,2.17,1.05,3.28,1.55c0.91,0.5,1.66,1.54,2.62,1.8
			c3.74,1.04,7.58,1.02,10.77-1.38c3.56-2.67,6.78-5.8,9.96-8.56c-0.2-0.61-0.47-1.15-0.54-1.71c-0.32-2.79-0.28-5.68-0.99-8.36
			c-0.4-1.52-1.44-3.37-3.78-3.49c2.68,6.58,3.11,9.17,2.07,12.94c-2.21-0.25-4.47-0.51-6.76-0.77c1.04-4.09,2.12-7.95,2.97-11.87
			c0.5-2.32,1.77-2.58,3.74-2.06c1.36,0.36,2.8,0.7,4.18,0.63c1.67-0.08,2.41,0.51,2.4,2.1c-0.03,4.27-0.08,8.54-0.15,12.81
			c-0.01,0.34-0.13,0.8-0.36,0.99c-1.35,1.09-2.19,1.99,0.42,2.44c0.31,0.05,0.58,0.78,0.72,1.24c0.31,1,0.45,2.05,0.8,3.03
			c1.18,3.32,3.1,4.91,5.79,4.35c1.46-0.3,2.86-1.23,4.12-2.13c3.26-2.33,2.76-7.24-0.67-8.64c-4.52-1.85-5.43-5.7-5.27-9.97
			c0.08-2,0.66-3.99,1.06-6.21c4.86-0.8,9.07-3.27,10.89-8.55c0.87-2.51,1.5-5.2,1.68-7.84c0.42-6.1,0.87-12.25,0.61-18.35
			c-0.23-5.36,0.57-11.21-4.09-15.5c-0.27-0.25-0.25-0.81-0.25-0.81c4.97-3.58,2.97-9.09,4.31-13.5c2.76,1.8,5.24,3.98,8.14,5.11
			c2.09,0.81,3.75,1.89,5.37,3.27c4.62,3.94,9,2.62,10.68-3.2c1.14-3.95-0.55-7.59-4.15-8.79c-0.79-0.26-1.67-0.24-2.69-0.36
			c0.72-1.58,2.02-3.08,1.84-4.36c-0.2-1.42-1.76-2.64-2.71-3.95c-0.26-0.36-0.43-0.79-0.7-1.15c-2.56-3.39-5.03-6.85-7.72-10.12
			c-2.07-2.53-4.42-4.83-6.62-7.2c0.75-0.47,1.27-1.01,0.33-2.42c-2.28-3.43-4.25-7.07-6.47-10.84c2.56-0.59,4.73-1.06,6.88-1.58
			c2.09-0.51,4.5,0.88,6.81-1.09c-0.94-0.15-1.43-0.23-1.74-0.28c5.16-2.82,10.26-5.78,15.51-8.44c5.45-2.76,8.7-7.52,11.41-12.56
			c2.38-4.43,3.93-9.29,5.86-13.96c2.48-5.99,3.48-12.2,2.77-18.66C593.91,428.37,593.46,427.5,593.17,426.62z M746.2,489.2
			c2.63-0.36,4.12,1.45,5.83,2.79c2.69,2.11,5.34,4.28,8.1,6.29c2.46,1.8,5.13,3.3,7.55,5.15c5.4,4.14,13.13,3.79,17.95-1.06
			c6.57-6.62,9.77-14.76,9.96-23.98c0.11-4.98-1.07-9.71-3.19-14.41c-1.59-3.52-3.46-6.92-5.76-9.74
			c-5.42-6.65-13.29-9.87-21.2-12.48c-3.66-1.21-7.7-1.5-11.59-1.71c-3.57-0.2-7.18,0.17-10.76,0.45
			c-6.88,0.55-13.74,1.28-20.37,3.3c-6.61,2.01-13.15,4.23-19.71,6.39c-0.53,0.18-0.97,0.62-1.49,0.97
			c0.61,1.41,1.28,1.92,2.82,1.37c6.02-2.17,11.99-4.59,18.17-6.19c8.98-2.33,18.06-4.36,27.48-4.16
			c6.87,0.14,13.54,0.66,19.98,3.48c6.93,3.04,13.12,6.47,17.32,13.32c4.86,7.93,6.65,16.13,5.11,25.15
			c-1.2,7.02-3.95,13.34-9.48,18.06c-2.82,2.41-6.43,3.48-9.82,1.81c-4.52-2.23-8.75-5.09-12.99-7.86
			c-2.63-1.71-4.95-3.88-7.57-5.61c-2.62-1.73-5.42-3.17-8.28-4.81c0.21,2.21,0.18,4.44,0.67,6.56c1.75,7.56,2.75,15.12,0.96,22.82
			c-0.56,2.4-1.25,4.78-1.65,7.21c-0.97,5.88-4.45,9.91-9.48,12.58c-1.74,0.92-4.06,1.53-5.96,1.23
			c-8.51-1.32-15.96-5.08-21.91-11.33c-2.96-3.11-4-7.2-4.54-11.49c-0.87-6.98-0.65-13.77,1.63-20.51c1.03-3.05,2.51-6.17,1.51-9.59
			c-2.04-0.25-2.96,0.54-3.04,2.33c-0.08,1.88,0.01,3.87-0.61,5.59c-2,5.52-2.34,11.26-2.38,16.98c-0.05,7.45,1.8,14.32,7.72,19.51
			c5.79,5.07,12.32,8.56,19.97,10.01c4.13,0.78,7.7,0.06,10.87-2.64c1.92-1.64,3.38-4.07,6.49-3.61c0.31,0.05,0.66-0.32,1.01-0.46
			c3.57-1.44,7.09-2.99,10.71-4.27c5.69-2.01,11.44-3.86,17.19-5.71c4.45-1.43,8.91-2.87,13.42-4.1c4.89-1.33,9.88-2.34,14.76-3.7
			c0.94-0.26,2.1-1.38,2.34-2.31c1.71-6.85,5.78-12.15,10.76-16.87c1.47-1.39,3.36-1.25,4.81,0.16c1.62,1.58,1.99,4.56,0.5,7.11
			c-2.48,4.25-4.9,8.49-9.47,11.1c-3.66,2.09-6.26,5.32-7.09,9.64c-0.46,2.41-0.84,4.84-1.19,7.26c-0.72,5.11-1.45,10.2-4.09,14.8
			c-0.88,1.54-1.93,2.65-3.61,3.07c-2.86,0.72-7.16-1.05-8.96-3.49c-1-1.35-1.24-2.44,0.12-3.72c0.39-0.37,0.25-1.29,0.38-2.13
			c-1.17,0.63-1.82,1.29-2.47,1.29c-3.05,0-6.1-0.18-9.15-0.3c-5.79-0.23-11.67,6.7-11.61,11.3c0.05,4.16-0.22,8.38-0.88,12.49
			c-0.68,4.2-3.71,6.45-7.78,7.36c-1.78,0.4-3.47,0.49-4.57-1.3c-1.02-1.65-1.7-3.36-0.1-5.11c0.14-0.16,0.08-0.5,0.13-0.87
			c-0.57,0.41-0.99,0.71-1.53,1.1c-0.52-4.31-1.29-8.24-4.62-10.98c0.33-0.83,0.61-1.56,0.9-2.29c-0.16-0.08-0.31-0.17-0.47-0.25
			c-0.57,0.54-1.14,1.07-1.83,1.72c-6.55-3.6-10.63-10.63-17.74-13.42c-0.12,0.15-0.24,0.31-0.36,0.46
			c5.61,4.69,11.22,9.37,16.53,13.8c-2.62,2.87-5.36,5.47-7.59,8.46c-1.25,1.68-1.77,3.96-2.41,6.03c-0.54,1.73,0.59,2.88,2.11,3.09
			c3.79,0.52,7.63,0.79,10.99-1.71c0.54-0.4,1.15-0.7,1.69-1.1c1.23-0.91,1.79-0.44,2.6,0.74c0.86,1.26,2.1,2.71,3.46,3.12
			c4.58,1.38,11.52-2.78,12.38-7.52c0.66-3.65,0.65-7.43,0.89-11.15c0.19-3.03,0.62-5.97,2.65-8.4c4.18-4.99,9.79-4.48,16.17-4.24
			c-1.15,1.88-1.84,3.32-2.82,4.53c-1.99,2.43-4.01,4.77-4.81,7.95c-0.68,2.67-0.29,3.41,2.55,3.69c3.07,0.3,9.24-3.42,10.42-6.32
			c0.08-0.2-0.06-0.5-0.11-0.83c-3.51,2.68-6.31,6.62-11.58,5.15c0.94-4.51,3.29-7.8,6.09-10.28c2.04,1.49,3.75,3.16,5.79,4.13
			c4.06,1.91,7.15,1.47,9.36-1.68c1.83-2.62,3.35-5.67,4.17-8.75c1.29-4.83,1.98-9.84,2.73-14.8c0.45-3,1.39-5.65,3.73-7.65
			c1.3-1.11,2.72-2.08,4.01-3.2c3.71-3.2,7.09-6.79,8.83-11.39c0.71-1.87,0.76-4.71-0.21-6.33c-2.12-3.54-5.74-3.72-8.67-0.73
			c-4.41,4.5-8.27,9.46-10.14,15.63c-0.61,2.01-1.86,2.97-3.85,3.19c-0.74,0.08-1.51,0.09-2.22,0.3c-8.6,2.45-17.21,4.87-25.78,7.41
			c-5.79,1.71-11.55,3.52-17.28,5.43c-3.3,1.1-6.5,2.49-9.92,3.81C749.18,516.36,750.81,503.15,746.2,489.2z M819.09,195.6
			c-0.32,1.81-0.7,3.47-0.89,5.16c-0.71,6.46-1.21,12.95-2.08,19.4c-0.95,7.1-2.39,14.14-3.31,21.25
			c-1.05,8.15-1.78,16.34-2.62,24.52c-0.71,6.97-1.34,13.94-2.08,20.91c-0.25,2.37-0.76,4.72-1.08,7.09
			c-0.55,3.99-1.09,7.99-1.56,12c-0.33,2.8-0.47,5.63-0.81,8.43c-0.62,5.19-1.33,10.37-2,15.56c-0.01,0.07,0,0.15-0.01,0.22
			c-0.06,2.87-0.06,5.74-0.18,8.6c-0.29,6.68-0.58,13.36-0.97,20.04c-0.17,2.89-0.4,5.82-0.98,8.65c-0.58,2.84-0.36,5.32,0.96,7.97
			c3.81,7.61,7.17,15.46,11.14,22.98c1.56,2.96,1.46,5.3-0.13,7.92c-0.62,1.02-1.31,2.01-1.85,3.08c-0.36,0.72-0.51,1.54-0.76,2.32
			c0.19,0.16,0.38,0.32,0.57,0.48c1.01-0.62,2.27-1.04,2.97-1.91c0.79-0.99,0.83-2.57,1.62-3.56c1.73-2.18,1.38-4.21,0.27-6.47
			c-1.65-3.34-3.16-6.74-4.7-10.13c-0.09-0.2,0.08-0.51,0.15-0.87c0.63,0.44,1.14,0.78,1.76,1.21c-0.25-1.51-0.22-2.91-0.71-4.08
			c-1.23-2.91-2.57-5.79-4.13-8.54c-1.82-3.21-2.96-6.43-2.76-10.24c0.37-7.32,0.54-14.65,0.55-21.98
			c0.02-13.22,1.46-26.31,3.21-39.38c0.73-5.47,1.52-10.93,2.11-16.42c0.74-6.9,1.28-13.83,1.95-20.74
			c0.53-5.42,1.06-10.84,1.71-16.25c0.8-6.64,1.44-13.31,2.65-19.87c1.15-6.22,2.77-12.35,3.11-18.71c0.29-5.45,0.64-10.9,0.9-16.36
			C821.17,196.65,821.1,195.33,819.09,195.6z M465.07,518.16c-3.76,3-3.51,7.64-4.06,12.14c1.51,0.07,2.81,0.14,4.12,0.2
			c-0.32,4.04-0.63,7.9-0.92,11.77c-0.09,1.22,0.02,2.48-0.23,3.67c-0.88,4.07-1.46,7.9,1.32,11.73c2.57,3.55,4.53,7.54,6.63,11.41
			c1.61,2.96,2.14,6.16,1.6,9.55c-1.4,8.91-2.84,17.81-3.98,26.75c-0.2,1.58-0.72,1.9-1.91,2.36c-6.7,2.55-13.38,5.14-20.03,7.82
			c-1.45,0.58-2.73,1.6-4.09,2.41c0.09,0.27,0.18,0.55,0.28,0.82c1.21-0.24,2.49-0.32,3.62-0.76c6.72-2.62,13.41-5.33,20.12-7.98
			c2.35-0.93,4.28-2.02,4.51-5c0.24-3.05,0.93-6.06,1.37-9.09c0.91-6.28,2.01-12.54,2.61-18.85c0.47-4.97-2.74-8.87-4.85-13.02
			c-2.15-4.22-4.63-8.26-6.78-12.07c0.77-0.94,1.51-1.44,1.59-2.03c0.46-3.32,0.86-6.65,1.08-9.99c0.67-10.44,1.24-20.9,1.88-31.34
			c0.3-5,0.67-9.99,0.99-14.99c0.42-6.63,0.95-13.25,1.18-19.88c0.13-3.71-0.35-7.44-0.39-11.17c-0.05-4.64,0.25-9.29,0.08-13.93
			c-0.16-4.54-0.66-9.08-1.14-13.61c-0.11-1.04-0.46-2.55-1.15-2.88c-0.74-0.35-2.09,0.3-3.06,0.76c-1.95,0.91-3.86,1.91-5.71,3.02
			c-3.7,2.22-7.37,4.49-10.98,6.87c-0.54,0.35-0.62,1.39-1.1,2.58c6.74-4.09,12.82-7.79,19.51-11.85
			C469.28,462.31,468.95,490.17,465.07,518.16z M697.77,374.29c0.23,0.11,0.46,0.21,0.68,0.32c0.43-0.55,0.97-1.04,1.28-1.65
			c2.23-4.32,1.7-9.09,1.8-13.66c0.23-10.85,0.07-21.71,0.01-32.57c-0.05-8.61-0.26-17.22-0.28-25.83
			c-0.02-13.62-0.07-27.21,1.07-40.84c0.75-9.02,2.31-17.71,4.61-26.4c1.63-6.18,3.14-12.54,3.44-18.88
			c0.33-7.04-0.78-14.15-1.28-21.22c-0.07-0.92,0.05-2.27-1.44-1.86c-0.46,0.13-0.91,1.4-0.84,2.1c0.25,2.82,0.82,5.61,1.07,8.44
			c1,10.86-0.17,21.49-3.4,31.92c-2.05,6.62-4.18,13.2-4.34,20.28c-0.26,11.43-2.24,22.78-1.67,34.27
			c0.29,5.89,0.03,11.81,0.1,17.72c0.1,8.59,0.33,17.19,0.4,25.78c0.05,5.67-0.27,11.36-0.05,17.02c0.27,6.81,0.79,13.59-0.53,20.36
			C698.1,371.13,697.97,372.72,697.77,374.29z M637.95,358.75c1.02-0.1,1.86-0.18,2.85-0.27c0-2.78,0-5.38,0-7.97
			c0-1.34,0.01-2.69-0.04-4.03c-0.29-7.61-0.95-15.24-0.8-22.84c0.14-6.94,1.32-13.85,1.72-20.79c0.6-10.53,0.87-21.08,1.35-31.62
			c0.18-3.96,0.32-7.95,0.88-11.87c1.04-7.32,2.5-14.59,3.56-21.91c1.1-7.61,1.96-15.26,2.9-22.9c0.71-5.79,1.42-11.58,2.05-17.39
			c0.06-0.57-0.51-1.2-0.79-1.81c-0.53,0.52-1.43,0.99-1.52,1.57c-1.13,7.84-2.14,15.69-3.18,23.54c-0.83,6.3-1.61,12.6-2.51,18.89
			c-1.32,9.25-3.12,18.44-3.99,27.73c-0.81,8.61-0.52,17.32-0.98,25.98c-0.42,7.91-1.24,15.8-1.78,23.7
			c-0.29,4.24-0.44,8.49-0.51,12.74c-0.05,3.66,0.04,7.33,0.19,11c0.12,2.97,0.48,5.93,0.59,8.9
			C638.03,352.39,637.95,355.37,637.95,358.75z M592.02,182.78c-2.05,0.46-2.6,2.06-2.87,3.48c-0.88,4.67-1.7,9.37-2.23,14.09
			c-0.74,6.61-1.1,13.26-1.82,19.88c-0.5,4.52-1.45,9-2,13.51c-0.45,3.63-0.57,7.29-0.91,10.93c-0.51,5.34-1.22,10.67-1.61,16.02
			c-0.62,8.5-1.1,17.02-1.56,25.54c-0.26,4.79-0.32,9.58-0.54,14.37c-0.22,4.84-0.41,9.7-0.84,14.53
			c-0.62,6.91-1.43,13.8-2.18,20.69c-0.52,4.75-1.06,9.49-1.6,14.23c-0.34,3.01-0.7,6.03-1.09,9.36c1.03-0.16,1.71-0.26,2.34-0.36
			c0.12-1.25,0.17-2.29,0.33-3.31c0.6-3.76,1.43-7.49,1.83-11.26c1.06-10.04,2.14-20.08,2.84-30.15c0.72-10.23,0.9-20.49,1.5-30.73
			c0.59-10.09,1.37-20.17,2.13-30.25c0.4-5.22,0.93-10.43,1.43-15.64c0.23-2.38,0.49-4.75,0.82-7.11
			c0.81-5.69,1.88-11.36,2.47-17.08c1.04-9.95,0.91-20.04,3.71-29.78C592.2,183.56,592.1,183.32,592.02,182.78z M700.48,483.74
			c-0.82,1.44-1.28,2.89-2.24,3.83c-5.98,5.85-12.01,11.65-18.17,17.32c-1.85,1.7-4.02,3.13-6.26,4.29
			c-2.72,1.41-4.75,0.45-5.45-2.51c-0.39-1.62-0.39-3.41-0.16-5.07c0.74-5.38,4.36-9.38,7.08-13.75c2.97-4.78,6.35-9.32,9.78-13.8
			c3.84-5.02,7.93-9.85,11.91-14.76c1.57-1.94,3.15-3.88,4.76-5.86c-1.43-1.32-2.36-1-3.24,0.14c-0.77,1-1.55,1.99-2.37,2.94
			c-3.03,3.52-6.29,6.87-9.07,10.58c-4.28,5.69-8.26,11.62-12.34,17.46c-2.13,3.06-4.35,6.07-6.24,9.27
			c-1.78,3.01-2.92,6.33-2.93,9.91c-0.01,3.08,0.95,5.94,3.63,7.51c2.52,1.48,5.31,0.72,7.58-1c2.72-2.06,5.41-4.2,7.89-6.55
			c5.12-4.85,10.19-9.78,15.05-14.89C700.72,487.71,701.99,485.89,700.48,483.74z M756.02,405.68c0.18-0.08,0.36-0.17,0.54-0.25
			c0.59-3.97,1.17-7.94,1.78-11.9c0.4-2.57,1.09-5.13,1.22-7.72c0.34-7.16,0.23-14.34,0.71-21.48c0.52-7.77,1.26-15.55,2.38-23.25
			c0.81-5.59,2.34-11.08,3.68-16.58c1-4.11,3.8-7.13,6.56-10.15c1.39-1.52,3.25-2.76,3.45-5.3c-0.48,0.1-0.86,0.06-1.01,0.22
			c-3.11,3.49-6.38,6.86-9.24,10.54c-2.92,3.75-3.24,8.56-4.25,12.99c-1.49,6.59-2.82,13.26-3.51,19.96
			c-0.75,7.34-0.65,14.77-1.01,22.16c-0.25,5.15-0.6,10.3-0.98,15.44c-0.33,4.39-0.81,8.77-1.11,13.17
			C755.18,404.23,755.74,404.97,756.02,405.68z M562.01,270.37c-2.58-0.54-5.16-1.08-7.74-1.63c-1.38-0.29-2.78-0.54-4.13-0.94
			c-0.43-0.13-1.05-0.73-1.03-1.09c0.18-3.46,0.47-6.91,0.75-10.58c1.76-0.16,3.6-0.3,5.43-0.52c1.48-0.18,3-0.28,4.38-0.78
			c0.56-0.2,0.79-1.33,1.18-2.04c-0.66-0.1-1.33-0.36-1.96-0.29c-3.07,0.32-6.14,0.72-9.13,1.09c-0.26-2.66-0.39-4.81-0.7-6.94
			c-0.25-1.77,0.16-2.69,2.16-2.71c2.46-0.02,4.93-0.24,7.38-0.51c0.5-0.05,0.93-0.67,1.39-1.03c-0.47-0.26-0.95-0.76-1.42-0.75
			c-2.31,0.06-4.64,0.13-6.93,0.44c-2.87,0.39-3.51-0.06-3.72-3.07c-0.04-0.6-0.2-1.3-0.57-1.72c-0.2-0.22-1.26-0.11-1.4,0.14
			c-0.26,0.48-0.27,1.2-0.15,1.76c0.65,2.92,0.61,3.02-2.18,4.08c-0.31,0.12-0.55,0.41-0.97,0.73c0.45,0.32,0.76,0.74,1.01,0.7
			c3.4-0.56,2.93,1.97,3.17,3.92c0.1,0.82,0.08,1.65,0.16,2.47c0.28,3.17,0.28,3.14-2.9,3.92c-1.11,0.27-2.38,0.54-2.14,2.51
			c1.79-0.22,3.5-0.43,5.56-0.68c-0.16,3.61-0.31,6.99-0.46,10.51c-0.91-0.11-1.34-0.17-1.78-0.21c-2.88-0.25-4.83,0.82-5.57,3.06
			c-0.76,2.26,0.3,5.09,2.6,6.34c1.16,0.63,2.63,1.09,3.47-0.6c0.7-1.39,1.43-2.8,1.84-4.28c0.36-1.28,1.02-1.57,2.11-1.26
			c2.36,0.67,4.77,1.26,7.06,2.14C559.35,273.54,561.44,272.62,562.01,270.37z M768.72,288.56c0.15-0.06,0.3-0.13,0.45-0.19
			c-0.12-0.52-0.14-1.09-0.36-1.56c-1.39-2.97-2.93-5.88-4.2-8.9c-0.67-1.6-1.31-3.38-1.29-5.07c0.1-8.07,0.33-16.15,0.72-24.22
			c0.46-9.33,0.97-18.67,1.78-27.98c0.74-8.56,1.94-17.09,2.83-25.64c0.06-0.62-0.72-1.33-1.1-2c-0.36,0.62-0.97,1.22-1.04,1.87
			c-0.67,5.78-1.17,11.59-1.88,17.37c-0.34,2.81-1.29,5.55-1.5,8.36c-0.63,8.57-1.16,17.15-1.49,25.73
			c-0.34,8.87-0.46,17.74-0.53,26.62c-0.01,1.49,0.5,3.07,1.1,4.47c0.66,1.54,1.71,2.92,2.57,4.38
			C766.09,284.06,767.4,286.31,768.72,288.56z M625.41,260.86c1.27,1.12,2.62,1.24,3.8,0.14c0.78-0.73,1.23-1.82,1.79-2.78
			c1.23-2.13,1.17-4.38-0.01-6.42c-1.22-2.11-3.4-2.11-5.55-1.87c-3.68,0.41-7.35,0.79-11.22,1.2c-0.31-3.54-0.6-6.93-0.9-10.37
			c1.13-0.36,2.11-0.72,3.11-0.98c2.31-0.61,4.65-1.08,6.93-1.79c1.34-0.42,3.14-0.76,2.53-3.09c-4.38,1.24-8.56,2.43-12.86,3.65
			c-0.39-1.72-0.65-3.25-1.14-4.71c-0.14-0.42-0.96-0.61-1.47-0.91c-0.24,0.47-0.66,0.94-0.67,1.41c-0.03,1.04,0.03,2.11,0.29,3.12
			c0.34,1.36-0.24,1.76-1.43,1.86c-0.67,0.06-1.35,0.41-1.98,0.31c-2.12-0.37-2,1.04-2.23,2.72c2.32-0.26,4.41-0.5,6.67-0.76
			c0.26,2.85,0.61,5.51,0.7,8.18c0.03,0.81-0.46,2.06-1.09,2.39c-1.63,0.87-3.48,1.29-5.21,1.98c-1.17,0.47-2.29,1.09-3.41,1.64
			c1.73,3.79,4.8,4.98,8,5.75c2.4,0.58,3.04-0.06,3.38-2.53c0.19-1.41,0.21-2.84,0.43-4.24c0.07-0.49,0.47-1.3,0.76-1.32
			c4.14-0.28,8.29-0.55,12.44-0.58c0.89-0.01,2.37,0.81,2.56,1.52c0.3,1.14,0.12,2.76-0.53,3.72
			C628.36,259.21,626.87,259.83,625.41,260.86z M859.61,208.74c0.15-0.01,0.31-0.02,0.46-0.04c0.29,0.89,0.58,1.79,0.89,2.68
			c0.72,2.12,1.37,4.26,2.22,6.33c0.22,0.53,1.07,0.81,1.63,1.2c0.11-0.72,0.45-1.5,0.28-2.14c-0.38-1.43-1.15-2.75-1.52-4.18
			c-0.75-2.95-1.26-5.96-2.05-8.9c-0.19-0.69-1-1.34-1.69-1.7c-0.3-0.15-1.39,0.41-1.48,0.79c-0.75,3.41-1.37,6.85-2.02,10.28
			c-0.71,3.75-1.25,7.53-2.16,11.23c-1,4.07-4.15,5.74-8.72,4.96c-2.74-0.46-4.1-2.57-3.78-6.66c0.23-3.04,0.84-6.06,1.46-9.04
			c0.61-2.92,1.53-5.78,2.12-8.71c0.17-0.87-0.32-1.88-0.51-2.82c-0.92,0.37-1.84,0.74-2.75,1.12c-0.13,0.05-0.21,0.21-0.31,0.32
			c-2.52,2.45-5.06,4.87-7.52,7.39c-0.43,0.44-0.46,1.26-0.67,1.91c0.71-0.05,1.64,0.16,2.09-0.21c1.44-1.18,2.68-2.61,4.04-3.89
			c0.58-0.54,1.27-0.95,2.4-1.78c-0.23,1.36-0.33,2.01-0.45,2.65c-0.86,4.38-2.01,8.73-2.53,13.14c-0.71,5.91,1.84,8.45,7.76,8.42
			c0.15,0,0.3,0,0.45,0c5.32-0.22,8.53-2.87,9.49-7.78C857.67,218.45,858.65,213.6,859.61,208.74z M678.09,229.43
			c2.15-0.21,2.71-0.88,2.19-2.57c-1.14-3.68-2.13-7.4-3.15-11.11c-0.83-3.01-1.69-6.02-2.41-9.06c-0.3-1.27,1.77-3.6,3.21-3.45
			c0.56,0.06,0.93,1.44,1.49,2.13c0.47,0.58,1.1,1.03,1.66,1.53c0.28-0.81,0.77-1.62,0.79-2.44c0.02-0.73-0.48-1.48-0.73-2.18
			c2.72-1.59,4.71-1.23,6.98,1.1c1.53,1.58,1.75,5.39,0.2,7.28c-0.79,0.97-1.88,1.97-3.03,2.3c-1.06,0.3-2.37-0.27-3.57-0.46
			c-0.13,1.92-0.05,2.09,1.7,2.46c2.98,0.63,4.98-0.86,6.66-3.08c2.71-3.59,2.09-10.79-2.81-12.38c-2.04-0.66-4.32-0.62-6.79-0.93
			c-0.36-0.9-0.96-2.37-1.55-3.85c-0.29,0.05-0.58,0.09-0.86,0.14c-0.11,0.81-0.47,1.69-0.29,2.43c0.68,2.75-0.28,4.38-3,5.05
			c-0.28,0.07-0.55,0.2-1.3,0.48c-0.12-1.62-0.13-3.07-0.39-4.47c-0.09-0.49-0.76-0.88-1.17-1.32c-0.4,0.52-1.07,1-1.15,1.57
			c-0.12,0.86,0.01,1.82,0.3,2.65c0.78,2.3-0.44,3.32-2.25,4.32c-1.87,1.03-3.61,2.33-5.26,3.69c-0.46,0.38-0.41,1.37-0.59,2.08
			c0.65-0.21,1.37-0.29,1.93-0.64c2.33-1.43,4.61-2.94,7.12-4.55C674.14,214.26,676.12,221.87,678.09,229.43z M602.58,297.37
			c-0.18-0.22-0.35-0.44-0.53-0.65c0.29-1.37,0.73-2.72,0.83-4.1c0.12-1.69,0.94-2.22,2.52-2.51c1.89-0.35,3.71-1.14,5.55-1.76
			c1.6-0.54,1.45-1.41,0.83-2.1c-2.66,0.67-5.03,1.27-7.82,1.97c0.39-1.22,0.58-2.01,0.89-2.74c0.92-2.2,1.95-4.35,2.81-6.57
			c0.17-0.44-0.22-1.11-0.36-1.67c-0.51,0.38-1.25,0.64-1.48,1.15c-1.31,2.93-2.54,5.89-3.7,8.88c-0.67,1.72-1.63,2.78-3.64,2.58
			c-1.33-0.13-2.68-0.16-4.02-0.16c-0.4,0-1.08,0.22-1.13,0.45c-0.09,0.43,0.03,1.18,0.33,1.37c0.59,0.37,1.36,0.6,2.05,0.6
			c1.52-0.01,3.03-0.19,4.66-0.32c-0.31,2.28-0.58,4.32-0.86,6.42c-2.3,0.62-4.7,1.27-7.35,1.99c1.44,1.93,2.97,1.32,4.41,0.83
			c2.7-0.93,2.75-0.92,3.32,1.78c0.65,3.08,2.75,4.59,5.9,4.43c4.26-0.22,7.77-1.87,10.6-5.05c2.46-2.76,2.23-7.9-0.74-9.67
			c0.26,0.67,0.45,1.12,0.61,1.58c1.23,3.51,0.05,7.19-3.19,8.91c-1.87,1-4.03,1.49-6.08,2.12c-1.77,0.54-3.05-0.4-4.08-1.67
			c-1.46-1.78-0.77-3.77,1.36-4.58c2.18-0.83,4.31-1.82,6.42-2.83c0.4-0.19,0.61-0.8,1.16-1.57
			C608.38,295.56,605.48,296.47,602.58,297.37z M625.61,192.1c-0.19-0.16-0.38-0.32-0.57-0.48c-3.19,3.92-6.38,7.84-10.09,12.39
			c-1.31-2.82-2.42-5.2-3.53-7.57c-0.32-0.68-0.67-1.35-1.01-2.03c-0.47,0.74-1.14,1.43-1.33,2.23c-0.15,0.64,0.18,1.47,0.51,2.12
			c1.21,2.42,2.5,4.81,3.95,7.55c-2.12,2.69-3.26,6.2-2.57,10.18c0.34,1.98,1.31,3.35,3.37,4.04c5.24,1.76,10.32,1.52,15.16-1.1
			c1.93-1.05,3.73-2.42,5.35-3.9c0.96-0.88,1.03-2.19-0.69-3.16c-0.11,2.9-2.14,3.92-4.17,4.9c-0.87,0.42-1.8,0.7-2.71,1.03
			c-4.07,1.5-8.15,1.84-12.04-0.44c-0.96-0.57-2.33-1.73-2.27-2.52c0.17-2.24,0.92-4.44,1.56-6.63c0.41-1.41,1.54-1.83,2.97-1.89
			c0.5-0.02,0.97-0.73,1.68-1.31c-1.95-0.67-1.63-1.66-0.81-2.67c1.12-1.4,2.26-2.78,3.43-4.13
			C623.51,196.75,625.22,194.79,625.61,192.1z M730.27,306.19c0.28,0.13,0.56,0.26,0.84,0.38c0.49-0.69,1.33-1.34,1.42-2.08
			c0.46-3.83,0.89-7.68,1.01-11.54c0.06-2,0.29-3.69,1.54-5.38c2.87-3.9,5.54-7.96,8.21-12.01c0.34-0.52,0.33-1.44,0.14-2.07
			c-0.07-0.24-1.15-0.39-1.68-0.25c-2.6,0.68-5.21,1.37-7.75,2.24c-4.6,1.58-9.14,3.31-14.11,3.38c-0.88,0.01-1.76,0.49-2.63,0.76
			c-0.02,0.25-0.05,0.51-0.07,0.76c0.89,0.3,1.82,0.93,2.66,0.83c2.66-0.3,5.33-0.69,7.91-1.39c4.14-1.11,8.21-2.5,12.83-3.92
			c-2.79,4.2-5.28,7.95-7.92,11.93c-0.41-0.61-0.55-0.98-0.82-1.19c-0.74-0.58-1.53-1.1-2.3-1.64c0.14,1.06,0.17,2.15,0.44,3.17
			c0.4,1.45,1.42,2.86,1.39,4.27c-0.09,3.72-0.6,7.43-0.94,11.14C730.38,304.46,730.33,305.33,730.27,306.19z M737.19,317.39
			c-0.21,0.23-0.42,0.47-0.63,0.7c0.56,1.2,1.17,2.39,1.66,3.62c0.56,1.43,0.87,2.78-1.33,3.15c-0.94,0.16-1.82,0.67-2.76,0.91
			c-1.45,0.38-1.78,1.15-0.88,2.82c1.98-0.72,3.96-1.44,6.34-2.31c0.31,3.38,0.61,6.64,0.96,10.36c-1.65-0.55-2.7-1.18-3.75-1.18
			c-1.29,0.01-2.9,0.16-3.79,0.93c-1.74,1.49-1.49,3.79,0.15,5.58c1.57,1.72,4.44,2.01,6.29,0.48c0.87-0.72,1.48-1.75,2.21-2.65
			c2.13,1.24,4.25,2.47,6.48,3.76c0.64-1.51,0.52-2.79-1.13-3.69c-1.18-0.64-2.39-1.24-3.48-2.02c-0.61-0.43-1.33-1.15-1.4-1.81
			c-0.32-2.97-0.53-5.96-0.55-8.94c-0.01-0.71,0.7-1.75,1.36-2.06c1.53-0.73,3.27-1.01,4.85-1.67c0.6-0.25,0.97-1.03,1.45-1.56
			c-0.59-0.18-1.23-0.61-1.77-0.51c-1.13,0.22-2.26,0.62-3.31,1.11c-2.35,1.1-3.42,0.7-4.33-1.71c-0.29-0.76-0.52-1.59-0.99-2.23
			C738.45,317.99,737.74,317.75,737.19,317.39z M625.94,347.58c-1.93,0.41-3.89,1.26-5.77,1.1c-2.24-0.19-4.47-1.07-6.57-1.97
			c-2.1-0.9-3.08-2.7-2.82-5.08c0.34-3.11,1.28-5.92,3.48-8.28c1.32-1.41,2.46-2.99,3.59-4.56c0.3-0.42,0.54-1.36,0.32-1.58
			c-0.39-0.4-1.26-0.75-1.75-0.58c-5.67,1.95-11.88,2.32-17.01,5.87c-1.4,0.97-3.05,1.58-4.42,2.58c-0.49,0.36-0.49,1.39-0.71,2.11
			c0.66-0.03,1.35,0.06,1.97-0.12c0.55-0.16,1.02-0.61,1.52-0.94c5.09-3.29,10.66-5.34,16.97-6.68c-0.8,1.06-1.32,1.87-1.96,2.57
			c-2.09,2.28-3.22,4.97-3.81,7.97c-1.16,5.95,0.17,8.25,5.98,9.82C619,350.92,622.96,351.23,625.94,347.58z M747.17,197.23
			c-0.29-0.18-0.58-0.35-0.88-0.53c-2.82,1.12-5.59,2.44-8.49,3.32c-3.78,1.15-7.66,1.94-11.49,2.9c-1.06,0.27-2.36,0.39-1.68,2.2
			c7.07,0.36,13.2-2.85,19.98-5.42c-1.94,6.22-3.66,12.01-5.61,17.71c-0.32,0.94-1.49,1.91-2.47,2.23c-2.48,0.81-5.09,1.19-7.6,1.89
			c-0.72,0.2-1.3,0.89-1.95,1.36c0.75,0.23,1.57,0.8,2.23,0.65c4.15-0.92,8.27-1.96,12.37-3.08c0.71-0.2,1.27-0.98,1.89-1.5
			c-0.64-0.42-1.28-0.84-2.16-1.42C743.22,210.99,745.2,204.11,747.17,197.23z M558.6,303.21c-0.27-0.11-0.54-0.22-0.82-0.34
			c-2.22,4.3-6,6.47-10.44,7.72c-2.12,0.6-4.18,0.41-5.37-1.59c-1.57-2.64-1.88-5.59-1.3-8.64c0.73-3.87,1.36-7.77,2.06-11.81
			c-1.59,0.04-2.58,0.45-2.88,1.98c-0.51,2.55-1.17,5.07-1.6,7.62c-0.66,3.9-1.39,7.85,0.74,11.57c1.29,2.27,3.04,3.72,5.89,3.71
			c5.03-0.03,8.84-2.43,11.98-6C557.8,306.35,558.04,304.64,558.6,303.21z M537.93,336.68c0.09,0.3,0.24,0.53,0.2,0.71
			c-1.22,4.76-2.49,9.51-3.68,14.29c-0.13,0.52,0.19,1.15,0.31,1.73c0.53-0.35,1.43-0.6,1.55-1.05c1.29-4.89,2.54-9.79,3.61-14.72
			c0.4-1.83,1.11-3.09,2.86-3.91c3.37-1.57,6.64-3.34,9.99-4.97c1.25-0.61,1.58-1.42,0.8-3.21c-4.09,2.09-8.07,4.12-12.16,6.22
			c0.17-2.4,2.59-5.11-1.03-7.45c-0.16,1.74-0.23,3.19-0.45,4.62c-0.3,2.02-0.17,4.25-2.53,5.34c-1.79,0.83-3.59,1.67-5.26,2.7
			c-0.52,0.32-0.64,1.29-0.95,1.97c0.64-0.01,1.34,0.16,1.89-0.05C534.71,338.25,536.29,337.45,537.93,336.68z M829.81,383.3
			c2.13,1.05,2.79,0.98,3.61-0.07c1.52-1.93,3.03-3.86,4.57-5.77c1.89-2.35,3.3-2.29,5.03,0.22c0.42,0.61,0.73,1.31,1.17,1.91
			c1.66,2.27,3.94,3.64,6.7,3.9c2.87,0.27,8.11-3.2,9.24-5.83c0.76-1.76,0.43-3.11-1.47-4.73c1.18,3.91-1.41,5.56-3.64,7.39
			c-2.5,2.05-7.96,1.05-9.01-1.65c-0.96-2.48-2.56-4.25-5.32-4.99c0.52-1.12,1.11-2.16,1.51-3.27c0.75-2.07,1.43-4.17,2.03-6.29
			c0.1-0.34-0.34-0.83-0.53-1.25c-0.4,0.34-0.87,0.62-1.17,1.03c-0.2,0.27-0.15,0.72-0.2,1.09c-0.5,3.83-2.66,6.82-5.02,9.67
			C834.9,377.55,832.37,380.35,829.81,383.3z M673.06,250.36c-1.1-1.92,1.3-4.08-0.97-5.89c-0.29,0.71-0.57,1.16-0.65,1.65
			c-0.64,4.14-2.27,7.2-7.12,7.35c-0.56,0.02-1.09,1.23-1.63,1.89c0.76,0.3,1.62,0.97,2.27,0.81c1.47-0.35,2.83-1.11,4.6-1.86
			c-0.78,6.56-1.53,12.85-2.32,19.52c1.92-0.88,2.89-1.74,2.69-3.55c-0.12-1.03-0.04-2.1,0.06-3.14c0.37-3.77,0.67-7.54,1.25-11.28
			c0.18-1.18,0.9-2.84,1.82-3.23c2.65-1.12,5.51-1.8,8.32-2.48c1.55-0.37,2.14-1.09,1.73-2.96c-1.73,0.37-3.41,0.61-5.02,1.12
			C676.41,248.85,674.8,249.64,673.06,250.36z M842.77,314.68c0.29,0.2,0.58,0.39,0.87,0.59c2.89-3.32,5.91-6.54,8.62-10
			c1.35-1.73,2.16-3.89,3.18-5.88c1.23-2.4,1.47-4.98,0.24-7.33c-0.59-1.13-2.04-2.29-3.26-2.49c-1.5-0.25-3.32,0.18-4.74,0.86
			c-3.28,1.59-6.43,3.47-9.58,5.33c-0.55,0.32-0.82,1.12-1.22,1.7c0.85,0.08,1.74,0.36,2.52,0.18c0.66-0.15,1.15-0.95,1.81-1.28
			c3.04-1.55,6.07-3.12,9.19-4.5c1.4-0.62,2.98-0.08,3.16,1.5c0.2,1.7,0.09,3.68-0.62,5.2c-1.2,2.58-2.95,4.91-4.53,7.31
			c-1.5,2.28-3.09,4.5-4.6,6.78C843.39,313.26,843.12,313.99,842.77,314.68z M713.99,517.61c-0.31,0-0.61,0.01-0.92,0.01
			c0.09,0.97-0.18,2.26,0.34,2.84c1.7,1.88,3.92,1,6.07,0.59c0.02,0.3,0.08,0.59,0.07,0.87c-0.25,5.26,4.2,6.07,7.38,4.43
			c2.59-1.34,4.39-3.51,5.83-5.99c0.13-0.22-0.16-0.69-0.3-1.22c-2.92,4.35-4.23,5.34-7.04,5.95c-1.49,0.32-2.88,0.17-3.52-1.16
			c-0.62-1.3-0.77-2.85,0.41-4.14c0.44-0.48,0.77-1.07,1.15-1.6c0.36-0.49,0.74-0.97,1.11-1.46c0.47,0.5,0.87,1.08,1.41,1.49
			c0.88,0.65,1.91,1.74,2.77,1.65c1.48-0.15,2.89-1.07,4.32-1.67c-0.11-0.3-0.21-0.61-0.32-0.91c-0.71,0.15-1.49,0.18-2.13,0.48
			c-1.26,0.58-1.99,0.73-3.15-0.65c-1.6-1.9-1.23-3.87-1.21-5.85c0.02-1.62-0.98-2.03-1.89-1.49c-1.3,0.77-2.47,1.99-3.26,3.28
			c-0.21,0.35,1.11,1.65,1.8,2.6c-1.49,3.7-4.64,4.58-8.6,3.96C714.19,518.88,714.09,518.25,713.99,517.61z M855.16,244.1
			c0.58,1.99,1.06,3.62,1.53,5.25c0.53,1.85,0.12,3.11-1.92,3.77c-1.9,0.61-2.73,2.42-1.78,4.45c0.34,0.72,2.09,1.15,3.14,1.06
			c0.7-0.06,1.53-1.19,1.89-2.02c0.91-2.09,1.33-2.31,3.29-1.09c0.95,0.6,1.81,1.46,2.83,1.77c1,0.31,2.16,0.07,3.25,0.07
			c-1.93-1.82-3.83-3.1-5.81-4.25c-0.96-0.56-2.31-0.36-2.37-2.14c-0.06-1.83,0.85-2.71,2.25-3.49c1.09-0.61,2.09-1.39,3.13-2.1
			c-0.15-0.31-0.29-0.62-0.44-0.93c-1.63,0.57-3.26,1.14-5.11,1.78c-0.47-0.96-0.93-1.92-1.45-2.99
			C856.6,243.6,855.71,243.91,855.16,244.1z M665.81,294.29c0.11-2.11,0.27-4.04,0.28-5.97c0-0.46-0.48-0.92-0.74-1.39
			c-0.4,0.37-1,0.67-1.16,1.12c-0.29,0.83-0.33,1.75-0.48,2.64c-0.42,2.44,0.14,5.42-3.38,6.17c-0.13,0.03-0.32,0.16-0.34,0.27
			c-0.11,0.53-0.33,1.12-0.18,1.58c0.08,0.25,0.85,0.41,1.28,0.37c0.68-0.05,1.34-0.3,2.13-0.5c-0.27,3.86-0.55,7.42-0.75,10.98
			c-0.03,0.51,0.33,1.04,0.52,1.56c0.54-0.3,1.25-0.48,1.57-0.94c0.34-0.49,0.4-1.24,0.44-1.88c0.21-3.13,0.34-6.27,0.59-9.4
			c0.05-0.6,0.31-1.42,0.76-1.71c1.62-1.06,3.28-2.11,5.06-2.82c1.54-0.61,1.94-1.34,1.2-2.96
			C670.33,292.38,668.14,293.31,665.81,294.29z M739.58,254.15c1.57,0.03,2.45-0.55,2.67-2.09c0.37-2.59,0.99-5.15,1.16-7.75
			c0.2-3.22,0.05-6.47,0.05-9.78c-0.82,0.04-1.14-0.01-1.4,0.08c-6.69,2.37-13.38,4.73-20.04,7.16c-0.49,0.18-0.82,0.77-1.23,1.16
			c0.15,0.28,0.29,0.56,0.44,0.85c3.32-1.1,6.64-2.19,9.95-3.31c3.36-1.14,6.72-2.3,10.2-3.5
			C742.82,243.04,740.1,248.34,739.58,254.15z M786.87,344.5c0-0.59,0.02-1.19,0-1.79c-0.13-3.73-2.25-5.11-5.44-3.22
			c-2.07,1.23-3.79,3.04-5.6,4.67c-0.38,0.34-0.44,1.02-0.65,1.54c0.58-0.18,1.29-0.2,1.71-0.56c1.29-1.11,2.41-2.43,3.72-3.53
			c1.69-1.43,3.74-1.01,3.79,0.81c0.07,2.43,0.1,5.01-0.61,7.29c-1.27,4.03-3.15,7.86-4.67,11.81c-0.23,0.6,0.1,1.41,0.17,2.12
			c0.64-0.39,1.58-0.62,1.88-1.19c0.84-1.57,1.51-3.26,2.09-4.95C784.72,353.24,787.37,349.3,786.87,344.5z M553.66,196.04
			c-2.2-0.59-3.32-0.09-3.43,2.07c-0.04,0.73-0.34,1.45-0.56,2.15c-1.49,4.7-3.04,9.39-2.16,14.45c0.22,1.26,0.55,2.06,2.13,1.83
			c4.28-0.62,8.27-1.9,11.63-4.73c0.23-0.19,0.21-0.68,0.22-0.69c-2.69,0.94-5.37,1.98-8.12,2.79c-2.46,0.72-3.23,0.17-3.05-2.44
			c0.18-2.66,0.68-5.31,1.26-7.92C552.13,201.03,552.94,198.57,553.66,196.04z M723.64,319.69c-5.66,2.47-8.98,19.48-6.42,29.62
			c2.94-0.11,9.74-6.11,10.34-9.37c-2.9,2.28-5.63,4.43-8.65,6.81C716.51,336.9,719.46,328.41,723.64,319.69z M674.47,321.95
			c1.89,1.46,3.64,2.93,5.53,4.18c0.57,0.38,1.55,0.14,2.35,0.19c-0.26-0.6-0.36-1.41-0.81-1.76c-1.82-1.42-3.66-2.84-5.66-3.97
			c-1.2-0.68-1.54-1.42-1.73-2.74c-0.4-2.7-1.1-5.38-1.9-7.99c-0.16-0.54-1.31-0.77-2.01-1.14c0.02,0.66-0.07,1.35,0.09,1.98
			c0.68,2.69,1.43,5.37,2.18,8.14c-2.32,0.09-4.03,0.34-4.39,2.71c-0.27,1.77,0.63,3.11,2.01,3.62
			C672.42,325.98,673,323.65,674.47,321.95z M793.63,221.19c-0.27-0.28-0.55-0.55-0.82-0.83c-0.27,0.52-0.44,1.13-0.82,1.54
			c-0.91,0.99-1.81,2.05-2.92,2.75c-0.73,0.46-1.88,0.58-2.72,0.36c-0.39-0.1-0.61-1.37-0.65-2.13c-0.05-1.19-0.05-2.42,0.21-3.57
			c1.16-5.08,2.46-10.14,3.62-15.22c0.12-0.53-0.37-1.19-0.57-1.79c-0.46,0.48-1.21,0.89-1.35,1.44
			c-1.37,5.66-2.71,11.32-3.87,17.02c-0.3,1.48-0.17,3.16,0.21,4.63c0.38,1.45,1.36,2.69,3.28,2.3
			C790.9,226.97,792.71,224.51,793.63,221.19z M832.58,343.67c-0.49-2.77-1.21-5.28-1.33-7.83c-0.17-3.65,0.13-7.32,0.17-10.98
			c0-0.42-0.35-0.85-0.54-1.28c-0.34,0.19-0.9,0.32-0.97,0.58c-0.49,1.77-0.97,3.55-1.28,5.36c-0.88,5.21,0.49,10.2,1.65,15.19
			c0.11,0.46,1.15,0.97,1.76,0.98c1.73,0.03,7.4-4.23,8.82-6.62C838.06,340.64,835.55,342.03,832.58,343.67z M781.53,264.9
			c-0.17-0.41-0.35-0.73-0.44-1.07c-1.53-5.3-0.83-10.49,0.77-15.65c0.14-0.46-0.24-1.08-0.37-1.62c-0.41,0.34-0.99,0.61-1.2,1.05
			c-0.38,0.8-0.47,1.73-0.8,2.56c-2.01,4.88-1.97,9.86-0.55,14.83c0.21,0.73,1.16,1.67,1.87,1.76c3.55,0.45,7.28-3.54,6.92-7.65
			C785.92,261.52,784.73,264.28,781.53,264.9z M759.84,275.06c-0.25,0.07-0.49,0.14-0.74,0.22c0.23,1.07,0.37,2.17,0.73,3.2
			c0.29,0.83,0.88,1.55,1.29,2.35c3.73,7.22,7.4,14.48,11.19,21.67c1.09,2.07,1.96,4.02,0.47,6.23c2.14,0.51,3.47-0.68,2.78-2.52
			c-0.69-1.85-1.79-3.54-2.68-5.31c-1.46-2.91-2.91-5.82-4.35-8.74c-1.56-3.15-3.07-6.32-4.66-9.46
			C762.57,280.13,761.18,277.61,759.84,275.06z M790.71,283.65c-0.79,3.65-3.57,5.9-2.87,9.34c0.85-0.7,1.56-1.49,2.01-2.41
			c1.24-2.51,2.58-5.01,3.47-7.64c0.56-1.65-0.51-2.27-2.2-1.69c-4.07,1.4-8.17,2.71-12.22,4.15c-0.63,0.23-1.08,0.99-1.61,1.5
			c0.74,0.27,1.56,0.89,2.2,0.74c1.79-0.43,3.51-1.17,5.25-1.8C786.59,285.17,788.43,284.49,790.71,283.65z M561.06,456.45
			c-0.51-1.08-0.93-1.97-1.34-2.85c-0.84,0.6-2.03,1.03-2.44,1.85c-1.21,2.43-2.33,4.97-3.03,7.58c-0.25,0.95,0.8,2.24,1.26,3.38
			c0.72-0.37,1.84-0.57,2.09-1.15C558.86,462.42,559.9,459.48,561.06,456.45z M666.29,335.09c-1.75,0.56-1.89,0.57-1.71,2.56
			c0.59,6.48,1.28,12.94,1.99,19.41c0.05,0.43,0.64,0.81,0.98,1.21c0.41-0.42,1.03-0.78,1.19-1.28c0.19-0.6,0.04-1.33-0.04-2
			C667.92,348.42,667.11,341.86,666.29,335.09z M854.34,333.42c0.09-0.03,0.19-0.07,0.28-0.1c-0.58-2.89-1.12-5.79-1.78-8.66
			c-0.09-0.37-0.78-0.61-1.2-0.9c-0.28,0.5-0.8,1.01-0.78,1.51c0.04,1.4,0.43,2.8,0.44,4.2c0.02,3.33-0.18,6.67-0.12,10
			c0.02,0.88,0.64,1.74,0.98,2.61c0.56-0.81,1.45-1.56,1.61-2.45C854.14,337.6,854.17,335.5,854.34,333.42z M776.98,388.37
			c0.31-1.51,0.36-2.67,0.78-3.67c1.59-3.78,3.35-7.49,4.94-11.26c0.22-0.53-0.1-1.3-0.17-1.95c-0.63,0.26-1.49,0.35-1.85,0.82
			c-0.63,0.8-0.96,1.84-1.39,2.79c-1.85,4.09-3.7,8.18-5.64,12.47C775.08,387.91,775.98,388.13,776.98,388.37z M716.52,491.69
			c0,1.74,0.07,3.09-0.02,4.44c-0.14,2.17-0.47,4.33-0.5,6.5c-0.01,0.57,0.81,1.15,1.25,1.73c0.61-0.55,1.53-0.99,1.76-1.66
			c0.55-1.62,0.13-3.35,0.76-5.11c0.59-1.66-0.03-3.76-0.13-5.89C718.56,491.69,717.43,491.69,716.52,491.69z M567.26,218.74
			c1.94-0.85,2.28-2.23,2.26-3.78c-0.06-4.26-0.08-8.53-0.25-12.79c-0.05-1.32-0.42-2.65-0.82-3.93c-0.14-0.44-0.79-0.73-1.21-1.09
			c-0.23,0.55-0.68,1.1-0.65,1.63c0.15,2.74,0.55,5.47,0.63,8.22C567.35,210.8,567.26,214.59,567.26,218.74z M561.02,347.38
			c-4.35,2.3-8.65,1.36-12.89,0.56c-0.36,2.02,0.56,2.72,2.21,3.33c2.53,0.94,4.97,0.56,7.47,0.21
			C560.27,351.13,560.88,350.46,561.02,347.38z M803.61,260.35c0.55-0.75,1.41-1.43,1.59-2.27c0.78-3.56,1.41-7.16,0.33-10.79
			c-0.53-1.78-1.91-2.63-3.62-2.14C805,249.91,802.65,255.12,803.61,260.35z M745.63,257.21c-0.02-0.35-0.04-0.69-0.06-1.04
			c-0.56-0.16-1.16-0.55-1.68-0.46c-4.32,0.77-8.65,1.54-12.93,2.5c-1.07,0.24-1.97,1.21-2.95,1.85c1.23,0.02,2.48,0.21,3.67,0.03
			c3.14-0.47,6.26-1.06,9.38-1.68C742.6,258.1,744.11,257.62,745.63,257.21z M532.33,450.31c3.62-9.5,9.12-17.89,11.95-27.44
			c-4.39,8.45-8.32,17.11-12.2,25.8C531.9,449.06,532.22,449.68,532.33,450.31z M797.62,215.79c-0.12,0.18-0.23,0.37-0.35,0.55
			c0.33,0.47,0.56,1.07,1,1.38c3.77,2.71,8.25,2.79,12.6,3.13c1.15,0.09,2.58-0.71,2.34-2.75
			C807.61,219.92,802.74,216.96,797.62,215.79z M796.25,302.44c-4.76,3.31-9.78,3.21-14.95,2.13c-0.38-0.08-0.85,0.29-1.28,0.44
			c0.25,0.4,0.42,1.08,0.75,1.16c1.59,0.38,3.21,0.71,4.84,0.87c3.09,0.3,6.15,0.1,8.95-1.43
			C795.66,305,796.85,304.31,796.25,302.44z M732.65,494.46c0-0.52,0.17-1.13-0.04-1.54c-0.31-0.58-1.06-1.51-1.35-1.42
			c-0.7,0.22-1.63,0.86-1.77,1.48c-0.51,2.27-0.81,4.6-1.02,6.92c-0.05,0.55,0.55,1.16,0.85,1.74c0.96-0.79,2.38-1.39,2.78-2.4
			C732.67,497.8,732.5,496.07,732.65,494.46z M556.02,358.84c-0.18,2.7-3.46,5.11,0.1,6.95c1.89,0.98,4.61-0.83,4.91-2.93
			c0.12-0.88-0.05-2.34-0.59-2.66C559.18,359.47,557.62,359.29,556.02,358.84z M839.18,271.08c-0.45,0.31-0.9,0.63-1.35,0.94
			c0.23,0.78,0.32,1.63,0.72,2.31c1.05,1.78,2.2,3.5,3.36,5.2c0.62,0.9,1.25,1.84,2.06,2.55c0.37,0.32,1.2,0.11,1.82,0.15
			c-0.11-0.57-0.07-1.25-0.36-1.71c-1.35-2.14-2.8-4.21-4.21-6.32C840.54,273.17,839.86,272.13,839.18,271.08z M679.76,267.29
			c-0.65,1.12,0.17,2.08,1.98,2.09c3.28,0.02,5.93-1.6,8.24-3.77c0.49-0.46,0.67-1.24,0.78-1.45
			C687.36,265.13,683.95,266.1,679.76,267.29z M797.04,208.59c3.57-0.69,7-1.32,10.39-2.06c0.51-0.11,0.91-0.76,1.35-1.16
			c-0.5-0.31-1.03-0.91-1.5-0.87c-2.68,0.24-5.36,0.52-8.01,1.01C797.75,205.8,796.4,206.58,797.04,208.59z M617.86,320.06
			c1.4-0.25,2.96-2.01,2.72-3.59c-0.3-2.03-2.66-3.79-4.67-3.48c-2.22,0.34-3.91,2.17-3.68,4.3c0.68-0.5,1.21-0.96,1.81-1.3
			c0.62-0.35,1.32-0.83,1.95-0.78c0.65,0.05,1.68,0.58,1.78,1.06C618.04,317.45,617.86,318.73,617.86,320.06z M684.04,294.29
			c-0.43-0.83-0.78-1.72-1.32-2.47c-1.05-1.44-2.19-2.82-3.33-4.2c-0.42-0.51-0.92-0.94-1.38-1.41c-0.26,0.77-0.95,1.75-0.7,2.27
			C678.63,291.18,679.87,294.08,684.04,294.29z M784.84,330.98c0.16-0.33,0.33-0.66,0.49-0.98c-2.11-1.93-4.17-3.92-6.36-5.75
			c-0.43-0.36-1.36-0.11-2.07-0.14c0.17,0.63,0.15,1.43,0.54,1.84c1.37,1.45,2.8,2.89,4.39,4.09
			C782.63,330.63,783.83,330.68,784.84,330.98z M871.19,204.75c1.72,0.04,2.48-0.77,2.47-2.28c-0.01-2.23,0.1-4.49-0.2-6.69
			c-0.15-1.07-1.11-2.03-1.7-3.04c-0.19,0.12-0.38,0.23-0.57,0.35C871.19,196.91,871.19,200.73,871.19,204.75z M711.56,488.7
			c0.86,1.82,1.91,1.55,2.92,0.83c1.7-1.22,3.37-2.49,4.98-3.82c1.1-0.91,2.09-1.95,3.13-2.93c-0.16-0.23-0.32-0.45-0.47-0.68
			C718.17,483.48,715.58,487.12,711.56,488.7z M630.5,240.67c1-0.04,1.48-0.94,0.87-2.18c-1.14-2.34-2.44-4.6-3.77-6.84
			c-0.23-0.39-0.9-0.51-1.37-0.75c-0.12,0.6-0.39,1.22-0.33,1.8c0.05,0.46,0.54,0.85,0.79,1.3
			C627.9,236.06,629.07,238.14,630.5,240.67z M686.09,255.66c-2.03,0.67-3.88,1.21-5.66,1.92c-0.37,0.15-0.6,0.97-0.63,1.49
			c-0.02,0.28,0.59,0.91,0.76,0.86c2.1-0.62,4.19-1.29,6.24-2.07c0.32-0.12,0.68-0.96,0.55-1.27
			C687.17,256.19,686.53,255.97,686.09,255.66z M548.47,343.33c2.59-1.76,4.92-3.31,7.17-4.95c0.09-0.07-0.42-1.47-0.72-1.51
			C552.57,336.62,548.63,340.31,548.47,343.33z M569.73,443.25c3.21-5.77,6.42-11.53,9.64-17.3
			C575.28,431.23,571.01,436.4,569.73,443.25z M744.25,366.54c0.37-2.46-2.73-6.47-4.81-7c-0.58-0.15-1.27,0.15-1.92,0.25
			C739.98,362.26,742.12,364.4,744.25,366.54z M583.77,448.58c-0.11-5.31,3.54-9.09,5.35-13.6
			C586.27,439.08,582,442.6,583.77,448.58z M867.7,196.21c-0.63,0.83-1.31,1.33-1.28,1.77c0.12,1.61,0.36,3.23,0.8,4.79
			c0.18,0.63,0.98,1.08,1.49,1.61c0.21-0.77,0.69-1.59,0.57-2.31C868.98,200.34,868.39,198.67,867.7,196.21z M693.1,247.82
			c1.27-1.32,1.18-5.08-0.3-7.84c-0.28-0.52-1-0.81-1.95-1.55C691.72,242.04,692.4,244.88,693.1,247.82z M769.27,399.94
			c1.71,0.49,4.14-1.42,4.13-3.09c-0.01-0.56-0.41-1.12-0.63-1.68c-0.6,0.32-1.44,0.5-1.75,1
			C770.32,397.29,769.88,398.57,769.27,399.94z M729.93,481.95c-0.13,0.18-0.26,0.36-0.4,0.54c2.1,1.6,4.2,3.2,6.72,5.13
			C735.43,484.77,732.33,482.24,729.93,481.95z M690.43,246.41c0.16-0.11,0.33-0.21,0.49-0.32c-1.49-2.24-2.99-4.49-4.74-7.12
			C685.75,241.37,687.35,243.86,690.43,246.41z M537.76,443.58c0.19,0.1,0.38,0.21,0.56,0.31c1.78-3.03,3.56-6.06,5.34-9.09
			c-0.22-0.12-0.44-0.25-0.66-0.37C541.25,437.49,539.51,440.53,537.76,443.58z M563.96,437.54c0.27,0.16,0.54,0.33,0.81,0.49
			c1.43-2.09,2.86-4.18,4.29-6.28c-0.25-0.16-0.49-0.33-0.74-0.49C566.87,433.36,565.41,435.45,563.96,437.54z M581.79,440.52
			c0.25,0.1,0.49,0.2,0.74,0.3c0.85-1.97,1.7-3.94,2.55-5.91c-0.24-0.1-0.47-0.2-0.71-0.3
			C583.51,436.58,582.65,438.55,581.79,440.52z M543.6,433.79c0.26,0.15,0.51,0.29,0.77,0.44c0.91-1.43,1.82-2.87,2.74-4.3
			c-0.23-0.15-0.47-0.3-0.7-0.45C545.47,430.92,544.54,432.36,543.6,433.79z M770.15,289.22c-0.27,0.13-0.55,0.26-0.82,0.4
			c0.83,1.58,1.66,3.16,2.49,4.73c0.2-0.1,0.41-0.19,0.61-0.29C771.67,292.45,770.91,290.83,770.15,289.22z"/>
		<path d="M593.17,426.62c0.29,0.89,0.74,1.76,0.84,2.67c0.71,6.45-0.3,12.67-2.77,18.66c-1.93,4.67-3.48,9.54-5.86,13.96
			c-2.71,5.04-5.96,9.8-11.41,12.56c-5.25,2.66-10.35,5.61-15.51,8.44c0.31,0.05,0.8,0.13,1.74,0.28c-2.31,1.97-4.72,0.58-6.81,1.09
			c-2.15,0.53-4.32,0.99-6.88,1.58c2.22,3.77,4.19,7.41,6.47,10.84c0.94,1.41,0.42,1.95-0.33,2.42c2.2,2.38,4.55,4.68,6.62,7.2
			c2.69,3.28,5.17,6.74,7.72,10.12c0.27,0.36,0.44,0.79,0.7,1.15c0.95,1.32,2.51,2.54,2.71,3.95c0.18,1.29-1.11,2.78-1.84,4.36
			c1.02,0.13,1.9,0.1,2.69,0.36c3.6,1.2,5.29,4.84,4.15,8.79c-1.68,5.82-6.07,7.14-10.68,3.2c-1.62-1.38-3.28-2.46-5.37-3.27
			c-2.9-1.13-5.38-3.32-8.14-5.11c-1.34,4.42,0.66,9.92-4.31,13.5c0,0-0.02,0.56,0.25,0.81c4.67,4.29,3.87,10.14,4.09,15.5
			c0.26,6.1-0.19,12.24-0.61,18.35c-0.18,2.65-0.81,5.33-1.68,7.84c-1.83,5.29-6.03,7.75-10.89,8.55c-0.4,2.22-0.98,4.2-1.06,6.21
			c-0.17,4.27,0.75,8.12,5.27,9.97c3.42,1.4,3.93,6.31,0.67,8.64c-1.25,0.9-2.65,1.83-4.12,2.13c-2.69,0.56-4.61-1.03-5.79-4.35
			c-0.35-0.98-0.49-2.03-0.8-3.03c-0.14-0.46-0.41-1.18-0.72-1.24c-2.61-0.45-1.77-1.34-0.42-2.44c0.24-0.19,0.36-0.65,0.36-0.99
			c0.07-4.27,0.12-8.54,0.15-12.81c0.01-1.59-0.73-2.18-2.4-2.1c-1.38,0.06-2.82-0.27-4.18-0.63c-1.98-0.52-3.24-0.26-3.74,2.06
			c-0.85,3.91-1.93,7.78-2.97,11.87c2.29,0.26,4.55,0.52,6.76,0.77c1.04-3.77,0.61-6.36-2.07-12.94c2.34,0.12,3.38,1.97,3.78,3.49
			c0.71,2.69,0.67,5.57,0.99,8.36c0.06,0.56,0.34,1.1,0.54,1.71c-3.18,2.77-6.4,5.89-9.96,8.56c-3.19,2.4-7.03,2.42-10.77,1.38
			c-0.96-0.27-1.71-1.3-2.62-1.8c-1.11-0.5-2.44-0.76-3.28-1.55c-1.12-1.05-2.07-2.4-2.73-3.8c-1.28-2.72,1.02-5.53,4-5.88
			c4.29-0.5,8.63-0.47,13.41-0.69c1.08-3.54,2.28-7.47,3.49-11.46c-2.22-0.55-4.41-0.94-6.5-1.63c-2.48-0.82-2.37-1.16-1.37-3.67
			c1.14-2.82,1.87-5.81,2.82-8.71c0.95-2.87,2.12-5.68,2.92-8.6c1.66-5.99,3.19-12.01,4.67-18.04c0.98-4,1.84-8.03,2.64-12.07
			c0.23-1.14,0.03-2.37,0.03-3.84c1.54-0.1,2.98-0.18,4.54-0.28c0-4.21,0-8.51,0-13.39c-1.7,1.8-3.19,3.19-4.45,4.77
			c-1.04,1.3-2.1,1.83-3.64,1.06c-0.19-0.09-0.39-0.25-0.59-0.24c-0.99,0.03-5.3,4.3-5.27,5.29c0.09,3.5-1.54,6.3-3.47,9.02
			c-0.39,0.55-0.44,1.35-0.6,2.05c-0.38,1.66-0.37,3.53-1.16,4.97c-2.08,3.77-4.57,7.32-6.78,11.03c-1.92,3.23-2.3,3.35-5.63,1.74
			c-3.02-1.47-6.19-2.64-9.16-4.21c-1.72-0.9-3.31-2.17-4.69-3.55c-0.96-0.95-0.79-2.16,0.26-3.36c1.35-1.54,2.42-3.33,3.54-5.07
			c1.93-3.01,3.76-6.09,5.73-9.08c0.98-1.49,2.5-1.71,4.19-1.41c0.66,0.12,1.76,0.15,2.03-0.23c1.59-2.25,4.38-3.58,4.73-6.83
			c0.36-3.3,2.64-5.74,4.66-8.21c2.97-3.63,5.92-7.27,8.99-10.8c3.38-3.87,6.96-7.57,10.3-11.47c1.14-1.33,1.99-2.97,2.66-4.6
			c1.07-2.59,1.91-5.27,2.8-7.93c0.38-1.14-0.08-1.86-1.3-2.08c-7.57-1.36-13.89-10.04-14.05-17.73c-0.05-2.36-0.37-4.71-0.6-7.47
			c-0.53,0.56-0.79,0.84-1.06,1.12c-3.16,3.26-6.27,6.57-9.5,9.76c-2.01,1.99-4.12,3.89-6.34,5.65c-0.59,0.47-1.99,0.64-2.51,0.25
			c-0.59-0.43-0.75-1.63-0.82-2.52c-0.07-0.86,0.21-1.75,0.35-2.78c2.12,0.96,2.45-0.3,2.83-2c0.53-2.37,1.43-4.67,2.17-7
			c0.18,0.06,0.36,0.13,0.54,0.19c-0.51,2.05-1.03,4.1-1.54,6.15c0.14,0.09,0.28,0.19,0.42,0.28c1.48-1.6,2.98-3.18,4.45-4.79
			c4.19-4.59,7.83-9.6,10.92-14.98c0.36-0.62,0.52-1.38,0.64-2.1c1.1-6.74,2.75-13.3,5.93-19.41c0.47-0.89,0.73-1.92,0.91-2.92
			c0.33-1.82,4.27-4.33,5.83-3.4c-2.33,0.99-2.89,2.85-2.7,5.09c0.59,6.97-1.92,13-5.6,18.7c-1.26,1.95-2.31,4.03-3.21,6.18
			c8.3-8.62,11.2-19.71,14.21-30.85c1.8,1.77,0.72,3.64,0.36,5.43c-0.37,1.86-0.83,3.7-1.31,5.82c3.17-3.46,4.72-7.21,4.8-11.63
			c0.02-0.86,1.04-1.71,2.02-2.36c0.68,5.51-1.96,9.99-4.14,14.64c3.41-3.18,3.42-8.54,7.12-11.49c0.21,0.11,0.41,0.21,0.62,0.32
			c-0.52,1.18-0.96,2.4-1.57,3.53c-1.94,3.6-3.76,7.28-5.97,10.7c-2.55,3.94-5.46,7.65-8.23,11.46c-2.45,3.37-4.93,6.73-7.39,10.1
			c-0.21,0.3-0.52,0.67-0.49,0.98c0.46,4.38,0.41,8.91,1.59,13.09c2,7.05,7.14,11.22,14.35,12.63c5.76,1.13,11.44,0.6,17.14-1.2
			c-1.55-4.23-2.59-8.44-1.23-13.19c1.84,4.85,6.03,5.59,10.25,6.29c-0.92,1.68-1.72,1.94-4.35,0.98c-1.46-0.53-2.75-1.5-4.12-2.27
			c-0.26,0.17-0.52,0.34-0.78,0.51c0.61,2.09,1.13,4.21,1.91,6.23c0.14,0.37,1.51,0.66,2.03,0.41c5.05-2.43,10.09-4.9,15.04-7.53
			c8.96-4.76,12.65-13.45,16.1-22.21c1.78-4.5,3.26-9.13,4.7-13.76c0.38-1.23,0.16-2.66,0.17-4c0.02-2.2,0.01-4.41,0.01-6.61
			C592.84,426.71,593.01,426.66,593.17,426.62z M530.92,591.88c1.62,0.43,2.72,0.96,3.82,0.96c7.97,0.03,12.67-3.45,13.66-11
			c0.97-7.38,0.92-14.89,1.32-22.35c0.33-6.19-1.6-11.7-4.96-16.8c-0.2-0.3-0.46-0.7-0.76-0.77c-3.36-0.71-6.78-2-10.1-1.8
			c-2.24,0.14-4.28,1.11-6.2-1.05c-2.46,17.89-8.18,34.47-14.02,51.38c2.5,0.48,4.58,0.88,6.65,1.28c0.15-0.93,0.24-1.49,0.37-2.25
			C524.1,592.64,528.25,593.42,530.92,591.88z M544.83,535.27c0.29-0.01,0.57-0.02,0.86-0.04c0.26,1.33,0.49,2.66,0.8,3.97
			c0.09,0.36,0.41,0.84,0.71,0.91c0.25,0.06,0.8-0.34,0.91-0.64c0.25-0.69,0.39-1.45,0.44-2.18c0.22-3.13,0.34-6.27,0.61-9.4
			c0.07-0.87,0.51-1.71,0.92-2.99c0.85,1.82,1.09,3.46,1.99,4.03c2.82,1.78,5.9,3.15,9.11,4.79c1.46-1.87,2.88-3.69,4.71-6.03
			c-1.42,0-2.09,0.1-2.71-0.03c-0.68-0.14-1.32-0.47-1.95-0.77c-0.03-0.01,0.15-0.72,0.26-0.73c0.6-0.05,1.25-0.11,1.81,0.06
			c1.67,0.51,3.04,0.36,4.1-1.24c0.97-1.46,1.32-2.71-0.22-4.1c-0.8-0.72-1.32-1.81-1.84-2.81c-3.56-6.8-8.78-12.2-14.47-17.18
			c-0.57-0.5-1.64-0.89-2.33-0.72c-2.96,0.72-5.86,1.7-8.79,2.53c-3.38,0.96-6.73,1.59-9.88-1.62c-4.9,5.51-9.77,10.98-14.82,16.66
			c2.48,3.31,4.98,6.66,7.57,10.13c4.11-3.93,8.5-6.88,9.17-12.62c0.1-0.86,1.07-1.62,1.64-2.43c0.3,0.13,0.59,0.26,0.89,0.39
			c-2.99,7.8-2.8,15.9-2.81,23.74c4.44,0.95,8.69,1.85,13.08,2.79C544.68,538.15,544.75,536.71,544.83,535.27z M497.42,537.42
			c-1.34,1.6-2.53,2.8-3.45,4.18c-2.47,3.72-4.8,7.53-7.25,11.26c-0.86,1.3-0.97,2.34,0.56,3.11c4.06,2.04,8.12,4.09,12.24,6.02
			c0.45,0.21,1.55-0.16,1.85-0.6c2.76-4.05,5.47-8.14,8.05-12.31c0.96-1.56-0.21-5.7-1.41-6.3c-1.78-0.88-3.46-1.96-5.24-2.84
			c-0.74-0.37-1.98-0.91-2.38-0.59C498.36,540.95,497.92,539.55,497.42,537.42z M536.71,485.95c-1.57,3.9-3.11,7.91-4.81,11.85
			c-1.07,2.49-0.58,3.54,2.19,3.77c1.25,0.1,2.56,0.15,3.77-0.13c1.87-0.44,3.64-1.46,5.52-1.71c2.67-0.36,4.85-1.33,6.38-3.21
			c-1.35-2.79-2.8-5.36-3.84-8.09c-0.8-2.09-1.92-2.84-4.12-2.54C540.12,486.14,538.39,485.95,536.71,485.95z M524.05,610.11
			c-1.22,0-1.91,0.11-2.54-0.02c-3.62-0.72-7.8,1.05-10.84-2.36c-0.11-0.12-0.43-0.07-0.65-0.06c-2,0.09-4.01,0.23-6.01,0.28
			c-2.1,0.05-2.06,1.26-1.22,2.51c1.08,1.6,2.19,3.35,3.71,4.43c1.8,1.27,4,2.44,6.13,2.67
			C518.04,618.15,520.76,614.07,524.05,610.11z M520.13,527.64c-2.1-2.89-4.2-5.76-6.34-8.7c-1.49,1.84-3,3.48-4.25,5.3
			c-1.26,1.83-2.26,3.83-3.38,5.76c0.12,0.16,0.24,0.33,0.36,0.49c3.13-1.92,6.09-2.55,8.24,1.09
			C516.68,530.17,518.35,528.94,520.13,527.64z M568.67,527.45c-1.06,0.03-4.9,5.05-4.83,6.2c0.16,2.48,5.02,5.6,7.13,4.59
			c2.08-0.99,3.21-4.93,2.21-8.38C572.53,527.61,570.38,527.78,568.67,527.45z M534.58,612.28c0.26,1.28,0.43,2.38,0.72,3.46
			c1.15,4.31,3.54,4.99,6.86,1.97c1.81-1.64,1.46-4.18-0.75-5.32C539.24,611.28,537.03,611.16,534.58,612.28z M510.32,542.14
			c2.28-1.43,3.45-4.61,2.94-7.46c-2.08,0.11-4.22,0.64-6.16,0.22c-2.48-0.53-3.81,0.15-4.64,2.26c0.67,0.58,1.23,1.17,1.88,1.6
			c0.79,0.52,1.86,1.48,2.47,1.27C508.96,539.3,509.75,540.46,510.32,542.14z M537.22,609.89c-2.29-4.33-2.84-8.44-1.01-12.73
			c0.3-0.7-0.1-1.69-0.18-2.62c-0.87,0.06-1.51,0.1-2.03,0.13c0,5.28,0,10.38,0,15.66C535.12,610.17,535.92,610.07,537.22,609.89z
			 M521.15,442.37c0.2,0.08,0.39,0.16,0.59,0.24c2.8-4.3,4.28-9.02,4.6-14.1c-0.27-0.09-0.55-0.17-0.82-0.26
			C524.06,432.95,522.6,437.66,521.15,442.37z M506.76,532.69c2.19,0,3.87,0,5.92,0C510.58,530.78,508.9,531.23,506.76,532.69z"/>
		<path d="M746.2,489.2c4.62,13.95,2.98,27.16-2.45,40.2c3.42-1.33,6.62-2.71,9.92-3.81c5.73-1.91,11.49-3.72,17.28-5.43
			c8.57-2.54,17.18-4.97,25.78-7.41c0.71-0.2,1.48-0.21,2.22-0.3c1.99-0.22,3.24-1.18,3.85-3.19c1.88-6.16,5.74-11.12,10.14-15.63
			c2.93-2.99,6.56-2.81,8.67,0.73c0.97,1.61,0.91,4.46,0.21,6.33c-1.74,4.61-5.12,8.19-8.83,11.39c-1.29,1.12-2.72,2.09-4.01,3.2
			c-2.34,2-3.28,4.65-3.73,7.65c-0.74,4.96-1.44,9.96-2.73,14.8c-0.82,3.08-2.34,6.13-4.17,8.75c-2.2,3.15-5.29,3.6-9.36,1.68
			c-2.04-0.96-3.75-2.64-5.79-4.13c-2.8,2.48-5.15,5.77-6.09,10.28c5.27,1.47,8.07-2.47,11.58-5.15c0.05,0.34,0.19,0.63,0.11,0.83
			c-1.18,2.9-7.34,6.62-10.42,6.32c-2.84-0.28-3.23-1.02-2.55-3.69c0.81-3.18,2.83-5.52,4.81-7.95c0.98-1.2,1.67-2.65,2.82-4.53
			c-6.38-0.25-11.99-0.76-16.17,4.24c-2.03,2.42-2.46,5.37-2.65,8.4c-0.24,3.72-0.22,7.5-0.89,11.15
			c-0.86,4.74-7.79,8.91-12.38,7.52c-1.36-0.41-2.6-1.85-3.46-3.12c-0.81-1.19-1.38-1.65-2.6-0.74c-0.54,0.4-1.16,0.7-1.69,1.1
			c-3.36,2.5-7.19,2.23-10.99,1.71c-1.52-0.21-2.65-1.36-2.11-3.09c0.64-2.07,1.16-4.35,2.41-6.03c2.23-2.99,4.97-5.59,7.59-8.46
			c-5.3-4.43-10.91-9.11-16.53-13.8c0.12-0.15,0.24-0.31,0.36-0.46c7.11,2.79,11.18,9.82,17.74,13.42c0.69-0.65,1.26-1.19,1.83-1.72
			c0.16,0.08,0.31,0.17,0.47,0.25c-0.29,0.73-0.57,1.46-0.9,2.29c3.33,2.74,4.09,6.67,4.62,10.98c0.54-0.39,0.96-0.69,1.53-1.1
			c-0.05,0.38,0.01,0.72-0.13,0.87c-1.6,1.75-0.92,3.46,0.1,5.11c1.1,1.78,2.78,1.7,4.57,1.3c4.07-0.91,7.11-3.16,7.78-7.36
			c0.66-4.11,0.93-8.33,0.88-12.49c-0.06-4.6,5.83-11.53,11.61-11.3c3.05,0.12,6.1,0.3,9.15,0.3c0.65,0,1.3-0.65,2.47-1.29
			c-0.13,0.84,0.01,1.76-0.38,2.13c-1.36,1.28-1.11,2.37-0.12,3.72c1.8,2.44,6.1,4.21,8.96,3.49c1.68-0.43,2.73-1.54,3.61-3.07
			c2.64-4.61,3.37-9.69,4.09-14.8c0.34-2.43,0.72-4.86,1.19-7.26c0.83-4.32,3.43-7.55,7.09-9.64c4.57-2.61,7-6.85,9.47-11.1
			c1.49-2.55,1.12-5.53-0.5-7.11c-1.45-1.42-3.35-1.55-4.81-0.16c-4.98,4.72-9.04,10.02-10.76,16.87c-0.23,0.93-1.39,2.04-2.34,2.31
			c-4.88,1.36-9.87,2.37-14.76,3.7c-4.51,1.23-8.97,2.67-13.42,4.1c-5.75,1.85-11.5,3.7-17.19,5.71c-3.62,1.28-7.15,2.83-10.71,4.27
			c-0.35,0.14-0.7,0.5-1.01,0.46c-3.11-0.46-4.57,1.97-6.49,3.61c-3.17,2.7-6.74,3.42-10.87,2.64c-7.64-1.45-14.18-4.94-19.97-10.01
			c-5.92-5.19-7.78-12.06-7.72-19.51c0.04-5.72,0.38-11.46,2.38-16.98c0.62-1.71,0.52-3.71,0.61-5.59c0.08-1.78,1-2.57,3.04-2.33
			c1,3.42-0.49,6.55-1.51,9.59c-2.27,6.75-2.49,13.53-1.63,20.51c0.53,4.29,1.57,8.38,4.54,11.49c5.95,6.25,13.4,10.01,21.91,11.33
			c1.9,0.29,4.22-0.31,5.96-1.23c5.04-2.67,8.52-6.7,9.48-12.58c0.4-2.43,1.09-4.81,1.65-7.21c1.79-7.7,0.79-15.26-0.96-22.82
			c-0.49-2.12-0.46-4.35-0.67-6.56c2.86,1.64,5.67,3.08,8.28,4.81c2.62,1.73,4.94,3.89,7.57,5.61c4.24,2.76,8.47,5.62,12.99,7.86
			c3.39,1.67,7,0.6,9.82-1.81c5.52-4.72,8.28-11.03,9.48-18.06c1.54-9.02-0.26-17.23-5.11-25.15c-4.2-6.85-10.39-10.29-17.32-13.32
			c-6.44-2.82-13.11-3.34-19.98-3.48c-9.42-0.19-18.5,1.84-27.48,4.16c-6.18,1.6-12.15,4.02-18.17,6.19
			c-1.54,0.55-2.21,0.04-2.82-1.37c0.52-0.35,0.96-0.8,1.49-0.97c6.56-2.16,13.1-4.38,19.71-6.39c6.63-2.02,13.49-2.76,20.37-3.3
			c3.58-0.28,7.19-0.65,10.76-0.45c3.89,0.22,7.93,0.51,11.59,1.71c7.92,2.61,15.79,5.83,21.2,12.48c2.3,2.82,4.17,6.22,5.76,9.74
			c2.12,4.7,3.3,9.42,3.19,14.41c-0.2,9.22-3.4,17.35-9.96,23.98c-4.81,4.85-12.55,5.2-17.95,1.06c-2.41-1.85-5.09-3.36-7.55-5.15
			c-2.76-2.02-5.41-4.18-8.1-6.29C750.31,490.65,748.82,488.84,746.2,489.2z M746.8,565.52c-0.46-2.72-0.71-5.5-1.48-8.11
			c-0.38-1.28-1.59-2.54-2.76-3.25c-0.43-0.26-1.87,1.06-2.79,1.73c-0.54,0.39-1.01,0.88-1.45,1.39c-2.49,2.87-5.65,5.21-5.88,9.61
			c-0.11,2.12,0.59,2.33,2.29,2.49C739.18,569.82,742.81,567.79,746.8,565.52z"/>
		<path d="M819.09,195.6c2.01-0.26,2.08,1.05,2.02,2.26c-0.26,5.45-0.61,10.9-0.9,16.36c-0.34,6.36-1.96,12.49-3.11,18.71
			c-1.21,6.56-1.86,13.23-2.65,19.87c-0.65,5.41-1.18,10.83-1.71,16.25c-0.67,6.91-1.21,13.84-1.95,20.74
			c-0.59,5.48-1.38,10.95-2.11,16.42c-1.74,13.07-3.18,26.16-3.21,39.38c-0.01,7.33-0.18,14.67-0.55,21.98
			c-0.2,3.81,0.94,7.03,2.76,10.24c1.56,2.75,2.89,5.63,4.13,8.54c0.5,1.17,0.47,2.57,0.71,4.08c-0.62-0.43-1.13-0.78-1.76-1.21
			c-0.07,0.36-0.24,0.68-0.15,0.87c1.54,3.39,3.05,6.79,4.7,10.13c1.12,2.26,1.46,4.29-0.27,6.47c-0.79,0.99-0.83,2.57-1.62,3.56
			c-0.7,0.87-1.96,1.29-2.97,1.91c-0.19-0.16-0.38-0.32-0.57-0.48c0.24-0.78,0.39-1.6,0.76-2.32c0.54-1.07,1.23-2.06,1.85-3.08
			c1.59-2.62,1.68-4.96,0.13-7.92c-3.97-7.53-7.33-15.37-11.14-22.98c-1.32-2.65-1.54-5.13-0.96-7.97c0.58-2.83,0.81-5.75,0.98-8.65
			c0.4-6.68,0.69-13.36,0.97-20.04c0.12-2.86,0.13-5.73,0.18-8.6c0-0.07,0-0.15,0.01-0.22c0.67-5.19,1.38-10.37,2-15.56
			c0.34-2.8,0.48-5.63,0.81-8.43c0.47-4,1.01-8,1.56-12c0.33-2.37,0.83-4.71,1.08-7.09c0.74-6.96,1.36-13.94,2.08-20.91
			c0.84-8.18,1.57-16.37,2.62-24.52c0.92-7.11,2.35-14.14,3.31-21.25c0.86-6.44,1.36-12.93,2.08-19.4
			C818.39,199.07,818.77,197.41,819.09,195.6z"/>
		<path d="M465.07,518.16c3.88-28,4.22-55.86,2.13-84.59c-6.69,4.06-12.77,7.76-19.51,11.85c0.48-1.19,0.57-2.22,1.1-2.58
			c3.6-2.38,7.28-4.65,10.98-6.87c1.84-1.11,3.76-2.11,5.71-3.02c0.97-0.46,2.32-1.11,3.06-0.76c0.7,0.33,1.04,1.85,1.15,2.88
			c0.47,4.53,0.97,9.06,1.14,13.61c0.16,4.64-0.13,9.29-0.08,13.93c0.04,3.72,0.52,7.45,0.39,11.17
			c-0.23,6.63-0.76,13.26-1.18,19.88c-0.32,5-0.68,9.99-0.99,14.99c-0.63,10.45-1.2,20.9-1.88,31.34c-0.22,3.34-0.62,6.67-1.08,9.99
			c-0.08,0.59-0.83,1.09-1.59,2.03c2.16,3.81,4.64,7.85,6.78,12.07c2.11,4.14,5.32,8.05,4.85,13.02c-0.6,6.31-1.7,12.57-2.61,18.85
			c-0.44,3.03-1.13,6.04-1.37,9.09c-0.23,2.98-2.16,4.07-4.51,5c-6.71,2.65-13.4,5.37-20.12,7.98c-1.13,0.44-2.41,0.51-3.62,0.76
			c-0.09-0.27-0.18-0.55-0.28-0.82c1.36-0.82,2.64-1.83,4.09-2.41c6.65-2.68,13.33-5.27,20.03-7.82c1.19-0.45,1.71-0.78,1.91-2.36
			c1.14-8.94,2.58-17.85,3.98-26.75c0.53-3.39,0-6.58-1.6-9.55c-2.1-3.87-4.06-7.87-6.63-11.41c-2.78-3.83-2.2-7.66-1.32-11.73
			c0.25-1.18,0.14-2.45,0.23-3.67c0.29-3.86,0.6-7.72,0.92-11.77c-1.31-0.06-2.61-0.13-4.12-0.2
			C461.56,525.81,461.31,521.16,465.07,518.16z M465.17,520.1c-0.37-0.02-0.74-0.05-1.11-0.07c-0.05,0.8,0.03,1.63-0.17,2.38
			c-0.39,1.51-1.01,2.97-1.37,4.49c-0.09,0.38,0.45,0.92,0.7,1.38c0.48-0.29,1.34-0.53,1.38-0.86
			C464.9,524.99,465.01,522.54,465.17,520.1z"/>
		<path d="M697.77,374.29c0.21-1.57,0.33-3.16,0.63-4.72c1.32-6.76,0.8-13.55,0.53-20.36c-0.22-5.66,0.1-11.35,0.05-17.02
			c-0.08-8.6-0.3-17.19-0.4-25.78c-0.07-5.91,0.19-11.83-0.1-17.72c-0.57-11.49,1.42-22.84,1.67-34.27
			c0.16-7.08,2.29-13.66,4.34-20.28c3.24-10.43,4.4-21.06,3.4-31.92c-0.26-2.82-0.82-5.61-1.07-8.44c-0.06-0.7,0.39-1.98,0.84-2.1
			c1.5-0.41,1.38,0.94,1.44,1.86c0.5,7.08,1.61,14.18,1.28,21.22c-0.3,6.34-1.81,12.7-3.44,18.88c-2.29,8.7-3.85,17.39-4.61,26.4
			c-1.14,13.63-1.09,27.22-1.07,40.84c0.01,8.61,0.23,17.22,0.28,25.83c0.06,10.86,0.22,21.72-0.01,32.57
			c-0.1,4.57,0.43,9.33-1.8,13.66c-0.31,0.61-0.85,1.11-1.28,1.65C698.22,374.5,697.99,374.4,697.77,374.29z"/>
		<path d="M637.95,358.75c0-3.38,0.08-6.36-0.02-9.33c-0.11-2.97-0.47-5.93-0.59-8.9c-0.14-3.66-0.24-7.33-0.19-11
			c0.06-4.25,0.22-8.5,0.51-12.74c0.54-7.9,1.37-15.79,1.78-23.7c0.46-8.65,0.17-17.36,0.98-25.98c0.87-9.29,2.67-18.48,3.99-27.73
			c0.9-6.29,1.67-12.59,2.51-18.89c1.04-7.85,2.06-15.7,3.18-23.54c0.08-0.58,0.99-1.05,1.52-1.57c0.28,0.6,0.85,1.24,0.79,1.81
			c-0.62,5.8-1.33,11.59-2.05,17.39c-0.94,7.64-1.79,15.29-2.9,22.9c-1.06,7.32-2.52,14.58-3.56,21.91
			c-0.56,3.92-0.7,7.9-0.88,11.87c-0.48,10.54-0.76,21.09-1.35,31.62c-0.39,6.94-1.58,13.85-1.72,20.79
			c-0.15,7.61,0.51,15.23,0.8,22.84c0.05,1.34,0.03,2.68,0.04,4.03c0,2.6,0,5.2,0,7.97C639.81,358.58,638.97,358.66,637.95,358.75z"
			/>
		<path d="M592.02,182.78c0.08,0.55,0.19,0.78,0.13,0.97c-2.8,9.74-2.67,19.83-3.71,29.78c-0.6,5.72-1.66,11.38-2.47,17.08
			c-0.34,2.36-0.59,4.74-0.82,7.11c-0.5,5.21-1.03,10.42-1.43,15.64c-0.76,10.08-1.54,20.16-2.13,30.25
			c-0.6,10.24-0.78,20.5-1.5,30.73c-0.71,10.07-1.78,20.11-2.84,30.15c-0.4,3.78-1.23,7.51-1.83,11.26
			c-0.16,1.02-0.21,2.06-0.33,3.31c-0.63,0.1-1.31,0.2-2.34,0.36c0.39-3.33,0.75-6.34,1.09-9.36c0.54-4.74,1.08-9.49,1.6-14.23
			c0.75-6.89,1.57-13.78,2.18-20.69c0.43-4.83,0.62-9.68,0.84-14.53c0.22-4.79,0.28-9.59,0.54-14.37
			c0.46-8.52,0.94-17.03,1.56-25.54c0.39-5.35,1.1-10.68,1.61-16.02c0.35-3.64,0.46-7.31,0.91-10.93c0.56-4.52,1.51-8.99,2-13.51
			c0.73-6.61,1.08-13.27,1.82-19.88c0.53-4.72,1.34-9.42,2.23-14.09C589.41,184.84,589.97,183.24,592.02,182.78z"/>
		<path d="M700.48,483.74c1.51,2.15,0.24,3.97-0.79,5.05c-4.87,5.11-9.93,10.03-15.05,14.89c-2.48,2.35-5.16,4.49-7.89,6.55
			c-2.28,1.72-5.06,2.48-7.58,1c-2.67-1.57-3.64-4.42-3.63-7.51c0.01-3.58,1.15-6.9,2.93-9.91c1.9-3.2,4.11-6.21,6.24-9.27
			c4.08-5.85,8.06-11.77,12.34-17.46c2.79-3.7,6.04-7.05,9.07-10.58c0.82-0.95,1.6-1.94,2.37-2.94c0.88-1.14,1.81-1.46,3.24-0.14
			c-1.61,1.98-3.18,3.92-4.76,5.86c-3.98,4.91-8.07,9.74-11.91,14.76c-3.43,4.48-6.81,9.02-9.78,13.8
			c-2.72,4.37-6.34,8.38-7.08,13.75c-0.23,1.66-0.23,3.46,0.16,5.07c0.71,2.96,2.73,3.92,5.45,2.51c2.23-1.16,4.41-2.59,6.26-4.29
			c6.15-5.67,12.18-11.47,18.17-17.32C699.2,486.63,699.66,485.19,700.48,483.74z"/>
		<path d="M756.02,405.68c-0.28-0.72-0.84-1.45-0.8-2.15c0.3-4.39,0.78-8.77,1.11-13.17c0.38-5.14,0.73-10.29,0.98-15.44
			c0.36-7.39,0.26-14.82,1.01-22.16c0.69-6.71,2.02-13.38,3.51-19.96c1-4.43,1.33-9.24,4.25-12.99c2.87-3.68,6.13-7.06,9.24-10.54
			c0.15-0.17,0.53-0.13,1.01-0.22c-0.2,2.54-2.06,3.78-3.45,5.3c-2.76,3.02-5.56,6.03-6.56,10.15c-1.34,5.5-2.86,11-3.68,16.58
			c-1.12,7.7-1.86,15.48-2.38,23.25c-0.48,7.14-0.37,14.33-0.71,21.48c-0.12,2.59-0.82,5.14-1.22,7.72
			c-0.61,3.97-1.19,7.94-1.78,11.9C756.39,405.52,756.2,405.6,756.02,405.68z"/>
		<path d="M562.01,270.37c-0.57,2.24-2.66,3.17-5.23,2.18c-2.29-0.88-4.69-1.47-7.06-2.14c-1.1-0.31-1.76-0.02-2.11,1.26
			c-0.41,1.48-1.15,2.89-1.84,4.28c-0.85,1.69-2.31,1.23-3.47,0.6c-2.3-1.25-3.36-4.07-2.6-6.34c0.75-2.23,2.7-3.3,5.57-3.06
			c0.44,0.04,0.87,0.1,1.78,0.21c0.15-3.52,0.3-6.91,0.46-10.51c-2.06,0.25-3.78,0.46-5.56,0.68c-0.24-1.96,1.03-2.23,2.14-2.51
			c3.18-0.78,3.19-0.75,2.9-3.92c-0.07-0.82-0.06-1.65-0.16-2.47c-0.24-1.95,0.23-4.48-3.17-3.92c-0.24,0.04-0.56-0.38-1.01-0.7
			c0.42-0.32,0.66-0.61,0.97-0.73c2.79-1.06,2.83-1.16,2.18-4.08c-0.13-0.56-0.11-1.28,0.15-1.76c0.14-0.25,1.2-0.36,1.4-0.14
			c0.37,0.42,0.53,1.12,0.57,1.72c0.2,3.01,0.84,3.46,3.72,3.07c2.29-0.31,4.62-0.38,6.93-0.44c0.47-0.01,0.94,0.49,1.42,0.75
			c-0.46,0.36-0.9,0.97-1.39,1.03c-2.45,0.26-4.92,0.48-7.38,0.51c-2,0.02-2.42,0.94-2.16,2.71c0.3,2.13,0.44,4.28,0.7,6.94
			c3-0.37,6.06-0.77,9.13-1.09c0.64-0.07,1.31,0.18,1.96,0.29c-0.38,0.71-0.61,1.84-1.18,2.04c-1.38,0.49-2.9,0.6-4.38,0.78
			c-1.83,0.22-3.67,0.35-5.43,0.52c-0.28,3.66-0.57,7.12-0.75,10.58c-0.02,0.36,0.6,0.96,1.03,1.09c1.35,0.41,2.75,0.65,4.13,0.94
			C556.84,269.29,559.42,269.83,562.01,270.37z M543.9,274.91c0.64-1.4,1.29-2.68,1.81-4.02c0.16-0.41,0.13-1.26-0.1-1.38
			c-0.45-0.24-1.17-0.31-1.65-0.12C541.26,270.48,541.11,272.65,543.9,274.91z"/>
		<path d="M768.72,288.56c-1.32-2.25-2.63-4.5-3.96-6.75c-0.86-1.46-1.91-2.84-2.57-4.38c-0.6-1.4-1.11-2.98-1.1-4.47
			c0.08-8.87,0.19-17.75,0.53-26.62c0.33-8.58,0.86-17.16,1.49-25.73c0.21-2.81,1.15-5.55,1.5-8.36c0.71-5.78,1.21-11.58,1.88-17.37
			c0.08-0.66,0.68-1.25,1.04-1.87c0.39,0.67,1.17,1.38,1.1,2c-0.89,8.55-2.08,17.08-2.83,25.64c-0.81,9.31-1.32,18.64-1.78,27.98
			c-0.4,8.07-0.62,16.14-0.72,24.22c-0.02,1.69,0.62,3.47,1.29,5.07c1.27,3.02,2.81,5.93,4.2,8.9c0.22,0.47,0.25,1.04,0.36,1.56
			C769.02,288.44,768.87,288.5,768.72,288.56z"/>
		<path d="M625.41,260.86c1.46-1.04,2.94-1.66,3.7-2.77c0.65-0.96,0.83-2.57,0.53-3.72c-0.19-0.71-1.67-1.52-2.56-1.52
			c-4.15,0.03-8.3,0.3-12.44,0.58c-0.29,0.02-0.69,0.83-0.76,1.32c-0.21,1.4-0.23,2.83-0.43,4.24c-0.34,2.47-0.98,3.11-3.38,2.53
			c-3.2-0.77-6.28-1.96-8-5.75c1.12-0.54,2.23-1.17,3.41-1.64c1.73-0.69,3.58-1.11,5.21-1.98c0.63-0.34,1.12-1.58,1.09-2.39
			c-0.08-2.67-0.43-5.34-0.7-8.18c-2.27,0.26-4.36,0.5-6.67,0.76c0.23-1.68,0.1-3.09,2.23-2.72c0.62,0.11,1.31-0.25,1.98-0.31
			c1.19-0.1,1.77-0.51,1.43-1.86c-0.25-1-0.31-2.08-0.29-3.12c0.01-0.48,0.43-0.94,0.67-1.41c0.51,0.3,1.33,0.49,1.47,0.91
			c0.49,1.46,0.74,3,1.14,4.71c4.31-1.22,8.48-2.41,12.86-3.65c0.61,2.32-1.19,2.66-2.53,3.09c-2.27,0.71-4.62,1.18-6.93,1.79
			c-1,0.27-1.98,0.62-3.11,0.98c0.3,3.44,0.6,6.83,0.9,10.37c3.86-0.41,7.54-0.8,11.22-1.2c2.15-0.24,4.33-0.24,5.55,1.87
			c1.18,2.04,1.24,4.29,0.01,6.42c-0.55,0.96-1.01,2.05-1.79,2.78C628.03,262.1,626.68,261.99,625.41,260.86z M611.15,254.41
			c-1.91,0.71-3.53,1.32-5.15,1.93c-0.02,0.22-0.05,0.43-0.07,0.65c1.59,0.82,3.18,1.64,5.23,2.69
			C611.15,257.56,611.15,256.17,611.15,254.41z"/>
		<path d="M859.61,208.74c-0.96,4.86-1.93,9.72-2.88,14.58c-0.95,4.92-4.16,7.57-9.49,7.78c-0.15,0.01-0.3,0-0.45,0
			c-5.92,0.03-8.46-2.52-7.76-8.42c0.53-4.42,1.67-8.76,2.53-13.14c0.13-0.64,0.22-1.3,0.45-2.65c-1.13,0.82-1.82,1.24-2.4,1.78
			c-1.36,1.28-2.6,2.71-4.04,3.89c-0.45,0.37-1.38,0.16-2.09,0.21c0.21-0.65,0.24-1.47,0.67-1.91c2.45-2.51,5-4.93,7.52-7.39
			c0.11-0.1,0.19-0.27,0.31-0.32c0.91-0.39,1.83-0.75,2.75-1.12c0.19,0.94,0.69,1.95,0.51,2.82c-0.59,2.93-1.51,5.78-2.12,8.71
			c-0.62,2.99-1.23,6.01-1.46,9.04c-0.32,4.09,1.04,6.19,3.78,6.66c4.57,0.77,7.72-0.89,8.72-4.96c0.91-3.7,1.45-7.49,2.16-11.23
			c0.65-3.43,1.26-6.87,2.02-10.28c0.08-0.38,1.18-0.95,1.48-0.79c0.69,0.35,1.51,1.01,1.69,1.7c0.79,2.94,1.3,5.95,2.05,8.9
			c0.36,1.43,1.14,2.75,1.52,4.18c0.17,0.64-0.17,1.42-0.28,2.14c-0.56-0.39-1.41-0.67-1.63-1.2c-0.85-2.06-1.5-4.21-2.22-6.33
			c-0.3-0.89-0.59-1.79-0.89-2.68C859.92,208.71,859.76,208.72,859.61,208.74z"/>
		<path d="M678.09,229.43c-1.97-7.56-3.95-15.17-6.06-23.27c-2.51,1.62-4.79,3.12-7.12,4.55c-0.56,0.35-1.29,0.43-1.93,0.64
			c0.18-0.71,0.13-1.7,0.59-2.08c1.65-1.36,3.39-2.66,5.26-3.69c1.81-1,3.04-2.02,2.25-4.32c-0.28-0.83-0.42-1.8-0.3-2.65
			c0.08-0.57,0.75-1.05,1.15-1.57c0.41,0.44,1.08,0.83,1.17,1.32c0.25,1.4,0.26,2.85,0.39,4.47c0.75-0.28,1.01-0.41,1.3-0.48
			c2.72-0.67,3.68-2.3,3-5.05c-0.18-0.74,0.18-1.62,0.29-2.43c0.29-0.05,0.58-0.09,0.86-0.14c0.59,1.47,1.19,2.95,1.55,3.85
			c2.47,0.32,4.75,0.27,6.79,0.93c4.89,1.58,5.51,8.78,2.81,12.38c-1.68,2.22-3.68,3.71-6.66,3.08c-1.75-0.37-1.83-0.54-1.7-2.46
			c1.2,0.19,2.51,0.76,3.57,0.46c1.14-0.33,2.23-1.33,3.03-2.3c1.55-1.89,1.33-5.7-0.2-7.28c-2.27-2.33-4.26-2.69-6.98-1.1
			c0.25,0.7,0.75,1.44,0.73,2.18c-0.02,0.82-0.51,1.62-0.79,2.44c-0.56-0.51-1.19-0.95-1.65-1.53c-0.56-0.69-0.93-2.08-1.49-2.13
			c-1.44-0.15-3.51,2.18-3.21,3.45c0.71,3.04,1.57,6.05,2.41,9.06c1.03,3.71,2.02,7.43,3.15,11.11
			C680.8,228.55,680.24,229.22,678.09,229.43z"/>
		<path d="M602.58,297.37c2.9-0.91,5.8-1.81,9.27-2.9c-0.56,0.77-0.76,1.38-1.16,1.57c-2.11,1.01-4.23,2-6.42,2.83
			c-2.13,0.81-2.81,2.8-1.36,4.58c1.04,1.27,2.32,2.21,4.08,1.67c2.05-0.63,4.21-1.12,6.08-2.12c3.25-1.73,4.42-5.41,3.19-8.91
			c-0.16-0.46-0.35-0.91-0.61-1.58c2.98,1.77,3.2,6.91,0.74,9.67c-2.84,3.19-6.35,4.84-10.6,5.05c-3.16,0.16-5.25-1.35-5.9-4.43
			c-0.57-2.7-0.62-2.7-3.32-1.78c-1.44,0.49-2.97,1.1-4.41-0.83c2.65-0.72,5.05-1.37,7.35-1.99c0.28-2.1,0.56-4.14,0.86-6.42
			c-1.63,0.12-3.15,0.31-4.66,0.32c-0.69,0-1.47-0.23-2.05-0.6c-0.3-0.19-0.42-0.94-0.33-1.37c0.05-0.23,0.73-0.45,1.13-0.45
			c1.34-0.01,2.69,0.03,4.02,0.16c2.01,0.2,2.97-0.87,3.64-2.58c1.16-2.99,2.39-5.95,3.7-8.88c0.22-0.5,0.97-0.77,1.48-1.15
			c0.13,0.56,0.53,1.23,0.36,1.67c-0.86,2.22-1.88,4.38-2.81,6.57c-0.31,0.74-0.5,1.52-0.89,2.74c2.79-0.7,5.15-1.3,7.82-1.97
			c0.62,0.69,0.76,1.56-0.83,2.1c-1.84,0.62-3.66,1.4-5.55,1.76c-1.58,0.29-2.4,0.82-2.52,2.51c-0.1,1.38-0.54,2.73-0.83,4.1
			C602.22,296.94,602.4,297.16,602.58,297.37z"/>
		<path d="M625.61,192.1c-0.39,2.69-2.1,4.65-3.81,6.62c-1.17,1.35-2.31,2.73-3.43,4.13c-0.82,1.01-1.14,2,0.81,2.67
			c-0.71,0.58-1.18,1.29-1.68,1.31c-1.42,0.06-2.55,0.48-2.97,1.89c-0.64,2.18-1.39,4.39-1.56,6.63c-0.06,0.79,1.3,1.95,2.27,2.52
			c3.89,2.29,7.96,1.94,12.04,0.44c0.91-0.33,1.84-0.61,2.71-1.03c2.03-0.98,4.06-2,4.17-4.9c1.72,0.96,1.65,2.27,0.69,3.16
			c-1.62,1.49-3.42,2.86-5.35,3.9c-4.84,2.63-9.92,2.86-15.16,1.1c-2.06-0.69-3.03-2.07-3.37-4.04c-0.69-3.97,0.45-7.49,2.57-10.18
			c-1.44-2.74-2.74-5.13-3.95-7.55c-0.32-0.65-0.65-1.48-0.51-2.12c0.19-0.8,0.86-1.49,1.33-2.23c0.34,0.68,0.69,1.34,1.01,2.03
			c1.12,2.37,2.22,4.75,3.53,7.57c3.7-4.55,6.9-8.47,10.09-12.39C625.23,191.78,625.42,191.94,625.61,192.1z"/>
		<path d="M730.27,306.19c0.06-0.87,0.11-1.74,0.18-2.6c0.34-3.71,0.85-7.42,0.94-11.14c0.03-1.41-1-2.82-1.39-4.27
			c-0.28-1.02-0.3-2.11-0.44-3.17c0.77,0.54,1.56,1.06,2.3,1.64c0.26,0.21,0.4,0.57,0.82,1.19c2.64-3.98,5.13-7.73,7.92-11.93
			c-4.61,1.43-8.68,2.81-12.83,3.92c-2.58,0.69-5.26,1.08-7.91,1.39c-0.85,0.1-1.77-0.53-2.66-0.83c0.02-0.25,0.05-0.51,0.07-0.76
			c0.88-0.26,1.75-0.75,2.63-0.76c4.97-0.07,9.51-1.79,14.11-3.38c2.54-0.87,5.15-1.56,7.75-2.24c0.53-0.14,1.61,0.01,1.68,0.25
			c0.18,0.63,0.2,1.55-0.14,2.07c-2.66,4.05-5.34,8.1-8.21,12.01c-1.25,1.69-1.47,3.38-1.54,5.38c-0.12,3.86-0.55,7.71-1.01,11.54
			c-0.09,0.74-0.93,1.39-1.42,2.08C730.83,306.45,730.55,306.32,730.27,306.19z"/>
		<path d="M737.19,317.39c0.56,0.36,1.26,0.6,1.63,1.1c0.47,0.64,0.71,1.47,0.99,2.23c0.91,2.41,1.99,2.81,4.33,1.71
			c1.05-0.49,2.18-0.89,3.31-1.11c0.54-0.1,1.18,0.32,1.77,0.51c-0.48,0.54-0.85,1.31-1.45,1.56c-1.58,0.66-3.31,0.94-4.85,1.67
			c-0.66,0.31-1.37,1.36-1.36,2.06c0.02,2.98,0.23,5.97,0.55,8.94c0.07,0.66,0.79,1.37,1.4,1.81c1.09,0.78,2.3,1.38,3.48,2.02
			c1.65,0.9,1.76,2.17,1.13,3.69c-2.23-1.29-4.35-2.52-6.48-3.76c-0.73,0.9-1.34,1.93-2.21,2.65c-1.85,1.53-4.72,1.23-6.29-0.48
			c-1.64-1.8-1.89-4.09-0.15-5.58c0.89-0.77,2.5-0.93,3.79-0.93c1.05,0,2.1,0.63,3.75,1.18c-0.34-3.71-0.65-6.98-0.96-10.36
			c-2.37,0.87-4.36,1.59-6.34,2.31c-0.9-1.67-0.57-2.45,0.88-2.82c0.94-0.24,1.82-0.75,2.76-0.91c2.2-0.36,1.89-1.72,1.33-3.15
			c-0.49-1.23-1.1-2.41-1.66-3.62C736.77,317.86,736.98,317.63,737.19,317.39z M739.81,338.88c-1.21-0.42-2.37-1.03-3.58-1.17
			c-0.72-0.08-1.52,0.58-2.28,0.91c0.36,0.67,0.56,1.55,1.11,1.96C736.73,341.82,738.33,341.21,739.81,338.88z"/>
		<path d="M625.94,347.58c-2.98,3.66-6.94,3.35-10.99,2.25c-5.81-1.57-7.14-3.87-5.98-9.82c0.58-3,1.72-5.7,3.81-7.97
			c0.64-0.7,1.16-1.51,1.96-2.57c-6.3,1.33-11.88,3.39-16.97,6.68c-0.5,0.32-0.97,0.78-1.52,0.94c-0.61,0.18-1.31,0.09-1.97,0.12
			c0.22-0.72,0.22-1.75,0.71-2.11c1.37-1,3.02-1.61,4.42-2.58c5.13-3.55,11.34-3.92,17.01-5.87c0.48-0.17,1.35,0.18,1.75,0.58
			c0.22,0.22-0.02,1.16-0.32,1.58c-1.13,1.57-2.27,3.15-3.59,4.56c-2.2,2.35-3.14,5.16-3.48,8.28c-0.26,2.38,0.72,4.18,2.82,5.08
			c2.1,0.9,4.34,1.78,6.57,1.97C622.05,348.84,624.02,347.98,625.94,347.58z"/>
		<path d="M747.17,197.23c-1.98,6.88-3.96,13.76-5.84,20.32c0.88,0.58,1.52,1,2.16,1.42c-0.63,0.51-1.18,1.3-1.89,1.5
			c-4.1,1.12-8.23,2.16-12.37,3.08c-0.66,0.15-1.48-0.42-2.23-0.65c0.65-0.47,1.23-1.16,1.95-1.36c2.52-0.7,5.13-1.08,7.6-1.89
			c0.98-0.32,2.16-1.29,2.47-2.23c1.94-5.71,3.67-11.49,5.61-17.71c-6.78,2.57-12.92,5.77-19.98,5.42c-0.69-1.8,0.61-1.93,1.68-2.2
			c3.83-0.96,7.72-1.76,11.49-2.9c2.9-0.88,5.66-2.2,8.49-3.32C746.59,196.88,746.88,197.06,747.17,197.23z"/>
		<path d="M558.6,303.21c-0.56,1.43-0.79,3.15-1.75,4.23c-3.14,3.57-6.96,5.98-11.98,6c-2.85,0.01-4.6-1.44-5.89-3.71
			c-2.13-3.73-1.4-7.67-0.74-11.57c0.44-2.56,1.1-5.08,1.6-7.62c0.3-1.53,1.29-1.95,2.88-1.98c-0.7,4.05-1.33,7.94-2.06,11.81
			c-0.57,3.05-0.27,6,1.3,8.64c1.19,2,3.25,2.19,5.37,1.59c4.44-1.26,8.22-3.43,10.44-7.72C558.05,302.98,558.33,303.1,558.6,303.21
			z"/>
		<path d="M537.93,336.68c-1.64,0.76-3.22,1.57-4.86,2.22c-0.55,0.22-1.26,0.05-1.89,0.05c0.3-0.67,0.43-1.64,0.95-1.97
			c1.67-1.03,3.47-1.87,5.26-2.7c2.36-1.09,2.23-3.32,2.53-5.34c0.22-1.43,0.29-2.88,0.45-4.62c3.62,2.33,1.2,5.05,1.03,7.45
			c4.09-2.09,8.07-4.12,12.16-6.22c0.78,1.79,0.45,2.6-0.8,3.21c-3.34,1.63-6.62,3.4-9.99,4.97c-1.75,0.82-2.47,2.07-2.86,3.91
			c-1.07,4.94-2.32,9.84-3.61,14.72c-0.12,0.45-1.01,0.71-1.55,1.05c-0.11-0.58-0.44-1.21-0.31-1.73c1.19-4.77,2.45-9.52,3.68-14.29
			C538.17,337.22,538.02,336.99,537.93,336.68z"/>
		<path d="M829.81,383.3c2.57-2.95,5.09-5.75,7.5-8.65c2.36-2.85,4.52-5.84,5.02-9.67c0.05-0.37,0.01-0.82,0.2-1.09
			c0.3-0.41,0.77-0.69,1.17-1.03c0.19,0.42,0.63,0.91,0.53,1.25c-0.61,2.12-1.29,4.22-2.03,6.29c-0.4,1.11-0.98,2.15-1.51,3.27
			c2.76,0.74,4.35,2.51,5.32,4.99c1.05,2.7,6.51,3.7,9.01,1.65c2.23-1.83,4.82-3.48,3.64-7.39c1.9,1.62,2.23,2.97,1.47,4.73
			c-1.14,2.64-6.37,6.1-9.24,5.83c-2.76-0.26-5.04-1.63-6.7-3.9c-0.44-0.6-0.75-1.3-1.17-1.91c-1.73-2.51-3.14-2.57-5.03-0.22
			c-1.54,1.91-3.05,3.85-4.57,5.77C832.59,384.29,831.94,384.36,829.81,383.3z"/>
		<path d="M673.06,250.36c1.74-0.72,3.35-1.51,5.05-2.05c1.6-0.51,3.29-0.75,5.02-1.12c0.41,1.87-0.18,2.58-1.73,2.96
			c-2.82,0.68-5.67,1.35-8.32,2.48c-0.92,0.39-1.64,2.05-1.82,3.23c-0.58,3.73-0.88,7.51-1.25,11.28c-0.1,1.04-0.18,2.11-0.06,3.14
			c0.2,1.81-0.77,2.67-2.69,3.55c0.79-6.66,1.54-12.95,2.32-19.52c-1.76,0.74-3.13,1.51-4.6,1.86c-0.66,0.16-1.51-0.52-2.27-0.81
			c0.54-0.66,1.07-1.87,1.63-1.89c4.84-0.15,6.48-3.21,7.12-7.35c0.07-0.48,0.36-0.93,0.65-1.65
			C674.36,246.28,671.95,248.44,673.06,250.36z"/>
		<path d="M842.77,314.68c0.34-0.69,0.62-1.41,1.04-2.05c1.51-2.27,3.1-4.5,4.6-6.78c1.58-2.4,3.32-4.73,4.53-7.31
			c0.71-1.52,0.82-3.49,0.62-5.2c-0.18-1.58-1.76-2.12-3.16-1.5c-3.12,1.38-6.15,2.95-9.19,4.5c-0.66,0.33-1.14,1.13-1.81,1.28
			c-0.78,0.18-1.68-0.1-2.52-0.18c0.4-0.58,0.67-1.37,1.22-1.7c3.15-1.86,6.29-3.74,9.58-5.33c1.42-0.68,3.23-1.11,4.74-0.86
			c1.22,0.2,2.67,1.36,3.26,2.49c1.23,2.35,0.99,4.93-0.24,7.33c-1.02,1.98-1.82,4.15-3.18,5.88c-2.71,3.46-5.73,6.68-8.62,10
			C843.35,315.07,843.06,314.87,842.77,314.68z"/>
		<path d="M713.99,517.61c0.1,0.63,0.2,1.26,0.31,1.99c3.96,0.62,7.11-0.26,8.6-3.96c-0.69-0.95-2.01-2.25-1.8-2.6
			c0.8-1.29,1.96-2.51,3.26-3.28c0.92-0.54,1.91-0.12,1.89,1.49c-0.02,1.98-0.38,3.96,1.21,5.85c1.16,1.38,1.88,1.23,3.15,0.65
			c0.65-0.3,1.42-0.33,2.13-0.48c0.11,0.3,0.21,0.61,0.32,0.91c-1.44,0.6-2.84,1.52-4.32,1.67c-0.86,0.09-1.89-1-2.77-1.65
			c-0.54-0.4-0.95-0.98-1.41-1.49c-0.37,0.49-0.75,0.97-1.11,1.46c-0.39,0.53-0.71,1.12-1.15,1.6c-1.18,1.29-1.03,2.85-0.41,4.14
			c0.64,1.34,2.02,1.48,3.52,1.16c2.82-0.61,4.12-1.6,7.04-5.95c0.14,0.53,0.43,0.99,0.3,1.22c-1.44,2.48-3.24,4.65-5.83,5.99
			c-3.18,1.64-7.62,0.83-7.38-4.43c0.01-0.29-0.04-0.58-0.07-0.87c-2.15,0.41-4.37,1.29-6.07-0.59c-0.52-0.58-0.25-1.87-0.34-2.84
			C713.38,517.62,713.69,517.62,713.99,517.61z"/>
		<path d="M855.16,244.1c0.56-0.2,1.44-0.51,2.42-0.85c0.52,1.07,0.99,2.03,1.45,2.99c1.84-0.64,3.47-1.21,5.11-1.78
			c0.15,0.31,0.29,0.62,0.44,0.93c-1.04,0.71-2.03,1.49-3.13,2.1c-1.41,0.78-2.31,1.66-2.25,3.49c0.05,1.78,1.41,1.58,2.37,2.14
			c1.98,1.15,3.88,2.43,5.81,4.25c-1.09,0-2.26,0.24-3.25-0.07c-1.03-0.32-1.89-1.17-2.83-1.77c-1.95-1.23-2.37-1.01-3.29,1.09
			c-0.36,0.83-1.19,1.95-1.89,2.02c-1.05,0.1-2.8-0.33-3.14-1.06c-0.95-2.04-0.12-3.84,1.78-4.45c2.04-0.66,2.45-1.92,1.92-3.77
			C856.22,247.72,855.74,246.09,855.16,244.1z"/>
		<path d="M665.81,294.29c2.33-0.99,4.52-1.91,6.81-2.87c0.74,1.62,0.34,2.35-1.2,2.96c-1.78,0.71-3.45,1.77-5.06,2.82
			c-0.44,0.29-0.71,1.11-0.76,1.71c-0.24,3.13-0.38,6.27-0.59,9.4c-0.04,0.64-0.1,1.39-0.44,1.88c-0.32,0.46-1.03,0.64-1.57,0.94
			c-0.18-0.52-0.55-1.05-0.52-1.56c0.2-3.56,0.48-7.12,0.75-10.98c-0.8,0.2-1.46,0.45-2.13,0.5c-0.44,0.03-1.2-0.12-1.28-0.37
			c-0.15-0.46,0.07-1.05,0.18-1.58c0.02-0.11,0.21-0.24,0.34-0.27c3.52-0.75,2.97-3.72,3.38-6.17c0.15-0.88,0.18-1.81,0.48-2.64
			c0.16-0.45,0.76-0.75,1.16-1.12c0.26,0.46,0.74,0.93,0.74,1.39C666.07,290.26,665.92,292.18,665.81,294.29z"/>
		<path d="M739.58,254.15c0.53-5.81,3.25-11.11,1.79-17.18c-3.48,1.2-6.84,2.36-10.2,3.5c-3.31,1.12-6.63,2.21-9.95,3.31
			c-0.15-0.28-0.29-0.56-0.44-0.85c0.41-0.4,0.74-0.99,1.23-1.16c6.67-2.42,13.36-4.79,20.04-7.16c0.26-0.09,0.58-0.04,1.4-0.08
			c0,3.32,0.15,6.56-0.05,9.78c-0.16,2.6-0.79,5.16-1.16,7.75C742.03,253.6,741.15,254.18,739.58,254.15z"/>
		<path d="M786.87,344.5c0.5,4.81-2.15,8.74-3.61,13c-0.58,1.69-1.25,3.38-2.09,4.95c-0.3,0.57-1.24,0.8-1.88,1.19
			c-0.07-0.71-0.4-1.52-0.17-2.12c1.52-3.95,3.4-7.78,4.67-11.81c0.72-2.28,0.68-4.86,0.61-7.29c-0.05-1.82-2.1-2.24-3.79-0.81
			c-1.3,1.1-2.42,2.42-3.72,3.53c-0.42,0.36-1.13,0.39-1.71,0.56c0.21-0.52,0.27-1.2,0.65-1.54c1.81-1.63,3.54-3.44,5.6-4.67
			c3.19-1.89,5.3-0.51,5.44,3.22C786.89,343.3,786.87,343.9,786.87,344.5z"/>
		<path d="M553.66,196.04c-0.72,2.54-1.53,4.99-2.08,7.51c-0.57,2.61-1.08,5.26-1.26,7.92c-0.18,2.61,0.58,3.16,3.05,2.44
			c2.75-0.81,5.42-1.85,8.12-2.79c0,0.01,0.01,0.5-0.22,0.69c-3.36,2.83-7.35,4.11-11.63,4.73c-1.58,0.23-1.91-0.57-2.13-1.83
			c-0.88-5.07,0.67-9.75,2.16-14.45c0.22-0.71,0.52-1.43,0.56-2.15C550.34,195.95,551.46,195.44,553.66,196.04z"/>
		<path d="M723.64,319.69c-4.18,8.72-7.13,17.21-4.74,27.06c3.02-2.38,5.76-4.53,8.65-6.81c-0.59,3.26-7.4,9.26-10.34,9.37
			C714.66,339.17,717.98,322.16,723.64,319.69z"/>
		<path d="M674.47,321.95c-1.47,1.7-2.05,4.03-4.35,3.19c-1.38-0.5-2.28-1.84-2.01-3.62c0.36-2.37,2.08-2.62,4.39-2.71
			c-0.75-2.77-1.5-5.44-2.18-8.14c-0.16-0.63-0.06-1.32-0.09-1.98c0.7,0.37,1.85,0.61,2.01,1.14c0.8,2.62,1.5,5.29,1.9,7.99
			c0.2,1.32,0.53,2.06,1.73,2.74c2,1.14,3.84,2.55,5.66,3.97c0.45,0.35,0.55,1.16,0.81,1.76c-0.79-0.04-1.77,0.19-2.35-0.19
			C678.11,324.88,676.36,323.41,674.47,321.95z"/>
		<path d="M793.63,221.19c-0.92,3.32-2.73,5.78-6.38,6.52c-1.92,0.39-2.9-0.85-3.28-2.3c-0.39-1.47-0.51-3.15-0.21-4.63
			c1.16-5.7,2.5-11.37,3.87-17.02c0.13-0.56,0.88-0.97,1.35-1.44c0.21,0.6,0.69,1.27,0.57,1.79c-1.16,5.09-2.45,10.14-3.62,15.22
			c-0.26,1.15-0.27,2.38-0.21,3.57c0.03,0.75,0.26,2.03,0.65,2.13c0.84,0.22,1.99,0.09,2.72-0.36c1.11-0.7,2.01-1.76,2.92-2.75
			c0.38-0.41,0.55-1.02,0.82-1.54C793.09,220.64,793.36,220.92,793.63,221.19z"/>
		<path d="M832.58,343.67c2.97-1.64,5.47-3.03,8.28-4.59c-1.42,2.39-7.09,6.65-8.82,6.62c-0.61-0.01-1.65-0.52-1.76-0.98
			c-1.16-4.99-2.54-9.99-1.65-15.19c0.31-1.81,0.79-3.59,1.28-5.36c0.07-0.26,0.63-0.39,0.97-0.58c0.19,0.43,0.54,0.85,0.54,1.28
			c-0.04,3.66-0.34,7.33-0.17,10.98C831.37,338.39,832.09,340.9,832.58,343.67z"/>
		<path d="M781.53,264.9c3.19-0.63,4.38-3.39,6.19-5.79c0.36,4.1-3.37,8.1-6.92,7.65c-0.71-0.09-1.66-1.03-1.87-1.76
			c-1.42-4.98-1.47-9.95,0.55-14.83c0.34-0.82,0.43-1.76,0.8-2.56c0.21-0.44,0.79-0.7,1.2-1.05c0.14,0.55,0.51,1.17,0.37,1.62
			c-1.6,5.16-2.3,10.34-0.77,15.65C781.19,264.17,781.36,264.49,781.53,264.9z"/>
		<path d="M759.84,275.06c1.35,2.55,2.73,5.07,4.03,7.64c1.59,3.13,3.11,6.31,4.66,9.46c1.44,2.92,2.89,5.83,4.35,8.74
			c0.89,1.77,1.99,3.46,2.68,5.31c0.68,1.84-0.65,3.02-2.78,2.52c1.48-2.21,0.62-4.16-0.47-6.23c-3.79-7.19-7.46-14.44-11.19-21.67
			c-0.41-0.79-1-1.52-1.29-2.35c-0.36-1.03-0.5-2.13-0.73-3.2C759.35,275.2,759.59,275.13,759.84,275.06z"/>
		<path d="M790.71,283.65c-2.28,0.84-4.11,1.52-5.96,2.19c-1.74,0.63-3.46,1.37-5.25,1.8c-0.64,0.15-1.46-0.47-2.2-0.74
			c0.53-0.51,0.97-1.28,1.61-1.5c4.05-1.45,8.15-2.75,12.22-4.15c1.69-0.58,2.76,0.04,2.2,1.69c-0.9,2.64-2.23,5.13-3.47,7.64
			c-0.45,0.92-1.16,1.71-2.01,2.41C787.14,289.55,789.92,287.29,790.71,283.65z"/>
		<path d="M561.06,456.45c-1.17,3.03-2.2,5.97-3.47,8.8c-0.26,0.58-1.37,0.77-2.09,1.15c-0.46-1.14-1.51-2.43-1.26-3.38
			c0.7-2.62,1.82-5.15,3.03-7.58c0.41-0.82,1.61-1.24,2.44-1.85C560.14,454.48,560.56,455.37,561.06,456.45z"/>
		<path d="M666.29,335.09c0.82,6.76,1.63,13.33,2.41,19.9c0.08,0.67,0.23,1.4,0.04,2c-0.16,0.5-0.77,0.86-1.19,1.28
			c-0.34-0.4-0.93-0.77-0.98-1.21c-0.71-6.46-1.4-12.93-1.99-19.41C664.4,335.66,664.54,335.65,666.29,335.09z"/>
		<path d="M854.34,333.42c-0.17,2.07-0.19,4.17-0.57,6.21c-0.16,0.89-1.05,1.64-1.61,2.45c-0.34-0.87-0.97-1.74-0.98-2.61
			c-0.06-3.33,0.14-6.67,0.12-10c-0.01-1.4-0.4-2.8-0.44-4.2c-0.01-0.5,0.51-1,0.78-1.51c0.41,0.3,1.11,0.53,1.2,0.9
			c0.66,2.87,1.2,5.77,1.78,8.66C854.52,333.36,854.43,333.39,854.34,333.42z"/>
		<path d="M776.98,388.37c-0.99-0.24-1.9-0.46-3.34-0.81c1.94-4.3,3.79-8.39,5.64-12.47c0.43-0.95,0.77-1.99,1.39-2.79
			c0.36-0.47,1.22-0.56,1.85-0.82c0.07,0.66,0.4,1.42,0.17,1.95c-1.59,3.78-3.34,7.49-4.94,11.26
			C777.34,385.7,777.29,386.86,776.98,388.37z"/>
		<path d="M716.52,491.69c0.92,0,2.04,0,3.11,0c0.1,2.13,0.72,4.23,0.13,5.89c-0.63,1.76-0.21,3.5-0.76,5.11
			c-0.23,0.68-1.15,1.12-1.76,1.66c-0.44-0.58-1.25-1.16-1.25-1.73c0.03-2.17,0.36-4.33,0.5-6.5
			C716.58,494.78,716.52,493.43,716.52,491.69z"/>
		<path d="M567.26,218.74c0-4.15,0.09-7.95-0.03-11.73c-0.08-2.74-0.48-5.47-0.63-8.22c-0.03-0.53,0.42-1.09,0.65-1.63
			c0.42,0.36,1.07,0.64,1.21,1.09c0.4,1.27,0.77,2.6,0.82,3.93c0.16,4.26,0.19,8.53,0.25,12.79
			C569.54,216.51,569.2,217.89,567.26,218.74z"/>
		<path d="M561.02,347.38c-0.14,3.08-0.75,3.74-3.21,4.09c-2.51,0.35-4.94,0.73-7.47-0.21c-1.65-0.61-2.58-1.31-2.21-3.33
			C552.37,348.74,556.67,349.69,561.02,347.38z"/>
		<path d="M803.61,260.35c-0.96-5.23,1.39-10.44-1.7-15.19c1.71-0.49,3.09,0.37,3.62,2.14c1.08,3.63,0.45,7.23-0.33,10.79
			C805.02,258.92,804.16,259.6,803.61,260.35z"/>
		<path d="M745.63,257.21c-1.52,0.4-3.03,0.89-4.57,1.2c-3.11,0.62-6.24,1.21-9.38,1.68c-1.2,0.18-2.45-0.01-3.67-0.03
			c0.98-0.63,1.88-1.6,2.95-1.85c4.28-0.97,8.61-1.74,12.93-2.5c0.52-0.09,1.12,0.29,1.68,0.46
			C745.59,256.52,745.61,256.86,745.63,257.21z"/>
		<path d="M532.33,450.31c-0.11-0.63-0.43-1.25-0.25-1.64c3.88-8.68,7.81-17.35,12.2-25.8
			C541.45,432.42,535.95,440.81,532.33,450.31z"/>
		<path d="M797.62,215.79c5.12,1.17,10,4.13,15.6,2.31c0.23,2.04-1.19,2.84-2.34,2.75c-4.35-0.34-8.83-0.42-12.6-3.13
			c-0.44-0.31-0.67-0.91-1-1.38C797.39,216.16,797.5,215.98,797.62,215.79z"/>
		<path d="M796.25,302.44c0.6,1.87-0.59,2.56-1.69,3.16c-2.8,1.53-5.86,1.73-8.95,1.43c-1.63-0.16-3.25-0.48-4.84-0.87
			c-0.32-0.08-0.5-0.76-0.75-1.16c0.43-0.16,0.9-0.52,1.28-0.44C786.47,305.65,791.49,305.75,796.25,302.44z"/>
		<path d="M732.65,494.46c-0.15,1.61,0.02,3.35-0.55,4.79c-0.4,1.01-1.82,1.62-2.78,2.4c-0.3-0.58-0.9-1.19-0.85-1.74
			c0.21-2.32,0.51-4.65,1.02-6.92c0.14-0.63,1.07-1.26,1.77-1.48c0.28-0.09,1.04,0.83,1.35,1.42
			C732.83,493.32,732.65,493.94,732.65,494.46z"/>
		<path d="M556.02,358.84c1.59,0.45,3.16,0.63,4.41,1.36c0.55,0.32,0.72,1.78,0.59,2.66c-0.3,2.1-3.02,3.9-4.91,2.93
			C552.56,363.96,555.85,361.55,556.02,358.84z M558.56,360.49c-0.34,1.47-0.65,2.78-0.94,4.02
			C559.87,363.75,560.12,362.93,558.56,360.49z"/>
		<path d="M839.18,271.08c0.68,1.04,1.36,2.09,2.05,3.13c1.41,2.1,2.86,4.18,4.21,6.32c0.29,0.46,0.25,1.13,0.36,1.71
			c-0.62-0.03-1.45,0.17-1.82-0.15c-0.81-0.71-1.45-1.64-2.06-2.55c-1.16-1.71-2.32-3.42-3.36-5.2c-0.4-0.68-0.49-1.53-0.72-2.31
			C838.28,271.71,838.73,271.4,839.18,271.08z"/>
		<path d="M679.76,267.29c4.2-1.2,7.6-2.17,10.99-3.13c-0.11,0.21-0.29,0.99-0.78,1.45c-2.31,2.18-4.96,3.79-8.24,3.77
			C679.92,269.37,679.11,268.41,679.76,267.29z"/>
		<path d="M797.04,208.59c-0.64-2.02,0.71-2.79,2.24-3.08c2.64-0.49,5.33-0.77,8.01-1.01c0.47-0.04,1,0.56,1.5,0.87
			c-0.45,0.4-0.84,1.05-1.35,1.16C804.04,207.28,800.61,207.9,797.04,208.59z"/>
		<path d="M617.86,320.06c0-1.33,0.18-2.61-0.09-3.79c-0.11-0.49-1.14-1.01-1.78-1.06c-0.63-0.05-1.33,0.44-1.95,0.78
			c-0.6,0.34-1.13,0.81-1.81,1.3c-0.23-2.14,1.47-3.97,3.68-4.3c2.01-0.31,4.37,1.45,4.67,3.48
			C620.82,318.05,619.26,319.81,617.86,320.06z"/>
		<path d="M684.04,294.29c-4.17-0.21-5.41-3.1-6.72-5.81c-0.25-0.52,0.44-1.5,0.7-2.27c0.46,0.47,0.97,0.9,1.38,1.41
			c1.13,1.38,2.28,2.75,3.33,4.2C683.26,292.56,683.61,293.46,684.04,294.29z"/>
		<path d="M784.84,330.98c-1.02-0.3-2.22-0.35-3.01-0.94c-1.59-1.2-3.02-2.64-4.39-4.09c-0.39-0.41-0.37-1.22-0.54-1.84
			c0.7,0.03,1.64-0.22,2.07,0.14c2.19,1.83,4.25,3.82,6.36,5.75C785.17,330.32,785.01,330.65,784.84,330.98z"/>
		<path d="M871.19,204.75c0-4.03,0-7.84,0-11.65c0.19-0.12,0.38-0.23,0.57-0.35c0.59,1.01,1.55,1.97,1.7,3.04
			c0.3,2.2,0.2,4.45,0.2,6.69C873.67,203.99,872.91,204.79,871.19,204.75z"/>
		<path d="M711.56,488.7c4.02-1.59,6.62-5.22,10.55-6.59c0.16,0.23,0.32,0.45,0.47,0.68c-1.04,0.98-2.03,2.03-3.13,2.93
			c-1.61,1.33-3.28,2.6-4.98,3.82C713.47,490.26,712.42,490.53,711.56,488.7z"/>
		<path d="M630.5,240.67c-1.43-2.53-2.61-4.61-3.79-6.68c-0.25-0.44-0.74-0.84-0.79-1.3c-0.07-0.58,0.2-1.2,0.33-1.8
			c0.47,0.24,1.14,0.37,1.37,0.75c1.32,2.24,2.63,4.51,3.77,6.84C631.98,239.73,631.51,240.63,630.5,240.67z"/>
		<path d="M686.09,255.66c0.44,0.31,1.08,0.52,1.25,0.93c0.13,0.31-0.22,1.15-0.55,1.27c-2.05,0.78-4.13,1.45-6.24,2.07
			c-0.17,0.05-0.79-0.58-0.76-0.86c0.04-0.53,0.27-1.34,0.63-1.49C682.2,256.87,684.06,256.33,686.09,255.66z"/>
		<path d="M553.03,433.35c0.03,0.64,0.36,1.5,0.06,1.89c-3.06,3.97-4.5,8.6-5.39,13.46c-0.22-0.03-0.44-0.06-0.66-0.09
			c0.11-1.29-0.03-2.67,0.38-3.85c1.21-3.54,1.6-7.49,4.7-10.18c0.38-0.33,0.65-0.78,0.98-1.17L553.03,433.35z"/>
		<path d="M548.47,343.33c0.16-3.02,4.1-6.71,6.45-6.46c0.31,0.03,0.82,1.44,0.72,1.51C553.39,340.03,551.07,341.57,548.47,343.33z"
			/>
		<path d="M569.73,443.25c1.28-6.86,5.55-12.03,9.64-17.3C576.15,431.72,572.94,437.49,569.73,443.25z"/>
		<path d="M744.25,366.54c-2.14-2.14-4.27-4.28-6.73-6.74c0.65-0.1,1.34-0.4,1.92-0.25C741.52,360.07,744.62,364.08,744.25,366.54z"
			/>
		<path d="M583.77,448.58c-1.77-5.97,2.5-9.5,5.35-13.6C587.32,439.49,583.66,443.27,583.77,448.58z"/>
		<path d="M867.7,196.21c0.69,2.46,1.28,4.13,1.58,5.86c0.13,0.71-0.36,1.53-0.57,2.31c-0.52-0.53-1.32-0.98-1.49-1.61
			c-0.44-1.55-0.68-3.18-0.8-4.79C866.39,197.53,867.08,197.04,867.7,196.21z"/>
		<path d="M693.1,247.82c-0.7-2.94-1.38-5.79-2.25-9.39c0.95,0.74,1.67,1.03,1.95,1.55C694.28,242.74,694.37,246.5,693.1,247.82z"/>
		<path d="M769.27,399.94c0.61-1.37,1.05-2.65,1.75-3.77c0.31-0.5,1.15-0.68,1.75-1c0.22,0.56,0.62,1.12,0.63,1.68
			C773.41,398.53,770.97,400.43,769.27,399.94z"/>
		<path d="M729.93,481.95c2.4,0.28,5.49,2.82,6.33,5.67c-2.53-1.93-4.63-3.53-6.72-5.13C729.67,482.31,729.8,482.13,729.93,481.95z"
			/>
		<path d="M690.43,246.41c-3.08-2.56-4.68-5.04-4.25-7.44c1.75,2.64,3.25,4.88,4.74,7.12C690.76,246.2,690.6,246.31,690.43,246.41z"
			/>
		<path d="M553.08,433.4c-0.03-0.15-0.14-0.33-0.09-0.43c1.41-3.06,3.12-5.88,6.31-7.51c-1.28,1.6-2.56,3.2-3.84,4.81
			c-0.82,1.03-1.63,2.06-2.45,3.09C553.03,433.35,553.08,433.4,553.08,433.4z"/>
		<path d="M537.76,443.58c1.75-3.05,3.49-6.09,5.24-9.14c0.22,0.12,0.44,0.25,0.66,0.37c-1.78,3.03-3.56,6.06-5.34,9.09
			C538.14,443.79,537.95,443.69,537.76,443.58z"/>
		<path d="M563.96,437.54c1.45-2.09,2.91-4.19,4.36-6.28c0.25,0.16,0.49,0.33,0.74,0.49c-1.43,2.09-2.86,4.18-4.29,6.28
			C564.5,437.87,564.23,437.71,563.96,437.54z"/>
		<path d="M581.79,440.52c0.86-1.97,1.72-3.94,2.58-5.91c0.24,0.1,0.47,0.2,0.71,0.3c-0.85,1.97-1.7,3.94-2.55,5.91
			C582.29,440.72,582.04,440.62,581.79,440.52z"/>
		<path d="M543.6,433.79c0.93-1.44,1.87-2.87,2.8-4.31c0.23,0.15,0.47,0.3,0.7,0.45c-0.91,1.43-1.82,2.87-2.74,4.3
			C544.12,434.09,543.86,433.94,543.6,433.79z"/>
		<path d="M770.15,289.22c0.76,1.61,1.52,3.23,2.28,4.84c-0.2,0.1-0.41,0.19-0.61,0.29c-0.83-1.58-1.66-3.16-2.49-4.73
			C769.6,289.48,769.88,289.35,770.15,289.22z"/>
		<path class="vol2_4_st0" d="M530.92,591.88c-2.67,1.54-6.82,0.76-10.23-2.38c-0.12,0.76-0.21,1.32-0.37,2.25
			c-2.07-0.4-4.15-0.8-6.65-1.28c5.84-16.92,11.55-33.49,14.02-51.38c1.93,2.17,3.96,1.19,6.2,1.05c3.32-0.2,6.73,1.09,10.1,1.8
			c0.3,0.06,0.56,0.47,0.76,0.77c3.36,5.09,5.29,10.61,4.96,16.8c-0.4,7.45-0.35,14.97-1.32,22.35c-0.99,7.55-5.69,11.03-13.66,11
			C533.64,592.84,532.55,592.31,530.92,591.88z"/>
		<path class="vol2_4_st0" d="M544.83,535.27c-0.08,1.44-0.15,2.88-0.24,4.48c-4.38-0.93-8.64-1.84-13.08-2.79
			c0-7.84-0.19-15.93,2.81-23.74c-0.3-0.13-0.59-0.26-0.89-0.39c-0.57,0.81-1.54,1.57-1.64,2.43c-0.67,5.74-5.05,8.69-9.17,12.62
			c-2.59-3.47-5.1-6.82-7.57-10.13c5.06-5.68,9.92-11.15,14.82-16.66c3.15,3.21,6.51,2.59,9.88,1.62c2.93-0.84,5.83-1.81,8.79-2.53
			c0.69-0.17,1.76,0.22,2.33,0.72c5.7,4.98,10.91,10.39,14.47,17.18c0.52,0.99,1.03,2.08,1.84,2.81c1.54,1.39,1.19,2.63,0.22,4.1
			c-1.06,1.59-2.42,1.74-4.1,1.24c-0.56-0.17-1.21-0.11-1.81-0.06c-0.11,0.01-0.29,0.71-0.26,0.73c0.63,0.3,1.27,0.63,1.95,0.77
			c0.62,0.13,1.29,0.03,2.71,0.03c-1.83,2.34-3.25,4.16-4.71,6.03c-3.21-1.65-6.29-3.02-9.11-4.79c-0.91-0.57-1.14-2.21-1.99-4.03
			c-0.41,1.28-0.85,2.12-0.92,2.99c-0.27,3.13-0.39,6.27-0.61,9.4c-0.05,0.74-0.19,1.49-0.44,2.18c-0.11,0.3-0.66,0.7-0.91,0.64
			c-0.3-0.07-0.62-0.55-0.71-0.91c-0.32-1.31-0.54-2.65-0.8-3.97C545.4,535.24,545.12,535.26,544.83,535.27z"/>
		<path class="vol2_4_st0" d="M497.42,537.42c0.5,2.14,0.93,3.53,2.98,1.93c0.4-0.32,1.64,0.22,2.38,0.59c1.78,0.88,3.46,1.96,5.24,2.84
			c1.2,0.59,2.37,4.74,1.41,6.3c-2.58,4.17-5.29,8.25-8.05,12.31c-0.3,0.44-1.41,0.81-1.85,0.6c-4.12-1.93-8.18-3.98-12.24-6.02
			c-1.53-0.77-1.41-1.8-0.56-3.11c2.45-3.73,4.77-7.55,7.25-11.26C494.89,540.22,496.09,539.02,497.42,537.42z"/>
		<path class="vol2_4_st0" d="M536.71,485.95c1.68,0,3.42,0.19,5.1-0.05c2.2-0.31,3.32,0.44,4.12,2.54c1.04,2.73,2.49,5.3,3.84,8.09
			c-1.54,1.88-3.71,2.85-6.38,3.21c-1.88,0.25-3.65,1.28-5.52,1.71c-1.2,0.28-2.52,0.23-3.77,0.13c-2.77-0.23-3.26-1.28-2.19-3.77
			C533.59,493.86,535.13,489.85,536.71,485.95z"/>
		<path class="vol2_4_st0" d="M524.05,610.11c-3.29,3.96-6.02,8.04-11.42,7.45c-2.13-0.23-4.33-1.4-6.13-2.67
			c-1.53-1.07-2.63-2.83-3.71-4.43c-0.85-1.25-0.88-2.46,1.22-2.51c2.01-0.05,4.01-0.19,6.01-0.28c0.22-0.01,0.54-0.06,0.65,0.06
			c3.04,3.41,7.22,1.64,10.84,2.36C522.15,610.22,522.83,610.11,524.05,610.11z"/>
		<path class="vol2_4_st0" d="M520.13,527.64c-1.77,1.3-3.45,2.53-5.38,3.94c-2.15-3.64-5.1-3.01-8.24-1.09c-0.12-0.16-0.24-0.33-0.36-0.49
			c1.11-1.93,2.12-3.93,3.38-5.76c1.25-1.82,2.76-3.46,4.25-5.3C515.93,521.88,518.02,524.75,520.13,527.64z"/>
		<path class="vol2_4_st0" d="M568.67,527.45c1.71,0.33,3.86,0.16,4.51,2.41c1,3.45-0.13,7.39-2.21,8.38c-2.12,1.01-6.97-2.11-7.13-4.59
			C563.76,532.49,567.61,527.47,568.67,527.45z"/>
		<path class="vol2_4_st0" d="M534.58,612.28c2.45-1.11,4.66-0.99,6.83,0.12c2.21,1.14,2.56,3.67,0.75,5.32c-3.32,3.01-5.71,2.34-6.86-1.97
			C535.01,614.66,534.84,613.55,534.58,612.28z"/>
		<path class="vol2_4_st0" d="M510.32,542.14c-0.57-1.68-1.36-2.84-3.52-2.1c-0.61,0.21-1.68-0.75-2.47-1.27c-0.65-0.43-1.21-1.02-1.88-1.6
			c0.83-2.12,2.16-2.79,4.64-2.26c1.94,0.41,4.08-0.11,6.16-0.22C513.77,537.53,512.6,540.71,510.32,542.14z"/>
		<path class="vol2_4_st0" d="M537.22,609.89c-1.3,0.17-2.1,0.28-3.22,0.43c0-5.28,0-10.38,0-15.66c0.52-0.03,1.15-0.07,2.03-0.13
			c0.08,0.93,0.48,1.93,0.18,2.62C534.38,601.46,534.93,605.57,537.22,609.89z"/>
		<path class="vol2_4_st0" d="M521.15,442.37c1.46-4.71,2.92-9.41,4.38-14.12c0.27,0.09,0.55,0.17,0.82,0.26c-0.33,5.08-1.81,9.8-4.6,14.1
			C521.54,442.53,521.34,442.45,521.15,442.37z"/>
		<path class="vol2_4_st0" d="M506.76,532.69c2.14-1.46,3.82-1.9,5.92,0C510.63,532.69,508.95,532.69,506.76,532.69z"/>
		<path class="vol2_4_st0" d="M746.8,565.52c-3.99,2.27-7.61,4.29-12.07,3.86c-1.7-0.17-2.4-0.38-2.29-2.49c0.23-4.4,3.39-6.74,5.88-9.61
			c0.44-0.5,0.91-1,1.45-1.39c0.93-0.67,2.36-1.99,2.79-1.73c1.17,0.7,2.38,1.96,2.76,3.25C746.09,560.03,746.33,562.8,746.8,565.52
			z"/>
		<path class="vol2_4_st0" d="M465.17,520.1c-0.16,2.44-0.27,4.88-0.55,7.31c-0.04,0.34-0.9,0.58-1.38,0.86c-0.25-0.46-0.79-1-0.7-1.38
			c0.36-1.52,0.97-2.97,1.37-4.49c0.2-0.76,0.12-1.59,0.17-2.38C464.43,520.05,464.8,520.08,465.17,520.1z"/>
		<path class="vol2_4_st0" d="M543.9,274.91c-2.79-2.25-2.64-4.43,0.07-5.51c0.48-0.19,1.2-0.13,1.65,0.12c0.23,0.12,0.26,0.97,0.1,1.38
			C545.19,272.23,544.54,273.51,543.9,274.91z"/>
		<path class="vol2_4_st0" d="M611.15,254.41c0,1.76,0,3.15,0,5.26c-2.04-1.05-3.63-1.87-5.23-2.69c0.02-0.22,0.05-0.43,0.07-0.65
			C607.62,255.73,609.24,255.12,611.15,254.41z"/>
		<path class="vol2_4_st0" d="M739.81,338.88c-1.48,2.33-3.08,2.94-4.74,1.7c-0.55-0.41-0.75-1.29-1.11-1.96c0.76-0.33,1.56-0.99,2.28-0.91
			C737.44,337.85,738.6,338.46,739.81,338.88z"/>
		<path class="vol2_4_st0" d="M558.56,360.49c1.56,2.44,1.32,3.26-0.94,4.02C557.91,363.27,558.21,361.96,558.56,360.49z"/>
	</g>
</g>
</svg>
