<?xml version="1.0" encoding="utf-8"?>
<!-- Generator: Adobe Illustrator 26.3.1, SVG Export Plug-In . SVG Version: 6.00 Build 0)  -->
<svg version="1.1" xmlns="http://www.w3.org/2000/svg" xmlns:xlink="http://www.w3.org/1999/xlink" x="0px" y="0px"
	 viewBox="0 0 1366 768" style="enable-background:new 0 0 1366 768;" xml:space="preserve">
<style type="text/css">
	.vol2_3_st0{fill:#ffffff;}
	.vol2_3_st1{fill:none;stroke:#000000;stroke-width:394.0157;stroke-miterlimit:10;}
	.vol2_3_st2{fill:none;stroke:#000000;stroke-width:59.5276;stroke-miterlimit:10;}
	.vol2_3_st3{fill:none;stroke:#000000;stroke-width:70.8661;stroke-miterlimit:10;}
	.vol2_3_st4{fill:none;stroke:#000000;stroke-width:51.0236;stroke-miterlimit:10;}
	.vol2_3_st5{fill:none;stroke:#000000;stroke-width:45.3543;stroke-miterlimit:10;}
	.vol2_3_st6{fill:none;stroke:#000000;stroke-width:34.0157;stroke-miterlimit:10;}
</style>
<g id="base">
	<g>
		<path class="vol2_3_st0" d="M465,172c149.84,0,299.67,0,449.55,0c0,173.67,0,347.35,0,521.1c-149.82,0-299.69,0-449.55,0
			C465,519.43,465,345.72,465,172z M575.3,542.38c0.47,0.95,0.72,2.44,1.46,2.74c1.47,0.61,3.24,0.9,4.82,0.73
			c6.84-0.72,12.79-3.43,17.31-8.73c2.83-3.32,1.78-8.49-2.1-9.62c-3.43-1-7.11-1.25-10.35,0.99c-0.58,0.4-0.88,1.22-1.31,1.85
			c0.17,0.19,0.35,0.38,0.52,0.56c0.59-0.19,1.18-0.39,1.77-0.56c2.1-0.6,4.17-1.48,6.31-1.67c0.99-0.09,2.43,0.92,3.09,1.85
			c1.53,2.12,1.35,4.45-0.59,6.22c-2.12,1.93-4.38,3.92-6.94,5.11c-4.48,2.07-9.24,3.51-14.03,0.58c0.92-0.59,2.19-0.97,2.68-1.8
			c1.25-2.16,2.13-4.53,3.21-6.8c0.72-1.51,1.55-2.98,2.3-4.41c-12.27-9.35-12.04-9.52-15.67-23.65c4.1-0.42,7.87-1.68,11.08-4.36
			c1.41-1.18,2.78-2.47,4.37-3.36c5.61-3.13,8.66-8.6,11.94-13.63c2.88-4.42,3.72-9.87,3.63-15.14c-0.1-5.99-0.72-11.99-1.39-17.96
			c-0.22-1.98-0.34-3.39,2.13-3.86c-1.68,0.12-3.2,0.32-4.63,0.8c-0.66,0.22-1.43,0.87-1.66,1.51c-1.38,3.88-0.51,7.81,0.13,11.68
			c0.21,1.26,1.18,2.38,1.59,3.63c0.51,1.58,1.16,3.23,1.13,4.84c-0.13,6.28-2.37,11.88-5.75,17.14c-2.9,4.51-6.63,8.01-11.77,10.95
			c-1.17-3.04-2.27-5.9-3.37-8.76c0.32-0.24,0.65-0.49,0.97-0.73c1.57,1.21,3.17,2.39,4.72,3.64c1.3,1.06,2.44,1.28,3.87-0.81
			c-3.28-1.63-6.4-3.22-9.56-4.73c-2.22-1.06-3.11-0.57-2.41,1.77c1.12,3.75-0.08,8.47,4.86,11.03c-1.63,1.02-2.72,1.93-3.97,2.44
			c-7.63,3.13-15.31,2.98-22.94,0.02c-5.86-2.27-10.03-6.41-11.7-12.44c-1.61-5.81-2.53-11.8-3.7-17.72
			c-0.08-0.42,0.25-0.96,0.46-1.41c4.1-8.68,5.58-17.82,4.89-27.33c-1.78,0-3.55,0-5.32,0c0.01,0.11,0.03,0.23,0.04,0.34
			c0.64,0.24,1.28,0.48,2,0.75c-0.86,0.73-1.79,1.16-2.1,1.86c-0.85,1.94-1.86,3.96-2.04,6.02c-0.3,3.46-1.45,6.54-2.59,9.76
			c-1.74,4.93-5.05,8.82-7.51,13.26c-1.96,3.54-4.17,6.93-6.21,10.43c-0.25,0.42-0.12,1.06-0.17,1.59c0.21,0.1,0.42,0.21,0.63,0.31
			c2.75-2.13,3.8-5.6,5.87-8.26c2.09-2.69,4.08-5.47,6.35-8.53c-1.48,7.13-17.93,30.3-21.26,31.96c1.29,1.71,2.04,1.81,3.64-0.06
			c5.04-5.88,10.05-11.79,14.92-17.81c2.11-2.61,3.85-5.51,5.61-8.07c1.11,4.51,1.89,9.23,3.43,13.69
			c3.18,9.16,9.94,14.2,19.51,15.38c3.33,0.41,6.7,0.47,10.13,0.7c0.17,0.79,0.39,1.63,0.52,2.48c0.3,2.01,0.47,4.03,0.85,6.02
			c0.3,1.57-1.38,5.84-2.83,6.58c-0.39,0.2-1.01,0.18-1.45,0.03c-2.38-0.82-4.74-1.71-6.85-2.48c0.85-2.55,1.77-5.13,2.52-7.76
			c0.15-0.51-0.39-1.21-0.61-1.83c-0.6,0.49-1.8,1.13-1.72,1.44c0.69,2.66-1.59,4.02-2.38,6c-2.44,6.18-6.82,11.02-11.39,15.5
			c-2.68,2.64-5.36,5.16-7.1,8.46c-0.77,1.46-1.13,3.25-1.24,4.92c-0.14,2.13,1.16,3.07,3.33,3.31c3.61,0.39,6.66-1.2,9.8-2.51
			c1.98-0.82,3.91-1.77,5.55-2.51c1.05,2.57,1.86,4.56,2.69,6.6c-1.61,2.8-3.21,6.02-5.19,8.98c-3.71,5.54-7.63,10.93-11.47,16.38
			c-0.85,1.21-1.41,2.28,0.77,2.63c2.46,0.39,4.91,0.86,7.57,1.33c-0.59,2.4-1.04,4.8-1.79,7.09c-0.64,1.95-1.97,3.21-4.29,3.24
			c-1.16,0.02-2.39,0.43-3.42,0.98c-0.51,0.27-1.03,1.42-0.85,1.91c1.37,3.72,6.73,5.71,9.6,4.09c4.23-2.38,7.23-5.61,8.58-10.32
			c0.19-0.66,0.44-1.3,0.66-1.95c0.2,0.03,0.4,0.07,0.59,0.1c0,0.62-0.01,1.24,0,1.86c0.17,6.05,3.59,8.67,9.2,8.99
			c0.64,0.04,1.45-0.38,1.96-0.83c2.01-1.78,2-3,0.17-6.94c-3.7,0.5-4.79-0.28-5.09-3.94c-0.11-1.3,0.06-2.68,0.4-3.95
			c0.36-1.37,0.7-2.77,2.7-3.06c0.79-0.11,1.98-1.62,1.97-2.47c-0.14-6.97-0.49-13.93-0.88-20.89c-0.08-1.41-0.66-2.79-1.09-4.54
			c-2.15,4.62-1.1,8.97-0.78,13.33c0.28,3.86,0.25,7.76,0.16,11.64c-0.02,0.67-0.92,1.76-1.57,1.9c-2.91,0.61-5.86,0.99-8.81,1.37
			c-1.1,0.14-2.52,0.52-3.29,0.02c-1.28-0.83-2.15-0.26-3.3-0.06c-2.28,0.41-4.62,0.67-6.94-0.36c1.31-1.94,2.5-3.64,3.62-5.37
			c3.34-5.19,6.64-10.4,9.99-15.58c1.6-2.48,3.23-4.94,4.97-7.32c0.57-0.77,1.63-1.84,2.32-1.74c1.72,0.25,3.54,0.81,4.97,1.76
			c1.58,1.05,2.98,1.52,4.89,0.72c0.55-2.7,1.12-5.44,1.69-8.21c0.06-0.01,0.24-0.09,0.35-0.03
			C574.23,541.65,574.77,542.01,575.3,542.38z M778.06,597.47c0.4,1.06,0.78,2.02,1.12,2.99c2.06,5.82,5.94,8.59,11.71,8.35
			c2.46-0.1,4.93-0.1,7.38-0.36c1.71-0.18,3.6-0.36,5.03-1.19c4.64-2.69,8.57-6.06,8.67-12.09c0.06-3.74,0.25-7.49,0.15-11.22
			c-0.08-2.98-0.7-5.95-0.74-8.92c-0.04-2.91,2.09-5.02,4.86-5.17c5.55-0.3,11.05-0.02,16.44,1.48c5.77,1.61,6.64,3.82,2.81,8.51
			c-2.47,3.04-5.43,5.7-8.31,8.39c-2.61,2.44-5.47,4.62-8.12,7.02c-2.11,1.92-1.57,4.54,0.26,6.57c3.75,4.16,10.59,4.07,14.61,0.12
			c1.68-1.65,3.6-3.07,5.52-4.68c0.03,0.04,0.4,0.67,0.86,1.21c1.16,1.36,2.33,2.7,3.55,4c0.8,0.85,1.56,0.89,2.44-0.1
			c4.51-5.07,9.23-9.97,12.03-16.33c1.57-3.58,3.92-6.92,4.94-10.63c1.18-4.33,1.26-8.95,1.87-13.44c0.47-3.53,0.45-7.35,3.24-10
			c2.3-2.19,4.88-4.2,7.62-5.78c4.71-2.72,9.17-5.62,12.68-9.9c3.54-4.32,3.98-7.13,2.11-11.88c-2.06-5.22-9.34-9.17-15.35-4.02
			c-6.29,5.4-11.81,11.32-15.5,18.83c-0.32,0.66-1.25,1.39-1.93,1.43c-1.93,0.1-3.87-0.08-5.8-0.25c-6.33-0.56-12.65-1.29-18.99-1.7
			c-4.62-0.3-9.27-0.35-13.9-0.2c-5.73,0.19-11.46,0.64-17.18,1.14c-1.83,0.16-3.61,0.83-5.55,1.3c1.57-1.81,2.88-3.42,4.29-4.94
			c5.47-5.89,8.36-12.91,9.42-20.81c0.23-1.72,0.91-3.37,1.47-5.4c0.4,1.01,0.56,1.68,0.9,2.25c2.02,3.43,3.67,7.21,6.27,10.13
			c1.99,2.24,5.08,3.7,7.93,4.92c2.97,1.27,6.44,1.07,9.14-0.55c4.25-2.54,7.87-5.94,9.53-10.9c1.33-3.96,2.56-7.94,3.97-11.87
			c3.46-9.68,4.29-19.54,1.81-29.52c-2.33-9.38-8.04-16.01-17.02-19.73c-7.02-2.91-14.5-3.79-21.89-5.01
			c-3.07-0.5-6.23-0.5-9.35-0.65c-4.98-0.24-10-0.84-14.95-0.52c-6.91,0.44-13.83,1.33-20.65,2.53c-4.37,0.77-8.59,2.21-12.66,4.33
			c-2.56,1.34-4.44,4.61-8.08,3.67c-0.16-0.04-0.47,0.34-0.66,0.56c-4.33,4.92-8.85,9.7-12.94,14.82
			c-5.11,6.41-9.96,13.05-14.73,19.73c-1.71,2.38-3.63,5.02-4.11,7.78c-0.82,4.66-0.9,9.52-0.61,14.26
			c0.13,2.14,1.49,4.61,3.04,6.19c4.13,4.19,11.33,4.09,16.75,0.17c4.96-3.59,9.86-7.24,14.81-10.84c1.7-1.24,3.45-2.4,4.71-3.27
			c-1.11,5-2.37,10.34-3.46,15.7c-1.39,6.87-0.02,12.98,4.96,18.22c3.84,4.04,8.88,4.84,13.92,5.84c1.01,0.2,2.56,0.58,2.79,1.24
			c0.99,2.85,1.78,5.81,2.24,8.79c0.32,2.11-0.16,4.32-0.05,6.47c0.21,4.03,0.52,8.06,0.95,12.07c0.15,1.41-0.48,2.08-1.52,2.64
			c-2.42,1.29-4.78,2.73-7.29,3.83c-6.11,2.66-11.18,6.86-16.39,10.86c-0.34,0.26-0.74,0.57-0.9,0.95
			c-2.03,4.7,1.92,11.07,7.04,11.36c4.76,0.27,9.17-1.03,13.31-3.24C771.69,601.37,774.69,599.46,778.06,597.47z M826.49,436.76
			c2.83,0.14,3.42-0.19,3.48-1.61c0.25-5.21,0.39-10.44,0.75-15.64c0.53-7.65,1.17-15.29,1.84-22.93
			c0.72-8.19,1.63-16.36,2.27-24.56c0.51-6.55,0.77-13.13,1.05-19.69c0.21-4.83,0.33-9.66,0.42-14.49
			c0.1-5.38,0.04-10.76,0.21-16.13c0.16-5.13,0.41-10.27,0.82-15.39c0.32-3.93,1.16-7.83,1.39-11.76c0.22-3.77-0.29-7.58-0.04-11.34
			c0.66-9.78,1.41-19.55,2.42-29.3c1.31-12.61,3.08-25.18,4.31-37.8c0.74-7.5,1.03-15.06-0.44-22.57c-0.39-1.97-1.18-2.53-2.47-2.09
			c0.26,4.84,0.81,9.43,0.69,14c-0.15,6.2-0.62,12.4-1.3,18.57c-1.16,10.61-2.65,21.18-3.87,31.79c-0.7,6.09-1.25,12.2-1.64,18.31
			c-0.41,6.41-0.53,12.83-0.79,19.25c-0.1,2.42,0.11,4.94-0.46,7.25c-2.15,8.81-1.88,17.74-1.76,26.68c0.04,3.31,0.17,6.64,0,9.94
			c-0.28,5.39-0.9,10.77-1.14,16.16c-0.33,7.15-0.27,14.33-0.68,21.47c-0.38,6.66-1.14,13.3-1.76,19.94
			c-0.09,0.97-0.3,1.92-0.48,2.88c-0.31,1.73-0.79,3.45-0.94,5.2c-0.46,5.46-0.87,10.93-1.17,16.41
			C826.89,425.05,826.72,430.84,826.49,436.76z M725.39,193.16c-0.26-0.43-0.62-1.05-0.99-1.67c-0.64,0.48-1.36,0.89-1.88,1.48
			c-0.31,0.35-0.33,0.98-0.41,1.49c-1.36,8.47-2.79,16.93-4.03,25.42c-1.5,10.24-2.9,20.5-4.19,30.77
			c-0.52,4.14-0.62,8.33-0.93,12.5c-0.41,5.5-0.84,11-1.26,16.5c-0.44,5.74-0.83,11.48-1.34,17.22c-0.66,7.46-1.46,14.9-2.11,22.36
			c-0.31,3.49-0.29,7.01-0.66,10.49c-1.23,11.63-0.8,23.28-0.54,34.94c0.15,6.63,0.85,13.3-0.87,19.87c-0.15,0.57,0.42,1.33,0.66,2
			c0.68-0.54,1.86-1,1.96-1.64c0.62-3.65,1.32-7.34,1.36-11.03c0.14-10.15-0.06-20.3-0.08-30.45c-0.01-3.28,0.04-6.57,0.21-9.84
			c0.28-5.28,0.59-10.55,1.05-15.81c0.66-7.57,1.51-15.13,2.17-22.7c0.61-6.99,1.05-14,1.61-20.99c0.61-7.59,1.25-15.18,1.93-22.76
			c0.32-3.56,0.65-7.12,1.13-10.65c0.51-3.69,1.26-7.34,1.81-11.02c0.94-6.27,1.77-12.56,2.7-18.83
			C723.56,205.03,724.46,199.28,725.39,193.16z M778.19,193.04c-1.55,0.26-2.81,1.04-3.03,2.96c-0.72,6.46-1.28,12.94-2.15,19.38
			c-0.61,4.5-1.5,8.97-2.53,13.39c-1.12,4.78-2.86,9.44-3.76,14.25c-1.93,10.34-3.29,20.75-3.49,31.32
			c-0.14,7.38-0.9,14.75-1.36,22.13c-0.13,2.16-0.3,4.33-0.24,6.49c0.23,7.91,0.61,15.82,0.8,23.73c0.13,5.23,0.08,10.48,0.02,15.71
			c-0.13,10.62-0.26,21.24-0.53,31.86c-0.15,5.75-0.51,11.51-0.91,17.25c-0.39,5.74-0.81,11.48-1.47,17.19
			c-0.37,3.18-1.32,6.29-1.84,9.45c-0.1,0.6,0.5,1.78,0.99,1.92c1.3,0.36,1.23-0.77,1.34-1.7c0.25-2.06,0.63-4.11,0.94-6.17
			c0.67-4.49,1.54-8.97,1.95-13.48c0.47-5.2,0.48-10.44,0.78-15.66c0.32-5.5,0.94-11,1.06-16.5c0.15-7.32-0.13-14.65-0.09-21.98
			c0.04-7.1,0.28-14.21,0.39-21.31c0.2-12.79,0.23-25.59,0.62-38.38c0.27-8.89,0.89-17.77,1.62-26.63c0.36-4.37,1.31-8.7,2.04-13.04
			c0.54-3.23,0.82-6.56,1.82-9.65c2.41-7.41,4.32-14.9,5.07-22.66C776.86,206.4,777.52,199.88,778.19,193.04z M668.09,200.37
			c-0.11-0.02-0.22-0.05-0.33-0.07c-0.16-1.86-0.22-3.74-0.51-5.58c-0.23-1.5-1.69-2.17-2.6-1.25c-0.41,0.42-0.4,1.32-0.45,2.02
			c-0.34,5.58-0.44,11.18-1.02,16.73c-0.5,4.88-1.59,9.7-2.27,14.57c-0.32,2.28-0.28,4.61-0.38,6.92c-0.3,6.77-0.7,13.54-0.85,20.31
			c-0.12,5.28,0.22,10.56,0.08,15.84c-0.19,7.1-0.74,14.2-0.94,21.3c-0.17,5.89,0.1,11.79-0.12,17.67
			c-0.32,8.27-0.94,16.53-1.37,24.8c-0.13,2.54,0.11,5.1-0.18,7.61c-0.66,5.82-1.58,11.61-2.29,17.43c-0.09,0.7,0.47,1.48,0.74,2.23
			c0.57-0.66,1.54-1.27,1.64-2c1.03-7.22,2.13-14.44,2.78-21.7c0.75-8.41,1.15-16.85,1.53-25.29c0.34-7.68,0.45-15.37,0.65-23.05
			c0.27-10.29,0.54-20.58,0.8-30.87c0.07-2.99,0.02-5.98,0.16-8.96c0.27-5.74,0.59-11.48,0.98-17.21c0.26-3.8,0.53-7.6,1.03-11.37
			C666.04,213.75,667.1,207.06,668.09,200.37z M525.31,336.53c0.08-0.45,0.17-0.73,0.17-1.02c0.01-4.88-0.1-9.76,0.05-14.64
			c0.13-4.5,0.63-8.99,0.81-13.48c0.51-12.81,0.89-25.63,1.42-38.44c0.21-5.08,0.66-10.14,0.99-15.21
			c0.33-5.14,0.62-10.27,0.97-15.41c0.45-6.71,0.85-13.42,1.41-20.12c0.46-5.42,1.17-10.83,1.64-16.25
			c0.06-0.67-0.69-1.41-1.07-2.12c-0.53,0.66-1.45,1.27-1.54,1.99c-0.98,7.23-1.9,14.47-2.68,21.72
			c-0.72,6.67-1.38,13.36-1.85,20.06c-0.58,8.31-0.94,16.63-1.4,24.95c-0.64,11.63-1.28,23.25-1.94,34.88
			c-0.33,5.96-0.82,11.92-1,17.88c-0.13,4.22,0.06,8.45,0.29,12.66C521.7,336.19,523.41,336.51,525.31,336.53z M610.43,368.22
			c0.2,0.12,0.4,0.23,0.6,0.35c0.48-0.56,1.23-1.06,1.38-1.7c0.52-2.31,0.37-4.88,1.33-6.96c1.22-2.65,0.42-5.15,0.52-7.72
			c0.03-0.8-0.14-1.61-0.04-2.39c1.09-8.04,2.37-16.07,3.3-24.13c0.94-8.16,1.56-16.35,2.29-24.53c0.7-7.81,1.56-15.62,2-23.44
			c0.37-6.71,0.23-13.44,0.33-20.16c0.13-9.2,0.18-18.41,0.44-27.6c0.18-6.05,0.94-12.09,0.93-18.14c0-3.43-0.97-6.88-1.66-10.28
			c-0.09-0.46-1.14-0.72-1.75-1.07c-0.32,0.8-1.14,1.91-0.87,2.36c2.15,3.52,1.56,7.45,1.6,11.17c0.07,7.07-0.45,14.15-0.65,21.23
			c-0.13,4.55-0.12,9.1-0.16,13.66c-0.07,8.29,0.25,16.6-0.26,24.87c-0.65,10.5-1.89,20.97-3.01,31.44
			c-0.53,5.04-1.43,10.05-2.02,15.08c-1.03,8.83-1.89,17.68-2.95,26.51c-0.29,2.46,0.02,5.3-2.78,6.79
			c-0.09,0.05-0.08,0.28-0.12,0.42C611.24,358.5,610.47,363.41,610.43,368.22z M576.29,192.87c-1.69,2.16-1.81,4.03-1.63,6.03
			c0.1,1.08,0.04,2.2-0.11,3.28c-0.64,4.57-1.59,9.1-1.95,13.69c-0.35,4.46,0.04,8.98-0.17,13.46c-0.47,10.01-1.2,20-1.65,30.01
			c-0.24,5.31,0,10.64-0.19,15.95c-0.24,6.71-0.87,13.41-1.04,20.12c-0.2,8.08,0.21,16.19-0.18,24.26
			c-0.75,15.67,0.05,31.22,2.63,46.68c0.11,0.64,1.12,1.14,1.71,1.7c0.34-0.6,1.03-1.24,0.97-1.8c-0.36-3.71-0.95-7.4-1.32-11.11
			c-0.63-6.38-1.45-12.77-1.63-19.17c-0.18-6.25,0.46-12.51,0.54-18.77c0.14-11.74,0.09-23.48,0.23-35.21
			c0.04-3.13,0.56-6.25,0.65-9.38c0.18-6.13,0.18-12.26,0.33-18.39c0.24-9.57,0.62-19.14,0.8-28.71c0.14-7.25-0.31-14.55,1.75-21.62
			C577.01,200.43,576.99,197.03,576.29,192.87z M699.1,226.43c6.63-0.74,11.75-8.87,10.3-15.03c-0.62-2.64-2.04-4.44-4.57-5.36
			c-3.36-1.21-6.47-0.6-9.35,1.37c-1.99,1.36-3.91,2.84-5.86,4.27c0.19-1.25,0.7-2.2,1.31-3.07c0.86-1.22,1.9-2.33,2.65-3.61
			c0.31-0.53,0.07-1.38,0.08-2.08c-0.61,0.04-1.26-0.04-1.81,0.15c-1.28,0.44-2.5,1.02-4.39,1.81c0.55-4.01,1-7.31,1.48-10.79
			c-2.61,1.44-3.84,3.5-3.68,6.01c0.31,4.94-1.71,8.07-6.41,9.57c-1.33,0.43-1.62,1.38-0.69,3.03c2.21-1.14,4.37-2.26,6.65-3.44
			c-1.03,5.64-4.72,9.36-8.17,13.26c3.74,3.36,4.5-1.97,7.29-2.23c0,4.82,0,9.6,0,14.5c1.43-0.06,2.5-0.11,3.39-0.15
			c0-5.17-0.05-10.02,0.04-14.87c0.02-1.12,0.15-2.58,0.84-3.28c3.23-3.31,6.76-6.34,11.12-8.09c2.31-0.93,4.67-1,6.72,0.83
			c1.87,1.66,1.49,3.78,1.15,5.85c-0.56,3.43-2.65,5.94-5.11,8.22C701.02,224.28,700.09,225.38,699.1,226.43z M511.03,299.88
			c0.14,0.05,0.28,0.1,0.43,0.15c0.72-1.08,1.25-2.4,2.22-3.18c1.13-0.91,1.19-1.85,0.38-2.59c-0.47-0.43-1.73-0.42-2.42-0.11
			c-0.91,0.41-1.62,1.29-2.41,1.97c-0.25-1.07,0.01-1.75,0.11-2.46c0.18-1.22,0.32-2.45,0.35-3.68c0.01-0.31-0.47-0.9-0.71-0.89
			c-0.44,0.01-1.16,0.26-1.28,0.59c-0.94,2.48-2.07,4.96-2.5,7.54c-0.26,1.59-0.75,2.58-2,3.44c-1.06,0.72-1.99,1.63-2.99,2.46
			c1.59,1.68,2.94,1.72,4.34,0.2c0.16,0.23,0.32,0.45,0.48,0.68c-3.41,3.52-6.81,7.05-10.6,10.96c5.18,1.22,6.7-2.77,9.48-5.01
			c-0.46,2.66-0.86,4.99-1.26,7.29c3.19,1.02,4.2,0.36,4.49-2.65c0.18-1.92,0.82-3.85,0.69-5.74c-0.19-2.9,1.09-4.63,3.47-5.89
			c1.27-0.67,2.4-1.68,3.73-2.13c0.91-0.31,2.35-0.28,3.04,0.26c1.45,1.14,1.69,5.27,0.76,7.07c-3.79-1.46-5.42-1.35-6.64,0.46
			c-0.9,1.34-0.57,4.04,0.84,5.14c2.22,1.73,4.01,0.27,5.79-1.17c0.4,0.5,0.73,0.92,1.34,1.71c0.28-0.9,0.52-1.41,0.58-1.93
			c0.2-1.92,0.58-3.86,0.41-5.76c-0.2-2.25-0.64-4.55-1.46-6.64c-0.83-2.13-2.71-2.62-4.86-1.68
			C513.56,298.82,512.29,299.34,511.03,299.88z M883.37,242.31c-0.33-0.12-0.65-0.25-0.98-0.37c-0.39,0.88-1,1.73-1.14,2.65
			c-0.86,5.75-3.46,8.5-9.04,9.2c-0.64,0.08-1.81-0.37-1.99-0.84c-1.01-2.79-1.8-5.66-2.72-8.68c-0.61,0.18-1.63,0.47-2.86,0.82
			c1.28,3.79,2.48,7.35,3.71,11.02c-3.79,1.48-6.03,4.21-6.44,8.05c-0.14,1.35,0.45,3.54,1.4,4.05c1.13,0.61,3.06-0.01,4.55-0.42
			c0.78-0.21,1.38-1.11,2.06-1.69c0.76-0.66,1.44-1.75,2.58-0.42c0.04,0.05,1.44-0.85,1.39-0.98c-0.69-1.71,0.41-2.62,1.38-3.69
			c0.9-0.99,1.78-2.04,2.48-3.18c2.12-3.46,5.57-4.96,9.43-3.97c2.65,0.68,4.04,2.42,4,5.18c-0.06,3.6-1.62,6.61-3.79,9.38
			c-0.95,1.22-1.79,2.52-3.02,4.26c5.41-2.31,9.82-10.77,8.77-15.76c-0.47-2.22-1.55-3.96-3.83-4.49c-2.56-0.59-5.18-0.92-7.78-1.37
			C881.98,248.39,884.87,245.75,883.37,242.31z M791.16,253.68c0.68,1.09,1.06,1.69,1.46,2.32c3.46-1.03,6.8-2.03,10.22-3.05
			c0.53,1.75,0.96,3.4,1.53,5.01c0.49,1.39,0.02,1.99-1.32,2.47c-2.09,0.76-4.13,1.71-6.13,2.7c-0.64,0.32-1.09,1.04-1.62,1.58
			c0.15,0.21,0.31,0.42,0.46,0.62c3.04-0.96,6.08-1.92,9.36-2.95c0,2.09-0.02,3.65,0.01,5.2c0.04,2.17-0.75,3.46-3.03,4.19
			c-2.18,0.71-3.76,2.53-3.88,5.01c-0.04,0.79,0.49,1.97,1.12,2.35c0.73,0.44,2.27,0.61,2.76,0.16c1.59-1.49,2.84-3.34,4.26-5.02
			c0.49-0.57,1.15-1.53,1.64-1.48c2.51,0.29,5.1,0.54,7.43,1.43c1.9,0.72,2.88,0.58,3.68-1.47c-3.7-2.01-7.72-2.13-11.72-2.3
			c0-2.2,0.12-4.29-0.03-6.35c-0.15-1.97,0.67-2.62,2.53-2.81c1.76-0.17,3.51-0.67,5.2-1.22c0.48-0.16,0.75-0.98,1.11-1.5
			c-0.58-0.19-1.18-0.61-1.72-0.54c-2,0.28-3.96,0.79-5.95,1.07c-0.51,0.07-1.49-0.25-1.59-0.6c-0.65-2.1-1.11-4.26-1.65-6.49
			c2.64-0.76,5.22-1.41,7.72-2.29c0.61-0.21,0.96-1.17,1.43-1.79c-0.68-0.23-1.43-0.78-2.02-0.63c-2.03,0.49-4,1.22-5.99,1.84
			c-1.18,0.37-2.18,0.61-2.97-0.9c-0.63-1.2-1.74-2.26-3.37-1.26c0.49,1.21,0.95,2.34,1.5,3.68
			C797.96,251.72,794.68,252.67,791.16,253.68z M554.07,255.76c0,2.21,0,4.11,0,6.14c-1.06,0.15-1.94,0.24-2.8,0.4
			c-1.71,0.33-2.9,1.24-2.99,3.1c-0.06,1.34-0.64,2.8,1.25,3.62c1.8,0.78,3.28,0.78,4.59-0.8c0.96-1.16,1.94-2.3,2.96-3.51
			c2.66,0.9,5.49,1.85,8.32,2.81c0.14-0.25,0.28-0.49,0.43-0.74c-0.43-0.47-0.79-1.08-1.32-1.39c-0.83-0.49-1.78-0.79-2.68-1.16
			c-2.72-1.11-6.37-1.46-4.86-6c0.02-0.06-0.04-0.14-0.05-0.22c-0.52-3.73-0.51-3.7,3.07-5.33c1.24-0.57,2.39-1.34,3.58-2.03
			c-0.14-0.31-0.28-0.61-0.41-0.92c-2.6-0.49-4.74,0.89-6.98,2.33c-0.72-1.84-1.45-3.52-2.01-5.27c-0.13-0.39,0.23-1.27,0.58-1.42
			c1.55-0.68,3.19-1.12,4.76-1.76c0.56-0.23,0.98-0.8,1.46-1.21c-0.58-0.43-1.15-1.21-1.73-1.22c-1.4-0.01-2.87,0.15-4.2,0.58
			c-1.71,0.55-2.84,0.09-3.89-1.25c-0.53-0.68-1.36-1.12-2.06-1.67c-0.23,0.18-0.45,0.36-0.68,0.54c0.34,0.72,0.59,1.5,1.03,2.15
			c0.86,1.25,0.79,2.2-0.66,2.87c-1.82,0.85-3.65,1.69-5.46,2.57c-0.41,0.2-1.05,0.58-1.05,0.86c0.01,0.41,0.45,1.02,0.83,1.14
			c0.63,0.21,1.43,0.29,2.05,0.09c2.15-0.73,4.24-1.6,6.46-2.46c0.56,1.33,1.05,2.34,1.4,3.39c0.97,2.95,0.87,3.03-2.03,4.32
			c-1.84,0.81-3.62,1.76-5.37,2.75c-0.43,0.24-0.65,0.85-0.97,1.28c0.59,0.16,1.27,0.6,1.74,0.44c1.9-0.66,3.72-1.52,5.58-2.29
			C552.61,256.25,553.28,256.04,554.07,255.76z M560.62,196.46c-0.36-0.14-0.72-0.28-1.08-0.42c-0.42,0.58-1,1.1-1.22,1.74
			c-0.45,1.34-0.55,2.81-1.11,4.09c-0.38,0.88-1.17,1.98-1.99,2.2c-4.31,1.17-7.29,4.22-10.45,7.02c-1.36,1.2-1.19,2.24,0.41,3.13
			c3.23-2.47,5.48-6.21,10.23-7.26c-0.54,1.76-1.29,3.13-1.33,4.53c-0.1,3.09-3.65,6.37-0.09,8.81c0,2.44-0.24,4.44,0.1,6.33
			c0.17,0.93,1.25,1.98,2.18,2.4c0.57,0.26,1.82-0.38,2.43-0.96c1.4-1.33,2.63-2.85,3.88-4.33c3.19-3.8,4.84-8.13,4.53-13.16
			c-0.24-3.99-1.83-5.82-5.7-6.35c-0.64-0.09-1.28-0.19-1.93-0.3C559.88,201.33,560.25,198.89,560.62,196.46z M797.74,313.84
			c1.22-0.16,1.94-0.08,2.04-0.29c1.7-3.5,3.32-7.03,5.1-10.86c0.65,0.54,1.47,0.95,1.93,1.62c2.33,3.4,2.85,7.27,0.94,10.8
			c-1.92,3.56-4.69,6.66-7.52,10.55c-0.9-2.76-1.62-4.99-2.31-7.09c-1.03,1.86-0.69,7.05,0.67,8.67c1.03,1.23,2.25,1.16,3.31-0.24
			c2.61-3.44,5.24-6.87,7.79-10.35c2.5-3.41,2.62-8.63,0.16-12.19c-1.19-1.72-3.3-3.01-3.92-4.85c-0.67-2.01-0.04-4.43-0.12-6.67
			c-0.02-0.6-0.53-1.18-0.81-1.77c-0.44,0.6-1.15,1.15-1.28,1.82c-0.34,1.68-0.49,3.4-0.59,5.12c-0.07,1.15-0.52,1.44-1.65,1.53
			c-4.13,0.33-7.74,2.16-11.18,4.29c-0.49,0.3-0.64,1.15-0.95,1.75c0.67,0.2,1.39,0.64,2.01,0.53c0.77-0.13,1.42-0.8,2.18-1.1
			c2.5-0.98,5.02-1.89,7.54-2.82c0.15,0.23,0.31,0.46,0.46,0.7C800.33,306.43,799.13,309.88,797.74,313.84z M598.77,334.28
			c0.97-0.5,1.86-0.76,2.49-1.32c5.39-4.79,6.41-10.88,4.71-17.53c-0.34-1.32-1.61-2.89-2.83-3.38c-2.44-0.97-5.23-1.05-7.73-1.91
			c-2.15-0.74-3.36-0.7-5.3,1.09c-2.23,2.06-4.09,3.82-5.18,6.84c-1.74,4.83-0.96,8.71,2.46,12.28c2.02,2.11,3.83,1.91,5.1-0.66
			c2.38-4.83,3.41-9.89,2.46-15.29c-0.1-0.59,0.5-1.84,0.92-1.91c2.81-0.45,7.37,2.4,7.98,5.15c0.72,3.21,1.17,6.54-0.65,9.61
			C601.87,329.51,600.41,331.69,598.77,334.28z M649.34,213.52c0.68,0.85,1.05,1.55,1.61,1.93c0.37,0.25,1.2,0.26,1.54,0
			c0.33-0.25,0.59-1.23,0.39-1.46c-2.26-2.53-2.45-5.61-2.65-8.76c-0.04-0.72-0.99-1.38-1.51-2.07c-0.42,0.64-1.15,1.24-1.22,1.92
			c-0.38,3.34-0.57,6.7-0.87,10.05c-0.32,3.56-2.3,5.93-5.51,7.3c-2.19,0.93-3.37,0.08-3.09-2.3c0.26-2.29,0.78-4.54,1.18-6.81
			c0.56-3.16,1.24-6.31,1.62-9.5c0.28-2.31-0.38-2.78-2.31-1.67c-2.57,1.47-4.99,3.2-7.44,4.86c-1.27,0.86-2.47,1.81-3.77,2.76
			c0.63,1.05,1.11,1.85,1.6,2.67c3.17-2.31,6.11-4.45,9.41-6.85c-0.73,3.79-1.5,7.06-1.96,10.36c-0.33,2.33-0.44,4.73-0.32,7.09
			c0.1,2.03,1.64,3.22,3.57,2.68c1.79-0.5,3.57-1.4,5.07-2.5C647.75,220.96,648.94,217.59,649.34,213.52z M876.56,290.75
			c-0.2-0.22-0.39-0.44-0.59-0.66c-5.81,1.3-10.17,5.71-15.8,7.86c-0.88-1.37-1.6-2.68-2.5-3.83c-0.47-0.59-1.28-0.92-1.94-1.36
			c0.02,0.92-0.18,1.92,0.11,2.74c1.1,3.13,2.35,6.21,3.58,9.3c0.46,1.15-0.15,1.61-0.96,2.35c-1.62,1.48-3.18,3.11-4.32,4.96
			c-0.49,0.79-0.17,3.09,0.34,3.28c1.13,0.44,3.06,0.49,3.83-0.21c1.4-1.27,2.55-3.09,3.15-4.9c0.62-1.88,1.46-2.3,3.08-1.62
			c3.35,1.39,6.71,2.77,9.99,4.31c1.4,0.66,2.6,1.54,4.03-0.21c-0.49-0.51-0.88-1.06-1.4-1.44c-3.56-2.6-7.61-4.45-11.9-4.78
			c-2.89-0.22-3.53-1.32-3.63-3.66c-0.02-0.44-0.36-0.9-0.28-1.29c0.14-0.64,0.33-1.53,0.79-1.8c4.18-2.43,8.45-4.71,12.64-7.13
			C875.5,292.25,875.97,291.4,876.56,290.75z M516.18,207.61c-0.51,0-0.92-0.12-1.22,0.02c-5.55,2.53-11.11,5.07-16.61,7.7
			c-0.35,0.17-0.62,1.25-0.41,1.61c0.23,0.39,1.14,0.71,1.6,0.57c1.13-0.34,2.18-0.96,3.26-1.48c2.85-1.39,5.69-2.79,8.98-4.4
			c-2.85,4.04-6.26,7.1-7.2,11.67c-0.16,0.8-0.31,1.63-0.63,2.38c-1.77,4.19,0.65,8.67,5.23,9.6c1.24,0.25,2.5,0.46,3.75,0.62
			c4.01,0.52,7.42-0.54,9.9-4.03c-0.93-0.03-1.82,0.14-2.67,0.41c-1.76,0.56-3.47,1.42-5.27,1.7c-5.16,0.8-8.72-2.99-7.77-8.01
			c0.88-4.65,3.01-8.56,6.27-12.01C514.96,212.28,517.15,210.59,516.18,207.61z M870.66,196.45c0.77-2.84,1.53-5.46,2.17-8.11
			c0.15-0.62-0.1-1.33-0.17-1.99c-0.62,0.39-1.57,0.65-1.8,1.2c-1.21,2.87-2.14,5.87-3.37,8.73c-0.44,1.03-1.41,1.87-2.23,2.7
			c-0.85,0.86-1.82,1.62-2.74,2.42c0.15,0.23,0.3,0.46,0.45,0.69c1.13-0.29,2.25-0.59,3.5-0.91c-2.4,7.79-4.6,15.32-5.22,23.37
			c1.78-0.03,3.03-0.18,3.44-2.03c1.56-7.03,3.12-14.07,4.88-21.05c0.29-1.17,1.38-2.43,2.44-3.06c2.04-1.2,4.36-1.91,6.49-2.98
			c0.67-0.34,1.07-1.19,1.6-1.81c-0.72,0.02-1.5-0.14-2.15,0.08C875.63,194.49,873.37,195.41,870.66,196.45z M592.25,337.67
			c-0.26,0.23-0.53,0.47-0.79,0.7c-0.05,0.21-0.17,0.43-0.14,0.62c0.07,0.36,0.15,0.76,0.35,1.05c1.96,2.7,1.69,5.95,2.27,8.99
			c0.26,1.39,0.33,2.43-1.85,2.56c-3.78,0.22-5.3,1.65-5.44,4.43c-0.06,1.32,0.18,2.69,0.54,3.97c0.42,1.5,2.74,2.73,3.69,2.03
			c1.87-1.4,3.34-3.14,3.86-5.51c0.42-1.94,0.96-2.17,2.65-1.14c2.04,1.24,4.05,2.52,6.14,3.65c1.52,0.83,3.06,0.96,4.66-1.03
			c-3.66-1.73-7.07-3.33-10.45-4.98c-0.66-0.32-1.7-0.84-1.73-1.32c-0.16-2.93-0.08-5.88-0.08-9.12c2.8-0.73,5.98-1.5,9.12-2.41
			c0.62-0.18,1.09-0.85,1.63-1.3c-0.62-0.36-1.33-1.13-1.85-1.02c-3.54,0.76-7.03,1.7-10.23,2.5
			C593.79,339.42,593.02,338.54,592.25,337.67z M519.25,247.6c-0.03-0.25-0.06-0.49-0.08-0.74c-1.21,0-2.52-0.29-3.63,0.06
			c-2.66,0.85-5.2,2.05-7.83,3c-1.89,0.68-3.86,1.13-5.76,1.8c-0.46,0.16-1.05,0.76-1.06,1.17c-0.01,0.39,0.65,1.11,1.04,1.13
			c0.99,0.05,2.05-0.07,2.99-0.39c2.33-0.79,4.61-1.73,6.91-2.61c-0.94,2.19-2.25,3.81-3.37,5.54c-1,1.54-2.41,3.15-2.58,4.84
			c-0.87,8.59,4.55,12.6,12.5,12.98c0.61,0.03,1.26-0.65,1.56-0.81c-2.61-1.14-5.15-1.95-7.37-3.3c-3.1-1.89-4.39-8.36-2.39-11.26
			c1.54-2.23,3.3-4.31,5-6.44C516.52,250.9,517.9,249.25,519.25,247.6z M750.15,224.51c-1.83,0.46-4.2,1.02-6.54,1.67
			c-1.19,0.33-2.46,0.75-2.06,2.81c3.75-0.86,7.35-1.69,10.96-2.5c1.09-0.24,2.23-0.32,3.26-0.7c0.53-0.19,0.87-0.89,1.29-1.36
			c-0.55-0.23-1.09-0.64-1.64-0.64c-1.3-0.01-2.6,0.18-3.67,0.27c1.4-8.61,2.9-17.07,3.02-26.33c-5.7,2.08-10.68,3.85-15.6,5.77
			c-0.6,0.23-0.84,1.37-1.25,2.09c0.22,0.18,0.44,0.35,0.66,0.53c4.47-1.66,8.94-3.31,13.82-5.12c-0.08,1.54-0.03,2.43-0.18,3.28
			c-0.97,5.65-2.03,11.29-2.91,16.95C749.18,222.15,749.8,223.19,750.15,224.51z M679.54,329.39c-1.15,2.02-2.35,4.06-3.5,6.12
			c-2.18,3.9,0.21,8.55,4.6,8.15c3.86-0.35,7.63-1.76,11.41-2.8c0.56-0.15,0.96-0.89,1.43-1.36c-1.08-0.26-1.85-0.08-2.63,0.1
			c-3.75,0.85-7.44,2.29-11.35,0.4c-1.16-0.56-1.89-1.26-1.53-2.29c0.75-2.12,1.54-4.33,2.84-6.13c2.43-3.38,5.27-6.46,7.87-9.72
			c0.92-1.16,2.07-2.37,0.96-4.48c-0.69,0.75-1.23,1.29-1.72,1.88c-1.98,2.43-3.9,4.91-5.94,7.29c-0.37,0.43-1.5,0.82-1.78,0.6
			c-2.02-1.6-3.88-3.41-5.87-5.06c-0.63-0.52-1.5-0.75-2.26-1.12c-0.06,0.98-0.57,2.35-0.11,2.88
			C674.07,326.28,676.14,328.9,679.54,329.39z M727.41,298.16c0.09,0.3,0.17,0.6,0.26,0.9c1.5-0.25,3.04-0.35,4.49-0.78
			c3.12-0.93,6.18-2.1,9.3-3.05c1.19-0.36,2.83-0.69,2.74,1.36c-0.19,4.33-1.77,8.15-4.61,11.35c-0.44-1.03-0.68-2.09-1.28-2.87
			c-0.61-0.81-1.57-1.36-2.37-2.02c-0.17,0.99-0.4,1.97-0.5,2.97c-0.04,0.42,0.11,0.88,0.26,1.29c1.23,3.49,2.07,7.02,0.86,10.69
			c-0.33,1.01-0.76,1.98-1.36,3.53c0.9-0.45,1.51-0.55,1.66-0.87c0.83-1.72,1.53-3.5,2.3-5.25c1.17-2.69,1.39-5.68,3.45-8.11
			c2.71-3.2,4.03-7.12,3.95-11.38c-0.05-2.92-1.67-4.22-4.11-3.41c-4.43,1.48-8.86,2.98-13.27,4.53
			C728.52,297.28,727.99,297.78,727.41,298.16z M798.72,392.75c0.23,0.14,0.46,0.27,0.69,0.41c0.59-0.54,1.22-1.03,1.75-1.62
			c3.15-3.47,4.03-7.63,3.85-12.19c-0.15-3.63-2.34-5.76-5.94-5.17c-3.05,0.5-6.04,1.37-9.23,2.12c0.19-0.56,0.41-1.01,0.51-1.49
			c0.82-4.15,1.66-8.29,2.39-12.46c0.09-0.52-0.37-1.13-0.58-1.7c-0.55,0.42-1.17,0.77-1.62,1.27c-0.27,0.3-0.4,0.83-0.42,1.26
			c-0.17,3.66-0.85,7.17-2.28,10.58c-0.68,1.61-0.82,3.45-1.3,5.65c1.22-0.25,1.79-0.33,2.33-0.49c2.93-0.86,5.85-1.79,8.79-2.6
			c2.13-0.59,3.39,0.23,4.03,2.36c1.28,4.28-0.09,8.07-2.04,11.79C799.27,391.19,799.03,391.99,798.72,392.75z M690.61,239.28
			c-1.32-0.29-2.3-0.58-2.66,0.97c-0.85,3.73-1.96,7.23-6.57,7.95c-0.41,0.06-0.65,1.23-0.97,1.88c0.7,0.19,1.44,0.6,2.1,0.5
			c0.76-0.11,1.46-0.67,2.22-1.06c-0.25,5.53-2.92,10.39-2.6,15.85c2.27-0.02,3.14-0.93,3.13-2.9c-0.01-1.09,0.24-2.2,0.47-3.28
			c0.55-2.52,1.28-5.01,1.73-7.55c0.5-2.85,2.08-4.61,4.72-5.64c2.15-0.83,4.26-1.76,6.33-2.77c0.54-0.26,0.85-0.99,1.27-1.5
			c-0.69-0.25-1.37-0.57-2.09-0.7c-0.29-0.05-0.65,0.32-0.99,0.47c-2.16,0.94-4.32,1.87-6.79,2.94
			C690.17,242.59,690.38,241.07,690.61,239.28z M553.25,280.56c-0.21-0.21-0.41-0.42-0.62-0.63c-0.74,0.48-1.8,0.78-2.16,1.46
			c-2.87,5.37-5.6,10.81-8.38,16.23c-0.54,1.05-1.14,2.28,0.45,2.74c1.25,0.36,2.32-0.09,2.82-1.72c0.66-2.16,1.75-4.19,2.9-6.86
			c2.12,2.48,3.89,4.38,5.48,6.43c1.95,2.52,2.6,2.96,5.43,1.64c2.18-1.02,4.12-2.58,6.13-3.96c1.48-1.02,2.25-2.39,1.88-4.23
			c-2.48,1.96-4.89,3.79-7.21,5.73c-1.88,1.57-3.09,0.83-4.41-0.82c-1.87-2.34-3.95-4.52-6.19-7.06
			C550.49,286.92,551.87,283.74,553.25,280.56z M750.58,339.8c-1.55,0.43-2.65,0.73-3.75,1.05c-1.63,0.49-3.13,0.83-3.27-1.69
			c-0.02-0.39-0.67-0.75-1.03-1.13c-0.19,0.49-0.66,1.09-0.52,1.45c0.69,1.73-0.32,2.28-1.64,2.75c-1.06,0.38-2.15,0.7-3.12,1.24
			c-0.48,0.27-0.7,0.97-1.04,1.48c0.53,0.16,1.12,0.55,1.58,0.43c1.62-0.4,3.2-0.98,4.7-1.46c0.41,2.22,0.79,4.32,1.21,6.57
			c-0.85,0.1-1.58,0.17-2.31,0.27c-1.43,0.2-3.58,2.61-3.08,4.05c0.36,1.04,1.78,2.13,2.92,2.41c2.36,0.59,4.46-0.15,5.37-2.96
			c1.74,1.14,3.11,2.15,4.6,2.95c0.47,0.25,1.24-0.07,1.88-0.12c-0.16-0.69-0.08-1.68-0.52-2.01c-1.15-0.88-2.55-1.43-3.78-2.22
			c-1.01-0.64-2.45-1.25-2.78-2.19c-0.75-2.13-0.93-4.45-1.32-6.6C746.64,342.66,750.17,344.17,750.58,339.8z M698.46,297.05
			c-0.27-0.21-0.54-0.43-0.8-0.64c-0.2,0.4-0.38,0.81-0.6,1.19c-1.92,3.4-4.99,5.35-8.34,7.2c-4.19,2.31-6.51-0.65-6.79-3.91
			c-0.4-4.54-0.36-9,1.83-13.21c0.92-1.77,1.54-3.7,2.15-5.6c0.1-0.32-0.49-0.87-0.77-1.32c-0.4,0.25-0.97,0.4-1.16,0.75
			c-0.85,1.63-1.55,3.33-2.37,4.97c-2.96,5.96-3.25,12.16-1.56,18.49c0.7,2.62,3.47,3.95,5.96,2.87c2.46-1.06,4.95-2.13,7.2-3.55
			C695.89,302.62,697.89,300.26,698.46,297.05z M640.74,324.64c-0.43-0.22-0.87-0.43-1.3-0.65c-4.14,7.27-8.28,14.54-12.42,21.81
			c0.35,0.24,0.7,0.47,1.06,0.71c3.55-2.1,3.56-6.99,6.7-9.81c1.27,2.68,2.39,5.09,3.53,7.48c0.92,1.93,2.19,3.27,4.61,3.1
			c3.1-0.23,7.54-4.48,7.67-7.64c0.05-1.21-0.26-2.43-0.41-3.65c-0.22,0.02-0.45,0.03-0.67,0.05c-0.43,1.93-0.75,3.89-1.31,5.78
			c-0.71,2.37-4.29,3.92-5.71,2.46c-1.11-1.14-1.86-2.62-2.72-3.99c-1.24-1.95-2.43-3.94-3.94-6.4
			C637.21,331.27,638.98,327.96,640.74,324.64z M745.62,250.29c0,2.85,0.21,5.09-0.05,7.27c-0.46,3.91-1.58,7.78-1.72,11.69
			c-0.11,3-1.65,3.21-3.86,3.53c-1.67,0.24-3.28,0.93-4.87,1.56c-0.44,0.17-0.68,0.82-1.39,1.73c4.49-0.7,8.31-1.22,12.08-1.94
			c0.7-0.13,1.23-1.11,1.85-1.7c-0.15-0.17-0.3-0.33-0.46-0.5c-0.68-0.03-1.35-0.07-1.61-0.08c2.08-7.68,2.87-15.3,1.85-23.21
			c-4.4-0.56-7.44,2.33-11.04,3.67c0.25,2.07,1.4,1.48,2.42,1.04C740.93,252.42,743.01,251.46,745.62,250.29z M559.99,326.41
			c-0.27,0.53-0.41,0.84-0.58,1.14c-2.72,4.79-6.89,7-11.55,6.31c-1.47-0.22-2.18-0.95-2.31-2.24c-0.19-1.92-0.33-3.86-0.27-5.78
			c0.12-3.92,0.45-7.84,0.54-11.76c0.01-0.59-0.83-1.2-1.27-1.8c-0.52,0.68-1.38,1.3-1.49,2.04c-0.26,1.74-0.19,3.53-0.2,5.3
			c-0.03,4.18-1.43,8.34-0.32,12.52c0.28,1.06,0.88,2.47,1.73,2.87c4.58,2.19,12.46-0.1,15.37-4.28
			C560.48,329.49,561.07,328.15,559.99,326.41z M590.18,438.35c-4.27,0.2-6.71,4.54-10.85,6.18c0.58-1.24,1.02-2.19,1.47-3.14
			c-4.91,5.21-5.34,11.71-5.72,18.24c-1.31,0.11-2.82,0.23-4.33,0.35c-0.03,0.3-0.06,0.61-0.08,0.91c1.12,0.47,2.26,0.9,3.35,1.44
			c0.53,0.27,1,0.71,1.41,1.14c0.4,0.41,0.7,0.92,1.04,1.39c0.25-0.54,0.49-1.07,0.75-1.64c2.22-0.34,4.85,1.54,6.86-1.18
			c-2.3-0.61-4.46-1.18-6.68-1.78c0.06-4.83-0.07-9.67,3.62-13.38C583.98,443.92,587.15,441.16,590.18,438.35z M725.74,338.37
			c-1.97-0.34-2.68,0.43-2.84,2.24c-0.38,4.36-1.01,8.7-1.37,13.06c-0.17,2.12-0.05,4.28,0.1,6.42c0.14,2.04,1.57,2.16,3.07,1.62
			c3.79-1.38,6.96-3.7,9.57-6.76c0.31-0.36,0.37-0.94,0.55-1.41c-3.48,2.05-6.38,4.69-10.82,6.02c0.42-3.95,0.86-7.32,1.13-10.71
			C725.42,345.37,725.54,341.88,725.74,338.37z M795.28,204.22c-0.41-0.11-0.82-0.22-1.23-0.33c-0.68,1.89-1.12,3.91-2.07,5.65
			c-3.47,6.32-2.57,12.83-1.08,19.36c0.54,2.34,2.03,3.02,3.97,1.53c2.03-1.56,3.59-3.72,5.36-5.62c-0.24-0.27-0.49-0.53-0.73-0.8
			c-1.96,1.59-3.92,3.19-5.88,4.78c-0.27-0.09-0.54-0.17-0.81-0.26c-0.34-3.51-1.17-7.06-0.87-10.51c0.3-3.49,1.74-6.88,2.64-10.32
			C794.88,206.56,795.05,205.38,795.28,204.22z M591.94,283.54c0.62-0.86,1.61-2.16,2.51-3.51c1.1-1.66,2.22-3.31,3.14-5.08
			c0.25-0.48-0.21-1.34-0.34-2.02c-0.55,0.21-1.34,0.25-1.62,0.65c-2.12,3.07-4.15,6.19-6.17,9.32c-0.99,1.54-1.38,2.91,0.75,4.03
			c0.92,0.49,1.63,1.55,2.21,2.49c1.06,1.7,1.81,3.62,2.99,5.22c0.45,0.62,1.74,0.61,2.65,0.89c0.05-0.6,0.35-1.36,0.1-1.79
			C596.26,290.5,594.25,287.31,591.94,283.54z M642.11,288.7c0.08,0.14,0.16,0.28,0.23,0.42c0.77-0.42,1.75-0.67,2.26-1.3
			c3.53-4.3,5.24-9.28,5.15-14.84c-0.02-1.36-2.61-3.83-3.74-3.51c-3.6,1-6.82,2.73-10.03,5.78c1.3,0.19,2.15,0.59,2.73,0.34
			c1.6-0.67,3.12-1.54,4.6-2.45c2.07-1.27,3.58-0.76,3.65,1.7c0.06,2.32-0.25,4.79-1.04,6.96
			C645.03,284.24,643.41,286.41,642.11,288.7z M591.99,227.34c0-3.49-0.26-6.77,0.08-9.98c0.3-2.94,1.31-5.79,1.86-8.71
			c0.14-0.74-0.31-1.58-0.49-2.38c-0.54,0.48-1.34,0.86-1.57,1.46c-0.59,1.52-0.97,3.14-1.37,4.73c-1.21,4.88-2.1,9.79-1.49,14.85
			c0.18,1.5,0.63,2.65,2.47,2.43c1.98-0.23,3.58-1.98,3.36-3.82C593.96,226.37,593.12,226.78,591.99,227.34z M648.44,231.7
			c-0.91-0.57-1.51-0.94-2.11-1.32c-0.29,0.63-0.7,1.24-0.85,1.9c-0.15,0.64-0.16,1.36-0.05,2.01c0.43,2.42,0.26,4.64-1.68,6.46
			c-0.41,0.39-0.76,1-0.84,1.56c-0.09,0.58-0.01,1.56,0.34,1.76c0.54,0.31,1.48,0.33,2.05,0.05c0.61-0.29,1.22-0.99,1.43-1.64
			c0.62-1.94,1.63-1.27,2.69-0.55c0.43,0.29,0.75,0.88,1.19,0.98c0.61,0.13,1.29-0.07,1.94-0.13c-0.11-0.7,0.02-1.62-0.37-2.06
			c-0.67-0.75-1.6-1.46-2.55-1.73c-1.97-0.58-1.96-2.23-1.88-3.57c0.04-0.66,1.35-1.35,2.19-1.83c0.83-0.47,1.83-0.62,2.69-1.06
			c0.39-0.2,0.61-0.74,0.91-1.12c-0.45-0.27-0.96-0.84-1.34-0.77C650.83,230.89,649.52,231.38,648.44,231.7z M592.7,260.72
			c-0.3-0.07-0.6-0.15-0.91-0.22c-0.47-4.95-0.95-9.89-1.42-14.84c-0.3-0.07-0.61-0.14-0.91-0.21c-0.41,0.78-1.09,1.54-1.18,2.36
			c-0.53,4.87,0.43,9.63,1.22,14.4c0.23,1.38,0.9,1.71,1.95,1.36c3.54-1.17,6.11-3.63,8.5-6.3c-0.11-0.19-0.22-0.39-0.34-0.58
			C597.31,258.04,595.01,259.38,592.7,260.72z M578.07,466.69c-1.21,0.23-2.22,0.33-3.16,0.65c-0.56,0.19-1.37,0.68-1.45,1.14
			c-0.57,3.44-1.74,6.98,0.96,10.25c1.15-0.67,3.37,1.25,3.71-1.38c0.39-3.07,0.47-6.18,0.58-9.27
			C578.73,467.58,578.26,467.06,578.07,466.69z M595.78,439.26c-2-0.78-4.35-0.08-5.16,1.65c-0.96,2.03-1.63,4.2-2.68,6.17
			c-2.85,5.34,0.02,10.12,1.38,15.03c0.24,0.86,1.31,1.49,2.22,2.46c-0.61-2.91-1.09-5.31-1.6-7.7c-1.23-5.65-0.65-10.96,3.14-15.57
			C593.78,440.46,594.86,439.94,595.78,439.26z M816.94,218.77c-0.13,0.02-0.26,0.05-0.39,0.07c0,1.2-0.2,2.44,0.06,3.58
			c0.21,0.93,1.01,2.49,1.46,2.46c1.35-0.09,1.76-1.25,1.62-2.66c-0.46-4.53-0.79-9.06-1.28-13.59c-0.11-0.99-0.54-2.02-1.1-2.85
			c-0.23-0.35-1.24-0.43-1.75-0.25c-0.33,0.12-0.62,0.98-0.55,1.45C815.62,210.93,816.29,214.85,816.94,218.77z M544.22,458.64
			c-1.32-5.85-1.16-11.18,3.87-15.36c-1.15,0.64-2.31,1.28-3.6,1.99c0-2.46,0-4.53,0-6.81c-2.29,1.76-4.62,21.99-2.85,24.09
			c0.23-2.07,0.44-3.98,0.72-6.55C543.27,457.3,543.74,457.97,544.22,458.64z M868.79,356.31c0.35,0.59,0.68,1.51,0.93,1.49
			c0.57-0.05,1.46-0.45,1.6-0.89c0.93-3.07,1.73-6.17,2.42-9.3c0.05-0.21-1.37-1.15-1.88-1c-2.87,0.87-5.81,6.76-5.1,10.06
			C867.46,356.55,868.18,356.42,868.79,356.31z M875.72,340.82c0.74-0.56,1.76-0.97,2.16-1.71c2.27-4.25,4.52-8.51,6.5-12.9
			c0.86-1.9,2.21-3.86,1.51-6.27C884.44,320.53,875.99,336.98,875.72,340.82z M636.11,296.68c-0.3-0.05-0.6-0.09-0.9-0.14
			c-1.5,5.68-2.4,11.42-1.15,17.37c3.03,0.44,7.96-3.18,8.22-6.16c-1.94,1.43-3.83,2.81-6.16,4.52
			C636.11,306.68,636.11,301.68,636.11,296.68z M870.69,219.4c4.52,1.2,8.25,2.42,12.09,3.11c1.92,0.35,3.56-1,4.37-2.88
			c0.6-1.39,0.64-2.79-0.72-4.01c-1.23,4.91-2.81,5.54-7.45,3.57c-1.71-0.72-3.71-0.88-5.6-1.04
			C872.7,218.11,871.96,218.79,870.69,219.4z M825.94,310.84c-0.26-0.32-0.53-0.63-0.79-0.95c-0.26-0.44-0.52-0.87-0.78-1.31
			c-1.67-2.79-3.31-5.6-5.02-8.37c-0.7-1.13-1.46-2.24-2.36-3.19c-0.3-0.31-1.14-0.11-1.73-0.15c0.06,0.55-0.05,1.19,0.2,1.63
			c2.3,4.04,4.63,8.06,7.03,12.05c0.27,0.45,0.97,0.85,1.49,0.87C824.63,311.45,825.29,311.05,825.94,310.84z M569.43,458.77
			c-0.27-1.22-0.71-2.26-0.68-3.3c0.09-3.34,0.05-6.73,0.65-9.98c0.38-2.01,0.62-4.32,2.49-5.9c0.71-0.6,1.62-1.69,0.12-2.74
			c-4.03,5.03-5.06,10.87-5.24,16.94C566.72,455.76,567.17,457.73,569.43,458.77z M554.04,458.21c0.87-3.74,1.61-7.51,2.66-11.2
			c0.81-2.86,2.01-5.6,5.18-6.75c0.26-0.09,0.38-0.53,0.57-0.81c-0.1-0.2-0.2-0.39-0.3-0.59c-1.1,0.39-2.31,0.6-3.27,1.22
			c-2.62,1.7-3.55,4.42-4.33,7.32C553.6,450.95,553.23,454.49,554.04,458.21z M614.3,224.14c-0.01-0.2-0.02-0.39-0.02-0.59
			c-0.34-0.21-0.68-0.58-1.03-0.6c-1.55-0.09-3.12-0.2-4.65-0.06c-2.66,0.25-5.33,0.54-7.93,1.11c-0.79,0.17-1.36,1.33-2.03,2.04
			c0.78,0.14,1.58,0.48,2.33,0.39c3.07-0.4,6.14-0.9,9.19-1.42C611.55,224.78,612.92,224.43,614.3,224.14z M696.15,359.56
			c-1.55-2.35-3.09-4.75-4.75-7.07c-0.16-0.23-1.27-0.15-1.54,0.14c-0.41,0.46-0.85,1.46-0.62,1.83c1.34,2.21,2.83,4.33,4.38,6.4
			c0.25,0.33,1.08,0.44,1.55,0.31C695.5,361.06,695.67,360.39,696.15,359.56z M650.78,296.33c-1.52,0.47-1.99,1.27-1.77,2.75
			c0.41,2.81,0.62,5.64,0.91,8.47c0.07,0.69,0.14,1.37,0.23,2.2C652.38,308.39,652.66,299.79,650.78,296.33z M640.58,253.99
			c-0.68,0.46-1.4,0.71-1.7,1.21c-0.21,0.36,0.05,1.1,0.27,1.59c0.42,0.94,0.91,1.85,1.48,2.71c0.67,1.02,1.35,2.07,2.22,2.9
			c0.34,0.32,1.41,0.31,1.8,0.01c0.36-0.28,0.54-1.28,0.33-1.74c-0.84-1.86-1.83-3.67-2.86-5.43
			C641.82,254.74,641.16,254.45,640.58,253.99z M883.99,205.08c-2.45-0.39-12.5,4.34-13.22,6.08
			C873.42,211.84,881,208.41,883.99,205.08z M601.67,214.6c1.06-0.26,1.8-0.38,2.49-0.62c2.32-0.8,4.64-1.61,6.92-2.51
			c0.69-0.27,1.25-0.86,1.87-1.3c-0.8-0.27-1.7-0.92-2.39-0.74c-3.07,0.82-6.1,1.84-9.1,2.89c-0.38,0.13-0.78,0.9-0.74,1.33
			C600.76,214.03,601.4,214.35,601.67,214.6z M891.49,196.62c0.25,0.13,0.5,0.25,0.75,0.38c0.45-0.71,0.9-1.42,1.34-2.14
			c0.03-0.05,0.01-0.15,0-0.22c-0.39-3.17-0.73-6.34-1.21-9.49c-0.08-0.51-0.81-0.92-1.24-1.38c-0.26,0.38-0.77,0.78-0.74,1.13
			C890.71,188.81,891.11,192.72,891.49,196.62z M608.53,257.6c0.31-0.06,0.61-0.13,0.92-0.19c0.3-4.25,0.59-8.5-1.08-12.61
			c-0.17-0.43-0.95-0.61-1.45-0.9c-0.15,0.56-0.48,1.15-0.41,1.69c0.39,3.16,0.86,6.31,1.35,9.46
			C608,255.92,608.3,256.75,608.53,257.6z M708.56,262.14c-1.03,0-1.36-0.1-1.57,0.01c-2.92,1.55-5.89,1.25-8.94,0.41
			c-0.6-0.16-1.37,0.3-2.06,0.48c0.44,0.61,0.75,1.52,1.34,1.78c3.05,1.32,6.14,1.12,9.06-0.43
			C707.11,264.01,707.59,263.18,708.56,262.14z M803.23,353.57c-1.88-2.47-3.73-4.92-5.58-7.36c-0.43,0.4-1.31,1.02-1.24,1.16
			c1.26,2.48,2.58,4.93,4.04,7.29c0.21,0.35,1.25,0.37,1.83,0.23C802.65,354.8,802.86,354.11,803.23,353.57z M746.25,364.52
			c-0.05,0.25-0.09,0.49-0.14,0.74c0.28,0.58,0.59,1.15,0.85,1.74c0.91,2.12,1.72,4.27,2.74,6.34c0.24,0.49,1.13,0.67,1.72,0.99
			c0.25-0.5,0.85-1.16,0.71-1.48c-1.18-2.63-2.44-5.23-3.85-7.73C748.03,364.67,746.95,364.7,746.25,364.52z M570.23,206.98
			c0.51-1.74-1.86-9.18-3.12-10.13C565.16,199.48,566.82,205.12,570.23,206.98z M883.3,185.32c0.45,5.27,3.42,10.4,6.16,10.33
			c-1.56-3.38-3.04-6.65-4.62-9.87C884.69,185.48,883.9,185.49,883.3,185.32z M703.4,251.26c-0.9-0.47-1.61-1.12-1.94-0.97
			c-2.27,1.06-4.49,2.25-6.65,3.52c-0.3,0.18-0.21,1.03-0.31,1.57c0.47,0.01,0.99,0.16,1.4,0c1.86-0.73,3.72-1.49,5.52-2.35
			C702.03,252.73,702.47,252.11,703.4,251.26z M512.49,321.38c-0.16,1.97-0.46,3.53-0.31,5.04c0.06,0.57,1.14,1.05,1.76,1.56
			c0.89-1.18,2.02-2.26,2.58-3.59c0.4-0.95-0.41-1.5-1.62-1.42C514.37,323.01,513.78,322.27,512.49,321.38z M570.99,456.17
			c0.29,0.11,0.59,0.22,0.88,0.33c1.76-4.96,3.53-9.92,5.29-14.88c-0.21-0.08-0.42-0.16-0.62-0.24
			C573.9,446.02,572.12,450.97,570.99,456.17z M552.52,439.01c-0.47,0.05-1.28,0.03-1.31,0.17c-1.05,4.79-2.03,9.6-3.02,14.4
			c0.28,0.06,0.56,0.13,0.84,0.19C550.18,448.92,551.32,444.08,552.52,439.01z M657.82,202.95c0.68-1.39,0.28-5.41-0.76-6.16
			c-0.34-0.25-1.52-0.05-1.62,0.21C654.88,198.45,656.44,202.1,657.82,202.95z M572.33,202.55c1.07-3.74,0.65-6.23-1.13-7.17
			C569.97,198.22,570.41,201.36,572.33,202.55z M652.56,200.28c-0.64,2.36,0.3,5.11,1.65,5.81c0.28,0.14,0.86,0.18,1,0.01
			c0.25-0.3,0.5-0.93,0.35-1.18C654.71,203.44,653.73,202.05,652.56,200.28z M735.45,325.51c0.36,0.13,0.71,0.27,1.07,0.4
			c0.12-2.89,3.36-4.66,2.54-7.87C737.85,320.53,736.65,323.02,735.45,325.51z"/>
		<path d="M778.06,597.47c-3.37,1.99-6.36,3.89-9.49,5.56c-4.14,2.2-8.55,3.51-13.31,3.24c-5.12-0.29-9.07-6.66-7.04-11.36
			c0.16-0.38,0.56-0.69,0.9-0.95c5.21-4,10.27-8.19,16.39-10.86c2.51-1.09,4.87-2.54,7.29-3.83c1.05-0.56,1.67-1.22,1.52-2.64
			c-0.43-4.01-0.74-8.04-0.95-12.07c-0.11-2.15,0.37-4.37,0.05-6.47c-0.45-2.98-1.25-5.94-2.24-8.79c-0.23-0.67-1.79-1.04-2.79-1.24
			c-5.05-1-10.08-1.8-13.92-5.84c-4.98-5.24-6.35-11.35-4.96-18.22c1.09-5.37,2.35-10.7,3.46-15.7c-1.25,0.87-3.01,2.03-4.71,3.27
			c-4.95,3.6-9.85,7.26-14.81,10.84c-5.42,3.92-12.62,4.02-16.75-0.17c-1.56-1.58-2.91-4.05-3.04-6.19
			c-0.3-4.73-0.21-9.6,0.61-14.26c0.48-2.76,2.4-5.4,4.11-7.78c4.77-6.67,9.62-13.31,14.73-19.73c4.08-5.12,8.61-9.9,12.94-14.82
			c0.19-0.22,0.5-0.6,0.66-0.56c3.64,0.94,5.52-2.34,8.08-3.67c4.07-2.12,8.29-3.56,12.66-4.33c6.82-1.2,13.74-2.09,20.65-2.53
			c4.95-0.32,9.96,0.28,14.95,0.52c3.12,0.15,6.28,0.15,9.35,0.65c7.39,1.21,14.88,2.09,21.89,5.01
			c8.99,3.73,14.7,10.36,17.02,19.73c2.48,9.99,1.65,19.85-1.81,29.52c-1.4,3.93-2.64,7.92-3.97,11.87
			c-1.66,4.95-5.29,8.36-9.53,10.9c-2.7,1.61-6.17,1.82-9.14,0.55c-2.85-1.22-5.93-2.68-7.93-4.92c-2.6-2.92-4.25-6.7-6.27-10.13
			c-0.34-0.57-0.5-1.24-0.9-2.25c-0.57,2.03-1.25,3.69-1.47,5.4c-1.05,7.9-3.95,14.92-9.42,20.81c-1.41,1.52-2.72,3.13-4.29,4.94
			c1.94-0.47,3.72-1.14,5.55-1.3c5.72-0.5,11.45-0.95,17.18-1.14c4.63-0.16,9.28-0.1,13.9,0.2c6.34,0.41,12.66,1.14,18.99,1.7
			c1.93,0.17,3.88,0.35,5.8,0.25c0.68-0.04,1.61-0.77,1.93-1.43c3.68-7.51,9.21-13.43,15.5-18.83c6.01-5.16,13.29-1.2,15.35,4.02
			c1.87,4.75,1.43,7.56-2.11,11.88c-3.5,4.28-7.97,7.18-12.68,9.9c-2.74,1.59-5.32,3.59-7.62,5.78c-2.78,2.65-2.76,6.47-3.24,10
			c-0.6,4.49-0.68,9.11-1.87,13.44c-1.01,3.72-3.37,7.05-4.94,10.63c-2.79,6.36-7.51,11.26-12.03,16.33
			c-0.88,0.99-1.64,0.96-2.44,0.1c-1.22-1.3-2.39-2.64-3.55-4c-0.46-0.54-0.83-1.17-0.86-1.21c-1.92,1.61-3.84,3.02-5.52,4.68
			c-4.02,3.95-10.85,4.04-14.61-0.12c-1.83-2.03-2.38-4.66-0.26-6.57c2.65-2.4,5.5-4.58,8.12-7.02c2.88-2.68,5.83-5.35,8.31-8.39
			c3.82-4.7,2.96-6.9-2.81-8.51c-5.39-1.5-10.89-1.78-16.44-1.48c-2.77,0.15-4.9,2.26-4.86,5.17c0.04,2.98,0.66,5.95,0.74,8.92
			c0.1,3.74-0.09,7.48-0.15,11.22c-0.1,6.03-4.03,9.4-8.67,12.09c-1.43,0.83-3.32,1-5.03,1.19c-2.44,0.26-4.92,0.26-7.38,0.36
			c-5.77,0.24-9.65-2.53-11.71-8.35C778.84,599.49,778.46,598.54,778.06,597.47z M807.64,492c3.57,2.13,5.21,4.59,5.27,8.26
			c0.05,3.08-0.2,6.04,0.86,9.14c2.11,6.18,4.67,11.75,10.97,14.8c3.95,1.91,7.66,1.71,11.25-0.68c3.99-2.65,6.23-6.69,7.83-10.97
			c1.9-5.1,3.72-10.29,4.83-15.6c2.19-10.46,3.54-20.95-2.91-30.72c-2.74-4.15-6.68-6.66-10.94-8.64c-2.58-1.2-5.59-1.54-8.44-2.07
			c-7.45-1.39-14.88-3.06-22.4-3.88c-6.02-0.65-12.18-0.53-18.24-0.18c-8.7,0.5-17.43,1.32-25.69,4.35
			c-3.43,1.26-6.56,3.32-9.96,5.1c0.69,0.8,0.95,1.1,1.21,1.41c-0.08,0.19-0.15,0.38-0.23,0.57c-1.09-0.31-2.18-0.62-3.79-1.07
			c-4.43,5.48-9.25,11.17-13.76,17.09c-4.28,5.63-8.14,11.57-12.35,17.26c-4.66,6.3-6.1,13.31-4.92,20.9
			c0.73,4.7,4.01,7.02,8.67,6.07c2.14-0.43,4.31-1.33,6.14-2.52c4.61-3.02,9.08-6.25,13.5-9.55c3.16-2.36,6.25-4.85,9.19-7.47
			c1.8-1.61,3.28-3.59,4.88-5.39c2.26,1.48,1.49,3.08,0.6,4.74c-1.4,2.62-3.1,5.16-4.01,7.95c-1.41,4.36-2.5,8.87-3.27,13.39
			c-0.5,2.96-0.79,6.2-0.13,9.08c1.74,7.51,7.45,11.06,14.48,12.7c2.05,0.48,4.39,0.64,6.42,0.18c4.98-1.13,9.91-2.59,14.78-4.16
			c2.8-0.9,5.92-1.73,8.04-3.58c5.04-4.39,8.97-9.82,11.08-16.25c1.34-4.09,2.1-8.36,3.16-12.55c0.67-2.65,0.2-4.84-1.8-6.89
			c-1.49-1.53-2.53-3.52-3.76-5.3c0.24-0.19,0.48-0.38,0.72-0.57c1.78,2.04,3.55,4.07,5.4,6.19
			C812.8,498.46,809.49,495.4,807.64,492z M844.39,600.62c2.39-2.83,5.04-5.4,6.99-8.42c3.1-4.78,6.07-9.71,8.43-14.88
			c1.68-3.67,2.43-7.81,3.25-11.81c0.49-2.38,0.16-4.92,0.47-7.35c0.48-3.79,1.2-7.55,4.83-9.83c3.92-2.47,8.03-4.68,11.69-7.48
			c3.1-2.38,6.03-5.18,8.4-8.27c2.5-3.26,1.49-7.71-1.62-10.52c-2.88-2.6-6.22-2.61-9.72,0.14c-1.22,0.96-2.12,2.29-3.26,3.37
			c-4.98,4.73-9.17,10.05-12.35,16.16c-0.25,0.49-1.18,0.89-1.79,0.88c-2.76-0.03-5.53-0.16-8.28-0.38
			c-5.27-0.42-10.52-0.96-15.79-1.38c-3.21-0.25-6.43-0.57-9.63-0.48c-6.79,0.19-13.59,0.43-20.34,1.06
			c-4.28,0.4-8.51,1.49-12.73,2.39c-6.66,1.42-13.29,2.95-20.31,4.52c2.37,4.36,3.06,8.46,3,12.81c-0.07,5.31,0.25,10.63,0.41,15.85
			c2-0.12,3.44-0.21,4.88-0.3c0.09,0.33,0.19,0.67,0.28,1c-0.88,0.46-1.73,1.25-2.63,1.29c-1.48,0.07-1.87,0.86-1.81,1.99
			c0.06,1.18,0.33,2.35,0.6,3.51c1.06,4.55,2.18,9.09,3.25,13.64c1.35,5.73,3.38,8.47,9.21,8.35c2.55-0.05,5.1-0.09,7.64,0
			c5.45,0.18,11.26-4.29,11.82-9.69c0.51-4.97,0.51-9.99,0.59-14.99c0.04-2.9-0.49-5.82-0.24-8.69c0.26-2.92,3.51-5.44,6.49-5.27
			c4.76,0.28,9.56,0.52,14.25,1.31c2.91,0.49,6.09,0.98,8.2,3.62c2.11,2.65,2.17,5.5,1.3,8.66
			C837.92,588.46,838.47,595.03,844.39,600.62z M774.56,580.93c-1.65,0.85-3.45,1.67-5.14,2.68c-5.56,3.33-11.1,6.69-16.59,10.12
			c-2.4,1.5-2.96,3.86-1.98,7.1c0.62,2.06,2.88,4.04,5.02,3.79c3-0.35,6.13-0.72,8.87-1.86c4.37-1.83,8.49-4.28,12.67-6.56
			c0.44-0.24,0.87-1.2,0.75-1.69C777.06,590.09,775.84,585.7,774.56,580.93z M832.79,599.57c-0.09-0.16-0.17-0.32-0.26-0.48
			c1.13-0.65,2.27-1.31,3.41-1.95c1.47-0.82,2.79-1.63,1.82-3.73c-0.36-0.77-0.33-1.76-0.34-2.65c-0.04-3.22-0.01-6.44-0.01-9.38
			c-1.76,1.83-3.64,4.03-5.78,5.94c-3.34,2.98-6.86,5.74-10.28,8.63c-1.21,1.03-1.5,2.12-0.65,3.72c2.12,3.98,5.85,3.98,8.84,2.92
			c1.63-0.58,3.09-1.68,5.13-2.83C833.61,599.66,833.2,599.62,832.79,599.57z"/>
		<path d="M575.31,542.37c-0.54-0.35-1.08-0.72-1.64-1.05c-0.1-0.06-0.29,0.02-0.35,0.03c-0.57,2.77-1.13,5.51-1.69,8.21
			c-1.91,0.8-3.31,0.33-4.89-0.72c-1.44-0.95-3.25-1.51-4.97-1.76c-0.69-0.1-1.75,0.97-2.32,1.74c-1.74,2.38-3.37,4.84-4.97,7.32
			c-3.35,5.18-6.65,10.4-9.99,15.58c-1.12,1.74-2.3,3.43-3.62,5.37c2.32,1.04,4.67,0.78,6.94,0.36c1.15-0.21,2.02-0.78,3.3,0.06
			c0.77,0.5,2.18,0.12,3.29-0.02c2.95-0.39,5.91-0.76,8.81-1.37c0.65-0.14,1.55-1.23,1.57-1.9c0.09-3.88,0.13-7.77-0.16-11.64
			c-0.32-4.36-1.36-8.71,0.78-13.33c0.44,1.75,1.01,3.13,1.09,4.54c0.4,6.96,0.74,13.92,0.88,20.89c0.02,0.85-1.18,2.35-1.97,2.47
			c-1.99,0.28-2.33,1.69-2.7,3.06c-0.34,1.27-0.51,2.65-0.4,3.95c0.3,3.66,1.38,4.44,5.09,3.94c1.83,3.94,1.84,5.16-0.17,6.94
			c-0.51,0.45-1.32,0.87-1.96,0.83c-5.6-0.32-9.03-2.94-9.2-8.99c-0.02-0.62,0-1.24,0-1.86c-0.2-0.03-0.4-0.07-0.59-0.1
			c-0.22,0.65-0.47,1.29-0.66,1.95c-1.34,4.7-4.35,7.94-8.58,10.32c-2.88,1.62-8.23-0.37-9.6-4.09c-0.18-0.49,0.35-1.64,0.85-1.91
			c1.03-0.55,2.26-0.96,3.42-0.98c2.32-0.03,3.65-1.29,4.29-3.24c0.75-2.29,1.2-4.69,1.79-7.09c-2.66-0.47-5.11-0.93-7.57-1.33
			c-2.18-0.35-1.62-1.43-0.77-2.63c3.84-5.45,7.76-10.84,11.47-16.38c1.98-2.96,3.59-6.18,5.19-8.98c-0.83-2.04-1.64-4.03-2.69-6.6
			c-1.64,0.75-3.57,1.69-5.55,2.51c-3.14,1.31-6.19,2.89-9.8,2.51c-2.17-0.23-3.47-1.18-3.33-3.31c0.11-1.67,0.47-3.46,1.24-4.92
			c1.74-3.3,4.42-5.82,7.1-8.46c4.57-4.49,8.95-9.33,11.39-15.5c0.78-1.99,3.06-3.35,2.38-6c-0.08-0.31,1.11-0.95,1.72-1.44
			c0.22,0.61,0.76,1.32,0.61,1.83c-0.75,2.63-1.68,5.22-2.52,7.76c2.11,0.77,4.47,1.66,6.85,2.48c0.44,0.15,1.06,0.17,1.45-0.03
			c1.46-0.74,3.13-5.01,2.83-6.58c-0.38-1.99-0.55-4.02-0.85-6.02c-0.13-0.85-0.35-1.69-0.52-2.48c-3.43-0.23-6.8-0.29-10.13-0.7
			c-9.57-1.18-16.33-6.21-19.51-15.38c-1.55-4.46-2.33-9.18-3.43-13.69c-1.76,2.56-3.5,5.46-5.61,8.07
			c-4.87,6.02-9.88,11.92-14.92,17.81c-1.6,1.87-2.34,1.78-3.64,0.06c3.33-1.66,19.78-24.83,21.26-31.96
			c-2.27,3.06-4.25,5.84-6.35,8.53c-2.07,2.66-3.12,6.13-5.87,8.26c-0.21-0.1-0.42-0.21-0.63-0.31c0.05-0.54-0.07-1.17,0.17-1.59
			c2.04-3.49,4.25-6.89,6.21-10.43c2.46-4.44,5.77-8.33,7.51-13.26c1.14-3.22,2.29-6.3,2.59-9.76c0.18-2.06,1.19-4.07,2.04-6.02
			c0.31-0.7,1.24-1.13,2.1-1.86c-0.72-0.27-1.36-0.51-2-0.75c-0.01-0.11-0.03-0.23-0.04-0.34c1.77,0,3.54,0,5.32,0
			c0.69,9.51-0.79,18.65-4.89,27.33c-0.21,0.45-0.55,0.99-0.46,1.41c1.17,5.92,2.1,11.92,3.7,17.72c1.67,6.03,5.84,10.17,11.7,12.44
			c7.63,2.96,15.31,3.1,22.94-0.02c1.25-0.51,2.34-1.43,3.97-2.44c-4.94-2.57-3.74-7.28-4.86-11.03c-0.7-2.34,0.18-2.84,2.41-1.77
			c3.16,1.51,6.28,3.1,9.56,4.73c-1.42,2.09-2.57,1.86-3.87,0.81c-1.54-1.25-3.14-2.43-4.72-3.64c-0.32,0.24-0.65,0.49-0.97,0.73
			c1.1,2.86,2.2,5.72,3.37,8.76c5.14-2.94,8.87-6.44,11.77-10.95c3.38-5.26,5.62-10.86,5.75-17.14c0.03-1.61-0.62-3.27-1.13-4.84
			c-0.41-1.25-1.38-2.37-1.59-3.63c-0.64-3.87-1.51-7.8-0.13-11.68c0.23-0.63,1-1.29,1.66-1.51c1.43-0.48,2.95-0.69,4.63-0.8
			c-2.47,0.46-2.35,1.87-2.13,3.86c0.67,5.97,1.29,11.96,1.39,17.96c0.09,5.28-0.75,10.73-3.63,15.14
			c-3.29,5.03-6.33,10.5-11.94,13.63c-1.59,0.89-2.96,2.18-4.37,3.36c-3.21,2.68-6.98,3.94-11.08,4.36
			c3.63,14.13,3.4,14.29,15.67,23.65c-0.75,1.43-1.57,2.9-2.3,4.41c-1.08,2.26-1.96,4.64-3.21,6.8c-0.49,0.84-1.76,1.22-2.68,1.8
			C575.26,542.42,575.31,542.37,575.31,542.37z M568.86,519.78c-1.09,0.98-2.14,2.05-3.32,2.97c-1.61,1.26-4.05,0.93-6.47-0.59
			c-0.93-0.59-1.97-1.03-3.01-1.38c-2.04-0.7-1.33,1.4-2.02,2.08c-0.21,0.21-0.45,0.4-0.65,0.62c-3.8,4.02-7.57,8.08-11.43,12.04
			c-0.96,0.98-0.82,1.61,0.05,2.39c1.94,1.74,3.87,3.48,5.74,5.16c3.04-2.52,4.41-7.25,8.81-9.2c0.13,0.93-0.14,1.66-0.2,2.42
			c-0.29,3.4-0.7,6.8-0.72,10.21c-0.01,1.73,1.09,2.05,2.3,0.83c2.04-2.06,4.22-2.65,6.85-1.2c1.04,0.57,2.13,1.09,3.26,1.4
			c0.48,0.13,1.54-0.23,1.61-0.53c0.46-2.08,0.72-4.19,1.05-6.3c0.25-1.57,0.44-3.16,0.81-4.71c0.1-0.41,0.74-0.7,1.14-1.04
			c0.22,0.49,0.6,0.99,0.61,1.48c0.03,1.54,0.02,3.02,2.09,3.44c1.77-3.23,3.54-6.46,5.12-9.33
			C576.46,526.81,572.62,523.26,568.86,519.78z M557.59,578.5c-2.32,0.32-3.96,0.78-5.57,0.7c-1.85-0.09-2.19,0.85-2.54,2.32
			c-0.54,2.3-1.22,4.58-2.06,6.79c-1.08,2.79-3.66,3.12-6.22,3.46c-2.21,0.29-2.73,1.46-1.09,2.84c1.05,0.88,2.81,1.5,4.15,1.35
			c3.4-0.38,5.77-2.75,7.46-5.49c1.67-2.72,2.84-5.75,4.23-8.64C556.41,580.87,556.88,579.94,557.59,578.5z M560.91,578.09
			c-1.6,0.08-2.25,0.7-2.27,2.37c-0.01,0.72-0.06,1.47-0.29,2.15c-1.63,4.82,1.07,9.98,5.94,11.25c2.27,0.59,2.85,0.09,2.57-2.27
			c-0.07-0.57-0.23-1.12-0.34-1.65c-1.12-0.05-2.1,0-3.05-0.17c-1.41-0.25-2.56-0.9-2.56-2.58
			C560.9,584.19,560.91,581.2,560.91,578.09z M539.25,538.41c-1.88,2.12-3.38,4.32-3.6,7.15c-0.03,0.4,0.68,1.21,1.09,1.25
			c2.99,0.23,5.9-0.07,8.85-2.13C543.47,542.59,541.51,540.65,539.25,538.41z M596.01,450.02c-0.26,0.01-0.52,0.02-0.78,0.04
			c-1.07,4.68-0.45,12.08,0.78,13.14C596.01,458.99,596.01,454.5,596.01,450.02z M553.64,542.27c0-1.11,0-2.04,0-3.63
			c-1.14,1.52-1.91,2.56-3,4.02C552,542.49,552.78,542.38,553.64,542.27z"/>
		<path d="M826.49,436.76c0.23-5.92,0.4-11.71,0.71-17.49c0.3-5.47,0.71-10.94,1.17-16.41c0.15-1.75,0.62-3.46,0.94-5.2
			c0.17-0.96,0.39-1.91,0.48-2.88c0.62-6.64,1.38-13.28,1.76-19.94c0.41-7.15,0.35-14.32,0.68-21.47
			c0.25-5.39,0.86-10.77,1.14-16.16c0.17-3.3,0.04-6.63,0-9.94c-0.12-8.94-0.39-17.87,1.76-26.68c0.57-2.32,0.36-4.83,0.46-7.25
			c0.27-6.42,0.39-12.84,0.79-19.25c0.39-6.11,0.95-12.22,1.64-18.31c1.22-10.6,2.71-21.18,3.87-31.79
			c0.67-6.16,1.14-12.37,1.3-18.57c0.11-4.57-0.43-9.16-0.69-14c1.29-0.44,2.08,0.11,2.47,2.09c1.47,7.51,1.18,15.07,0.44,22.57
			c-1.24,12.62-3.01,25.19-4.31,37.8c-1.01,9.75-1.76,19.52-2.42,29.3c-0.26,3.76,0.26,7.58,0.04,11.34
			c-0.23,3.93-1.07,7.83-1.39,11.76c-0.41,5.12-0.66,10.26-0.82,15.39c-0.17,5.37-0.11,10.76-0.21,16.13
			c-0.09,4.83-0.21,9.66-0.42,14.49c-0.29,6.57-0.55,13.14-1.05,19.69c-0.63,8.2-1.55,16.37-2.27,24.56
			c-0.67,7.64-1.31,15.28-1.84,22.93c-0.36,5.21-0.5,10.43-0.75,15.64C829.9,436.57,829.32,436.9,826.49,436.76z"/>
		<path d="M725.39,193.16c-0.93,6.13-1.84,11.88-2.68,17.63c-0.92,6.27-1.76,12.56-2.7,18.83c-0.55,3.68-1.31,7.33-1.81,11.02
			c-0.49,3.54-0.82,7.1-1.13,10.65c-0.67,7.58-1.32,15.17-1.93,22.76c-0.56,6.99-1,14-1.61,20.99c-0.66,7.57-1.52,15.13-2.17,22.7
			c-0.46,5.26-0.77,10.54-1.05,15.81c-0.17,3.28-0.21,6.56-0.21,9.84c0.02,10.15,0.21,20.3,0.08,30.45
			c-0.05,3.69-0.75,7.38-1.36,11.03c-0.11,0.64-1.28,1.09-1.96,1.64c-0.24-0.67-0.8-1.43-0.66-2c1.72-6.57,1.02-13.24,0.87-19.87
			c-0.26-11.65-0.7-23.3,0.54-34.94c0.37-3.48,0.35-7,0.66-10.49c0.66-7.46,1.45-14.9,2.11-22.36c0.51-5.73,0.9-11.48,1.34-17.22
			c0.42-5.5,0.85-11,1.26-16.5c0.31-4.17,0.41-8.36,0.93-12.5c1.29-10.27,2.7-20.53,4.19-30.77c1.24-8.49,2.67-16.95,4.03-25.42
			c0.08-0.51,0.1-1.14,0.41-1.49c0.52-0.59,1.24-1,1.88-1.48C724.77,192.11,725.14,192.72,725.39,193.16z"/>
		<path d="M778.19,193.04c-0.68,6.84-1.33,13.36-1.96,19.87c-0.75,7.77-2.66,15.25-5.07,22.66c-1,3.09-1.28,6.42-1.82,9.65
			c-0.73,4.34-1.68,8.66-2.04,13.04c-0.73,8.86-1.35,17.75-1.62,26.63c-0.39,12.79-0.42,25.58-0.62,38.38
			c-0.11,7.1-0.35,14.21-0.39,21.31c-0.04,7.33,0.24,14.66,0.09,21.98c-0.12,5.51-0.74,11-1.06,16.5
			c-0.3,5.22-0.31,10.46-0.78,15.66c-0.41,4.52-1.28,8.99-1.95,13.48c-0.31,2.06-0.68,4.11-0.94,6.17c-0.11,0.93-0.04,2.05-1.34,1.7
			c-0.49-0.14-1.09-1.32-0.99-1.92c0.52-3.17,1.47-6.27,1.84-9.45c0.66-5.71,1.08-11.45,1.47-17.19c0.39-5.74,0.76-11.5,0.91-17.25
			c0.27-10.62,0.4-21.24,0.53-31.86c0.07-5.24,0.11-10.48-0.02-15.71c-0.19-7.91-0.57-15.82-0.8-23.73
			c-0.06-2.16,0.11-4.33,0.24-6.49c0.46-7.38,1.22-14.75,1.36-22.13c0.2-10.56,1.56-20.98,3.49-31.32c0.9-4.82,2.65-9.47,3.76-14.25
			c1.03-4.42,1.92-8.9,2.53-13.39c0.88-6.44,1.43-12.92,2.15-19.38C775.38,194.08,776.65,193.3,778.19,193.04z"/>
		<path d="M668.09,200.37c-0.99,6.69-2.05,13.37-2.93,20.08c-0.5,3.77-0.77,7.58-1.03,11.37c-0.39,5.73-0.71,11.47-0.98,17.21
			c-0.14,2.98-0.08,5.98-0.16,8.96c-0.25,10.29-0.53,20.58-0.8,30.87c-0.2,7.68-0.31,15.37-0.65,23.05
			c-0.37,8.44-0.78,16.88-1.53,25.29c-0.65,7.26-1.75,14.48-2.78,21.7c-0.1,0.73-1.07,1.34-1.64,2c-0.26-0.74-0.82-1.52-0.74-2.23
			c0.71-5.82,1.62-11.61,2.29-17.43c0.29-2.51,0.05-5.08,0.18-7.61c0.44-8.27,1.06-16.53,1.37-24.8c0.23-5.88-0.05-11.79,0.12-17.67
			c0.21-7.1,0.76-14.2,0.94-21.3c0.14-5.28-0.2-10.56-0.08-15.84c0.15-6.77,0.55-13.54,0.85-20.31c0.1-2.31,0.07-4.64,0.38-6.92
			c0.68-4.87,1.76-9.69,2.27-14.57c0.57-5.55,0.68-11.15,1.02-16.73c0.04-0.69,0.03-1.6,0.45-2.02c0.91-0.92,2.37-0.25,2.6,1.25
			c0.29,1.84,0.35,3.72,0.51,5.58C667.86,200.33,667.97,200.35,668.09,200.37z"/>
		<path d="M525.31,336.53c-1.9-0.02-3.61-0.34-3.73-2.56c-0.23-4.22-0.41-8.45-0.29-12.66c0.18-5.96,0.66-11.92,1-17.88
			c0.65-11.63,1.29-23.25,1.94-34.88c0.46-8.32,0.81-16.64,1.4-24.95c0.47-6.7,1.12-13.38,1.85-20.06
			c0.78-7.25,1.7-14.49,2.68-21.72c0.1-0.72,1.01-1.33,1.54-1.99c0.37,0.71,1.12,1.45,1.07,2.12c-0.47,5.42-1.18,10.83-1.64,16.25
			c-0.56,6.7-0.97,13.41-1.41,20.12c-0.34,5.13-0.64,10.27-0.97,15.41c-0.33,5.07-0.78,10.14-0.99,15.21
			c-0.52,12.81-0.91,25.63-1.42,38.44c-0.18,4.5-0.67,8.99-0.81,13.48c-0.15,4.88-0.04,9.76-0.05,14.64
			C525.48,335.8,525.39,336.08,525.31,336.53z"/>
		<path d="M610.43,368.22c0.03-4.82,0.8-9.72-1.56-14.25c0.04-0.14,0.03-0.37,0.12-0.42c2.81-1.49,2.49-4.33,2.78-6.79
			c1.05-8.83,1.92-17.68,2.95-26.51c0.59-5.04,1.48-10.04,2.02-15.08c1.11-10.47,2.36-20.94,3.01-31.44
			c0.51-8.26,0.2-16.58,0.26-24.87c0.04-4.55,0.03-9.11,0.16-13.66c0.2-7.08,0.71-14.15,0.65-21.23c-0.03-3.72,0.55-7.65-1.6-11.17
			c-0.27-0.44,0.55-1.55,0.87-2.36c0.61,0.35,1.66,0.62,1.75,1.07c0.69,3.4,1.66,6.85,1.66,10.28c0.01,6.05-0.75,12.09-0.93,18.14
			c-0.27,9.2-0.31,18.4-0.44,27.6c-0.1,6.72,0.05,13.46-0.33,20.16c-0.43,7.83-1.3,15.63-2,23.44c-0.73,8.18-1.35,16.37-2.29,24.53
			c-0.93,8.06-2.21,16.08-3.3,24.13c-0.11,0.78,0.06,1.6,0.04,2.39c-0.09,2.56,0.7,5.07-0.52,7.72c-0.96,2.08-0.81,4.65-1.33,6.96
			c-0.14,0.64-0.9,1.14-1.38,1.7C610.83,368.46,610.63,368.34,610.43,368.22z"/>
		<path d="M576.29,192.87c0.7,4.17,0.73,7.56-0.28,11.01c-2.06,7.07-1.62,14.37-1.75,21.62c-0.18,9.57-0.56,19.14-0.8,28.71
			c-0.15,6.13-0.15,12.26-0.33,18.39c-0.09,3.13-0.62,6.25-0.65,9.38c-0.13,11.74-0.08,23.48-0.23,35.21
			c-0.08,6.26-0.71,12.53-0.54,18.77c0.18,6.4,1,12.79,1.63,19.17c0.37,3.71,0.96,7.4,1.32,11.11c0.05,0.56-0.63,1.2-0.97,1.8
			c-0.59-0.56-1.61-1.06-1.71-1.7c-2.58-15.46-3.38-31.01-2.63-46.68c0.39-8.07-0.02-16.18,0.18-24.26
			c0.17-6.71,0.8-13.41,1.04-20.12c0.19-5.31-0.05-10.64,0.19-15.95c0.45-10.01,1.18-20,1.65-30.01c0.21-4.48-0.18-9,0.17-13.46
			c0.36-4.59,1.31-9.12,1.95-13.69c0.15-1.08,0.21-2.2,0.11-3.28C574.47,196.89,574.59,195.02,576.29,192.87z"/>
		<path d="M699.1,226.43c0.99-1.05,1.92-2.15,2.98-3.12c2.46-2.28,4.55-4.79,5.11-8.22c0.34-2.06,0.72-4.18-1.15-5.85
			c-2.06-1.83-4.41-1.76-6.72-0.83c-4.36,1.76-7.89,4.78-11.12,8.09c-0.69,0.71-0.82,2.17-0.84,3.28c-0.09,4.85-0.04,9.7-0.04,14.87
			c-0.89,0.04-1.96,0.09-3.39,0.15c0-4.9,0-9.68,0-14.5c-2.78,0.26-3.55,5.59-7.29,2.23c3.46-3.91,7.15-7.62,8.17-13.26
			c-2.28,1.18-4.44,2.3-6.65,3.44c-0.94-1.65-0.65-2.61,0.69-3.03c4.7-1.5,6.73-4.63,6.41-9.57c-0.16-2.51,1.07-4.57,3.68-6.01
			c-0.48,3.48-0.93,6.77-1.48,10.79c1.89-0.79,3.12-1.37,4.39-1.81c0.55-0.19,1.21-0.11,1.81-0.15c-0.01,0.7,0.23,1.55-0.08,2.08
			c-0.75,1.28-1.79,2.38-2.65,3.61c-0.61,0.87-1.12,1.82-1.31,3.07c1.95-1.43,3.87-2.91,5.86-4.27c2.87-1.97,5.99-2.58,9.35-1.37
			c2.54,0.92,3.95,2.72,4.57,5.36C710.85,217.56,705.73,225.69,699.1,226.43z"/>
		<path d="M511.03,299.88c1.26-0.54,2.53-1.06,3.79-1.61c2.15-0.95,4.03-0.46,4.86,1.68c0.81,2.09,1.26,4.4,1.46,6.64
			c0.17,1.89-0.22,3.84-0.41,5.76c-0.05,0.52-0.3,1.02-0.58,1.93c-0.62-0.78-0.95-1.2-1.34-1.71c-1.78,1.44-3.57,2.9-5.79,1.17
			c-1.4-1.09-1.74-3.8-0.84-5.14c1.22-1.81,2.85-1.92,6.64-0.46c0.94-1.8,0.69-5.93-0.76-7.07c-0.68-0.54-2.13-0.56-3.04-0.26
			c-1.33,0.45-2.46,1.46-3.73,2.13c-2.38,1.27-3.66,2.99-3.47,5.89c0.12,1.89-0.51,3.82-0.69,5.74c-0.29,3.01-1.3,3.67-4.49,2.65
			c0.4-2.3,0.8-4.63,1.26-7.29c-2.78,2.24-4.3,6.24-9.48,5.01c3.79-3.92,7.19-7.44,10.6-10.96c-0.16-0.23-0.32-0.45-0.48-0.68
			c-1.4,1.52-2.75,1.49-4.34-0.2c1-0.84,1.94-1.74,2.99-2.46c1.25-0.86,1.73-1.85,2-3.44c0.43-2.58,1.56-5.06,2.5-7.54
			c0.12-0.33,0.84-0.58,1.28-0.59c0.25,0,0.72,0.58,0.71,0.89c-0.03,1.23-0.17,2.46-0.35,3.68c-0.11,0.71-0.37,1.4-0.11,2.46
			c0.79-0.68,1.5-1.56,2.41-1.97c0.69-0.31,1.95-0.32,2.42,0.11c0.81,0.75,0.74,1.68-0.38,2.59c-0.97,0.78-1.5,2.1-2.22,3.18
			C511.31,299.98,511.17,299.93,511.03,299.88z M514.73,309.38c-0.2,0.2-0.39,0.4-0.59,0.6c0.49,0.66,0.87,1.63,1.52,1.88
			c0.48,0.18,1.32-0.57,1.99-0.91c-0.05-0.21-0.1-0.42-0.15-0.64C516.57,310,515.65,309.69,514.73,309.38z"/>
		<path d="M883.37,242.31c1.5,3.44-1.39,6.08-1.83,8.76c2.61,0.45,5.23,0.78,7.78,1.37c2.28,0.53,3.36,2.27,3.83,4.49
			c1.05,4.99-3.36,13.45-8.77,15.76c1.23-1.74,2.06-3.05,3.02-4.26c2.17-2.77,3.73-5.78,3.79-9.38c0.04-2.76-1.34-4.5-4-5.18
			c-3.86-0.99-7.32,0.51-9.43,3.97c-0.7,1.14-1.57,2.19-2.48,3.18c-0.97,1.06-2.07,1.98-1.38,3.69c0.05,0.13-1.35,1.03-1.39,0.98
			c-1.14-1.33-1.82-0.23-2.58,0.42c-0.68,0.59-1.28,1.48-2.06,1.69c-1.49,0.41-3.42,1.03-4.55,0.42c-0.95-0.51-1.54-2.7-1.4-4.05
			c0.41-3.85,2.65-6.57,6.44-8.05c-1.24-3.67-2.44-7.23-3.71-11.02c1.23-0.36,2.25-0.65,2.86-0.82c0.92,3.01,1.71,5.88,2.72,8.68
			c0.17,0.48,1.34,0.92,1.99,0.84c5.59-0.7,8.19-3.45,9.04-9.2c0.14-0.92,0.75-1.77,1.14-2.65
			C882.72,242.06,883.04,242.18,883.37,242.31z M868.97,257.61c-1.66,2.13-3.18,3.87-4.41,5.81c-0.31,0.49,0.2,1.67,0.62,2.36
			c0.11,0.18,1.36-0.11,1.93-0.45c3.64-2.16,3.83-2.74,2.46-6.75C869.55,258.5,869.5,258.44,868.97,257.61z M876.39,255.85
			c-0.1-0.17-0.19-0.35-0.29-0.52c-1.39,0.51-2.78,1.02-4.25,1.56c0.46,1.14,0.8,1.97,1.28,3.16
			C874.35,258.47,875.37,257.16,876.39,255.85z"/>
		<path d="M791.16,253.68c3.52-1.01,6.81-1.96,10.41-3c-0.54-1.34-1-2.47-1.5-3.68c1.63-1.01,2.74,0.05,3.37,1.26
			c0.79,1.51,1.79,1.27,2.97,0.9c1.99-0.63,3.96-1.36,5.99-1.84c0.59-0.14,1.34,0.4,2.02,0.63c-0.47,0.62-0.82,1.58-1.43,1.79
			c-2.5,0.88-5.07,1.53-7.72,2.29c0.54,2.23,1,4.39,1.65,6.49c0.11,0.35,1.08,0.67,1.59,0.6c2-0.28,3.96-0.79,5.95-1.07
			c0.54-0.08,1.14,0.34,1.72,0.54c-0.36,0.52-0.63,1.34-1.11,1.5c-1.69,0.55-3.44,1.04-5.2,1.22c-1.86,0.18-2.68,0.84-2.53,2.81
			c0.15,2.06,0.03,4.15,0.03,6.35c4.01,0.17,8.02,0.29,11.72,2.3c-0.8,2.05-1.78,2.19-3.68,1.47c-2.33-0.88-4.92-1.13-7.43-1.43
			c-0.49-0.06-1.15,0.9-1.64,1.48c-1.42,1.68-2.67,3.53-4.26,5.02c-0.49,0.46-2.03,0.28-2.76-0.16c-0.64-0.38-1.16-1.55-1.12-2.35
			c0.12-2.48,1.69-4.31,3.88-5.01c2.28-0.74,3.07-2.02,3.03-4.19c-0.03-1.56-0.01-3.12-0.01-5.2c-3.28,1.04-6.32,1.99-9.36,2.95
			c-0.15-0.21-0.31-0.42-0.46-0.62c0.54-0.54,0.98-1.26,1.62-1.58c2-0.99,4.03-1.94,6.13-2.7c1.33-0.48,1.81-1.08,1.32-2.47
			c-0.57-1.6-1-3.25-1.53-5.01c-3.42,1.02-6.76,2.02-10.22,3.05C792.21,255.37,791.84,254.77,791.16,253.68z M800.84,277.47
			c2.51-0.63,2.87-2.46,3.4-4.16C802.5,274.08,800.68,274.8,800.84,277.47z"/>
		<path d="M554.07,255.76c-0.79,0.28-1.45,0.49-2.1,0.75c-1.86,0.77-3.69,1.63-5.58,2.29c-0.47,0.16-1.15-0.28-1.74-0.44
			c0.32-0.44,0.54-1.04,0.97-1.28c1.75-0.98,3.54-1.93,5.37-2.75c2.9-1.29,3-1.36,2.03-4.32c-0.35-1.05-0.84-2.05-1.4-3.39
			c-2.22,0.86-4.32,1.73-6.46,2.46c-0.61,0.21-1.42,0.12-2.05-0.09c-0.39-0.13-0.82-0.74-0.83-1.14c-0.01-0.28,0.63-0.65,1.05-0.86
			c1.81-0.88,3.64-1.72,5.46-2.57c1.45-0.68,1.52-1.62,0.66-2.87c-0.45-0.65-0.7-1.43-1.03-2.15c0.23-0.18,0.45-0.36,0.68-0.54
			c0.7,0.55,1.53,0.99,2.06,1.67c1.06,1.35,2.18,1.8,3.89,1.25c1.33-0.43,2.8-0.6,4.2-0.58c0.58,0.01,1.15,0.79,1.73,1.22
			c-0.48,0.41-0.91,0.98-1.46,1.21c-1.56,0.64-3.21,1.08-4.76,1.76c-0.35,0.15-0.7,1.03-0.58,1.42c0.56,1.74,1.29,3.43,2.01,5.27
			c2.24-1.44,4.38-2.82,6.98-2.33c0.14,0.31,0.28,0.61,0.41,0.92c-1.19,0.68-2.34,1.46-3.58,2.03c-3.58,1.63-3.59,1.6-3.07,5.33
			c0.01,0.07,0.07,0.16,0.05,0.22c-1.51,4.54,2.14,4.89,4.86,6c0.9,0.37,1.85,0.67,2.68,1.16c0.53,0.31,0.89,0.92,1.32,1.39
			c-0.14,0.25-0.28,0.49-0.43,0.74c-2.83-0.96-5.66-1.91-8.32-2.81c-1.02,1.21-2,2.35-2.96,3.51c-1.31,1.58-2.79,1.58-4.59,0.8
			c-1.89-0.82-1.31-2.28-1.25-3.62c0.09-1.86,1.28-2.77,2.99-3.1c0.87-0.17,1.75-0.26,2.8-0.4
			C554.07,259.87,554.07,257.97,554.07,255.76z M553.77,264.43c-2.89-0.1-3.41,0.62-2.56,3.36
			C552.06,266.67,552.77,265.74,553.77,264.43z"/>
		<path d="M560.62,196.46c-0.37,2.43-0.74,4.86-1.14,7.48c0.66,0.1,1.29,0.21,1.93,0.3c3.87,0.53,5.46,2.36,5.7,6.35
			c0.31,5.03-1.34,9.36-4.53,13.16c-1.25,1.49-2.48,3-3.88,4.33c-0.62,0.58-1.87,1.22-2.43,0.96c-0.93-0.42-2.02-1.47-2.18-2.4
			c-0.34-1.9-0.1-3.89-0.1-6.33c-3.56-2.44-0.01-5.72,0.09-8.81c0.05-1.4,0.79-2.77,1.33-4.53c-4.75,1.06-7,4.79-10.23,7.26
			c-1.6-0.9-1.78-1.93-0.41-3.13c3.17-2.8,6.14-5.85,10.45-7.02c0.82-0.22,1.61-1.32,1.99-2.2c0.56-1.28,0.66-2.75,1.11-4.09
			c0.22-0.65,0.8-1.17,1.22-1.74C559.9,196.18,560.26,196.32,560.62,196.46z M555.57,226.82c0.98-0.5,1.33-0.57,1.47-0.77
			c2.34-3.43,4.95-6.71,6.84-10.38c0.94-1.82,0.8-4.36,0.66-6.54c-0.17-2.66-2.66-2-4.34-2.43c-1.65-0.42-2.09,0.7-2.37,1.95
			c-0.88,3.93-1.89,7.83-2.53,11.8C554.99,222.35,555.44,224.38,555.57,226.82z"/>
		<path d="M797.74,313.84c1.38-3.96,2.59-7.41,3.79-10.86c-0.15-0.23-0.31-0.46-0.46-0.7c-2.52,0.94-5.04,1.85-7.54,2.82
			c-0.76,0.3-1.41,0.96-2.18,1.1c-0.62,0.11-1.33-0.33-2.01-0.53c0.31-0.6,0.46-1.44,0.95-1.75c3.45-2.13,7.06-3.96,11.18-4.29
			c1.14-0.09,1.59-0.39,1.65-1.53c0.1-1.71,0.25-3.44,0.59-5.12c0.14-0.67,0.84-1.22,1.28-1.82c0.28,0.59,0.79,1.17,0.81,1.77
			c0.07,2.24-0.56,4.67,0.12,6.67c0.62,1.84,2.73,3.13,3.92,4.85c2.46,3.56,2.35,8.79-0.16,12.19c-2.56,3.48-5.18,6.91-7.79,10.35
			c-1.07,1.4-2.29,1.47-3.31,0.24c-1.36-1.62-1.7-6.81-0.67-8.67c0.68,2.1,1.41,4.32,2.31,7.09c2.83-3.89,5.6-6.99,7.52-10.55
			c1.91-3.53,1.39-7.4-0.94-10.8c-0.46-0.67-1.27-1.09-1.93-1.62c-1.78,3.83-3.4,7.36-5.1,10.86
			C799.68,313.77,798.96,313.68,797.74,313.84z"/>
		<path d="M598.77,334.28c1.64-2.59,3.1-4.77,4.43-7.02c1.81-3.07,1.37-6.4,0.65-9.61c-0.61-2.75-5.17-5.6-7.98-5.15
			c-0.42,0.07-1.02,1.32-0.92,1.91c0.96,5.4-0.07,10.46-2.46,15.29c-1.27,2.57-3.08,2.76-5.1,0.66c-3.42-3.58-4.2-7.46-2.46-12.28
			c1.09-3.03,2.95-4.78,5.18-6.84c1.94-1.79,3.14-1.83,5.3-1.09c2.5,0.86,5.29,0.94,7.73,1.91c1.22,0.49,2.49,2.06,2.83,3.38
			c1.7,6.65,0.68,12.73-4.71,17.53C600.64,333.51,599.74,333.77,598.77,334.28z M592.17,312.95c-3.42,1.93-5.09,4.62-5.3,8.23
			c-0.19,3.27,0.56,6.14,3.84,8.23C593.11,323.99,593.84,318.74,592.17,312.95z"/>
		<path d="M649.34,213.52c-0.41,4.07-1.6,7.44-4.67,9.69c-1.5,1.1-3.28,2-5.07,2.5c-1.93,0.54-3.46-0.65-3.57-2.68
			c-0.12-2.35-0.01-4.75,0.32-7.09c0.47-3.31,1.23-6.57,1.96-10.36c-3.29,2.4-6.24,4.54-9.41,6.85c-0.49-0.82-0.97-1.62-1.6-2.67
			c1.3-0.96,2.5-1.9,3.77-2.76c2.45-1.66,4.87-3.39,7.44-4.86c1.93-1.1,2.59-0.64,2.31,1.67c-0.39,3.19-1.07,6.34-1.62,9.5
			c-0.4,2.27-0.91,4.53-1.18,6.81c-0.27,2.38,0.91,3.23,3.09,2.3c3.21-1.36,5.19-3.74,5.51-7.3c0.3-3.35,0.49-6.71,0.87-10.05
			c0.08-0.68,0.8-1.28,1.22-1.92c0.53,0.69,1.47,1.35,1.51,2.07c0.2,3.15,0.39,6.23,2.65,8.76c0.2,0.22-0.06,1.21-0.39,1.46
			c-0.34,0.26-1.17,0.25-1.54,0C650.39,215.06,650.03,214.37,649.34,213.52z"/>
		<path d="M876.56,290.75c-0.59,0.65-1.06,1.49-1.77,1.91c-4.19,2.42-8.46,4.7-12.64,7.13c-0.47,0.27-0.66,1.16-0.79,1.8
			c-0.08,0.39,0.26,0.86,0.28,1.29c0.11,2.34,0.75,3.43,3.63,3.66c4.29,0.33,8.34,2.18,11.9,4.78c0.52,0.38,0.91,0.93,1.4,1.44
			c-1.42,1.76-2.63,0.87-4.03,0.21c-3.28-1.54-6.64-2.92-9.99-4.31c-1.62-0.67-2.47-0.26-3.08,1.62c-0.59,1.81-1.74,3.63-3.15,4.9
			c-0.78,0.7-2.7,0.65-3.83,0.21c-0.5-0.2-0.83-2.49-0.34-3.28c1.14-1.85,2.71-3.48,4.32-4.96c0.81-0.74,1.41-1.2,0.96-2.35
			c-1.23-3.09-2.48-6.17-3.58-9.3c-0.29-0.82-0.09-1.82-0.11-2.74c0.66,0.45,1.47,0.77,1.94,1.36c0.91,1.15,1.62,2.46,2.5,3.83
			c5.63-2.16,9.99-6.56,15.8-7.86C876.16,290.32,876.36,290.53,876.56,290.75z M856.04,313.57c0.45,0.23,0.9,0.47,1.35,0.7
			c0.83-1.7,1.67-3.4,2.5-5.1c-0.28-0.16-0.57-0.32-0.85-0.47C858.04,310.32,857.04,311.94,856.04,313.57z"/>
		<path d="M516.18,207.61c0.97,2.98-1.22,4.68-2.79,6.34c-3.26,3.45-5.39,7.36-6.27,12.01c-0.95,5.03,2.61,8.81,7.77,8.01
			c1.8-0.28,3.51-1.15,5.27-1.7c0.85-0.27,1.73-0.44,2.67-0.41c-2.48,3.49-5.89,4.55-9.9,4.03c-1.26-0.16-2.51-0.37-3.75-0.62
			c-4.59-0.93-7-5.41-5.23-9.6c0.32-0.75,0.47-1.57,0.63-2.38c0.94-4.57,4.34-7.63,7.2-11.67c-3.29,1.61-6.13,3.01-8.98,4.4
			c-1.07,0.52-2.12,1.14-3.26,1.48c-0.47,0.14-1.38-0.18-1.6-0.57c-0.21-0.36,0.06-1.45,0.41-1.61c5.51-2.63,11.06-5.17,16.61-7.7
			C515.25,207.49,515.67,207.61,516.18,207.61z"/>
		<path d="M870.66,196.45c2.71-1.04,4.97-1.96,7.28-2.76c0.65-0.22,1.43-0.06,2.15-0.08c-0.52,0.62-0.93,1.47-1.6,1.81
			c-2.12,1.07-4.45,1.78-6.49,2.98c-1.07,0.63-2.15,1.89-2.44,3.06c-1.76,6.98-3.31,14.02-4.88,21.05c-0.41,1.84-1.66,2-3.44,2.03
			c0.61-8.05,2.82-15.57,5.22-23.37c-1.24,0.32-2.37,0.62-3.5,0.91c-0.15-0.23-0.3-0.46-0.45-0.69c0.92-0.8,1.89-1.55,2.74-2.42
			c0.82-0.83,1.78-1.67,2.23-2.7c1.23-2.86,2.16-5.86,3.37-8.73c0.23-0.56,1.18-0.81,1.8-1.2c0.07,0.67,0.31,1.38,0.17,1.99
			C872.19,190.99,871.43,193.61,870.66,196.45z"/>
		<path d="M592.25,337.67c0.77,0.87,1.54,1.74,2.35,2.66c3.19-0.8,6.69-1.74,10.23-2.5c0.52-0.11,1.23,0.66,1.85,1.02
			c-0.54,0.45-1.02,1.12-1.63,1.3c-3.14,0.9-6.32,1.68-9.12,2.41c0,3.24-0.08,6.19,0.08,9.12c0.03,0.48,1.07,1,1.73,1.32
			c3.38,1.65,6.79,3.24,10.45,4.98c-1.6,1.99-3.14,1.86-4.66,1.03c-2.09-1.14-4.11-2.41-6.14-3.65c-1.69-1.02-2.23-0.79-2.65,1.14
			c-0.52,2.37-1.98,4.11-3.86,5.51c-0.95,0.7-3.27-0.53-3.69-2.03c-0.36-1.28-0.6-2.65-0.54-3.97c0.13-2.77,1.66-4.21,5.44-4.43
			c2.18-0.13,2.12-1.16,1.85-2.56c-0.58-3.04-0.3-6.29-2.27-8.99c-0.21-0.29-0.29-0.69-0.35-1.05c-0.04-0.19,0.09-0.41,0.14-0.62
			C591.72,338.14,591.99,337.91,592.25,337.67z M593.81,353.73c-4-0.1-5.71,1.78-4.6,4.47c0.21,0.5,0.69,1.11,1.14,1.21
			c0.38,0.08,1.11-0.42,1.33-0.84C592.43,357.08,593.03,355.52,593.81,353.73z"/>
		<path d="M519.25,247.6c-1.36,1.66-2.73,3.3-4.06,4.97c-1.69,2.13-3.46,4.2-5,6.44c-2,2.9-0.7,9.38,2.39,11.26
			c2.21,1.35,4.75,2.15,7.37,3.3c-0.29,0.16-0.94,0.84-1.56,0.81c-7.95-0.39-13.36-4.39-12.5-12.98c0.17-1.69,1.58-3.3,2.58-4.84
			c1.12-1.73,2.42-3.35,3.37-5.54c-2.3,0.88-4.58,1.82-6.91,2.61c-0.94,0.32-2,0.44-2.99,0.39c-0.39-0.02-1.05-0.74-1.04-1.13
			c0.01-0.41,0.6-1.01,1.06-1.17c1.9-0.67,3.87-1.12,5.76-1.8c2.63-0.95,5.17-2.15,7.83-3c1.1-0.35,2.41-0.06,3.63-0.06
			C519.2,247.11,519.22,247.35,519.25,247.6z"/>
		<path d="M750.15,224.51c-0.35-1.31-0.97-2.35-0.83-3.27c0.88-5.66,1.94-11.3,2.91-16.95c0.15-0.86,0.1-1.75,0.18-3.28
			c-4.88,1.81-9.35,3.46-13.82,5.12c-0.22-0.18-0.44-0.35-0.66-0.53c0.41-0.72,0.65-1.85,1.25-2.09c4.92-1.93,9.9-3.69,15.6-5.77
			c-0.11,9.26-1.62,17.72-3.02,26.33c1.07-0.09,2.37-0.28,3.67-0.27c0.55,0,1.09,0.41,1.64,0.64c-0.42,0.47-0.77,1.17-1.29,1.36
			c-1.03,0.38-2.18,0.46-3.26,0.7c-3.61,0.81-7.21,1.64-10.96,2.5c-0.4-2.06,0.87-2.47,2.06-2.81
			C745.95,225.52,748.32,224.97,750.15,224.51z"/>
		<path d="M679.54,329.39c-3.41-0.49-5.48-3.11-7.57-5.54c-0.46-0.53,0.05-1.9,0.11-2.88c0.76,0.36,1.63,0.59,2.26,1.12
			c1.99,1.65,3.84,3.46,5.87,5.06c0.28,0.22,1.41-0.17,1.78-0.6c2.04-2.38,3.96-4.86,5.94-7.29c0.48-0.59,1.03-1.13,1.72-1.88
			c1.1,2.11-0.04,3.33-0.96,4.48c-2.6,3.26-5.44,6.34-7.87,9.72c-1.3,1.8-2.09,4.01-2.84,6.13c-0.36,1.03,0.37,1.73,1.53,2.29
			c3.91,1.89,7.6,0.46,11.35-0.4c0.78-0.18,1.55-0.36,2.63-0.1c-0.47,0.47-0.87,1.2-1.43,1.36c-3.78,1.05-7.55,2.46-11.41,2.8
			c-4.38,0.39-6.77-4.25-4.6-8.15C677.2,333.45,678.39,331.41,679.54,329.39z"/>
		<path d="M727.41,298.16c0.58-0.37,1.11-0.88,1.73-1.1c4.41-1.55,8.84-3.05,13.27-4.53c2.44-0.81,4.06,0.49,4.11,3.41
			c0.08,4.26-1.23,8.18-3.95,11.38c-2.06,2.43-2.28,5.42-3.45,8.11c-0.76,1.75-1.47,3.53-2.3,5.25c-0.15,0.32-0.75,0.41-1.66,0.87
			c0.6-1.55,1.03-2.52,1.36-3.53c1.21-3.68,0.36-7.2-0.86-10.69c-0.15-0.41-0.3-0.88-0.26-1.29c0.1-1,0.33-1.98,0.5-2.97
			c0.81,0.66,1.76,1.21,2.37,2.02c0.6,0.79,0.84,1.84,1.28,2.87c2.84-3.2,4.43-7.02,4.61-11.35c0.09-2.05-1.54-1.73-2.74-1.36
			c-3.12,0.95-6.17,2.11-9.3,3.05c-1.44,0.43-2.99,0.53-4.49,0.78C727.58,298.76,727.5,298.46,727.41,298.16z"/>
		<path d="M798.72,392.75c0.31-0.76,0.55-1.56,0.93-2.28c1.95-3.72,3.32-7.51,2.04-11.79c-0.64-2.13-1.9-2.95-4.03-2.36
			c-2.95,0.81-5.86,1.74-8.79,2.6c-0.54,0.16-1.11,0.24-2.33,0.49c0.48-2.2,0.62-4.04,1.3-5.65c1.43-3.41,2.11-6.92,2.28-10.58
			c0.02-0.43,0.14-0.96,0.42-1.26c0.46-0.5,1.07-0.85,1.62-1.27c0.21,0.57,0.67,1.18,0.58,1.7c-0.74,4.16-1.57,8.31-2.39,12.46
			c-0.1,0.48-0.32,0.94-0.51,1.49c3.19-0.75,6.18-1.62,9.23-2.12c3.6-0.59,5.79,1.54,5.94,5.17c0.19,4.56-0.69,8.72-3.85,12.19
			c-0.53,0.59-1.17,1.08-1.75,1.62C799.18,393.02,798.95,392.89,798.72,392.75z"/>
		<path d="M690.61,239.28c-0.24,1.78-0.44,3.31-0.69,5.16c2.47-1.07,4.63-2,6.79-2.94c0.34-0.15,0.7-0.52,0.99-0.47
			c0.71,0.13,1.39,0.45,2.09,0.7c-0.42,0.51-0.73,1.24-1.27,1.5c-2.07,1.01-4.19,1.93-6.33,2.77c-2.64,1.03-4.22,2.79-4.72,5.64
			c-0.45,2.54-1.17,5.03-1.73,7.55c-0.24,1.08-0.48,2.19-0.47,3.28c0.01,1.97-0.86,2.88-3.13,2.9c-0.32-5.46,2.35-10.32,2.6-15.85
			c-0.76,0.38-1.45,0.94-2.22,1.06c-0.66,0.1-1.4-0.31-2.1-0.5c0.32-0.65,0.56-1.81,0.97-1.88c4.6-0.71,5.72-4.22,6.57-7.95
			C688.31,238.7,689.29,239,690.61,239.28z"/>
		<path d="M553.25,280.56c-1.38,3.18-2.76,6.35-3.88,8.94c2.24,2.53,4.32,4.71,6.19,7.06c1.32,1.66,2.52,2.4,4.41,0.82
			c2.32-1.94,4.73-3.76,7.21-5.73c0.37,1.85-0.4,3.22-1.88,4.23c-2,1.38-3.94,2.94-6.13,3.96c-2.83,1.32-3.47,0.88-5.43-1.64
			c-1.59-2.04-3.35-3.95-5.48-6.43c-1.16,2.67-2.25,4.7-2.9,6.86c-0.5,1.64-1.57,2.08-2.82,1.72c-1.59-0.45-0.99-1.68-0.45-2.74
			c2.78-5.42,5.51-10.86,8.38-16.23c0.36-0.68,1.42-0.98,2.16-1.46C552.84,280.15,553.04,280.35,553.25,280.56z"/>
		<path d="M750.58,339.8c-0.41,4.37-3.95,2.86-5.91,4.3c0.39,2.15,0.57,4.47,1.32,6.6c0.33,0.94,1.77,1.55,2.78,2.19
			c1.24,0.78,2.64,1.33,3.78,2.22c0.43,0.33,0.36,1.32,0.52,2.01c-0.63,0.06-1.41,0.37-1.88,0.12c-1.49-0.8-2.86-1.81-4.6-2.95
			c-0.91,2.81-3.01,3.55-5.37,2.96c-1.14-0.29-2.56-1.37-2.92-2.41c-0.5-1.44,1.65-3.85,3.08-4.05c0.73-0.1,1.46-0.17,2.31-0.27
			c-0.41-2.25-0.8-4.35-1.21-6.57c-1.5,0.48-3.08,1.06-4.7,1.46c-0.46,0.11-1.05-0.27-1.58-0.43c0.34-0.51,0.57-1.22,1.04-1.48
			c0.97-0.54,2.06-0.87,3.12-1.24c1.32-0.47,2.33-1.03,1.64-2.75c-0.14-0.36,0.33-0.96,0.52-1.45c0.36,0.38,1.01,0.74,1.03,1.13
			c0.14,2.52,1.64,2.17,3.27,1.69C747.93,340.53,749.04,340.23,750.58,339.8z M741.99,355.78c0.85-0.6,1.5-1.06,2.15-1.52
			c-0.66-0.47-1.35-1.35-1.96-1.3c-0.69,0.05-1.3,0.95-1.95,1.49C740.74,354.83,741.25,355.22,741.99,355.78z"/>
		<path d="M698.46,297.05c-0.58,3.21-2.57,5.57-5.24,7.25c-2.25,1.42-4.75,2.49-7.2,3.55c-2.49,1.08-5.26-0.26-5.96-2.87
			c-1.69-6.33-1.4-12.53,1.56-18.49c0.82-1.64,1.52-3.34,2.37-4.97c0.19-0.36,0.76-0.51,1.16-0.75c0.27,0.44,0.87,0.99,0.77,1.32
			c-0.62,1.9-1.24,3.83-2.15,5.6c-2.18,4.21-2.23,8.67-1.83,13.21c0.29,3.25,2.6,6.22,6.79,3.91c3.35-1.84,6.42-3.79,8.34-7.2
			c0.22-0.39,0.4-0.8,0.6-1.19C697.93,296.62,698.19,296.84,698.46,297.05z"/>
		<path d="M640.74,324.64c-1.76,3.31-3.53,6.63-4.91,9.24c1.51,2.46,2.7,4.44,3.94,6.4c0.86,1.36,1.62,2.85,2.72,3.99
			c1.42,1.46,5-0.09,5.71-2.46c0.56-1.89,0.88-3.85,1.31-5.78c0.22-0.02,0.45-0.03,0.67-0.05c0.15,1.22,0.46,2.44,0.41,3.65
			c-0.13,3.16-4.57,7.41-7.67,7.64c-2.42,0.18-3.69-1.17-4.61-3.1c-1.15-2.39-2.27-4.8-3.53-7.48c-3.14,2.82-3.15,7.71-6.7,9.81
			c-0.35-0.24-0.7-0.47-1.06-0.71c4.14-7.27,8.28-14.54,12.42-21.81C639.87,324.21,640.3,324.43,640.74,324.64z"/>
		<path d="M745.62,250.29c-2.61,1.17-4.69,2.13-6.79,3.04c-1.02,0.44-2.17,1.03-2.42-1.04c3.6-1.34,6.64-4.23,11.04-3.67
			c1.01,7.91,0.22,15.52-1.85,23.21c0.26,0.01,0.93,0.05,1.61,0.08c0.15,0.17,0.3,0.33,0.46,0.5c-0.61,0.59-1.15,1.57-1.85,1.7
			c-3.77,0.73-7.58,1.24-12.08,1.94c0.71-0.91,0.96-1.56,1.39-1.73c1.59-0.62,3.2-1.31,4.87-1.56c2.2-0.32,3.74-0.52,3.86-3.53
			c0.14-3.91,1.26-7.78,1.72-11.69C745.83,255.38,745.62,253.14,745.62,250.29z"/>
		<path d="M559.99,326.41c1.07,1.75,0.48,3.08-0.37,4.31c-2.9,4.18-10.79,6.47-15.37,4.28c-0.85-0.41-1.45-1.81-1.73-2.87
			c-1.11-4.18,0.29-8.34,0.32-12.52c0.01-1.77-0.06-3.56,0.2-5.3c0.11-0.74,0.97-1.36,1.49-2.04c0.45,0.6,1.29,1.21,1.27,1.8
			c-0.09,3.92-0.42,7.84-0.54,11.76c-0.06,1.92,0.08,3.86,0.27,5.78c0.13,1.3,0.85,2.03,2.31,2.24c4.67,0.69,8.84-1.51,11.55-6.31
			C559.58,327.25,559.73,326.93,559.99,326.41z"/>
		<path d="M590.18,438.35c-3.03,2.81-6.2,5.57-9.16,8.54c-3.69,3.71-3.56,8.55-3.62,13.38c2.23,0.59,4.38,1.16,6.68,1.78
			c-2.01,2.71-4.63,0.84-6.86,1.18c-0.26,0.57-0.51,1.11-0.75,1.64c-0.34-0.47-0.64-0.98-1.04-1.39c-0.42-0.44-0.88-0.88-1.41-1.14
			c-1.09-0.54-2.23-0.97-3.35-1.44c0.03-0.3,0.06-0.61,0.08-0.91c1.51-0.12,3.03-0.25,4.33-0.35c0.37-6.53,0.81-13.03,5.72-18.24
			c-0.45,0.95-0.89,1.9-1.47,3.14C583.47,442.89,585.91,438.55,590.18,438.35z"/>
		<path d="M575.26,542.42c4.8,2.93,9.55,1.5,14.03-0.58c2.56-1.18,4.82-3.17,6.94-5.11c1.94-1.77,2.12-4.1,0.59-6.22
			c-0.67-0.92-2.1-1.94-3.09-1.85c-2.13,0.19-4.21,1.07-6.31,1.67c-0.6,0.17-1.18,0.37-1.77,0.56c-0.17-0.19-0.35-0.38-0.52-0.56
			c0.43-0.63,0.73-1.44,1.31-1.85c3.24-2.24,6.92-1.98,10.35-0.99c3.87,1.13,4.92,6.3,2.1,9.62c-4.52,5.3-10.47,8.01-17.31,8.73
			c-1.58,0.17-3.35-0.13-4.82-0.73c-0.74-0.31-0.99-1.79-1.46-2.75C575.31,542.37,575.26,542.42,575.26,542.42z"/>
		<path d="M725.74,338.37c-0.2,3.5-0.32,7-0.6,10.48c-0.27,3.39-0.71,6.76-1.13,10.71c4.44-1.34,7.33-3.98,10.82-6.02
			c-0.18,0.48-0.24,1.05-0.55,1.41c-2.61,3.06-5.78,5.38-9.57,6.76c-1.5,0.55-2.93,0.43-3.07-1.62c-0.14-2.13-0.27-4.29-0.1-6.42
			c0.36-4.36,0.99-8.7,1.37-13.06C723.06,338.8,723.77,338.04,725.74,338.37z"/>
		<path d="M795.28,204.22c-0.23,1.16-0.4,2.34-0.7,3.48c-0.9,3.44-2.34,6.83-2.64,10.32c-0.3,3.45,0.54,7,0.87,10.51
			c0.27,0.09,0.54,0.17,0.81,0.26c1.96-1.59,3.92-3.19,5.88-4.78c0.24,0.27,0.49,0.53,0.73,0.8c-1.77,1.9-3.33,4.06-5.36,5.62
			c-1.94,1.49-3.43,0.81-3.97-1.53c-1.5-6.54-2.39-13.05,1.08-19.36c0.95-1.74,1.39-3.76,2.07-5.65
			C794.46,204,794.87,204.11,795.28,204.22z"/>
		<path d="M591.94,283.54c2.32,3.77,4.32,6.95,6.22,10.2c0.25,0.43-0.05,1.18-0.1,1.79c-0.91-0.28-2.2-0.28-2.65-0.89
			c-1.18-1.6-1.93-3.51-2.99-5.22c-0.58-0.94-1.29-2-2.21-2.49c-2.14-1.12-1.75-2.49-0.75-4.03c2.02-3.13,4.05-6.25,6.17-9.32
			c0.27-0.4,1.07-0.44,1.62-0.65c0.13,0.68,0.59,1.54,0.34,2.02c-0.91,1.76-2.03,3.42-3.14,5.08
			C593.54,281.39,592.56,282.68,591.94,283.54z"/>
		<path d="M642.11,288.7c1.3-2.29,2.92-4.46,3.81-6.9c0.79-2.17,1.11-4.64,1.04-6.96c-0.07-2.46-1.58-2.97-3.65-1.7
			c-1.48,0.91-3,1.78-4.6,2.45c-0.58,0.24-1.43-0.15-2.73-0.34c3.21-3.05,6.43-4.78,10.03-5.78c1.12-0.31,3.71,2.15,3.74,3.51
			c0.1,5.56-1.62,10.55-5.15,14.84c-0.52,0.63-1.5,0.88-2.26,1.3C642.26,288.98,642.19,288.84,642.11,288.7z"/>
		<path d="M591.99,227.34c1.13-0.56,1.97-0.98,2.84-1.41c0.23,1.85-1.37,3.59-3.36,3.82c-1.84,0.22-2.29-0.93-2.47-2.43
			c-0.61-5.07,0.28-9.98,1.49-14.85c0.4-1.59,0.77-3.21,1.37-4.73c0.23-0.6,1.03-0.98,1.57-1.46c0.18,0.79,0.63,1.64,0.49,2.38
			c-0.54,2.92-1.55,5.78-1.86,8.71C591.73,220.57,591.99,223.85,591.99,227.34z"/>
		<path d="M648.44,231.7c1.08-0.33,2.4-0.81,3.75-1.07c0.38-0.07,0.89,0.49,1.34,0.77c-0.3,0.39-0.52,0.93-0.91,1.12
			c-0.86,0.43-1.86,0.59-2.69,1.06c-0.85,0.48-2.15,1.17-2.19,1.83c-0.08,1.34-0.09,3,1.88,3.57c0.95,0.28,1.88,0.98,2.55,1.73
			c0.4,0.45,0.27,1.36,0.37,2.06c-0.65,0.06-1.33,0.26-1.94,0.13c-0.45-0.1-0.76-0.69-1.19-0.98c-1.06-0.72-2.07-1.39-2.69,0.55
			c-0.21,0.65-0.82,1.35-1.43,1.64c-0.57,0.27-1.51,0.25-2.05-0.05c-0.35-0.2-0.42-1.17-0.34-1.76c0.08-0.55,0.42-1.17,0.84-1.56
			c1.94-1.82,2.1-4.04,1.68-6.46c-0.11-0.65-0.1-1.37,0.05-2.01c0.16-0.66,0.56-1.27,0.85-1.9
			C646.93,230.76,647.53,231.13,648.44,231.7z"/>
		<path d="M592.7,260.72c2.31-1.34,4.61-2.69,6.92-4.03c0.11,0.19,0.22,0.39,0.34,0.58c-2.39,2.67-4.97,5.13-8.5,6.3
			c-1.06,0.35-1.73,0.02-1.95-1.36c-0.78-4.78-1.75-9.53-1.22-14.4c0.09-0.82,0.77-1.57,1.18-2.36c0.3,0.07,0.61,0.14,0.91,0.21
			c0.47,4.95,0.95,9.89,1.42,14.84C592.1,260.57,592.4,260.65,592.7,260.72z"/>
		<path d="M578.07,466.69c0.18,0.38,0.66,0.89,0.64,1.39c-0.12,3.09-0.19,6.2-0.58,9.27c-0.33,2.62-2.56,0.71-3.71,1.38
			c-2.7-3.27-1.53-6.81-0.96-10.25c0.08-0.46,0.88-0.94,1.45-1.14C575.85,467.02,576.87,466.92,578.07,466.69z"/>
		<path d="M595.78,439.26c-0.93,0.68-2.01,1.2-2.7,2.04c-3.79,4.61-4.37,9.91-3.14,15.57c0.52,2.39,1,4.79,1.6,7.7
			c-0.91-0.97-1.98-1.6-2.22-2.46c-1.36-4.9-4.23-9.68-1.38-15.03c1.05-1.97,1.72-4.14,2.68-6.17
			C591.43,439.18,593.78,438.47,595.78,439.26z"/>
		<path d="M816.94,218.77c-0.65-3.93-1.33-7.85-1.92-11.78c-0.07-0.47,0.22-1.34,0.55-1.45c0.51-0.18,1.52-0.1,1.75,0.25
			c0.55,0.83,0.99,1.86,1.1,2.85c0.49,4.52,0.81,9.06,1.28,13.59c0.14,1.41-0.27,2.57-1.62,2.66c-0.45,0.03-1.25-1.53-1.46-2.46
			c-0.26-1.14-0.06-2.38-0.06-3.58C816.68,218.82,816.81,218.8,816.94,218.77z"/>
		<path d="M544.22,458.64c-0.47-0.67-0.95-1.34-1.86-2.64c-0.28,2.57-0.49,4.48-0.72,6.55c-1.77-2.1,0.56-22.32,2.85-24.09
			c0,2.28,0,4.35,0,6.81c1.29-0.71,2.44-1.35,3.6-1.99C543.06,447.46,542.9,452.79,544.22,458.64z"/>
		<path d="M868.79,356.31c-0.61,0.11-1.33,0.23-2.04,0.36c-0.71-3.3,2.23-9.18,5.1-10.06c0.51-0.15,1.93,0.79,1.88,1
			c-0.68,3.13-1.49,6.23-2.42,9.3c-0.13,0.45-1.02,0.85-1.6,0.89C869.47,357.82,869.14,356.9,868.79,356.31z"/>
		<path d="M875.72,340.82c0.27-3.85,8.72-20.29,10.18-20.87c0.7,2.41-0.65,4.36-1.51,6.27c-1.98,4.38-4.23,8.65-6.5,12.9
			C877.48,339.86,876.46,340.26,875.72,340.82z"/>
		<path d="M636.11,296.68c0,5,0,10,0,15.6c2.34-1.71,4.22-3.09,6.16-4.52c-0.25,2.98-5.19,6.6-8.22,6.16
			c-1.24-5.96-0.35-11.7,1.15-17.37C635.51,296.59,635.81,296.64,636.11,296.68z"/>
		<path d="M870.69,219.4c1.27-0.62,2.01-1.3,2.69-1.24c1.89,0.16,3.88,0.31,5.6,1.04c4.65,1.96,6.23,1.34,7.45-3.57
			c1.36,1.22,1.31,2.62,0.72,4.01c-0.81,1.89-2.45,3.23-4.37,2.88C878.94,221.82,875.2,220.6,870.69,219.4z"/>
		<path d="M825.94,310.84c-0.65,0.21-1.32,0.61-1.96,0.58c-0.52-0.02-1.22-0.42-1.49-0.87c-2.4-3.98-4.73-8.01-7.03-12.05
			c-0.25-0.44-0.14-1.08-0.2-1.63c0.59,0.03,1.43-0.17,1.73,0.15c0.9,0.95,1.67,2.07,2.36,3.19c1.71,2.77,3.35,5.58,5.02,8.37
			c0.26,0.44,0.52,0.87,0.78,1.31C825.42,310.21,825.68,310.52,825.94,310.84z"/>
		<path d="M569.43,458.77c-2.27-1.04-2.71-3.01-2.66-4.99c0.17-6.07,1.21-11.92,5.24-16.94c1.5,1.05,0.59,2.14-0.12,2.74
			c-1.87,1.58-2.11,3.89-2.49,5.9c-0.61,3.26-0.57,6.65-0.65,9.98C568.73,456.5,569.17,457.55,569.43,458.77z"/>
		<path d="M554.04,458.21c-0.82-3.72-0.44-7.25,0.52-10.81c0.78-2.9,1.71-5.62,4.33-7.32c0.95-0.62,2.17-0.82,3.27-1.22
			c0.1,0.2,0.2,0.39,0.3,0.59c-0.19,0.28-0.32,0.72-0.57,0.81c-3.17,1.15-4.37,3.88-5.18,6.75
			C555.66,450.7,554.92,454.47,554.04,458.21z"/>
		<path d="M614.3,224.14c-1.38,0.29-2.75,0.64-4.14,0.87c-3.06,0.51-6.12,1.02-9.19,1.42c-0.75,0.1-1.55-0.25-2.33-0.39
			c0.67-0.71,1.24-1.87,2.03-2.04c2.6-0.57,5.27-0.86,7.93-1.11c1.54-0.14,3.1-0.03,4.65,0.06c0.35,0.02,0.69,0.39,1.03,0.6
			C614.28,223.75,614.29,223.94,614.3,224.14z"/>
		<path d="M696.15,359.56c-0.48,0.84-0.65,1.51-0.98,1.6c-0.46,0.13-1.3,0.02-1.55-0.31c-1.55-2.07-3.04-4.19-4.38-6.4
			c-0.23-0.37,0.21-1.37,0.62-1.83c0.26-0.3,1.37-0.37,1.54-0.14C693.06,354.8,694.6,357.21,696.15,359.56z"/>
		<path d="M650.78,296.33c1.88,3.45,1.6,12.05-0.64,13.42c-0.08-0.83-0.15-1.51-0.23-2.2c-0.29-2.82-0.5-5.66-0.91-8.47
			C648.8,297.61,649.27,296.8,650.78,296.33z"/>
		<path d="M640.58,253.99c0.58,0.46,1.24,0.74,1.53,1.24c1.04,1.76,2.02,3.57,2.86,5.43c0.21,0.47,0.04,1.47-0.33,1.74
			c-0.39,0.3-1.46,0.32-1.8-0.01c-0.87-0.83-1.55-1.88-2.22-2.9c-0.56-0.86-1.05-1.78-1.48-2.71c-0.22-0.49-0.48-1.23-0.27-1.59
			C639.18,254.7,639.9,254.45,640.58,253.99z"/>
		<path d="M883.99,205.08c-2.99,3.33-10.57,6.76-13.22,6.08C871.49,209.42,881.54,204.69,883.99,205.08z"/>
		<path d="M601.67,214.6c-0.27-0.25-0.91-0.57-0.94-0.95c-0.04-0.43,0.36-1.2,0.74-1.33c3.01-1.05,6.03-2.07,9.1-2.89
			c0.68-0.18,1.58,0.47,2.39,0.74c-0.62,0.44-1.19,1.03-1.87,1.3c-2.28,0.9-4.6,1.71-6.92,2.51
			C603.47,214.22,602.73,214.34,601.67,214.6z"/>
		<path d="M891.49,196.62c-0.38-3.9-0.78-7.81-1.1-11.71c-0.03-0.35,0.48-0.75,0.74-1.13c0.43,0.46,1.16,0.87,1.24,1.38
			c0.49,3.15,0.82,6.32,1.21,9.49c0.01,0.07,0.03,0.17,0,0.22c-0.44,0.72-0.89,1.42-1.34,2.14
			C891.99,196.87,891.74,196.75,891.49,196.62z"/>
		<path d="M608.53,257.6c-0.23-0.85-0.54-1.68-0.67-2.55c-0.49-3.15-0.96-6.3-1.35-9.46c-0.07-0.54,0.27-1.13,0.41-1.69
			c0.5,0.3,1.27,0.48,1.45,0.9c1.67,4.1,1.38,8.36,1.08,12.61C609.15,257.48,608.84,257.54,608.53,257.6z"/>
		<path d="M708.56,262.14c-0.98,1.04-1.45,1.87-2.17,2.25c-2.92,1.55-6.01,1.75-9.06,0.43c-0.59-0.26-0.9-1.17-1.34-1.78
			c0.69-0.18,1.46-0.64,2.06-0.48c3.05,0.84,6.02,1.14,8.94-0.41C707.21,262.04,707.53,262.14,708.56,262.14z"/>
		<path d="M803.23,353.57c-0.36,0.54-0.58,1.23-0.94,1.32c-0.58,0.15-1.62,0.12-1.83-0.23c-1.46-2.36-2.78-4.81-4.04-7.29
			c-0.07-0.14,0.8-0.76,1.24-1.16C799.5,348.66,801.35,351.1,803.23,353.57z"/>
		<path d="M746.25,364.52c0.7,0.19,1.78,0.15,2.03,0.59c1.41,2.51,2.67,5.11,3.85,7.73c0.14,0.32-0.46,0.98-0.71,1.48
			c-0.59-0.32-1.48-0.5-1.72-0.99c-1.02-2.06-1.83-4.22-2.74-6.34c-0.25-0.59-0.56-1.16-0.85-1.74
			C746.16,365.01,746.21,364.76,746.25,364.52z"/>
		<path d="M570.23,206.98c-3.41-1.86-5.07-7.51-3.12-10.13C568.37,197.8,570.74,205.25,570.23,206.98z"/>
		<path d="M883.3,185.32c0.6,0.17,1.39,0.16,1.54,0.46c1.58,3.22,3.06,6.49,4.62,9.87C886.72,195.72,883.75,190.59,883.3,185.32z"/>
		<path d="M703.4,251.26c-0.93,0.85-1.37,1.48-1.98,1.77c-1.8,0.86-3.66,1.63-5.52,2.35c-0.4,0.16-0.93,0.01-1.4,0
			c0.09-0.54,0-1.39,0.31-1.57c2.16-1.27,4.38-2.46,6.65-3.52C701.79,250.13,702.49,250.78,703.4,251.26z"/>
		<path d="M512.49,321.38c1.29,0.89,1.88,1.63,2.41,1.6c1.21-0.08,2.02,0.47,1.62,1.42c-0.56,1.32-1.69,2.4-2.58,3.59
			c-0.62-0.52-1.7-0.99-1.76-1.56C512.03,324.91,512.33,323.35,512.49,321.38z"/>
		<path d="M570.99,456.17c1.13-5.2,2.91-10.16,5.55-14.79c0.21,0.08,0.42,0.16,0.62,0.24c-1.76,4.96-3.53,9.92-5.29,14.88
			C571.58,456.39,571.29,456.28,570.99,456.17z"/>
		<path d="M552.52,439.01c-1.2,5.07-2.34,9.92-3.49,14.76c-0.28-0.06-0.56-0.13-0.84-0.19c0.99-4.8,1.97-9.61,3.02-14.4
			C551.24,439.03,552.05,439.06,552.52,439.01z"/>
		<path d="M657.82,202.95c-1.38-0.85-2.94-4.5-2.38-5.95c0.1-0.26,1.28-0.45,1.62-0.21C658.1,197.54,658.5,201.56,657.82,202.95z"/>
		<path d="M572.33,202.55c-1.92-1.2-2.36-4.33-1.13-7.17C572.98,196.32,573.4,198.81,572.33,202.55z"/>
		<path d="M652.56,200.28c1.17,1.77,2.15,3.17,3.01,4.63c0.15,0.25-0.1,0.88-0.35,1.18c-0.14,0.17-0.72,0.13-1-0.01
			C652.86,205.39,651.93,202.64,652.56,200.28z"/>
		<path d="M735.45,325.51c1.2-2.49,2.41-4.98,3.61-7.47c0.82,3.22-2.42,4.98-2.54,7.87C736.16,325.78,735.8,325.65,735.45,325.51z"
			/>
		<path class="vol2_3_st0" d="M807.64,492c1.85,3.4,5.16,6.46,2.68,11.12c-1.85-2.12-3.63-4.16-5.4-6.19c-0.24,0.19-0.48,0.38-0.72,0.57
			c1.24,1.78,2.27,3.77,3.76,5.3c2,2.05,2.47,4.24,1.8,6.89c-1.06,4.18-1.82,8.46-3.16,12.55c-2.11,6.43-6.04,11.87-11.08,16.25
			c-2.12,1.85-5.25,2.68-8.04,3.58c-4.87,1.58-9.79,3.03-14.78,4.16c-2.03,0.46-4.36,0.3-6.42-0.18c-7.03-1.64-12.74-5.2-14.48-12.7
			c-0.66-2.87-0.37-6.11,0.13-9.08c0.77-4.52,1.86-9.03,3.27-13.39c0.9-2.79,2.61-5.33,4.01-7.95c0.89-1.67,1.66-3.26-0.6-4.74
			c-1.61,1.8-3.08,3.78-4.88,5.39c-2.94,2.63-6.03,5.12-9.19,7.47c-4.42,3.29-8.9,6.53-13.5,9.55c-1.82,1.2-4,2.09-6.14,2.52
			c-4.66,0.94-7.94-1.37-8.67-6.07c-1.18-7.59,0.25-14.6,4.92-20.9c4.21-5.69,8.07-11.63,12.35-17.26
			c4.51-5.92,9.32-11.61,13.76-17.09c1.61,0.45,2.7,0.76,3.79,1.07c0.08-0.19,0.15-0.38,0.23-0.57c-0.26-0.3-0.52-0.6-1.21-1.41
			c3.41-1.77,6.54-3.84,9.96-5.1c8.26-3.03,16.99-3.86,25.69-4.35c6.06-0.35,12.22-0.47,18.24,0.18c7.52,0.82,14.95,2.49,22.4,3.88
			c2.85,0.53,5.86,0.87,8.44,2.07c4.25,1.98,8.2,4.48,10.94,8.64c6.44,9.78,5.1,20.26,2.91,30.72c-1.11,5.31-2.93,10.5-4.83,15.6
			c-1.6,4.28-3.84,8.33-7.83,10.97c-3.59,2.38-7.3,2.59-11.25,0.68c-6.3-3.04-8.85-8.61-10.97-14.8c-1.06-3.1-0.81-6.06-0.86-9.14
			C812.85,496.59,811.21,494.13,807.64,492z M769.68,521.4c-1.14,2.42-0.06,6.07,2.3,8.1c1.97,1.7,7.68,1.81,10.21,0.2
			c4.05-2.58,5.13-4.32,4.35-6.98c-3.95,0.07-5.03-1.08-4.56-5.17c0.13-1.15,0.74-2.24,1.11-3.36c0.45-1.37,0.63-2.78-1.04-3.37
			c-1.94-0.69-3.5,0.43-4.83,1.64c-1.26,1.14-2.24,2.51-1.48,4.2c1.01-0.11,1.84-0.34,2.61-0.21c0.24,0.04,0.58,1.15,0.42,1.63
			C777.68,521.44,772.81,523.26,769.68,521.4z M780.4,493.22c-0.63-1.17-1.13-2.3-1.83-3.3c-0.26-0.37-1.06-0.66-1.49-0.54
			c-0.38,0.1-0.73,0.8-0.84,1.29c-0.54,2.53-1.05,5.07-1.45,7.63c-0.11,0.68,0.21,1.42,0.33,2.13c0.89-0.28,2.26-0.31,2.59-0.9
			C778.79,497.6,779.48,495.47,780.4,493.22z M794.26,499.6c-0.43,0.89-0.91,1.58-1.07,2.33c-0.1,0.47,0.14,1.17,0.48,1.52
			c0.22,0.22,1.01,0.15,1.36-0.08c2.46-1.62,3.58-7.02,1.87-9.49c-0.32-0.46-1.9-0.74-2.08-0.5c-0.9,1.24-1.59,2.64-2.24,4.04
			C791.94,498.82,792.36,499.67,794.26,499.6z M771.98,484.28c0.05,0.3,0.1,0.6,0.15,0.91c0.96,0,2.07,0.31,2.86-0.05
			c3.23-1.49,6.38-3.16,9.52-4.84c0.49-0.26,0.78-0.89,1.17-1.35c-0.64-0.23-1.39-0.8-1.89-0.63c-1.6,0.55-3.14,1.32-4.66,2.1
			C776.72,481.66,774.36,482.99,771.98,484.28z M800.08,477.13c0.35,2.28,4.28,6.98,6.06,7.26
			C806.1,482.34,802.16,477.62,800.08,477.13z"/>
		<path class="vol2_3_st0" d="M844.39,600.62c-5.92-5.6-6.48-12.16-4.53-19.2c0.88-3.17,0.82-6.01-1.3-8.66c-2.1-2.64-5.28-3.13-8.2-3.62
			c-4.69-0.78-9.49-1.03-14.25-1.31c-2.97-0.18-6.23,2.34-6.49,5.27c-0.25,2.87,0.28,5.79,0.24,8.69c-0.08,5-0.07,10.03-0.59,14.99
			c-0.56,5.4-6.37,9.88-11.82,9.69c-2.54-0.09-5.09-0.05-7.64,0c-5.83,0.12-7.86-2.62-9.21-8.35c-1.07-4.55-2.18-9.09-3.25-13.64
			c-0.27-1.15-0.55-2.33-0.6-3.51c-0.05-1.13,0.33-1.92,1.81-1.99c0.89-0.04,1.75-0.84,2.63-1.29c-0.09-0.33-0.19-0.67-0.28-1
			c-1.44,0.09-2.88,0.18-4.88,0.3c-0.15-5.21-0.48-10.53-0.41-15.85c0.06-4.35-0.63-8.46-3-12.81c7.02-1.57,13.65-3.1,20.31-4.52
			c4.22-0.9,8.45-1.99,12.73-2.39c6.75-0.63,13.55-0.86,20.34-1.06c3.2-0.09,6.43,0.23,9.63,0.48c5.27,0.41,10.52,0.96,15.79,1.38
			c2.75,0.22,5.52,0.35,8.28,0.38c0.61,0.01,1.53-0.4,1.79-0.88c3.18-6.11,7.36-11.43,12.35-16.16c1.13-1.07,2.04-2.41,3.26-3.37
			c3.51-2.75,6.84-2.74,9.72-0.14c3.11,2.81,4.12,7.26,1.62,10.52c-2.37,3.1-5.3,5.9-8.4,8.27c-3.66,2.8-7.77,5.02-11.69,7.48
			c-3.63,2.28-4.34,6.04-4.83,9.83c-0.31,2.43,0.02,4.97-0.47,7.35c-0.82,4-1.57,8.14-3.25,11.81c-2.36,5.17-5.34,10.1-8.43,14.88
			C849.43,595.22,846.78,597.79,844.39,600.62z"/>
		<path class="vol2_3_st0" d="M774.56,580.93c1.28,4.76,2.5,9.15,3.6,13.57c0.12,0.49-0.3,1.45-0.75,1.69c-4.17,2.28-8.29,4.73-12.67,6.56
			c-2.74,1.15-5.87,1.51-8.87,1.86c-2.14,0.25-4.4-1.73-5.02-3.79c-0.98-3.24-0.42-5.6,1.98-7.1c5.49-3.44,11.03-6.79,16.59-10.12
			C771.1,582.6,772.91,581.79,774.56,580.93z"/>
		<path class="vol2_3_st0" d="M832.79,599.57c0.41,0.04,0.82,0.09,1.88,0.19c-2.05,1.15-3.5,2.25-5.13,2.83c-3,1.06-6.73,1.06-8.84-2.92
			c-0.85-1.6-0.56-2.7,0.65-3.72c3.42-2.89,6.94-5.65,10.28-8.63c2.14-1.91,4.02-4.12,5.78-5.94c0,2.94-0.02,6.16,0.01,9.38
			c0.01,0.89-0.02,1.88,0.34,2.65c0.97,2.1-0.35,2.91-1.82,3.73c-1.14,0.64-2.27,1.3-3.41,1.95
			C832.62,599.26,832.7,599.42,832.79,599.57z"/>
		<path class="vol2_3_st0" d="M568.86,519.78c3.77,3.48,7.61,7.04,11.64,10.76c-1.58,2.88-3.35,6.11-5.12,9.33
			c-2.07-0.42-2.06-1.9-2.09-3.44c-0.01-0.5-0.4-0.99-0.61-1.48c-0.39,0.34-1.04,0.63-1.14,1.04c-0.37,1.55-0.56,3.13-0.81,4.71
			c-0.33,2.1-0.6,4.22-1.05,6.3c-0.07,0.3-1.13,0.66-1.61,0.53c-1.13-0.32-2.23-0.84-3.26-1.4c-2.63-1.44-4.81-0.86-6.85,1.2
			c-1.21,1.23-2.31,0.9-2.3-0.83c0.02-3.4,0.42-6.81,0.72-10.21c0.07-0.75,0.34-1.49,0.2-2.42c-4.4,1.95-5.77,6.67-8.81,9.2
			c-1.86-1.68-3.8-3.42-5.74-5.16c-0.87-0.78-1.01-1.41-0.05-2.39c3.87-3.96,7.63-8.02,11.43-12.04c0.21-0.22,0.44-0.41,0.65-0.62
			c0.7-0.68-0.02-2.78,2.02-2.08c1.04,0.36,2.09,0.8,3.01,1.38c2.42,1.53,4.86,1.85,6.47,0.59
			C566.71,521.83,567.77,520.76,568.86,519.78z"/>
		<path class="vol2_3_st0" d="M557.59,578.5c-0.71,1.44-1.19,2.38-1.64,3.32c-1.39,2.89-2.56,5.92-4.23,8.64
			c-1.69,2.75-4.06,5.11-7.46,5.49c-1.34,0.15-3.1-0.46-4.15-1.35c-1.64-1.38-1.11-2.55,1.09-2.84c2.55-0.34,5.14-0.67,6.22-3.46
			c0.85-2.2,1.52-4.49,2.06-6.79c0.35-1.47,0.69-2.41,2.54-2.32C553.64,579.27,555.27,578.82,557.59,578.5z"/>
		<path class="vol2_3_st0" d="M560.91,578.09c0,3.12-0.01,6.1,0,9.09c0.01,1.68,1.15,2.34,2.56,2.58c0.95,0.17,1.93,0.11,3.05,0.17
			c0.11,0.53,0.27,1.09,0.34,1.65c0.28,2.36-0.3,2.86-2.57,2.27c-4.87-1.27-7.57-6.42-5.94-11.25c0.23-0.67,0.28-1.43,0.29-2.15
			C558.66,578.78,559.31,578.16,560.91,578.09z"/>
		<path class="vol2_3_st0" d="M539.25,538.41c2.26,2.24,4.22,4.17,6.34,6.27c-2.94,2.06-5.85,2.36-8.85,2.13
			c-0.41-0.03-1.12-0.84-1.09-1.25C535.87,542.73,537.37,540.53,539.25,538.41z"/>
		<path class="vol2_3_st0" d="M596.01,450.02c0,4.49,0,8.97,0,13.17c-1.24-1.05-1.85-8.45-0.78-13.14
			C595.49,450.04,595.75,450.03,596.01,450.02z"/>
		<path class="vol2_3_st0" d="M553.64,542.27c-0.86,0.11-1.64,0.22-3,0.39c1.09-1.46,1.86-2.5,3-4.02
			C553.64,540.23,553.64,541.16,553.64,542.27z"/>
		<path class="vol2_3_st0" d="M514.73,309.38c0.92,0.31,1.85,0.62,2.77,0.93c0.05,0.21,0.1,0.42,0.15,0.64c-0.68,0.34-1.52,1.1-1.99,0.91
			c-0.65-0.25-1.02-1.22-1.52-1.88C514.33,309.78,514.53,309.58,514.73,309.38z"/>
		<path class="vol2_3_st0" d="M868.97,257.61c0.53,0.83,0.58,0.89,0.61,0.96c1.37,4.01,1.18,4.59-2.46,6.75c-0.57,0.34-1.82,0.63-1.93,0.45
			c-0.42-0.69-0.93-1.86-0.62-2.36C865.78,261.48,867.31,259.74,868.97,257.61z"/>
		<path class="vol2_3_st0" d="M876.39,255.85c-1.02,1.31-2.04,2.62-3.27,4.2c-0.48-1.19-0.81-2.01-1.28-3.16c1.47-0.54,2.86-1.05,4.25-1.56
			C876.2,255.5,876.29,255.67,876.39,255.85z"/>
		<path class="vol2_3_st0" d="M800.84,277.47c-0.16-2.67,1.66-3.38,3.4-4.16C803.7,275.01,803.35,276.84,800.84,277.47z"/>
		<path class="vol2_3_st0" d="M553.77,264.43c-1,1.31-1.71,2.24-2.56,3.36C550.36,265.06,550.88,264.33,553.77,264.43z"/>
		<path class="vol2_3_st0" d="M555.57,226.82c-0.13-2.45-0.58-4.47-0.27-6.37c0.63-3.97,1.65-7.88,2.53-11.8c0.28-1.24,0.72-2.36,2.37-1.95
			c1.68,0.42,4.17-0.23,4.34,2.43c0.14,2.18,0.28,4.72-0.66,6.54c-1.88,3.66-4.5,6.95-6.84,10.38
			C556.9,226.25,556.55,226.32,555.57,226.82z"/>
		<path class="vol2_3_st0" d="M592.17,312.95c1.67,5.78,0.94,11.03-1.45,16.46c-3.28-2.09-4.03-4.96-3.84-8.23
			C587.08,317.58,588.75,314.88,592.17,312.95z"/>
		<path class="vol2_3_st0" d="M856.04,313.57c1-1.62,2.01-3.25,3.01-4.87c0.28,0.16,0.57,0.32,0.85,0.47c-0.83,1.7-1.67,3.4-2.5,5.1
			C856.94,314.04,856.49,313.8,856.04,313.57z"/>
		<path class="vol2_3_st0" d="M593.81,353.73c-0.77,1.79-1.38,3.35-2.13,4.83c-0.22,0.42-0.94,0.92-1.33,0.84
			c-0.45-0.09-0.94-0.71-1.14-1.21C588.09,355.51,589.8,353.63,593.81,353.73z"/>
		<path class="vol2_3_st0" d="M741.99,355.78c-0.74-0.56-1.25-0.95-1.76-1.33c0.65-0.53,1.26-1.43,1.95-1.49c0.62-0.05,1.31,0.83,1.96,1.3
			C743.49,354.71,742.84,355.17,741.99,355.78z"/>
		<path d="M769.68,521.4c3.13,1.86,8,0.03,9.1-3.33c0.15-0.48-0.18-1.59-0.42-1.63c-0.77-0.14-1.6,0.09-2.61,0.21
			c-0.76-1.69,0.22-3.06,1.48-4.2c1.33-1.21,2.89-2.33,4.83-1.64c1.67,0.59,1.49,2.01,1.04,3.37c-0.37,1.12-0.98,2.21-1.11,3.36
			c-0.47,4.09,0.6,5.25,4.56,5.17c0.78,2.66-0.3,4.4-4.35,6.98c-2.53,1.61-8.24,1.5-10.21-0.2
			C769.62,527.47,768.54,523.83,769.68,521.4z M779.31,521.14c-2.3,2.57-5.18,3.92-9,2.24c1.69,4.24,3.88,5.93,7.11,5.74
			c3.67-0.22,5.92-1.78,6.63-4.31C782.49,523.6,781.03,522.47,779.31,521.14z"/>
		<path d="M780.4,493.22c-0.92,2.25-1.61,4.38-2.68,6.31c-0.33,0.6-1.7,0.62-2.59,0.9c-0.12-0.71-0.44-1.46-0.33-2.13
			c0.4-2.56,0.91-5.1,1.45-7.63c0.1-0.49,0.46-1.18,0.84-1.29c0.43-0.12,1.23,0.16,1.49,0.54
			C779.27,490.92,779.77,492.05,780.4,493.22z"/>
		<path d="M794.26,499.6c-1.9,0.07-2.33-0.78-1.68-2.17c0.65-1.4,1.34-2.8,2.24-4.04c0.17-0.24,1.76,0.04,2.08,0.5
			c1.71,2.47,0.59,7.86-1.87,9.49c-0.35,0.23-1.14,0.3-1.36,0.08c-0.34-0.35-0.59-1.05-0.48-1.52
			C793.35,501.18,793.83,500.49,794.26,499.6z"/>
		<path d="M771.98,484.28c2.38-1.29,4.74-2.62,7.15-3.87c1.51-0.78,3.05-1.55,4.66-2.1c0.5-0.17,1.25,0.4,1.89,0.63
			c-0.38,0.46-0.68,1.09-1.17,1.35c-3.14,1.68-6.29,3.35-9.52,4.84c-0.79,0.37-1.9,0.05-2.86,0.05
			C772.08,484.88,772.03,484.58,771.98,484.28z"/>
		<path d="M800.08,477.13c2.08,0.49,6.02,5.21,6.06,7.26C804.36,484.11,800.43,479.4,800.08,477.13z"/>
		<path class="vol2_3_st0" d="M779.31,521.14c1.71,1.33,3.17,2.46,4.74,3.67c-0.71,2.53-2.96,4.09-6.63,4.31c-3.23,0.2-5.42-1.49-7.11-5.74
			C774.13,525.07,777.01,523.71,779.31,521.14z"/>
	</g>
</g>
</svg>
