<?xml version="1.0" encoding="utf-8"?>
<!-- Generator: Adobe Illustrator 26.3.1, SVG Export Plug-In . SVG Version: 6.00 Build 0)  -->
<svg version="1.1" xmlns="http://www.w3.org/2000/svg" xmlns:xlink="http://www.w3.org/1999/xlink" x="0px" y="0px"
	 viewBox="0 0 1366 768" style="enable-background:new 0 0 1366 768;" xml:space="preserve">
<style type="text/css">
	.st0{fill:#FFFFFF;}
	.st1{fill:none;stroke:#000000;stroke-width:59.5276;stroke-miterlimit:10;}
</style>
<g id="base">
	<g>
		<path class="st0" d="M907.2,591.3c-149.85,0-299.7,0-449.55,0c0-149.85,0-299.7,0-449.55c149.85,0,299.7,0,449.55,0
			C907.2,291.6,907.2,441.45,907.2,591.3z M730.89,402.88c0.59,0.79,0.83,1.15,1.11,1.49c1.26,1.57,2.25,3.54,3.84,4.63
			c7.03,4.81,14.37,9.24,22.48,11.88c6.23,2.03,12.8,3.02,19.22,4.44c3.68,0.81,5.08,0.01,7.09-3.07c2.11-3.24,4.34-6.45,6.86-9.38
			c5.61-6.53,11.16-13.07,14.86-20.93c0.37-0.79,0.98-1.69,0.88-2.46c-0.8-5.98-1.08-12.14-2.8-17.86
			c-3.35-11.17-8.66-21.46-16.52-30.26c-6.93-7.76-14.42-14.97-22.69-21.27c-4.08-3.11-8.49-5.86-13.02-8.28
			c-3.8-2.02-7.86-3.79-12.02-4.85c-9.26-2.37-18.61-4.37-27.98-6.26c-6.07-1.22-12.22-2.51-18.37-2.78
			c-5.12-0.23-10.33,0.85-15.46,1.62c-3.8,0.57-7.55,1.53-11.31,2.41c-3.11,0.73-6.22,1.5-9.28,2.41
			c-4.07,1.21-8.12,2.49-12.13,3.88c-3.94,1.36-7.83,2.86-11.72,4.36c-2.85,1.1-5.59,2.79-8.53,3.31c-2.58,0.45-4.23,1.37-5.75,3.43
			c-4.64,6.3-9.84,12.21-14.13,18.73c-3.7,5.62-6.2,12.01-9.69,17.79c-2.88,4.77-6.46,9.11-9.66,13.69
			c-2.13,3.05-4.68,5.96-6.09,9.33c-3.05,7.29-5.31,14.88-6.43,22.76c-0.69,4.86-1.18,9.76,1.41,14.21c1.21,2.07,2.72,4.3,4.68,5.54
			c5.17,3.29,12.24,2.5,16.8-1.56c8.78-7.82,18.36-14.56,28.11-21.07c2.28-1.52,4.6-2.99,7.46-4.85
			c-0.76,5.94-1.96,11.37-0.95,16.95c1.03,5.71,3.39,10.72,7.16,15.45c-3.01,1.85-5.9,3.53-8.69,5.35
			c-9.24,6.03-19.54,8.85-30.37,9.95c-1.68,0.17-3.59-0.32-5.16-1.02c-5.02-2.26-9.88-4.86-14.89-7.14
			c-3.6-1.63-7.53-2.65-9.98-6.11c-1.75-2.48-3.66-4.89-5.07-7.56c-2.37-4.49-5.36-8.66-6.66-13.73c-1.38-5.36-2-10.67-0.31-16.02
			c1.56-4.97,3.39-9.82,6.61-14.03c3.15-4.11,5.39-8.96,9.87-11.97c0.18-0.12,0.31-0.31,0.47-0.47c3.53-3.31,7.04-6.65,10.61-9.92
			c4.03-3.69,8.42-7.04,12.12-11.03c4.82-5.21,9.21-10.84,13.61-16.42c4.16-5.28,8.16-10.69,12.09-16.15
			c2.16-3.01,3.9-6.34,6.04-9.37c3.41-4.84,5.84-10.12,6.61-15.95c0.49-3.71,0.41-7.56,0.08-11.31c-0.74-8.6-1.12-17.22-4.97-25.34
			c-2.98-6.29-7.1-11.25-13.04-14.62c-7.02-3.98-14.17-7.75-21.34-11.45c-9.57-4.94-19.19-9.77-28.84-14.54
			c-4.11-2.03-8.54-3.15-13.01-1.58c-2.83,0.99-5.34,2.85-8.07,4.14c-8.62,4.09-15.48,10.45-22.08,17.11
			c-3.16,3.18-6.29,6.42-9.14,9.87c-2.27,2.74-4.31,5.73-6.06,8.83c-1.37,2.43-1.71,5.47-3.24,7.75c-3.03,4.51-4.49,9.55-5.8,14.66
			c-0.84,3.27-1.19,6.67-1.71,10.02c-1.12,7.18-2.18,14.36-3.33,21.54c-1.1,6.88-2.46,13.68-0.24,20.69
			c1.14,3.62,1.36,7.54,1.92,11.34c0.73,5,1.37,10.01,2.09,15.02c0.31,2.19,0.56,4.41,1.15,6.53c0.58,2.08,1.48,4.08,2.39,6.05
			c1.57,3.43,3.12,6.88,4.93,10.18c1.26,2.3,3.02,4.31,4.4,6.55c3.26,5.26,6.44,10.56,9.63,15.86c2.55,4.24,4.85,8.65,7.65,12.72
			c3.35,4.86,7.11,9.45,10.71,14.15c3.35,4.38,6.59,8.84,10.11,13.08c4.8,5.8,10.68,9.76,18.57,9.82c0.37,0,0.74,0.1,1.11,0.15
			c11.45,1.51,22.93,2.92,34.36,4.59c4.75,0.69,9.23-0.24,13.73-1.31c6.23-1.48,12.69-2.42,18.2-5.99c3.11-2.02,5.96-4.43,9-6.72
			c0.65,0.33,1.32,0.65,1.97,1.02c9.32,5.43,19.2,9.34,29.92,10.9c5.99,0.87,11.98,2.03,18,2.25c9.45,0.35,18.72-1.52,27.96-3.42
			c3.84-0.79,6.31-2.98,7.71-6.41c1.26-3.09,2.28-6.29,3.24-9.48c0.38-1.26,0.51-2.66,0.41-3.97c-0.17-2.38-0.61-4.74-0.92-7.1
			C732.05,411.97,731.51,407.71,730.89,402.88z M806.88,529.75c-0.83,0.76-1.43,1.27-1.99,1.83c-0.57,0.57-0.98,1.39-1.65,1.76
			c-3.83,2.16-7.58,4.6-11.64,6.19c-2.67,1.05-5.84,1.08-8.79,1.08c-1.87,0-3.54-1.29-3.26-3.52c0.24-1.98,0.74-3.98,1.49-5.82
			c0.93-2.27,2.08-4.5,3.42-6.55c2.54-3.9,6.05-6.66,10.64-7.79c0.55-0.14,1.45,0.26,1.9,0.7c2.43,2.41,4.68,5.01,7.17,7.35
			c4.18,3.92,8.47,7.74,12.78,11.51c5.26,4.61,10.86,1.23,13.01-3.71c1.99-4.56,3.11-9.55,4.24-14.44c0.88-3.83,1.24-7.79,1.76-11.7
			c0.42-3.14,0.91-6.29,1.05-9.44c0.15-3.34-0.11-6.7-0.14-10.05c-0.06-7.24,2.2-13.36,8.41-17.68c2.59-1.8,4.97-3.9,7.41-5.92
			c1.12-0.93,2.1-2.02,3.21-2.97c2.31-1.98,4.66-3.9,6.99-5.85c1.3-1.09,2.47-2.37,3.89-3.26c4.63-2.93,6.32-7.67,7.97-12.46
			c0.13-0.39,0.07-0.89-0.03-1.31c-0.98-4.07-3.21-7.28-6.67-9.65c-1.78-1.23-3.6-2.43-5.23-3.84c-3.15-2.73-6.23-3.22-9.87-1.23
			c-1.9,1.04-3.73,2.19-5.56,3.34c-4.17,2.63-8.41,5.4-10.81,9.77c-3.08,5.61-5.67,11.51-8.14,17.42c-0.83,1.99-1.75,2.43-3.66,2.09
			c-11.91-2.13-23.72-5.02-35.95-4.83c-13.16,0.2-26.33,0.17-39.49,0.62c-9.49,0.33-18.94,1.55-28.47,0.64
			c-0.72-0.07-2.02,0.47-2.18,0.99c-0.46,1.49,0.68,2.17,2.01,2.3c1.79,0.18,3.59,0.36,5.38,0.29c5.9-0.26,11.79-0.66,17.69-0.95
			c5.23-0.26,10.47-0.52,15.71-0.68c9.95-0.3,19.91-0.55,29.86-0.79c9.49-0.23,18.75,1.8,28.09,2.98c2.82,0.36,5.69,0.67,8.39,1.49
			c4.72,1.43,4.33,1.48,5.74-3.02c1.27-4.07,3.57-7.81,5.11-11.82c1.45-3.77,3.14-7.31,6.49-9.71c3.98-2.85,8.02-5.64,12.17-8.24
			c0.9-0.57,2.65-0.69,3.56-0.19c3.14,1.72,6.52,3.36,8.99,5.84c3.97,3.99,5.24,6.47,2.11,11.21c-1.8,2.73-3.38,5.65-6.22,7.7
			c-2.45,1.76-4.31,4.32-6.64,6.27c-5.28,4.42-10.73,8.62-16.02,13.02c-3.51,2.91-7.03,5.91-7.29,11.01
			c-0.3,5.81-0.57,11.63-0.85,17.44c-0.12,2.54-0.02,5.11-0.39,7.61c-0.91,6.07-1.95,12.13-3.11,18.16
			c-0.55,2.84-0.89,5.98-2.38,8.32c-3.68,5.81-4.97,6.52-10.02,2.1c-4.61-4.03-9.16-8.13-13.65-12.3c-1.41-1.31-2.62-2.87-3.75-4.45
			c-0.94-1.31-0.55-2.51,0.89-3.32c0.36-0.2,0.67-0.49,1.43-1.05c-1.01-0.47-1.73-1.13-2.33-1.04c-1.85,0.29-2.37-0.71-2.68-2.19
			c-0.92-4.38-2.06-8.73-2.76-13.14c-0.38-2.38-1.25-4.29-3.37-5.18c-3.14-1.32-6.38-2.96-9.68-3.25
			c-8.41-0.72-16.38,1.63-24.13,4.81c-4.19,1.72-5.87,5.33-5.59,9.2c0.44,6.05,1.74,12.05,2.96,18.01
			c0.78,3.79,1.73,7.45,1.59,11.44c-0.27,7.8-4.3,13.56-9.19,19c-2.46,2.74-5.69,3.85-9.23,4.44c-5.63,0.94-11.23,1.81-16.86,0.04
			c-5.52-1.74-5.76-6.6-6.37-11.08c-0.34-2.48,2.48-2.28,3.76-3.41c0.07-0.06,0.03-0.26,0.07-0.74c-1.49,0.33-2.89,0.64-4.63,1.03
			c0-2.48-0.3-4.81,0.05-7.04c1.2-7.5,1.74-14.99,0.92-22.59c-0.17-1.56,0.49-3.28,1.06-4.82c0.59-1.63,1.3-3.33-0.42-4.43
			c-1.72-1.1-1.92-2.61-1.98-4.28c-0.2-5.51-1.22-10.79-3.72-15.78c-2.44-4.87-4.45-9.96-6.94-14.8c-1.36-2.63-3.26-5-5.08-7.35
			c-0.36-0.47-1.47-0.37-2.24-0.53c0.15,0.69,0.14,1.48,0.48,2.06c2.55,4.26,5.37,8.37,7.71,12.74c1.85,3.46,3.16,7.21,4.67,10.84
			c0.68,1.64,1.62,3.27,1.81,4.98c0.51,4.51,0.67,9.05,0.99,13.58c0.16,2.22-0.55,4.02-2.24,5.52c-3.96,3.52-7.78,7.22-11.83,10.63
			c-3.53,2.97-7.29,5.68-10.98,8.47c-5.38,4.05-6.79,6.68-3.24,13.3c3.47,6.49,11.45,8.64,18.8,5.75c3.17-1.24,6.43-2.24,9.86-3.42
			c0.36,1.58,0.8,2.86,0.93,4.18c0.47,4.71,3.15,7.64,7.39,9.22c5.78,2.15,11.7,1.5,17.68,0.96c5.38-0.49,9.69-2.77,13.31-6.51
			c1.44-1.48,2.22-3.61,3.69-5.05c3.04-2.97,4.33-6.64,5.27-10.62c1.7-7.26-1.45-13.84-2.76-20.66c-0.86-4.47-2.53-8.77-2.14-13.46
			c0.29-3.48,2.08-6.28,5.32-7.25c4.36-1.3,8.74-2.58,13.18-3.49c5.2-1.07,10.45-1.2,15.29,1.57c0.88,0.5,1.84,1.47,2.07,2.4
			c1.07,4.32,1.85,8.71,2.83,13.06c1.15,5.13,0.79,5.78-3.81,8.51c-2.27,1.35-4.84,2.74-6.3,4.81c-2.8,3.95-5.07,8.32-7.24,12.67
			c-1.38,2.77-0.61,5.63,1.54,7.26c0.99,0.75,2.21,1.33,3.41,1.62c4.93,1.2,9.72,0.38,14.18-1.77c3.34-1.61,6.47-3.68,9.62-5.67
			C806.27,533.8,807.35,532.38,806.88,529.75z"/>
		<path d="M730.89,402.88c0.62,4.84,1.16,9.09,1.72,13.34c0.31,2.37,0.75,4.73,0.92,7.1c0.1,1.31-0.03,2.72-0.41,3.97
			c-0.96,3.2-1.98,6.39-3.24,9.48c-1.4,3.43-3.87,5.63-7.71,6.41c-9.24,1.9-18.51,3.77-27.96,3.42c-6.02-0.22-12.01-1.38-18-2.25
			c-10.72-1.56-20.6-5.46-29.92-10.9c-0.64-0.37-1.32-0.69-1.97-1.02c-3.04,2.29-5.89,4.7-9,6.72c-5.51,3.57-11.96,4.51-18.2,5.99
			c-4.5,1.07-8.98,2-13.73,1.31c-11.43-1.67-22.9-3.08-34.36-4.59c-0.37-0.05-0.74-0.14-1.11-0.15c-7.89-0.06-13.77-4.02-18.57-9.82
			c-3.51-4.24-6.76-8.71-10.11-13.08c-3.6-4.7-7.35-9.28-10.71-14.15c-2.8-4.07-5.1-8.48-7.65-12.72c-3.19-5.3-6.37-10.6-9.63-15.86
			c-1.39-2.23-3.15-4.25-4.4-6.55c-1.81-3.3-3.36-6.75-4.93-10.18c-0.9-1.97-1.8-3.97-2.39-6.05c-0.59-2.12-0.84-4.34-1.15-6.53
			c-0.72-5-1.36-10.02-2.09-15.02c-0.56-3.8-0.78-7.72-1.92-11.34c-2.21-7.01-0.86-13.8,0.24-20.69c1.15-7.17,2.21-14.36,3.33-21.54
			c0.52-3.35,0.87-6.75,1.71-10.02c1.31-5.1,2.77-10.15,5.8-14.66c1.53-2.28,1.88-5.32,3.24-7.75c1.75-3.1,3.79-6.09,6.06-8.83
			c2.85-3.45,5.99-6.68,9.14-9.87c6.61-6.66,13.46-13.02,22.08-17.11c2.73-1.3,5.25-3.16,8.07-4.14c4.47-1.56,8.9-0.45,13.01,1.58
			c9.65,4.77,19.27,9.61,28.84,14.54c7.17,3.7,14.32,7.47,21.34,11.45c5.94,3.37,10.05,8.33,13.04,14.62
			c3.85,8.12,4.23,16.73,4.97,25.34c0.32,3.75,0.41,7.6-0.08,11.31c-0.77,5.83-3.2,11.11-6.61,15.95c-2.14,3.03-3.87,6.36-6.04,9.37
			c-3.92,5.46-7.93,10.87-12.09,16.15c-4.4,5.59-8.79,11.21-13.61,16.42c-3.7,4-8.09,7.34-12.12,11.03
			c-3.57,3.27-7.08,6.61-10.61,9.92c-0.16,0.15-0.29,0.34-0.47,0.47c-4.48,3.01-6.72,7.86-9.87,11.97
			c-3.22,4.21-5.05,9.06-6.61,14.03c-1.69,5.35-1.07,10.66,0.31,16.02c1.3,5.06,4.3,9.23,6.66,13.73c1.41,2.67,3.32,5.08,5.07,7.56
			c2.44,3.46,6.38,4.47,9.98,6.11c5.01,2.28,9.88,4.88,14.89,7.14c1.57,0.71,3.48,1.19,5.16,1.02c10.83-1.09,21.13-3.91,30.37-9.95
			c2.79-1.82,5.68-3.5,8.69-5.35c-3.77-4.73-6.13-9.74-7.16-15.45c-1-5.57,0.19-11.01,0.95-16.95c-2.86,1.86-5.17,3.33-7.46,4.85
			c-9.75,6.51-19.33,13.25-28.11,21.07c-4.56,4.06-11.63,4.85-16.8,1.56c-1.96-1.25-3.47-3.47-4.68-5.54
			c-2.59-4.45-2.1-9.34-1.41-14.21c1.12-7.88,3.39-15.47,6.43-22.76c1.41-3.37,3.96-6.28,6.09-9.33c3.2-4.58,6.78-8.92,9.66-13.69
			c3.49-5.78,5.99-12.17,9.69-17.79c4.29-6.52,9.5-12.43,14.13-18.73c1.52-2.07,3.17-2.98,5.75-3.43c2.95-0.52,5.68-2.2,8.53-3.31
			c3.89-1.5,7.78-3,11.72-4.36c4.01-1.39,8.06-2.67,12.13-3.88c3.06-0.91,6.17-1.68,9.28-2.41c3.75-0.88,7.5-1.84,11.31-2.41
			c5.13-0.77,10.34-1.84,15.46-1.62c6.16,0.27,12.3,1.56,18.37,2.78c9.37,1.89,18.73,3.88,27.98,6.26
			c4.16,1.06,8.22,2.83,12.02,4.85c4.53,2.41,8.94,5.17,13.02,8.28c8.28,6.3,15.76,13.51,22.69,21.27
			c7.85,8.8,13.17,19.1,16.52,30.26c1.72,5.72,1.99,11.88,2.8,17.86c0.1,0.77-0.51,1.67-0.88,2.46c-3.71,7.86-9.26,14.4-14.86,20.93
			c-2.52,2.93-4.75,6.13-6.86,9.38c-2.01,3.08-3.41,3.89-7.09,3.07c-6.42-1.42-12.99-2.41-19.22-4.44
			c-8.11-2.64-15.45-7.07-22.48-11.88c-1.59-1.09-2.58-3.06-3.84-4.63C731.72,404.03,731.47,403.67,730.89,402.88z M728.43,389.16
			c0.29-0.1,0.58-0.2,0.87-0.3c0.35,0.9,0.83,1.76,1.01,2.69c0.56,2.83,0.5,5.91,1.62,8.49c2.28,5.28,6.08,9.25,11.57,11.64
			c7.26,3.17,13.54,8.5,21.97,9.12c4.04,0.3,8,1.77,11.98,2.75c1.31,0.32,2.23,0.15,3-1.16c0.98-1.67,2.21-3.2,3.4-4.73
			c5.09-6.54,10.39-12.93,15.22-19.66c1.9-2.64,3.78-5.99,3.87-9.08c0.17-5.24-0.69-10.61-1.87-15.75
			c-0.94-4.1-2.68-8.11-4.65-11.85c-3.01-5.74-5.94-11.69-9.97-16.7c-4.8-5.96-10.73-11.01-16.17-16.46
			c-7.94-7.95-17.28-13.9-27.76-17.65c-6.85-2.45-14.15-3.76-21.32-5.17c-7.9-1.55-15.86-2.93-23.86-3.76
			c-4.22-0.44-8.65,0.11-12.87,0.83c-6.3,1.08-12.52,2.68-18.76,4.11c-4.57,1.05-9.18,1.96-13.66,3.31
			c-6.28,1.89-12.52,3.96-18.66,6.29c-4.05,1.54-8.34,2.78-11.04,6.78c-2.14,3.17-4.83,5.97-7.09,9.08c-3.3,4.54-6.93,8.84-9,14.23
			c-1.13,2.94-3.16,5.53-4.74,8.3c-1.35,2.36-2.43,4.91-3.99,7.12c-2.06,2.91-4.53,5.52-6.73,8.33c-1.14,1.45-2.11,3.04-3.14,4.58
			c-1.19,1.76-2.84,3.38-3.48,5.32c-2.52,7.63-5.11,15.27-6.87,23.09c-0.8,3.55-0.29,7.65,0.61,11.26c1.69,6.81,9.68,9.07,14.95,4.5
			c9.97-8.64,20.59-16.4,31.85-23.25c4.17-2.53,6.99-5.71,7.14-10.8c0.02-0.51,0.39-1.01,0.74-1.86c0.67,1.15,1.13,1.95,1.63,2.8
			c0.43-0.23,0.74-0.44,1.08-0.57c0.61-0.25,1.54-0.82,1.81-0.6c0.52,0.42,0.96,1.3,0.94,1.97c-0.04,1.33-0.28,2.69-0.7,3.96
			c-1.72,5.21-2.5,10.53-2.64,16.02c-0.18,6.85,2.39,12.61,6.01,17.89c4.37-2.17,8.51-4.2,12.62-6.28
			c5.14-2.6,10.29-5.17,16.32-4.54c0.5,0.05,0.97,0.49,1.45,0.75c-0.35,0.38-0.64,0.91-1.08,1.11c-1.62,0.75-3.47,1.13-4.92,2.11
			c-6.15,4.12-12.2,8.41-18.47,12.76c1.04,0.82,1.66,1.35,2.32,1.82c0.61,0.43,1.25,0.84,1.92,1.16c8.32,3.94,16.64,7.98,25.89,9.22
			c7.4,1,14.86,2.4,22.28,2.3c6.96-0.1,13.89-1.99,20.84-3c3.96-0.58,6.19-2.83,7.16-6.61c0.38-1.51,1.12-2.92,1.49-4.43
			c0.75-3.1,1.73-6.1,1.03-9.47c-1.11-5.33-1.87-10.75-2.55-16.16c-0.59-4.71-0.86-9.46-1.26-14.19c-0.01-0.11,0.11-0.24,0.2-0.42
			c0.57,0.26,1.12,0.52,1.77,0.82C728.01,390.39,728.22,389.77,728.43,389.16z M586.82,441.56c0.1-0.23,0.19-0.47,0.29-0.7
			c-3.22-1.62-6.34-3.54-9.7-4.79c-4.01-1.5-7.98-2.98-10.92-6.19c-1.44-1.56-2.62-3.41-3.66-5.27c-3.06-5.44-6.16-10.87-8.93-16.46
			c-1.5-3.03-2.57-6.35-2.2-9.84c0.22-2.04,0.82-4.04,1.24-6.06c0.3-1.46,0.37-3,0.88-4.38c0.99-2.61,2.04-5.24,3.4-7.67
			c2.14-3.82,4.11-7.89,6.99-11.09c3.72-4.14,7.18-8.62,11.63-12.1c1.12-0.87,1.97-2.09,3.1-2.94c7.58-5.72,14.17-12.49,20.45-19.56
			c2.91-3.28,5.57-6.78,8.18-10.31c5.23-7.07,10.55-14.09,15.44-21.4c2.81-4.19,5.15-8.76,7.17-13.39
			c2.23-5.11,2.01-10.64,1.58-16.14c-0.64-8.27-1.09-16.5-4.57-24.29c-3.16-7.06-7.62-12.58-14.87-15.66
			c-2.75-1.16-5.46-2.45-8.07-3.89c-5.49-3.04-10.8-6.41-16.36-9.3c-7.23-3.75-14.59-7.24-21.96-10.71
			c-4.56-2.15-9.15-1.91-13.57,0.56c-2.13,1.19-4.16,2.56-6.34,3.61c-6.22,2.99-11.32,7.39-16.03,12.34
			c-2.47,2.59-5.02,5.11-7.47,7.71c-2.35,2.49-5.13,4.74-6.82,7.63c-3.47,5.9-6.81,11.97-9.32,18.33
			c-2.53,6.39-4.47,13.1-5.78,19.84c-1.44,7.41-1.82,15.02-2.73,22.54c-0.53,4.36-1.61,8.64-0.61,13.11
			c0.78,3.48,1.31,7.04,1.66,10.59c0.89,8.94,2.14,17.76,4.55,26.48c1.65,5.98,4.25,11.35,7.29,16.61c3.4,5.87,6.9,11.68,10.4,17.49
			c2.92,4.84,5.74,9.77,8.93,14.43c3.32,4.84,7.04,9.42,10.58,14.11c4.13,5.48,8.32,10.92,12.38,16.45c3.2,4.36,7.74,6.2,12.79,7.09
			c4.64,0.82,9.32,1.44,13.98,2.15C582.16,440.85,584.49,441.21,586.82,441.56z M642.42,431.38c-3.18-3.97-2.58-3.42-6-1.35
			c-2.36,1.42-4.6,3.06-7.03,4.33c-4.35,2.26-8.78,4.39-13.25,6.43c-2.05,0.94-4.26,1.53-6.39,2.27c0.07,0.19,0.14,0.37,0.21,0.56
			C621.4,441.26,633.66,441.12,642.42,431.38z M645.22,429.27c5.27-3.79,10.17-7.32,15.06-10.85c-0.2-0.31-0.4-0.62-0.6-0.93
			c-5.72,2.86-11.44,5.72-17.06,8.53C643.66,427.31,644.45,428.3,645.22,429.27z"/>
		<path d="M806.88,529.75c0.47,2.63-0.61,4.04-2.18,5.03c-3.15,1.98-6.27,4.06-9.62,5.67c-4.46,2.15-9.26,2.97-14.18,1.77
			c-1.2-0.29-2.42-0.88-3.41-1.62c-2.15-1.62-2.92-4.48-1.54-7.26c2.17-4.35,4.44-8.72,7.24-12.67c1.46-2.06,4.03-3.46,6.3-4.81
			c4.6-2.73,4.96-3.38,3.81-8.51c-0.98-4.35-1.76-8.74-2.83-13.06c-0.23-0.93-1.19-1.9-2.07-2.4c-4.83-2.77-10.09-2.64-15.29-1.57
			c-4.45,0.92-8.83,2.19-13.18,3.49c-3.23,0.97-5.03,3.78-5.32,7.25c-0.39,4.68,1.28,8.99,2.14,13.46
			c1.31,6.82,4.46,13.4,2.76,20.66c-0.93,3.98-2.23,7.65-5.27,10.62c-1.47,1.44-2.26,3.56-3.69,5.05
			c-3.62,3.74-7.93,6.02-13.31,6.51c-5.98,0.54-11.9,1.19-17.68-0.96c-4.25-1.58-6.93-4.51-7.39-9.22c-0.13-1.31-0.57-2.6-0.93-4.18
			c-3.43,1.18-6.69,2.17-9.86,3.42c-7.36,2.89-15.33,0.74-18.8-5.75c-3.54-6.63-2.14-9.25,3.24-13.3c3.69-2.78,7.45-5.49,10.98-8.47
			c4.05-3.41,7.87-7.11,11.83-10.63c1.68-1.5,2.39-3.3,2.24-5.52c-0.33-4.53-0.48-9.07-0.99-13.58c-0.19-1.71-1.13-3.34-1.81-4.98
			c-1.51-3.64-2.82-7.39-4.67-10.84c-2.34-4.37-5.16-8.48-7.71-12.74c-0.35-0.58-0.33-1.37-0.48-2.06c0.77,0.16,1.88,0.06,2.24,0.53
			c1.82,2.36,3.72,4.72,5.08,7.35c2.49,4.84,4.51,9.93,6.94,14.8c2.5,5,3.52,10.28,3.72,15.78c0.06,1.68,0.26,3.18,1.98,4.28
			c1.72,1.1,1.01,2.8,0.42,4.43c-0.56,1.54-1.22,3.26-1.06,4.82c0.82,7.59,0.28,15.08-0.92,22.59c-0.36,2.23-0.05,4.56-0.05,7.04
			c1.74-0.39,3.14-0.7,4.63-1.03c-0.04,0.48,0.01,0.68-0.07,0.74c-1.28,1.13-4.1,0.94-3.76,3.41c0.61,4.47,0.85,9.33,6.37,11.08
			c5.63,1.78,11.23,0.91,16.86-0.04c3.54-0.59,6.77-1.71,9.23-4.44c4.89-5.44,8.92-11.21,9.19-19c0.14-3.99-0.82-7.65-1.59-11.44
			c-1.22-5.96-2.52-11.97-2.96-18.01c-0.28-3.87,1.4-7.49,5.59-9.2c7.74-3.18,15.71-5.53,24.13-4.81c3.3,0.28,6.54,1.92,9.68,3.25
			c2.12,0.89,2.99,2.8,3.37,5.18c0.7,4.42,1.84,8.76,2.76,13.14c0.31,1.48,0.82,2.48,2.68,2.19c0.61-0.09,1.33,0.56,2.33,1.04
			c-0.75,0.56-1.07,0.84-1.43,1.05c-1.44,0.81-1.83,2.01-0.89,3.32c1.12,1.57,2.34,3.14,3.75,4.45c4.49,4.17,9.04,8.27,13.65,12.3
			c5.05,4.41,6.34,3.71,10.02-2.1c1.48-2.34,1.83-5.48,2.38-8.32c1.16-6.03,2.21-12.08,3.11-18.16c0.37-2.5,0.27-5.07,0.39-7.61
			c0.28-5.82,0.55-11.63,0.85-17.44c0.26-5.1,3.78-8.09,7.29-11.01c5.29-4.4,10.74-8.6,16.02-13.02c2.33-1.95,4.2-4.51,6.64-6.27
			c2.84-2.05,4.42-4.97,6.22-7.7c3.14-4.74,1.86-7.22-2.11-11.21c-2.47-2.48-5.85-4.12-8.99-5.84c-0.91-0.5-2.65-0.38-3.56,0.19
			c-4.15,2.6-8.19,5.39-12.17,8.24c-3.35,2.4-5.04,5.94-6.49,9.71c-1.54,4-3.84,7.74-5.11,11.82c-1.41,4.5-1.02,4.45-5.74,3.02
			c-2.7-0.82-5.57-1.13-8.39-1.49c-9.34-1.18-18.6-3.21-28.09-2.98c-9.95,0.24-19.91,0.48-29.86,0.79
			c-5.24,0.16-10.47,0.42-15.71,0.68c-5.9,0.3-11.79,0.7-17.69,0.95c-1.79,0.08-3.59-0.11-5.38-0.29c-1.32-0.13-2.47-0.81-2.01-2.3
			c0.16-0.52,1.46-1.06,2.18-0.99c9.52,0.91,18.98-0.32,28.47-0.64c13.15-0.45,26.33-0.41,39.49-0.62
			c12.23-0.19,24.04,2.69,35.95,4.83c1.91,0.34,2.82-0.1,3.66-2.09c2.47-5.91,5.06-11.81,8.14-17.42c2.4-4.37,6.64-7.14,10.81-9.77
			c1.83-1.16,3.67-2.3,5.56-3.34c3.64-1.99,6.71-1.5,9.87,1.23c1.63,1.41,3.45,2.62,5.23,3.84c3.46,2.38,5.69,5.58,6.67,9.65
			c0.1,0.42,0.17,0.92,0.03,1.31c-1.65,4.79-3.35,9.53-7.97,12.46c-1.42,0.9-2.59,2.17-3.89,3.26c-2.33,1.95-4.68,3.88-6.99,5.85
			c-1.11,0.95-2.09,2.04-3.21,2.97c-2.43,2.02-4.82,4.12-7.41,5.92c-6.21,4.32-8.47,10.43-8.41,17.68
			c0.03,3.35,0.29,6.71,0.14,10.05c-0.14,3.16-0.63,6.3-1.05,9.44c-0.52,3.91-0.87,7.87-1.76,11.7c-1.13,4.89-2.25,9.87-4.24,14.44
			c-2.15,4.94-7.75,8.32-13.01,3.71c-4.31-3.78-8.6-7.59-12.78-11.51c-2.5-2.34-4.74-4.95-7.17-7.35c-0.45-0.44-1.34-0.84-1.9-0.7
			c-4.59,1.13-8.09,3.89-10.64,7.79c-1.34,2.06-2.49,4.28-3.42,6.55c-0.75,1.84-1.25,3.84-1.49,5.82c-0.27,2.23,1.39,3.51,3.26,3.52
			c2.95,0.01,6.12-0.03,8.79-1.08c4.07-1.59,7.81-4.03,11.64-6.19c0.67-0.38,1.08-1.19,1.65-1.76
			C805.45,531.02,806.05,530.51,806.88,529.75z M710.86,511.27c-2.17,1.98-3.83,3.66-5.66,5.14c-5.72,4.62-11.54,9.11-17.21,13.79
			c-1.31,1.08-2.76,2.6-3.11,4.15c-1.11,4.95,4.28,11.07,9.4,10.98c5.55-0.1,10.7-1.88,15.76-3.98c0.46-0.19,0.96-0.92,1-1.42
			c0.26-3.85,0.48-7.71,0.56-11.57c0.1-4.66,0.08-9.31,0.03-13.97C711.62,513.52,711.21,512.65,710.86,511.27z"/>
		<path class="st0" d="M728.43,389.16c-0.21,0.62-0.42,1.23-0.69,2.04c-0.65-0.3-1.2-0.56-1.77-0.82c-0.09,0.18-0.21,0.3-0.2,0.42
			c0.4,4.73,0.67,9.48,1.26,14.19c0.68,5.41,1.43,10.82,2.55,16.16c0.71,3.38-0.28,6.37-1.03,9.47c-0.36,1.51-1.1,2.93-1.49,4.43
			c-0.97,3.78-3.2,6.04-7.16,6.61c-6.95,1.01-13.88,2.9-20.84,3c-7.41,0.11-14.87-1.3-22.28-2.3c-9.25-1.25-17.57-5.28-25.89-9.22
			c-0.67-0.32-1.31-0.73-1.92-1.16c-0.67-0.47-1.29-1-2.32-1.82c6.27-4.36,12.32-8.64,18.47-12.76c1.46-0.98,3.3-1.36,4.92-2.11
			c0.44-0.2,0.72-0.73,1.08-1.11c-0.48-0.26-0.95-0.7-1.45-0.75c-6.03-0.63-11.18,1.94-16.32,4.54c-4.11,2.08-8.25,4.11-12.62,6.28
			c-3.62-5.28-6.19-11.04-6.01-17.89c0.15-5.49,0.93-10.81,2.64-16.02c0.42-1.26,0.65-2.63,0.7-3.96c0.02-0.67-0.42-1.56-0.94-1.97
			c-0.27-0.22-1.19,0.36-1.81,0.6c-0.34,0.14-0.65,0.34-1.08,0.57c-0.5-0.85-0.96-1.65-1.63-2.8c-0.35,0.86-0.72,1.35-0.74,1.86
			c-0.15,5.09-2.97,8.26-7.14,10.8c-11.27,6.85-21.88,14.61-31.85,23.25c-5.27,4.56-13.26,2.31-14.95-4.5
			c-0.89-3.61-1.41-7.71-0.61-11.26c1.76-7.82,4.35-15.46,6.87-23.09c0.64-1.95,2.29-3.56,3.48-5.32c1.04-1.53,2-3.12,3.14-4.58
			c2.21-2.81,4.67-5.42,6.73-8.33c1.57-2.21,2.64-4.75,3.99-7.12c1.58-2.77,3.61-5.36,4.74-8.3c2.07-5.39,5.7-9.69,9-14.23
			c2.25-3.11,4.94-5.91,7.09-9.08c2.7-4,6.99-5.24,11.04-6.78c6.13-2.33,12.37-4.4,18.66-6.29c4.48-1.35,9.09-2.26,13.66-3.31
			c6.24-1.43,12.45-3.03,18.76-4.11c4.23-0.72,8.65-1.27,12.87-0.83c8,0.83,15.96,2.22,23.86,3.76c7.18,1.41,14.47,2.72,21.32,5.17
			c10.48,3.75,19.82,9.7,27.76,17.65c5.44,5.45,11.37,10.5,16.17,16.46c4.03,5,6.96,10.95,9.97,16.7c1.96,3.74,3.7,7.75,4.65,11.85
			c1.18,5.14,2.03,10.51,1.87,15.75c-0.1,3.08-1.98,6.43-3.87,9.08c-4.83,6.73-10.13,13.12-15.22,19.66
			c-1.19,1.53-2.42,3.06-3.4,4.73c-0.77,1.31-1.69,1.48-3,1.16c-3.99-0.98-7.94-2.45-11.98-2.75c-8.44-0.62-14.71-5.95-21.97-9.12
			c-5.49-2.39-9.29-6.36-11.57-11.64c-1.11-2.58-1.05-5.65-1.62-8.49c-0.18-0.93-0.66-1.8-1.01-2.69
			C729.01,388.96,728.72,389.06,728.43,389.16z M674.07,404.45c-0.15,0.91-0.58,1.89-0.35,2.69c0.14,0.49,1.26,0.89,1.98,0.97
			c1.84,0.22,3.56,0.14,4.27,2.56c0.53,1.81,2.4,2.54,4.22,2.36c3.56-0.35,7.16-0.68,10.61-1.55c2.42-0.61,4.64-1.99,5.73-4.63
			c0.99-2.4,0.45-3.97-2.07-4.58c-1.77-0.43-2.78-1.47-3.11-3.12c-0.51-2.56-0.91-5.14-1.25-7.72c-0.27-2.05-2.32-4.56-4.25-4.99
			c-4.89-1.09-10.67,4.94-9.18,9.75c0.4,1.28,1.54,2.58,2.69,3.33c2.3,1.49,2.4,1.56-0.44,3.4c-0.21-0.46-0.46-1.02-0.9-2.01
			c-0.92,1.17-1.68,1.87-2.1,2.73C678.71,406.16,676.59,406.57,674.07,404.45z M677.09,359.59c-0.23-0.05-0.46-0.09-0.68-0.14
			c0.06-0.37,0.16-0.73,0.17-1.1c0.02-1.62-0.74-2.98-2.32-3.04c-1.23-0.05-3.37,0.54-3.58,1.28c-0.98,3.36-2.76,6.61-2.08,10.35
			c0.43,2.38,0.9,4.83,0.72,7.2c-0.11,1.49-0.29,2.39,1.35,2.83c1.73,0.46,2.86-0.56,3.17-1.87
			C675.06,369.97,676.03,364.77,677.09,359.59z M700.77,356.16c-0.2,8.47-0.4,16.85-0.6,25.6c1.09-0.46,2.28-0.57,2.74-1.21
			c2.12-2.9,3.12-6.28,3.2-9.85c0.08-3.49-0.12-6.98-0.19-10.48C705.84,356.27,705.49,355.92,700.77,356.16z"/>
		<path class="st0" d="M586.82,441.56c-2.33-0.35-4.66-0.71-6.99-1.06c-4.66-0.71-9.34-1.34-13.98-2.15
			c-5.05-0.89-9.59-2.73-12.79-7.09c-4.06-5.53-8.25-10.97-12.38-16.45c-3.54-4.69-7.26-9.26-10.58-14.11
			c-3.19-4.66-6.01-9.59-8.93-14.43c-3.51-5.81-7.01-11.62-10.4-17.49c-3.04-5.26-5.65-10.63-7.29-16.61
			c-2.4-8.72-3.65-17.54-4.55-26.48c-0.35-3.55-0.88-7.11-1.66-10.59c-1-4.47,0.08-8.75,0.61-13.11c0.91-7.51,1.3-15.13,2.73-22.54
			c1.31-6.74,3.25-13.46,5.78-19.84c2.51-6.35,5.85-12.42,9.32-18.33c1.69-2.88,4.47-5.14,6.82-7.63c2.46-2.6,5.01-5.12,7.47-7.71
			c4.7-4.95,9.81-9.34,16.03-12.34c2.19-1.05,4.22-2.43,6.34-3.61c4.42-2.47,9.01-2.7,13.57-0.56c7.37,3.47,14.73,6.96,21.96,10.71
			c5.56,2.89,10.87,6.26,16.36,9.3c2.61,1.44,5.32,2.73,8.07,3.89c7.25,3.07,11.71,8.59,14.87,15.66
			c3.48,7.79,3.93,16.02,4.57,24.29c0.43,5.49,0.65,11.03-1.58,16.14c-2.02,4.63-4.36,9.2-7.17,13.39
			c-4.89,7.3-10.21,14.33-15.44,21.4c-2.61,3.53-5.28,7.03-8.18,10.31c-6.28,7.07-12.86,13.84-20.45,19.56
			c-1.13,0.85-1.98,2.07-3.1,2.94c-4.45,3.48-7.9,7.95-11.63,12.1c-2.88,3.21-4.85,7.28-6.99,11.09c-1.37,2.43-2.41,5.06-3.4,7.67
			c-0.52,1.37-0.59,2.92-0.88,4.38c-0.41,2.02-1.02,4.02-1.24,6.06c-0.37,3.49,0.7,6.82,2.2,9.84c2.77,5.59,5.86,11.02,8.93,16.46
			c1.05,1.86,2.23,3.7,3.66,5.27c2.95,3.21,6.91,4.69,10.92,6.19c3.36,1.25,6.48,3.17,9.7,4.79
			C587.01,441.09,586.91,441.33,586.82,441.56z M565.44,258.18c-1.21-1.6-2.51-2.98-3.41-4.59c-2.74-4.92-5.32-9.93-7.95-14.9
			c-1.16-2.19-2.64-2.6-5.15-1.21c3.3,6.18,6.6,12.37,10.02,18.78c-1.23,0.24-2.69,0.52-4.14,0.81c-0.03,0.2-0.06,0.39-0.08,0.59
			c2.6,0.72,5.2,1.43,7.79,2.15C563.99,260.21,565,259.79,565.44,258.18z M547.7,272.19c0.23,0.37,0.41,0.77,0.69,1.1
			c3.55,4.27,5.13,9.38,5.93,14.7c0.68,4.48,0.01,4.87-4.09,3.5c-0.11-0.04-0.27,0.05-0.4,0.08c0.04,2.2,3.12,4.2,5.23,3.44
			c2.61-0.93,3.25-2.25,3.2-5.63c-0.08-6.17-1.76-11.91-5.94-16.71C550.43,270.51,550.38,270.44,547.7,272.19z M604.2,295.21
			c5.56-2.3,10.33-11.62,9.62-17.91c-0.25-2.24-1.59-3.31-4.24-3.25c0.09,1.01,0.19,2.02,0.26,2.77c-0.8-0.31-1.61-0.81-2.46-0.88
			c-0.38-0.03-1.22,0.88-1.17,1.28c0.36,2.72,1.42,3.59,4.19,3.63C610.34,286.47,607.06,290.74,604.2,295.21z M540.7,306.68
			c-4.75,0.23-4.76,0.24-7.17-2.48c-1.14-1.28-2.12-2.72-3.37-3.88c-0.8-0.75-1.95-1.13-2.94-1.67c-0.17,0.24-0.35,0.49-0.52,0.73
			c1.98,3.39,2.62,7.84,7.17,9.24C536.26,309.36,538.75,309.44,540.7,306.68z M571.87,283.62c0,3.74-0.01,7.1,0.01,10.46
			c0.01,0.74,0.16,1.47,0.24,2.2c0.73-0.34,1.48-0.63,2.17-1.03c0.29-0.17,0.47-0.57,0.67-0.88c1.88-2.89,0.73-5.88,0.16-8.79
			C574.6,282.99,573.88,282.73,571.87,283.62z M584.84,265.39c-0.23,0.39-0.45,0.77-0.68,1.16c0.86,0.88,1.63,2.38,2.61,2.54
			c2.65,0.43,5.43,0.58,8.1,0.28c2.15-0.24,4.21-1.31,6.31-2.01c-0.08-0.33-0.16-0.65-0.24-0.98c-2.28,0.34-4.56,0.67-6.84,1.03
			c-2.29,0.36-4.51,0.85-6.36-1.37C587.24,265.43,585.83,265.58,584.84,265.39z M606.85,283.4c0.56-1.86,0.28-3.3-1.63-3.79
			c-0.51-0.13-1.66,0.5-1.8,0.99C602.94,282.25,604.2,283.25,606.85,283.4z"/>
		<path class="st0" d="M642.42,431.38c-8.76,9.74-21.02,9.88-32.47,12.24c-0.07-0.19-0.14-0.37-0.21-0.56
			c2.14-0.75,4.34-1.34,6.39-2.27c4.46-2.04,8.89-4.16,13.25-6.43c2.44-1.27,4.68-2.91,7.03-4.33
			C639.84,427.96,639.24,427.41,642.42,431.38z"/>
		<path class="st0" d="M645.22,429.27c-0.78-0.97-1.56-1.96-2.6-3.25c5.62-2.81,11.34-5.67,17.06-8.53c0.2,0.31,0.4,0.62,0.6,0.93
			C655.39,421.95,650.49,425.48,645.22,429.27z"/>
		<path class="st0" d="M710.86,511.27c0.35,1.38,0.76,2.25,0.77,3.12c0.05,4.66,0.07,9.31-0.03,13.97
			c-0.08,3.86-0.31,7.72-0.56,11.57c-0.03,0.51-0.53,1.23-1,1.42c-5.05,2.1-10.21,3.88-15.76,3.98c-5.12,0.09-10.51-6.04-9.4-10.98
			c0.35-1.55,1.79-3.06,3.11-4.15c5.67-4.68,11.49-9.17,17.21-13.79C707.02,514.93,708.69,513.25,710.86,511.27z"/>
		<path d="M674.07,404.45c2.53,2.12,4.65,1.71,5.87-0.79c0.42-0.86,1.18-1.55,2.1-2.73c0.45,0.99,0.7,1.55,0.9,2.01
			c2.84-1.84,2.74-1.92,0.44-3.4c-1.15-0.75-2.3-2.05-2.69-3.33c-1.49-4.82,4.29-10.84,9.18-9.75c1.93,0.43,3.98,2.94,4.25,4.99
			c0.34,2.58,0.74,5.16,1.25,7.72c0.33,1.65,1.34,2.69,3.11,3.12c2.52,0.61,3.05,2.18,2.07,4.58c-1.09,2.64-3.31,4.02-5.73,4.63
			c-3.45,0.87-7.05,1.2-10.61,1.55c-1.81,0.18-3.68-0.55-4.22-2.36c-0.71-2.42-2.44-2.34-4.27-2.56c-0.72-0.09-1.85-0.49-1.98-0.97
			C673.49,406.34,673.91,405.35,674.07,404.45z M682.92,407.62c1.18,3.14,1.8,3.57,4.91,3.23c1.26-0.14,2.55-0.24,3.74-0.6
			c2.33-0.71,4.86-1.24,6.15-3.64c0.27-0.5-0.02-1.93-0.17-1.95c-2.89-0.38-4.77-2.21-6.13-4.28
			C688.52,402.85,685.81,405.16,682.92,407.62z M688.04,391.12c-0.25-0.05-0.51-0.1-0.76-0.15c-0.24,1.29-0.48,2.57-0.72,3.86
			c0.27,0.05,0.54,0.11,0.81,0.16C688.51,393.88,688.81,392.6,688.04,391.12z"/>
		<path d="M677.09,359.59c-1.06,5.18-2.03,10.38-3.25,15.52c-0.31,1.31-1.44,2.33-3.17,1.87c-1.64-0.44-1.46-1.33-1.35-2.83
			c0.18-2.37-0.29-4.83-0.72-7.2c-0.68-3.75,1.1-6.99,2.08-10.35c0.22-0.74,2.35-1.33,3.58-1.28c1.57,0.06,2.34,1.42,2.32,3.04
			c-0.01,0.37-0.11,0.73-0.17,1.1C676.64,359.5,676.86,359.55,677.09,359.59z"/>
		<path d="M700.77,356.16c4.72-0.23,5.08,0.11,5.15,4.07c0.07,3.49,0.27,6.99,0.19,10.48c-0.08,3.56-1.08,6.94-3.2,9.85
			c-0.47,0.64-1.65,0.76-2.74,1.21C700.37,373.01,700.57,364.63,700.77,356.16z"/>
		<path d="M565.44,258.18c-0.44,1.61-1.45,2.03-2.92,1.62c-2.6-0.72-5.2-1.43-7.79-2.15c0.03-0.2,0.06-0.39,0.08-0.59
			c1.45-0.28,2.91-0.57,4.14-0.81c-3.42-6.4-6.72-12.59-10.02-18.78c2.5-1.39,3.99-0.98,5.15,1.21c2.63,4.98,5.22,9.98,7.95,14.9
			C562.92,255.2,564.23,256.57,565.44,258.18z"/>
		<path d="M547.7,272.19c2.69-1.75,2.73-1.69,4.62,0.48c4.18,4.8,5.86,10.54,5.94,16.71c0.04,3.38-0.6,4.7-3.2,5.63
			c-2.11,0.76-5.19-1.24-5.23-3.45c0.14-0.03,0.29-0.12,0.4-0.08c4.1,1.37,4.77,0.97,4.09-3.5c-0.81-5.32-2.38-10.43-5.93-14.7
			C548.11,272.96,547.92,272.56,547.7,272.19z"/>
		<path d="M604.2,295.21c2.86-4.47,6.13-8.74,6.19-14.37c-2.77-0.03-3.83-0.91-4.19-3.63c-0.05-0.39,0.79-1.31,1.17-1.28
			c0.85,0.07,1.67,0.57,2.46,0.88c-0.07-0.75-0.16-1.75-0.26-2.77c2.65-0.06,3.99,1.02,4.24,3.25
			C614.53,283.59,609.76,292.91,604.2,295.21z"/>
		<path d="M540.7,306.68c-1.96,2.76-4.44,2.68-6.83,1.94c-4.54-1.4-5.19-5.85-7.17-9.24c0.17-0.24,0.35-0.49,0.52-0.73
			c0.99,0.54,2.14,0.92,2.94,1.67c1.24,1.16,2.23,2.6,3.37,3.88C535.95,306.92,535.96,306.91,540.7,306.68z"/>
		<path d="M571.87,283.62c2.02-0.89,2.73-0.63,3.25,1.97c0.57,2.91,1.72,5.9-0.16,8.79c-0.2,0.31-0.38,0.7-0.67,0.88
			c-0.69,0.4-1.44,0.7-2.17,1.03c-0.08-0.73-0.23-1.47-0.24-2.2C571.85,290.72,571.87,287.36,571.87,283.62z"/>
		<path d="M584.84,265.39c0.99,0.19,2.4,0.04,2.9,0.64c1.85,2.21,4.07,1.73,6.36,1.37c2.28-0.36,4.56-0.69,6.84-1.03
			c0.08,0.33,0.16,0.65,0.24,0.98c-2.1,0.7-4.16,1.77-6.31,2.01c-2.67,0.3-5.44,0.15-8.1-0.28c-0.98-0.16-1.75-1.65-2.61-2.54
			C584.39,266.16,584.61,265.78,584.84,265.39z"/>
		<path d="M606.85,283.4c-2.65-0.15-3.91-1.15-3.43-2.8c0.14-0.49,1.29-1.12,1.8-0.99C607.13,280.1,607.4,281.54,606.85,283.4z"/>
		<path class="st0" d="M682.92,407.62c2.89-2.46,5.6-4.77,8.51-7.24c1.36,2.07,3.24,3.9,6.13,4.28c0.16,0.02,0.44,1.44,0.17,1.95
			c-1.29,2.4-3.82,2.94-6.15,3.64c-1.2,0.36-2.49,0.46-3.74,0.6C684.72,411.19,684.11,410.76,682.92,407.62z"/>
		<path class="st0" d="M688.04,391.12c0.77,1.49,0.47,2.76-0.67,3.87c-0.27-0.05-0.54-0.11-0.81-0.16c0.24-1.29,0.48-2.57,0.72-3.86
			C687.54,391.02,687.79,391.07,688.04,391.12z"/>
	</g>
</g>
<g id="mask">
	<path class="st1" d="M458,198c63.52-38.84,111.67-64.21,118-56c12.4,16.09-143.39,151-135,161c8.97,10.69,195.02-134.37,201-127
		c6.27,7.72-193.42,172.53-184,185c11.2,14.83,296.47-188.49,305-177c9.61,12.94-341.38,285.59-335,294
		c6.7,8.84,400.1-284.67,410-272c9.86,12.63-369.35,319.12-360,331c9.88,12.56,419.79-298.79,429-287
		c8.87,11.35-360.44,313.39-352,324c9.36,11.77,317.88-216.88,327-205c9.31,12.13-260.28,233.94-253,243
		c6.81,8.47,245.95-181.06,258-167c5.98,6.98-45.53,62.41-131,146"/>
</g>
</svg>
