<?xml version="1.0" encoding="utf-8"?>
<!-- Generator: Adobe Illustrator 26.3.1, SVG Export Plug-In . SVG Version: 6.00 Build 0)  -->
<svg version="1.1" xmlns="http://www.w3.org/2000/svg" xmlns:xlink="http://www.w3.org/1999/xlink" x="0px" y="0px"
	 viewBox="0 0 1366 768" style="enable-background:new 0 0 1366 768;" xml:space="preserve">
<style type="text/css">
	.vol2_1_st0{fill:#ffffff;}
	.vol2_1_st1{fill:none;stroke:#ffffff;stroke-width:433.7008;stroke-miterlimit:10;}
	.vol2_1_st2{fill:none;stroke:#ffffff;stroke-width:79.3701;stroke-miterlimit:10;}
	.vol2_1_st3{fill:none;stroke:#ffffff;stroke-width:65.1969;stroke-miterlimit:10;}
	.vol2_1_st4{fill:none;stroke:#ffffff;stroke-width:73.7008;stroke-miterlimit:10;}
	.vol2_1_st5{fill:none;stroke:#ffffff;stroke-width:56.6929;stroke-miterlimit:10;}
	.vol2_1_st6{fill:none;stroke:#ffffff;stroke-width:51.0236;stroke-miterlimit:10;}
	.vol2_1_st7{fill:none;stroke:#ffffff;stroke-width:42.5197;stroke-miterlimit:10;}
</style>
<g id="base">
	<g>
		<path class="vol2_1_st0" d="M907.2,692.55c-149.83,0-299.66,0-449.55,0c0-186.28,0-372.59,0-558.9c149.85,0,299.7,0,449.55,0
			C907.2,319.94,907.2,506.23,907.2,692.55z M539.19,412.81c-0.87,0-1.55,0-2.23,0c0.06,0.62,0.13,1.24,0.16,1.87
			c0.03,0.58,0.14,1.2-0.01,1.74c-1.36,4.71-2.32,9.6-4.27,14.06c-3.13,7.18-6.86,14.11-10.46,21.08
			c-2.54,4.93-5.27,9.77-7.95,14.63c-0.37,0.66-0.96,1.2-1.45,1.8c0.17,0.19,0.35,0.37,0.52,0.56c0.62-0.49,1.42-0.87,1.84-1.5
			c1.1-1.65,2.05-3.41,3.03-5.14c2.76-4.89,5.5-9.8,8.27-14.69c0.33-0.58,0.75-1.11,1.14-1.66c0.19,0.11,0.39,0.21,0.58,0.32
			c-2.62,9.19-7.2,17.49-11.7,25.78c-0.88-0.25-1.46-0.42-2.04-0.58c-0.1,0.17-0.21,0.34-0.31,0.51c0.74,0.59,1.48,1.18,2.23,1.79
			c-0.29,1.01-0.62,2.15-0.94,3.28c8.41-8.98,12.14-20.82,19.51-30.17c0.7,3.47,1.31,7.03,2.14,10.55
			c1.48,6.33,4.42,11.79,10.2,15.21c3.53,2.08,7.26,3.84,10.87,5.78c0.82,0.44,1.55,1.03,1.96,1.31c-1.05,3.28-1.87,6.19-2.91,9.02
			c-0.89,2.43-2.03,4.78-3.07,7.16c-0.28-0.01-0.57-0.02-0.85-0.03c-1.15-2.12-2.22-4.3-3.51-6.34c-0.39-0.61-1.35-0.9-2.1-1.19
			c-0.09-0.03-0.69,0.82-0.79,1.31c-0.26,1.31-0.39,2.66-0.54,3.99c-0.05,0.43-0.2,1.06,0.01,1.28c1.48,1.54,1.8,3.44,2.18,5.44
			c0.8,4.25,1.88,8.44,2.81,12.66c0.09,0.39-0.04,0.82-0.03,0.69c-3.68,0.22-7.25-0.06-10.55,0.75c-6.32,1.56-11.6,4.78-13.84,11.48
			c-0.7,2.1-2.02,3.44-4.26,4.15c-1.67,0.53-3.27,1.55-4.65,2.66c-4.88,3.96-9.67,8.02-14.45,12.1c-1.45,1.23-2.64,1.91-4.77,1.02
			c-4.4-1.83-9.02,1.39-8.41,5.78c0.24,1.7,1.37,3.42,2.48,4.84c1.9,2.42,4.67,3.05,7.9,2.74c-0.85,1.8-1.77,3.33-2.31,4.98
			c-0.75,2.31,0.63,3.96,3.05,3.98c2.68,0.02,4.78-0.96,6.07-3.42c0.28-0.53,0.64-1,0.83-1.3c0.59,1.64,1.14,3.16,1.69,4.68
			c1.67-0.65,3.35-1.31,5.14-2c-0.09-0.15,0,0.04,0.13,0.21c0.58,0.74,1.18,1.47,1.77,2.21c0.68-0.7,1.43-1.35,2.01-2.12
			c0.44-0.59,0.65-1.36,1.18-2.55c0.35,1.24,0.42,1.93,0.73,2.47c0.37,0.63,0.95,1.14,1.44,1.7c0.38-0.65,0.98-1.27,1.09-1.96
			c0.38-2.49,0.49-5.02,0.91-7.51c0.67-4.04,1.88-8.03,2.14-12.08c0.21-3.27,1.91-5.66,3.01-8.67c3.02,2.11,6.11,3.1,9.44,2.41
			c3.22-0.66,6.37-1.67,9.31-2.46c-0.97,7.62-1.87,15.55-3.03,23.44c-0.53,3.56-0.88,7.42-2.54,10.48
			c-4.61,8.52-9.86,16.69-14.86,25c-0.56,0.93-0.52,1.46,0.77,1.53c2.74,0.15,5.47,0.39,8.21,0.59c0.77,0.06,1.53,0.1,2.74,0.18
			c-1.33,4.88-2.56,9.37-3.8,13.93c-1.07-0.37-1.75-0.6-2.6-0.89c-0.12,0.87-0.22,1.57-0.32,2.33c-1.39,0.15-2.71,0.3-4.03,0.42
			c-1.34,0.12-2.68,0.27-4.02,0.3c-4.83,0.09-6.41,1.84-5.68,6.62c0.81,5.3,4.68,10.05,11.02,8.64c2.67-0.59,5.68-1.63,7.53-3.48
			c2.71-2.7,4.84-6.15,6.59-9.6c1.28-2.52,1.55-5.55,2.28-8.34c0.51-1.97-0.13-3.1-1.17-3.17c-0.8,3.78-1.57,7.47-2.49,11.8
			c-1.87-1.31-3.17-2.14-4.35-3.11c-0.29-0.24-0.38-1-0.26-1.44c1.04-3.96,2.08-7.92,3.28-11.83c0.22-0.72,1.23-1.78,1.78-1.73
			c4.45,0.41,8.87,1.04,13.56,1.64c-1.06,5.42-2.01,10.49-3.09,15.52c-0.18,0.86-1.06,1.56-1.33,2.43
			c-0.52,1.66-0.73,3.43-1.27,5.08c-0.47,1.41-1.26,2.71-1.85,4.08c-0.55,1.3-0.17,2.18,1.31,2.46c1.47,0.28,2.93,0.62,4.4,0.91
			c4.65,0.89,6.94-0.22,8.14-4.73c0.52-1.96,0.53-4.66-0.45-6.29c-2.32-3.85-2.47-7.42-0.78-11.42c0.54-1.29,0.52-2.96-1.3-3.66
			c-0.67,4.15-1.33,8.21-2.03,12.48c-0.52-0.06-1.6-0.17-2.85-0.3c1.02-5.49,1.99-10.73,3-16.17c2.3,0.8,4.53,1.65,6.81,2.36
			c2.88,0.89,4.29-0.14,4.43-3.09c0.12-2.47,0.27-4.94,0.39-7.4c0.33-6.57,0.6-13.14,1.03-19.7c0.15-2.38,0.21-4.9,3.28-5.87
			c0.9-0.29,1.8-1.41,2.17-2.35c1.32-3.39,2.68-6.8,3.53-10.32c0.99-4.1,1.75-8.31,2.09-12.51c0.35-4.42,0.08-8.89,0.08-13.33
			c5.03,0.45,9.99,0.29,14.56-2.21c4.79-2.63,6.49-7.52,8.54-12.14c0.58,0.12,1.13,0.13,1.59,0.34c6.43,2.98,13.4,3.9,20.22,5.41
			c1.33,0.3,3.01,0.43,3.19-1.09c0.44-3.65,2.88-5.71,5.35-7.84c0.39-0.34,1.03-0.39,1.55-0.57c0.17,0.51,0.59,1.1,0.47,1.53
			c-0.69,2.34-1.55,4.64-2.27,6.97c-0.23,0.73-0.22,1.52-0.33,2.29c0.8,0.09,1.6,0.28,2.39,0.24c0.57-0.03,1.15-0.61,1.68-0.54
			c0.88,0.12,2.02,0.32,2.53,0.93c1.81,2.17,1.85,7.13,0.04,9.32c-1.18,1.42-1.05,2.27,0.19,3.58c1.35,1.44,2.96,3.52,1.68,5.33
			c-2.03,2.88-3.04,5.96-3.69,9.31c-0.2,1.05-0.84,2.01-1.39,3.28c-0.46-0.7-0.69-1.16-1.02-1.53c-0.5-0.56-1.09-1.46-1.63-1.45
			c-0.59,0.01-1.22,0.84-1.73,1.41c-0.62,0.69-1.13,1.47-2.03,2.68c-0.08-1.3-0.06-1.95-0.18-2.58c-0.17-0.91-0.3-2.49-0.69-2.57
			c-0.97-0.2-2.17,0.11-3.1,0.57c-1.4,0.69-2.67,1.65-3.96,2.55c-1.01,0.7-1.76,0.53-2.48-0.43c-1.9-2.55-3.72-5.16-5.78-7.57
			c-2.36-2.76-4.61-5.8-7.51-7.85c-3.99-2.81-8.56-4.81-12.89-7.15c-0.2-0.11-0.42-0.23-0.63-0.23c-0.63,0.02-1.25,0.11-1.88,0.16
			c0.26,0.55,0.37,1.36,0.81,1.61c2.43,1.42,4.86,2.89,7.45,3.98c3.6,1.51,6.75,3.62,9.17,6.59c2.37,2.91,4.29,6.18,6.57,9.18
			c1.07,1.42,2.42,2.66,3.81,3.79c1.27,1.03,2.64,1.12,4.04-0.12c1.25-1.11,2.73-1.95,3.96-2.8c0.84,1.64,1.64,3.21,2.45,4.78
			c1.51-0.96,3.02-1.91,4.61-2.91c2.34,2.76,4.03,2.38,5.54-1.73c1.31-3.55,1.32-7.54,3.98-10.67c0.59-0.7,0.22-2.61-0.24-3.74
			c-0.8-1.94-2.37-3.17-0.76-5.92c1.63-2.79,0.68-6.58-0.91-9.44c-0.76-1.37-3.17-1.83-4.83-2.7c-0.06-0.03-0.08-0.12-0.15-0.23
			c0.71-1.8,1.58-3.61,2.1-5.5c0.23-0.85,0.09-2.11-0.41-2.79c-1.61-2.17-4.62-2.24-6.67-0.4c-2.6,2.33-5.39,4.52-6,8.93
			c-6.71-1.97-13.12-3.88-19.55-5.74c-1.62-0.47-1.92-1.32-1.66-2.98c0.92-5.89-0.86-8.84-6.57-10.72c-3.06-1.01-6.3-1.5-9.63-2.27
			c1.04-2.94,2.22-6.15,3.29-9.39c0.17-0.52,0.03-1.35-0.3-1.74c-0.25-0.28-1.2-0.29-1.6-0.04c-1.94,1.23-3.78,2.62-5.7,3.89
			c-2.58,1.72-5.11,3.56-8.69,4.3c-1.18-5.18-2.29-10.1-3.41-15.03c2.72-0.4,5.1-0.44,7.26-1.14c3.8-1.23,7.6-2.59,11.15-4.38
			c4.42-2.23,6.57-6.7,8.87-10.74c2.82-4.96,6.66-9.68,5.94-16.02c-0.04-0.39,0.32-0.82,0.48-1.24c1.15-2.98,2.87-5.89,3.32-8.97
			c0.79-5.38,0.86-10.88,1.14-16.34c0.14-2.8-0.97-4.09-3.29-4.63c0.83,6.38,0.07,12.8-0.94,19.24c-1.38-4.92-1.61-9.99-0.73-14.88
			c0.86-4.77-0.13-9.64,1.17-14.25c-3.04,1.2-8.76,13.97-7.17,16.94c1.25-3.62,1.72-7.37,4.17-10.24c-0.37,2.74-1.3,5.3-1.74,7.94
			c-0.45,2.69-0.34,5.47-0.59,8.2c-0.26,2.82,1.01,5.14,2.23,7.53c0.02-2.83-0.26-5.6-0.64-8.36c-0.54-3.89-0.22-6.76,0.74-7.58
			c0,3.21-0.21,6.63,0.08,10c0.17,2.07,0.82,4.23,1.81,6.04c0.56,1.02,0.69,1.59,0.23,2.54c-1.89,3.94-3.36,8-3.17,12.48
			c0.03,0.64-0.13,1.38-0.45,1.93c-2.79,4.68-5.53,9.4-8.53,13.95c-1.2,1.82-2.79,3.61-4.62,4.75c-4.49,2.81-9.53,4.26-14.82,4.76
			c-3.61,0.35-5.63-1.96-4.92-5.65c2.71,0.86,5.39,1.81,8.14,2.51c0.75,0.19,1.81-0.21,2.53-0.65c0.64-0.39,1.01-1.21,1.57-1.94
			c-1.25-1.62-3.32-2.19-4.76-1.47c-2.15,1.08-3.78,0.54-5.65-0.24c-0.82-0.34-1.74-0.45-2.61-0.66c-1.4-0.33-2.27,0-1.98,1.66
			c0.37,2.09,0.78,4.17,1.17,6.26c-5.85,1.31-11.2-0.59-16.43-3.23c-5.71-2.89-10.18-7.08-12.01-13.23
			c-1.6-5.34-2.55-10.92-3.33-16.45c-0.42-3.02,2.39-4.99,3.58-7.55c1.23,2.87,3.33,4.12,6.02,4.79c-0.61-1.79-1.3-3.36-1.68-5
			c-1.51-6.54,1.31-12.31,3.53-18.11c1.27-3.33,3.22-6.41,4.87-9.6c-0.06-0.14-0.13-0.28-0.19-0.42c-1.12,0.76-2.23,1.52-3.35,2.28
			c-0.15-0.12-0.31-0.23-0.46-0.35c0.71-0.98,1.41-1.96,2.33-3.22c-0.73,0-1.55-0.2-1.7,0.03c-1.24,1.99-2.37,4.06-3.53,6.12
			c-1.55-2.17,1.1-3.89,1.11-6.68c-1.12,0.95-1.8,1.53-2.54,2.16c-0.73-0.27-1.6-0.58-3.06-1.1
			C544.57,411.34,538.98,409.9,539.19,412.81z M830.28,513.3c2.48,3,4.96,6.25,7.71,9.26c3.02,3.31,6.56,6.23,11.15,6.64
			c10.52,0.94,19.65-2.57,26.98-10.09c5.34-5.48,8.19-12.34,9.82-19.83c1.21-5.58,2.24-11.13,1.75-16.85
			c-0.38-4.43-1.12-8.93-3.94-12.45c-6.54-8.17-14.2-15.02-23.51-20.15c-9.18-5.07-18.93-7.41-29.16-6.96
			c-8.89,0.39-17.75,1.83-26.58,3.07c-4.2,0.59-8.34,1.66-12.46,2.71c-6.95,1.77-13.91,3.52-20.76,5.63
			c-4.25,1.31-8.31,3.26-12.43,4.98c-6.42,2.69-12.31,6.23-17.38,11.05c-1.24,1.18-2.22,3.06-3.66,3.5
			c-2.69,0.82-4.16,3.01-6.27,4.42c-3.15,2.11-5.23,5.03-6.43,8.65c-1.53,4.61-2.67,9.47-4.95,13.7c-3.95,7.32-6.5,15.09-8.96,22.93
			c-1.97,6.3-1.97,12.43,2.11,18.01c5.58,7.61,13.14,10.67,22.5,9.89c8.09-0.68,13.82-4.7,17.69-11.68
			c2.93-5.28,3.71-11.15,4.77-16.94c0.54-2.95,0.81-5.95,1.21-8.92c0.35,0.02,0.69,0.04,1.04,0.06c0,7.25-0.14,14.5,0.06,21.74
			c0.09,3.33,0.5,6.74,1.37,9.94c1.69,6.2,5.99,10.36,11.55,13.36c0.6,0.32,1.27,1.18,1.28,1.8c0.14,5.16-0.01,10.33,0.22,15.49
			c0.13,2.95,0.67,5.91,1.27,8.81c0.37,1.79,1.31,3.46,1.77,5.24c0.26,1.02,0.53,2.54,0,3.18c-2.28,2.74-4.52,5.71-7.39,7.72
			c-5.2,3.64-10.88,6.58-16.25,9.97c-1.86,1.18-3.66,2.65-5.06,4.34c-1.98,2.39-1.46,5,0.6,7.22c2.24,2.42,5.27,3.12,8.17,3.88
			c2.4,0.63,5.07,0.98,7.5,0.61c4.96-0.74,9.27-3.26,13.22-6.27c2.24-1.71,3.45-4.14,3.98-7.02c-0.35,0.08-0.52,0.07-0.61,0.15
			c-0.27,0.25-0.61,0.5-0.76,0.82c-1.42,3.01-4.12,4.63-6.73,6.4c-6.49,4.42-13.35,5.02-20.45,1.83c-1.49-0.67-3.18-2.06-3.65-3.49
			c-0.62-1.88,1.03-3.49,2.64-4.55c3.18-2.08,6.52-3.94,9.65-6.08c4.46-3.05,9.81-4.84,13.31-9.3c1.13-1.44,2.5-2.68,3.9-4.16
			c0.25,0.61,0.37,0.88,0.46,1.16c1.24,3.81,2.16,7.77,3.82,11.38c1.38,2.99,2.41,5.83,2.35,9.19c-0.04,2.43,0.49,4.94,1.18,7.29
			c0.72,2.44,2.43,4.43,4.88,5.28c4.32,1.49,8.72,2.15,13.1-0.04c2.95-1.48,5.79-3.29,6.91-6.41c1.88-5.21,1.87-10.7,1.23-16.19
			c-0.28-2.44-0.61-4.93-0.42-7.36c0.32-4,3.33-8.89,8.77-8.12c3.55,0.5,7.16,0.86,10.58,1.83c2.3,0.66,4.37,2.21,6.46,3.51
			c1.01,0.63,1.08,1.47-0.06,2.3c-2.03,1.5-4.01,3.08-5.95,4.69c-5.06,4.19-10.17,8.32-15.12,12.63
			c-3.98,3.47-2.27,10.43,2.84,12.08c8.34,2.69,15.19-0.94,19.39-7.33c1.69-2.57,3-5.4,4.34-7.85c0.7,1.22,1.44,2.85,2.47,4.27
			c2.71,3.77,9.38,3.59,11.45-0.41c1.54-2.96,2.87-6.07,3.87-9.25c2.26-7.11,4.08-14.36,6.41-21.44c1.72-5.22,3.92-10.29,6-15.39
			c1.47-3.61,2.67-7.45,4.79-10.66c1.85-2.79,4.69-4.99,7.32-7.19c4.44-3.72,8.02-8.14,11.13-12.96c2.11-3.27,1.96-6.56-0.01-9.89
			c-1.75-2.95-4.29-3.81-7.45-3.01c-3.12,0.8-6.26,1.78-7.55,5.18c-1.46,3.83-2.8,7.72-4.03,11.63c-0.39,1.23-0.84,1.91-2.2,2.02
			c-3.05,0.25-6.14,0.37-9.13,0.98c-5.76,1.19-11.44,2.81-17.43,2.32c-9.47-0.77-18.71,1.47-28.07,2.23
			c-4.58,0.37-9.17,0.76-14.26,1.19c1.91-2.08,3.27-3.71,4.78-5.18c3.86-3.78,6.59-8.2,8.41-13.3c1.35-3.78,3.17-7.4,4.72-11.11
			C827.54,520.19,828.9,516.74,830.28,513.3z M742.96,340.56c0-0.89-0.02-1.62,0-2.36c0.29-9.54,0.58-19.07,0.88-28.61
			c0.02-0.52,0.13-1.04,0.19-1.56c0.54-4.67,1.3-9.32,1.57-14.01c0.49-8.57,0.66-17.16,1.03-25.74c0.32-7.4,0.79-14.8,1.09-22.2
			c0.42-10.64,1.64-21.17,3.2-31.7c1.04-7.01,1.23-14.15,1.79-21.23c0.3-3.73,0.31-7.5,0.93-11.18c1.15-6.77,2.7-13.47,3.98-20.22
			c0.16-0.85-0.29-1.82-0.45-2.73c-0.59,0.65-1.51,1.2-1.72,1.95c-1.54,5.59-3.35,11.15-4.28,16.84c-1.06,6.53-1.23,13.2-1.91,19.8
			c-0.6,5.87-1.34,11.72-2.1,17.57c-0.4,3.09-1.25,6.14-1.45,9.23c-0.79,12.29-1.39,24.6-2.09,36.89c-0.35,6.27-0.8,12.53-1.12,18.8
			c-0.27,5.31-0.29,10.63-0.64,15.93c-0.28,4.25-1.09,8.48-1.31,12.73c-0.46,9.05-0.66,18.12-1,27.18
			C739.44,339.49,739.4,339.49,742.96,340.56z M672.65,314.11c-0.66-1.1-1.32-1.7-1.31-2.28c0.05-2.53,0.25-5.06,0.47-7.59
			c1.03-12.07,2.04-24.13,3.16-36.19c0.74-7.96,1.59-15.92,2.46-23.87c0.97-8.88,2.11-17.75,3-26.64c0.56-5.57,0.84-11.17,1.2-16.76
			c0.33-5.06,0.44-10.14,0.95-15.18c0.45-4.45,1.65-8.85,1.95-13.3c0.51-7.45,0.59-14.94,0.78-22.41c0.01-0.59-0.53-1.2-0.81-1.8
			c-0.49,0.56-1.35,1.08-1.42,1.68c-0.38,3.26-0.58,6.55-0.82,9.83c-0.44,5.96-0.72,11.94-1.36,17.88
			c-0.62,5.77-1.86,11.48-2.4,17.25c-1.13,11.94-1.85,23.93-2.98,35.87c-0.76,8.06-1.96,16.08-2.89,24.13
			c-0.4,3.47-0.55,6.98-0.92,10.45c-0.33,3.04-0.95,6.04-1.22,9.08c-0.53,6.09-0.92,12.19-1.35,18.29
			c-0.48,6.78-0.97,13.56-1.37,20.34c-0.03,0.56,0.55,1.65,0.85,1.66C669.93,314.6,671.24,314.3,672.65,314.11z M814.04,334.97
			c0.32-1.88,0.53-3.63,0.92-5.35c1.7-7.48,2.49-15.03,2.12-22.71c-0.25-5.24-0.54-10.48-0.45-15.72
			c0.13-7.18,0.53-14.36,0.95-21.53c0.31-5.38,0.81-10.74,1.25-16.11c0.62-7.59,1.31-15.18,1.9-22.78
			c0.57-7.39,0.95-14.8,1.61-22.18c0.76-8.57,1.85-17.11,2.54-25.69c0.33-4.06,0.06-8.16,0.06-12.29c0.99,0,1.51,0,2.04,0
			c0.05-0.15,0.11-0.3,0.16-0.45c-1.23-0.67-2.46-1.33-3.89-2.11c-0.17,0.78-0.32,1.14-0.3,1.48c0.31,6.23-0.11,12.37-1.06,18.56
			c-1.41,9.15-2.31,18.38-3.26,27.59c-0.62,5.95-0.93,11.94-1.43,17.91c-0.61,7.37-1.23,14.74-1.92,22.1
			c-0.23,2.45-0.84,4.87-1,7.32c-0.33,5.29-0.54,10.59-0.69,15.89c-0.18,6.26-0.28,12.52-0.37,18.78c-0.02,1.12,0.22,2.23,0.25,3.35
			c0.21,9.58-0.07,19.13-1.82,28.6C811.26,331.61,811.29,333.89,814.04,334.97z M594.18,397.28c-2.07-0.98-2.56-0.82-3.32,0.88
			c-0.11,0.26-0.23,0.65-0.43,0.71c-3.1,0.94-4.68,3.45-6.32,5.94c-0.66,1-1.49,1.88-2.49,3.11c0-1.35,0-2.25,0-2.92
			c0.77-0.9,1.51-1.75,2.25-2.6c-0.13-0.16-0.27-0.32-0.4-0.48c-1.88,0.34-3.76,0.69-5.64,1.03c0.26-0.74,0.82-1.19,1.44-1.53
			c0.72-0.4,1.49-0.71,2.72-1.28c-0.9-0.26-1.23-0.45-1.55-0.43c-2.07,0.12-4.08,1.32-6.25,0.22c-0.38-0.19-1.4,0.11-1.61,0.48
			c-1.31,2.3-3.63,2.98-5.82,3.91c-0.45,0.19-0.83,0.59-1.16,0.97c-3.87,4.28-6.77,9.19-9.27,14.36c-1.99,4.12-3.05,8.38-1.79,12.98
			c0.72,2.63,2.6,4.01,4.66,3.55c-0.65-0.84-1.79-1.69-2.04-2.76c-0.44-1.86-0.47-3.84-0.43-5.77c0.09-4.62,2.66-8.4,4.43-12.45
			c0.67-1.53,1.3-3.12,2.26-4.47c1.41-1.99,3.07-3.81,4.67-5.65c0.38-0.44,0.95-0.71,1.61-1.19c0.25,0.98,0.4,1.59,0.54,2.13
			c1.51-1.61,2.98-3.16,4.44-4.71c0.53,5.59-4.74,7.06-6.87,10.72c-0.22,0.38-1.29,0.27-1.97,0.39c-1.24,2.03-2.5,4.09-3.68,6.03
			c-0.01-0.01-0.19-0.36-0.35-0.67c-0.46,1.19-0.96,2.26-1.28,3.38c-0.74,2.67-1.56,5.34-1.99,8.06c-0.13,0.81,0.93,1.8,1.45,2.71
			c0.18-0.11,0.37-0.23,0.55-0.34c0.07-1.51,0.14-3.01,0.21-4.52c0.2,0.01,0.4,0.02,0.61,0.03c0.1,2.65,0.75,3.34,3.09,3.32
			c-1.61-1.72-1.95-4.5-0.78-6.77c1.63-3.15,3.29-6.29,4.96-9.41c0.48-0.9,1.05-1.74,1.58-2.61c0.22,0.1,0.45,0.21,0.67,0.31
			c-0.17,0.75-0.26,1.53-0.51,2.25c-0.89,2.54-1.81,5.07-2.78,7.58c-1.68,4.35-1.43,8.6,0.73,12.68c0.35,0.66,1.45,0.92,2.64,1.62
			c-0.66-1.56-1.04-2.44-1.44-3.39c1.22-0.29,2.07-0.49,3.05-0.73c-2.7-1.6-2.95-2.27-1.91-5.03c0.43-1.15,0.93-2.29,1.42-3.42
			c1.23-2.83,2.46-5.67,3.72-8.49c0.98-2.19,2.01-4.35,3.02-6.52c0.18,0.06,0.35,0.13,0.53,0.19c-1.51,4.27-3.01,8.55-4.54,12.81
			c-0.88,2.44-0.89,4.84,0.23,7.18c0.54,1.12,1.28,2.17,3.28,1.6c-3.26-2.92-2.32-6.2-1.51-9.75c1.7,4.29,3.28,8.32,4.87,12.34
			c0.16-0.04,0.32-0.09,0.48-0.13c-0.33-1.42-0.66-2.83-1.04-4.48c1.2,0.39,2.04,0.67,2.87,0.94c0.14-0.14,0.29-0.28,0.43-0.42
			c-3.23-1.27-2.89-3.86-2.64-6.32c0.38-3.84,0.8-7.69,1.46-11.49c0.24-1.37,1.03-2.76,1.89-3.89c2.17-2.88,4.54-5.6,6.78-8.43
			c0.21-0.26,0.07-0.79,0.1-1.19C592.68,397.41,593.32,397.36,594.18,397.28z M507.69,317.38c0.33-0.11,0.66-0.22,0.99-0.33
			c-0.09-1.36-0.02-2.76-0.28-4.09c-1.65-8.53-2.36-17.16-2.22-25.82c0.14-8.29,0.81-16.57,1.07-24.86
			c0.36-11.08,0.69-22.17,0.76-33.25c0.06-8.82-0.07-17.62,0.75-26.43c0.89-9.6,1.21-19.26,1.85-28.89
			c0.54-8.06,1.22-16.11,1.76-24.17c0.07-1.11-0.3-2.25-0.47-3.38c-0.59,1.09-1.48,2.12-1.72,3.28c-0.59,2.92-0.96,5.9-1.27,8.86
			c-0.55,5.2-1.08,10.4-1.45,15.62c-0.61,8.72-1.05,17.45-1.6,26.18c-0.41,6.49-1.06,12.97-1.24,19.47
			c-0.16,5.6,0.37,11.21,0.3,16.82c-0.19,13.53-0.59,27.05-0.84,40.58c-0.12,6.82-0.09,13.63-0.14,20.45c0,0.43,0.05,0.97-0.17,1.28
			c-1.27,1.75-6.27,2.15-8.01,0.77c-0.66-0.52-1.48-0.83-2.71-1.5c1.58,4.49,3.18,6.58,11.18,2.59c0.74,4.88,1.44,9.75,2.25,14.6
			C506.63,315.93,507.28,316.64,507.69,317.38z M624.61,137.45c-0.31,0.1-0.62,0.2-0.93,0.3c-0.12,1.16-0.25,2.33-0.35,3.49
			c-0.61,6.85-1.25,13.7-1.82,20.56c-0.44,5.29-0.58,10.62-1.25,15.88c-1.9,14.83-4.08,29.63-6,44.47
			c-0.79,6.08-0.97,12.25-1.88,18.31c-1.63,10.78-1.52,21.42,0.58,32.14c1.14,5.85,1.9,11.82-0.11,17.76
			c-0.69,2.03-0.96,4.24-1.15,6.39c-0.16,1.84,0.61,2.44,2.18,2.38c0.43-2.46,0.83-4.87,1.26-7.27c1.16-6.41,2.63-12.95,1.22-19.36
			c-2.34-10.65-1.78-21.24-0.74-31.89c0.78-8.04,1.79-16.05,2.71-24.07c0.96-8.39,1.91-16.78,2.91-25.17
			c0.94-7.87,2.06-15.72,2.89-23.6c0.51-4.83,0.62-9.71,0.9-14.56c0.25-4.26,0.55-8.52,0.65-12.78
			C625.7,139.45,624.98,138.44,624.61,137.45z M552.22,289.14c3.65,0.76,3.66,0.74,3.65-2.32c-0.02-6.14,0.04-12.28-0.03-18.42
			c-0.04-3.82-0.22-7.63-0.41-11.45c-0.31-5.98-1.21-11.98-0.9-17.92c0.46-8.87,1.77-17.7,2.66-26.55c0.23-2.3,0.36-4.62,0.32-6.93
			c-0.14-8.08-0.56-16.16-0.54-24.24c0.02-8.08,0.5-16.17,0.67-24.25c0.05-2.38-0.19-4.78-0.51-7.15c-0.08-0.57-0.97-1.04-1.48-1.55
			c-0.21,0.61-0.59,1.22-0.6,1.83c-0.01,1.34,0.3,2.69,0.24,4.02c-0.3,7.17-0.66,14.34-1.03,21.5c-0.11,2.16-0.5,4.31-0.48,6.47
			c0.08,6.11,0.62,12.23,0.39,18.33c-0.32,8.35-1.12,16.68-1.82,25.01c-0.39,4.67-1.36,9.32-1.4,13.99
			c-0.04,5.36,0.85,10.72,1,16.09c0.23,8.52,0.19,17.06,0.26,25.59C552.23,283.88,552.22,286.56,552.22,289.14z M853.02,176.2
			c-0.32-3.72,2.05-7.16-0.45-10.5c-0.58,0.68-0.96,1.37-1.07,2.11c-0.39,2.58-0.59,5.19-1.09,7.75c-0.13,0.67-0.97,1.54-1.63,1.69
			c-2.1,0.49-4.28,0.65-6.41,1.01c-0.78,0.13-1.52,0.44-2.29,0.67c0.04,0.23,0.09,0.47,0.13,0.7c3.09,1.63,6.28-0.67,9.59-0.02
			c-0.47,4.11-0.8,8.27-1.52,12.37c-0.19,1.07-1.44,2.14-2.46,2.83c-2.04,1.36-4.42,2.25-6.38,3.71c-3.14,2.34-5.52,5.33-5.59,9.51
			c-0.01,0.83,0.52,2.31,0.99,2.4c1.76,0.32,3.83,0.73,5.36,0.09c3.1-1.29,5.93-3.25,9.19-5.12c0.31,1.05,0.66,2.06,0.92,3.11
			c0.63,2.53,1.07,5.12,1.89,7.58c0.33,0.98,1.47,1.69,2.24,2.52c0.22-0.15,0.43-0.3,0.65-0.46c-0.05-0.56-0.04-1.14-0.16-1.69
			c-0.89-3.85-1.76-7.71-2.73-11.55c-0.44-1.75-0.05-3.05,1.42-4.1c0.72-0.52,1.52-1.11,1.93-1.86c2.14-3.99,5.56-5.19,9.81-4.78
			c0.07,0.01,0.15-0.04,0.22-0.04c3.09-0.27,4.84,1.31,4.79,4.45c-0.09,4.75-2.47,8.51-5.36,12.02c-0.47,0.58-0.96,1.14-1.45,1.71
			c4.89-1.75,9.32-8.28,9.37-13.15c0.04-4.05-0.92-5.59-4.88-6.59c-2.38-0.6-4.92-0.58-7.51-0.85c0.59-1,1.34-2.03,1.83-3.17
			c0.47-1.09,0.66-2.29,1-3.57c-2.83,0.06-2.83,0.06-3.91,2.7c-2.01,4.92-3.37,5.74-8.23,4.73c0.33-3.83,0.74-7.68,0.95-11.54
			c0.09-1.75,0.82-2.49,2.46-2.9c2.6-0.66,5.16-1.5,7.7-2.38c1.26-0.44,2.53-1.01,3.62-1.77c0.68-0.47,1.03-1.4,1.53-2.12
			c-0.85,0.1-1.7,0.19-2.54,0.31c-0.13,0.02-0.23,0.19-0.35,0.27C861.05,174.52,857.09,175.43,853.02,176.2z M851.63,247.19
			c-0.22-0.16-0.45-0.33-0.67-0.49c4.22-5.65,8.47-11.27,12.62-16.97c0.52-0.71,0.53-1.79,0.78-2.69c-0.82-0.04-1.83-0.41-2.44-0.07
			c-5.15,2.87-10.23,5.87-15.34,8.82c-1.03,0.59-2.19,1.72-3.12,1.56c-2.94-0.48-3.42,1.39-3.78,3.4c-0.12,0.67,0.15,1.79,0.62,2.07
			c0.5,0.3,1.63,0.1,2.17-0.31c1.78-1.36,3.27-3.11,5.12-4.33c2.87-1.89,5.4-4.54,9.14-4.86c-2.13,3.13-4.2,6.24-6.33,9.3
			c-2.18,3.13-4.45,6.2-6.59,9.35c-0.38,0.56-0.35,1.4-0.51,2.12c0.9,0,1.8,0.06,2.69-0.04c0.29-0.03,0.53-0.5,0.81-0.74
			c3.76-3.37,8.27-5.28,13.06-6.57c0.75-0.2,1.89-0.07,2.47,0.38c6.03,4.67,5.26,15-1.35,18.89c-0.89-3.08-1.72-4.32-4.7-5.54
			c-4.43-1.83-8.11-1.38-9.24,4c-0.64,3.02,0.46,5.9,2.83,7.53c2.42,1.67,4.85,1.56,7.73-0.26c3.23-2.04,6.26-4.19,8.48-7.49
			c4.31-6.39,3.7-11.77-0.99-17.63c-1.91-2.4-4.54-3.04-7.46-1.88C855.62,245.53,853.63,246.37,851.63,247.19z M599.89,240.03
			c-2.78-0.1-5.13-0.62-7.24-0.12c-1.37,0.32-2.69,1.95-3.47,3.32c-0.39,0.69,0.12,2.46,0.82,3.09c1.39,1.27,3.14,1.47,4.92,0.24
			c1.51-1.04,3.19-1.84,4.9-2.8c0.58,0.43,1.24,1.1,2.04,1.46c1.08,0.49,2.08,2.74,3.2,1.24c1.15-1.55-1.01-2.33-2.1-3.03
			c-1.18-0.76-1.51-1.33-0.98-2.83c1.26-3.54-0.09-6.45-3.63-7.71c-2.67-0.96-5.54-1.37-8.28-2.02c0.46-0.97,0.98-2.2,1.6-3.38
			c0.56-1.06,0.48-2.02-0.66-2.35c-0.44-0.13-1.21,0.69-1.74,1.17c-0.25,0.22-0.25,0.71-0.45,1.01c-1.38,2.02-2.45,4.41-4.26,5.91
			c-1.81,1.49-4.36,2.07-6.73,3.1c-0.67-1.84-1.29-3.59-1.93-5.34c-1.29-3.48-1.43-3.62-3.66-3.49c0.76,2.4,1.38,4.76,2.25,7.02
			c1.18,3.05,1.16,2.99-1.38,5.2c-1.56,1.35-3.11,2.88-4.14,4.63c-1.71,2.92-0.38,6.82,2.22,6.88c2.79,0.06,5.77,0.22,7.71-2.6
			c0.48-0.7,1.3-1.18,1.74-1.57c1.97,1.28,3.69,2.58,5.58,3.56c1.92,1,2.34,0.66,2.85-1.59c-2.08,0.65-2.09,0.66-3.79-0.99
			c-0.54-0.52-0.99-1.12-1.52-1.65c-1.11-1.11-1.17-2.22-0.38-3.62c1.16-2.06,2.04-4.29,3.2-6.35c0.45-0.8,1.27-1.46,2.06-1.98
			c2.94-1.93,5.9-0.78,8.84,0.08C600.41,235.37,601.29,237.9,599.89,240.03z M702.08,288.83c-2.61,0.72-4.58,1.31-6.57,1.79
			c-1.96,0.47-3.98,0.72-5.9,1.32c-0.66,0.21-1.08,1.2-1.61,1.83c0.63,0.21,1.26,0.63,1.87,0.6c1.18-0.06,2.35-0.34,3.51-0.6
			c2.86-0.65,5.71-1.34,8.6-2.02c0.22,4.39-0.59,8.03-2.61,10.62c-4,5.11-9.04,8.82-15.16,11.09c-0.78,0.29-1.27,1.39-1.89,2.11
			c0.88,0.18,1.99,0.81,2.59,0.48c3.82-2.11,7.73-4.14,11.2-6.75c3.94-2.96,7.85-6.2,8.63-11.69c3.79,3.47,7.3,6.79,10.96,9.95
			c0.97,0.84,2.35,1.19,4.1,2.02c-0.27-1.19-0.23-1.71-0.47-1.97c-1.98-2.13-4-4.22-6.03-6.3c-2.4-2.46-4.95-4.78-7.21-7.36
			c-1.59-1.82-1.27-2.79,1-3.68c2.15-0.85,4.42-1.39,6.58-2.2c0.99-0.37,2.76-0.16,2.38-1.91c-0.07-0.33-2.09-0.54-3.09-0.3
			c-2.87,0.69-5.67,1.64-8.01,2.34c-1.97-1.66-3.57-3.1-5.27-4.41c-1.33-1.02-1.93-0.02-2.5,0.91
			C698.75,286.03,700.19,287.24,702.08,288.83z M583.8,170.02c-0.41,1.11-0.98,1.86-0.82,2.38c0.77,2.53,1.55,5.1,2.71,7.46
			c0.59,1.21,1.96,1.57,3.09,0.09c2.97-3.9,6.29-7.58,8.85-11.73c1.44-2.34,2.5-5.51,2.24-8.16c-0.39-3.9-3.99-5.89-7.25-7.59
			c-1.32-0.69-2.04-1.22-1.49-2.85c0.37-1.09,0.61-2.54-1.14-2.83c-1.59-0.26-1.82,1.01-2.3,2.17c-0.37,0.88-1.21,1.96-2.04,2.16
			c-2.57,0.64-4.7,1.82-6.56,3.68c-1.21,1.21-2.54,2.3-3.84,3.41c-0.89,0.76-2.36,1.51-1.33,2.82c1.15,1.47,2.23,0.08,3.18-0.69
			c0.29-0.23,0.47-0.59,0.76-0.82c2.37-1.93,4.29-4.48,7.81-5.57c-0.47,1.18-0.85,1.97-1.11,2.8c-0.98,3.12-2.13,6.21-2.82,9.39
			c-0.47,2.18,1.32,3.71,2.82,3.37c0.59-5.86,2.91-10.92,5.27-16.31c1.68,0.96,3.12,1.72,4.5,2.57c2.59,1.59,3.19,3.77,2.39,6.72
			c-1.66,6.09-5.84,10.38-10.29,15.33C585.53,175.19,584.78,172.93,583.8,170.02z M528.81,179.86c-0.15,0-0.31,0.01-0.46,0.01
			c0.15,1.41,0.35,2.82,0.43,4.24c0.11,1.85,1.2,2.92,2.81,3.38c1.64,0.47,2.99-0.1,4.09-1.54c3.11-4.09,5.69-8.47,6.95-13.45
			c0.71-2.78,1.11-5.74,0.99-8.6c-0.13-3.16-1.73-4.08-4.84-3.62c-0.76,0.11-1.53,0.15-2.32,0.22c-0.1-6.15-0.1-6.15-2.65-6.1
			c-0.32,1.82-0.83,3.64-0.9,5.48c-0.07,1.86-1.11,2.81-2.45,3.73c-3.25,2.26-6.44,4.61-9.73,6.81c-1.2,0.8-1.45,1.84-0.69,2.75
			c0.26,0.31,1.88-0.11,2.57-0.62c2.67-2,5.22-4.17,7.81-6.27c0.19,0.15,0.38,0.3,0.57,0.44c-0.45,1.47-0.9,2.94-1.34,4.42
			c-0.34,1.14-0.52,2.46,0.88,2.77c0.64,0.14,1.6-0.78,2.28-1.37c0.34-0.3,0.4-0.95,0.56-1.45c0.7-2.13,1.36-4.27,2.08-6.4
			c0.69-2.03,2.61-1.75,4.15-1.96c0.32-0.04,1.19,1.14,1.14,1.69c-0.65,6.79-2.41,13.21-6.73,18.7c-0.58,0.74-1.02,1.6-1.52,2.4
			c-0.32-0.15-0.64-0.3-0.96-0.45C530.63,183.35,529.72,181.6,528.81,179.86z M882.7,304.43c0.32-0.11,0.64-0.21,0.95-0.32
			c-0.19-0.97-0.2-2.02-0.61-2.9c-1.77-3.86-3.67-7.66-5.5-11.49c-1.03-2.16-1.96-4.37-3.09-6.47c-0.28-0.52-1.17-0.78-1.83-0.98
			c-0.19-0.06-0.75,0.45-0.82,0.77c-1.05,4.78-1.9,9.6-3.1,14.35c-0.8,3.18-2.66,5.86-5.39,7.77c-2.57,1.81-5.41,0.9-6.16-2.14
			c-0.5-2.05-0.6-4.28-0.43-6.39c0.25-3.02,1-6,1.36-9.02c0.1-0.84-0.41-1.75-0.65-2.63c-0.91,0.4-1.96,0.64-2.7,1.25
			c-0.84,0.7-1.41,1.73-2.1,2.62c-1.49,1.95-3.03,3.86-4.44,5.87c-0.47,0.67-0.57,1.59-0.84,2.4c0.85-0.27,1.97-0.29,2.51-0.85
			c1.89-1.98,3.58-4.16,5.24-6.13c-0.3,3.54-0.8,7.16-0.85,10.79c-0.05,3.34,2.13,6.18,4.94,7.06c3.24,1.02,5.89-0.1,8.03-2.53
			c2.5-2.84,4.25-6.07,4.92-9.86c0.46-2.57,1.12-5.09,1.77-8.01C876.52,293.64,878.86,299.46,882.7,304.43z M643.06,213.94
			c0.18,0.28,0.36,0.55,0.54,0.83c-1.73,3.75-3.46,7.51-5.28,11.45c0.91,0.3,1.79,0.58,3.25,1.05c1.97-4.59,3.88-9.03,5.79-13.46
			c4.85,0.23,6.65,2.68,4.88,7.09c-1.16,2.89-2.85,5.58-4.38,8.31c-0.45,0.8-1.16,1.45-2.02,2.51c-0.43-2.38-0.77-4.24-1.11-6.1
			c-0.24,0-0.47,0.01-0.71,0.01c-0.07,2.56-0.28,5.14-0.15,7.69c0.07,1.38,2.21,1.83,3.32,0.82c3.98-3.61,6.39-8.26,8.34-13.13
			c0.96-2.39,0.58-4.84-1.65-6.47c-1.69-1.23-3.63-2.12-5.8-3.36c0.18-0.74,0.43-1.96,0.76-3.16c0.68-2.43,1.51-4.83,2.02-7.29
			c0.11-0.51-0.91-1.26-1.41-1.89c-0.41,0.33-1.06,0.59-1.2,1.01c-1.11,3.38-2.19,6.77-3.13,10.19c-0.38,1.38-1.1,1.66-2.43,2
			c-3.66,0.94-7.22,2.27-11.25,3.59c2.21,1.8,3.77,1.68,5.57,0.77C638.95,215.43,641.04,214.75,643.06,213.94z M532.98,201.99
			c0.83,2.12,1.6,3.78,2.09,5.51c0.15,0.51-0.3,1.56-0.77,1.82c-1.29,0.71-2.76,1.08-4.12,1.68c-1.12,0.5-3.1,0.31-2.7,2.17
			c0.09,0.44,2.41,0.55,3.7,0.52c0.85-0.02,1.69-0.55,2.51-0.89c0.8-0.33,1.59-0.7,2.76-1.21c0.14,1.94,0.26,3.55,0.38,5.14
			c-2.91,0.55-4.64,2.26-5.43,4.85c-0.87,2.84,0.36,4.74,3.46,5.75c-2.13,3.71-4.11,7.17-6.1,10.63c0.28,0.24,0.56,0.49,0.84,0.73
			c1.06-0.75,2.31-1.34,3.15-2.29c5.19-5.86,8.06-12.6,6.69-20.54c-0.72-4.18,0.53-6.77,4.72-7.78c0.21-0.05,0.47-0.12,0.6-0.28
			c0.35-0.42,0.63-0.89,0.94-1.34c-0.52-0.32-1.09-0.98-1.55-0.9c-1.3,0.21-2.64,0.54-3.79,1.14c-1.7,0.89-2.58,0.42-3.26-1.24
			C536.44,203.87,535.53,202.43,532.98,201.99z M772.77,197.17c1.09,1.98,1.67,3.03,3.73,2.05c2.32-1.11,4.89-1.82,7.43-2.32
			c1.54-0.3,2.06-0.83,2.31-2.34c1.2-7.22,2.34-14.46,5.71-21.1c0.27-0.53,0.43-1.13,0.52-1.72c0.35-2.29-0.62-3.05-2.77-2.27
			c-2.1,0.76-4.19,1.58-6.34,2.15c-4.61,1.23-9.27,2.27-13.87,3.55c-0.59,0.16-0.93,1.22-1.39,1.87c0.67,0.34,1.42,1.07,2,0.96
			c2.62-0.5,5.19-1.2,7.77-1.89c3.42-0.91,6.83-1.88,10.76-2.96c-0.49,1.57-0.59,2.85-1.22,3.75c-2.93,4.15-2.76,9.15-3.81,13.78
			c-0.8,3.56-0.52,3.55-4.2,4.42C777.27,195.6,775.21,196.4,772.77,197.17z M491.96,240.31c0-1.88-0.11-3.82,0.05-5.74
			c0.07-0.78,0.53-1.74,1.13-2.22c2.09-1.67,4.46-3.01,6.47-4.77c1.55-1.35,1.28-2.7,0.23-3.28c-2.6,2.2-5.04,4.26-7.55,6.39
			c-1.69-2.77-1.59-5.5-0.28-6.78c0.77-0.75,1.26-1.79,1.88-2.69c-1.13,0.06-2.25,0.12-3.38,0.18c-0.14,0.01-0.29-0.05-0.43-0.08
			c-1.01-0.99-0.43-3.79-3.25-2.98c0.34,1.52,1.19,3.04,0.78,4.06c-0.43,1.08-2.06,1.68-3.16,2.5c-0.3,0.22-0.66,0.42-0.86,0.71
			c-0.4,0.58-0.71,1.23-1.05,1.85c0.74,0.03,1.53,0.24,2.22,0.05c1.08-0.3,2.08-0.86,3.25-1.37c0.4,1.4,0.8,2.38,0.96,3.39
			c0.26,1.68,0.24,3.24-1.89,3.87c-1.06,0.31-2.1,0.84-3,1.48c-0.48,0.34-0.64,1.14-0.95,1.73c0.6,0,1.25,0.14,1.79-0.04
			c1.44-0.47,2.83-1.08,4.58-1.77c-0.29,3.33,0.35,6.39-2.8,8.54c-1.27,0.86-2.04,2.53-2.86,3.93c-0.26,0.45-0.19,1.44,0.14,1.81
			c0.34,0.37,1.45,0.59,1.77,0.33c1.55-1.29,3.4-2.53,4.28-4.23c1.13-2.19,2.36-2.55,4.45-1.82c1.22,0.43,2.52,0.59,4.39,1.01
			C497.29,240.97,494.31,241.46,491.96,240.31z M776.55,273.6c-1.03-0.91-1.86-1.77-2.83-2.42c-0.46-0.31-1.2-0.19-1.81-0.26
			c0.09,0.6-0.03,1.39,0.31,1.77c2.65,2.92,2.54,6.5,1.9,9.87c-0.47,2.48-2.02,4.77-3.13,7.12c-0.54,1.15-1.16,2.26-1.74,3.38
			c0.18,0.2,0.36,0.4,0.54,0.6c0.9-0.31,2.17-0.35,2.64-0.98c3.08-4.12,5.32-8.57,5.22-13.95c-0.02-1.28,0.58-2.76,1.34-3.83
			c2.52-3.6,5.3-7.02,7.84-10.61c0.42-0.59,0.36-1.81,0.03-2.51c-0.18-0.38-1.45-0.56-2.1-0.38c-4.15,1.15-8.23,2.52-12.39,3.62
			c-1.99,0.53-4.09,0.61-6.14,0.9c-0.11,0.21-0.22,0.42-0.33,0.63c0.67,0.61,1.37,1.79,2,1.75c3.04-0.17,6.07-0.62,9.09-1.08
			c1.48-0.23,2.93-0.71,4.39-1.08c0.1,0.17,0.2,0.34,0.3,0.52C779.94,269.01,778.19,271.37,776.55,273.6z M662.66,175.86
			c-0.68-2.94-2.19-2.52-3.53-2.21c-3.54,0.83-7.07,1.15-10.63,0.12c-4.17-1.2-5.25-4.8-2.4-8.18c3.94-4.67,8.34-8.96,12.48-13.46
			c0.53-0.57,1.07-1.56,0.94-2.22c-0.31-1.58-1.85-1.59-3.27-0.22c-3.36,3.25-6.76,6.47-10.36,9.9c-1.07-1.77-2.13-3.3-2.96-4.95
			c-1.89-3.72-1.84-3.75-3.81-3.68c0.65,3.33,2.42,6.09,4.18,8.81c0.8,1.23,0.99,1.93,0,3.26c-1.66,2.24-2.8,5-1.51,7.73
			c1.55,3.26,4.53,5.02,8.1,5.18C654,176.14,658.14,175.91,662.66,175.86z M760.45,310.54c-1.34,1.24-1.17,2.12-0.12,3.05
			c2.24,1.98,4.37,4.08,6.67,5.99c1.49,1.24,2.09,2.29,0.65,4.02c-0.73,0.88-1.2,2.11-1.46,3.25c-1.07,4.76-1.13,7.43,5.09,8.67
			c4.2,0.83,8.21-0.07,12.15-1.21c2.39-0.69,4.65-1.88,6.88-3.01c0.52-0.26,0.7-1.18,1.03-1.8c-2.17,0.63-3.74,1.68-5.46,2.26
			c-4.62,1.56-9.34,2.82-14.29,1.89c-2.58-0.48-3.5-1.56-2.92-4.07c0.53-2.28,1.29-4.67,2.58-6.58c2.19-3.25,4.88-6.15,7.33-9.23
			c0.64-0.81,1.24-1.69,1.64-2.63c0.18-0.42-0.02-1.39-0.31-1.52c-0.46-0.21-1.33-0.13-1.7,0.2c-1.01,0.88-1.86,1.94-2.74,2.96
			c-1.83,2.1-3.64,4.22-5.55,6.42c-1.77-1.68-3.2-3.1-4.69-4.46C763.7,313.34,762.12,312,760.45,310.54z M526.2,257.37
			c1.31-2.73,2.7-5.56,3.99-8.44c0.27-0.59,0.11-1.37,0.15-2.07c-0.73,0.28-1.77,0.36-2.14,0.89c-1.4,2.01-2.61,4.15-3.85,6.28
			c-2.59,4.45-5.19,8.9-7.66,13.42c-0.29,0.54,0.23,1.52,0.38,2.3c0.82-0.23,1.68-0.37,2.44-0.72c0.33-0.15,0.45-0.75,0.67-1.14
			c1.41-2.49,2.82-4.98,4.41-7.78c0.82,1.05,1.52,1.73,1.95,2.55c1.78,3.42,4.29,5.46,8.38,5.59c5.48,0.18,11.14-1.84,13.18-7.54
			c0.63-1.75,0.43-3.23-0.76-4.51c-0.45,1.7-0.58,3.48-1.37,4.9c-2.09,3.77-7.12,5.62-11.43,4.86c-2.64-0.47-4.19-1.95-5.43-4.11
			C528.26,260.38,527.26,258.99,526.2,257.37z M493.66,150.14c-0.16,0.68-0.17,0.98-0.29,1.23c-0.29,0.61-0.67,1.17-0.95,1.78
			c-2.33,5.05-5.38,9.73-5.88,15.59c-0.44,5.19,4.49,9.81,9.78,8.64c2.2-0.49,3.72-1.98,3.79-3.58c-0.27,0.2-0.5,0.4-0.75,0.56
			c-3.75,2.42-9.1,0.26-10.11-4.05c-0.76-3.24,0.62-6.05,1.81-8.82c1.8-4.19,3.93-8.23,5.8-12.39c0.43-0.96,0.37-2.14,0.55-3.31
			c-0.78,0-1.05-0.08-1.22,0.01c-5.55,2.93-11.12,5.83-16.6,8.9c-0.66,0.37-0.78,1.68-1.15,2.56c0.87-0.09,1.87,0.07,2.6-0.3
			C485.16,154.81,489.21,152.55,493.66,150.14z M779.68,238.76c-2.97,0.52-5.85,0.98-8.69,1.58c-0.56,0.12-1,0.81-1.49,1.24
			c0.66,0.31,1.36,0.97,1.97,0.88c3.25-0.45,6.49-1.06,9.71-1.69c0.79-0.15,1.6-0.48,2.27-0.93c0.35-0.23,0.63-1.25,0.56-1.3
			c-1.68-1.07-0.74-2.48-0.6-3.8c0.46-4.53,0.98-9.05,1.26-13.59c0.06-1.01-0.59-2.26-1.3-3.03c-0.28-0.3-1.68,0.33-2.51,0.68
			c-1.03,0.44-1.95,1.12-2.99,1.54c-2.97,1.21-6,2.26-8.93,3.55c-0.59,0.26-0.85,1.27-1.26,1.94c0.64,0.33,1.32,0.99,1.93,0.93
			c1.31-0.13,2.65-0.48,3.87-1.01c2.77-1.2,5.46-2.55,8.92-4.19C781.43,227.66,780.56,233.16,779.68,238.76z M703,235.85
			c0.72-0.25,1.48-0.41,2.14-0.77c2.05-1.1,4.03-2.32,6.09-3.4c1.81-0.95,2.99-0.11,3.72,1.6c1.08,2.53,0.85,5.05-0.53,7.33
			c-3.44,5.67-7.09,11.21-10.51,16.89c-1.52,2.53-2.61,5.3-2.45,9.15c1.03-1.17,1.8-1.78,2.23-2.57c2.08-3.81,3.89-7.78,6.13-11.48
			c2.01-3.3,4.44-6.36,6.73-9.48c1.74-2.36,2.3-4.99,1.95-7.84c-0.35-2.81-2.01-5.02-3.99-5.4
			C710.47,229.12,705.37,232.02,703,235.85z M579.84,461.17c4.01,0.29,6.98-2.01,8-6.18c0.92-3.76-1.31-9.01-4.53-9.97
			c-0.96-0.29-2.66,0.21-3.31,0.96c-0.94,1.11-1.46,2.72-1.76,4.2C577.47,453.93,577.96,457.59,579.84,461.17z M603.71,270.41
			c-0.29-0.2-0.57-0.41-0.86-0.61c-0.42,0.49-0.83,0.99-1.27,1.45c-2.99,3.1-5.78,6.44-9.04,9.23c-4.92,4.22-12.47-0.62-12.48-6.14
			c0-2.37,0.22-4.75,0.61-7.09c0.29-1.73,1.1-3.38,1.45-5.1c0.09-0.43-0.63-1.38-1.09-1.47c-0.55-0.11-1.67,0.33-1.79,0.74
			c-0.92,3.19-1.94,6.4-2.4,9.67c-0.94,6.79,2.95,10.85,9.4,12.95c2.47,0.8,4.88,0.45,6.84-1.02c2.31-1.72,4.48-3.72,6.34-5.91
			C601.1,275.09,602.29,272.66,603.71,270.41z M553.51,441.35c-0.57-0.9-1.26-1.55-1.41-2.31c-0.4-2.1-0.93-4.28-0.75-6.37
			c0.29-3.31,1.01-6.61,1.75-9.86c0.48-2.09,1.05-4.25,2.07-6.11c2.78-5.04,4.8-10.57,9.22-14.69c-4.33-0.72-5.22-0.26-6.73,3.32
			c-0.92,2.19-1.85,4.38-2.76,6.57c-1.48,3.57-3.15,7.09-4.37,10.75c-1.32,3.94-2.48,8.02-1.59,12.26
			C549.5,437.65,550.05,440.52,553.51,441.35z M588.85,422.5c-1.98-5.1,1.41-10.47,3.89-10.98c0-1.16-0.41-2.83,0.07-3.14
			c1.81-1.19,2.81-2.67,2.84-4.69c1.08-0.2,2.03-0.38,3.01-0.56c-0.28-0.6-0.44-0.94-0.62-1.32c1.11-0.18,2.03-0.33,2.96-0.48
			c-3.68-0.92-5.66,0.01-6.99,2.48c-1.36,2.52-3.09,4.85-4.4,7.4c-1.31,2.53-3.26,4.77-3.1,8c0.13,2.73-0.35,5.5-0.62,8.24
			c-0.14,1.4-0.6,2.8-0.55,4.18c0.17,4.28,3.31,6.49,6.69,5.29c-0.52-1.37-1.25-2.71-1.5-4.13c-0.25-1.42,0.06-2.92,0.01-4.39
			c-0.15-4.72-0.49-9.45,1.62-13.94C589.7,416.44,589.63,419.44,588.85,422.5z M716.81,183.7c-0.09-0.2-0.19-0.39-0.28-0.59
			c-4.59,0.17-8.02,3.58-12.49,5.07c-0.32-8.06-0.51-15.87,1.31-24.19c-2.97,1.45-3.57,3.64-3.66,5.74
			c-0.28,6.41-0.28,12.84-0.38,19.26c-0.04,2.43,1.49,3.32,3.61,2.11c1.88-1.08,3.75-2.17,5.59-3.32
			C712.62,186.46,714.71,185.07,716.81,183.7z M486.44,289.05c-0.11,0.65-0.15,1.16-0.28,1.65c-0.97,3.68-2,7.34-2.88,11.04
			c-0.12,0.51,0.43,1.19,0.67,1.79c0.52-0.44,1.33-0.79,1.51-1.34c1.31-4.1,2.81-8.17,3.6-12.37c0.55-2.92,2.31-3.88,4.61-4.75
			c1.41-0.53,2.74-1.24,4.66-2.13c-3.24-1.72-5.42,0.63-7.93,0.47c0-0.78,0.13-1.54-0.03-2.22c-0.19-0.78-0.64-1.5-0.98-2.25
			c-0.51,0.68-1.06,1.33-1.49,2.05c-0.17,0.28-0.1,0.73-0.09,1.11c0.09,1.91-0.59,3.28-2.46,4.08c-1.12,0.48-2.11,1.27-3.17,1.93
			C483.25,290.45,484.85,289,486.44,289.05z M601.17,423.24c-0.31,0.05-0.97,0-1.05,0.19c-1.99,4.8-3.74,9.63,0.1,14.71
			c-0.58-0.17-0.78-0.17-0.82-0.25c-2.78-5.2-5.59-10.28-2.21-16.47c1.37-2.52,1.61-5.64,2.53-8.43c1.03-3.15,2.24-6.25,3.6-10
			c-0.97,0.54-1.92,0.73-2.11,1.22c-1.16,3.03-2.15,6.12-3.2,9.19c-0.61,1.81-0.97,3.76-1.87,5.41c-3.1,5.69-2.44,14.24,1.67,19.13
			c1.28,1.52,3.25,1.49,4.42,0.07C596.83,433.43,601.06,428.27,601.17,423.24z M631.4,270.87c-0.5-3.46-1-6.44-1.35-9.43
			c-0.25-2.14-0.18-4.33-0.5-6.46c-0.1-0.64-1.06-1.14-1.63-1.7c-0.49,0.52-1.43,1.09-1.38,1.56c0.53,5.39,1.14,10.78,1.9,16.14
			c0.11,0.79,0.96,1.86,1.7,2.12c2.02,0.71,7.19-3.04,7.6-5.6C635.72,268.58,633.86,269.57,631.4,270.87z M497.51,270.08
			c-0.13-0.08-0.27-0.17-0.4-0.25c-2.15,0.64-4.27,1.49-6.47,1.87c-2.88,0.49-4.37-0.65-4.47-3.56c-0.14-4.21,0.04-8.44,0.17-12.65
			c0.04-1.17,0.34-2.47-1.25-2.51c-0.46-0.01-1.37,1.25-1.39,1.94c-0.13,5.06-0.14,10.12-0.05,15.18c0.03,1.71,0.98,3.21,2.81,3.22
			c2.64,0,5.33-0.2,7.9-0.77C495.54,272.28,496.47,270.93,497.51,270.08z M572.59,194.66c0.37,4.34,0.6,8.8,1.18,13.2
			c0.29,2.16,2.58,3.53,4.15,2.58c2.62-1.59,5-3.56,7.48-5.37c-0.19-0.3-0.37-0.61-0.56-0.91c-2.55,1.34-5.09,2.68-7.9,4.15
			c-0.21-1.07-0.42-1.77-0.49-2.49c-0.28-3.05-0.57-6.11-0.77-9.16C575.57,194.95,575.09,193.86,572.59,194.66z M481.54,196.13
			c-1.52-1.67-2.39-0.91-3.17,0.5c-1.94,3.52-2.01,7.25-1.25,11.07c0.39,1.98,1.53,2.64,3.36,1.81c4-1.82,6.24-5.33,8.6-8.72
			c-0.16-0.18-0.32-0.37-0.49-0.55c-2.8,2.35-5.6,4.71-8.56,7.19C478.45,203.36,479.25,198.09,481.54,196.13z M492.04,191.68
			c-0.2,0.22-0.4,0.44-0.61,0.67c4.29,5.13,5.09,10.78,2.27,16.99c0.81-0.16,1.01-0.14,1.08-0.22c4.79-5.33,3.43-11.51-0.07-16.56
			C494.29,191.94,492.96,191.96,492.04,191.68z M662.73,205.54c-0.32,0.2-0.63,0.4-0.95,0.61c0.2,0.97,0.35,1.96,0.61,2.92
			c1.06,3.79,2.12,7.59,3.3,11.35c0.2,0.65,0.99,1.11,1.5,1.66c0.25-0.64,0.84-1.36,0.71-1.92c-0.93-4.12-1.92-8.24-3.1-12.3
			C664.53,206.96,663.44,206.31,662.73,205.54z M655.19,274.2c1.88-1.3,2.39-2.09,2.28-4.05c-0.18-3.27-0.21-6.6-0.85-9.79
			c-0.51-2.55-1.8-4.95-2.84-7.38c-0.12-0.28-0.85-0.3-1.3-0.43c-0.03,0.47-0.25,1.04-0.06,1.41c3,5.8,3.46,11.94,2.63,18.28
			C654.97,272.81,655.12,273.42,655.19,274.2z M593.51,190.96c1.93,5,3.53,9.97,2.38,15.48c2.25-0.24,3.28-1.51,3.19-3.38
			c-0.1-2.29-0.31-4.65-0.96-6.84C597.45,193.99,596.73,191.48,593.51,190.96z M730.99,181.7c2.37-1.01,1.78-2.9,1.3-4.56
			c-0.72-2.51-1.81-4.91-2.49-7.43c-0.5-1.83-1.48-2.43-3.4-2.09C727.94,172.34,729.45,176.98,730.99,181.7z M614.76,161.18
			c-3.77-4.94-7.35-9.61-11.17-14.62C602.74,150.79,611.01,161.46,614.76,161.18z M507.51,152.23c0.25-0.02,0.5-0.04,0.76-0.06
			c0.23-0.88,0.69-1.78,0.63-2.65c-0.18-3.13-0.47-6.26-0.89-9.37c-0.08-0.57-0.94-1.03-1.44-1.54c-0.43,0.52-1.26,1.06-1.24,1.56
			c0.17,3.2,0.45,6.41,0.87,9.59C506.33,150.63,507.06,151.41,507.51,152.23z M705.85,214.59c1.63,1.5,2.96,2.91,4.5,4.05
			c0.56,0.42,1.58,0.21,2.39,0.29c-0.23-0.63-0.31-1.4-0.72-1.87c-1.51-1.73-3.28-3.26-4.68-5.07c-1.29-1.68-2.7-1.65-4.31-1.21
			c0.68,1.98,1.31,3.8,2.03,5.9C705.34,215.95,705.53,215.45,705.85,214.59z M498.28,307.1c-0.79,2.13-0.07,4.12,1.68,4.75
			c1.52,0.54,3.27-0.53,3.95-2.42c0.13-0.35,0.17-0.72,0.28-1.08c0.44-1.51,0.25-3.11-1.27-3.56c-1.64-0.48-2.52,0.91-3.24,2.69
			c1.01-0.22,1.64-0.35,2.66-0.57c-0.33,1.14-0.57,1.99-0.99,3.47C500.07,309,499.17,308.05,498.28,307.1z M503.14,139.56
			c-0.29-0.04-0.58-0.07-0.88-0.11c-1.58,2.46-1.03,5.33-0.9,8.05c0.08,1.65,1.34,2.45,3.18,2.65
			C504.06,146.5,503.6,143.03,503.14,139.56z M717.73,277.54c0.5,1.97,8.72,8.24,10.92,8.32
			C727.89,283.6,719.78,277.41,717.73,277.54z M501.4,289.13c-2.72,0.94-5.33,1.81-7.91,2.76c-0.28,0.1-0.57,1.01-0.51,1.05
			c0.49,0.35,1.19,0.94,1.61,0.8c2.45-0.82,4.85-1.79,7.22-2.8c0.32-0.14,0.55-0.81,0.55-1.24
			C502.36,289.51,501.72,289.31,501.4,289.13z M541.43,149.3c0.38,3.18,5.65,7.41,8.07,6.51
			C546.7,153.79,545.21,150.46,541.43,149.3z M542.23,187.52c1.67,2.09,3.22,3.91,5.89,4.82
			C547.25,188.38,544.83,186.34,542.23,187.52z M550.54,148.62c3.25-0.79,2.07-3.01,1.95-4.63c-0.06-0.77-1.04-1.46-1.6-2.19
			c-0.23,0.15-0.46,0.29-0.68,0.44C550.32,144.33,550.43,146.41,550.54,148.62z M549.86,150.27c-0.69-4.72-0.34-5.47-3-5.31
			C546.55,148.2,547.31,149.63,549.86,150.27z M663.44,193.32c0.23-0.12,0.46-0.25,0.69-0.37c0.5-1.89-0.43-3.28-1.76-4.45
			c-0.31-0.27-0.94-0.25-1.41-0.2c-0.12,0.01-0.38,0.72-0.25,0.92C661.57,190.61,662.52,191.96,663.44,193.32z M797.71,337.79
			c0.22-0.08,0.44-0.16,0.66-0.23c-0.75-1.11-1.41-2.3-2.3-3.29c-0.19-0.21-1.46,0.12-1.75,0.53c-0.35,0.52-0.2,1.38-0.27,2.1
			c0.28,0.16,0.55,0.31,0.83,0.47c0.24-0.63,0.48-1.27,0.77-2.03C796.58,336.44,797.15,337.12,797.71,337.79z"/>
		<path d="M539.19,412.81c-0.22-2.91,5.38-1.47,3.68-5.78c1.46,0.53,2.32,0.84,3.06,1.1c0.73-0.62,1.42-1.21,2.54-2.16
			c0,2.79-2.65,4.51-1.11,6.68c1.17-2.06,2.29-4.13,3.53-6.12c0.14-0.23,0.97-0.03,1.7-0.03c-0.92,1.27-1.62,2.24-2.33,3.22
			c0.15,0.12,0.31,0.23,0.46,0.35c1.12-0.76,2.23-1.52,3.35-2.28c0.06,0.14,0.13,0.28,0.19,0.42c-1.64,3.19-3.59,6.27-4.87,9.6
			c-2.21,5.8-5.04,11.58-3.53,18.11c0.38,1.64,1.07,3.21,1.68,5c-2.69-0.68-4.79-1.93-6.02-4.79c-1.19,2.57-4,4.53-3.58,7.55
			c0.77,5.54,1.73,11.11,3.33,16.45c1.84,6.15,6.31,10.34,12.01,13.23c5.23,2.65,10.58,4.54,16.43,3.23
			c-0.39-2.09-0.8-4.17-1.17-6.26c-0.29-1.66,0.58-1.99,1.98-1.66c0.88,0.2,1.8,0.31,2.61,0.66c1.87,0.78,3.49,1.32,5.65,0.24
			c1.44-0.72,3.52-0.15,4.76,1.47c-0.56,0.73-0.93,1.55-1.57,1.94c-0.73,0.44-1.78,0.84-2.53,0.65c-2.75-0.7-5.43-1.65-8.14-2.51
			c-0.71,3.69,1.31,5.99,4.92,5.65c5.29-0.51,10.33-1.96,14.82-4.76c1.83-1.14,3.42-2.93,4.62-4.75c3-4.55,5.74-9.27,8.53-13.95
			c0.32-0.54,0.48-1.29,0.45-1.93c-0.19-4.49,1.28-8.54,3.17-12.48c0.46-0.96,0.33-1.52-0.23-2.54c-0.99-1.81-1.64-3.97-1.81-6.04
			c-0.29-3.37-0.08-6.79-0.08-10c-0.96,0.82-1.27,3.7-0.74,7.58c0.38,2.76,0.65,5.53,0.64,8.36c-1.22-2.39-2.49-4.7-2.23-7.53
			c0.25-2.73,0.14-5.51,0.59-8.2c0.44-2.64,1.37-5.2,1.74-7.94c-2.45,2.87-2.92,6.62-4.17,10.24c-1.59-2.97,4.13-15.74,7.17-16.94
			c-1.3,4.61-0.32,9.48-1.17,14.25c-0.88,4.9-0.65,9.96,0.73,14.88c1.01-6.43,1.77-12.86,0.94-19.24c2.32,0.53,3.43,1.83,3.29,4.63
			c-0.28,5.45-0.34,10.95-1.14,16.34c-0.46,3.09-2.17,5.99-3.32,8.97c-0.16,0.42-0.52,0.85-0.48,1.24
			c0.72,6.34-3.12,11.05-5.94,16.02c-2.3,4.04-4.45,8.52-8.87,10.74c-3.55,1.79-7.35,3.15-11.15,4.38c-2.16,0.7-4.54,0.74-7.26,1.14
			c1.12,4.93,2.24,9.85,3.41,15.03c3.58-0.74,6.11-2.58,8.69-4.3c1.91-1.28,3.75-2.66,5.7-3.89c0.4-0.25,1.35-0.25,1.6,0.04
			c0.34,0.39,0.47,1.23,0.3,1.74c-1.07,3.24-2.24,6.45-3.29,9.39c3.34,0.77,6.57,1.27,9.63,2.27c5.71,1.88,7.48,4.83,6.57,10.72
			c-0.26,1.67,0.04,2.52,1.66,2.98c6.43,1.86,12.84,3.77,19.55,5.74c0.61-4.42,3.41-6.6,6-8.93c2.05-1.84,5.06-1.77,6.67,0.4
			c0.5,0.68,0.65,1.94,0.41,2.79c-0.52,1.9-1.39,3.7-2.1,5.5c0.07,0.11,0.1,0.21,0.15,0.23c1.66,0.88,4.07,1.33,4.83,2.7
			c1.59,2.85,2.54,6.64,0.91,9.44c-1.61,2.75-0.04,3.98,0.76,5.92c0.47,1.13,0.84,3.04,0.24,3.74c-2.67,3.13-2.68,7.12-3.98,10.67
			c-1.51,4.11-3.2,4.5-5.54,1.73c-1.58,1-3.1,1.96-4.61,2.91c-0.8-1.57-1.61-3.15-2.45-4.78c-1.23,0.85-2.71,1.7-3.96,2.8
			c-1.41,1.24-2.77,1.15-4.04,0.12c-1.39-1.13-2.73-2.37-3.81-3.79c-2.27-3-4.19-6.27-6.57-9.18c-2.43-2.97-5.58-5.08-9.17-6.59
			c-2.59-1.09-5.02-2.56-7.45-3.98c-0.43-0.25-0.55-1.06-0.81-1.61c0.63-0.06,1.25-0.14,1.88-0.16c0.21-0.01,0.43,0.12,0.63,0.23
			c4.33,2.34,8.9,4.33,12.89,7.15c2.91,2.05,5.15,5.09,7.51,7.85c2.06,2.41,3.88,5.02,5.78,7.57c0.72,0.96,1.47,1.14,2.48,0.43
			c1.29-0.9,2.56-1.86,3.96-2.55c0.93-0.46,2.13-0.76,3.1-0.57c0.39,0.08,0.52,1.66,0.69,2.57c0.12,0.63,0.1,1.28,0.18,2.58
			c0.91-1.21,1.42-2,2.03-2.68c0.51-0.57,1.14-1.4,1.73-1.41c0.53-0.01,1.12,0.89,1.63,1.45c0.33,0.37,0.56,0.83,1.02,1.53
			c0.55-1.27,1.19-2.23,1.39-3.28c0.65-3.34,1.66-6.42,3.69-9.31c1.28-1.82-0.33-3.9-1.68-5.33c-1.24-1.31-1.37-2.16-0.19-3.58
			c1.81-2.19,1.78-7.15-0.04-9.32c-0.51-0.61-1.64-0.8-2.53-0.93c-0.52-0.07-1.11,0.5-1.68,0.54c-0.79,0.04-1.59-0.15-2.39-0.24
			c0.1-0.76,0.1-1.56,0.33-2.29c0.73-2.33,1.58-4.63,2.27-6.97c0.13-0.43-0.3-1.01-0.47-1.53c-0.52,0.18-1.16,0.24-1.55,0.57
			c-2.47,2.12-4.91,4.19-5.35,7.84c-0.18,1.52-1.86,1.38-3.19,1.09c-6.82-1.52-13.79-2.44-20.22-5.41
			c-0.46-0.21-1.02-0.22-1.59-0.34c-2.05,4.63-3.75,9.51-8.54,12.14c-4.57,2.51-9.53,2.67-14.56,2.21c0,4.44,0.27,8.91-0.08,13.33
			c-0.33,4.2-1.1,8.41-2.09,12.51c-0.85,3.52-2.21,6.93-3.53,10.32c-0.37,0.95-1.27,2.07-2.17,2.35c-3.06,0.98-3.12,3.49-3.28,5.87
			c-0.42,6.56-0.69,13.13-1.03,19.7c-0.13,2.47-0.27,4.94-0.39,7.4c-0.15,2.96-1.56,3.98-4.43,3.09c-2.27-0.71-4.51-1.55-6.81-2.36
			c-1.01,5.44-1.98,10.68-3,16.17c1.25,0.13,2.32,0.25,2.85,0.3c0.69-4.27,1.35-8.33,2.03-12.48c1.82,0.69,1.84,2.37,1.3,3.66
			c-1.69,4.01-1.55,7.58,0.78,11.42c0.98,1.63,0.97,4.33,0.45,6.29c-1.2,4.51-3.49,5.62-8.14,4.73c-1.47-0.28-2.93-0.62-4.4-0.91
			c-1.48-0.28-1.86-1.16-1.31-2.46c0.58-1.38,1.38-2.67,1.85-4.08c0.55-1.65,0.75-3.42,1.27-5.08c0.27-0.86,1.14-1.56,1.33-2.43
			c1.07-5.04,2.02-10.1,3.09-15.52c-4.69-0.6-9.11-1.23-13.56-1.64c-0.56-0.05-1.56,1.01-1.78,1.73c-1.2,3.91-2.24,7.87-3.28,11.83
			c-0.12,0.44-0.03,1.2,0.26,1.44c1.18,0.97,2.48,1.8,4.35,3.11c0.91-4.33,1.69-8.02,2.49-11.8c1.04,0.07,1.68,1.2,1.17,3.17
			c-0.72,2.8-1,5.83-2.28,8.34c-1.75,3.45-3.88,6.89-6.59,9.6c-1.85,1.85-4.86,2.89-7.53,3.48c-6.34,1.41-10.21-3.34-11.02-8.64
			c-0.73-4.78,0.85-6.54,5.68-6.62c1.34-0.02,2.68-0.18,4.02-0.3c1.32-0.12,2.64-0.27,4.03-0.42c0.11-0.77,0.2-1.46,0.32-2.33
			c0.85,0.29,1.53,0.53,2.6,0.89c1.24-4.56,2.47-9.05,3.8-13.93c-1.2-0.08-1.97-0.12-2.74-0.18c-2.74-0.2-5.47-0.44-8.21-0.59
			c-1.29-0.07-1.33-0.6-0.77-1.53c5-8.31,10.25-16.48,14.86-25c1.66-3.06,2.02-6.92,2.54-10.48c1.17-7.89,2.06-15.81,3.03-23.44
			c-2.94,0.79-6.09,1.8-9.31,2.46c-3.33,0.69-6.42-0.31-9.44-2.41c-1.1,3.01-2.8,5.4-3.01,8.67c-0.26,4.06-1.47,8.04-2.14,12.08
			c-0.41,2.48-0.52,5.02-0.91,7.51c-0.11,0.69-0.71,1.31-1.09,1.96c-0.49-0.56-1.07-1.07-1.44-1.7c-0.31-0.54-0.38-1.23-0.73-2.47
			c-0.54,1.19-0.74,1.95-1.18,2.55c-0.57,0.78-1.33,1.42-2.01,2.12c-0.59-0.73-1.18-1.47-1.77-2.21c-0.13-0.17-0.23-0.36-0.13-0.21
			c-1.79,0.7-3.46,1.35-5.14,2c-0.55-1.52-1.1-3.04-1.69-4.68c-0.19,0.29-0.56,0.77-0.83,1.3c-1.29,2.46-3.39,3.44-6.07,3.42
			c-2.42-0.02-3.8-1.67-3.05-3.98c0.54-1.66,1.46-3.19,2.31-4.98c-3.23,0.31-6-0.32-7.9-2.74c-1.11-1.41-2.25-3.13-2.48-4.84
			c-0.61-4.39,4.01-7.6,8.41-5.78c2.12,0.88,3.32,0.21,4.77-1.02c4.78-4.08,9.57-8.14,14.45-12.1c1.38-1.12,2.98-2.14,4.65-2.66
			c2.24-0.7,3.56-2.04,4.26-4.15c2.23-6.7,7.51-9.92,13.84-11.48c3.3-0.81,6.88-0.53,10.55-0.75c-0.01,0.14,0.11-0.3,0.03-0.69
			c-0.93-4.22-2.01-8.42-2.81-12.66c-0.38-2-0.7-3.91-2.18-5.44c-0.22-0.22-0.06-0.85-0.01-1.28c0.15-1.33,0.28-2.68,0.54-3.99
			c0.1-0.49,0.69-1.35,0.79-1.31c0.75,0.29,1.72,0.58,2.1,1.19c1.28,2.04,2.35,4.21,3.51,6.34c0.28,0.01,0.57,0.02,0.85,0.03
			c1.03-2.38,2.17-4.73,3.07-7.16c1.04-2.83,1.86-5.74,2.91-9.02c-0.41-0.28-1.14-0.88-1.96-1.31c-3.62-1.94-7.34-3.7-10.87-5.78
			c-5.78-3.41-8.72-8.87-10.2-15.21c-0.82-3.52-1.44-7.09-2.14-10.55c-7.37,9.35-11.1,21.19-19.51,30.17
			c0.33-1.14,0.65-2.27,0.94-3.28c-0.75-0.6-1.49-1.2-2.23-1.79c0.1-0.17,0.21-0.34,0.31-0.51c0.58,0.17,1.16,0.33,2.04,0.58
			c4.5-8.29,9.08-16.6,11.7-25.78c-0.19-0.11-0.39-0.21-0.58-0.32c-0.38,0.55-0.81,1.08-1.14,1.66c-2.77,4.89-5.51,9.8-8.27,14.69
			c-0.98,1.73-1.93,3.49-3.03,5.14c-0.42,0.63-1.21,1.01-1.84,1.5c-0.17-0.19-0.35-0.37-0.52-0.56c0.49-0.6,1.08-1.14,1.45-1.8
			c2.68-4.86,5.41-9.7,7.95-14.63c3.6-6.97,7.32-13.9,10.46-21.08c1.95-4.46,2.91-9.35,4.27-14.06c0.16-0.54,0.04-1.16,0.01-1.74
			c-0.03-0.62-0.11-1.25-0.16-1.87C537.64,412.81,538.33,412.81,539.19,412.81z M572.44,566.02c0.17,0.1,0.34,0.2,0.51,0.3
			c0.42-0.45,0.98-0.84,1.22-1.37c0.77-1.7,1.46-3.44,2.11-5.19c2.25-6.05,4.28-12.12,3.82-18.75c-0.2-2.9,0.02-5.84,0.11-8.76
			c0.08-2.53,0.2-5.06,0.45-7.58c0.05-0.46,0.77-0.86,1.19-1.29c0.29,0.54,0.87,1.12,0.8,1.6c-0.25,1.68,0.59,2.52,2.03,2.59
			c3.93,0.2,8.03,0.01,11.25-2.28c5.94-4.24,8.07-10.66,8.69-17.69c0.18-2-0.48-3.77-2.14-4.58c-2.71-1.33-5.57-2.5-8.5-3.15
			c-2.52-0.56-4.34,0.99-5.45,3.36c-1.77,3.78-3.63,7.51-5.5,11.24c-0.89,1.78-2.28,2.09-3.97,0.98c-3.5-2.29-7.01-4.56-10.48-6.88
			c-1.74-1.16-3.42-2.41-4.92-3.48c-2.01,3.68-3.81,7.16-5.81,10.52c-0.71,1.19-1.7,2.09,0.16,3.38c-2.88,0.86-4.62-0.28-6.37-1.86
			c-0.94-0.84-2.23-1.71-3.42-1.79c-7.87-0.56-14.12,2.39-18.32,9.19c-0.5,0.81-0.42,1.97-0.61,2.96c-1.22,1.92-1.4,2.91-0.34,5.26
			c2.04,4.54,8.23,6.86,13.25,4.87c3.07-1.22,6.02-2.6,8.06-5.47c0.44-0.62,1.93-0.49,2.94-0.7c-0.23,0.71-0.46,1.42-0.7,2.12
			c-0.17,0.49-0.43,0.96-0.51,1.46c-0.71,4.48-1.44,8.96-2.06,13.46c-0.68,4.96-1.25,9.93-1.86,14.9c-0.15,1.25,0.29,2.02,1.53,2.62
			c5.97,2.86,12.21,2.54,18.5,1.75c1.3-0.16,2.14-0.7,2.04-2.34c-0.1-1.66,0.19-3.35,0.33-5.29c1.09,0.44,1.75,0.7,2.33,0.93
			C572.66,562.83,572.55,564.43,572.44,566.02z M569.36,569.39c-0.33-0.08-0.49-0.16-0.62-0.14c-6.16,1.13-12.3,1.63-18.39-0.49
			c-0.36-0.12-0.9-0.02-1.25,0.17c-1.53,0.86-2.84,1.82-3.68,3.58c-1.45,3.02-3.32,5.84-5.03,8.73c-2.8,4.74-5.62,9.47-8.77,14.77
			c2.83,0.32,5.15,0.59,7.46,0.85c-0.08-0.22-0.17-0.44-0.25-0.66c1.1-0.7,2.21-1.41,3.74-2.38c0,1.54,0,2.34,0,3.05
			c8.24,1.52,16.34,3.02,25,4.62C568.15,591,568.75,580.25,569.36,569.39z M517.29,564.86c2.29-1.11,0.32-5.95,4.34-4.34
			c0.71-3.72,1.43-7.51,2.14-11.31c0.22-1.17,0.46-2.34,0.57-3.52c0.33-3.71,1.15-7.16,4.16-9.31c-1-2.03-1.94-3.95-3.04-6.18
			c-1.97,1.46-3.95,2.87-5.86,4.37c-5.53,4.32-10.97,8.75-16.57,12.98c-1.59,1.2-3.46,1.85-5.41,0.02
			c-0.58-0.55-2.25-0.55-3.03-0.12c-0.87,0.49-1.74,1.72-1.85,2.7c-0.31,2.85,2.81,6.31,5.75,6.8c1.28,0.21,2.33,0.14,3.01-1.2
			c0.91-1.79,2.3-1.44,3.57-0.86c-1.31,3.01-2.62,5.87-3.79,8.79c-0.24,0.6-0.16,1.84,0.19,2.03c0.58,0.32,1.66,0.31,2.24-0.05
			c0.98-0.6,1.73-1.58,2.58-2.4c1.79-1.72,3.15-4.13,6.38-4.11c-0.71,2.43-1.35,4.6-1.99,6.78c0.36,0.18,0.71,0.35,1.07,0.53
			c1-1.46,2.18-2.82,2.94-4.39c0.65-1.34,1.26-1.7,2.44-1C517.17,562.34,517.22,563.48,517.29,564.86z M563.24,479.61
			c-0.68,2.42-1.32,4.84-2.03,7.24c-0.58,1.95-0.99,4-1.92,5.77c-0.97,1.85-2.46,3.42-4.18,5.72c7.49,0.04,14.4,1.8,21.62-1.49
			c-1.32-0.61-2.08-0.96-3.18-1.48c2.01-0.88,1.84-2.06,1.19-3.42c-0.31-0.66-0.42-1.42-0.57-2.14c-0.59-2.84-1.1-5.69-1.76-8.51
			c-0.33-1.4-0.85-2.77-2.82-2.48C567.54,479.13,565.46,479.34,563.24,479.61z M590.88,490.89c-0.24-0.15-0.47-0.31-0.71-0.46
			c-3.67,2.1-7.34,4.21-11.19,6.41c-0.19,2.2-0.94,2.73-4.38,3.12c-3.36,0.38-6.71,0.89-10.07,1.34
			c0.34,2.18,11.16,10.22,16.48,11.95C584.28,505.84,587.58,498.36,590.88,490.89z M537.3,618.06c-4.57-3.25-9.46-1.64-14.22-1.38
			c-0.38,0.02-0.98,0.58-1.04,0.96c-0.47,3.08,0,5.95,2.26,8.31c2.12,2.23,4.65,2.61,7.6,1.98c5.31-1.13,7.21-5.69,10.17-9.59
			C540.4,617.87,539.31,615.1,537.3,618.06z M561.29,500.7c-3.51-0.49-7.1,0.2-9.5-3.13c-0.2,0.2-0.4,0.39-0.6,0.59
			c1.33,5.51,2.65,11.03,4.07,16.9C558.22,510.42,560.56,506.01,561.29,500.7z M557.68,629.79c1.87,0.34,3.02-0.63,3.9-2.07
			c1.56-2.55,1.17-5.14-0.04-7.67c-0.17-0.35-0.76-0.67-1.18-0.71c-1.25-0.1-2.53-0.17-3.76-0.01c-0.61,0.08-1.43,0.56-1.68,1.09
			c-1.01,2.13-1.8,4.37-2.75,6.54c-0.49,1.11-0.21,1.72,0.93,1.96C554.61,629.24,556.14,629.5,557.68,629.79z M538.63,435.17
			c0.28-3.02,0.29-5.82,0.86-8.51c0.6-2.8,1.69-5.51,2.66-8.23c0.9-2.53,1.94-5.02,2.91-7.52c-0.19-0.07-0.39-0.13-0.58-0.2
			C540.49,418.18,536.51,430.96,538.63,435.17z M545.51,416.7c-0.19-0.06-0.39-0.12-0.58-0.18c-2.6,4.68-5.1,12.98-4,15.03
			C542.46,426.6,543.99,421.65,545.51,416.7z"/>
		<path d="M830.28,513.3c-1.39,3.44-2.74,6.9-4.17,10.32c-1.55,3.71-3.37,7.33-4.72,11.11c-1.82,5.1-4.55,9.53-8.41,13.3
			c-1.51,1.48-2.87,3.1-4.78,5.18c5.09-0.42,9.68-0.81,14.26-1.19c9.35-0.76,18.59-3,28.07-2.23c5.99,0.49,11.66-1.13,17.43-2.32
			c2.98-0.61,6.08-0.74,9.13-0.98c1.36-0.11,1.81-0.79,2.2-2.02c1.23-3.91,2.57-7.8,4.03-11.63c1.29-3.4,4.43-4.38,7.55-5.18
			c3.16-0.8,5.7,0.06,7.45,3.01c1.98,3.33,2.13,6.62,0.01,9.89c-3.12,4.82-6.69,9.24-11.13,12.96c-2.63,2.2-5.47,4.4-7.32,7.19
			c-2.12,3.21-3.32,7.05-4.79,10.66c-2.08,5.1-4.28,10.17-6,15.39c-2.33,7.08-4.16,14.33-6.41,21.44c-1.01,3.18-2.34,6.29-3.87,9.25
			c-2.08,4-8.74,4.18-11.45,0.41c-1.02-1.42-1.77-3.05-2.47-4.27c-1.34,2.45-2.65,5.27-4.34,7.85c-4.2,6.39-11.05,10.01-19.39,7.33
			c-5.11-1.64-6.82-8.61-2.84-12.08c4.95-4.31,10.06-8.45,15.12-12.63c1.95-1.61,3.92-3.2,5.95-4.69c1.14-0.84,1.07-1.68,0.06-2.3
			c-2.08-1.3-4.16-2.85-6.46-3.51c-3.42-0.98-7.03-1.33-10.58-1.83c-5.44-0.77-8.45,4.12-8.77,8.12c-0.19,2.43,0.13,4.92,0.42,7.36
			c0.64,5.49,0.65,10.98-1.23,16.19c-1.12,3.12-3.97,4.93-6.91,6.41c-4.38,2.2-8.77,1.54-13.1,0.04c-2.45-0.84-4.15-2.83-4.88-5.28
			c-0.69-2.35-1.23-4.86-1.18-7.29c0.06-3.36-0.97-6.19-2.35-9.19c-1.66-3.62-2.58-7.57-3.82-11.38c-0.09-0.28-0.21-0.54-0.46-1.16
			c-1.4,1.48-2.78,2.72-3.9,4.16c-3.5,4.46-8.84,6.25-13.31,9.3c-3.14,2.15-6.47,4-9.65,6.08c-1.62,1.06-3.26,2.67-2.64,4.55
			c0.47,1.43,2.17,2.83,3.65,3.49c7.09,3.19,13.95,2.59,20.45-1.83c2.6-1.77,5.31-3.39,6.73-6.4c0.15-0.32,0.48-0.57,0.76-0.82
			c0.09-0.08,0.26-0.07,0.61-0.15c-0.54,2.88-1.74,5.31-3.98,7.02c-3.95,3.02-8.26,5.53-13.22,6.27c-2.43,0.36-5.1,0.02-7.5-0.61
			c-2.9-0.76-5.94-1.46-8.17-3.88c-2.06-2.22-2.57-4.83-0.6-7.22c1.4-1.69,3.19-3.16,5.06-4.34c5.37-3.4,11.06-6.33,16.25-9.97
			c2.87-2.01,5.11-4.98,7.39-7.72c0.53-0.64,0.26-2.16,0-3.18c-0.46-1.78-1.4-3.45-1.77-5.24c-0.6-2.9-1.14-5.86-1.27-8.81
			c-0.23-5.16-0.08-10.33-0.22-15.49c-0.02-0.62-0.69-1.48-1.28-1.8c-5.56-3-9.85-7.17-11.55-13.36c-0.88-3.21-1.28-6.61-1.37-9.94
			c-0.2-7.24-0.06-14.49-0.06-21.74c-0.35-0.02-0.69-0.04-1.04-0.06c-0.39,2.98-0.66,5.97-1.21,8.92
			c-1.06,5.79-1.84,11.67-4.77,16.94c-3.88,6.97-9.6,10.99-17.69,11.68c-9.36,0.79-16.92-2.27-22.5-9.89
			c-4.08-5.58-4.08-11.71-2.11-18.01c2.45-7.85,5-15.62,8.96-22.93c2.28-4.23,3.41-9.09,4.95-13.7c1.2-3.62,3.28-6.53,6.43-8.65
			c2.11-1.42,3.58-3.6,6.27-4.42c1.44-0.44,2.42-2.32,3.66-3.5c5.07-4.82,10.96-8.36,17.38-11.05c4.12-1.73,8.18-3.67,12.43-4.98
			c6.85-2.12,13.81-3.86,20.76-5.63c4.12-1.05,8.26-2.13,12.46-2.71c8.84-1.24,17.69-2.68,26.58-3.07
			c10.24-0.45,19.98,1.89,29.16,6.96c9.31,5.14,16.97,11.98,23.51,20.15c2.82,3.52,3.56,8.01,3.94,12.45
			c0.49,5.72-0.53,11.26-1.75,16.85c-1.63,7.49-4.48,14.35-9.82,19.83c-7.33,7.52-16.46,11.04-26.98,10.09
			c-4.59-0.41-8.13-3.33-11.15-6.64C835.24,519.55,832.76,516.3,830.28,513.3z M827.69,508.36c0.21-0.11,0.41-0.23,0.62-0.34
			c2.18,2.82,4.36,5.64,6.55,8.46c5.52,7.08,11.59,12.54,21.78,10.64c9.61-1.8,17.07-6.48,22.05-14.68
			c5.38-8.84,7.27-18.71,6.98-29.02c-0.14-4.92-1.24-9.57-4.43-13.39c-5.68-6.81-12.33-12.46-19.85-17.3
			c-9.97-6.42-20.8-7.56-32.07-6.5c-8.17,0.77-16.31,2.02-24.39,3.45c-7.64,1.35-15.26,2.92-22.74,4.93c-6.1,1.64-12.01,4-17.95,6.2
			c-7.39,2.73-14.61,5.87-20.35,11.46c-3.36,3.27-6.34,6.93-9.59,10.53c-1.08-1.17-1.47-1.59-1.82-1.97
			c-3.34,2.55-4.83,6.18-6.05,9.96c-1,3.1-1.78,6.28-3.04,9.27c-1.52,3.63-3.77,6.97-5.11,10.65c-2.1,5.79-3.86,11.72-5.41,17.69
			c-0.56,2.13-0.62,4.69-0.01,6.79c3.12,10.77,12.43,15.78,23,14.6c7.37-0.82,12.68-4.65,15.79-11.38
			c2.8-6.05,4.23-12.51,4.59-19.11c0.33-6.02,2.77-11,6.42-15.77c0.42,0.79,0.76,1.63,0.66,2.41c-0.58,4.57-1.88,9.05-0.96,13.77
			c0.44,2.25,0.29,4.62,0.37,6.94c0.23,6.12-0.52,12.3,1.17,18.33c1.63,5.85,5.05,10.14,10.75,12.39c4.7,1.86,9.61,0.88,14.41,0.56
			c2.73-0.18,5.56-0.57,8.09-1.54c5.98-2.28,10.66-6.43,14.8-11.26c2.75-3.21,5.07-6.57,6.39-10.68c1.33-4.11,3.06-8.11,4.89-12.04
			C825.29,517.91,828.01,513.65,827.69,508.36z M776.46,560.39c0,1.22-0.05,2.68,0.01,4.14c0.15,3.73,0.17,7.48,0.57,11.19
			c0.4,3.67,1.05,7.33,1.89,10.93c0.44,1.92,1.64,3.64,2.27,5.53c1.65,4.95,2.92,10.04,4.82,14.88c1.48,3.77,3.27,7.32,2.95,11.58
			c-0.13,1.81,0.46,3.71,0.96,5.5c0.61,2.21,2.02,3.85,4.33,4.45c1.44,0.38,2.92,0.68,4.4,0.87c4.46,0.55,11.27-3.79,12.12-8.16
			c0.76-3.92,0.96-7.97,1.12-11.98c0.13-3.57-0.36-7.16-0.18-10.72c0.26-5.07,4.58-8.91,9.56-8.58c3.42,0.23,6.84,0.7,10.2,1.34
			c4.94,0.95,9.41,3.15,11.93,7.59c1.57,2.76,2.14,6.15,2.86,9.32c0.67,2.98,0.7,6.12,2.75,8.66c2.52,3.1,6.22,2.76,7.97-0.77
			c0.86-1.74,1.84-3.46,2.43-5.29c1.92-6.03,3.58-12.15,5.55-18.17c2.68-8.22,5.73-16.33,8.28-24.59
			c1.98-6.41,6.13-11.04,11.11-15.14c5.21-4.3,9.32-9.52,12.65-15.32c0.76-1.32,0.84-3.41,0.42-4.91c-0.44-1.58-1.37-3.47-3.59-3.5
			c-3.3-0.05-8.08,3.41-9.05,6.5c-1.09,3.47-2.12,6.97-3.27,10.42c-0.21,0.63-0.82,1.47-1.38,1.59c-2.54,0.56-5.12,0.9-7.69,1.3
			c-2.5,0.39-5,0.75-7.5,1.17c-3.29,0.56-6.64,1.89-9.85,1.61c-9.46-0.82-18.64,0.94-27.88,2.18c-1.05,0.14-2.02,1.15-3.04,1.18
			c-4.09,0.11-8.19-0.09-12.28-0.04c-3.87,0.05-7.61,0.33-11.3,2.14c-2.93,1.43-6.41,2.02-9.71,2.38
			C786.21,560.19,781.48,560.17,776.46,560.39z M841.58,609.98c0.14-0.12,0.28-0.25,0.42-0.37c0.41,0.21,0.88,0.36,1.22,0.65
			c0.38,0.33,0.64,0.8,0.95,1.21c-0.39-4.34,0.15-8.81-3.03-12.61c-2.07,4.17-5.04,7.08-8.68,9.58c-4.23,2.91-8.21,6.26-11.99,9.74
			c-3.69,3.4-2.54,7.55,2.26,9.1c2.79,0.9,5.6,0.9,8.35-0.23c4.91-2.01,7.42-6.28,9.98-10.52
			C842.33,614.44,842.94,612.32,841.58,609.98z"/>
		<path d="M742.96,340.56c-3.57-1.08-3.53-1.08-3.39-4.59c0.34-9.06,0.55-18.13,1-27.18c0.21-4.26,1.03-8.48,1.31-12.73
			c0.35-5.3,0.37-10.62,0.64-15.93c0.32-6.27,0.77-12.53,1.12-18.8c0.69-12.3,1.3-24.6,2.09-36.89c0.2-3.1,1.05-6.14,1.45-9.23
			c0.76-5.85,1.49-11.7,2.1-17.57c0.68-6.6,0.85-13.27,1.91-19.8c0.92-5.7,2.74-11.26,4.28-16.84c0.21-0.75,1.13-1.31,1.72-1.95
			c0.17,0.91,0.61,1.88,0.45,2.73c-1.28,6.75-2.83,13.45-3.98,20.22c-0.62,3.67-0.63,7.45-0.93,11.18
			c-0.56,7.08-0.75,14.22-1.79,21.23c-1.56,10.53-2.78,21.06-3.2,31.7c-0.29,7.4-0.77,14.8-1.09,22.2
			c-0.37,8.58-0.54,17.17-1.03,25.74c-0.27,4.68-1.03,9.34-1.57,14.01c-0.06,0.52-0.17,1.04-0.19,1.56
			c-0.3,9.54-0.59,19.07-0.88,28.61C742.94,338.94,742.96,339.68,742.96,340.56z"/>
		<path d="M672.65,314.11c-1.41,0.19-2.72,0.49-4.03,0.46c-0.31-0.01-0.89-1.1-0.85-1.66c0.4-6.78,0.89-13.56,1.37-20.34
			c0.43-6.1,0.82-12.2,1.35-18.29c0.27-3.04,0.89-6.05,1.22-9.08c0.38-3.48,0.52-6.98,0.92-10.45c0.93-8.05,2.13-16.07,2.89-24.13
			c1.13-11.94,1.85-23.93,2.98-35.87c0.55-5.78,1.78-11.48,2.4-17.25c0.64-5.94,0.92-11.92,1.36-17.88
			c0.24-3.28,0.44-6.57,0.82-9.83c0.07-0.61,0.93-1.12,1.42-1.68c0.28,0.6,0.83,1.2,0.81,1.8c-0.19,7.47-0.27,14.96-0.78,22.41
			c-0.3,4.46-1.49,8.85-1.95,13.3c-0.51,5.04-0.63,10.12-0.95,15.18c-0.36,5.59-0.64,11.19-1.2,16.76c-0.9,8.89-2.03,17.76-3,26.64
			c-0.87,7.95-1.73,15.9-2.46,23.87c-1.11,12.06-2.12,24.13-3.16,36.19c-0.22,2.53-0.42,5.06-0.47,7.59
			C671.33,312.41,671.99,313.01,672.65,314.11z"/>
		<path d="M814.04,334.97c-2.76-1.09-2.78-3.37-2.42-5.33c1.75-9.47,2.02-19.01,1.82-28.6c-0.02-1.12-0.26-2.24-0.25-3.35
			c0.09-6.26,0.19-12.52,0.37-18.78c0.16-5.3,0.36-10.6,0.69-15.89c0.15-2.45,0.77-4.87,1-7.32c0.69-7.36,1.31-14.73,1.92-22.1
			c0.49-5.97,0.81-11.95,1.43-17.91c0.96-9.21,1.86-18.44,3.26-27.59c0.95-6.19,1.38-12.33,1.06-18.56c-0.02-0.34,0.14-0.7,0.3-1.48
			c1.43,0.77,2.66,1.44,3.89,2.11c-0.05,0.15-0.11,0.3-0.16,0.45c-0.52,0-1.05,0-2.04,0c0,4.12,0.27,8.23-0.06,12.29
			c-0.69,8.58-1.78,17.12-2.54,25.69c-0.65,7.38-1.04,14.79-1.61,22.18c-0.59,7.6-1.27,15.18-1.9,22.78
			c-0.44,5.37-0.94,10.74-1.25,16.11c-0.41,7.17-0.82,14.35-0.95,21.53c-0.09,5.24,0.19,10.48,0.45,15.72
			c0.37,7.68-0.42,15.23-2.12,22.71C814.57,331.34,814.36,333.09,814.04,334.97z"/>
		<path d="M594.18,397.28c-0.86,0.07-1.5,0.12-2.14,0.17c-0.03,0.4,0.1,0.93-0.1,1.19c-2.24,2.82-4.61,5.55-6.78,8.43
			c-0.86,1.14-1.66,2.52-1.89,3.89c-0.66,3.8-1.08,7.65-1.46,11.49c-0.24,2.45-0.59,5.05,2.64,6.32c-0.14,0.14-0.29,0.28-0.43,0.42
			c-0.83-0.27-1.67-0.54-2.87-0.94c0.38,1.65,0.71,3.06,1.04,4.48c-0.16,0.04-0.32,0.09-0.48,0.13c-1.59-4.03-3.18-8.05-4.87-12.34
			c-0.81,3.54-1.75,6.83,1.51,9.75c-2.01,0.57-2.74-0.48-3.28-1.6c-1.12-2.33-1.12-4.74-0.23-7.18c1.54-4.26,3.03-8.54,4.54-12.81
			c-0.18-0.06-0.35-0.13-0.53-0.19c-1.01,2.17-2.04,4.33-3.02,6.52c-1.26,2.82-2.49,5.66-3.72,8.49c-0.49,1.13-0.98,2.26-1.42,3.42
			c-1.04,2.76-0.78,3.43,1.91,5.03c-0.99,0.23-1.84,0.44-3.05,0.73c0.4,0.95,0.78,1.84,1.44,3.39c-1.18-0.7-2.29-0.96-2.64-1.62
			c-2.16-4.08-2.41-8.33-0.73-12.68c0.97-2.51,1.88-5.04,2.78-7.58c0.25-0.72,0.35-1.5,0.51-2.25c-0.22-0.1-0.45-0.21-0.67-0.31
			c-0.53,0.87-1.1,1.71-1.58,2.61c-1.67,3.13-3.33,6.26-4.96,9.41c-1.18,2.27-0.83,5.05,0.78,6.77c-2.34,0.02-2.99-0.67-3.09-3.32
			c-0.2-0.01-0.4-0.02-0.61-0.03c-0.07,1.51-0.14,3.01-0.21,4.52c-0.18,0.11-0.37,0.23-0.55,0.34c-0.52-0.91-1.58-1.9-1.45-2.71
			c0.43-2.73,1.24-5.39,1.99-8.06c0.31-1.12,0.82-2.19,1.28-3.38c0.16,0.31,0.35,0.66,0.35,0.67c1.18-1.94,2.44-4.01,3.68-6.03
			c0.68-0.12,1.75-0.01,1.97-0.39c2.12-3.66,7.39-5.12,6.87-10.72c-1.46,1.55-2.92,3.1-4.44,4.71c-0.14-0.54-0.29-1.14-0.54-2.13
			c-0.66,0.48-1.23,0.75-1.61,1.19c-1.6,1.85-3.26,3.66-4.67,5.65c-0.95,1.35-1.59,2.94-2.26,4.47c-1.77,4.05-4.34,7.83-4.43,12.45
			c-0.04,1.93-0.01,3.91,0.43,5.77c0.25,1.06,1.39,1.92,2.04,2.76c-2.06,0.46-3.94-0.92-4.66-3.55c-1.26-4.6-0.2-8.86,1.79-12.98
			c2.5-5.16,5.4-10.08,9.27-14.36c0.34-0.37,0.72-0.78,1.16-0.97c2.19-0.94,4.51-1.61,5.82-3.91c0.21-0.37,1.23-0.67,1.61-0.48
			c2.16,1.1,4.17-0.1,6.25-0.22c0.32-0.02,0.65,0.17,1.55,0.43c-1.23,0.57-2,0.88-2.72,1.28c-0.62,0.34-1.19,0.79-1.44,1.53
			c1.88-0.34,3.76-0.69,5.64-1.03c0.13,0.16,0.27,0.32,0.4,0.48c-0.74,0.85-1.48,1.71-2.25,2.6c0,0.67,0,1.56,0,2.92
			c0.99-1.23,1.83-2.11,2.49-3.11c1.64-2.49,3.22-5,6.32-5.94c0.2-0.06,0.31-0.45,0.43-0.71
			C591.61,396.46,592.1,396.3,594.18,397.28z"/>
		<path d="M507.69,317.38c-0.41-0.74-1.06-1.45-1.19-2.24c-0.81-4.85-1.51-9.72-2.25-14.6c-8.01,3.99-9.6,1.91-11.18-2.59
			c1.23,0.67,2.05,0.98,2.71,1.5c1.74,1.39,6.75,0.98,8.01-0.77c0.22-0.31,0.17-0.85,0.17-1.28c0.05-6.82,0.02-13.64,0.14-20.45
			c0.25-13.53,0.65-27.05,0.84-40.58c0.08-5.6-0.45-11.22-0.3-16.82c0.18-6.5,0.83-12.98,1.24-19.47c0.55-8.73,0.99-17.46,1.6-26.18
			c0.36-5.21,0.9-10.42,1.45-15.62c0.31-2.97,0.68-5.94,1.27-8.86c0.23-1.16,1.12-2.19,1.72-3.28c0.17,1.13,0.54,2.27,0.47,3.38
			c-0.54,8.06-1.22,16.11-1.76,24.17c-0.65,9.63-0.96,19.28-1.85,28.89c-0.82,8.81-0.69,17.61-0.75,26.43
			c-0.07,11.09-0.41,22.17-0.76,33.25c-0.27,8.29-0.93,16.57-1.07,24.86c-0.14,8.66,0.57,17.29,2.22,25.82
			c0.26,1.33,0.2,2.72,0.28,4.09C508.35,317.16,508.02,317.27,507.69,317.38z"/>
		<path d="M624.61,137.45c0.38,1,1.09,2,1.07,2.99c-0.1,4.26-0.41,8.52-0.65,12.78c-0.28,4.86-0.4,9.73-0.9,14.56
			c-0.83,7.88-1.95,15.73-2.89,23.6c-1,8.39-1.95,16.78-2.91,25.17c-0.92,8.02-1.93,16.04-2.71,24.07
			c-1.04,10.65-1.6,21.24,0.74,31.89c1.41,6.41-0.06,12.95-1.22,19.36c-0.43,2.4-0.84,4.81-1.26,7.27
			c-1.57,0.06-2.34-0.54-2.18-2.38c0.19-2.15,0.46-4.36,1.15-6.39c2.02-5.94,1.26-11.92,0.11-17.76
			c-2.1-10.72-2.21-21.37-0.58-32.14c0.92-6.06,1.09-12.23,1.88-18.31c1.93-14.83,4.1-29.63,6-44.47
			c0.67-5.26,0.81-10.59,1.25-15.88c0.57-6.86,1.21-13.71,1.82-20.56c0.1-1.16,0.23-2.33,0.35-3.49
			C623.99,137.65,624.3,137.55,624.61,137.45z"/>
		<path d="M552.22,289.14c0-2.57,0.02-5.26,0-7.94c-0.06-8.53-0.02-17.06-0.26-25.59c-0.15-5.37-1.04-10.73-1-16.09
			c0.04-4.67,1-9.32,1.4-13.99c0.7-8.33,1.51-16.66,1.82-25.01c0.23-6.09-0.32-12.21-0.39-18.33c-0.03-2.15,0.36-4.31,0.48-6.47
			c0.37-7.17,0.73-14.33,1.03-21.5c0.06-1.34-0.26-2.68-0.24-4.02c0.01-0.61,0.39-1.22,0.6-1.83c0.52,0.51,1.41,0.98,1.48,1.55
			c0.31,2.36,0.55,4.77,0.51,7.15c-0.17,8.08-0.65,16.17-0.67,24.25c-0.02,8.08,0.39,16.16,0.54,24.24
			c0.04,2.31-0.09,4.63-0.32,6.93c-0.89,8.85-2.2,17.68-2.66,26.55c-0.31,5.94,0.59,11.94,0.9,17.92c0.2,3.81,0.37,7.63,0.41,11.45
			c0.07,6.14,0.02,12.28,0.03,18.42C555.88,289.88,555.87,289.89,552.22,289.14z"/>
		<path d="M853.02,176.2c4.06-0.77,8.03-1.68,11.58-3.91c0.13-0.08,0.23-0.25,0.35-0.27c0.85-0.12,1.7-0.21,2.54-0.31
			c-0.5,0.72-0.86,1.65-1.53,2.12c-1.09,0.76-2.35,1.33-3.62,1.77c-2.54,0.88-5.1,1.72-7.7,2.38c-1.63,0.41-2.36,1.16-2.46,2.9
			c-0.2,3.86-0.62,7.72-0.95,11.54c4.86,1,6.22,0.19,8.23-4.73c1.07-2.64,1.07-2.64,3.91-2.7c-0.35,1.28-0.54,2.48-1,3.57
			c-0.49,1.14-1.24,2.17-1.83,3.17c2.59,0.27,5.13,0.25,7.51,0.85c3.95,1,4.92,2.54,4.88,6.59c-0.05,4.87-4.48,11.39-9.37,13.15
			c0.48-0.57,0.97-1.14,1.45-1.71c2.89-3.52,5.28-7.28,5.36-12.02c0.06-3.14-1.7-4.71-4.79-4.45c-0.07,0.01-0.15,0.05-0.22,0.04
			c-4.24-0.4-7.67,0.8-9.81,4.78c-0.4,0.75-1.2,1.34-1.93,1.86c-1.48,1.06-1.86,2.35-1.42,4.1c0.97,3.83,1.84,7.69,2.73,11.55
			c0.13,0.55,0.11,1.12,0.16,1.69c-0.22,0.15-0.43,0.3-0.65,0.46c-0.77-0.83-1.91-1.54-2.24-2.52c-0.82-2.46-1.26-5.05-1.89-7.58
			c-0.26-1.04-0.61-2.06-0.92-3.11c-3.26,1.87-6.09,3.82-9.19,5.12c-1.53,0.64-3.6,0.23-5.36-0.09c-0.48-0.09-1.01-1.56-0.99-2.4
			c0.07-4.18,2.45-7.17,5.59-9.51c1.96-1.46,4.34-2.34,6.38-3.71c1.02-0.68,2.28-1.76,2.46-2.83c0.72-4.09,1.05-8.25,1.52-12.37
			c-3.31-0.65-6.5,1.65-9.59,0.02c-0.04-0.23-0.09-0.47-0.13-0.7c0.76-0.23,1.51-0.54,2.29-0.67c2.14-0.35,4.31-0.52,6.41-1.01
			c0.66-0.15,1.5-1.03,1.63-1.69c0.49-2.56,0.7-5.17,1.09-7.75c0.11-0.74,0.49-1.44,1.07-2.11
			C855.07,169.04,852.7,172.49,853.02,176.2z M847.93,197.02c-5.44,0.98-11.6,7.13-11.58,11.71c3.39,0.56,5.73-1.68,8.31-3.16
			C847.93,203.67,849.55,201.02,847.93,197.02z M851.42,199.44c1.37-1.45,2.56-2.71,4.03-4.27
			C850.71,195.26,850.52,195.47,851.42,199.44z"/>
		<path d="M851.63,247.19c2-0.82,3.99-1.66,6-2.46c2.93-1.16,5.55-0.52,7.46,1.88c4.68,5.86,5.29,11.24,0.99,17.63
			c-2.22,3.3-5.25,5.45-8.48,7.49c-2.88,1.82-5.31,1.92-7.73,0.26c-2.38-1.63-3.47-4.51-2.83-7.53c1.14-5.38,4.81-5.82,9.24-4
			c2.98,1.23,3.8,2.46,4.7,5.54c6.61-3.89,7.39-14.22,1.35-18.89c-0.59-0.45-1.72-0.58-2.47-0.38c-4.79,1.29-9.3,3.2-13.06,6.57
			c-0.28,0.25-0.51,0.71-0.81,0.74c-0.89,0.1-1.79,0.04-2.69,0.04c0.16-0.71,0.13-1.55,0.51-2.12c2.14-3.15,4.41-6.22,6.59-9.35
			c2.13-3.06,4.2-6.16,6.33-9.3c-3.74,0.32-6.27,2.97-9.14,4.86c-1.85,1.22-3.35,2.97-5.12,4.33c-0.53,0.41-1.67,0.61-2.17,0.31
			c-0.47-0.28-0.74-1.4-0.62-2.07c0.36-2.01,0.84-3.88,3.78-3.4c0.93,0.15,2.1-0.97,3.12-1.56c5.11-2.95,10.19-5.95,15.34-8.82
			c0.61-0.34,1.62,0.03,2.44,0.07c-0.25,0.91-0.26,1.98-0.78,2.69c-4.15,5.69-8.4,11.32-12.62,16.97
			C851.19,246.87,851.41,247.03,851.63,247.19z M848.85,265.11c0.16,0.11,0.33,0.22,0.49,0.33c0.04,0.6,0.03,1.2,0.13,1.79
			c0.29,1.7,3.15,4.47,4.28,3.93c1.78-0.85,3.77-1.83,4.82-3.34c0.47-0.68-1.11-2.79-1.79-4.24c-0.12-0.26-0.37-0.6-0.6-0.64
			c-1.77-0.33-3.59-0.95-5.3-0.73C850.1,262.31,849.52,264.09,848.85,265.11z"/>
		<path d="M599.89,240.03c1.4-2.13,0.52-4.66-2.44-5.52c-2.94-0.85-5.9-2.01-8.84-0.08c-0.79,0.52-1.61,1.18-2.06,1.98
			c-1.16,2.06-2.04,4.29-3.2,6.35c-0.78,1.39-0.72,2.51,0.38,3.62c0.53,0.53,0.99,1.13,1.52,1.65c1.69,1.65,1.7,1.64,3.79,0.99
			c-0.51,2.26-0.93,2.59-2.85,1.59c-1.89-0.98-3.6-2.28-5.58-3.56c-0.44,0.39-1.25,0.86-1.74,1.57c-1.94,2.82-4.92,2.66-7.71,2.6
			c-2.59-0.05-3.93-3.96-2.22-6.88c1.03-1.76,2.58-3.28,4.14-4.63c2.55-2.22,2.56-2.15,1.38-5.2c-0.87-2.26-1.49-4.63-2.25-7.02
			c2.24-0.13,2.37,0,3.66,3.49c0.65,1.75,1.27,3.5,1.93,5.34c2.37-1.04,4.93-1.62,6.73-3.1c1.81-1.49,2.89-3.89,4.26-5.91
			c0.21-0.3,0.2-0.78,0.45-1.01c0.53-0.48,1.3-1.29,1.74-1.17c1.14,0.33,1.22,1.3,0.66,2.35c-0.62,1.18-1.14,2.41-1.6,3.38
			c2.74,0.65,5.61,1.06,8.28,2.02c3.54,1.27,4.89,4.17,3.63,7.71c-0.54,1.51-0.21,2.07,0.98,2.83c1.09,0.71,3.25,1.49,2.1,3.03
			c-1.11,1.5-2.11-0.75-3.2-1.24c-0.8-0.36-1.46-1.03-2.04-1.46c-1.72,0.97-3.4,1.76-4.9,2.8c-1.78,1.23-3.52,1.03-4.92-0.24
			c-0.69-0.64-1.21-2.4-0.82-3.09c0.78-1.36,2.09-2.99,3.47-3.32C594.76,239.41,597.11,239.92,599.89,240.03z M571.23,249.1
			c2.59,0.23,6.71-1.77,7.27-4.08c0.34-1.41-0.75-3.17-1.32-5.19C573.98,242.66,570.86,244.66,571.23,249.1z M591.56,245.96
			c2.37-1.18,4.31-2.13,6.55-3.24C594.13,240.44,591.78,241.49,591.56,245.96z M580.75,242.14c1.16-2.04,2.12-3.72,3.08-5.41
			c-0.13-0.11-0.25-0.22-0.38-0.33c-1.42,0.8-2.84,1.6-4.28,2.41C579.72,239.95,580.09,240.75,580.75,242.14z"/>
		<path d="M702.08,288.83c-1.89-1.59-3.33-2.81-4.91-4.14c0.56-0.93,1.17-1.93,2.5-0.91c1.7,1.31,3.29,2.74,5.27,4.41
			c2.34-0.7,5.14-1.65,8.01-2.34c1-0.24,3.02-0.03,3.09,0.3c0.38,1.75-1.39,1.54-2.38,1.91c-2.16,0.81-4.44,1.35-6.58,2.2
			c-2.26,0.9-2.59,1.87-1,3.68c2.26,2.58,4.81,4.91,7.21,7.36c2.03,2.08,4.05,4.17,6.03,6.3c0.24,0.26,0.2,0.78,0.47,1.97
			c-1.75-0.84-3.13-1.19-4.1-2.02c-3.65-3.16-7.17-6.49-10.96-9.95c-0.78,5.49-4.69,8.73-8.63,11.69c-3.47,2.61-7.38,4.64-11.2,6.75
			c-0.59,0.33-1.71-0.29-2.59-0.48c0.62-0.72,1.11-1.82,1.89-2.11c6.12-2.27,11.16-5.98,15.16-11.09c2.03-2.59,2.83-6.23,2.61-10.62
			c-2.89,0.68-5.74,1.37-8.6,2.02c-1.16,0.26-2.33,0.54-3.51,0.6c-0.61,0.03-1.25-0.39-1.87-0.6c0.53-0.63,0.95-1.62,1.61-1.83
			c1.91-0.6,3.94-0.85,5.9-1.32C697.5,290.14,699.47,289.55,702.08,288.83z"/>
		<path d="M583.8,170.02c0.97,2.9,1.73,5.17,2.61,7.79c4.45-4.94,8.63-9.24,10.29-15.33c0.8-2.95,0.2-5.13-2.39-6.72
			c-1.38-0.85-2.81-1.61-4.5-2.57c-2.36,5.38-4.67,10.45-5.27,16.31c-1.5,0.34-3.29-1.19-2.82-3.37c0.69-3.19,1.83-6.27,2.82-9.39
			c0.26-0.83,0.64-1.62,1.11-2.8c-3.52,1.09-5.45,3.65-7.81,5.57c-0.29,0.23-0.47,0.59-0.76,0.82c-0.95,0.78-2.02,2.16-3.18,0.69
			c-1.03-1.31,0.43-2.05,1.33-2.82c1.3-1.11,2.63-2.2,3.84-3.41c1.85-1.86,3.99-3.04,6.56-3.68c0.83-0.2,1.67-1.29,2.04-2.16
			c0.49-1.16,0.71-2.43,2.3-2.17c1.75,0.29,1.51,1.75,1.14,2.83c-0.55,1.63,0.17,2.16,1.49,2.85c3.27,1.7,6.86,3.69,7.25,7.59
			c0.27,2.65-0.79,5.82-2.24,8.16c-2.56,4.15-5.89,7.83-8.85,11.73c-1.13,1.48-2.49,1.12-3.09-0.09c-1.16-2.36-1.94-4.93-2.71-7.46
			C582.82,171.88,583.39,171.14,583.8,170.02z"/>
		<path d="M528.81,179.86c0.91,1.74,1.81,3.49,2.72,5.23c0.32,0.15,0.64,0.3,0.96,0.45c0.5-0.8,0.94-1.66,1.52-2.4
			c4.32-5.49,6.09-11.9,6.73-18.7c0.05-0.55-0.82-1.73-1.14-1.69c-1.54,0.21-3.46-0.07-4.15,1.96c-0.72,2.12-1.39,4.26-2.08,6.4
			c-0.16,0.5-0.22,1.14-0.56,1.45c-0.68,0.59-1.64,1.51-2.28,1.37c-1.4-0.31-1.21-1.64-0.88-2.77c0.44-1.48,0.89-2.95,1.34-4.42
			c-0.19-0.15-0.38-0.3-0.57-0.44c-2.59,2.11-5.14,4.27-7.81,6.27c-0.68,0.51-2.31,0.93-2.57,0.62c-0.76-0.91-0.51-1.94,0.69-2.75
			c3.29-2.2,6.47-4.55,9.73-6.81c1.33-0.93,2.37-1.88,2.45-3.73c0.07-1.84,0.59-3.67,0.9-5.48c2.55-0.06,2.55-0.06,2.65,6.1
			c0.79-0.07,1.56-0.1,2.32-0.22c3.11-0.46,4.71,0.45,4.84,3.62c0.11,2.86-0.28,5.82-0.99,8.6c-1.27,4.97-3.84,9.36-6.95,13.45
			c-1.1,1.44-2.45,2.01-4.09,1.54c-1.61-0.46-2.7-1.53-2.81-3.38c-0.08-1.42-0.29-2.82-0.43-4.24
			C528.51,179.87,528.66,179.87,528.81,179.86z"/>
		<path d="M882.7,304.43c-3.84-4.97-6.18-10.79-8.76-16.83c-0.65,2.91-1.31,5.44-1.77,8.01c-0.67,3.79-2.42,7.02-4.92,9.86
			c-2.14,2.43-4.79,3.55-8.03,2.53c-2.81-0.88-4.99-3.72-4.94-7.06c0.05-3.63,0.55-7.25,0.85-10.79c-1.66,1.97-3.35,4.15-5.24,6.13
			c-0.54,0.57-1.66,0.58-2.51,0.85c0.27-0.81,0.37-1.73,0.84-2.4c1.4-2.01,2.95-3.93,4.44-5.87c0.68-0.89,1.25-1.92,2.1-2.62
			c0.74-0.61,1.79-0.85,2.7-1.25c0.23,0.88,0.75,1.79,0.65,2.63c-0.36,3.02-1.11,6-1.36,9.02c-0.18,2.11-0.08,4.34,0.43,6.39
			c0.75,3.04,3.59,3.95,6.16,2.14c2.73-1.92,4.59-4.59,5.39-7.77c1.19-4.74,2.05-9.57,3.1-14.35c0.07-0.32,0.64-0.83,0.82-0.77
			c0.66,0.21,1.55,0.46,1.83,0.98c1.13,2.1,2.06,4.32,3.09,6.47c1.83,3.83,3.73,7.63,5.5,11.49c0.4,0.87,0.41,1.93,0.61,2.9
			C883.34,304.22,883.02,304.32,882.7,304.43z"/>
		<path d="M643.06,213.94c-2.02,0.81-4.11,1.49-6.04,2.48c-1.8,0.92-3.37,1.03-5.57-0.77c4.03-1.32,7.59-2.66,11.25-3.59
			c1.33-0.34,2.05-0.61,2.43-2c0.94-3.43,2.02-6.82,3.13-10.19c0.14-0.42,0.79-0.68,1.2-1.01c0.5,0.64,1.51,1.38,1.41,1.89
			c-0.51,2.46-1.34,4.86-2.02,7.29c-0.33,1.2-0.58,2.42-0.76,3.16c2.17,1.24,4.11,2.13,5.8,3.36c2.23,1.62,2.6,4.07,1.65,6.47
			c-1.95,4.87-4.36,9.52-8.34,13.13c-1.11,1.01-3.25,0.56-3.32-0.82c-0.13-2.55,0.08-5.13,0.15-7.69c0.24,0,0.47-0.01,0.71-0.01
			c0.34,1.86,0.68,3.72,1.11,6.1c0.87-1.06,1.57-1.71,2.02-2.51c1.53-2.73,3.22-5.42,4.38-8.31c1.77-4.42-0.03-6.86-4.88-7.09
			c-1.9,4.43-3.81,8.87-5.79,13.46c-1.46-0.47-2.34-0.76-3.25-1.05c1.82-3.95,3.55-7.7,5.28-11.45
			C643.42,214.49,643.24,214.22,643.06,213.94z"/>
		<path d="M532.98,201.99c2.54,0.45,3.46,1.89,4.12,3.48c0.69,1.66,1.56,2.12,3.26,1.24c1.16-0.6,2.5-0.93,3.79-1.14
			c0.46-0.07,1.03,0.58,1.55,0.9c-0.31,0.45-0.6,0.92-0.94,1.34c-0.13,0.15-0.39,0.23-0.6,0.28c-4.19,1.01-5.44,3.6-4.72,7.78
			c1.37,7.95-1.5,14.68-6.69,20.54c-0.84,0.95-2.09,1.53-3.15,2.29c-0.28-0.24-0.56-0.49-0.84-0.73c1.99-3.46,3.97-6.93,6.1-10.63
			c-3.1-1.01-4.33-2.9-3.46-5.75c0.79-2.59,2.52-4.3,5.43-4.85c-0.12-1.59-0.24-3.19-0.38-5.14c-1.17,0.52-1.95,0.88-2.76,1.21
			c-0.83,0.34-1.67,0.87-2.51,0.89c-1.29,0.03-3.61-0.09-3.7-0.52c-0.4-1.86,1.58-1.68,2.7-2.17c1.36-0.6,2.83-0.97,4.12-1.68
			c0.47-0.26,0.92-1.3,0.77-1.82C534.58,205.77,533.82,204.11,532.98,201.99z M536.27,219.82c-0.38-0.08-0.76-0.17-1.14-0.25
			c-0.41,1.32-0.94,2.62-1.16,3.97c-0.05,0.31,0.91,0.79,1.95,1.64C536.06,222.92,536.16,221.37,536.27,219.82z"/>
		<path d="M772.77,197.17c2.43-0.77,4.5-1.56,6.63-2.07c3.69-0.87,3.4-0.86,4.2-4.42c1.05-4.63,0.88-9.63,3.81-13.78
			c0.63-0.9,0.73-2.17,1.22-3.75c-3.93,1.08-7.34,2.05-10.76,2.96c-2.58,0.69-5.15,1.39-7.77,1.89c-0.58,0.11-1.33-0.62-2-0.96
			c0.46-0.64,0.8-1.7,1.39-1.87c4.6-1.27,9.26-2.31,13.87-3.55c2.15-0.58,4.24-1.39,6.34-2.15c2.15-0.78,3.12-0.02,2.77,2.27
			c-0.09,0.59-0.25,1.19-0.52,1.72c-3.37,6.64-4.52,13.88-5.71,21.1c-0.25,1.51-0.77,2.04-2.31,2.34c-2.54,0.5-5.11,1.21-7.43,2.32
			C774.44,200.2,773.87,199.15,772.77,197.17z"/>
		<path d="M491.96,240.31c2.35,1.15,5.33,0.66,6.93,4.05c-1.87-0.42-3.18-0.59-4.39-1.01c-2.09-0.73-3.31-0.37-4.45,1.82
			c-0.88,1.7-2.73,2.94-4.28,4.23c-0.32,0.26-1.43,0.04-1.77-0.33c-0.33-0.37-0.41-1.35-0.14-1.81c0.82-1.4,1.59-3.07,2.86-3.93
			c3.15-2.14,2.51-5.2,2.8-8.54c-1.75,0.69-3.14,1.3-4.58,1.77c-0.54,0.18-1.19,0.03-1.79,0.04c0.3-0.59,0.46-1.39,0.95-1.73
			c0.9-0.64,1.94-1.17,3-1.48c2.13-0.62,2.16-2.19,1.89-3.87c-0.16-1.02-0.55-2-0.96-3.39c-1.17,0.51-2.18,1.07-3.25,1.37
			c-0.68,0.19-1.47-0.02-2.22-0.05c0.35-0.62,0.65-1.26,1.05-1.85c0.2-0.3,0.56-0.49,0.86-0.71c1.1-0.82,2.72-1.42,3.16-2.5
			c0.41-1.02-0.44-2.54-0.78-4.06c2.82-0.81,2.24,2,3.25,2.99c0.14,0.03,0.29,0.08,0.43,0.08c1.13-0.05,2.25-0.12,3.38-0.18
			c-0.62,0.91-1.11,1.94-1.88,2.69c-1.31,1.28-1.41,4.01,0.28,6.78c2.51-2.12,4.95-4.19,7.55-6.39c1.05,0.58,1.32,1.93-0.23,3.28
			c-2.01,1.75-4.37,3.1-6.47,4.77c-0.6,0.48-1.07,1.44-1.13,2.22C491.85,236.49,491.96,238.44,491.96,240.31z"/>
		<path d="M776.55,273.6c1.65-2.23,3.39-4.59,5.13-6.95c-0.1-0.17-0.2-0.34-0.3-0.52c-1.46,0.37-2.91,0.85-4.39,1.08
			c-3.02,0.46-6.05,0.91-9.09,1.08c-0.63,0.04-1.33-1.13-2-1.75c0.11-0.21,0.22-0.42,0.33-0.63c2.05-0.29,4.15-0.38,6.14-0.9
			c4.16-1.1,8.24-2.47,12.39-3.62c0.65-0.18,1.92-0.01,2.1,0.38c0.32,0.71,0.38,1.92-0.03,2.51c-2.54,3.59-5.32,7.01-7.84,10.61
			c-0.76,1.08-1.36,2.55-1.34,3.83c0.1,5.38-2.14,9.84-5.22,13.95c-0.47,0.63-1.74,0.67-2.64,0.98c-0.18-0.2-0.36-0.4-0.54-0.6
			c0.58-1.13,1.2-2.24,1.74-3.38c1.1-2.36,2.65-4.64,3.13-7.12c0.64-3.37,0.75-6.95-1.9-9.87c-0.34-0.38-0.22-1.17-0.31-1.77
			c0.61,0.07,1.35-0.04,1.81,0.26C774.69,271.82,775.51,272.69,776.55,273.6z"/>
		<path d="M662.66,175.86c-4.52,0.05-8.65,0.28-12.77,0.1c-3.57-0.16-6.55-1.92-8.1-5.18c-1.29-2.73-0.15-5.48,1.51-7.73
			c0.98-1.33,0.79-2.03,0-3.26c-1.76-2.72-3.53-5.48-4.18-8.81c1.97-0.07,1.92-0.05,3.81,3.68c0.83,1.65,1.89,3.18,2.96,4.95
			c3.59-3.43,6.99-6.65,10.36-9.9c1.42-1.37,2.96-1.36,3.27,0.22c0.13,0.66-0.41,1.65-0.94,2.22c-4.14,4.51-8.54,8.79-12.48,13.46
			c-2.85,3.38-1.77,6.98,2.4,8.18c3.56,1.02,7.09,0.7,10.63-0.12C660.46,173.34,661.98,172.92,662.66,175.86z"/>
		<path d="M760.45,310.54c1.66,1.46,3.24,2.8,4.78,4.2c1.49,1.36,2.93,2.78,4.69,4.46c1.9-2.2,3.71-4.32,5.55-6.42
			c0.88-1.01,1.74-2.07,2.74-2.96c0.37-0.33,1.24-0.41,1.7-0.2c0.29,0.14,0.49,1.11,0.31,1.52c-0.4,0.94-1,1.82-1.64,2.63
			c-2.44,3.08-5.14,5.98-7.33,9.23c-1.29,1.92-2.05,4.3-2.58,6.58c-0.58,2.51,0.34,3.58,2.92,4.07c4.96,0.93,9.67-0.33,14.29-1.89
			c1.72-0.58,3.29-1.63,5.46-2.26c-0.33,0.62-0.52,1.54-1.03,1.8c-2.24,1.13-4.49,2.32-6.88,3.01c-3.94,1.13-7.95,2.04-12.15,1.21
			c-6.22-1.24-6.16-3.91-5.09-8.67c0.26-1.14,0.72-2.37,1.46-3.25c1.44-1.73,0.84-2.79-0.65-4.02c-2.29-1.91-4.43-4.01-6.67-5.99
			C759.28,312.66,759.12,311.78,760.45,310.54z"/>
		<path d="M526.2,257.37c1.06,1.62,2.06,3,2.91,4.48c1.24,2.16,2.79,3.65,5.43,4.11c4.31,0.76,9.34-1.09,11.43-4.86
			c0.78-1.42,0.92-3.2,1.37-4.9c1.19,1.28,1.38,2.77,0.76,4.51c-2.04,5.7-7.71,7.73-13.18,7.54c-4.09-0.14-6.6-2.17-8.38-5.59
			c-0.42-0.82-1.13-1.49-1.95-2.55c-1.59,2.8-3,5.29-4.41,7.78c-0.22,0.39-0.34,0.98-0.67,1.14c-0.76,0.35-1.62,0.5-2.44,0.72
			c-0.15-0.78-0.67-1.76-0.38-2.3c2.47-4.52,5.07-8.97,7.66-13.42c1.23-2.12,2.45-4.27,3.85-6.28c0.37-0.54,1.41-0.61,2.14-0.89
			c-0.04,0.69,0.11,1.48-0.15,2.07C528.91,251.82,527.51,254.64,526.2,257.37z"/>
		<path d="M493.66,150.14c-4.45,2.42-8.5,4.67-12.61,6.8c-0.72,0.37-1.72,0.22-2.6,0.3c0.37-0.88,0.49-2.19,1.15-2.56
			c5.47-3.07,11.05-5.97,16.6-8.9c0.17-0.09,0.44-0.01,1.22-0.01c-0.18,1.17-0.12,2.35-0.55,3.31c-1.87,4.16-4.01,8.2-5.8,12.39
			c-1.19,2.77-2.58,5.59-1.81,8.82c1.01,4.31,6.36,6.47,10.11,4.05c0.25-0.16,0.47-0.35,0.75-0.56c-0.07,1.6-1.6,3.09-3.79,3.58
			c-5.28,1.18-10.22-3.44-9.78-8.64c0.5-5.86,3.55-10.54,5.88-15.59c0.28-0.61,0.66-1.18,0.95-1.78
			C493.49,151.12,493.5,150.82,493.66,150.14z"/>
		<path d="M779.68,238.76c0.88-5.6,1.74-11.1,2.7-17.2c-3.45,1.64-6.15,2.99-8.92,4.19c-1.22,0.53-2.56,0.87-3.87,1.01
			c-0.61,0.06-1.28-0.6-1.93-0.93c0.41-0.67,0.67-1.68,1.26-1.94c2.93-1.29,5.96-2.34,8.93-3.55c1.03-0.42,1.96-1.1,2.99-1.54
			c0.83-0.35,2.23-0.98,2.51-0.68c0.72,0.77,1.36,2.02,1.3,3.03c-0.28,4.54-0.79,9.06-1.26,13.59c-0.13,1.32-1.08,2.74,0.6,3.8
			c0.08,0.05-0.21,1.07-0.56,1.3c-0.67,0.44-1.48,0.77-2.27,0.93c-3.23,0.63-6.46,1.23-9.71,1.69c-0.6,0.08-1.31-0.57-1.97-0.88
			c0.49-0.43,0.93-1.12,1.49-1.24C773.84,239.74,776.71,239.28,779.68,238.76z"/>
		<path d="M703,235.85c2.37-3.83,7.47-6.73,11.52-5.96c1.99,0.38,3.65,2.59,3.99,5.4c0.35,2.84-0.21,5.48-1.95,7.84
			c-2.3,3.12-4.73,6.18-6.73,9.48c-2.25,3.7-4.06,7.67-6.13,11.48c-0.43,0.79-1.2,1.4-2.23,2.57c-0.16-3.85,0.93-6.62,2.45-9.15
			c3.41-5.68,7.06-11.23,10.51-16.89c1.39-2.28,1.62-4.79,0.53-7.33c-0.73-1.71-1.91-2.54-3.72-1.6c-2.06,1.07-4.04,2.3-6.09,3.4
			C704.48,235.44,703.72,235.6,703,235.85z"/>
		<path d="M579.84,461.17c-1.88-3.58-2.37-7.24-1.6-10.99c0.3-1.48,0.82-3.09,1.76-4.2c0.64-0.75,2.34-1.25,3.31-0.96
			c3.22,0.96,5.45,6.21,4.53,9.97C586.82,459.16,583.85,461.46,579.84,461.17z"/>
		<path d="M603.71,270.41c-1.41,2.25-2.6,4.68-4.3,6.69c-1.85,2.2-4.03,4.19-6.34,5.91c-1.96,1.47-4.38,1.82-6.84,1.02
			c-6.46-2.09-10.34-6.16-9.4-12.95c0.45-3.28,1.47-6.48,2.4-9.67c0.12-0.42,1.24-0.85,1.79-0.74c0.47,0.09,1.18,1.04,1.09,1.47
			c-0.35,1.73-1.16,3.37-1.45,5.1c-0.39,2.33-0.61,4.72-0.61,7.09c0.01,5.52,7.56,10.36,12.48,6.14c3.26-2.79,6.05-6.13,9.04-9.23
			c0.45-0.46,0.85-0.97,1.27-1.45C603.13,270,603.42,270.2,603.71,270.41z"/>
		<path d="M553.51,441.35c-3.46-0.83-4.01-3.7-4.58-6.43c-0.89-4.24,0.28-8.32,1.59-12.26c1.22-3.66,2.89-7.17,4.37-10.75
			c0.91-2.19,1.84-4.38,2.76-6.57c1.51-3.58,2.39-4.04,6.73-3.32c-4.42,4.11-6.44,9.65-9.22,14.69c-1.02,1.86-1.59,4.02-2.07,6.11
			c-0.74,3.25-1.46,6.55-1.75,9.86c-0.18,2.09,0.35,4.26,0.75,6.37C552.25,439.8,552.94,440.45,553.51,441.35z"/>
		<path d="M588.85,422.5c0.78-3.06,0.85-6.06,3.31-8.04c-2.11,4.49-1.77,9.22-1.62,13.94c0.05,1.46-0.26,2.97-0.01,4.39
			c0.25,1.42,0.98,2.76,1.5,4.13c-3.38,1.21-6.52-1.01-6.69-5.29c-0.06-1.38,0.41-2.78,0.55-4.18c0.26-2.74,0.75-5.51,0.62-8.24
			c-0.15-3.23,1.8-5.47,3.1-8c1.31-2.55,3.05-4.87,4.4-7.4c1.33-2.47,3.32-3.4,6.99-2.48c-0.93,0.15-1.85,0.3-2.96,0.48
			c0.17,0.37,0.33,0.72,0.62,1.32c-0.98,0.18-1.92,0.36-3.01,0.56c-0.03,2.02-1.02,3.5-2.84,4.69c-0.48,0.32-0.07,1.98-0.07,3.14
			C590.26,412.03,586.87,417.41,588.85,422.5z M589.7,436.19c-0.27-4.27-0.55-8.69-0.85-13.48
			C586.98,427.57,586.18,433.97,589.7,436.19z"/>
		<path d="M716.81,183.7c-2.1,1.36-4.19,2.75-6.31,4.08c-1.84,1.15-3.71,2.24-5.59,3.32c-2.11,1.21-3.64,0.32-3.61-2.11
			c0.09-6.42,0.1-12.85,0.38-19.26c0.09-2.09,0.69-4.29,3.66-5.74c-1.82,8.32-1.63,16.13-1.31,24.19c4.47-1.49,7.9-4.9,12.49-5.07
			C716.62,183.31,716.72,183.51,716.81,183.7z"/>
		<path d="M486.44,289.05c-1.6-0.06-3.19,1.39-4.27-0.96c1.06-0.66,2.05-1.45,3.17-1.93c1.87-0.8,2.55-2.17,2.46-4.08
			c-0.02-0.37-0.09-0.82,0.09-1.11c0.43-0.72,0.99-1.37,1.49-2.05c0.34,0.75,0.79,1.46,0.98,2.25c0.17,0.69,0.03,1.44,0.03,2.22
			c2.51,0.15,4.69-2.19,7.93-0.47c-1.91,0.88-3.25,1.59-4.66,2.13c-2.3,0.87-4.06,1.83-4.61,4.75c-0.79,4.2-2.29,8.28-3.6,12.37
			c-0.18,0.55-0.99,0.9-1.51,1.34c-0.24-0.6-0.79-1.27-0.67-1.79c0.89-3.7,1.91-7.36,2.88-11.04
			C486.29,290.21,486.34,289.7,486.44,289.05z"/>
		<path d="M601.17,423.24c-0.11,5.02-4.35,10.19,1.06,14.78c-1.17,1.41-3.14,1.45-4.42-0.07c-4.11-4.89-4.78-13.45-1.67-19.13
			c0.9-1.65,1.26-3.6,1.87-5.41c1.04-3.07,2.04-6.16,3.2-9.19c0.19-0.49,1.13-0.68,2.11-1.22c-1.36,3.75-2.57,6.85-3.6,10
			c-0.91,2.79-1.15,5.91-2.53,8.43c-3.37,6.19-0.57,11.27,2.21,16.47c0.04,0.08,0.24,0.08,0.82,0.25c-3.84-5.07-2.09-9.9-0.1-14.71
			C600.2,423.25,600.86,423.29,601.17,423.24z"/>
		<path d="M631.4,270.87c2.46-1.31,4.31-2.3,6.34-3.38c-0.41,2.56-5.59,6.32-7.6,5.6c-0.74-0.26-1.59-1.32-1.7-2.12
			c-0.76-5.36-1.38-10.75-1.9-16.14c-0.05-0.47,0.9-1.04,1.38-1.56c0.57,0.56,1.53,1.07,1.63,1.7c0.33,2.13,0.26,4.31,0.5,6.46
			C630.4,264.44,630.9,267.42,631.4,270.87z"/>
		<path d="M497.51,270.08c-1.04,0.85-1.97,2.2-3.15,2.46c-2.57,0.57-5.26,0.77-7.9,0.77c-1.83,0-2.78-1.51-2.81-3.22
			c-0.09-5.06-0.07-10.12,0.05-15.18c0.02-0.69,0.92-1.95,1.39-1.94c1.59,0.05,1.29,1.34,1.25,2.51c-0.14,4.22-0.31,8.44-0.17,12.65
			c0.1,2.9,1.59,4.04,4.47,3.56c2.2-0.37,4.31-1.23,6.47-1.87C497.24,269.91,497.38,270,497.51,270.08z"/>
		<path d="M572.59,194.66c2.5-0.8,2.98,0.28,3.09,1.99c0.2,3.06,0.48,6.11,0.77,9.16c0.07,0.72,0.27,1.42,0.49,2.49
			c2.81-1.48,5.35-2.81,7.9-4.15c0.19,0.3,0.37,0.61,0.56,0.91c-2.48,1.81-4.87,3.78-7.48,5.37c-1.56,0.95-3.86-0.42-4.15-2.58
			C573.19,203.46,572.96,199.01,572.59,194.66z"/>
		<path d="M481.54,196.13c-2.28,1.97-3.08,7.23-1.51,11.29c2.95-2.48,5.75-4.83,8.56-7.19c0.16,0.18,0.32,0.37,0.49,0.55
			c-2.35,3.39-4.6,6.9-8.6,8.72c-1.83,0.83-2.97,0.17-3.36-1.81c-0.76-3.82-0.68-7.55,1.25-11.07
			C479.14,195.22,480.02,194.46,481.54,196.13z"/>
		<path d="M492.04,191.68c0.91,0.28,2.25,0.26,2.68,0.87c3.49,5.04,4.86,11.23,0.07,16.56c-0.08,0.08-0.27,0.06-1.08,0.22
			c2.82-6.21,2.02-11.86-2.27-16.99C491.64,192.13,491.84,191.9,492.04,191.68z"/>
		<path d="M662.73,205.54c0.71,0.76,1.8,1.42,2.07,2.31c1.18,4.06,2.17,8.18,3.1,12.3c0.13,0.56-0.46,1.28-0.71,1.92
			c-0.51-0.55-1.3-1.01-1.5-1.66c-1.18-3.76-2.23-7.56-3.3-11.35c-0.27-0.95-0.41-1.94-0.61-2.92
			C662.09,205.95,662.41,205.75,662.73,205.54z"/>
		<path d="M655.19,274.2c-0.06-0.78-0.22-1.39-0.14-1.97c0.83-6.34,0.38-12.48-2.63-18.28c-0.19-0.36,0.03-0.93,0.06-1.41
			c0.45,0.14,1.18,0.16,1.3,0.43c1.04,2.43,2.33,4.83,2.84,7.38c0.64,3.19,0.67,6.52,0.85,9.79
			C657.57,272.11,657.07,272.9,655.19,274.2z"/>
		<path d="M593.51,190.96c3.22,0.52,3.94,3.02,4.61,5.27c0.65,2.18,0.86,4.54,0.96,6.84c0.08,1.87-0.94,3.14-3.19,3.38
			C597.04,200.93,595.44,195.96,593.51,190.96z"/>
		<path d="M730.99,181.7c-1.54-4.73-3.06-9.37-4.59-14.08c1.92-0.34,2.9,0.26,3.4,2.09c0.68,2.52,1.77,4.92,2.49,7.43
			C732.77,178.81,733.36,180.69,730.99,181.7z"/>
		<path d="M614.76,161.18c-3.75,0.28-12.01-10.4-11.17-14.62C607.41,151.57,610.98,156.25,614.76,161.18z"/>
		<path d="M507.51,152.23c-0.45-0.82-1.19-1.6-1.3-2.47c-0.42-3.18-0.7-6.38-0.87-9.59c-0.03-0.5,0.8-1.04,1.24-1.56
			c0.5,0.51,1.36,0.97,1.44,1.54c0.42,3.11,0.71,6.24,0.89,9.37c0.05,0.87-0.41,1.76-0.63,2.65
			C508.02,152.19,507.77,152.21,507.51,152.23z"/>
		<path d="M705.85,214.59c-0.32,0.86-0.51,1.36-0.79,2.09c-0.72-2.1-1.35-3.91-2.03-5.9c1.61-0.44,3.02-0.46,4.31,1.21
			c1.4,1.81,3.16,3.34,4.68,5.07c0.41,0.47,0.49,1.24,0.72,1.87c-0.81-0.08-1.83,0.12-2.39-0.29
			C708.82,217.49,707.48,216.09,705.85,214.59z"/>
		<path d="M498.28,307.1c0.89,0.95,1.79,1.9,3.08,3.27c0.42-1.48,0.66-2.32,0.99-3.47c-1.02,0.22-1.66,0.35-2.66,0.57
			c0.72-1.78,1.6-3.18,3.24-2.69c1.52,0.45,1.71,2.05,1.27,3.56c-0.1,0.36-0.15,0.73-0.28,1.08c-0.68,1.9-2.43,2.96-3.95,2.42
			C498.21,311.22,497.49,309.23,498.28,307.1z"/>
		<path d="M503.14,139.56c0.46,3.47,0.92,6.94,1.41,10.59c-1.84-0.19-3.1-1-3.18-2.65c-0.13-2.72-0.69-5.59,0.9-8.05
			C502.55,139.49,502.85,139.53,503.14,139.56z"/>
		<path d="M717.73,277.54c2.05-0.13,10.16,6.05,10.92,8.32C726.45,285.78,718.23,279.51,717.73,277.54z"/>
		<path d="M501.4,289.13c0.32,0.18,0.96,0.38,0.96,0.58c0,0.42-0.23,1.1-0.55,1.24c-2.37,1.01-4.77,1.98-7.22,2.8
			c-0.42,0.14-1.11-0.45-1.61-0.8c-0.06-0.05,0.23-0.95,0.51-1.05C496.07,290.94,498.68,290.07,501.4,289.13z"/>
		<path d="M541.43,149.3c3.78,1.16,5.27,4.49,8.07,6.51C547.08,156.7,541.81,152.48,541.43,149.3z"/>
		<path d="M542.23,187.52c2.6-1.18,5.02,0.86,5.89,4.82C545.46,191.43,543.9,189.61,542.23,187.52z"/>
		<path d="M550.54,148.62c-0.11-2.21-0.22-4.29-0.33-6.38c0.23-0.15,0.46-0.29,0.68-0.44c0.56,0.73,1.54,1.42,1.6,2.19
			C552.62,145.61,553.79,147.83,550.54,148.62z"/>
		<path d="M549.86,150.27c-2.55-0.64-3.31-2.06-3-5.31C549.52,144.8,549.16,145.55,549.86,150.27z"/>
		<path d="M663.44,193.32c-0.92-1.36-1.87-2.71-2.74-4.11c-0.12-0.19,0.13-0.9,0.25-0.92c0.47-0.04,1.1-0.07,1.41,0.2
			c1.33,1.17,2.26,2.56,1.76,4.45C663.9,193.08,663.67,193.2,663.44,193.32z"/>
		<path d="M797.71,337.79c-0.57-0.67-1.13-1.35-2.05-2.44c-0.29,0.76-0.53,1.4-0.77,2.03c-0.28-0.16-0.55-0.31-0.83-0.47
			c0.07-0.72-0.09-1.58,0.27-2.1c0.28-0.42,1.56-0.75,1.75-0.53c0.89,0.98,1.56,2.17,2.3,3.29
			C798.16,337.63,797.94,337.71,797.71,337.79z"/>
		<path class="vol2_1_st0" d="M572.44,566.02c0.11-1.6,0.23-3.2,0.35-4.96c-0.58-0.23-1.24-0.49-2.33-0.93c-0.14,1.94-0.43,3.63-0.33,5.29
			c0.1,1.64-0.74,2.18-2.04,2.34c-6.29,0.79-12.53,1.11-18.5-1.75c-1.24-0.6-1.69-1.36-1.53-2.62c0.61-4.97,1.18-9.94,1.86-14.9
			c0.62-4.5,1.35-8.98,2.06-13.46c0.08-0.5,0.35-0.97,0.51-1.46c0.24-0.7,0.47-1.41,0.7-2.12c-1.01,0.21-2.5,0.08-2.94,0.7
			c-2.05,2.86-5,4.25-8.06,5.47c-5.03,1.99-11.22-0.33-13.25-4.87c-1.05-2.35-0.88-3.34,0.34-5.26c0.19-1,0.12-2.16,0.61-2.96
			c4.2-6.8,10.45-9.75,18.32-9.19c1.19,0.08,2.48,0.95,3.42,1.79c1.75,1.58,3.49,2.72,6.37,1.86c-1.86-1.29-0.88-2.19-0.16-3.38
			c2.01-3.36,3.8-6.84,5.81-10.52c1.5,1.06,3.18,2.32,4.92,3.48c3.48,2.32,6.99,4.59,10.48,6.88c1.69,1.11,3.08,0.8,3.97-0.98
			c1.87-3.73,3.73-7.46,5.5-11.24c1.11-2.38,2.93-3.93,5.45-3.36c2.93,0.66,5.79,1.82,8.5,3.15c1.66,0.81,2.32,2.58,2.14,4.58
			c-0.62,7.03-2.75,13.45-8.69,17.69c-3.22,2.3-7.32,2.48-11.25,2.28c-1.44-0.07-2.28-0.91-2.03-2.59c0.07-0.49-0.52-1.07-0.8-1.6
			c-0.41,0.43-1.14,0.82-1.19,1.29c-0.25,2.52-0.37,5.05-0.45,7.58c-0.09,2.92-0.31,5.85-0.11,8.76c0.46,6.63-1.57,12.7-3.82,18.75
			c-0.65,1.75-1.34,3.49-2.11,5.19c-0.24,0.53-0.8,0.92-1.22,1.37C572.78,566.22,572.61,566.12,572.44,566.02z"/>
		<path class="vol2_1_st0" d="M569.36,569.39c-0.61,10.86-1.21,21.61-1.79,32.11c-8.66-1.6-16.76-3.1-25-4.62c0-0.71,0-1.51,0-3.05
			c-1.53,0.98-2.63,1.68-3.74,2.38c0.08,0.22,0.17,0.44,0.25,0.66c-2.31-0.26-4.62-0.53-7.46-0.85c3.15-5.3,5.96-10.03,8.77-14.77
			c1.71-2.89,3.58-5.71,5.03-8.73c0.84-1.76,2.15-2.72,3.68-3.58c0.35-0.19,0.89-0.3,1.25-0.17c6.08,2.11,12.22,1.61,18.39,0.49
			C568.87,569.23,569.03,569.31,569.36,569.39z"/>
		<path class="vol2_1_st0" d="M517.29,564.86c-0.06-1.38-0.11-2.52-0.17-3.78c-1.17-0.7-1.79-0.34-2.44,1c-0.76,1.57-1.94,2.94-2.94,4.39
			c-0.36-0.18-0.71-0.35-1.07-0.53c0.64-2.18,1.28-4.35,1.99-6.78c-3.23-0.02-4.59,2.39-6.38,4.11c-0.85,0.82-1.6,1.8-2.58,2.4
			c-0.57,0.35-1.66,0.37-2.24,0.05c-0.35-0.2-0.43-1.43-0.19-2.03c1.16-2.92,2.47-5.79,3.79-8.79c-1.27-0.58-2.66-0.93-3.57,0.86
			c-0.68,1.34-1.73,1.42-3.01,1.2c-2.93-0.49-6.06-3.96-5.75-6.8c0.11-0.99,0.97-2.22,1.85-2.7c0.78-0.44,2.45-0.43,3.03,0.12
			c1.95,1.82,3.82,1.17,5.41-0.02c5.6-4.23,11.04-8.66,16.57-12.98c1.91-1.5,3.89-2.9,5.86-4.37c1.1,2.23,2.04,4.15,3.04,6.18
			c-3.01,2.15-3.84,5.61-4.16,9.31c-0.1,1.18-0.35,2.35-0.57,3.52c-0.71,3.79-1.43,7.58-2.14,11.31
			C517.6,558.91,519.58,563.75,517.29,564.86z"/>
		<path class="vol2_1_st0" d="M563.24,479.61c2.22-0.27,4.29-0.48,6.35-0.78c1.96-0.29,2.49,1.08,2.82,2.48c0.66,2.82,1.17,5.67,1.76,8.51
			c0.15,0.72,0.26,1.48,0.57,2.14c0.65,1.36,0.82,2.54-1.19,3.42c1.11,0.51,1.86,0.86,3.18,1.48c-7.22,3.29-14.14,1.53-21.62,1.49
			c1.72-2.3,3.22-3.87,4.18-5.72c0.93-1.77,1.34-3.83,1.92-5.77C561.92,484.44,562.57,482.02,563.24,479.61z"/>
		<path class="vol2_1_st0" d="M590.88,490.89c-3.3,7.47-6.59,14.95-9.87,22.36c-5.32-1.73-16.13-9.77-16.48-11.95
			c3.36-0.45,6.7-0.96,10.07-1.34c3.44-0.39,4.19-0.92,4.38-3.12c3.85-2.21,7.52-4.31,11.19-6.41
			C590.4,490.58,590.64,490.74,590.88,490.89z"/>
		<path class="vol2_1_st0" d="M537.3,618.06c2.01-2.96,3.11-0.19,4.76,0.28c-2.96,3.89-4.86,8.45-10.17,9.59c-2.95,0.63-5.47,0.25-7.6-1.98
			c-2.25-2.36-2.72-5.23-2.26-8.31c0.06-0.38,0.66-0.94,1.04-0.96C527.84,616.42,532.73,614.81,537.3,618.06z"/>
		<path class="vol2_1_st0" d="M561.29,500.7c-0.73,5.31-3.07,9.72-6.04,14.37c-1.41-5.87-2.74-11.39-4.07-16.9c0.2-0.2,0.4-0.39,0.6-0.59
			C554.19,500.9,557.78,500.21,561.29,500.7z"/>
		<path class="vol2_1_st0" d="M557.68,629.79c-1.53-0.29-3.07-0.55-4.6-0.87c-1.14-0.23-1.41-0.85-0.93-1.96c0.95-2.16,1.74-4.4,2.75-6.54
			c0.25-0.53,1.07-1.01,1.68-1.09c1.24-0.16,2.51-0.09,3.76,0.01c0.42,0.03,1.01,0.35,1.18,0.71c1.22,2.53,1.61,5.11,0.04,7.67
			C560.7,629.16,559.55,630.13,557.68,629.79z"/>
		<path class="vol2_1_st0" d="M538.63,435.17c-2.12-4.21,1.85-16.99,5.84-24.46c0.19,0.07,0.39,0.13,0.58,0.2
			c-0.98,2.51-2.01,4.99-2.91,7.52c-0.97,2.72-2.06,5.42-2.66,8.23C538.92,429.35,538.91,432.15,538.63,435.17z"/>
		<path class="vol2_1_st0" d="M545.51,416.7c-1.53,4.95-3.06,9.9-4.58,14.85c-1.1-2.04,1.4-10.35,4-15.03
			C545.13,416.58,545.32,416.64,545.51,416.7z"/>
		<path class="vol2_1_st0" d="M827.69,508.36c0.32,5.28-2.4,9.54-4.49,14.05c-1.82,3.93-3.56,7.93-4.89,12.04
			c-1.33,4.11-3.64,7.46-6.39,10.68c-4.14,4.83-8.82,8.97-14.8,11.26c-2.53,0.97-5.36,1.36-8.09,1.54
			c-4.81,0.31-9.71,1.29-14.41-0.56c-5.7-2.25-9.11-6.54-10.75-12.39c-1.69-6.04-0.94-12.21-1.17-18.33
			c-0.09-2.32,0.07-4.69-0.37-6.94c-0.92-4.72,0.38-9.2,0.96-13.77c0.1-0.78-0.25-1.62-0.66-2.41c-3.66,4.77-6.1,9.75-6.42,15.77
			c-0.36,6.59-1.79,13.05-4.59,19.11c-3.11,6.74-8.42,10.56-15.79,11.38c-10.57,1.18-19.88-3.82-23-14.6
			c-0.61-2.1-0.54-4.65,0.01-6.79c1.55-5.96,3.32-11.89,5.41-17.69c1.33-3.68,3.59-7.03,5.11-10.65c1.25-2.99,2.04-6.17,3.04-9.27
			c1.22-3.78,2.71-7.41,6.05-9.96c0.35,0.38,0.75,0.8,1.82,1.97c3.25-3.6,6.23-7.26,9.59-10.53c5.74-5.59,12.97-8.73,20.35-11.46
			c5.94-2.2,11.85-4.55,17.95-6.2c7.48-2.02,15.11-3.59,22.74-4.93c8.08-1.43,16.23-2.68,24.39-3.45c11.27-1.06,22.1,0.07,32.07,6.5
			c7.52,4.84,14.17,10.49,19.85,17.3c3.19,3.82,4.29,8.47,4.43,13.39c0.29,10.31-1.6,20.18-6.98,29.02
			c-4.98,8.19-12.44,12.88-22.05,14.68c-10.19,1.9-16.25-3.56-21.78-10.64c-2.19-2.81-4.37-5.64-6.55-8.46
			C828.1,508.14,827.89,508.25,827.69,508.36z M778.09,543.51c-0.26,0.06-0.52,0.12-0.78,0.18c0.17,0.72,0.1,1.85,0.54,2.1
			c1.65,0.94,3.41,2.03,5.23,2.23c1.65,0.18,3.08,0.38,4.58,1.21c4.34,2.41,9.54,0.22,10.48-4.26c0.5-2.41-0.25-3.03-2.64-2.61
			c-0.91,0.16-2.43-0.08-2.82-0.68c-0.74-1.16-0.41-2.25,1.16-3.15c1.06-0.61,2.2-2.5,1.98-3.53c-0.21-0.97-2.08-1.9-3.37-2.22
			c-1.94-0.47-3.73,0.17-5.26,1.73c-2.07,2.12-2.16,2,0.18,3.99c0.51,0.43,1.27,1.09,1.23,1.58c-0.33,3.31-2.16,5.28-5.54,5.86
			c-2.07,0.35-3.27-0.72-4.41-2.12C778.52,543.68,778.28,543.62,778.09,543.51z M807.89,519.59c-0.41-1.76-0.76-3.8-1.41-5.74
			c-0.2-0.59-1.19-1.14-1.89-1.25c-0.36-0.05-1.05,0.86-1.27,1.46c-1.36,3.68-1.63,7.46-0.33,11.18c0.27,0.78,1.45,1.39,2.34,1.71
			c0.29,0.1,1.29-0.92,1.46-1.56C807.28,523.61,807.5,521.77,807.89,519.59z M778.2,519.69c0.09,1.58,0.05,3.02,0.31,4.4
			c0.12,0.6,0.87,1.08,1.33,1.61c0.51-0.45,1.35-0.82,1.47-1.35c0.63-2.82,1.31-5.67,1.48-8.53c0.06-1.01-1.11-2.28-2.02-3.1
			c-0.82-0.75-1.68-0.36-1.83,0.91C778.7,515.7,778.43,517.77,778.2,519.69z"/>
		<path class="vol2_1_st0" d="M776.46,560.39c5.03-0.22,9.75-0.2,14.42-0.72c3.3-0.37,6.77-0.95,9.71-2.38c3.69-1.8,7.42-2.09,11.3-2.14
			c4.09-0.05,8.19,0.14,12.28,0.04c1.02-0.03,1.99-1.04,3.04-1.18c9.25-1.23,18.42-3,27.88-2.18c3.21,0.28,6.56-1.06,9.85-1.61
			c2.49-0.42,5-0.77,7.5-1.17c2.57-0.41,5.16-0.75,7.69-1.3c0.56-0.12,1.17-0.96,1.38-1.59c1.15-3.45,2.18-6.94,3.27-10.42
			c0.97-3.09,5.75-6.55,9.05-6.5c2.23,0.04,3.15,1.93,3.59,3.5c0.42,1.51,0.34,3.59-0.42,4.91c-3.33,5.8-7.44,11.03-12.65,15.32
			c-4.97,4.1-9.12,8.73-11.11,15.14c-2.55,8.26-5.6,16.37-8.28,24.59c-1.96,6.02-3.62,12.14-5.55,18.17
			c-0.59,1.84-1.57,3.55-2.43,5.29c-1.74,3.53-5.45,3.86-7.97,0.77c-2.06-2.53-2.08-5.68-2.75-8.66c-0.72-3.17-1.29-6.56-2.86-9.32
			c-2.52-4.44-6.99-6.64-11.93-7.59c-3.36-0.65-6.79-1.12-10.2-1.34c-4.98-0.33-9.3,3.51-9.56,8.58c-0.18,3.56,0.31,7.15,0.18,10.72
			c-0.15,4.01-0.36,8.06-1.12,11.98c-0.84,4.37-7.66,8.72-12.12,8.16c-1.48-0.18-2.96-0.49-4.4-0.87c-2.3-0.61-3.72-2.24-4.33-4.45
			c-0.5-1.8-1.09-3.7-0.96-5.5c0.31-4.26-1.47-7.8-2.95-11.58c-1.9-4.84-3.17-9.93-4.82-14.88c-0.63-1.89-1.83-3.62-2.27-5.53
			c-0.84-3.6-1.49-7.26-1.89-10.93c-0.4-3.71-0.42-7.46-0.57-11.19C776.41,563.08,776.46,561.61,776.46,560.39z"/>
		<path class="vol2_1_st0" d="M841.58,609.98c1.36,2.34,0.75,4.46-0.51,6.55c-2.56,4.24-5.07,8.51-9.98,10.52
			c-2.75,1.12-5.56,1.13-8.35,0.23c-4.8-1.55-5.95-5.7-2.26-9.1c3.78-3.49,7.76-6.83,11.99-9.74c3.64-2.51,6.61-5.41,8.68-9.58
			c3.18,3.8,2.64,8.27,3.03,12.61c-0.31-0.41-0.57-0.88-0.95-1.21c-0.34-0.3-0.81-0.44-1.22-0.65
			C841.86,609.73,841.72,609.85,841.58,609.98z"/>
		<path class="vol2_1_st0" d="M847.93,197.02c1.62,4,0,6.66-3.27,8.54c-2.58,1.49-4.92,3.72-8.31,3.16
			C836.33,204.15,842.48,198,847.93,197.02z"/>
		<path class="vol2_1_st0" d="M851.42,199.44c-0.9-3.98-0.71-4.18,4.03-4.27C853.98,196.73,852.79,197.99,851.42,199.44z"/>
		<path class="vol2_1_st0" d="M848.85,265.11c0.67-1.02,1.24-2.8,2.03-2.9c1.71-0.22,3.53,0.4,5.3,0.73c0.24,0.04,0.48,0.38,0.6,0.64
			c0.68,1.45,2.26,3.56,1.79,4.24c-1.05,1.52-3.04,2.5-4.82,3.34c-1.14,0.54-3.99-2.23-4.28-3.93c-0.1-0.59-0.09-1.19-0.13-1.79
			C849.18,265.33,849.02,265.22,848.85,265.11z"/>
		<path class="vol2_1_st0" d="M571.23,249.1c-0.37-4.43,2.76-6.44,5.95-9.27c0.56,2.02,1.66,3.78,1.32,5.19
			C577.93,247.33,573.82,249.32,571.23,249.1z"/>
		<path class="vol2_1_st0" d="M591.56,245.96c0.22-4.47,2.57-5.52,6.55-3.24C595.87,243.83,593.93,244.79,591.56,245.96z"/>
		<path class="vol2_1_st0" d="M580.75,242.14c-0.66-1.4-1.03-2.19-1.57-3.33c1.44-0.81,2.86-1.61,4.28-2.41c0.13,0.11,0.25,0.22,0.38,0.33
			C582.87,238.42,581.91,240.1,580.75,242.14z"/>
		<path class="vol2_1_st0" d="M536.27,219.82c-0.1,1.55-0.21,3.1-0.36,5.37c-1.04-0.85-2-1.33-1.95-1.64c0.23-1.35,0.75-2.65,1.16-3.97
			C535.51,219.65,535.89,219.74,536.27,219.82z"/>
		<path class="vol2_1_st0" d="M589.7,436.19c-3.52-2.22-2.72-8.62-0.85-13.48C589.15,427.5,589.43,431.92,589.7,436.19z"/>
		<path d="M778.09,543.51c0.19,0.11,0.43,0.17,0.55,0.32c1.14,1.39,2.34,2.47,4.41,2.12c3.38-0.57,5.21-2.54,5.54-5.86
			c0.05-0.48-0.72-1.14-1.23-1.58c-2.34-2-2.26-1.88-0.18-3.99c1.53-1.56,3.31-2.21,5.26-1.73c1.29,0.32,3.16,1.25,3.37,2.22
			c0.23,1.03-0.91,2.92-1.98,3.53c-1.57,0.9-1.9,1.99-1.16,3.15c0.39,0.6,1.91,0.84,2.82,0.68c2.39-0.43,3.14,0.2,2.64,2.61
			c-0.94,4.48-6.14,6.67-10.48,4.26c-1.49-0.83-2.93-1.03-4.58-1.21c-1.81-0.2-3.58-1.29-5.23-2.23c-0.44-0.25-0.37-1.38-0.54-2.1
			C777.57,543.63,777.83,543.57,778.09,543.51z M795.84,544.82c-1.93-0.5-3.7-0.96-5.45-1.42c-0.93,1-2.02,2.16-3.15,3.37
			c1.91,1.86,4.07,1.96,6.38,1.06C795.12,547.25,796.04,546.22,795.84,544.82z"/>
		<path d="M807.89,519.59c-0.39,2.18-0.62,4.03-1.1,5.8c-0.18,0.64-1.17,1.67-1.46,1.56c-0.89-0.32-2.07-0.93-2.34-1.71
			c-1.3-3.72-1.04-7.5,0.33-11.18c0.22-0.6,0.92-1.51,1.27-1.46c0.7,0.1,1.7,0.65,1.89,1.25
			C807.14,515.79,807.48,517.83,807.89,519.59z"/>
		<path d="M778.2,519.69c0.23-1.91,0.5-3.99,0.74-6.07c0.15-1.28,1.01-1.66,1.83-0.91c0.91,0.82,2.08,2.09,2.02,3.1
			c-0.17,2.87-0.85,5.71-1.48,8.53c-0.12,0.53-0.96,0.9-1.47,1.35c-0.46-0.53-1.22-1.01-1.33-1.61
			C778.25,522.7,778.29,521.26,778.2,519.69z"/>
		<path class="vol2_1_st0" d="M795.84,544.82c0.2,1.41-0.71,2.43-2.22,3.01c-2.31,0.89-4.47,0.8-6.38-1.06c1.13-1.21,2.21-2.37,3.15-3.37
			C792.14,543.86,793.91,544.31,795.84,544.82z"/>
	</g>
</g>
</svg>
