<?xml version="1.0" encoding="utf-8"?>
<!-- Generator: Adobe Illustrator 26.3.1, SVG Export Plug-In . SVG Version: 6.00 Build 0)  -->
<svg version="1.1" xmlns="http://www.w3.org/2000/svg" xmlns:xlink="http://www.w3.org/1999/xlink" x="0px" y="0px"
	 viewBox="0 0 1366 768" style="enable-background:new 0 0 1366 768;" xml:space="preserve">
<style type="text/css">
	.vol2_6_st0{fill:#FFFFFF;}
	.vol2_6_st1{fill:none;stroke:#ffffff;stroke-width:56.6929;stroke-miterlimit:10;}
	.vol2_6_st2{fill:none;stroke:#ffffff;stroke-width:59.5276;stroke-miterlimit:10;}
	.vol2_6_st3{fill:none;stroke:#ffffff;stroke-width:65.1969;stroke-miterlimit:10;}
	.vol2_6_st4{fill:none;stroke:#ffffff;stroke-width:45.3543;stroke-miterlimit:10;}
</style>
<g id="base">
	<g>
		<path class="vol2_6_st0" d="M452,160.95c149.7,0,299.4,0,449.1,0c0,149.7,0,299.4,0,449.1c-149.7,0-299.4,0-449.1,0
			C452,460.35,452,310.65,452,160.95z M843.48,177.06c-0.29-0.12-0.58-0.23-0.87-0.35c-0.29,0.47-0.71,0.9-0.86,1.41
			c-0.62,2.23-1.18,4.48-1.71,6.73c-1.58,6.74-3.41,13.44-4.64,20.24c-1.41,7.77-2.44,15.62-3.34,23.46
			c-0.79,6.91-1.21,13.86-1.7,20.8c-0.51,7.31-0.78,14.64-1.37,21.94c-0.91,11.1-2.13,22.18-2.98,33.28
			c-0.56,7.31-0.64,14.65-1.05,21.97c-0.47,8.43-1.16,16.86-1.59,25.29c-0.49,9.64-0.6,19.31-1.27,28.93
			c-0.75,10.73-2.19,21.42-2.87,32.16c-0.71,11.09-0.84,22.21-1.27,33.32c-0.24,6.1-0.63,12.19-0.87,18.29
			c-0.22,5.59-0.32,11.18-0.46,16.77c-0.17,6.56-0.35,13.11-0.43,19.67c-0.01,0.54,0.6,1.36,1.11,1.57
			c0.69,0.27,1.56,0.07,2.73,0.07c0-6.71-0.08-13.32,0.02-19.94c0.11-7.72,0.31-15.44,0.59-23.16c0.21-5.78,0.66-11.56,0.88-17.34
			c0.21-5.36,0.16-10.73,0.41-16.09c0.35-7.31,0.91-14.6,1.33-21.91c0.2-3.37,0.29-6.74,0.44-10.11c0.01-0.14,0.1-0.28,0.12-0.43
			c0.5-3.87,1.2-7.72,1.45-11.6c0.39-6.32,0.38-12.66,0.73-18.98c0.49-9.03,1.18-18.04,1.73-27.07c0.41-6.8,0.7-13.61,1.08-20.41
			c0.39-6.94,0.81-13.88,1.25-20.82c0.5-7.77,1.06-15.54,1.56-23.32c0.51-7.98,0.98-15.96,1.44-23.94
			c0.42-7.16,0.55-14.34,1.28-21.47c0.65-6.31,1.82-12.58,2.98-18.82c1.52-8.23,3.24-16.43,4.89-24.64
			C842.6,180.73,843.06,178.9,843.48,177.06z M708.04,471.31c0.28-5.13,0.57-10.07,0.81-15.02c0.06-1.19-0.14-2.39-0.06-3.57
			c0.31-4.83,0.72-9.66,1-14.49c0.12-2.11-0.12-4.25,0.04-6.36c0.22-2.87,0.84-5.72,0.97-8.6c0.1-2.22-0.48-4.46-0.39-6.68
			c0.2-5.12,0.69-10.22,0.91-15.34c0.06-1.5-0.6-3.03-0.59-4.55c0.04-4.97,0.35-9.95,0.33-14.92c-0.02-4.96-0.11-9.87,0.34-14.86
			c1.07-11.75,1.21-23.57,1.92-35.35c0.44-7.22,1.2-14.42,1.88-21.62c0.17-1.77,0.67-3.52,0.83-5.29c0.43-4.6,0.59-9.24,1.17-13.82
			c1-7.93,2.2-15.83,3.38-23.73c0.6-3.97,1.33-7.92,2.05-11.87c0.65-3.59,1.39-7.17,2.03-10.76c1.17-6.51,2.41-13.02,3.4-19.56
			c0.84-5.53,1.56-11.09,1.95-16.66c0.26-3.64-0.41-7.33-0.24-10.98c0.36-7.47,1.01-14.93,1.51-22.39c0.06-0.96,0.02-1.95-0.18-2.88
			c-0.08-0.35-0.74-0.57-1.14-0.84c-0.23,0.4-0.62,0.78-0.67,1.19c-0.21,1.93-0.16,3.9-0.52,5.79c-1.9,9.99-1.8,20.08-2.02,30.19
			c-0.11,5.07-1.16,10.13-1.88,15.18c-0.24,1.68-0.89,3.3-1.18,4.98c-0.91,5.35-1.73,10.72-2.6,16.09
			c-0.62,3.83-1.24,7.65-1.87,11.48c-0.75,4.55-1.47,9.11-2.25,13.66c-1.16,6.69-2.61,13.34-3.51,20.07
			c-1.04,7.77-1.78,15.59-2.37,23.41c-0.78,10.36-1.3,20.73-1.88,31.1c-0.15,2.74-0.04,5.5-0.21,8.24
			c-0.11,1.77-0.75,3.53-0.77,5.29c-0.04,4.69,0.14,9.39,0.2,14.08c0.03,2.36-0.01,4.71-0.02,7.07c-0.02,6.34-0.02,12.69-0.07,19.03
			c-0.05,7.08-0.01,14.16-0.27,21.23c-0.15,3.99-0.95,7.96-1.22,11.96c-0.46,6.85-0.75,13.7-1.09,20.56
			c-0.25,4.99-0.43,9.98-0.73,14.97C704.84,470.34,704.92,470.56,708.04,471.31z M789.86,174.75c-0.29-0.65-0.56-1.27-0.83-1.88
			c-0.37,0.28-0.97,0.49-1.07,0.85c-0.8,2.79-1.65,5.58-2.19,8.42c-0.87,4.54-1.46,9.13-2.27,13.67c-1.57,8.8-3.22,17.58-4.83,26.37
			c-1.44,7.85-2.77,15.69-3.07,23.7c-0.22,5.95-0.78,11.89-1.49,17.8c-0.59,4.93-1.67,9.8-2.45,14.7
			c-1.03,6.45-1.92,12.91-2.99,19.35c-0.9,5.42-2.08,10.79-2.93,16.21c-1.13,7.2-2.25,14.41-3.04,21.65
			c-0.7,6.46-0.95,12.97-1.4,19.46c-0.23,3.26-0.38,6.54-0.73,9.79c-0.48,4.48-1.24,8.94-1.63,13.43
			c-0.61,6.88-1.03,13.78-1.51,20.67c-0.46,6.47-0.99,12.93-1.32,19.4c-0.35,6.99-0.55,13.98-0.74,20.98
			c-0.24,8.47-0.36,16.95-0.61,25.43c-0.15,5.22-0.39,10.44-0.72,15.64c-0.21,3.42-0.7,6.82-0.96,10.24
			c-0.04,0.59,0.45,1.23,0.7,1.84c0.45-0.38,1.04-0.68,1.33-1.16c0.41-0.69,0.74-1.49,0.86-2.28c0.97-6.37,1.63-12.73,1.4-19.23
			c-0.28-7.79,0.24-15.62,0.43-23.43c0.18-7.51,0.24-15.02,0.63-22.52c0.36-6.95-0.23-13.97,1.28-20.85
			c0.11-0.5,0.01-1.04,0.03-1.56c0.06-2.88-0.3-5.84,0.28-8.61c1.29-6.13,0.44-12.44,2.07-18.56c0.89-3.36,0.86-6.97,1.15-10.48
			c0.37-4.38,0.56-8.77,0.99-13.14c0.69-7.03,1.48-14.04,2.28-21.06c0.44-3.85,0.95-7.69,1.48-11.52c0.63-4.57,1.23-9.15,2.01-13.7
			c0.92-5.34,2.09-10.64,3.04-15.98c1.01-5.72,1.98-11.45,2.79-17.2c0.96-6.78,1.81-13.58,2.57-20.38
			c0.83-7.35,1.24-14.76,2.3-22.07c1.15-7.97,3-15.85,4.24-23.81c0.89-5.76,1.08-11.63,1.97-17.39
			C787.57,183.27,788.84,179.1,789.86,174.75z M492.29,437.91c-0.96-9.44,1.42-18.41,1.32-27.47c-0.1-9.21,0.1-18.42,0.37-27.63
			c0.27-9.13,0.73-18.26,1.22-27.38c0.5-9.12,1.14-18.24,1.76-27.97c1.2,1.41,1.91,2.25,2.62,3.08c0.14-0.12,0.28-0.24,0.42-0.36
			c-0.6-0.88-1.34-1.69-1.76-2.64c-0.5-1.11-1.09-2.37-1-3.52c0.41-5.47,1.08-10.92,1.58-16.38c0.35-3.87,0.65-7.74,0.85-11.62
			c0.66-13.3,1.56-26.6,1.8-39.91c0.16-8.8,1.36-17.44,2.24-26.14c0.66-6.53,0.72-13.12,0.93-19.69c0.13-4.18-0.12-8.37,0.13-12.53
			c0.22-3.73,0.91-7.42,1.34-11.14c0.07-0.6-0.14-1.23-0.22-1.85c-0.25,0.02-0.5,0.04-0.75,0.06c-0.54,2.41-1.07,4.83-1.62,7.3
			c-4.07-1.39-7.54-0.66-10.93,1.05c-1.07,0.54-2.26,0.84-3.42,1.26c-0.69-2.68,0.56-3.75,2.54-4.45c1.97-0.69,3.88-1.55,5.85-2.24
			c1.61-0.56,2.03-1.37,0.75-2.91c-2.91,0.99-5.84,1.98-8.82,3c-1.47-3.12,1.06-7.32-2.91-9.72c0,2.95-0.19,5.49,0.05,7.98
			c0.25,2.59-0.85,3.64-3.24,4.08c-3.17,0.59-6.3,1.4-9.58,2.15c1.09,2.45,3.1,3.47,5.36,3.64c2.24,0.16,4.52-0.23,6.78-0.37
			c0.09,0.2,0.18,0.41,0.27,0.61c-2.02,1.45-4.02,2.93-6.09,4.32c-1.15,0.78-1.81,1.73-1.02,2.98c1.82,2.9,4.03,5.36,8.21,5.71
			c0.37-2.79,0.7-5.5,1.1-8.21c0.14-0.93,0.18-2.2,0.78-2.67c3.31-2.61,6.92-4.76,11.3-4.82c0.68-0.01,1.92,0.92,1.98,1.51
			c0.26,2.69,0.16,5.39-1.66,7.68c-0.58,0.73-1.02,1.56-1.82,2.8c1.42-0.45,2.28-0.73,3.78-1.21c-0.43,8.22-0.65,16.06-1.3,23.87
			c-0.47,5.56-1.7,11.06-2.24,16.62c-0.46,4.75-0.16,9.57-0.65,14.31c-0.81,7.94-1.31,15.88-1,23.87c0.06,1.66-0.2,3.33-0.31,5
			c-1.13-1.58-1.84-3.24-2.69-4.84c-1.52-2.87-2.31-3.41-3.82-2.74c2.69,3.04,4.09,6.69,5.14,10.51c1.2,4.34,1.68,8.59-1.43,12.47
			c-0.32,0.4-0.14,1.27-0.07,1.91c0.17,1.48,0.53,2.94,0.63,4.42c0.17,2.61,0.08,5.23,0.31,7.83c0.17,1.93,0.32,3.58-2.87,2.85
			c0.65,1.25,1.17,2.06,1.5,2.94c0.35,0.94,0.79,1.96,0.74,2.91c-0.42,7.31-1.05,14.6-1.43,21.91c-0.29,5.53-0.3,11.07-0.47,16.61
			c-0.28,9.12-0.6,18.24-0.89,27.36c-0.07,2.17-0.05,4.34-0.14,6.51c-0.33,8.67-0.7,17.34-1.04,26.01
			c-0.14,3.51-0.32,7.03-0.34,10.54C490.44,436.55,490.69,438.04,492.29,437.91z M595.35,332.93c0.29,1.49,0.25,2.45,0.65,3.17
			c2.53,4.58,5.2,9.09,7.73,13.67c0.58,1.05,1.16,2.34,1.08,3.47c-0.46,6.83-1.11,13.64-1.67,20.19c0.43,0.59,0.8,1.03,1.06,1.54
			c0.04,0.07-0.47,0.59-0.76,0.63c-1.82,0.24-2.39,0.67-2.01,2.34c0.33,1.49,1.12,2.88,1.81,4.27c1.41,2.85,3.54,5.45,2.77,8.99
			c-1.03,4.74-2.2,9.45-2.94,14.23c-1.32,8.49-1.92,17.05-1.25,25.65c0.19,2.38,0.23,4.84,0.88,7.11c0.58,2.06,1.06,4.54,3.35,5.08
			c-0.36-5.31-0.88-10.69-1.04-16.09c-0.13-4.17,0.13-8.36,0.31-12.53c0.09-2,0.39-3.99,0.62-5.99c0.56-4.82,0.63-9.68,2.6-14.31
			c0.67-1.57,0.47-3.89-0.15-5.56c-1.19-3.2-2.98-6.18-4.46-9.27c-0.25-0.53-0.19-1.22-0.28-1.83c0.58,0.09,1.15,0.17,2.01,0.3
			c0.35-3.38,0.71-6.73,1.05-10.09c0.41-3.92,0.92-7.84,1.19-11.77c0.22-3.19,1.58-6.42-0.54-9.59c-1.96-2.93-3.56-6.09-5.41-9.09
			c-0.95-1.54-1.77-2.98-1.69-4.92c0.18-4.7,0.16-9.41,0.21-14.11c0.03-3.34-0.1-6.69,0.1-10.03c0.27-4.38,0.85-8.74,1.21-13.11
			c0.24-2.98,0.09-6.01,0.54-8.95c1.34-8.97,2.9-17.91,4.35-26.87c0.32-1.97,0.49-3.96,0.75-5.93c0.44-3.33,1.07-6.64,1.3-9.98
			c0.52-7.54,0.79-15.09,1.26-22.63c0.4-6.41,0.86-12.81,1.42-19.2c0.56-6.32,1.19-12.64,1.99-18.93c0.33-2.58,1.27-5.07,1.78-7.63
			c0.1-0.5-0.5-1.14-0.77-1.71c-0.41,0.44-1.05,0.82-1.18,1.33c-0.84,3.09-1.74,6.19-2.28,9.34c-0.89,5.21-1.75,10.45-2.22,15.72
			c-0.65,7.34-0.89,14.71-1.38,22.06c-0.51,7.56-1.02,15.11-1.74,22.65c-0.58,6.12-1.43,12.22-2.23,18.32
			c-0.44,3.28-1.11,6.54-1.55,9.82c-0.5,3.67-0.86,7.36-1.3,11.04c-0.41,3.47-0.84,6.94-1.24,10.41c-0.15,1.32-0.25,2.65-0.37,3.98
			c-0.42,4.6-1.01,9.19-1.23,13.8c-0.26,5.61-0.32,11.24-0.24,16.86c0.03,1.93,0.3,4.08,1.19,5.74c1.85,3.43,4.3,6.54,6.27,9.92
			c0.7,1.2,0.69,2.8,1.01,4.21c-0.28,0.09-0.57,0.17-0.85,0.26C601.93,343.77,598.82,338.63,595.35,332.93z M652.55,447.39
			c0.38,0.05,0.76,0.09,1.14,0.14c0.34-1.5,1.03-3.02,0.97-4.51c-0.18-4.23-0.88-8.44-0.99-12.67c-0.26-10.33-0.49-20.66-0.35-30.99
			c0.09-6.79,0.95-13.56,1.25-20.35c0.28-6.27,0.11-12.57,0.43-18.84c0.36-7,1.06-13.98,1.59-20.97c0.57-7.46,1.15-14.93,1.68-22.4
			c0.34-4.78,0.54-9.57,0.86-14.36c0.36-5.37,0.66-10.76,1.24-16.11c0.76-6.98,1.6-13.95,2.71-20.88c0.95-5.9,2.55-11.69,3.51-17.59
			c1.47-9.08,2.74-18.19,3.89-27.31c0.71-5.56,1.01-11.18,1.55-16.77c0.62-6.54,1.3-13.07,1.95-19.61c0.14-1.38,0.26-2.76,0.39-4.14
			c-0.23-0.09-0.46-0.18-0.68-0.27c-0.37,0.67-0.96,1.3-1.08,2.01c-0.88,5.23-2.34,10.47-2.36,15.71
			c-0.05,14.75-2.82,29.18-4.72,43.69c-1.24,9.49-3.74,18.8-5.53,28.22c-0.84,4.39-1.55,8.83-1.96,13.28
			c-0.77,8.49-1.24,17-1.89,25.5c-0.49,6.33-1.08,12.64-1.6,18.97c-0.3,3.64-0.5,7.28-0.87,10.91c-0.46,4.58-1.19,9.14-1.56,13.73
			c-0.55,6.74,0.69,13.48-0.25,20.28c-0.76,5.52-0.67,11.17-0.84,16.77c-0.22,7.11-0.32,14.22-0.46,21.33
			c-0.02,0.96,0.01,1.93-0.02,2.89c-0.08,2.3-0.39,4.62-0.24,6.91c0.36,5.74,0.92,11.47,1.4,17.21
			C651.98,440.59,652.26,443.99,652.55,447.39z M529.66,398.7c0.3-0.02,0.6-0.03,0.9-0.05c0.34-1.67,0.82-3.33,0.97-5.01
			c0.13-1.5-0.28-3.06-0.13-4.56c0.32-3.21,0.91-6.4,1.28-9.61c0.56-4.82,1.12-9.64,1.5-14.48c0.42-5.44,0.7-10.89,0.92-16.34
			c0.29-7.1,0.28-14.21,0.71-21.29c0.62-10,1.47-19.99,2.32-29.97c0.72-8.4,1.37-16.81,2.45-25.16c0.92-7.15,2.44-14.22,3.63-21.34
			c1.22-7.34,2.51-14.68,3.51-22.06c1.24-9.18,1.91-18.45,3.41-27.58c0.99-6.05,2.92-11.97,4.61-17.89c0.65-2.28,1.84-4.4,2.7-6.63
			c0.14-0.37-0.15-0.91-0.25-1.36c-0.43,0.17-1.09,0.23-1.26,0.54c-1.01,1.9-2.14,3.79-2.8,5.82c-1.69,5.2-3.42,10.41-4.65,15.73
			c-1.28,5.55-2.19,11.2-2.89,16.85c-0.64,5.13-0.55,10.35-1.18,15.48c-0.75,6.11-1.84,12.18-2.96,18.23
			c-0.87,4.67-2.22,9.26-2.98,13.95c-1.14,7.06-1.95,14.18-2.9,21.27c-0.13,0.98-0.4,1.94-0.44,2.92c-0.12,3.53-0.03,7.07-0.3,10.59
			c-0.21,2.7-1.13,5.36-1.24,8.06c-0.24,5.86,0.02,11.74-0.26,17.6c-0.32,6.52-1.07,13.02-1.55,19.53
			c-0.33,4.42-0.49,8.85-0.77,13.27c-0.48,7.57-0.96,15.14-1.5,22.7c-0.34,4.8-0.87,9.6-1.14,14.4
			C529.24,394.44,529.54,396.57,529.66,398.7z M753.08,189.68c3.08-0.82,6.11-1.56,9.09-2.47c0.62-0.19,1.04-1.03,1.56-1.57
			c-0.71-0.18-1.47-0.61-2.13-0.49c-2.47,0.46-4.91,1.1-7.37,1.69c-1.43,0.34-2.13-0.16-2.14-1.68c-0.01-0.74-0.1-1.51-0.35-2.2
			c-0.52-1.43-1.34-2.5-3.07-1.92c0.47,2.12,0.92,4.15,1.46,6.61c-1.43-0.21-2.3-0.58-2.99-0.37c-0.85,0.25-1.55,1-2.31,1.53
			c0.73,0.46,1.41,1.19,2.2,1.32c1.03,0.17,2.13-0.13,3.23-0.23c0.17,2.98,0.11,5.62,0.53,8.18c0.35,2.21-0.32,3.24-2.37,3.99
			c-1.12,0.41-1.94,1.64-2.9,2.5c0.21,0.31,0.42,0.62,0.63,0.93c1.35-0.55,2.71-1.09,4.37-1.76c0.17,0.72,0.51,1.46,0.48,2.19
			c-0.08,2.16-0.55,4.32-0.42,6.46c0.12,2.04-0.54,2.72-2.5,2.95c-2.68,0.31-5.31,2.86-5.24,4.85c0.08,2.57,0.29,5.1,1.64,7.47
			c0.9,1.58,2.04,1.47,3.14,0.88c1-0.54,1.97-1.45,2.52-2.45c1.5-2.73,2.77-5.59,4.3-8.75c4.41,0.72,9.34,3,14.6,2.29
			c0.1-0.42,0.2-0.85,0.3-1.27c-5.14-1.37-10.64-1.56-15.32-3.63c0-3.44,0.18-6.8-0.06-10.14c-0.19-2.63,1.12-3.65,3.25-4.57
			c2.51-1.09,4.87-2.56,7.28-3.88c0.92-0.5,1.46-1.22,0.48-2.11c-0.75-0.69-1.39-0.79-2.48,0c-2.27,1.63-4.84,2.85-7.32,4.18
			c-0.97,0.52-1.55,0.15-1.61-1C753.42,194.66,753.24,192.14,753.08,189.68z M818.16,257.89c2.16-0.1,3.58-1.26,4.84-2.79
			c1.76-2.15,2.73-8.6,1.43-11c-1.93-3.56-4.93-5.25-9.03-5.69c-6.03-0.65-12-1.24-17.36,2.26c-1.97,1.29-3.88,3.09-5.05,5.1
			c-1.76,3.02-2.67,6.55-0.36,9.76c2.6,3.61,6.17,5.34,10.76,4.29c2.9-0.66,4.45-2.49,4.64-5.46c0.28-4.57-0.61-8.89-2.76-13.23
			c0.72-0.22,1.33-0.58,1.93-0.55c3.33,0.16,6.72,0.05,9.96,0.7c5.43,1.08,6.37,2.96,5.38,8.41
			C821.95,252.91,820.42,255.51,818.16,257.89z M571.85,305.07c-2.05,0.13-3.83,0.18-5.59,0.4c-0.49,0.06-1.23,0.57-1.3,0.97
			c-0.07,0.42,0.43,1.26,0.84,1.38c1.1,0.32,2.44,0.77,3.41,0.42c1.85-0.66,1.96,0.21,1.9,1.53c-0.07,1.79-0.08,3.6-0.34,5.37
			c-0.12,0.8-0.62,1.83-1.26,2.2c-1.04,0.61-2.36,0.7-3.53,1.11c-1.4,0.5-2.82,1-4.11,1.71c-1.34,0.74-1.2,3.79,0.14,4.95
			c1.58,1.36,3.19,2.7,4.79,4.04c1.41,1.19,4.06,0.48,4.59-1.33c0.43-1.47,0.74-3,0.88-4.53c0.48-5.49,0.12-4.35,5.1-4.58
			c2.74-0.13,5.34,1.59,3.48,5.04c-0.21,0.39-0.35,0.85-0.37,1.29c-0.02,0.39,0.16,0.8,0.25,1.2c0.46-0.12,1.04-0.1,1.37-0.37
			c2.08-1.67,2.15-5.02,0.36-7c-1.94-2.15-4.33-2.68-7.09-2.63c-0.72,0.01-2.08-0.85-2.09-1.32c-0.02-2.1,0.24-4.23,0.62-6.3
			c0.11-0.59,0.84-1.34,1.44-1.53c2.09-0.67,4.27-1.05,6.36-1.7c1.02-0.32,1.92-1.02,2.87-1.55c-1.2-0.12-2.47-0.55-3.6-0.31
			c-3,0.63-5.98,2.46-8.79-0.43c-0.11-0.12-0.4-0.07-0.75-0.12C571.57,303.64,571.67,304.18,571.85,305.07z M699.05,264.72
			c1.76,1.32,2.75,1.42,3.99-0.04c2.17-2.55,4.27-5.2,5.99-8.06c1.45-2.4,0.24-7.02-1.88-8.86c-2.48-2.15-5.2-1.77-7.96-0.63
			c-1.5,0.62-2.99,1.28-4.66,2c0.39-1.81,0.63-3.2,0.99-4.56c0.42-1.61,1.03-3.13,2.72-3.85c3.79-1.6,7.59-3.18,11.28-4.73
			c-0.38-2.85-1.44-3.13-3.61-1.91c-2.67,1.5-5.56,2.63-8.38,3.93c-0.2-0.53-0.36-0.75-0.34-0.94c0.1-0.89,0.25-1.77,0.39-2.65
			c0.31-2.08-0.28-2.69-2.41-2.68c-0.44,2.19-0.62,4.44-1.35,6.49c-0.97,2.69-4.03,1.5-5.96,2.43c0.63,3.3,3.05,2.01,5.27,2.31
			c-0.97,2.98-1.96,5.88-2.8,8.82c-0.11,0.4,0.6,1.49,0.88,1.47c0.98-0.06,2.02-0.32,2.88-0.78c1.83-0.97,3.44-2.5,5.36-3.1
			c5-1.57,7.81-0.03,7.44,5.52c-0.04,0.58-0.19,1.18-0.41,1.72C705.02,260.09,703.49,263.51,699.05,264.72z M654.86,307.45
			c-0.46,0.57-0.73,0.98-1.07,1.3c-1.19,1.11-2.33,2.29-3.65,3.22c-0.33,0.23-1.8-0.33-1.84-0.66c-0.38-2.78-0.55-5.59-0.78-8.38
			c-0.07-0.83-0.15-1.66-0.23-2.48c-0.83,0.33-1.77,0.51-2.46,1.02c-3.45,2.56-6.84,5.22-10.26,7.84c-0.15-0.16-0.3-0.33-0.45-0.49
			c0.56-0.65,1.06-1.36,1.68-1.94c1.32-1.21,2.75-2.3,4.03-3.56c0.4-0.39,0.45-1.14,0.66-1.72c-0.67-0.16-1.41-0.57-2.01-0.42
			c-0.74,0.19-1.38,0.81-2.03,1.3c-0.65,0.49-1.26,1.04-1.96,1.62c0-2.32,0.09-4.33-0.06-6.33c-0.04-0.49-0.81-1.24-1.31-1.3
			c-0.45-0.05-1.35,0.64-1.42,1.1c-0.29,2.07-0.59,4.19-0.42,6.26c0.15,1.78-0.48,2.8-1.81,3.73c-1.51,1.05-2.96,2.21-4.43,3.32
			c0.1,0.21,0.19,0.42,0.29,0.63c0.92,0,1.84,0,2.93,0c-0.77,0.96-1.41,1.76-2.38,2.96c1.37,0.09,2.19,0.3,2.94,0.14
			c0.82-0.17,1.56-0.69,2.78-1.26c0,1.53-0.01,2.7,0,3.87c0.03,2.63,0.92,3.09,3.37,1.66c-0.04-0.25-0.07-0.54-0.14-0.82
			c-1.13-4.98-0.83-5.78,3.19-8.7c0.9-0.65,1.77-1.35,2.64-2.04c1.34-1.07,2.67-2.15,4.21-3.39c0.21,1.9,0.26,3.32,0.55,4.7
			c0.29,1.38,0.75,2.74,1.28,4.05c0.47,1.15,1.2,2.05,2.74,1.73C651.8,313.9,654.75,310.34,654.86,307.45z M810.38,321.81
			c0.07,0.2,0.15,0.41,0.22,0.61c0.94-0.44,2.06-0.69,2.8-1.36c3.09-2.76,2.2-8.03-1.67-11.12c-1-0.8-1.7-1.97-2.58-2.94
			c-1.24-1.37-2.53-2.7-3.79-4.05c-0.32,0.24-0.64,0.48-0.97,0.71c1.08,1.85,2.16,3.7,3.22,5.49c-1.83,0.53-3.49,1.01-5.36,1.55
			c-0.08-1.77-0.1-3.46-0.28-5.14c-0.06-0.52-0.55-1-0.85-1.5c-0.45,0.45-1.26,0.87-1.29,1.34c-0.15,2-0.01,4.02-0.11,6.02
			c-0.04,0.79-0.28,1.68-0.74,2.3c-2.02,2.76-4.18,5.41-6.22,8.16c-0.32,0.43-0.26,1.15-0.37,1.74c0.62-0.17,1.46-0.14,1.81-0.54
			c1.62-1.84,3.12-3.78,4.61-5.71c0.98-1.26,1.76-1.24,2.48,0.2c1.87,3.74,3.76,7.46,5.61,11.21c1.18,2.41,1.92,2.51,3.77,0.47
			c-2.26-4.12-4.57-8.2-6.74-12.36c-0.48-0.92-0.95-2.76-0.58-3.03c1.38-1.02,3.1-2.08,4.72-2.13c1.34-0.04,3.15,1,3.98,2.13
			C813.84,316.31,813.11,318.86,810.38,321.81z M496.89,272.13c0.14-0.41,0.29-0.81,0.43-1.22c-2.56-1.12-5.15-2.2-7.68-3.39
			c-0.68-0.32-1.61-0.91-1.7-1.49c-0.22-1.45-0.29-3.05,0.14-4.42c0.18-0.59,1.74-0.74,2.67-1.11c0.56-0.22,1.08-0.54,1.64-0.73
			c1.79-0.58,1.59-1.64,1.01-2.6c-2.21,0.83-4.28,1.6-6.21,2.32c-0.97-2.72-1.79-5.02-2.64-7.4c1.87-1.98,5.78-1.17,6.64-4.72
			c-1.38,0.13-2.66,0.46-3.8,1.05c-2.59,1.33-4.8,1.58-6.76-1.17c-0.65-0.91-2.04-1.29-3.1-1.92c-0.17,0.23-0.34,0.46-0.51,0.68
			c1.34,1.56,2.68,3.12,4.06,4.73c-1.5,0.85-2.77,1.47-3.91,2.28c-0.48,0.34-0.67,1.09-0.99,1.66c0.72,0.15,1.53,0.58,2.15,0.39
			c0.89-0.28,1.66-0.97,2.45-1.54c1.15-0.83,1.93-0.57,2.39,0.73c0.62,1.8,1.22,3.61,1.84,5.45c-3.24,1.38-6.86,0.75-9.44,3.34
			c1.01,0.34,1.99,0.41,2.92,0.24c1.91-0.36,3.77-0.92,5.68-1.25c0.5-0.09,1.41,0.18,1.6,0.56c1.03,2.06-0.16,3.79-2.42,3.71
			c-0.97-0.03-2.05-0.24-2.88,0.1c-1.14,0.47-2.38,1.21-3.04,2.19c-0.43,0.63-0.26,2.37,0.28,2.8c1,0.79,2.62,1.56,3.72,1.29
			c1.46-0.36,2.96-1.5,3.93-2.71c1.55-1.95,3.22-1.4,4.95-0.77c1.03,0.38,1.9,1.16,2.9,1.61
			C494.4,271.35,495.66,271.71,496.89,272.13z M684.7,407.36c-0.15,0.2-0.3,0.4-0.45,0.6c0.53,0.61,1.07,1.21,1.58,1.84
			c0.82,1.02,1.33,1.83-0.57,2.37c-1.55,0.44-3.02,1.23-4.44,2.02c-0.42,0.23-0.55,0.99-0.82,1.5c0.57,0.21,1.14,0.6,1.71,0.59
			c0.64-0.01,1.29-0.36,1.92-0.6c1.33-0.51,2.65-1.05,4.01-1.59c0.73,2.37-0.08,3.71-1.85,4.75c-0.81,0.48-1.46,1.26-2.09,1.98
			c-1.25,1.43-0.54,3.45,1.35,3.84c0.7,0.15,1.45,0.11,2.45,0.17c-0.39,0.99-0.63,1.85-1.06,2.6c-1.2,2.15-2.57,4.22-3.67,6.41
			c-0.32,0.63,0.02,1.59,0.05,2.4c0.63-0.24,1.43-0.32,1.85-0.75c0.98-1.02,1.95-2.12,2.6-3.36c2.68-5.07,5.77-10.04,3.05-16.23
			c-1.03-2.34-0.3-3.15,2.18-4.15c1.72-0.69,3.41-1.5,5.06-2.34c0.37-0.19,0.56-0.73,0.84-1.12c-0.42-0.26-0.82-0.7-1.25-0.74
			c-0.55-0.05-1.16,0.16-1.7,0.38c-2.31,0.94-4.6,1.93-6.79,2.85C687.23,409.45,686.76,407.33,684.7,407.36z M853.47,305.18
			c1.32,5.57,2.55,10.78,3.83,16.16c-1.11,0.17-1.61,0.24-2.11,0.33c-3.46,0.64-5.3,3.01-5,6.28c0.18,1.95,1.67,2.44,3.08,3.14
			c1.37,0.68,2.12-0.1,2.74-1.06c1.19-1.82,2.3-3.69,3.66-5.91c2.99,1.1,6.31,2.33,9.64,3.56c0.15-0.27,0.29-0.54,0.44-0.81
			c-0.47-0.44-0.88-1.02-1.43-1.28c-2.09-0.98-4.17-2.07-6.38-2.71c-2.37-0.69-3.89-1.51-2.97-4.39c0.24-0.75-0.13-1.79-0.44-2.61
			c-0.5-1.33-0.04-1.77,1.18-2.42c3.67-1.98,7.19-4.24,10.77-6.39c-0.15-0.35-0.29-0.69-0.44-1.04c-2.51-0.85-4.07,1.54-6.04,2.48
			c-2.17,1.04-4.33,2.13-6.58,3.24C856.54,309.21,856.95,306.24,853.47,305.18z M720.49,182.38c-2.56-1.89-4.05,0.61-6.2,0.88
			c-0.27-1.1-0.68-2.22-0.81-3.37c-0.22-1.96-1.39-2.34-3.33-2.32c0.51,2.21,1,4.15,1.41,6.1c0.31,1.47,0.13,2.57-1.71,3.01
			c-1.27,0.31-2.41,1.17-3.71,1.84c2.31,2.37,3.98,0.5,6.18-0.35c0.27,1.74,0.5,3.31,0.76,4.88c0.26,1.53-0.28,2.3-1.87,2.7
			c-1.06,0.27-2.57,0.99-2.81,1.82c-0.45,1.54-0.65,3.57,0.01,4.92c0.76,1.54,3.25,1.15,4.75-0.6c0.97-1.13,1.63-2.54,2.59-4.08
			c1.57,1.04,3.33,2.2,5.17,3.42c1.29-0.94,1.38-2.28-0.16-3.22c-1.27-0.77-2.69-1.29-3.98-2.04c-0.48-0.28-1.01-0.86-1.1-1.38
			c-0.34-2.06-0.54-4.15-0.73-6.23c-0.1-1.1-0.19-2.05,1.25-2.71C717.67,184.98,718.86,183.67,720.49,182.38z M681.49,453.75
			c-1.35,0.15-2.38,0.29-3.42,0.37c-2.13,0.17-4.47,1.9-4.83,4.01c-0.18,1.03,0.09,2.48,0.74,3.22c0.84,0.96,2.26,1.56,3.61,0.44
			c1.8-1.49,3.56-3.04,5.44-4.43c0.66-0.49,1.73-0.97,2.41-0.77c2.21,0.65,4.32,1.62,6.48,2.46c1.18,0.46,2.39,1.04,3.65-0.87
			c-4.03-1.46-7.88-2.85-11.59-4.19c-0.1-1.83-0.27-3.66-0.25-5.48c0-0.43,0.54-1.04,0.99-1.26c3.5-1.72,7.05-3.35,10.56-5.06
			c0.44-0.21,0.73-0.73,1.09-1.11c-0.54-0.28-1.12-0.86-1.6-0.79c-1.16,0.17-2.33,0.52-3.39,1.02c-2.37,1.11-4.64,2.42-7.02,3.49
			c-0.53,0.24-1.86-0.01-1.92-0.25c-0.53-2.14-2.04-2.86-4.32-3.04C681.66,444.95,681.48,449.25,681.49,453.75z M873.1,396.64
			c-0.58,1.44-1.08,2.72-1.59,3.99c-1.52,3.73-4.97,5.16-8.33,3.03c-2.42-1.54-4.38-3.79-6.67-5.55c-1.6-1.23-1.69-2.58-1.09-4.31
			c0.73-2.1,1.46-4.22,1.83-6.39c0.13-0.74-0.82-1.67-1.28-2.51c-0.45,0.53-1.13,0.99-1.32,1.6c-1.06,3.49-1.64,7.16-3.07,10.48
			c-1.94,4.49-4.53,8.7-6.78,13.06c-0.33,0.65-0.58,1.64-0.31,2.2c0.2,0.43,1.35,0.7,1.97,0.56c0.55-0.13,1.26-0.87,1.35-1.42
			c0.8-4.86,5.01-7.78,6.54-12.43c0.7,0.54,1.12,0.82,1.49,1.15c1.73,1.55,3.33,3.25,5.19,4.63c1.89,1.41,4,3.06,6.54,1.84
			c1.85-0.89,3.55-2.19,5.08-3.57C874.01,401.77,874.19,398.28,873.1,396.64z M738.43,310.05c0.33,0.2,0.66,0.4,0.99,0.6
			c0.63-0.8,1.44-1.52,1.85-2.42c1.22-2.71,2.37-5.45,3.37-8.24c1.06-2.96,1.84-6.02,2.89-8.98c0.23-0.65,0.96-1.25,1.6-1.62
			c1.95-1.13,3.98-2.11,5.95-3.2c1.94-1.07,2.19-3.24,0.85-4.06c-2.43,1.85-4.75,3.62-7.07,5.39c-0.23-0.07-0.45-0.15-0.68-0.22
			c0-1.05-0.07-2.1,0.01-3.14c0.24-2.84-1.41-4.75-3.53-4.13c0.21,1.87,0.48,3.71,0.62,5.57c0.15,2.03-0.25,3.83-2.43,4.73
			c-0.9,0.37-1.75,0.85-2.59,1.34c-1.24,0.73-2.44,1.52-3.95,2.46c3.1,1.7,4.88-0.9,7.35-1.29
			C741.88,298.69,740.16,304.37,738.43,310.05z M822.81,196.5c0-0.6,0.05-1.2-0.01-1.8c-0.45-4.56-4.99-8.2-8.3-6.15
			c-4.13,2.56-7.73,5.99-11.49,9.13c-0.28,0.24,0,1.16,0.02,1.76c0.57-0.13,1.27-0.11,1.69-0.43c1.06-0.81,1.97-1.81,3-2.67
			c2.12-1.77,4.15-3.69,6.46-5.17c1.02-0.65,2.92-0.93,3.89-0.41c1.1,0.59,2.25,2.26,2.28,3.49c0.1,4.04-0.58,7.98-3.18,11.35
			c-1.85,2.41-3.63,4.89-5.34,7.41c-0.36,0.53-0.31,1.34-0.44,2.02c0.66-0.04,1.56,0.19,1.96-0.15
			C818.94,210.03,822.09,203.88,822.81,196.5z M496.66,227.63c-0.22-0.05-0.43-0.11-0.65-0.16c-1.31,4.66-4.34,7.65-8.67,9.49
			c-2.77,1.18-3.95,0.79-4.32-2.24c-0.3-2.41-0.29-4.95,0.13-7.33c0.59-3.33,1.8-6.54,2.49-9.85c0.19-0.92-0.25-2.55-0.93-2.96
			c-1.35-0.81-1.41,0.76-1.66,1.6c-0.5,1.68-1.22,2.39-2.78,0.94c-0.43-0.4-0.98-0.81-1.52-0.89c-0.64-0.09-1.33,0.18-2,0.3
			c0.32,0.5,0.56,1.1,0.99,1.47c0.62,0.53,1.36,0.91,2.09,1.3c1.25,0.66,1.29,1.4,1.03,2.87c-0.76,4.44-1.66,8.97-0.3,13.48
			c0.9,2.97,3.25,4.38,6.19,3.72c4.55-1.03,7.63-3.9,9.46-8.08C496.67,230.2,496.53,228.85,496.66,227.63z M842.5,436.87
			c2.22,2.21,2.78,2.19,4.23,0.26c0.26-0.34,0.54-0.72,0.9-0.93c1.24-0.72,2.61-1.25,3.77-2.07c1.39-0.98,2.47-1.07,3.59,0.36
			c1.52,1.94,3.13,3.81,4.85,5.89c-2.52,3.36-5.07,6.75-8,10.67c1.1-0.24,1.58-0.2,1.77-0.41c2.64-3.13,5.28-6.26,7.82-9.46
			c0.79-0.99,0.57-1.94-0.47-2.9c-1.59-1.45-3-3.1-4.41-4.73c-1.27-1.47-1.02-2.61,0.64-3.62c1.71-1.04,3.47-2.01,5.08-3.19
			c0.51-0.37,0.57-1.34,0.84-2.04c-0.66,0.07-1.44-0.08-1.95,0.23c-2.42,1.46-4.76,3.04-7.13,4.58c-2.51-5.23-2.79-7.12-5.54-5.95
			c1.04,1.98,2.13,3.94,3.07,5.96c0.24,0.53,0.26,1.67-0.05,1.87C848.63,433.25,845.67,434.97,842.5,436.87z M644.61,191.09
			c0.99,2.09,1.89,3.97,2.77,5.85c0.5,1.06,0.33,1.7-0.89,2.25c-2.26,1.02-3.2,3.04-3.33,5.43c-0.09,1.55,1.47,2.91,2.54,2.14
			c1.41-1.02,2.88-2.28,3.66-3.78c1.36-2.63,1.38-2.92,4.23-2.07c1.11,0.33,2.07,1.14,3.16,1.58c0.48,0.19,1.11,0.01,1.67,0
			c-0.15-0.5-0.16-1.31-0.48-1.45c-2.07-0.95-4.21-1.73-6.31-2.63c-0.63-0.27-1.48-0.58-1.74-1.11c-1.91-3.88-1.2-5.48,2.91-6.84
			c0.35-0.12,0.81-0.09,1.06-0.31c0.38-0.33,0.63-0.82,0.94-1.25c-0.46-0.23-0.93-0.66-1.39-0.66c-0.73,0-1.46,0.28-2.18,0.46
			c-3.16,0.8-3.21,0.76-3.01-2.6c0.03-0.6,0.21-1.23,0.08-1.78c-0.12-0.5-0.58-0.92-0.78-1.22
			C644.72,185.37,647.62,189.41,644.61,191.09z M568.25,350.98c0.53-1.7,1.11-3.14,1.38-4.64c0.12-0.65-0.39-1.41-0.61-2.12
			c-0.6,0.39-1.25,0.74-1.78,1.21c-0.25,0.22-0.28,0.67-0.42,1.02c-1.02,2.47-1.09,5.74-4.94,5.81c-0.19,0-0.36,0.4-0.59,0.67
			c0.79,0.4,1.49,0.76,2.27,1.16c-2.35,5.49-4.63,10.83-6.9,16.13c1.79,1.7,2.96,0.61,3.62-0.8c1.99-4.27,3.85-8.61,5.63-12.98
			c0.79-1.94,1.88-3.23,4.03-3.74c1.84-0.43,3.58-1.26,5.39-1.93c-0.53-1.9-1.41-2.36-2.91-1.64
			C571.16,349.73,569.86,350.27,568.25,350.98z M850.14,239.95c0.12,0.9,0.11,1,0.15,1.04c0.24,0.28,0.47,0.58,0.75,0.8
			c2.89,2.29,4.47,5.37,5.28,8.88c0.36,1.54,0.59,2.78-1.83,3.09c-1.45,0.18-2.85,1.62-4.01,2.75c-0.32,0.32,0.07,1.75,0.54,2.37
			c0.44,0.59,1.37,0.87,2.14,1.16c2.85,1.08,6.45-1.35,6.01-4.01c3.88-0.99,7.24,2.86,11.84,1.34c-1.31-0.78-2.03-1.42-2.87-1.67
			c-2.28-0.68-4.63-1.11-6.89-1.83c-0.66-0.21-1.52-0.99-1.61-1.6c-0.64-4.5-3.3-7.78-6.34-10.82
			C852.6,240.78,851.45,240.56,850.14,239.95z M703.95,279.44c1.29,1.83,2.19,3.27,3.28,4.55c0.29,0.34,1.33,0.49,1.71,0.24
			c2.35-1.58,3.05-5.92,1.77-8.77c-0.68-1.51-0.83-3.26-1.43-4.83c-0.28-0.73-1.04-1.27-1.59-1.89c-0.49,0.48-1.22,0.88-1.43,1.46
			c-1.06,2.95-1.62,6.14-4.31,8.38c-0.22-0.32-0.37-0.74-0.64-0.87c-0.62-0.28-1.3-0.42-1.96-0.62c-0.06,0.59-0.26,1.21-0.14,1.76
			c0.25,1.16,0.47,2.42,1.09,3.39c0.4,0.63,1.46,0.98,2.28,1.1c0.28,0.04,0.83-0.96,1.05-1.56
			C703.85,281.19,703.82,280.51,703.95,279.44z M763.77,256.08c-3.75,3.58-7.19,6.93-11.99,8.42c-2.37,0.74-4.03,0.42-4.32-1.45
			c-0.54-3.51-0.99-7.05-1.13-10.59c-0.09-2.35,0.34-4.74,0.71-7.08c0.35-2.21-0.76-2.69-3.27-2.67c0.24,6.32,0.39,12.48,0.74,18.63
			c0.3,5.3,3.83,7.01,8.39,5.04c3.29-1.42,6.31-3.6,9.19-5.78C763.22,259.74,764.82,258.39,763.77,256.08z M685.18,383.09
			c-1.11,1.92-2.34,3.74-3.27,5.7c-2.54,5.37,0.18,12.3,5.24,13.62c2.18,0.57,5.48-0.98,6.56-3.37c-0.92,0.44-1.55,0.75-2.18,1.05
			c-1.71,0.8-3.47,1.14-5.09-0.09c-3.38-2.58-3.71-10.83-0.65-13.89c1.46-1.46,2.91-2.94,4.21-4.54c0.45-0.55,0.43-1.49,0.62-2.26
			c-0.83-0.03-1.79-0.35-2.48-0.06c-3.55,1.52-7.05,3.17-10.54,4.85c-0.63,0.3-1.11,0.92-1.66,1.39c0.78,0.17,1.67,0.69,2.31,0.46
			C680.61,385.12,682.89,384.06,685.18,383.09z M802.24,436.46c-1.99,0.53-2.03,1.45-1.49,2.69c0.32,0.74,0.6,1.53,0.7,2.32
			c0.81,6.29-0.18,12.29-2.75,18.09c-2.04,4.61-3.72,9.41-6.92,13.71c1.01,0.06,2.28,0.21,2.88-0.36c1.11-1.05,2.02-2.43,2.66-3.83
			c1.64-3.58,3.1-7.24,4.59-10.88c2.23-5.43,3.02-11.06,2.02-16.85C803.65,439.71,802.84,438.16,802.24,436.46z M742.93,342.42
			c1.92,1.81,3.58,3.51,5.39,5.03c1.21,1.01,1.29,1.77,0.24,2.94c-0.7,0.78-1.11,1.83-1.64,2.75c0.28,0.2,0.56,0.41,0.84,0.61
			c1.65-1.65,3.29-3.31,4.73-4.76c-2.74-2.88-5.06-5.32-7.36-7.74c2.53-2.01,4.64-3.54,6.56-5.29c0.46-0.42,0.27-1.56,0.37-2.37
			c-0.68,0.21-1.48,0.27-2.02,0.67c-2,1.45-3.91,3.01-6.26,4.85c0-1.95,0.06-3.36-0.01-4.76c-0.12-2.32-0.34-2.49-2.72-2.14
			c0.32,2.52,0.69,5.05,0.91,7.6c0.05,0.57-0.33,1.34-0.76,1.76c-1.81,1.76-3.76,3.38-5.56,5.16c-0.33,0.33-0.21,1.11-0.3,1.69
			c0.51-0.15,1.15-0.16,1.52-0.48C738.8,346.26,740.7,344.47,742.93,342.42z M690.99,212.71c0.3,0.03,0.59,0.07,0.89,0.1
			c2.46-4.77,7.83-7.03,10.34-11.75c-0.21-0.22-0.42-0.45-0.63-0.67c-2.88,1.99-5.77,3.97-8.9,6.13c0.75-7.29,0.83-14.4,4.06-20.95
			c0.76-1.54,1.02-3.33,1.51-5.01c-0.37-0.12-0.74-0.24-1.11-0.36c-0.57,1.36-1.19,2.69-1.68,4.07c-1.12,3.15-2.54,6.25-3.19,9.5
			c-1.02,5.17-1.58,10.44-2.16,15.69C689.99,210.5,690.68,211.62,690.99,212.71z M579.39,218.65c0.23,0.2,0.45,0.39,0.68,0.59
			c0.47-0.2,1.08-0.27,1.38-0.62c1.68-1.91,3.27-3.91,4.92-5.85c3.26-3.82,5.01-8.3,5.57-13.23c0.13-1.11-0.08-2.4-0.56-3.41
			c-1.17-2.44-2.63-2.85-5.17-1.8c-1.04,0.43-1.86,0.83-2.7,1.84c-1.08,1.3-3.18,1.74-5.24,2.74c1.5,1.37,2.38,1.58,3.64,0.52
			c1.39-1.17,2.92-2.22,4.51-3.11c1.45-0.81,2.84,0.08,2.7,1.66c-0.45,5.38-2.02,10.32-5.56,14.56
			C582,214.44,580.77,216.61,579.39,218.65z M795.81,405.34c-0.41-0.18-0.82-0.35-1.23-0.53c0.3-4.5,0.49-9.01,0.92-13.5
			c0.28-2.88,0.98-5.72,1.34-8.59c0.05-0.41-0.7-1.17-1.22-1.32c-0.33-0.1-1.22,0.54-1.32,0.98c-0.65,2.72-1,5.51-1.72,8.2
			c-1.18,4.4-0.85,8.86-0.65,13.29c0.16,3.54,2.18,4.32,5.33,2.43c0.26-0.15,0.56-0.24,0.78-0.44c3.1-2.8,5.05-4.26,4.1-7.56
			C800.05,400.63,797.93,402.98,795.81,405.34z M817.7,288.79c-1.66-3.53-3.15-7.01-4.92-10.34c-1.22-2.29-2.77-4.41-4.29-6.51
			c-0.81-1.12-2.03-1.34-3.09-0.3c-3.24,3.2-6.44,6.45-9.6,9.74c-0.35,0.36-0.28,1.13-0.4,1.71c0.61,0.09,1.28,0.39,1.81,0.23
			c0.59-0.18,1.1-0.73,1.57-1.19c2.77-2.78,5.53-5.59,8.42-8.54c0.71,1.03,1.33,1.71,1.7,2.5c1.8,3.85,3.63,7.69,5.26,11.62
			C814.91,289.5,815.87,289.65,817.7,288.79z M865.3,194.03c-1.48-1.13-3.67-0.29-4.37,2.06c-0.61,2.07-1.35,4.13-1.62,6.25
			c-0.4,3.13-1.74,6.15-0.78,9.46c1.38,4.79,5.24,7.45,9.23,5.68c1.9-0.84,3.44-2.54,5.04-3.97c0.37-0.34,0.3-1.17,0.43-1.78
			c-0.69-0.03-1.54-0.32-2.04-0.03c-1.21,0.71-2.17,1.83-3.38,2.54c-2.9,1.71-4.91,2.07-6.06-1.22c-0.58-1.65-1.12-3.51-0.92-5.18
			c0.42-3.39,1.24-6.75,2.16-10.05C863.35,196.51,864.42,195.42,865.3,194.03z M520.04,190.61c-1.66,0.09-2.2,1.42-2.49,2.84
			c-0.74,3.72-1.5,7.45-2.04,11.21c-0.48,3.3-0.71,6.65-0.99,9.98c-0.11,1.27,0.49,2.29,1.84,1.64c4.64-2.23,9.19-4.63,13.77-6.97
			c-0.13-0.29-0.26-0.58-0.39-0.88c-4.47,0.23-7.75,4.28-12.89,4.53C517.94,205.32,518.98,198.05,520.04,190.61z M572.68,426.91
			c-0.26-0.08-0.52-0.15-0.79-0.23c-0.18,0.23-0.45,0.43-0.51,0.69c-0.83,3.42-3.5,5.1-6.31,6.57c-4.14,2.15-7.1,0.43-7.42-4.19
			c-0.02-0.3-0.01-0.6-0.01-0.9c-0.05-4.9,0.65-9.67,2.4-14.27c0.58-1.53,0.55-2.92-1.64-3.34c-0.46,1.77-0.79,3.45-1.34,5.06
			c-1.71,5.05-2.16,10.22-1.49,15.48c0.49,3.84,2.77,5.51,6.58,4.87c4.11-0.7,7.35-2.9,9.62-6.36
			C572.38,429.36,572.4,428.04,572.68,426.91z M813.1,392.89c1.07,0.68,1.77,1.25,2.58,1.58c0.42,0.17,1.01-0.07,1.53-0.12
			c-0.12-0.53-0.1-1.16-0.39-1.57c-0.27-0.39-0.82-0.66-1.31-0.83c-2.39-0.84-2.47-2.84-3.05-4.92c-0.69-2.47-0.35-3.88,1.98-4.82
			c0.06-0.03,0.04-0.27,0.09-0.74c-0.59-0.08-1.25-0.36-1.76-0.19c-1.69,0.57-2.5-0.23-3.4-1.53c-0.57-0.84-1.71-1.29-2.59-1.92
			c0.33,0.95,0.49,2,1.02,2.83c1.05,1.64,0.81,2.38-1.2,2.6c-1.07,0.12-2.1,0.59-3.61,1.04c2.58,2.38,4.74,0.05,6.82,0.65
			c0.21,1.5,0.43,3.03,0.64,4.56c-4.29,0.83-4.29,0.83-4.3,2.34c-0.02,2.15,1.83,4.96,3.45,5.22
			C812.65,397.54,812.57,395.1,813.1,392.89z M870.05,362.53c-1.69,1.55-2.92,2.67-4.14,3.8c-2.15,1.99-4.38,3.81-7.47,4.09
			c-1.45,0.13-2.39-0.37-3-1.75c-1.52-3.42-2.29-6.92-1.75-10.68c0.3-2.07,0.53-4.15,0.63-6.23c0.02-0.45-0.65-0.94-1.01-1.41
			c-0.31,0.47-0.79,0.9-0.9,1.42c-0.25,1.16-0.16,2.41-0.49,3.54c-1.43,4.87-0.78,9.52,1.19,14.1c1.17,2.73,7.43,5.09,8.98,2.99
			c1.25-1.69,2.44-1.77,4.21-1.6c-0.07-0.78-0.13-1.39-0.18-1.97C868.57,367.72,870.26,366.19,870.05,362.53z M745.61,423.09
			c-1.46,3.19-4.13,5.04-6.97,6.65c-2.18,1.23-4.28,0.5-5.3-1.8c-0.48-1.07-0.71-2.27-0.98-3.42c-1.12-4.87,0.73-9.2,2.46-13.57
			c0.27-0.68,0.08-1.53,0.11-2.3c-0.68,0.51-1.71,0.88-1.98,1.56c-1.04,2.6-1.54,5.45-2.78,7.94c-2.39,4.81-0.39,8.67,2.41,12.22
			c1.14,1.45,3.17,2.84,5.3,1.82c2.1-1,4.05-2.36,5.9-3.79C746.04,426.66,746.55,424.93,745.61,423.09z M802.66,363.6
			c-2.89,2.59-5.15,4.94-8.33,6.46c-1.36-6.27-1.64-12.05,0.46-17.76c0.67-1.81,1.42-3.58,2.07-5.39c0.47-1.3,0.55-2.5-1.58-2.98
			c-1.07,4.73-4.55,8.63-4.1,13.84c0.35,4,0.42,8.02,0.84,12.01c0.21,2.02,2.05,3.21,3.19,2.27c2.5-2.07,4.84-4.34,7.18-6.59
			C802.67,365.2,802.55,364.54,802.66,363.6z M638.41,425.64c-0.25-0.24-0.5-0.48-0.76-0.72c-0.64,0.47-1.29,0.91-1.91,1.4
			c-2.72,2.15-5.32,4.48-8.18,6.42c-1.35,0.92-3.4-0.32-3.37-1.96c0.03-2.1,0.13-4.37,0.93-6.27c1.51-3.58,1.35-6.72-1.11-9.71
			c-0.14-0.17-0.5-0.16-0.84-0.26c-0.07,0.44-0.25,0.79-0.15,1.01c1.64,3.59,0.19,6.75-1.13,10.03c-0.92,2.29-1.78,4.66-0.09,7.22
			c2.63,3.98,10.93,1.18,12.51-2.09c0.51-1.07,1.53-1.89,2.31-2.83C637.24,427.14,637.82,426.39,638.41,425.64z M637.09,184.94
			c-2.86,0.12-4.14,1.8-5.01,3.23c-2.93,4.87-4.27,10.33-3.21,15.93c0.81,4.28,3.15,5.97,7.14,3.03c0.83-0.61,1.53-1.41,2.34-2.05
			c1.18-0.92,0.86-1.67-0.08-2.47c-1.27,0.98-2.38,1.96-3.62,2.77c-1.73,1.13-2.59,0.8-2.99-1.23c-0.9-4.56-0.19-8.95,1.85-13.09
			C634.46,189.12,635.7,187.3,637.09,184.94z M636.78,235.47c-2.73,2.01-5.02,3.82-7.43,5.44c-1.96,1.32-3.76,0.31-3.79-2.03
			c-0.04-2.83,0.35-5.54,2-8.01c1.13-1.68,1.97-3.56,2.94-5.35c-0.18-0.2-0.37-0.4-0.55-0.6c-0.95,0.64-2.09,1.11-2.8,1.95
			c-1.04,1.23-1.66,2.79-2.64,4.08c-2.01,2.64-2.2,5.68-1.92,8.74c0.25,2.85,3.47,5.06,5.86,3.96
			C631.93,242.02,635.18,239.96,636.78,235.47z M856.93,287.56c-4.67-0.79-6.99,3.44-10.5,4.7c-0.55-2.53-1.14-4.87-1.53-7.23
			c-0.37-2.2-0.94-2.67-3.55-2.13c0.62,3.71,1.15,7.46,1.91,11.16c0.28,1.37,4.05,2.81,4.96,1.96c1.83-1.7,3.47-3.59,5.21-5.39
			c0.6-0.62,1.22-1.23,1.87-1.81C855.81,288.35,856.39,287.97,856.93,287.56z M634.97,331.94c-0.88,2.64-2.27,4.93-2.21,7.17
			c0.08,2.43,1.35,5.13,4.41,5.46c2.54,0.28,5.36,0.97,7.36-1.61c-0.67-0.19-1.29-0.14-1.87,0.06c-2.17,0.74-5.27,0.23-6.31-1.44
			c-1.11-1.78-1.42-3.7-0.06-5.75c1.37-2.08,2.42-4.37,3.49-6.64c0.26-0.56,0.03-1.36,0.02-2.05c-0.67,0.14-1.44,0.13-2,0.47
			c-1.07,0.65-2.02,1.51-3.02,2.28c-2.01,1.53-4.04,3.03-6.01,4.61c-0.27,0.22-0.22,0.84-0.32,1.27c0.19,0.17,0.39,0.34,0.58,0.51
			C630.87,334.94,632.72,333.59,634.97,331.94z M698,305.8c2.49,7.81-0.22,14.43-3.81,21.01c0.79-0.2,1.35-0.51,1.74-0.95
			c5.14-5.8,6.61-12.56,5.15-20.04c-0.32-1.63-1.43-2.41-2.97-1.7c-2.43,1.11-4.79,2.41-7.11,3.74c-1.03,0.59-1.92,1.43-3.23,2.44
			c0.9,0.22,1.33,0.47,1.56,0.35C692.11,309.12,694.87,307.55,698,305.8z M633.74,360.73c0.08-1.71,0.25-2.97,0.15-4.21
			c-0.04-0.51-0.68-0.97-1.04-1.46c-0.3,0.45-0.76,0.87-0.87,1.36c-0.19,0.79,0.03,1.69-0.24,2.43c-0.56,1.55-1.02,3.29-2.06,4.49
			c-1.7,1.97-1.85,2.02,0.18,2.79c-0.31,3.7-0.6,7.33-0.93,11.25c1.29-0.11,1.92-0.16,2.62-0.22c-0.17-0.64-0.43-1.12-0.4-1.59
			c0.12-2.44-0.04-4.97,0.58-7.28c0.65-2.47,1.34-5.15,4.4-6.23c1.56-0.55,2.94-1.75,4.26-2.83c0.6-0.49,0.87-1.39,1.29-2.1
			c-0.24-0.22-0.48-0.44-0.72-0.66C638.64,357.83,636.33,359.19,633.74,360.73z M698.87,345.26c-0.52,0.5-1.11,0.95-1.56,1.51
			c-2.16,2.75-4.8,4.71-8.35,5.14c-2.87,0.35-4.17-1.01-3.44-3.82c0.63-2.44,1.67-4.78,2.5-7.17c0.26-0.75,0.55-1.54,0.57-2.32
			c0.01-0.44-0.51-0.9-0.79-1.34c-0.43,0.32-1.04,0.54-1.25,0.96c-0.62,1.24-1.14,2.54-1.58,3.85c-0.76,2.27-1.54,4.55-2.1,6.88
			c-0.57,2.37,0.42,3.69,2.79,4.62C690.73,355.58,698.75,351.15,698.87,345.26z M738.42,449.45c1.02,0.69,2.02,1.41,3.07,2.06
			c0.82,0.5,1.66,1.01,2.56,1.32c0.33,0.11,1.07-0.25,1.24-0.59c0.18-0.34,0.06-1.16-0.22-1.36c-1.33-0.93-2.66-2.05-4.17-2.49
			c-2.02-0.58-3.21-1.6-3.66-3.59c5.07-2.37,5.07-2.37,5.26-3.63c-1.03,0.4-2.02,0.65-2.88,1.13c-2.16,1.22-3.24,0.87-3.97-1.42
			c-0.43-1.36-0.92-1.57-2.03-1.21c0.85,2.5,1.7,5.01,2.38,7c-1.76,1.26-3.27,1.98-4.26,3.15c-0.89,1.04-1.33,2.58,0.17,3.75
			c1.53,1.2,3.04,1.05,4.08-0.43C736.74,452.06,737.43,450.96,738.42,449.45z M505.4,442.18c0.37-0.02,0.74-0.04,1.11-0.06
			c0-13.22,0-26.44,0-39.67c-0.18-0.01-0.36-0.03-0.53-0.04c-0.21,1.86-0.43,3.71-0.64,5.57c-0.19-0.04-0.37-0.09-0.56-0.13
			c-0.1-0.62-0.2-1.25-0.38-2.36c0,2.68-0.03,4.84,0.01,7.01c0.1,6.56,0.22,13.12,0.35,19.67c0.02,1.06,0.11,2.11,0.18,3.17
			C505.09,437.62,505.25,439.9,505.4,442.18z M693.38,362.27c0.36,1.77,0.61,3.55,1.1,5.25c0.19,0.64,0.93,1.12,1.42,1.67
			c0.42-0.7,1.21-1.43,1.17-2.1c-0.11-1.77-0.62-3.52-0.9-5.28c-0.1-0.63-0.02-1.29-0.02-1.93c0.72,0.29,0.98,0.63,1.16,1
			c0.22,0.44,0.37,0.9,0.57,1.37c2.03-1.18,2.31-2.24,1.28-3.52c-0.84-1.04-1.68-2.2-2.08-3.44c-0.68-2.11-2.55-0.46-3.53-1.37
			c-0.3,0.74-0.92,1.51-0.85,2.21c0.24,2.15,0.84,4.29-1.56,5.69c-0.1,0.06-0.03,0.39-0.05,0.78
			C691.88,362.48,692.57,362.38,693.38,362.27z M555.14,396.51c0.12-0.64,0.28-1.12,0.29-1.6c0.05-3.42,0.16-6.78,2.6-9.61
			c0.32-0.37-0.47-1.71-0.75-2.6c-0.77,0.36-1.93,0.51-2.23,1.1c-1.85,3.64-2.42,7.6-2.5,11.65c-0.05,2.84,0.4,3.23,3.28,2.8
			c0.44-0.07,0.92-0.04,1.32-0.2c2.55-1,5.38-1.57,7.33-4.12C561.19,394.84,558.23,395.66,555.14,396.51z M641.79,258.87
			c-0.81,2.15-4.06,3.2-3.25,6.63c2.42-2.54,4.6-4.76,6.68-7.05c0.61-0.67,0.97-1.57,1.44-2.37c-0.95-0.15-2.02-0.64-2.83-0.38
			c-4.92,1.6-9.79,3.37-14.7,5.09C630.38,262.86,631.51,262.68,641.79,258.87z M528.08,421.89c-0.29-0.02-0.58-0.04-0.87-0.06
			c-0.16,0.69-0.44,1.37-0.47,2.06c-0.18,3.84-0.52,7.69-0.4,11.53c0.12,3.91,0.76,7.79,1.05,11.7c0.16,2.14,0.04,4.3,0.12,6.45
			c0.01,0.41,0.35,0.81,0.53,1.21c0.28-0.07,0.57-0.14,0.85-0.21C529.28,443.66,528.09,432.79,528.08,421.89z M471.86,279.67
			c0.25,4.62,0.58,9.09,0.69,13.56c0.05,2.07,1.26,2.38,2.62,1.81c3.62-1.53,6.3-4.23,8.49-7.4c-0.14-0.19-0.27-0.38-0.41-0.57
			c-2.64,1.92-5.27,3.85-7.91,5.77c-0.21-0.15-0.42-0.31-0.63-0.46c0-3.35-0.05-6.7,0.02-10.05
			C474.77,280.13,474.23,279.48,471.86,279.67z M563.37,269.63c0.33,0.51,0.51,1.1,0.9,1.34c2.79,1.75,5.59,0.78,8.1-0.48
			c2.08-1.05,3.42-2.96,3.31-5.62c-0.16-4-2.13-7.25-4.15-10.46c-0.37-0.59-1.72-0.57-2.77-0.88c1.5,2.96,2.98,5.32,3.93,7.87
			c1.66,4.49,0.29,7.51-3.83,8.47C567.3,270.24,565.54,269.76,563.37,269.63z M586.96,166.14c-1.77,0.82-2.68,1.51-2.85,3.51
			c-0.37,4.42,1.45,8.21,2.82,12.12c0.94,2.68,2.27,3.28,4.63,2.64C589.38,178.6,585.38,173.24,586.96,166.14z M858.98,245.79
			c1.85,1.33,3.56,0.49,5.14-0.12c4.21-1.61,8.38-3.32,12.52-5.1c1.15-0.5,2.13-1.39,3.18-2.1c-0.08-0.24-0.15-0.48-0.23-0.71
			c-0.68-0.1-1.47-0.47-2.03-0.26c-5.97,2.31-11.9,4.71-17.82,7.12C859.43,244.76,859.29,245.31,858.98,245.79z M794.05,426.66
			c-0.83-3.03-1.73-5.9-2.35-8.84c-0.24-1.14-0.5-2.07-1.68-1.6c-0.5,0.2-0.89,1.56-0.75,2.29c0.54,2.83,1.19,5.64,2.05,8.39
			c0.25,0.79,1.53,2.01,1.95,1.87c2.78-0.91,5.56-1.96,8.12-3.36c1.18-0.65,1.85-2.21,2.75-3.35c-0.22-0.25-0.45-0.5-0.67-0.76
			C801.02,424.21,798.05,426.13,794.05,426.66z M730.61,395.7c-0.12-1.72-0.2-2.59-0.23-3.47c-0.08-2.01-0.04-4.03-0.29-6.01
			c-0.07-0.58-0.96-1.06-1.48-1.59c-0.35,0.39-1,0.79-1.01,1.18c-0.04,2.9-0.22,5.83,0.17,8.68c0.43,3.15,1.73,3.86,4.14,2.29
			c1.74-1.13,3.43-2.34,5.02-3.68c0.46-0.39,0.45-1.32,0.74-2.3C735.24,392.49,733.21,393.9,730.61,395.7z M637.86,439.24
			c1.59-0.93,2.98-1.74,4.37-2.55c-0.07-0.2-0.13-0.4-0.2-0.6c-1.25,0.25-2.57,0.87-3.72,0.63c-1.04-0.21-1.89-1.35-2.86-2.11
			c-0.18,0.34-0.33,0.49-0.31,0.6c0.23,0.93,0.62,1.85,0.69,2.78c0.04,0.58-0.27,1.3-0.66,1.76c-0.66,0.77-1.71,1.26-2.24,2.09
			c-0.96,1.51-0.38,2.48,1.29,2.03c1.43-0.39,2.67-1.47,4.26-2.4c1.17,0.31,1.75,3.11,4.79,1.69
			C641.25,441.69,639.56,440.47,637.86,439.24z M584.67,289.67c-0.03-2.25-1.52-3.2-3.6-2.23c-2.21,1.03-4.02,2.53-5,4.81
			c-0.28,0.66-0.52,1.77-0.18,2.17c0.64,0.76,1.71,1.61,2.61,1.63C581.65,296.13,584.71,292.79,584.67,289.67z M624.91,400.91
			c0.07-0.24,0.15-0.49,0.22-0.73c-2.69,0.46-2.55-0.97-2.23-2.45c0.27-1.22,0.57-2.44,0.97-3.63c0.57-1.72,1.23-3.4,1.85-5.13
			c-1.62-0.67-2.43-0.62-2.66,1.05c-0.16,1.15-0.39,2.5-1.1,3.32c-2.15,2.48-1.76,5.29-1.74,8.18c0.01,1.49,0.67,1.84,1.62,1.47
			C622.97,402.56,623.9,401.63,624.91,400.91z M577.34,235.86c-3.3,2.66-3.03,2.99-1.5,6.13c0.42,0.86,0.87,1.71,1.34,2.55
			c0.68,1.22,0.76,2.2-0.76,2.91c-0.55,0.26-0.88,0.96-1.31,1.46c0.12,0.2,0.24,0.41,0.36,0.61c1.08-0.33,2.2-0.57,3.24-0.99
			c2.77-1.11,2.7-1.42,1.05-4.04c-0.95-1.5-2.22-3.03-1.53-5.23C578.49,238.39,577.73,237.23,577.34,235.86z M877.22,195.76
			c-0.17,0.12-0.34,0.24-0.5,0.36c0.48,2.67,0.96,5.34,1.45,8c0.48,2.56,0.89,5.14,1.52,7.66c0.16,0.64,1.05,1.1,1.6,1.65
			c0.23-0.16,0.47-0.32,0.7-0.48c-0.6-3.65-1.15-7.31-1.81-10.95c-0.25-1.39-0.6-2.8-1.16-4.09
			C878.66,197.08,877.83,196.47,877.22,195.76z M630.58,279.77c3.37,1.75,18.06-2.22,20.75-5.45
			C644.08,276.23,637.33,278,630.58,279.77z M860.09,464.26c0.09-0.23,0.19-0.47,0.28-0.7c-0.23-0.27-0.42-0.6-0.7-0.79
			c-3.98-2.72-7.94-5.45-11.98-8.07c-0.5-0.32-1.43,0.01-2.15,0.04c0.21,0.55,0.26,1.35,0.67,1.62c3.73,2.49,7.51,4.92,11.33,7.27
			C858.24,464.07,859.23,464.06,860.09,464.26z M565.36,275.87c-4.41-3.1-4.75-7.21-3.82-11.93c-0.87,0.54-1.75,1.16-1.94,1.95
			c-0.31,1.33-0.14,2.71-1.61,3.6c-0.29,0.18-0.15,1.59,0.19,2.22C559.6,274.35,561.38,276.58,565.36,275.87z M690.24,469.62
			c0.54,1.75,1.78,2.69,3.58,2.32c1.75-0.36,4.93-3.37,4.83-4.6c-0.02-0.27-0.17-0.57-0.35-0.78c-1.78-2.09-5.71-1.3-6.68,1.29
			C691.41,468.41,690.86,468.84,690.24,469.62z M647.12,221.28c1.38,4.58,2.71,8.98,4.04,13.38c0.65-0.8,1.1-1.7,1.05-2.57
			c-0.2-3.43-0.47-6.83-2.58-9.81C648.83,221.18,648.23,220.63,647.12,221.28z M808.44,426.7c0.58-0.88,0.94-1.17,0.95-1.47
			c0.15-4.3-1.31-8.17-3.34-11.86c-0.17-0.31-1.01-0.26-1.54-0.38c-0.06,0.51-0.3,1.07-0.17,1.52c0.88,3.06,1.82,6.1,2.79,9.13
			C807.41,424.52,807.85,425.35,808.44,426.7z M760.74,315.76c-0.61-1.76-0.47-3.25-2.52-3.17c-1.8,0.06-4.01,1.81-3.98,3.21
			c0.04,1.36,2.25,3.44,3.59,2.89C759,318.21,759.79,316.78,760.74,315.76z M745.71,381.03c-0.22,0.02-0.44,0.04-0.67,0.05
			c0,0.89-0.17,1.81,0.03,2.65c0.73,2.95,1.57,5.87,2.41,8.79c0.16,0.54,0.52,1.02,0.78,1.52c0.37-0.49,1.1-1,1.07-1.46
			C749.08,388.43,748.47,384.37,745.71,381.03z M575.49,380.54c0.49,6.39,1.96,12.23-0.39,18.32
			C578.78,396.68,579.15,383.55,575.49,380.54z M864.42,273.25c-0.11,0.17-0.21,0.33-0.32,0.5c1.25,3.55,2.45,7.11,3.8,10.62
			c0.21,0.56,1.12,0.85,1.71,1.26c0.17-0.51,0.59-1.1,0.46-1.51c-0.83-2.68-1.61-5.39-2.77-7.93
			C866.76,275.02,865.41,274.22,864.42,273.25z M543.35,207.87c-5.13,0.52-9.14-1.48-12.49-5.84c-0.1,3.18,0.69,4.96,2.81,5.81
			C536.76,209.07,539.95,210.78,543.35,207.87z M752.23,366c-0.96-0.62-1.78-1.18-2.63-1.67c-2.39-1.36-5.52-1.68-6.62-4.88
			c-0.11-0.31-1.14-0.29-1.74-0.43c-0.02,0.53-0.19,1.11-0.02,1.58c0.99,2.84,7.26,6.48,10.23,5.99
			C751.63,366.56,751.79,366.35,752.23,366z M530.09,417.05c0.27-0.03,0.53-0.06,0.8-0.09c1.25-7.33,2.08-9.96-1.8-13.48
			C529.43,408.14,529.76,412.59,530.09,417.05z M792.51,438.33c-0.29-0.02-0.58-0.05-0.87-0.07c-0.32,0.87-0.89,1.73-0.92,2.62
			c-0.08,2.35-0.02,4.72,0.16,7.07c0.2,2.58,0.31,2.59,2.33,1.22C791.81,445.65,794.07,441.78,792.51,438.33z M760.51,298.74
			c-3.21,3.34-3.33,3.34-7.82,1.3c-0.51-0.23-1.22-0.05-1.83-0.06c0.18,0.59,0.17,1.48,0.56,1.71c1.45,0.85,2.96,1.85,4.56,2.11
			C758.71,304.25,761.41,301.01,760.51,298.74z M803.87,351.11c0.07,0.36,0.15,0.72,0.22,1.07c0.89-0.07,1.89,0.11,2.64-0.24
			c2.08-0.98,4.08-2.14,6.06-3.32c0.45-0.27,0.68-0.92,1.02-1.39c-0.62-0.23-1.43-0.83-1.83-0.62
			C809.24,348.01,806.57,349.59,803.87,351.11z M638.41,369.58c1.96,3.43,5.85,5.1,8.69,4.1c1.45-0.51,2.79-2.41,2.72-4.41
			C646.02,374.56,642.24,370.77,638.41,369.58z M689.53,291.63c0.97,5.81,1.4,6.74,3.95,8.72c0.76-2.92-0.03-5.48-1.22-7.89
			C692.01,291.95,690.7,291.96,689.53,291.63z M530.73,192.68c1.13,1.95,7.78,2.16,10.18,0.32
			C539.65,191.61,532.95,191.4,530.73,192.68z M714.16,220.25c0.27-0.28,0.54-0.56,0.81-0.83c-1.83-2.26-3.64-4.53-5.52-6.75
			c-0.19-0.23-0.76-0.15-1.15-0.21c-0.03,0.41-0.24,0.91-0.07,1.21c0.87,1.54,1.69,3.16,2.83,4.5
			C711.84,219.08,713.11,219.57,714.16,220.25z M645.78,363.04c0.11-0.21,0.21-0.42,0.32-0.63c-0.59-0.17-1.28-0.63-1.76-0.47
			c-2.03,0.65-4.04,1.4-5.98,2.29c-0.56,0.26-0.86,1.09-1.28,1.66c0.79,0.07,1.69,0.42,2.35,0.16
			C641.59,365.16,643.66,364.06,645.78,363.04z M640.15,397.03c-0.86-2.14-1.64-4.25-2.56-6.29c-0.17-0.36-0.91-0.47-1.38-0.69
			c-0.06,0.46-0.27,0.96-0.16,1.38c0.55,2.07,1.13,4.14,1.81,6.17c0.15,0.45,0.74,0.75,1.12,1.12
			C639.3,398.24,639.63,397.77,640.15,397.03z M749.81,295.12c0.07,0.23,0.14,0.47,0.21,0.7c1.01-0.15,2.06-0.19,3.04-0.46
			c1.42-0.41,2.82-0.9,4.15-1.53c0.57-0.27,0.93-0.97,1.38-1.48c-0.76-0.24-1.63-0.84-2.27-0.65c-1.69,0.5-3.31,1.28-4.9,2.07
			C750.82,294.06,750.35,294.65,749.81,295.12z M579.24,367.09c-3.18,3.95-5.35-1.27-8.15-0.88c0.66,2.35,3.5,4.59,5.44,4.37
			C578.42,370.37,579.24,369.14,579.24,367.09z M504.83,182.84c0.27-0.5,0.48-0.71,0.44-0.86c-0.65-2.72-1.28-5.45-2.07-8.13
			c-0.12-0.41-1-0.59-1.9-1.07C501.67,176.74,502.03,180.06,504.83,182.84z M586.3,354.42c2.72-2.45,0.78-4.89,0.12-7.25
			c-0.29-1.04-0.64-2.37-2.45-1.96C584.74,348.29,585.49,351.24,586.3,354.42z M583.85,276.92c0.61-0.47,1.32-0.77,1.31-1.04
			c-0.1-2.27-0.3-4.54-0.59-6.8c-0.03-0.21-0.94-0.54-1.27-0.4c-0.33,0.14-0.69,0.82-0.63,1.21
			C582.97,272.09,583.39,274.27,583.85,276.92z M804.44,358.35c2.86,2.61,9.95,2.16,10.63,0
			C811.74,358.35,808.4,358.35,804.44,358.35z M588.06,299.48c-0.18,0.12-0.36,0.24-0.54,0.36c1.3,2.64,2.6,5.28,4.06,8.24
			c0.41-0.41,1.31-1.06,1.22-1.26C591.62,304.12,590.88,301.07,588.06,299.48z M647.72,329.88c-0.46-2.23-0.87-4.26-1.3-6.36
			c-2.5,0.63-1.92,2.41-1.97,3.97C644.38,329.78,645.93,329.82,647.72,329.88z M635.67,417.64c0.2-0.15,0.41-0.3,0.61-0.45
			c-1.39-1.85-2.78-3.7-4.24-5.65c-0.6,0-1.38,0-2.87,0C631.11,414.34,633.2,416.19,635.67,417.64z M573.47,407
			c0.83,3.3-0.04,6.36,2,8.96C577.01,413.81,576.14,409.28,573.47,407z M590.55,246.49c2.42-0.1,2.47-0.11,2.16-3.59
			c-0.11-1.27-0.43-2.6-2.5-1.92C590.32,242.86,590.44,244.68,590.55,246.49z M595.37,244.83c1.77-1,2.99-4.92,2.12-6.15
			c-0.27-0.39-0.98-0.58-1.5-0.61c-0.18-0.01-0.57,0.73-0.59,1.13C595.33,240.97,595.37,242.75,595.37,244.83z M578.09,359.73
			c0.11-0.23,0.21-0.46,0.32-0.7c-0.65-0.4-1.29-1.13-1.95-1.14c-1.07-0.02-2.19,0.33-3.21,0.73c-0.49,0.19-0.81,0.85-1.2,1.3
			c0.6,0.3,1.24,0.92,1.78,0.85C575.27,360.58,576.67,360.1,578.09,359.73z M583.29,352.11c-0.24-1.64-0.43-3.23-0.76-4.8
			c-0.08-0.37-0.6-0.74-1-0.92c-0.16-0.07-0.66,0.27-0.81,0.54C579.72,348.69,581.06,351.5,583.29,352.11z M536.37,227.91
			c2.51-0.64,2.04-3.06,3.03-4.52c-0.5-0.23-1.12-0.78-1.49-0.65C536.65,223.21,535.78,226.14,536.37,227.91z M644.67,349.51
			c1.73,2.05,3.08,3.64,4.43,5.23C649.64,351.8,647.71,349.49,644.67,349.51z M651.1,321.44c-0.25,0.03-0.5,0.05-0.74,0.08
			c-1.4,2.53-0.81,5.01,1.86,6.47C651.81,325.62,651.46,323.53,651.1,321.44z M566.44,410.09c1.21,2.29,1.84,3.46,2.46,4.63
			c0.43-0.37,1.3-0.91,1.23-1.09c-0.52-1.34-1.16-2.65-1.93-3.86C568.08,409.59,567.11,409.96,566.44,410.09z M645.36,355.6
			c-1.44-4.37-1.44-4.37-2.83-4.9C642.67,355.99,642.76,356.16,645.36,355.6z M638.84,414.48c0.24-0.12,0.49-0.25,0.73-0.37
			c-0.46-3.85-1.34-5.34-3.59-5.49C636.99,410.67,637.91,412.58,638.84,414.48z M701.85,376.88c-0.22,0.05-0.43,0.11-0.65,0.16
			c-0.56,2.42,0.14,4.4,1.96,6.01c0.23-0.08,0.45-0.15,0.68-0.23C703.18,380.84,702.51,378.86,701.85,376.88z M697.32,379.34
			c-0.28,0.19-0.56,0.37-0.84,0.56c0.88,1.15,1.77,2.3,2.65,3.46c0.23-0.17,0.47-0.34,0.7-0.51
			C700.1,380.94,698.68,380.17,697.32,379.34z"/>
		<path d="M843.48,177.06c-0.42,1.84-0.88,3.67-1.26,5.52c-1.65,8.21-3.37,16.41-4.89,24.64c-1.15,6.25-2.33,12.51-2.98,18.82
			c-0.73,7.12-0.87,14.31-1.28,21.47c-0.47,7.98-0.94,15.96-1.44,23.94c-0.49,7.77-1.06,15.54-1.56,23.32
			c-0.44,6.94-0.86,13.88-1.25,20.82c-0.38,6.8-0.67,13.61-1.08,20.41c-0.54,9.03-1.23,18.04-1.73,27.07
			c-0.34,6.32-0.33,12.66-0.73,18.98c-0.24,3.88-0.95,7.74-1.45,11.6c-0.02,0.14-0.11,0.28-0.12,0.43
			c-0.15,3.37-0.24,6.74-0.44,10.11c-0.43,7.3-0.98,14.6-1.33,21.91c-0.26,5.36-0.2,10.73-0.41,16.09
			c-0.23,5.78-0.67,11.56-0.88,17.34c-0.28,7.72-0.48,15.44-0.59,23.16c-0.1,6.62-0.02,13.23-0.02,19.94
			c-1.17,0-2.05,0.21-2.73-0.07c-0.51-0.2-1.12-1.03-1.11-1.57c0.08-6.56,0.26-13.12,0.43-19.67c0.14-5.59,0.24-11.18,0.46-16.77
			c0.24-6.1,0.63-12.19,0.87-18.29c0.43-11.11,0.57-22.23,1.27-33.32c0.68-10.74,2.12-21.42,2.87-32.16
			c0.67-9.63,0.77-19.29,1.27-28.93c0.43-8.44,1.12-16.86,1.59-25.29c0.41-7.32,0.49-14.66,1.05-21.97
			c0.85-11.11,2.07-22.18,2.98-33.28c0.6-7.3,0.86-14.63,1.37-21.94c0.48-6.94,0.91-13.89,1.7-20.8c0.89-7.85,1.93-15.69,3.34-23.46
			c1.23-6.8,3.06-13.5,4.64-20.24c0.53-2.25,1.09-4.5,1.71-6.73c0.14-0.51,0.56-0.94,0.86-1.41
			C842.9,176.83,843.19,176.94,843.48,177.06z"/>
		<path d="M708.04,471.31c-3.12-0.74-3.2-0.97-2.99-4.57c0.29-4.99,0.48-9.98,0.73-14.97c0.34-6.85,0.63-13.71,1.09-20.56
			c0.27-3.99,1.07-7.96,1.22-11.96c0.26-7.07,0.22-14.15,0.27-21.23c0.05-6.34,0.05-12.69,0.07-19.03c0.01-2.36,0.05-4.71,0.02-7.07
			c-0.06-4.7-0.24-9.39-0.2-14.08c0.02-1.77,0.65-3.52,0.77-5.29c0.17-2.74,0.06-5.5,0.21-8.24c0.58-10.37,1.11-20.74,1.88-31.1
			c0.59-7.82,1.33-15.64,2.37-23.41c0.9-6.73,2.34-13.38,3.51-20.07c0.79-4.55,1.51-9.1,2.25-13.66c0.63-3.83,1.25-7.65,1.87-11.48
			c0.86-5.36,1.69-10.73,2.6-16.09c0.29-1.68,0.93-3.3,1.18-4.98c0.72-5.05,1.77-10.11,1.88-15.18c0.22-10.1,0.13-20.2,2.02-30.19
			c0.36-1.89,0.3-3.86,0.52-5.79c0.05-0.42,0.44-0.8,0.67-1.19c0.4,0.28,1.07,0.5,1.14,0.84c0.2,0.93,0.25,1.92,0.18,2.88
			c-0.5,7.46-1.16,14.92-1.51,22.39c-0.17,3.65,0.5,7.34,0.24,10.98c-0.39,5.57-1.11,11.13-1.95,16.66
			c-0.99,6.54-2.23,13.04-3.4,19.56c-0.64,3.59-1.38,7.17-2.03,10.76c-0.72,3.95-1.45,7.9-2.05,11.87
			c-1.19,7.9-2.38,15.8-3.38,23.73c-0.58,4.58-0.74,9.21-1.17,13.82c-0.17,1.77-0.67,3.52-0.83,5.29c-0.68,7.2-1.44,14.4-1.88,21.62
			c-0.71,11.78-0.86,23.61-1.92,35.35c-0.45,5-0.36,9.9-0.34,14.86c0.02,4.97-0.29,9.94-0.33,14.92c-0.01,1.51,0.65,3.04,0.59,4.55
			c-0.22,5.12-0.71,10.22-0.91,15.34c-0.09,2.22,0.5,4.47,0.39,6.68c-0.14,2.87-0.75,5.72-0.97,8.6c-0.16,2.11,0.08,4.25-0.04,6.36
			c-0.28,4.83-0.69,9.66-1,14.49c-0.08,1.19,0.12,2.39,0.06,3.57C708.61,461.23,708.32,466.18,708.04,471.31z"/>
		<path d="M789.86,174.75c-1.02,4.35-2.28,8.52-2.94,12.79c-0.88,5.76-1.07,11.63-1.97,17.39c-1.24,7.96-3.09,15.84-4.24,23.81
			c-1.06,7.32-1.48,14.72-2.3,22.07c-0.76,6.8-1.61,13.6-2.57,20.38c-0.81,5.75-1.78,11.48-2.79,17.2
			c-0.94,5.34-2.11,10.64-3.04,15.98c-0.78,4.55-1.38,9.13-2.01,13.7c-0.53,3.84-1.04,7.68-1.48,11.52
			c-0.8,7.02-1.59,14.03-2.28,21.06c-0.43,4.37-0.62,8.77-0.99,13.14c-0.3,3.51-0.26,7.12-1.15,10.48
			c-1.63,6.11-0.78,12.43-2.07,18.56c-0.58,2.77-0.22,5.73-0.28,8.61c-0.01,0.52,0.08,1.06-0.03,1.56
			c-1.51,6.88-0.92,13.9-1.28,20.85c-0.39,7.5-0.45,15.01-0.63,22.52c-0.19,7.81-0.71,15.63-0.43,23.43
			c0.23,6.51-0.43,12.86-1.4,19.23c-0.12,0.79-0.45,1.59-0.86,2.28c-0.29,0.48-0.88,0.78-1.33,1.16c-0.25-0.62-0.74-1.25-0.7-1.84
			c0.26-3.42,0.74-6.82,0.96-10.24c0.33-5.21,0.56-10.43,0.72-15.64c0.25-8.47,0.37-16.95,0.61-25.43
			c0.2-6.99,0.39-13.99,0.74-20.98c0.33-6.47,0.86-12.93,1.32-19.4c0.49-6.89,0.9-13.79,1.51-20.67c0.4-4.49,1.16-8.94,1.63-13.43
			c0.35-3.25,0.5-6.53,0.73-9.79c0.45-6.49,0.7-13,1.4-19.46c0.79-7.24,1.91-14.45,3.04-21.65c0.85-5.42,2.03-10.8,2.93-16.21
			c1.07-6.44,1.96-12.91,2.99-19.35c0.78-4.91,1.86-9.77,2.45-14.7c0.71-5.91,1.27-11.86,1.49-17.8c0.3-8.01,1.63-15.85,3.07-23.7
			c1.61-8.79,3.26-17.57,4.83-26.37c0.81-4.55,1.4-9.14,2.27-13.67c0.55-2.84,1.4-5.63,2.19-8.42c0.1-0.35,0.7-0.57,1.07-0.85
			C789.3,173.48,789.57,174.1,789.86,174.75z"/>
		<path d="M492.29,437.91c-1.6,0.13-1.85-1.36-1.84-2.76c0.03-3.52,0.2-7.03,0.34-10.54c0.34-8.67,0.7-17.34,1.04-26.01
			c0.08-2.17,0.07-4.34,0.14-6.51c0.29-9.12,0.61-18.24,0.89-27.36c0.17-5.54,0.18-11.08,0.47-16.61c0.38-7.31,1.01-14.6,1.43-21.91
			c0.06-0.96-0.39-1.98-0.74-2.91c-0.33-0.88-0.85-1.68-1.5-2.94c3.19,0.73,3.03-0.92,2.87-2.85c-0.22-2.6-0.14-5.22-0.31-7.83
			c-0.09-1.48-0.45-2.94-0.63-4.42c-0.08-0.64-0.26-1.51,0.07-1.91c3.11-3.89,2.63-8.14,1.43-12.47c-1.06-3.81-2.45-7.47-5.14-10.51
			c1.51-0.67,2.3-0.14,3.82,2.74c0.85,1.6,1.56,3.26,2.69,4.84c0.11-1.67,0.38-3.34,0.31-5c-0.31-7.99,0.19-15.92,1-23.87
			c0.49-4.74,0.19-9.56,0.65-14.31c0.54-5.56,1.77-11.06,2.24-16.62c0.65-7.81,0.88-15.65,1.3-23.87c-1.5,0.48-2.36,0.76-3.78,1.21
			c0.8-1.24,1.24-2.07,1.82-2.8c1.82-2.3,1.92-4.99,1.66-7.68c-0.06-0.59-1.29-1.52-1.98-1.51c-4.38,0.06-7.99,2.21-11.3,4.82
			c-0.6,0.47-0.64,1.74-0.78,2.67c-0.41,2.7-0.73,5.42-1.1,8.21c-4.18-0.36-6.39-2.81-8.21-5.71c-0.79-1.25-0.14-2.21,1.02-2.98
			c2.06-1.39,4.06-2.88,6.09-4.32c-0.09-0.2-0.18-0.41-0.27-0.61c-2.26,0.15-4.54,0.53-6.78,0.37c-2.26-0.16-4.27-1.18-5.36-3.64
			c3.28-0.75,6.41-1.56,9.58-2.15c2.38-0.44,3.48-1.49,3.24-4.08c-0.24-2.49-0.05-5.03-0.05-7.98c3.97,2.4,1.44,6.6,2.91,9.72
			c2.98-1.01,5.91-2.01,8.82-3c1.28,1.54,0.86,2.35-0.75,2.91c-1.97,0.69-3.88,1.55-5.85,2.24c-1.99,0.69-3.24,1.77-2.54,4.45
			c1.15-0.42,2.35-0.72,3.42-1.26c3.39-1.71,6.86-2.44,10.93-1.05c0.55-2.47,1.09-4.89,1.62-7.3c0.25-0.02,0.5-0.04,0.75-0.06
			c0.08,0.62,0.29,1.25,0.22,1.85c-0.43,3.72-1.12,7.41-1.34,11.14c-0.25,4.17,0.01,8.36-0.13,12.53
			c-0.21,6.57-0.27,13.16-0.93,19.69c-0.88,8.7-2.08,17.34-2.24,26.14c-0.24,13.31-1.14,26.61-1.8,39.91
			c-0.19,3.88-0.49,7.75-0.85,11.62c-0.5,5.46-1.16,10.91-1.58,16.38c-0.09,1.15,0.51,2.41,1,3.52c0.43,0.95,1.16,1.77,1.76,2.64
			c-0.14,0.12-0.28,0.24-0.42,0.36c-0.71-0.83-1.42-1.67-2.62-3.08c-0.62,9.74-1.27,18.85-1.76,27.97
			c-0.5,9.12-0.95,18.25-1.22,27.38c-0.27,9.21-0.48,18.42-0.37,27.63C493.71,419.49,491.33,428.47,492.29,437.91z M484.8,207.23
			c0.3-0.14,0.6-0.28,0.9-0.42c-0.11-1.87-0.22-3.74-0.33-5.62c-0.24-0.09-0.49-0.17-0.73-0.26c-1.03,1.09-2.07,2.19-3.1,3.28
			C482.63,205.22,483.72,206.23,484.8,207.23z"/>
		<path d="M595.35,332.93c3.46,5.7,6.58,10.84,9.7,15.98c0.28-0.09,0.57-0.17,0.85-0.26c-0.32-1.42-0.32-3.02-1.01-4.21
			c-1.96-3.38-4.42-6.48-6.27-9.92c-0.89-1.66-1.16-3.8-1.19-5.74c-0.08-5.62-0.02-11.25,0.24-16.86c0.22-4.61,0.8-9.2,1.23-13.8
			c0.12-1.33,0.22-2.66,0.37-3.98c0.4-3.47,0.83-6.94,1.24-10.41c0.43-3.68,0.8-7.37,1.3-11.04c0.45-3.28,1.12-6.54,1.55-9.82
			c0.81-6.1,1.65-12.2,2.23-18.32c0.72-7.54,1.23-15.1,1.74-22.65c0.5-7.35,0.73-14.73,1.38-22.06c0.47-5.27,1.33-10.5,2.22-15.72
			c0.54-3.15,1.44-6.24,2.28-9.34c0.14-0.51,0.78-0.89,1.18-1.33c0.28,0.57,0.87,1.21,0.77,1.71c-0.51,2.56-1.45,5.05-1.78,7.63
			c-0.81,6.29-1.43,12.61-1.99,18.93c-0.57,6.39-1.03,12.8-1.42,19.2c-0.47,7.54-0.74,15.09-1.26,22.63
			c-0.23,3.34-0.86,6.65-1.3,9.98c-0.26,1.98-0.44,3.97-0.75,5.93c-1.44,8.96-3,17.9-4.35,26.87c-0.44,2.95-0.29,5.97-0.54,8.95
			c-0.36,4.37-0.94,8.73-1.21,13.11c-0.21,3.33-0.07,6.68-0.1,10.03c-0.05,4.7-0.03,9.41-0.21,14.11c-0.07,1.94,0.74,3.39,1.69,4.92
			c1.86,3,3.46,6.16,5.41,9.09c2.11,3.16,0.76,6.39,0.54,9.59c-0.27,3.93-0.78,7.85-1.19,11.77c-0.35,3.36-0.7,6.71-1.05,10.09
			c-0.85-0.13-1.43-0.21-2.01-0.3c0.08,0.61,0.02,1.3,0.28,1.83c1.48,3.1,3.28,6.07,4.46,9.27c0.62,1.67,0.82,3.99,0.15,5.56
			c-1.98,4.63-2.05,9.49-2.6,14.31c-0.23,1.99-0.53,3.98-0.62,5.99c-0.18,4.17-0.44,8.36-0.31,12.53
			c0.17,5.39,0.68,10.78,1.04,16.09c-2.3-0.53-2.77-3.02-3.35-5.08c-0.64-2.27-0.69-4.72-0.88-7.11c-0.67-8.6-0.08-17.15,1.25-25.65
			c0.75-4.78,1.92-9.5,2.94-14.23c0.77-3.54-1.37-6.14-2.77-8.99c-0.69-1.39-1.48-2.79-1.81-4.27c-0.38-1.66,0.2-2.09,2.01-2.34
			c0.29-0.04,0.79-0.56,0.76-0.63c-0.26-0.5-0.63-0.95-1.06-1.54c0.56-6.55,1.21-13.36,1.67-20.19c0.08-1.13-0.51-2.42-1.08-3.47
			c-2.53-4.58-5.2-9.09-7.73-13.67C595.6,335.38,595.64,334.42,595.35,332.93z"/>
		<path d="M652.55,447.39c-0.28-3.4-0.56-6.8-0.85-10.2c-0.48-5.74-1.04-11.47-1.4-17.21c-0.14-2.29,0.16-4.6,0.24-6.91
			c0.03-0.96,0-1.93,0.02-2.89c0.15-7.11,0.25-14.22,0.46-21.33c0.17-5.6,0.08-11.25,0.84-16.77c0.94-6.8-0.3-13.54,0.25-20.28
			c0.37-4.59,1.1-9.14,1.56-13.73c0.37-3.63,0.56-7.27,0.87-10.91c0.53-6.32,1.12-12.64,1.6-18.97c0.65-8.5,1.12-17.01,1.89-25.5
			c0.4-4.45,1.12-8.89,1.96-13.28c1.8-9.42,4.3-18.74,5.53-28.22c1.9-14.52,4.67-28.94,4.72-43.69c0.02-5.24,1.48-10.48,2.36-15.71
			c0.12-0.71,0.71-1.34,1.08-2.01c0.23,0.09,0.46,0.18,0.68,0.27c-0.13,1.38-0.25,2.76-0.39,4.14c-0.65,6.54-1.32,13.07-1.95,19.61
			c-0.53,5.59-0.84,11.2-1.55,16.77c-1.16,9.12-2.42,18.23-3.89,27.31c-0.96,5.9-2.56,11.69-3.51,17.59
			c-1.12,6.92-1.96,13.9-2.71,20.88c-0.58,5.35-0.87,10.74-1.24,16.11c-0.32,4.78-0.53,9.57-0.86,14.36
			c-0.52,7.47-1.11,14.93-1.68,22.4c-0.54,6.99-1.23,13.97-1.59,20.97c-0.32,6.27-0.15,12.57-0.43,18.84
			c-0.3,6.79-1.16,13.56-1.25,20.35c-0.14,10.33,0.09,20.66,0.35,30.99c0.11,4.23,0.81,8.44,0.99,12.67c0.06,1.49-0.62,3-0.97,4.51
			C653.3,447.49,652.92,447.44,652.55,447.39z"/>
		<path d="M529.66,398.7c-0.11-2.13-0.42-4.26-0.3-6.38c0.27-4.81,0.8-9.6,1.14-14.4c0.54-7.56,1.02-15.13,1.5-22.7
			c0.28-4.42,0.44-8.85,0.77-13.27c0.48-6.51,1.23-13.01,1.55-19.53c0.29-5.86,0.02-11.74,0.26-17.6c0.11-2.7,1.03-5.36,1.24-8.06
			c0.27-3.52,0.18-7.06,0.3-10.59c0.03-0.98,0.3-1.95,0.44-2.92c0.95-7.09,1.76-14.21,2.9-21.27c0.76-4.69,2.11-9.28,2.98-13.95
			c1.12-6.05,2.21-12.13,2.96-18.23c0.63-5.13,0.54-10.35,1.18-15.48c0.7-5.65,1.61-11.3,2.89-16.85
			c1.23-5.32,2.96-10.53,4.65-15.73c0.66-2.03,1.79-3.92,2.8-5.82c0.17-0.31,0.83-0.37,1.26-0.54c0.09,0.46,0.39,1,0.25,1.36
			c-0.86,2.23-2.05,4.35-2.7,6.63c-1.69,5.92-3.62,11.83-4.61,17.89c-1.5,9.14-2.17,18.4-3.41,27.58c-1,7.38-2.28,14.71-3.51,22.06
			c-1.19,7.12-2.71,14.19-3.63,21.34c-1.08,8.35-1.73,16.77-2.45,25.16c-0.85,9.98-1.71,19.97-2.32,29.97
			c-0.44,7.08-0.43,14.2-0.71,21.29c-0.22,5.45-0.5,10.9-0.92,16.34c-0.37,4.84-0.94,9.66-1.5,14.48c-0.37,3.21-0.96,6.39-1.28,9.61
			c-0.15,1.5,0.26,3.05,0.13,4.56c-0.15,1.69-0.63,3.34-0.97,5.01C530.25,398.67,529.95,398.68,529.66,398.7z"/>
		<path d="M753.08,189.68c0.16,2.46,0.34,4.98,0.47,7.51c0.06,1.16,0.64,1.52,1.61,1c2.48-1.33,5.05-2.55,7.32-4.18
			c1.09-0.78,1.73-0.68,2.48,0c0.98,0.89,0.43,1.6-0.48,2.11c-2.41,1.33-4.76,2.79-7.28,3.88c-2.13,0.92-3.44,1.94-3.25,4.57
			c0.24,3.33,0.06,6.7,0.06,10.14c4.68,2.06,10.17,2.26,15.32,3.63c-0.1,0.42-0.2,0.85-0.3,1.27c-5.27,0.71-10.19-1.56-14.6-2.29
			c-1.53,3.17-2.8,6.02-4.3,8.75c-0.54,0.99-1.52,1.9-2.52,2.45c-1.1,0.59-2.24,0.7-3.14-0.88c-1.35-2.37-1.56-4.9-1.64-7.47
			c-0.06-2,2.57-4.54,5.24-4.85c1.97-0.23,2.63-0.92,2.5-2.95c-0.13-2.14,0.34-4.3,0.42-6.46c0.03-0.73-0.31-1.47-0.48-2.19
			c-1.67,0.67-3.02,1.22-4.37,1.76c-0.21-0.31-0.42-0.62-0.63-0.93c0.96-0.86,1.78-2.09,2.9-2.5c2.06-0.75,2.73-1.78,2.37-3.99
			c-0.41-2.57-0.36-5.21-0.53-8.18c-1.1,0.1-2.21,0.4-3.23,0.23c-0.78-0.13-1.47-0.86-2.2-1.32c0.76-0.53,1.46-1.27,2.31-1.53
			c0.69-0.21,1.56,0.17,2.99,0.37c-0.54-2.46-0.99-4.5-1.46-6.61c1.73-0.57,2.56,0.49,3.07,1.92c0.25,0.69,0.35,1.47,0.35,2.2
			c0.01,1.52,0.71,2.03,2.14,1.68c2.45-0.58,4.89-1.22,7.37-1.69c0.66-0.12,1.42,0.31,2.13,0.49c-0.51,0.54-0.94,1.38-1.56,1.57
			C759.19,188.12,756.16,188.86,753.08,189.68z M749.85,217.7c-4.58,0.75-5.78,3.7-3.46,7.77
			C749.28,223.67,749.43,220.7,749.85,217.7z"/>
		<path d="M818.16,257.89c2.26-2.37,3.79-4.97,4.37-8.19c0.99-5.45,0.05-7.33-5.38-8.41c-3.24-0.65-6.63-0.55-9.96-0.7
			c-0.59-0.03-1.21,0.33-1.93,0.55c2.15,4.33,3.05,8.66,2.76,13.23c-0.18,2.97-1.73,4.8-4.64,5.46c-4.59,1.05-8.15-0.68-10.76-4.29
			c-2.31-3.2-1.4-6.74,0.36-9.76c1.17-2.01,3.08-3.81,5.05-5.1c5.35-3.5,11.33-2.91,17.36-2.26c4.1,0.44,7.1,2.13,9.03,5.69
			c1.3,2.4,0.33,8.86-1.43,11C821.74,256.63,820.32,257.79,818.16,257.89z M799.72,258.13c3.02-0.02,4.87-1.79,5.48-4.67
			c0.75-3.54-0.36-6.74-1.19-10.05c-0.39-1.56-1.11-1.63-2.43-1.29c-3.21,0.82-5.56,2.89-6.93,5.64
			C791.97,253.14,794.76,257.55,799.72,258.13z"/>
		<path d="M571.85,305.07c-0.18-0.9-0.28-1.44-0.41-2.07c0.35,0.05,0.63,0,0.75,0.12c2.82,2.89,5.79,1.06,8.79,0.43
			c1.13-0.24,2.4,0.19,3.6,0.31c-0.95,0.53-1.85,1.23-2.87,1.55c-2.09,0.66-4.27,1.03-6.36,1.7c-0.6,0.19-1.33,0.94-1.44,1.53
			c-0.37,2.08-0.64,4.2-0.62,6.3c0.01,0.47,1.37,1.33,2.09,1.32c2.75-0.05,5.15,0.48,7.09,2.63c1.79,1.99,1.72,5.34-0.36,7
			c-0.34,0.27-0.91,0.25-1.37,0.37c-0.09-0.4-0.27-0.8-0.25-1.2c0.02-0.44,0.16-0.9,0.37-1.29c1.86-3.45-0.73-5.17-3.48-5.04
			c-4.98,0.23-4.62-0.91-5.1,4.58c-0.13,1.53-0.45,3.06-0.88,4.53c-0.53,1.81-3.18,2.52-4.59,1.33c-1.6-1.34-3.21-2.68-4.79-4.04
			c-1.34-1.16-1.48-4.21-0.14-4.95c1.29-0.71,2.71-1.21,4.11-1.71c1.16-0.42,2.49-0.51,3.53-1.11c0.64-0.38,1.14-1.4,1.26-2.2
			c0.26-1.77,0.26-3.58,0.34-5.37c0.06-1.32-0.05-2.2-1.9-1.53c-0.98,0.35-2.31-0.1-3.41-0.42c-0.41-0.12-0.91-0.96-0.84-1.38
			c0.07-0.4,0.8-0.91,1.3-0.97C568.02,305.26,569.8,305.21,571.85,305.07z M563.52,323.13c1.1,0.83,2.23,1.65,3.32,2.51
			c1.35,1.07,1.94,0.65,2.14-0.94c0.2-1.66,0.49-3.3,0.75-4.97C565.74,320.39,564.38,321.12,563.52,323.13z"/>
		<path d="M699.05,264.72c4.44-1.21,5.98-4.63,7.44-8.09c0.23-0.54,0.38-1.14,0.41-1.72c0.36-5.55-2.44-7.1-7.44-5.52
			c-1.92,0.6-3.54,2.13-5.36,3.1c-0.87,0.46-1.91,0.72-2.88,0.78c-0.28,0.02-1-1.07-0.88-1.47c0.83-2.94,1.83-5.83,2.8-8.82
			c-2.22-0.3-4.63,0.99-5.27-2.31c1.93-0.93,4.99,0.26,5.96-2.43c0.74-2.05,0.92-4.3,1.35-6.49c2.13-0.01,2.72,0.6,2.41,2.68
			c-0.13,0.88-0.29,1.77-0.39,2.65c-0.02,0.2,0.14,0.41,0.34,0.94c2.83-1.3,5.71-2.43,8.38-3.93c2.18-1.22,3.23-0.94,3.61,1.91
			c-3.69,1.55-7.49,3.13-11.28,4.73c-1.7,0.71-2.3,2.24-2.72,3.85c-0.36,1.36-0.6,2.75-0.99,4.56c1.67-0.72,3.16-1.37,4.66-2
			c2.75-1.14,5.47-1.53,7.96,0.63c2.12,1.84,3.32,6.46,1.88,8.86c-1.72,2.86-3.82,5.51-5.99,8.06
			C701.8,266.14,700.81,266.04,699.05,264.72z"/>
		<path d="M654.86,307.45c-0.11,2.89-3.06,6.45-5.39,6.94c-1.54,0.32-2.27-0.57-2.74-1.73c-0.53-1.31-0.99-2.67-1.28-4.05
			c-0.29-1.37-0.34-2.8-0.55-4.7c-1.54,1.24-2.87,2.32-4.21,3.39c-0.87,0.69-1.74,1.39-2.64,2.04c-4.02,2.92-4.32,3.72-3.19,8.7
			c0.06,0.28,0.09,0.57,0.14,0.82c-2.44,1.43-3.34,0.97-3.37-1.66c-0.01-1.17,0-2.33,0-3.87c-1.22,0.58-1.96,1.09-2.78,1.26
			c-0.75,0.16-1.57-0.06-2.94-0.14c0.97-1.21,1.61-2.01,2.38-2.96c-1.09,0-2.01,0-2.93,0c-0.1-0.21-0.19-0.42-0.29-0.63
			c1.47-1.11,2.92-2.27,4.43-3.32c1.33-0.93,1.96-1.95,1.81-3.73c-0.18-2.06,0.13-4.19,0.42-6.26c0.06-0.45,0.97-1.15,1.42-1.1
			c0.5,0.06,1.28,0.8,1.31,1.3c0.15,1.99,0.06,4,0.06,6.33c0.7-0.58,1.3-1.13,1.96-1.62c0.65-0.49,1.29-1.11,2.03-1.3
			c0.6-0.15,1.33,0.26,2.01,0.42c-0.21,0.58-0.26,1.33-0.66,1.72c-1.28,1.25-2.71,2.34-4.03,3.56c-0.63,0.58-1.13,1.29-1.68,1.94
			c0.15,0.16,0.3,0.33,0.45,0.49c3.41-2.62,6.8-5.28,10.26-7.84c0.69-0.51,1.63-0.69,2.46-1.02c0.08,0.83,0.16,1.65,0.23,2.48
			c0.24,2.8,0.41,5.61,0.78,8.38c0.04,0.32,1.51,0.89,1.84,0.66c1.32-0.92,2.47-2.1,3.65-3.22
			C654.14,308.43,654.4,308.02,654.86,307.45z"/>
		<path d="M810.38,321.81c2.73-2.94,3.46-5.5,1.66-7.94c-0.83-1.13-2.65-2.18-3.98-2.13c-1.62,0.05-3.34,1.11-4.72,2.13
			c-0.37,0.27,0.1,2.12,0.58,3.03c2.17,4.16,4.48,8.24,6.74,12.36c-1.85,2.04-2.59,1.94-3.77-0.47c-1.84-3.75-3.74-7.48-5.61-11.21
			c-0.72-1.44-1.5-1.47-2.48-0.2c-1.5,1.94-3,3.88-4.61,5.71c-0.35,0.4-1.2,0.37-1.81,0.54c0.11-0.59,0.05-1.3,0.37-1.74
			c2.04-2.75,4.2-5.4,6.22-8.16c0.46-0.62,0.7-1.52,0.74-2.3c0.11-2.01-0.04-4.03,0.11-6.02c0.04-0.48,0.84-0.9,1.29-1.34
			c0.29,0.5,0.79,0.97,0.85,1.5c0.18,1.68,0.19,3.37,0.28,5.14c1.87-0.54,3.54-1.02,5.36-1.55c-1.05-1.8-2.13-3.65-3.22-5.49
			c0.32-0.24,0.64-0.48,0.97-0.71c1.27,1.35,2.55,2.68,3.79,4.05c0.88,0.97,1.58,2.14,2.58,2.94c3.87,3.09,4.76,8.36,1.67,11.12
			c-0.74,0.66-1.86,0.92-2.8,1.36C810.53,322.21,810.46,322.01,810.38,321.81z"/>
		<path d="M496.89,272.13c-1.23-0.43-2.49-0.78-3.67-1.3c-1.01-0.44-1.88-1.23-2.9-1.61c-1.73-0.64-3.4-1.18-4.95,0.77
			c-0.97,1.21-2.47,2.35-3.93,2.71c-1.1,0.27-2.72-0.49-3.72-1.29c-0.54-0.43-0.71-2.16-0.28-2.8c0.66-0.98,1.89-1.72,3.04-2.19
			c0.83-0.34,1.91-0.13,2.88-0.1c2.26,0.08,3.45-1.65,2.42-3.71c-0.19-0.37-1.09-0.65-1.6-0.56c-1.91,0.33-3.78,0.89-5.68,1.25
			c-0.93,0.18-1.91,0.11-2.92-0.24c2.58-2.58,6.2-1.96,9.44-3.34c-0.62-1.84-1.22-3.65-1.84-5.45c-0.45-1.31-1.24-1.56-2.39-0.73
			c-0.79,0.57-1.56,1.27-2.45,1.54c-0.62,0.19-1.42-0.24-2.15-0.39c0.32-0.56,0.51-1.32,0.99-1.66c1.14-0.81,2.41-1.42,3.91-2.28
			c-1.38-1.61-2.72-3.17-4.06-4.73c0.17-0.23,0.34-0.46,0.51-0.68c1.05,0.62,2.45,1,3.1,1.92c1.96,2.75,4.17,2.5,6.76,1.17
			c1.14-0.59,2.42-0.92,3.8-1.05c-0.86,3.55-4.77,2.74-6.64,4.72c0.85,2.37,1.67,4.68,2.64,7.4c1.94-0.72,4-1.49,6.21-2.32
			c0.57,0.96,0.77,2.02-1.01,2.6c-0.57,0.18-1.09,0.5-1.64,0.73c-0.92,0.37-2.48,0.52-2.67,1.11c-0.43,1.37-0.36,2.96-0.14,4.42
			c0.09,0.58,1.02,1.17,1.7,1.49c2.53,1.19,5.12,2.27,7.68,3.39C497.18,271.32,497.03,271.73,496.89,272.13z M484.42,268.59
			c-0.14-0.18-0.27-0.36-0.41-0.54c-3.83,0.27-4.55,0.86-3.65,3.66C481.81,270.59,483.12,269.59,484.42,268.59z"/>
		<path d="M684.7,407.36c2.06-0.03,2.53,2.09,3.96,3.43c2.18-0.92,4.47-1.91,6.79-2.85c0.54-0.22,1.15-0.43,1.7-0.38
			c0.44,0.04,0.84,0.48,1.25,0.74c-0.27,0.38-0.47,0.93-0.84,1.12c-1.66,0.84-3.34,1.65-5.06,2.34c-2.47,1-3.2,1.81-2.18,4.15
			c2.72,6.2-0.37,11.16-3.05,16.23c-0.65,1.24-1.63,2.34-2.6,3.36c-0.42,0.44-1.22,0.51-1.85,0.75c-0.04-0.81-0.37-1.77-0.05-2.4
			c1.11-2.2,2.47-4.26,3.67-6.41c0.42-0.75,0.66-1.61,1.06-2.6c-1-0.06-1.74-0.02-2.45-0.17c-1.88-0.39-2.59-2.41-1.35-3.84
			c0.63-0.72,1.28-1.51,2.09-1.98c1.77-1.04,2.58-2.38,1.85-4.75c-1.36,0.54-2.68,1.08-4.01,1.59c-0.63,0.24-1.27,0.59-1.92,0.6
			c-0.57,0.01-1.14-0.38-1.71-0.59c0.26-0.52,0.4-1.27,0.82-1.5c1.42-0.79,2.89-1.59,4.44-2.02c1.9-0.53,1.39-1.35,0.57-2.37
			c-0.51-0.63-1.05-1.23-1.58-1.84C684.4,407.76,684.55,407.56,684.7,407.36z"/>
		<path d="M853.47,305.18c3.48,1.07,3.07,4.03,3.94,6.57c2.26-1.11,4.41-2.2,6.58-3.24c1.97-0.94,3.53-3.33,6.04-2.48
			c0.15,0.35,0.29,0.69,0.44,1.04c-3.58,2.15-7.1,4.42-10.77,6.39c-1.22,0.66-1.68,1.09-1.18,2.42c0.31,0.82,0.68,1.86,0.44,2.61
			c-0.92,2.87,0.6,3.69,2.97,4.39c2.2,0.65,4.28,1.73,6.38,2.71c0.56,0.26,0.96,0.85,1.43,1.28c-0.15,0.27-0.29,0.54-0.44,0.81
			c-3.33-1.23-6.65-2.46-9.64-3.56c-1.36,2.21-2.47,4.09-3.66,5.91c-0.63,0.96-1.37,1.74-2.74,1.06c-1.41-0.7-2.9-1.19-3.08-3.14
			c-0.3-3.27,1.54-5.64,5-6.28c0.5-0.09,1-0.16,2.11-0.33C856.03,315.96,854.79,310.75,853.47,305.18z M853.37,328.38
			c0.21,0.15,0.43,0.29,0.64,0.44c0.88-1.28,1.76-2.55,2.95-4.27C853.31,324.6,853.75,326.77,853.37,328.38z"/>
		<path d="M720.49,182.38c-1.63,1.28-2.82,2.6-4.3,3.27c-1.44,0.66-1.35,1.61-1.25,2.71c0.19,2.08,0.39,4.17,0.73,6.23
			c0.08,0.52,0.61,1.1,1.1,1.38c1.28,0.75,2.71,1.27,3.98,2.04c1.54,0.94,1.46,2.28,0.16,3.22c-1.84-1.22-3.59-2.38-5.17-3.42
			c-0.96,1.54-1.62,2.95-2.59,4.08c-1.5,1.74-3.99,2.14-4.75,0.6c-0.67-1.35-0.46-3.38-0.01-4.92c0.25-0.83,1.75-1.56,2.81-1.82
			c1.59-0.4,2.12-1.17,1.87-2.7c-0.26-1.57-0.49-3.14-0.76-4.88c-2.2,0.85-3.87,2.72-6.18,0.35c1.3-0.67,2.44-1.53,3.71-1.84
			c1.84-0.44,2.02-1.54,1.71-3.01c-0.42-1.95-0.9-3.89-1.41-6.1c1.95-0.02,3.11,0.36,3.33,2.32c0.13,1.15,0.54,2.27,0.81,3.37
			C716.44,183,717.93,180.5,720.49,182.38z"/>
		<path d="M681.49,453.75c-0.01-4.49,0.17-8.8-3.38-12.25c2.28,0.18,3.79,0.9,4.32,3.04c0.06,0.25,1.4,0.49,1.92,0.25
			c2.38-1.08,4.65-2.38,7.02-3.49c1.06-0.5,2.23-0.85,3.39-1.02c0.49-0.07,1.07,0.51,1.6,0.79c-0.36,0.38-0.65,0.89-1.09,1.11
			c-3.51,1.71-7.06,3.34-10.56,5.06c-0.44,0.22-0.98,0.83-0.99,1.26c-0.02,1.83,0.15,3.66,0.25,5.48c3.71,1.34,7.56,2.74,11.59,4.19
			c-1.26,1.91-2.47,1.33-3.65,0.87c-2.16-0.84-4.27-1.81-6.48-2.46c-0.68-0.2-1.75,0.29-2.41,0.77c-1.88,1.39-3.63,2.94-5.44,4.43
			c-1.36,1.12-2.77,0.52-3.61-0.44c-0.65-0.74-0.92-2.19-0.74-3.22c0.36-2.11,2.7-3.84,4.83-4.01
			C679.11,454.03,680.14,453.89,681.49,453.75z M680.8,456.72c-0.14-0.17-0.28-0.34-0.42-0.51c-3.06,0.31-4,1.19-4.17,4.31
			C677.9,459.12,679.35,457.92,680.8,456.72z"/>
		<path d="M873.1,396.64c1.08,1.64,0.91,5.13-0.45,6.35c-1.53,1.38-3.24,2.68-5.08,3.57c-2.54,1.22-4.64-0.43-6.54-1.84
			c-1.85-1.38-3.46-3.08-5.19-4.63c-0.37-0.33-0.79-0.62-1.49-1.15c-1.52,4.66-5.74,7.58-6.54,12.43c-0.09,0.56-0.81,1.3-1.35,1.42
			c-0.62,0.14-1.77-0.13-1.97-0.56c-0.27-0.57-0.02-1.55,0.31-2.2c2.24-4.36,4.83-8.57,6.78-13.06c1.43-3.31,2.01-6.99,3.07-10.48
			c0.19-0.61,0.86-1.07,1.32-1.6c0.46,0.84,1.4,1.77,1.28,2.51c-0.37,2.17-1.1,4.3-1.83,6.39c-0.6,1.74-0.51,3.08,1.09,4.31
			c2.29,1.76,4.25,4.02,6.67,5.55c3.35,2.13,6.81,0.7,8.33-3.03C872.03,399.36,872.53,398.08,873.1,396.64z"/>
		<path d="M738.43,310.05c1.73-5.68,3.45-11.36,5.23-17.21c-2.46,0.39-4.25,2.99-7.35,1.29c1.5-0.94,2.71-1.73,3.95-2.46
			c0.84-0.49,1.69-0.97,2.59-1.34c2.18-0.89,2.58-2.69,2.43-4.73c-0.14-1.86-0.41-3.7-0.62-5.57c2.11-0.62,3.76,1.29,3.53,4.13
			c-0.09,1.04-0.01,2.09-0.01,3.14c0.23,0.07,0.45,0.15,0.68,0.22c2.32-1.77,4.64-3.54,7.07-5.39c1.34,0.82,1.09,2.98-0.85,4.06
			c-1.97,1.09-4,2.07-5.95,3.2c-0.64,0.37-1.37,0.97-1.6,1.62c-1.04,2.97-1.83,6.02-2.89,8.98c-1,2.79-2.15,5.54-3.37,8.24
			c-0.41,0.9-1.22,1.62-1.85,2.42C739.09,310.45,738.76,310.25,738.43,310.05z"/>
		<path d="M822.81,196.5c-0.72,7.38-3.86,13.53-9.46,18.38c-0.4,0.34-1.29,0.11-1.96,0.15c0.14-0.68,0.09-1.49,0.44-2.02
			c1.71-2.51,3.48-5,5.34-7.41c2.59-3.37,3.28-7.32,3.18-11.35c-0.03-1.23-1.17-2.9-2.28-3.49c-0.98-0.52-2.87-0.25-3.89,0.41
			c-2.31,1.48-4.34,3.39-6.46,5.17c-1.03,0.86-1.94,1.86-3,2.67c-0.43,0.32-1.12,0.3-1.69,0.43c-0.02-0.6-0.3-1.52-0.02-1.76
			c3.76-3.14,7.36-6.57,11.49-9.13c3.31-2.05,7.84,1.59,8.3,6.15C822.86,195.3,822.81,195.9,822.81,196.5z"/>
		<path d="M496.66,227.63c-0.14,1.22,0.01,2.57-0.46,3.65c-1.83,4.18-4.91,7.05-9.46,8.08c-2.93,0.67-5.29-0.74-6.19-3.72
			c-1.36-4.51-0.46-9.03,0.3-13.48c0.25-1.47,0.21-2.21-1.03-2.87c-0.72-0.38-1.47-0.77-2.09-1.3c-0.43-0.37-0.67-0.97-0.99-1.47
			c0.67-0.12,1.36-0.39,2-0.3c0.54,0.08,1.1,0.49,1.52,0.89c1.56,1.45,2.28,0.74,2.78-0.94c0.25-0.84,0.3-2.41,1.66-1.6
			c0.68,0.41,1.12,2.03,0.93,2.96c-0.68,3.32-1.9,6.53-2.49,9.85c-0.42,2.38-0.42,4.92-0.13,7.33c0.37,3.03,1.56,3.42,4.32,2.24
			c4.33-1.85,7.37-4.83,8.67-9.49C496.23,227.52,496.45,227.58,496.66,227.63z"/>
		<path d="M842.5,436.87c3.17-1.9,6.14-3.62,9.01-5.48c0.31-0.2,0.3-1.34,0.05-1.87c-0.94-2.03-2.03-3.98-3.07-5.96
			c2.75-1.17,3.04,0.72,5.54,5.95c2.37-1.54,4.71-3.12,7.13-4.58c0.51-0.31,1.29-0.17,1.95-0.23c-0.27,0.7-0.34,1.66-0.84,2.04
			c-1.6,1.18-3.37,2.15-5.08,3.19c-1.66,1.01-1.91,2.15-0.64,3.62c1.41,1.63,2.82,3.28,4.41,4.73c1.05,0.96,1.27,1.9,0.47,2.9
			c-2.55,3.2-5.18,6.33-7.82,9.46c-0.18,0.21-0.67,0.17-1.77,0.41c2.94-3.92,5.49-7.31,8-10.67c-1.72-2.08-3.34-3.95-4.85-5.89
			c-1.12-1.43-2.19-1.35-3.59-0.36c-1.16,0.82-2.53,1.35-3.77,2.07c-0.36,0.21-0.64,0.59-0.9,0.93
			C845.28,439.06,844.72,439.08,842.5,436.87z"/>
		<path d="M644.61,191.09c3.01-1.68,0.11-5.72,2.9-7.98c0.2,0.3,0.66,0.72,0.78,1.22c0.13,0.56-0.04,1.18-0.08,1.78
			c-0.19,3.36-0.15,3.4,3.01,2.6c0.72-0.18,1.46-0.46,2.18-0.46c0.46,0,0.93,0.42,1.39,0.66c-0.31,0.42-0.56,0.91-0.94,1.25
			c-0.25,0.22-0.7,0.19-1.06,0.31c-4.1,1.36-4.82,2.96-2.91,6.84c0.26,0.53,1.1,0.84,1.74,1.11c2.1,0.89,4.24,1.68,6.31,2.63
			c0.31,0.14,0.32,0.95,0.48,1.45c-0.56,0.01-1.19,0.19-1.67,0c-1.09-0.44-2.05-1.25-3.16-1.58c-2.85-0.85-2.87-0.56-4.23,2.07
			c-0.78,1.5-2.25,2.76-3.66,3.78c-1.07,0.77-2.62-0.59-2.54-2.14c0.13-2.39,1.07-4.41,3.33-5.43c1.22-0.55,1.39-1.19,0.89-2.25
			C646.5,195.06,645.6,193.18,644.61,191.09z"/>
		<path d="M568.25,350.98c1.61-0.72,2.9-1.26,4.17-1.86c1.5-0.72,2.39-0.25,2.91,1.64c-1.81,0.66-3.56,1.49-5.39,1.93
			c-2.15,0.51-3.24,1.8-4.03,3.74c-1.78,4.37-3.64,8.7-5.63,12.98c-0.66,1.41-1.83,2.51-3.62,0.8c2.27-5.3,4.55-10.64,6.9-16.13
			c-0.78-0.4-1.48-0.75-2.27-1.16c0.23-0.27,0.41-0.66,0.59-0.67c3.86-0.08,3.93-3.35,4.94-5.81c0.14-0.34,0.17-0.8,0.42-1.02
			c0.54-0.47,1.18-0.81,1.78-1.21c0.22,0.71,0.73,1.47,0.61,2.12C569.36,347.84,568.79,349.28,568.25,350.98z"/>
		<path d="M850.14,239.95c1.31,0.61,2.46,0.83,3.14,1.51c3.04,3.04,5.7,6.32,6.34,10.82c0.09,0.61,0.95,1.39,1.61,1.6
			c2.26,0.72,4.62,1.15,6.89,1.83c0.84,0.25,1.57,0.89,2.87,1.67c-4.6,1.52-7.96-2.33-11.84-1.34c0.44,2.66-3.16,5.09-6.01,4.01
			c-0.76-0.29-1.7-0.57-2.14-1.16c-0.46-0.62-0.86-2.05-0.54-2.37c1.16-1.14,2.56-2.57,4.01-2.75c2.43-0.31,2.19-1.55,1.83-3.09
			c-0.81-3.51-2.39-6.59-5.28-8.88c-0.28-0.23-0.51-0.53-0.75-0.8C850.25,240.95,850.26,240.86,850.14,239.95z"/>
		<path d="M703.95,279.44c-0.13,1.07-0.1,1.76-0.32,2.35c-0.22,0.6-0.77,1.6-1.05,1.56c-0.82-0.12-1.88-0.47-2.28-1.1
			c-0.62-0.97-0.84-2.22-1.09-3.39c-0.12-0.55,0.08-1.17,0.14-1.76c0.66,0.2,1.34,0.33,1.96,0.62c0.28,0.13,0.42,0.55,0.64,0.87
			c2.69-2.24,3.24-5.43,4.31-8.38c0.21-0.58,0.94-0.98,1.43-1.46c0.54,0.62,1.31,1.16,1.59,1.89c0.59,1.56,0.74,3.31,1.43,4.83
			c1.29,2.85,0.58,7.19-1.77,8.77c-0.37,0.25-1.42,0.1-1.71-0.24C706.14,282.7,705.24,281.26,703.95,279.44z"/>
		<path d="M763.77,256.08c1.04,2.31-0.55,3.65-1.68,4.51c-2.89,2.18-5.9,4.36-9.19,5.78c-4.56,1.97-8.09,0.26-8.39-5.04
			c-0.34-6.15-0.5-12.31-0.74-18.63c2.51-0.01,3.62,0.46,3.27,2.67c-0.37,2.34-0.8,4.73-0.71,7.08c0.14,3.54,0.59,7.08,1.13,10.59
			c0.29,1.88,1.95,2.19,4.32,1.45C756.59,263.02,760.03,259.66,763.77,256.08z"/>
		<path d="M685.18,383.09c-2.29,0.96-4.57,2.03-6.93,2.85c-0.64,0.22-1.53-0.29-2.31-0.46c0.55-0.47,1.03-1.08,1.66-1.39
			c3.49-1.67,6.98-3.33,10.54-4.85c0.69-0.3,1.64,0.02,2.48,0.06c-0.19,0.76-0.17,1.7-0.62,2.26c-1.3,1.6-2.75,3.08-4.21,4.54
			c-3.06,3.06-2.73,11.32,0.65,13.89c1.62,1.23,3.38,0.89,5.09,0.09c0.64-0.3,1.27-0.61,2.18-1.05c-1.08,2.39-4.38,3.94-6.56,3.37
			c-5.07-1.31-7.79-8.24-5.24-13.62C682.83,386.83,684.06,385.01,685.18,383.09z"/>
		<path d="M802.24,436.46c0.61,1.7,1.41,3.25,1.7,4.88c1,5.79,0.21,11.43-2.02,16.85c-1.5,3.64-2.96,7.3-4.59,10.88
			c-0.64,1.4-1.55,2.78-2.66,3.83c-0.6,0.57-1.88,0.42-2.88,0.36c3.2-4.3,4.88-9.1,6.92-13.71c2.57-5.8,3.55-11.8,2.75-18.09
			c-0.1-0.79-0.38-1.58-0.7-2.32C800.2,437.91,800.25,436.99,802.24,436.46z"/>
		<path d="M742.93,342.42c-2.23,2.05-4.13,3.83-6.09,5.54c-0.37,0.32-1,0.32-1.52,0.48c0.09-0.58-0.03-1.36,0.3-1.69
			c1.8-1.77,3.75-3.4,5.56-5.16c0.43-0.42,0.81-1.19,0.76-1.76c-0.21-2.55-0.59-5.08-0.91-7.6c2.38-0.36,2.6-0.18,2.72,2.14
			c0.07,1.4,0.01,2.81,0.01,4.76c2.35-1.84,4.27-3.4,6.26-4.85c0.55-0.4,1.34-0.46,2.02-0.67c-0.11,0.81,0.09,1.94-0.37,2.37
			c-1.91,1.75-4.03,3.29-6.56,5.29c2.3,2.42,4.62,4.86,7.36,7.74c-1.44,1.45-3.09,3.1-4.73,4.76c-0.28-0.2-0.56-0.41-0.84-0.61
			c0.54-0.93,0.94-1.97,1.64-2.75c1.05-1.17,0.97-1.93-0.24-2.94C746.51,345.94,744.85,344.23,742.93,342.42z"/>
		<path d="M690.99,212.71c-0.31-1.09-1-2.21-0.88-3.25c0.58-5.25,1.14-10.52,2.16-15.69c0.64-3.25,2.06-6.35,3.19-9.5
			c0.49-1.38,1.12-2.72,1.68-4.07c0.37,0.12,0.74,0.24,1.11,0.36c-0.49,1.68-0.75,3.46-1.51,5.01c-3.23,6.56-3.32,13.66-4.06,20.95
			c3.13-2.16,6.02-4.14,8.9-6.13c0.21,0.22,0.42,0.45,0.63,0.67c-2.51,4.73-7.88,6.99-10.34,11.75
			C691.58,212.78,691.29,212.74,690.99,212.71z"/>
		<path d="M579.39,218.65c1.38-2.04,2.61-4.21,4.18-6.09c3.55-4.24,5.11-9.19,5.56-14.56c0.13-1.58-1.25-2.47-2.7-1.66
			c-1.59,0.89-3.12,1.93-4.51,3.11c-1.26,1.06-2.14,0.85-3.64-0.52c2.05-1,4.16-1.45,5.24-2.74c0.84-1.01,1.66-1.42,2.7-1.84
			c2.54-1.04,4.01-0.64,5.17,1.8c0.48,1,0.69,2.3,0.56,3.41c-0.56,4.93-2.31,9.41-5.57,13.23c-1.65,1.94-3.24,3.93-4.92,5.85
			c-0.3,0.35-0.92,0.42-1.38,0.62C579.84,219.05,579.62,218.85,579.39,218.65z"/>
		<path d="M795.81,405.34c2.12-2.36,4.24-4.72,6.34-7.05c0.95,3.3-1,4.77-4.1,7.56c-0.22,0.19-0.52,0.28-0.78,0.44
			c-3.15,1.88-5.17,1.11-5.33-2.43c-0.2-4.42-0.52-8.89,0.65-13.29c0.72-2.69,1.07-5.48,1.72-8.2c0.1-0.44,0.99-1.07,1.32-0.98
			c0.51,0.15,1.27,0.91,1.22,1.32c-0.36,2.87-1.06,5.71-1.34,8.59c-0.44,4.49-0.63,9-0.92,13.5
			C795,404.99,795.41,405.17,795.81,405.34z"/>
		<path d="M817.7,288.79c-1.83,0.86-2.79,0.71-3.54-1.08c-1.63-3.92-3.46-7.77-5.26-11.62c-0.37-0.79-0.99-1.47-1.7-2.5
			c-2.9,2.94-5.65,5.75-8.42,8.54c-0.47,0.47-0.98,1.01-1.57,1.19c-0.53,0.16-1.2-0.13-1.81-0.23c0.12-0.58,0.05-1.35,0.4-1.71
			c3.15-3.29,6.35-6.53,9.6-9.74c1.05-1.04,2.28-0.82,3.09,0.3c1.52,2.1,3.07,4.22,4.29,6.51
			C814.55,281.78,816.04,285.26,817.7,288.79z"/>
		<path d="M865.3,194.03c-0.88,1.39-1.95,2.48-2.31,3.77c-0.92,3.3-1.74,6.66-2.16,10.05c-0.21,1.67,0.34,3.53,0.92,5.18
			c1.15,3.3,3.15,2.93,6.06,1.22c1.21-0.71,2.17-1.83,3.38-2.54c0.5-0.3,1.35,0,2.04,0.03c-0.13,0.61-0.05,1.44-0.43,1.78
			c-1.59,1.43-3.14,3.13-5.04,3.97c-3.99,1.77-7.85-0.89-9.23-5.68c-0.95-3.31,0.38-6.33,0.78-9.46c0.27-2.12,1.01-4.18,1.62-6.25
			C861.63,193.74,863.82,192.9,865.3,194.03z"/>
		<path d="M520.04,190.61c-1.06,7.44-2.09,14.71-3.18,22.35c5.14-0.25,8.42-4.3,12.89-4.53c0.13,0.29,0.26,0.58,0.39,0.88
			c-4.58,2.34-9.14,4.74-13.77,6.97c-1.35,0.65-1.95-0.36-1.84-1.64c0.28-3.33,0.51-6.67,0.99-9.98c0.55-3.76,1.3-7.48,2.04-11.21
			C517.83,192.03,518.38,190.7,520.04,190.61z"/>
		<path d="M572.68,426.91c-0.28,1.13-0.3,2.44-0.9,3.37c-2.27,3.46-5.52,5.66-9.62,6.36c-3.81,0.64-6.09-1.03-6.58-4.87
			c-0.67-5.25-0.22-10.43,1.49-15.48c0.55-1.61,0.88-3.29,1.34-5.06c2.19,0.42,2.22,1.81,1.64,3.34c-1.75,4.61-2.45,9.37-2.4,14.27
			c0,0.3-0.01,0.6,0.01,0.9c0.31,4.62,3.28,6.34,7.42,4.19c2.82-1.46,5.48-3.15,6.31-6.57c0.06-0.26,0.34-0.46,0.51-0.69
			C572.16,426.76,572.42,426.84,572.68,426.91z"/>
		<path d="M813.1,392.89c-0.53,2.21-0.45,4.66-3.48,4.17c-1.61-0.26-3.46-3.07-3.45-5.22c0.01-1.51,0.01-1.51,4.3-2.34
			c-0.22-1.53-0.43-3.06-0.64-4.56c-2.08-0.61-4.24,1.72-6.82-0.65c1.51-0.45,2.54-0.92,3.61-1.04c2.01-0.22,2.25-0.96,1.2-2.6
			c-0.53-0.82-0.69-1.88-1.02-2.83c0.88,0.63,2.02,1.08,2.59,1.92c0.89,1.31,1.71,2.11,3.4,1.53c0.51-0.17,1.17,0.11,1.76,0.19
			c-0.05,0.47-0.03,0.71-0.09,0.74c-2.33,0.94-2.67,2.35-1.98,4.82c0.58,2.09,0.66,4.08,3.05,4.92c0.48,0.17,1.04,0.43,1.31,0.83
			c0.29,0.42,0.27,1.04,0.39,1.57c-0.52,0.05-1.11,0.29-1.53,0.12C814.87,394.14,814.17,393.57,813.1,392.89z M809.46,395.56
			c0.47-0.13,0.95-0.26,1.42-0.38c-0.2-1.16-0.36-2.33-0.68-3.45c-0.02-0.08-1.28,0.2-1.96,0.31
			C808.65,393.21,809.05,394.38,809.46,395.56z"/>
		<path d="M870.05,362.53c0.21,3.65-1.48,5.19-3.92,6.3c0.05,0.58,0.11,1.19,0.18,1.97c-1.77-0.17-2.96-0.09-4.21,1.6
			c-1.55,2.1-7.81-0.26-8.98-2.99c-1.97-4.58-2.62-9.23-1.19-14.1c0.33-1.13,0.24-2.38,0.49-3.54c0.11-0.51,0.59-0.95,0.9-1.42
			c0.35,0.47,1.03,0.95,1.01,1.41c-0.1,2.08-0.34,4.16-0.63,6.23c-0.54,3.75,0.23,7.26,1.75,10.68c0.61,1.38,1.55,1.89,3,1.75
			c3.09-0.29,5.32-2.1,7.47-4.09C867.13,365.2,868.36,364.08,870.05,362.53z"/>
		<path d="M745.61,423.09c0.94,1.84,0.43,3.56-1.83,5.31c-1.85,1.43-3.8,2.79-5.9,3.79c-2.13,1.01-4.16-0.38-5.3-1.82
			c-2.8-3.55-4.8-7.41-2.41-12.22c1.24-2.49,1.74-5.34,2.78-7.94c0.27-0.68,1.3-1.05,1.98-1.56c-0.03,0.77,0.16,1.62-0.11,2.3
			c-1.73,4.37-3.58,8.7-2.46,13.57c0.27,1.16,0.5,2.35,0.98,3.42c1.02,2.3,3.12,3.03,5.3,1.8
			C741.48,428.13,744.15,426.28,745.61,423.09z"/>
		<path d="M802.66,363.6c-0.12,0.94,0.01,1.6-0.26,1.86c-2.34,2.25-4.68,4.51-7.18,6.59c-1.14,0.95-2.98-0.25-3.19-2.27
			c-0.42-3.99-0.5-8.02-0.84-12.01c-0.46-5.22,3.03-9.11,4.1-13.84c2.13,0.48,2.05,1.68,1.58,2.98c-0.66,1.81-1.41,3.59-2.07,5.39
			c-2.11,5.71-1.83,11.5-0.46,17.76C797.52,368.54,799.78,366.18,802.66,363.6z"/>
		<path d="M638.41,425.64c-0.59,0.74-1.18,1.49-1.78,2.23c-0.78,0.94-1.79,1.76-2.31,2.83c-1.58,3.27-9.88,6.07-12.51,2.09
			c-1.69-2.56-0.84-4.93,0.09-7.22c1.33-3.28,2.77-6.44,1.13-10.03c-0.1-0.22,0.07-0.57,0.15-1.01c0.34,0.1,0.7,0.09,0.84,0.26
			c2.45,2.99,2.62,6.13,1.11,9.71c-0.8,1.89-0.9,4.16-0.93,6.27c-0.03,1.64,2.02,2.88,3.37,1.96c2.86-1.94,5.46-4.27,8.18-6.42
			c0.62-0.49,1.27-0.93,1.91-1.4C637.91,425.16,638.16,425.4,638.41,425.64z"/>
		<path d="M637.09,184.94c-1.39,2.36-2.62,4.18-3.58,6.13c-2.03,4.14-2.75,8.53-1.85,13.09c0.4,2.03,1.26,2.36,2.99,1.23
			c1.23-0.81,2.35-1.79,3.62-2.77c0.94,0.81,1.26,1.55,0.08,2.47c-0.82,0.64-1.51,1.43-2.34,2.05c-3.99,2.94-6.32,1.25-7.14-3.03
			c-1.06-5.59,0.28-11.05,3.21-15.93C632.94,186.74,634.23,185.06,637.09,184.94z"/>
		<path d="M636.78,235.47c-1.59,4.49-4.85,6.55-8.35,8.17c-2.39,1.1-5.6-1.11-5.86-3.96c-0.27-3.06-0.09-6.1,1.92-8.74
			c0.98-1.29,1.6-2.85,2.64-4.08c0.71-0.84,1.85-1.31,2.8-1.95c0.18,0.2,0.37,0.4,0.55,0.6c-0.97,1.79-1.81,3.66-2.94,5.35
			c-1.65,2.46-2.03,5.18-2,8.01c0.03,2.34,1.83,3.35,3.79,2.03C631.76,239.29,634.05,237.48,636.78,235.47z"/>
		<path d="M856.93,287.56c-0.55,0.41-1.12,0.79-1.64,1.25c-0.65,0.57-1.27,1.18-1.87,1.81c-1.73,1.8-3.38,3.7-5.21,5.39
			c-0.92,0.85-4.68-0.58-4.96-1.96c-0.75-3.7-1.29-7.44-1.91-11.16c2.61-0.54,3.18-0.07,3.55,2.13c0.4,2.37,0.99,4.7,1.53,7.23
			C849.95,291,852.26,286.77,856.93,287.56z"/>
		<path d="M634.97,331.94c-2.25,1.64-4.1,2.99-5.94,4.34c-0.19-0.17-0.39-0.34-0.58-0.51c0.1-0.43,0.05-1.05,0.32-1.27
			c1.97-1.58,4-3.08,6.01-4.61c1-0.77,1.95-1.62,3.02-2.28c0.55-0.34,1.32-0.32,2-0.47c0.01,0.69,0.24,1.49-0.02,2.05
			c-1.06,2.26-2.11,4.56-3.49,6.64c-1.35,2.05-1.05,3.97,0.06,5.75c1.05,1.67,4.14,2.17,6.31,1.44c0.57-0.2,1.2-0.25,1.87-0.06
			c-2,2.58-4.81,1.88-7.36,1.61c-3.06-0.33-4.33-3.04-4.41-5.46C632.69,336.87,634.09,334.58,634.97,331.94z"/>
		<path d="M698,305.8c-3.12,1.75-5.89,3.32-8.68,4.84c-0.23,0.12-0.66-0.13-1.56-0.35c1.31-1.01,2.2-1.85,3.23-2.44
			c2.33-1.33,4.68-2.63,7.11-3.74c1.54-0.71,2.65,0.07,2.97,1.7c1.46,7.49-0.01,14.25-5.15,20.04c-0.4,0.45-0.95,0.75-1.74,0.95
			C697.77,320.23,700.48,313.61,698,305.8z"/>
		<path d="M633.74,360.73c2.59-1.53,4.9-2.9,7.2-4.26c0.24,0.22,0.48,0.44,0.72,0.66c-0.42,0.71-0.69,1.61-1.29,2.1
			c-1.32,1.08-2.7,2.28-4.26,2.83c-3.06,1.08-3.74,3.76-4.4,6.23c-0.61,2.32-0.45,4.85-0.58,7.28c-0.02,0.46,0.23,0.94,0.4,1.59
			c-0.69,0.06-1.32,0.11-2.62,0.22c0.32-3.92,0.62-7.54,0.93-11.25c-2.03-0.77-1.88-0.81-0.18-2.79c1.04-1.2,1.5-2.93,2.06-4.49
			c0.27-0.74,0.05-1.65,0.24-2.43c0.12-0.5,0.57-0.91,0.87-1.36c0.37,0.48,1,0.94,1.04,1.46
			C633.99,357.76,633.82,359.02,633.74,360.73z"/>
		<path d="M698.87,345.26c-0.12,5.88-8.14,10.32-13.21,8.32c-2.37-0.93-3.35-2.25-2.79-4.62c0.56-2.33,1.34-4.6,2.1-6.88
			c0.44-1.31,0.96-2.61,1.58-3.85c0.21-0.42,0.82-0.65,1.25-0.96c0.28,0.45,0.8,0.9,0.79,1.34c-0.02,0.78-0.31,1.56-0.57,2.32
			c-0.83,2.39-1.87,4.73-2.5,7.17c-0.73,2.81,0.57,4.17,3.44,3.82c3.55-0.43,6.2-2.39,8.35-5.14
			C697.75,346.21,698.34,345.76,698.87,345.26z"/>
		<path d="M738.42,449.45c-0.99,1.51-1.68,2.61-2.42,3.67c-1.04,1.49-2.54,1.64-4.08,0.43c-1.5-1.17-1.06-2.71-0.17-3.75
			c0.99-1.16,2.5-1.89,4.26-3.15c-0.68-1.99-1.53-4.5-2.38-7c1.11-0.35,1.6-0.15,2.03,1.21c0.72,2.29,1.8,2.64,3.97,1.42
			c0.86-0.48,1.85-0.74,2.88-1.13c-0.19,1.26-0.19,1.26-5.26,3.63c0.45,1.99,1.64,3.01,3.66,3.59c1.51,0.43,2.84,1.55,4.17,2.49
			c0.28,0.2,0.4,1.02,0.22,1.36c-0.18,0.34-0.91,0.7-1.24,0.59c-0.9-0.3-1.74-0.81-2.56-1.32
			C740.44,450.86,739.44,450.14,738.42,449.45z M733.55,452.64c0.85-0.92,1.71-1.85,2.8-3.03
			C734.06,449.55,733.67,449.96,733.55,452.64z"/>
		<path d="M505.4,442.18c-0.15-2.28-0.31-4.56-0.46-6.84c-0.07-1.06-0.16-2.11-0.18-3.17c-0.13-6.56-0.25-13.12-0.35-19.67
			c-0.03-2.16-0.01-4.32-0.01-7.01c0.18,1.11,0.28,1.73,0.38,2.36c0.19,0.04,0.37,0.09,0.56,0.13c0.21-1.86,0.43-3.71,0.64-5.57
			c0.18,0.02,0.36,0.03,0.53,0.04c0,13.22,0,26.44,0,39.67C506.14,442.14,505.77,442.16,505.4,442.18z"/>
		<path d="M693.38,362.27c-0.8,0.11-1.49,0.21-2.27,0.32c0.02-0.38-0.04-0.72,0.05-0.78c2.41-1.4,1.8-3.54,1.56-5.69
			c-0.08-0.7,0.55-1.47,0.85-2.21c0.98,0.91,2.85-0.74,3.53,1.37c0.4,1.25,1.24,2.4,2.08,3.44c1.03,1.28,0.75,2.35-1.28,3.52
			c-0.19-0.47-0.35-0.94-0.57-1.37c-0.19-0.37-0.44-0.71-1.16-1c0,0.65-0.08,1.3,0.02,1.93c0.28,1.77,0.79,3.51,0.9,5.28
			c0.04,0.67-0.76,1.4-1.17,2.1c-0.49-0.55-1.24-1.03-1.42-1.67C693.98,365.81,693.73,364.04,693.38,362.27z"/>
		<path d="M555.14,396.51c3.09-0.85,6.05-1.67,9.33-2.57c-1.95,2.55-4.77,3.12-7.33,4.12c-0.4,0.16-0.88,0.13-1.32,0.2
			c-2.88,0.43-3.33,0.04-3.28-2.8c0.07-4.05,0.65-8.01,2.5-11.65c0.3-0.59,1.47-0.75,2.23-1.1c0.28,0.89,1.07,2.23,0.75,2.6
			c-2.44,2.83-2.55,6.19-2.6,9.61C555.41,395.39,555.26,395.87,555.14,396.51z"/>
		<path d="M641.79,258.87c-10.28,3.8-11.41,3.98-12.65,1.91c4.9-1.72,9.77-3.49,14.7-5.09c0.82-0.26,1.88,0.23,2.83,0.38
			c-0.47,0.8-0.83,1.7-1.44,2.37c-2.09,2.3-4.26,4.51-6.68,7.05C637.73,262.07,640.97,261.03,641.79,258.87z"/>
		<path d="M528.08,421.89c0.01,10.9,1.2,21.77,0.81,32.68c-0.28,0.07-0.57,0.14-0.85,0.21c-0.19-0.4-0.52-0.8-0.53-1.21
			c-0.07-2.15,0.04-4.31-0.12-6.45c-0.29-3.9-0.93-7.79-1.05-11.7c-0.12-3.84,0.21-7.69,0.4-11.53c0.03-0.69,0.31-1.37,0.47-2.06
			C527.5,421.85,527.79,421.87,528.08,421.89z"/>
		<path d="M471.86,279.67c2.37-0.19,2.91,0.46,2.87,2.67c-0.06,3.35-0.02,6.7-0.02,10.05c0.21,0.15,0.42,0.31,0.63,0.46
			c2.64-1.92,5.27-3.85,7.91-5.77c0.14,0.19,0.27,0.38,0.41,0.57c-2.2,3.16-4.87,5.87-8.49,7.4c-1.36,0.57-2.57,0.27-2.62-1.81
			C472.44,288.76,472.11,284.29,471.86,279.67z"/>
		<path d="M563.37,269.63c2.17,0.13,3.93,0.61,5.49,0.24c4.11-0.96,5.49-3.99,3.83-8.47c-0.95-2.55-2.43-4.9-3.93-7.87
			c1.05,0.31,2.4,0.29,2.77,0.88c2.01,3.21,3.99,6.47,4.15,10.46c0.1,2.66-1.23,4.57-3.31,5.62c-2.51,1.26-5.31,2.24-8.1,0.48
			C563.88,270.73,563.7,270.14,563.37,269.63z"/>
		<path d="M586.96,166.14c-1.58,7.1,2.42,12.47,4.6,18.27c-2.36,0.65-3.69,0.04-4.63-2.64c-1.37-3.91-3.2-7.7-2.82-12.12
			C584.28,167.65,585.19,166.96,586.96,166.14z"/>
		<path d="M858.98,245.79c0.3-0.48,0.45-1.03,0.77-1.16c5.92-2.42,11.86-4.81,17.82-7.12c0.56-0.22,1.35,0.16,2.03,0.26
			c0.08,0.24,0.15,0.48,0.23,0.71c-1.06,0.71-2.04,1.6-3.18,2.1c-4.14,1.78-8.31,3.5-12.52,5.1
			C862.55,246.28,860.83,247.12,858.98,245.79z"/>
		<path d="M794.05,426.66c4-0.53,6.97-2.45,9.41-5.38c0.22,0.25,0.45,0.5,0.67,0.76c-0.9,1.15-1.57,2.71-2.75,3.35
			c-2.56,1.41-5.34,2.45-8.12,3.36c-0.42,0.14-1.71-1.08-1.95-1.87c-0.85-2.75-1.51-5.56-2.05-8.39c-0.14-0.72,0.26-2.09,0.75-2.29
			c1.18-0.47,1.44,0.46,1.68,1.6C792.32,420.76,793.23,423.64,794.05,426.66z"/>
		<path d="M730.61,395.7c2.6-1.8,4.63-3.21,7.06-4.89c-0.29,0.98-0.29,1.91-0.74,2.3c-1.58,1.34-3.28,2.55-5.02,3.68
			c-2.41,1.57-3.7,0.86-4.14-2.29c-0.39-2.85-0.21-5.79-0.17-8.68c0.01-0.4,0.66-0.79,1.01-1.18c0.52,0.53,1.41,1.01,1.48,1.59
			c0.25,1.98,0.2,4.01,0.29,6.01C730.41,393.1,730.49,393.98,730.61,395.7z"/>
		<path d="M637.86,439.24c1.7,1.23,3.39,2.45,5.43,3.91c-3.03,1.43-3.62-1.37-4.79-1.69c-1.59,0.93-2.83,2.01-4.26,2.4
			c-1.67,0.45-2.25-0.51-1.29-2.03c0.53-0.83,1.58-1.32,2.24-2.09c0.39-0.46,0.7-1.18,0.66-1.76c-0.07-0.94-0.46-1.85-0.69-2.78
			c-0.03-0.11,0.12-0.25,0.31-0.6c0.97,0.76,1.82,1.9,2.86,2.11c1.15,0.23,2.47-0.39,3.72-0.63c0.07,0.2,0.13,0.4,0.2,0.6
			C640.84,437.5,639.45,438.31,637.86,439.24z"/>
		<path d="M584.67,289.67c0.04,3.12-3.02,6.46-6.17,6.38c-0.91-0.02-1.97-0.87-2.61-1.63c-0.34-0.4-0.1-1.51,0.18-2.17
			c0.98-2.28,2.79-3.78,5-4.81C583.15,286.47,584.64,287.41,584.67,289.67z M581.75,288.52c-1.32,1.2-2.55,2.09-3.48,3.22
			c-0.79,0.97-0.13,2.38,0.9,2.34C580.93,294.02,582.75,290.86,581.75,288.52z"/>
		<path d="M624.91,400.91c-1.01,0.71-1.94,1.64-3.06,2.08c-0.95,0.37-1.61,0.02-1.62-1.47c-0.02-2.89-0.41-5.7,1.74-8.18
			c0.71-0.82,0.94-2.17,1.1-3.32c0.23-1.67,1.03-1.72,2.66-1.05c-0.63,1.73-1.29,3.41-1.85,5.13c-0.39,1.19-0.7,2.41-0.97,3.63
			c-0.33,1.48-0.46,2.91,2.23,2.45C625.06,400.42,624.99,400.67,624.91,400.91z"/>
		<path d="M577.34,235.86c0.39,1.37,1.15,2.53,0.88,3.38c-0.68,2.21,0.58,3.73,1.53,5.23c1.65,2.62,1.72,2.93-1.05,4.04
			c-1.04,0.42-2.16,0.67-3.24,0.99c-0.12-0.2-0.24-0.41-0.36-0.61c0.43-0.5,0.77-1.2,1.31-1.46c1.52-0.71,1.44-1.69,0.76-2.91
			c-0.47-0.84-0.92-1.68-1.34-2.55C574.31,238.85,574.05,238.52,577.34,235.86z"/>
		<path d="M877.22,195.76c0.62,0.71,1.44,1.32,1.8,2.14c0.56,1.29,0.91,2.7,1.16,4.09c0.66,3.64,1.22,7.3,1.81,10.95
			c-0.23,0.16-0.47,0.32-0.7,0.48c-0.55-0.54-1.44-1.01-1.6-1.65c-0.63-2.52-1.05-5.1-1.52-7.66c-0.5-2.66-0.97-5.33-1.45-8
			C876.88,196,877.05,195.88,877.22,195.76z"/>
		<path d="M630.58,279.77c6.75-1.77,13.5-3.55,20.75-5.45C648.64,277.55,633.95,281.53,630.58,279.77z"/>
		<path d="M860.09,464.26c-0.86-0.2-1.85-0.2-2.56-0.64c-3.82-2.35-7.59-4.78-11.33-7.27c-0.4-0.27-0.45-1.06-0.67-1.62
			c0.73-0.03,1.65-0.36,2.15-0.04c4.04,2.62,8.01,5.35,11.98,8.07c0.28,0.19,0.47,0.52,0.7,0.79
			C860.28,463.79,860.18,464.03,860.09,464.26z"/>
		<path d="M565.36,275.87c-3.98,0.7-5.76-1.53-7.18-4.17c-0.34-0.63-0.49-2.04-0.19-2.22c1.47-0.89,1.3-2.27,1.61-3.6
			c0.19-0.79,1.06-1.41,1.94-1.95C560.6,268.66,560.95,272.78,565.36,275.87z"/>
		<path d="M690.24,469.62c0.62-0.78,1.17-1.21,1.38-1.78c0.97-2.58,4.9-3.38,6.68-1.29c0.18,0.21,0.33,0.51,0.35,0.78
			c0.1,1.23-3.08,4.24-4.83,4.6C692.02,472.31,690.78,471.37,690.24,469.62z M696.7,468.27c-0.04-0.44-0.07-0.88-0.11-1.32
			c-1.08,0.12-2.16,0.24-3.23,0.35c0.11,0.37,0.2,1.05,0.33,1.06C694.68,468.41,695.69,468.32,696.7,468.27z"/>
		<path d="M647.12,221.28c1.11-0.65,1.71-0.11,2.5,1.01c2.11,2.98,2.39,6.38,2.58,9.81c0.05,0.87-0.39,1.76-1.05,2.57
			C649.83,230.27,648.5,225.87,647.12,221.28z"/>
		<path d="M808.44,426.7c-0.59-1.35-1.03-2.17-1.31-3.05c-0.97-3.03-1.91-6.08-2.79-9.13c-0.13-0.45,0.1-1.01,0.17-1.52
			c0.53,0.12,1.37,0.07,1.54,0.38c2.02,3.68,3.49,7.56,3.34,11.86C809.37,425.53,809.02,425.82,808.44,426.7z"/>
		<path d="M760.74,315.76c-0.95,1.01-1.74,2.45-2.91,2.93c-1.34,0.55-3.55-1.53-3.59-2.89c-0.04-1.4,2.18-3.15,3.98-3.21
			C760.27,312.52,760.13,314,760.74,315.76z"/>
		<path d="M745.71,381.03c2.76,3.33,3.37,7.4,3.63,11.55c0.03,0.46-0.69,0.97-1.07,1.46c-0.27-0.51-0.63-0.99-0.78-1.52
			c-0.84-2.92-1.69-5.84-2.41-8.79c-0.21-0.83-0.03-1.76-0.03-2.65C745.26,381.07,745.49,381.05,745.71,381.03z"/>
		<path d="M575.49,380.54c3.66,3.01,3.29,16.14-0.39,18.32C577.44,392.77,575.97,386.93,575.49,380.54z"/>
		<path d="M864.42,273.25c0.98,0.97,2.34,1.77,2.87,2.94c1.16,2.54,1.94,5.25,2.77,7.93c0.13,0.42-0.3,1-0.46,1.51
			c-0.59-0.41-1.49-0.7-1.71-1.26c-1.35-3.51-2.55-7.07-3.8-10.62C864.21,273.58,864.32,273.42,864.42,273.25z"/>
		<path d="M543.35,207.87c-3.4,2.91-6.6,1.2-9.68-0.03c-2.12-0.85-2.91-2.63-2.81-5.81C534.21,206.38,538.22,208.38,543.35,207.87z"
			/>
		<path d="M752.23,366c-0.45,0.35-0.6,0.57-0.78,0.6c-2.98,0.49-9.24-3.15-10.23-5.99c-0.16-0.47,0.01-1.05,0.02-1.58
			c0.6,0.14,1.63,0.12,1.74,0.43c1.1,3.2,4.23,3.51,6.62,4.88C750.46,364.82,751.27,365.38,752.23,366z"/>
		<path d="M530.09,417.05c-0.33-4.46-0.66-8.92-1-13.57c3.88,3.52,3.05,6.14,1.8,13.48C530.62,416.99,530.36,417.02,530.09,417.05z"
			/>
		<path d="M792.51,438.33c1.57,3.45-0.69,7.31,0.7,10.84c-2.02,1.37-2.13,1.37-2.33-1.22c-0.18-2.35-0.24-4.72-0.16-7.07
			c0.03-0.88,0.6-1.74,0.92-2.62C791.92,438.29,792.21,438.31,792.51,438.33z"/>
		<path d="M760.51,298.74c0.9,2.27-1.81,5.51-4.53,5.06c-1.6-0.26-3.11-1.26-4.56-2.11c-0.39-0.23-0.38-1.12-0.56-1.71
			c0.62,0.01,1.32-0.18,1.83,0.06C757.18,302.08,757.31,302.08,760.51,298.74z"/>
		<path d="M803.87,351.11c2.7-1.52,5.37-3.1,8.12-4.5c0.4-0.2,1.21,0.4,1.83,0.62c-0.33,0.47-0.56,1.12-1.02,1.39
			c-1.98,1.18-3.98,2.34-6.06,3.32c-0.75,0.35-1.76,0.18-2.64,0.24C804.02,351.82,803.95,351.47,803.87,351.11z"/>
		<path d="M638.41,369.58c3.83,1.19,7.6,4.98,11.41-0.31c0.06,2.01-1.28,3.9-2.72,4.41C644.26,374.68,640.38,373.01,638.41,369.58z"
			/>
		<path d="M689.53,291.63c1.16,0.33,2.48,0.32,2.73,0.83c1.19,2.41,1.98,4.97,1.22,7.89C690.94,298.38,690.5,297.44,689.53,291.63z"
			/>
		<path d="M530.73,192.68c2.23-1.27,8.93-1.06,10.18,0.32C538.5,194.83,531.85,194.62,530.73,192.68z"/>
		<path d="M714.16,220.25c-1.05-0.68-2.32-1.17-3.1-2.09c-1.14-1.34-1.96-2.96-2.83-4.5c-0.17-0.3,0.04-0.8,0.07-1.21
			c0.39,0.06,0.96-0.02,1.15,0.21c1.87,2.22,3.69,4.49,5.52,6.75C714.7,219.69,714.43,219.97,714.16,220.25z"/>
		<path d="M645.78,363.04c-2.11,1.02-4.19,2.13-6.36,3.01c-0.65,0.27-1.56-0.09-2.35-0.16c0.42-0.57,0.72-1.4,1.28-1.66
			c1.94-0.89,3.95-1.64,5.98-2.29c0.49-0.16,1.17,0.3,1.76,0.47C645.99,362.61,645.88,362.82,645.78,363.04z"/>
		<path d="M640.15,397.03c-0.52,0.75-0.85,1.22-1.18,1.69c-0.39-0.37-0.97-0.67-1.12-1.12c-0.68-2.03-1.27-4.1-1.81-6.17
			c-0.11-0.42,0.1-0.92,0.16-1.38c0.48,0.22,1.22,0.33,1.38,0.69C638.51,392.78,639.29,394.88,640.15,397.03z"/>
		<path d="M749.81,295.12c0.54-0.46,1.01-1.06,1.62-1.36c1.59-0.78,3.21-1.57,4.9-2.07c0.64-0.19,1.5,0.41,2.27,0.65
			c-0.45,0.51-0.82,1.21-1.38,1.48c-1.33,0.63-2.74,1.12-4.15,1.53c-0.98,0.28-2.02,0.32-3.04,0.46
			C749.95,295.58,749.88,295.35,749.81,295.12z"/>
		<path d="M579.24,367.09c0,2.05-0.82,3.28-2.71,3.49c-1.94,0.22-4.78-2.02-5.44-4.37C573.89,365.82,576.07,371.03,579.24,367.09z"
			/>
		<path d="M504.83,182.84c-2.79-2.78-3.16-6.1-3.53-10.06c0.9,0.48,1.78,0.67,1.9,1.07c0.79,2.68,1.42,5.41,2.07,8.13
			C505.31,182.13,505.09,182.34,504.83,182.84z"/>
		<path d="M586.3,354.42c-0.81-3.19-1.55-6.14-2.33-9.2c1.81-0.41,2.16,0.92,2.45,1.96C587.07,349.54,589.01,351.97,586.3,354.42z"
			/>
		<path d="M583.85,276.92c-0.46-2.66-0.88-4.84-1.18-7.03c-0.05-0.39,0.3-1.07,0.63-1.21c0.33-0.14,1.25,0.19,1.27,0.4
			c0.28,2.26,0.48,4.53,0.59,6.8C585.17,276.15,584.46,276.45,583.85,276.92z"/>
		<path d="M804.44,358.35c3.96,0,7.31,0,10.63,0C814.38,360.5,807.29,360.96,804.44,358.35z"/>
		<path d="M588.06,299.48c2.82,1.59,3.56,4.64,4.75,7.34c0.09,0.21-0.81,0.86-1.22,1.26c-1.46-2.96-2.76-5.6-4.06-8.24
			C587.7,299.72,587.88,299.6,588.06,299.48z"/>
		<path d="M647.72,329.88c-1.78-0.06-3.34-0.1-3.27-2.39c0.05-1.57-0.54-3.34,1.97-3.97C646.84,325.62,647.26,327.65,647.72,329.88z
			"/>
		<path d="M635.67,417.64c-2.47-1.46-4.56-3.3-6.5-6.1c1.49,0,2.27,0,2.87,0c1.46,1.94,2.85,3.8,4.24,5.65
			C636.08,417.34,635.87,417.49,635.67,417.64z"/>
		<path d="M573.47,407c2.67,2.28,3.54,6.81,2,8.96C573.43,413.36,574.3,410.3,573.47,407z"/>
		<path d="M590.55,246.49c-0.11-1.82-0.23-3.64-0.34-5.51c2.07-0.68,2.39,0.65,2.5,1.92C593.02,246.39,592.97,246.39,590.55,246.49z
			"/>
		<path d="M595.37,244.83c0-2.08-0.04-3.86,0.03-5.63c0.02-0.41,0.41-1.14,0.59-1.13c0.52,0.03,1.23,0.22,1.5,0.61
			C598.36,239.9,597.14,243.83,595.37,244.83z"/>
		<path d="M578.09,359.73c-1.41,0.37-2.81,0.85-4.25,1.04c-0.55,0.07-1.19-0.54-1.78-0.85c0.39-0.45,0.71-1.11,1.2-1.3
			c1.02-0.4,2.14-0.75,3.21-0.73c0.65,0.01,1.3,0.73,1.95,1.14C578.3,359.27,578.19,359.5,578.09,359.73z"/>
		<path d="M583.29,352.11c-2.23-0.61-3.57-3.42-2.57-5.18c0.15-0.27,0.65-0.61,0.81-0.54c0.4,0.19,0.92,0.55,1,0.92
			C582.86,348.88,583.05,350.48,583.29,352.11z"/>
		<path d="M536.37,227.91c-0.58-1.77,0.28-4.7,1.54-5.17c0.37-0.14,0.98,0.41,1.49,0.65C538.41,224.85,538.87,227.27,536.37,227.91z
			"/>
		<path d="M644.67,349.51c3.04-0.02,4.98,2.29,4.43,5.23C647.75,353.15,646.4,351.56,644.67,349.51z"/>
		<path d="M651.1,321.44c0.36,2.09,0.71,4.18,1.12,6.55c-2.67-1.46-3.26-3.94-1.86-6.47C650.6,321.49,650.85,321.47,651.1,321.44z"
			/>
		<path d="M566.44,410.09c0.67-0.13,1.64-0.5,1.76-0.33c0.77,1.22,1.41,2.52,1.93,3.86c0.07,0.18-0.8,0.72-1.23,1.09
			C568.27,413.55,567.65,412.38,566.44,410.09z"/>
		<path d="M645.36,355.6c-2.59,0.56-2.69,0.39-2.83-4.9C643.91,351.22,643.91,351.22,645.36,355.6z"/>
		<path d="M638.84,414.48c-0.93-1.9-1.86-3.81-2.86-5.86c2.25,0.15,3.14,1.64,3.59,5.49C639.33,414.23,639.09,414.36,638.84,414.48z
			"/>
		<path d="M701.85,376.88c0.66,1.98,1.33,3.96,1.99,5.94c-0.23,0.08-0.45,0.15-0.68,0.23c-1.81-1.6-2.52-3.59-1.96-6.01
			C701.42,376.99,701.63,376.93,701.85,376.88z"/>
		<path d="M697.32,379.34c1.36,0.82,2.79,1.6,2.52,3.5c-0.23,0.17-0.47,0.34-0.7,0.51c-0.88-1.15-1.77-2.3-2.65-3.46
			C696.76,379.72,697.04,379.53,697.32,379.34z"/>
		<path class="vol2_6_st0" d="M484.8,207.23c-1.09-1.01-2.17-2.01-3.26-3.02c1.03-1.09,2.07-2.19,3.1-3.28c0.24,0.09,0.49,0.17,0.73,0.26
			c0.11,1.87,0.22,3.74,0.33,5.62C485.41,206.96,485.11,207.09,484.8,207.23z"/>
		<path class="vol2_6_st0" d="M749.85,217.7c-0.42,2.99-0.57,5.97-3.46,7.77C744.07,221.4,745.27,218.46,749.85,217.7z"/>
		<path class="vol2_6_st0" d="M799.72,258.13c-4.97-0.58-7.76-4.99-5.08-10.37c1.38-2.76,3.72-4.82,6.93-5.64
			c1.32-0.34,2.04-0.27,2.43,1.29c0.83,3.31,1.95,6.51,1.19,10.05C804.59,256.34,802.75,258.11,799.72,258.13z"/>
		<path class="vol2_6_st0" d="M563.52,323.13c0.87-2,2.23-2.74,6.21-3.39c-0.25,1.67-0.55,3.31-0.75,4.97c-0.19,1.59-0.79,2.01-2.14,0.94
			C565.74,324.77,564.61,323.95,563.52,323.13z"/>
		<path class="vol2_6_st0" d="M484.42,268.59c-1.3,1-2.61,2-4.06,3.12c-0.9-2.8-0.18-3.39,3.65-3.66
			C484.15,268.23,484.29,268.41,484.42,268.59z"/>
		<path class="vol2_6_st0" d="M853.37,328.38c0.38-1.61-0.07-3.78,3.59-3.83c-1.19,1.72-2.07,3-2.95,4.27
			C853.8,328.67,853.59,328.53,853.37,328.38z"/>
		<path class="vol2_6_st0" d="M680.8,456.72c-1.45,1.2-2.9,2.4-4.59,3.8c0.18-3.13,1.12-4,4.17-4.31
			C680.52,456.38,680.66,456.55,680.8,456.72z"/>
		<path class="vol2_6_st0" d="M809.46,395.56c-0.41-1.17-0.81-2.35-1.22-3.52c0.68-0.11,1.93-0.39,1.96-0.31c0.32,1.12,0.48,2.29,0.68,3.45
			C810.4,395.3,809.93,395.43,809.46,395.56z"/>
		<path class="vol2_6_st0" d="M733.55,452.64c0.13-2.68,0.51-3.09,2.8-3.03C735.25,450.8,734.4,451.72,733.55,452.64z"/>
		<path class="vol2_6_st0" d="M581.75,288.52c0.99,2.34-0.82,5.5-2.59,5.56c-1.02,0.04-1.69-1.37-0.9-2.34
			C579.2,290.61,580.43,289.72,581.75,288.52z"/>
		<path class="vol2_6_st0" d="M696.7,468.27c-1.01,0.05-2.01,0.14-3.02,0.1c-0.12,0-0.22-0.69-0.33-1.06c1.08-0.12,2.16-0.24,3.23-0.35
			C696.62,467.39,696.66,467.83,696.7,468.27z"/>
	</g>
</g>
</svg>
