<?xml version="1.0" encoding="utf-8"?>
<!-- Generator: Adobe Illustrator 26.3.1, SVG Export Plug-In . SVG Version: 6.00 Build 0)  -->
<svg version="1.1" xmlns="http://www.w3.org/2000/svg" xmlns:xlink="http://www.w3.org/1999/xlink" x="0px" y="0px"
	 viewBox="0 0 1366 768" style="enable-background:new 0 0 1366 768;" xml:space="preserve">
<style type="text/css">
	.volume_2_st0{fill:#FFFFFF;}
	.volume_2_st1{fill:none;stroke:#ffffff;stroke-width:53.8583;stroke-miterlimit:10;}
</style>
<g id="base">
	<g>
		<path class="volume_2_st0" d="M902,704.25c-150,0-300,0-450,0c0-213.75,0-427.5,0-641.25c150,0,300,0,450,0
			C902,276.75,902,490.5,902,704.25z M708.23,481.46c0.43,0.72,0.97,1.4,1.26,2.17c0.94,2.49,1.7,5.05,2.69,7.52
			c1.88,4.69,5.28,7.22,10.48,6.97c4.58,2.01,9.25,1.87,13.71-0.09c3.25-1.42,6.03-3.6,6.8-7.49c0.87-4.38,2.14-8.7,2.71-13.11
			c1-7.78,2.2-15.61,2.17-23.42c-0.02-6.78-1.64-13.55-2.51-20.33c-0.63-4.91-2.13-9.53-4.48-13.87c-2.02-3.74-4.21-7.39-6.15-11.17
			c-2.95-5.78-7.38-10.09-12.88-13.37c-5.16-3.08-11.02-3.59-16.79-4.27c-4.37-0.52-8.82-0.54-13.15-1.28
			c-9.94-1.68-19.93-1.99-29.96-1.78c-3.58,0.07-7.23-0.09-10.71,0.6c-7.21,1.44-14.57,2.48-21.21,6.02
			c-5.53,2.95-11.36,5.41-16.59,8.81c-6.95,4.51-13.46,9.72-17.28,17.16c-0.99-0.54-1.61-1.04-2.3-1.18
			c-0.27-0.05-0.89,0.66-1.03,1.12c-1.31,4.26-2.53,8.55-3.81,12.83c-2.14,7.13-4.24,14.26-6.47,21.36
			c-1.39,4.41-3.64,8.67-2.63,13.47c1.19,5.62,2.8,11.12,5.28,16.36c3,6.32,7.9,9.56,14.76,9.8c3.8,0.14,7.5-0.41,10.22-3.56
			c4.85-5.62,9.69-11.25,14.6-16.95c-0.11,1.56-0.32,3.17-0.31,4.77c0.02,4-0.71,8.07,0.9,11.94c3.71,8.9,8.92,16.7,16.78,22.49
			c3.03,2.24,6.33,3.84,10.07,4.64c5.4,1.16,10.74,0.33,16.03-0.4c4.39-0.61,8.86-1.26,12.77-3.76c2.04-1.3,4.16-1.41,6.72-1.09
			c4.11,0.5,8.35-0.04,12.54-0.24c11.13-0.54,22.26-1.26,33.4-1.67c7.47-0.28,14.95-0.11,22.42-0.22c3.21-0.05,6.42-0.48,9.63-0.42
			c5.18,0.09,10.36,0.44,15.23,0.66c1.59-3.94,3.17-7.44,4.43-11.05c1.72-4.9,3.39-9.83,4.72-14.84c0.89-3.34,1.87-6.46,4.81-8.54
			c2.07-1.47,4.19-2.85,6.26-4.31c3.42-2.42,7.56-3.94,9.48-8.18c0.67-1.48,5.16-2.36,6.04-1.2c1.17,1.53,2.42,3.36,2.63,5.18
			c0.55,4.8-2.02,8.49-5.07,11.96c-2.66,3.01-5.43,6.02-7.47,9.44c-3.89,6.53-7.41,13.29-10.88,20.06
			c-2.83,5.5-5.75,11.01-7.95,16.77c-4.53,11.92-8.63,24.01-12.86,36.05c-1.14,3.23-2.47,6.45-3.14,9.79
			c-1.07,5.33-3.57,8.89-9.3,9.56c-0.45,0.05-0.8,0.88-1.2,1.34c1.45-0.38,2.64-0.6,3.77-1c3.44-1.21,6.69-2.4,7.79-6.68
			c1.51-5.92,3.43-11.75,5.41-17.53c2.73-7.98,5.56-15.94,8.59-23.81c2.39-6.2,4.93-12.36,7.8-18.35c2.92-6.1,6.39-11.93,9.5-17.94
			c2.97-5.72,6.73-10.84,11.08-15.57c3.57-3.88,6.25-8.19,5.98-13.81c-0.22-4.61-2.94-7.64-7.19-7.49c-2.43,0.09-4.64,0.7-5.79,3.39
			c-0.61,1.43-1.66,2.9-2.92,3.76c-3.24,2.2-6.88,3.83-10.02,6.16c-2.25,1.67-4.68,3.8-5.72,6.27c-1.77,4.2-2.29,8.92-3.75,13.28
			c-1.79,5.37-4.01,10.6-5.97,15.71c-31.17-1.69-61.65,0.63-92.13,1.57c2.96-2.67,5.94-4.87,8.29-7.61c2.55-2.97,4.8-6.3,6.67-9.75
			C705.07,489.4,706.53,485.36,708.23,481.46z M531.62,145.87c-0.18-0.04-0.36-0.08-0.54-0.12c-0.27,0.42-0.71,0.81-0.78,1.27
			c-0.66,4.2-1.47,8.39-1.8,12.62c-0.37,4.84-0.41,9.72-0.37,14.59c0.1,16.23,0.3,32.46,0.47,48.69c0.01,1.12,0.03,2.24,0.16,3.35
			c0.52,4.45,1.13,8.89,1.62,13.34c0.66,6.08,1.21,12.17,1.84,18.26c0.51,4.98,1.27,9.94,1.53,14.93
			c0.65,12.65-0.03,25.28-1.13,37.89c-0.94,10.65-1.88,21.3-2.71,31.96c-0.4,5.07-0.67,10.15-0.77,15.24
			c-0.1,5.06-0.2,10.16,0.22,15.19c0.3,3.62,1.65,7.14,2.21,10.76c1.7,10.98,1.91,22.06,1.83,33.14
			c-0.07,9.36-0.17,18.72-0.27,28.08c-0.07,6.42-0.01,12.85-0.27,19.27c-0.24,5.82-0.98,11.62-1.21,17.44
			c-0.16,3.95,0.27,7.92,0.26,11.88c-0.03,10.92-0.32,21.84-0.17,32.75c0.12,8.89,0.71,17.77,1.13,26.65
			c0.2,4.26,0.24,8.55,0.81,12.76c0.74,5.46,2.06,10.85,2.9,16.3c1.41,9.22,0.48,18.61,2.41,27.86c1.37,6.55,1.31,13.39,1.86,20.11
			c0.23,2.8,0.89,3.47,3.78,3.26c3.09-0.22,6.17-0.61,9.25-0.86c3.49-0.28,6.98-0.69,10.47-0.67c6.37,0.04,12.74,0.31,19.11,0.58
			c3.09,0.13,6.16,0.57,9.24,0.73c7.3,0.38,14.6,0.77,21.91,0.98c11.43,0.33,22.86,0.54,34.29,0.76c7.75,0.15,15.5,0.31,23.25,0.3
			c8.59-0.01,17.18-0.15,25.77-0.32c5.41-0.11,10.82-0.51,16.23-0.51c4.02,0,8.04,0.5,12.06,0.66c1.32,0.05,2.66-0.24,4-0.38
			c-0.01-0.21-0.02-0.42-0.04-0.63c-0.73-0.1-1.46-0.28-2.19-0.28c-5.58-0.05-11.17-0.06-16.75-0.08
			c-6.95-0.03-13.9-0.11-20.85-0.07c-6.71,0.04-13.42,0.35-20.12,0.3c-5.98-0.04-11.95-0.49-17.93-0.6
			c-11.29-0.21-22.59-0.23-33.88-0.49c-7.25-0.17-14.5-0.62-21.75-0.93c-3.5-0.15-7.01-0.25-10.51-0.4
			c-7.77-0.34-15.53-0.89-23.29-0.99c-6.04-0.08-12.09,0.3-18.13,0.67c-2.06,0.13-2.51-0.62-2.61-2.48
			c-0.29-5.08-0.7-10.15-1.19-15.21c-0.69-7.19-1.55-14.37-2.24-21.56c-0.44-4.61-0.19-9.34-1.13-13.83
			c-2.04-9.78-2.73-19.67-3.17-29.59c-0.17-3.82-0.01-7.65-0.16-11.46c-0.37-9.38-1.06-18.75-1.21-28.12
			c-0.14-8.67,0.25-17.35,0.39-26.03c0.04-2.62-0.14-5.25,0.09-7.85c0.52-5.93,1.29-11.83,1.82-17.76c0.11-1.23-0.41-2.51-0.63-3.76
			c-0.07-0.71,0.34-1.5,0.37-2.3c0.1-2.46,0.08-4.93,0.07-7.39c-0.08-16.02,0.04-32.05-0.35-48.06c-0.14-5.7-1.37-11.4-2.42-17.05
			c-1.05-5.7-2.55-11.29-1.81-17.22c0.6-4.73,0.67-9.53,0.95-14.29c0.3-5.06,0.47-10.12,0.87-15.17c0.6-7.66,1.45-15.3,2.01-22.96
			c0.44-6.05,0.83-12.11,0.85-18.17c0.03-9.04,0.07-18.11-0.54-27.12c-0.55-8.11-2.12-16.14-2.97-24.23
			c-0.91-8.61-1.88-17.24-2.15-25.88c-0.37-12.27-0.24-24.55-0.1-36.83c0.11-9.72-0.13-19.49,2.13-29.06
			C531.75,147.15,531.62,146.5,531.62,145.87z M535.11,366.69c0.06,0.3,0.13,0.59,0.19,0.89c1.1,0,2.24,0.19,3.29-0.03
			c4.38-0.9,8.68-2.26,13.09-2.83c8.06-1.04,16.16-1.8,24.26-2.35c4.99-0.33,10.03,0.01,15.05-0.05c10.6-0.14,21.21-0.35,31.81-0.52
			c0.29,0,0.74-0.01,0.84,0.15c1.04,1.69,2.56,0.76,3.87,0.69c1.63-0.08,3.23-0.48,4.86-0.59c2.6-0.16,5.22-0.26,7.82-0.27
			c4.55,0,9.11-0.05,13.66,0.17c5.66,0.27,11.31,1.11,16.97,1.14c7.16,0.04,14.32-0.61,21.49-0.76c8.14-0.17,16.29-0.29,24.43-0.1
			c7.89,0.18,15.78,0.69,23.67,1.22c3.49,0.23,6.94,1,10.43,1.26c6.24,0.46,12.51,0.63,18.75,1.11c3.96,0.3,7.88,1.08,11.84,1.36
			c3.28,0.24,6.59,0.1,9.88,0.07c2.65-0.02,5.33,0.1,7.94-0.25c4.09-0.56,8.1-1.68,12.19-2.19c3.89-0.48,7.86-0.35,11.77-0.7
			c2.61-0.23,5.18-0.83,7.78-1.26c0.04-0.23,0.07-0.46,0.11-0.69c-0.67-0.28-1.37-0.86-2-0.8c-8.39,0.82-16.77,1.76-25.16,2.59
			c-5.2,0.51-10.43,1.42-15.61,1.2c-11.64-0.5-23.25-1.61-34.88-2.43c-13.05-0.92-26.09-1.99-39.15-2.63
			c-7.37-0.36-14.82-0.44-22.16,0.18c-8.67,0.73-17.29,1.23-25.97,0.48c-4.08-0.35-8.14-1-12.22-1.15
			c-4.83-0.19-9.68-0.02-14.53,0.05c-5.97,0.08-11.95,0.23-17.92,0.32c-17.94,0.27-35.88,0.46-53.82,0.82
			c-10.26,0.2-20.26,2.3-30.24,4.51C536.6,365.5,535.88,366.22,535.11,366.69z M537.36,339.71c0,0.32,0,0.64,0,0.95
			c0.66,0.17,1.33,0.51,1.97,0.46c2.69-0.17,5.38-0.34,8.05-0.72c7.14-1.03,14.25-2.36,21.41-3.22c10.29-1.23,20.59-2.47,30.93-3.12
			c11.32-0.71,22.68-1.04,34.01-0.98c8.51,0.04,17.01,0.93,25.51,1.51c0.56,0.04,1.37,0.59,1.57,1.1c0.76,1.85,1.31,3.79,2.01,5.91
			c2.07-2.76-0.69-4.68-1.01-6.48c2.85-0.46,5.58-1.03,8.35-1.31c6.16-0.64,12.32-1.3,18.5-1.64c7.38-0.4,14.77-0.4,22.15-0.72
			c6.4-0.28,12.8-0.76,19.19-1.16c3.72-0.23,7.44-0.63,11.17-0.69c6.86-0.11,13.73,0.13,20.59-0.06c8.12-0.23,16.23-0.79,24.34-1.19
			c9.09-0.45,18.17-0.96,27.26-1.29c6.26-0.23,12.53-0.2,18.8-0.26c2.5-0.03,5,0,7.5,0c0.06-0.32,0.12-0.64,0.18-0.96
			c-1.55-0.37-3.09-1.01-4.65-1.06c-4.1-0.12-8.2,0.03-12.3,0.04c-10.55,0.02-21.06,0.16-31.59,1.3c-9.42,1.02-18.96,0.9-28.46,1.22
			c-8.37,0.28-16.74,0.4-25.1,0.72c-13.82,0.53-27.65,1.08-41.47,1.78c-7.23,0.37-14.46,0.91-21.66,1.71
			c-7.07,0.78-14.13,1.1-21.23,0.81c-10.59-0.43-21.18-1.31-31.76-1.15c-11.86,0.19-23.72,1.21-35.57,2.1
			c-6.18,0.47-12.33,1.4-18.49,2.2c-8.51,1.1-17.02,2.24-25.53,3.39C540.46,339.12,538.92,339.44,537.36,339.71z M824.99,549.85
			c0.3,0.04,0.59,0.08,0.89,0.12c0.1-0.75,0.22-1.5,0.29-2.25c0.38-3.93,0.7-7.86,1.12-11.79c0.97-8.97,2.16-17.92,2.95-26.91
			c1.01-11.51,1.7-23.05,2.58-34.58c0.36-4.69,0.86-9.38,1.28-14.07c0.29-3.28,0.84-6.56,0.78-9.83c-0.14-7.77-0.7-15.53-0.85-23.3
			c-0.22-11.82-0.19-23.64,0.91-35.44c0.69-7.4,2.23-14.59,4.04-21.76c1.28-5.04,2.34-10.16,3.17-15.29
			c0.96-5.96,1.53-11.97,2.32-17.96c0.67-5.09,1.69-10.16,2.06-15.27c0.4-5.58,0.36-11.2,0.26-16.8c-0.08-4.55-0.34-9.11-0.88-13.63
			c-0.34-2.85-1.09-5.71-2.1-8.4c-1.4-3.71-3.25-7.24-4.84-10.87c-1.43-3.25-2.77-6.53-4.15-9.8c-2.39-5.7-5.01-11.32-7.11-17.13
			c-2.57-7.12-5.66-14.09-6.92-21.65c-0.23-1.4-0.91-2.73-1.39-4.09c-0.19,0.04-0.38,0.08-0.57,0.13c0.18,1.07,0.35,2.15,0.56,3.21
			c0.27,1.38,0.47,2.78,0.86,4.13c1.24,4.3,2.3,8.68,3.89,12.85c1.95,5.1,4.47,9.98,6.57,15.02c1.25,3,2.04,6.19,3.24,9.21
			c1.26,3.17,2.89,6.19,4.11,9.36c2.03,5.25,4.27,10.47,5.65,15.91c1.15,4.51,1.5,9.3,1.67,13.98c0.22,6.11,0.23,12.26-0.25,18.35
			c-0.48,6.17-1.66,12.29-2.53,18.44c-1.2,8.44-2.19,16.93-3.69,25.32c-1.14,6.35-3.31,12.53-4.37,18.89
			c-1.1,6.63-1.79,13.37-1.97,20.08c-0.29,11.01-0.29,22.03,0.07,33.04c0.36,10.92,0.46,21.78-0.68,32.68
			c-1.29,12.34-1.79,24.77-2.83,37.14c-0.85,10.04-2.01,20.06-3,30.1C825.72,541.28,825.37,545.56,824.99,549.85z M558.57,238.62
			c-1.24-0.93-2.46-1.64-3.42-2.61c-3.11-3.14-4.02-7.35-5.37-11.35c-1.53-4.57-1.32-9.31-1.19-13.99
			c0.11-3.93,0.18-8.06,2.93-11.31c4-4.72,8.71-8.66,14.46-11.06c9.28-3.87,18.58-4.42,27.6,0.82c5.95,3.45,10,8.7,13.05,14.73
			c2.42,4.78,3.76,9.83,2.1,15.16c-0.91,2.91-1.95,5.85-3.42,8.5c-7.21,12.98-18.35,19.41-34.06,17.4c-0.7-0.09-1.41-0.11-2.12-0.17
			c0.54,0.89,1.23,1.41,2.01,1.62c4.45,1.25,8.87,0.51,13.29-0.25c5.64-0.97,10.37-3.83,14.33-7.71c5.03-4.93,9-10.63,11.17-17.54
			c1.52-4.84,1.76-9.82,0.32-14.32c-1.28-3.99-3.59-7.84-6.56-11.21c-3.83-4.34-8-7.92-13.48-9.9c-6.8-2.46-13.71-1.99-20.45-0.21
			c-6.51,1.72-12.1,5.42-16.84,10.2c-2,2.02-4.56,4.32-5.04,6.84c-1.05,5.44-1.52,11.15-1.11,16.67c0.33,4.36,1.96,8.76,3.72,12.84
			c1.12,2.61,3.44,4.74,5.38,6.94C556.59,239.53,557.75,239.81,558.57,238.62z M693.4,586.26c-1.17,0.78-2.52,1.38-3.46,2.37
			c-2,2.1-4.56,2.9-7.22,3.48c-4.84,1.04-9.73,1.86-14.56,2.93c-3.34,0.74-6.67,0.96-9.89-0.2c-3.34-1.2-4.95-3.89-3.41-6.02
			c1.07-1.48,3.05-2.79,4.84-3.17c5.06-1.08,10.05-2.19,14.31-5.28c2.88-2.09,6.04-4.02,8.31-6.68c2.58-3.02,4.27-6.79,6.45-10.17
			c0.4-0.62,1.29-1.31,1.95-1.31c1.33,0,3.07-0.9,3.85,1.12c0.94,2.42,2.01,4.79,2.82,7.26c1.19,3.65,2.17,7.37,3.29,11.04
			c0.41,1.34,0.92,2.66,1.51,3.93c0.14,0.29,0.81,0.34,1.23,0.5c0.04-0.39,0.21-0.82,0.1-1.16c-0.44-1.43-0.97-2.82-1.44-4.24
			c-1.86-5.54-3.52-11.16-5.69-16.57c-0.61-1.53-2.57-2.78-4.2-3.53c-0.77-0.36-2.1,0.46-3.08-0.63c-0.19-0.21-1.26,0.38-1.92,0.61
			c-0.51,0.17-1.24,0.66-1.49,0.48c-1.98-1.43-4.16-2.73-5.71-4.56c-3.56-4.18-6.81-8.64-10.18-12.99
			c-2.19-2.83-4.27-5.76-6.57-8.49c-3.56-4.23-6.14-8.64-3.99-14.52c-0.57,0.41-1.04,0.83-1.35,1.35c-1.77,2.93-0.66,8.44,2.1,11.62
			c2.72,3.14,5.32,6.41,7.87,9.7c1.5,1.94,2.8,4.03,4.21,6.04c3.15,4.49,6.93,8.31,11.57,11.31c2.79,1.8,2.69,1.95,1.05,4.87
			c-0.11,0.2-0.21,0.4-0.31,0.6c-3.19,6.51-8.72,10.55-14.68,14.26c-2.29,1.43-5.56,0.98-7.1,3.78c-0.09,0.16-0.67,0.27-0.81,0.15
			c-2.2-1.81-4.23-0.19-6.14,0.47c-3.67,1.26-4.69,5.71-2.03,8.58c3.73,4.02,8.36,5.28,13.68,3.93c2.89-0.74,5.75-2.09,8.64-2.12
			c3.42-0.04,6.47-1.01,9.52-2.13C688.77,591.61,691.63,589.59,693.4,586.26z M571.26,230.93c-0.13-0.2-0.26-0.39-0.38-0.59
			c2.08-2.48,4.04-5.07,6.26-7.43c4.68-4.99,8.03-10.53,7.14-17.65c-0.64-5.14-3.94-8.36-9.05-7.02c-4.59,1.2-8.69,3.5-12.2,6.8
			c-1.31,1.23-1.5,2.27-0.05,3.63c0.42-0.33,0.82-0.63,1.2-0.94c3.99-3.24,7.92-6.69,13.49-6.59c1.12,0.02,2.55,0.39,3.3,1.14
			c2.81,2.8,1.93,6.2,0.97,9.46c-1.39,4.69-4.89,7.94-7.93,11.54c-2.58,3.04-4.8,6.37-7.62,10.16c1.71,0.19,2.65,0.51,3.5,0.34
			c2.1-0.42,4.13-1.21,6.24-1.59c6.35-1.16,12.55-3.35,19.16-2.95c0.34,0.02,0.72-0.56,1.08-0.86c-0.32-0.37-0.57-0.88-0.98-1.06
			c-0.44-0.2-1.04-0.18-1.55-0.11c-4.5,0.65-9,1.28-13.49,2.01C577.3,229.7,574.28,230.35,571.26,230.93z M755.75,220.73
			c-3.29,0.4-5.93,0.86-8.59,1.02c-5.01,0.3-9.98,0.32-14.7-1.99c-4.17-2.04-8.5-3.75-12.96-5.69c-0.01,0.04,0.05-0.49,0.31-0.9
			c2.81-4.5,5.62-8.99,8.49-13.46c2.14-3.33,4.38-6.59,6.51-9.93c0.22-0.35-0.05-1-0.09-1.52c-0.5,0.1-1.09,0.06-1.48,0.32
			c-0.47,0.32-0.81,0.87-1.13,1.38c-4.83,7.62-9.69,15.23-14.47,22.88c-4.09,6.57-7.75,13.44-13.69,18.67
			c-0.28,0.24-0.43,1.14-0.27,1.27c0.38,0.31,1.08,0.59,1.49,0.44c0.59-0.21,1.1-0.76,1.53-1.27c3.81-4.47,7.68-8.9,11.34-13.5
			c1.17-1.47,2.41-1.99,4.05-1.52c1.64,0.47,3.25,1.1,4.81,1.8c5.14,2.32,9.95,5.45,16,5.11
			C747.25,223.61,751.5,223.4,755.75,220.73z M752.98,548.29c1.1,2.2,1.92,3.74,1.76,5.92c-0.51,7-4.62,11.92-8.96,16.7
			c-3.29,3.62-6.88,6.98-10.37,10.42c-0.36,0.36-1.16,0.8-1.44,0.64c-1.64-0.93-1.88,0.44-2.04,1.33c-0.43,2.42-0.66,4.88-0.97,7.32
			c-0.02,0.14,0.01,0.31,0.07,0.44c1.14,2.16,3.04,3.49,5.35,3.61c2.22,0.12,4.69,0.45,6.55-1.52c2.78,1.4,10.59-0.9,13.9-4.5
			c-0.88,0-1.68,0.25-2.41,0.62c-0.72,0.36-1.34,1.07-2.09,1.24c-4.25,0.96-8.5,1.95-12.81,2.6c-1.61,0.24-3.39-0.26-5.01-0.7
			c-0.61-0.17-1.53-1.42-1.39-1.72c1.55-3.14,1.83-6.79,4.78-9.4c4.35-3.84,8.31-8.14,12.33-12.35c1.5-1.57,2.71-3.42,4.3-5.46
			c0.45,3.39,0.79,6.39,1.27,9.36c0.46,2.88,2.88,6.23,5.16,7.16c-2.1-2.95-3.84-5.82-4.02-9.4c-0.26-5.24-3.05-10.74,1.73-15.43
			c0.18-0.17,0.07-0.98-0.15-1.14c-0.34-0.24-0.99-0.35-1.33-0.18c-0.3,0.15-0.36,0.77-0.53,1.19
			C755.65,552.42,756.65,549.55,752.98,548.29z M655.15,231.17c1.63-1.64,2.91-2.71,3.93-3.99c4.88-6.11,8.49-12.6,7.95-20.94
			c-0.25-3.93-1.74-6.44-5.12-7.78c-1.62-0.64-3.09-0.85-2.62-3.1c0.07-0.35-0.32-0.8-0.48-1.17c-1.48,1.58-2.35,3-3.61,3.76
			c-2.85,1.7-6.05,2.84-8.83,4.64c-3.15,2.03-5.26,5.05-6.15,8.77c-0.14,0.58,0.27,1.29,0.42,1.93c0.26,0.06,0.52,0.11,0.78,0.17
			c1.13-7.34,6.63-10.29,12.49-12.94c-1.39,2.71-3.07,5.2-4.72,7.71c-0.56,0.85-1.38,1.71-1.49,2.64c-0.37,2.92-1.95,5.06-3.85,7.12
			c-0.51,0.56-0.74,1.38-1.24,2.37c2.03-0.31,6.29-4.52,6.47-6.18c0.18-1.65,0.45-2.96,1.7-4.36c1.95-2.19,3.27-4.95,4.85-7.47
			c2.2-3.49,3.77-4.04,7.15-1.55c3.24,2.39,2.78,6.13,2.55,9.44c-0.32,4.63-2.39,8.75-5.04,12.54c-1.18,1.68-2.44,3.3-3.45,4.66
			c-2.95-1.44-5.47-2.66-8-3.89c-0.14,0.23-0.28,0.46-0.43,0.69C650.97,226.01,654.54,226.7,655.15,231.17z M818.08,217.91
			c0.2-0.05,0.41-0.09,0.61-0.14c-0.38-2.5-0.66-5.02-1.16-7.49c-0.43-2.11-1.33-4.13-1.65-6.24c-0.62-4.12-1.07-8.27-1.43-12.42
			c-0.4-4.62-0.69-9.24-0.88-13.87c-0.31-7.64-0.49-15.29-0.73-23.12c-4.21-0.3-7.95-0.7-11.7-0.8c-4.31-0.12-8.64-0.1-12.95,0.06
			c-7,0.25-14.01,0.61-21,1.01c-2.4,0.14-4.8,0.48-7.18,0.82c-0.28,0.04-0.48,0.66-1.02,1.45c1.92-0.27,3.27-0.55,4.64-0.63
			c6.11-0.34,12.21-0.81,18.32-0.9c8.73-0.12,17.46,0.02,26.19,0.11c1.83,0.02,3.08,0.79,3.15,2.94c0.17,4.92,0.51,9.83,0.69,14.74
			c0.11,3.2-0.13,6.42,0.1,9.61c0.27,3.77,0.85,7.52,1.35,11.27c0.42,3.14,0.86,6.28,1.39,9.41c0.58,3.45,1.21,6.9,1.93,10.33
			C817.05,215.38,817.64,216.63,818.08,217.91z M703.42,587.3c1.05,0.72,1.57,1.17,2.17,1.45c2.53,1.19,4.21,0.35,5.43-2.02
			c2.49-4.86,3.79-10.05,4.72-15.35c1.09-6.24,2.51-12.43,0.96-18.89c-0.82-3.42-0.68-7.07-0.96-10.47
			c6.07-1.84,12.15-2.03,17.61-4.62c-0.31-0.39-0.59-0.58-0.83-0.54c-5.73,1.15-11.45,2.35-17.19,3.49
			c-1.16,0.23-1.63,0.63-1.48,1.94c0.47,4.22,1.02,8.44,1.1,12.68c0.06,3.47-0.33,6.97-0.82,10.42c-1.13,7.81-2.47,15.58-6.36,22.91
			C706.57,588.02,705.3,587.73,703.42,587.3z M639.9,152.78c0.09-0.29,0.18-0.58,0.27-0.88c-0.58-0.26-1.15-0.67-1.75-0.74
			c-2.37-0.25-4.76-0.32-7.13-0.57c-8.08-0.84-16.19-1.58-24.24-2.65c-10.2-1.36-20.41-0.8-30.63-0.72
			c-0.88,0.01-1.75,0.51-2.63,0.78c0.02,0.21,0.05,0.42,0.07,0.63c0.7,0.08,1.41,0.23,2.11,0.24c4.73,0.04,9.47-0.11,14.2,0.11
			c6.15,0.28,12.29,0.82,18.43,1.3c5.19,0.41,10.38,0.93,15.57,1.35C629.42,152.04,634.66,152.4,639.9,152.78z M575.46,345.53
			c4-1.24,7.54-1.59,10.51-3.55c-0.56-0.38-1.07-0.59-1.54-0.51c-1.47,0.24-2.93,0.52-4.37,0.92c-3.36,0.92-3.61,0.8-5.44-2.15
			c-0.77-1.24-1.49-2.79-3.71-2.31c1.09,2.06,2.1,3.97,3.26,6.15c-2.23,0.5-3.98,0.8-5.67,1.31c-0.58,0.18-1,0.9-1.49,1.37
			c0.58,0.19,1.19,0.6,1.73,0.52c1.7-0.25,3.37-0.68,4.98-1.03c-2.84,5.06-7.58,7.24-12.95,8.47c-0.54,0.12-0.98,0.65-1.47,0.99
			c0.56,0.21,1.21,0.7,1.68,0.57c3-0.81,6.1-1.45,8.89-2.75c2.13-0.99,3.84-2.85,5.86-4.42c3.73,2.2,7.2,5.62,12.37,5.44
			c-0.77-0.93-1.67-1.7-2.69-2.24c-2.23-1.19-4.61-2.13-6.76-3.45C577.51,348.16,576.73,346.89,575.46,345.53z M638.29,340.28
			c-0.32,1.92-0.71,3.36-0.76,4.81c-0.05,1.47,0.12,2.98,0.44,4.42c0.44,2,1.44,3.63,3.78,3.85c2.35,0.22,4.14-0.76,5.08-2.85
			c1.06-2.34,1.8-4.82,2.71-7.23c0.16-0.44,0.43-0.84,0.65-1.26c0.42,0.25,0.92,0.43,1.26,0.77c0.63,0.63,1.13,1.38,1.75,2.03
			c0.97,1.03,1.99,2.01,3,3c0.22-0.17,0.44-0.33,0.65-0.5c-0.37-0.72-0.63-1.52-1.13-2.13c-0.9-1.09-1.91-2.1-2.95-3.07
			c-1.03-0.96-2.15-1.82-3.23-2.73c-0.69,1.27-1.39,2.54-2.07,3.81c-0.03,0.06,0.01,0.16-0.02,0.22c-1.11,2.55-1.2,5.62-3.86,7.38
			c-1.69,1.12-3.23,0.86-3.47-0.96c-0.45-3.52-0.69-7.08,1.87-10.15c0.49-0.58,0.44-1.75,0.33-2.6c-0.03-0.21-1.51-0.58-1.97-0.3
			c-2.16,1.29-4.23,2.76-6.26,4.26c-0.27,0.2-0.15,0.91-0.22,1.38c0.52,0.02,1.14,0.24,1.53,0.02
			C636.26,341.95,637.03,341.24,638.29,340.28z M618.7,348.93c0.32,0.23,0.63,0.46,0.95,0.69c0.58-0.83,1.13-1.7,1.76-2.5
			c2.8-3.52,1.45-8.15-2.76-9.49c-1.06-0.34-2.09-0.84-3.18-1.02c-6.62-1.12-12.73,1.38-12.99,9.05c-0.04,1.25,1.38,3.05,2.59,3.7
			c0.99,0.53,3.16,0.21,3.98-0.59c1.7-1.65,1.42-7.71-0.03-9.75c2.73-1.55,5.48-0.88,8.17,0.01c3.75,1.24,4.12,2.21,2.57,6.03
			c-0.14,0.35-0.3,0.69-0.39,1.05C619.13,347.04,618.92,347.99,618.7,348.93z M773.73,343.24c0.91,2.35,1.54,4.17,2.33,5.92
			c1.02,2.27,2.76,3.65,5.33,3.84c2.02,0.15,4.52-1.68,4.61-3.52c-0.44,0.2-0.85,0.37-1.23,0.57c-3.6,1.93-5.31,1.35-6.98-2.42
			c-0.99-2.24-1.9-4.51-2.85-6.77c0.19-0.23,0.36-0.38,0.47-0.56c1.15-1.87,2.33-3.72,3.4-5.64c0.14-0.25-0.33-0.85-0.52-1.28
			c-0.47,0.23-1.11,0.34-1.37,0.71c-3.31,4.88-7.23,9.2-11.58,13.16c-0.48,0.44-0.6,1.27-0.88,1.92c0.83,0.07,1.71,0.35,2.47,0.16
			c0.66-0.16,1.23-0.82,1.77-1.32C770.27,346.55,771.81,345.07,773.73,343.24z M537.79,146.37c0.07,0.22,0.14,0.45,0.21,0.67
			c0.41,0.08,0.82,0.24,1.23,0.21c2.27-0.13,4.53-0.37,6.79-0.45c2.79-0.1,5.6-0.22,8.39-0.11c5.21,0.21,10.72-1.51,15.4,2.52
			c0.28-2.46-0.37-3.23-3.23-3.84c-9.08-1.91-18.12-0.4-27.17,0.31C538.84,145.74,538.32,146.14,537.79,146.37z M720.03,154.63
			c-0.04,0.19-0.09,0.39-0.13,0.58c1.75,0.3,3.48,0.68,5.24,0.89c4.78,0.57,9.71,0.01,14.31,2.01c0.64,0.28,1.48,0.19,2.22,0.16
			c2.98-0.11,5.95-0.23,8.93-0.43c2.34-0.16,4.68-0.44,7.02-0.66c-1.99-1.63-12.66-1.01-14.61,0c-1.91-0.63-3.26-1.39-4.67-1.49
			C732.24,155.24,726.13,154.97,720.03,154.63z M690.8,357.15c0.21,0.13,0.42,0.27,0.63,0.4c2.74-1.75,4.45-4.37,5.47-7.36
			c0.89-2.6-0.51-5.14-2.89-6.04c-3.73-1.41-10.67,1.01-12.74,4.46c-0.04,0.07,0.09,0.25,0.2,0.5c0.32-0.03,0.72,0.03,1.01-0.12
			c1.56-0.82,3.11-1.65,4.61-2.56c2.45-1.48,6-1.75,7.36-0.49c1.32,1.23,1.05,3.48-0.82,6.59
			C692.71,354.08,691.75,355.61,690.8,357.15z M702.48,340.75c2.05,3.91,3.97,7.74,6.06,11.48c0.64,1.14,1.61,2.2,2.68,2.94
			c0.62,0.43,2.2,0.55,2.53,0.15c1.49-1.84,1.26-4.15,1.54-6.31c-0.19-0.06-0.37-0.13-0.56-0.19c-0.92,1.52-1.83,3.04-2.93,4.87
			c-0.79-1.25-1.44-2.14-1.94-3.1c-1.31-2.51-2.44-5.12-3.88-7.54C705.29,341.89,704.48,340.4,702.48,340.75z M665.61,357.26
			c-0.47-2.91-2.65-1.75-4.3-2.12c0.47-0.34,0.94-0.51,1.15-0.85c0.41-0.64,0.67-1.38,0.99-2.07c-0.66,0.18-1.49,0.17-1.95,0.57
			c-0.76,0.67-1.29,1.6-1.99,2.52c-1.25-1.31-2.07-2.17-2.9-3.04c-0.23,0.17-0.47,0.34-0.7,0.51c0.71,1.04,1.42,2.07,1.88,2.74
			c-0.49,1.05-1.28,2.06-1.06,2.39c0.47,0.7,1.5,1.46,2.24,1.41c0.71-0.05,1.35-1.1,2.39-2.05
			C662.24,357.26,663.72,357.26,665.61,357.26z M675.09,189.3c0.51,3.66,8.31,16.53,10.37,17.3
			C682.36,200.6,679.63,194.4,675.09,189.3z M664.19,154.34c0-0.36,0-0.71,0-1.07c-5.73-0.45-11.42-1.85-16.61-0.73
			c-0.94-0.57-1.52-0.93-2.47-1.52c0.42,2.62,1.67,2.92,3.5,2.88c2.64-0.06,5.29,0.33,7.95,0.41
			C659.09,154.41,661.64,154.34,664.19,154.34z M824.15,577.81c-1.18,7.76-2.26,15.53-2.24,23.4
			C822.93,593.44,825.26,585.79,824.15,577.81z M735.98,337.45c0.99,5.31,5.13,9.3,2.37,14.86c1.84-0.57,2.78-1.21,2.85-2.84
			c0.18-3.87-1.42-7.26-2.89-10.67C738.08,338.25,737.06,338.04,735.98,337.45z M824.05,559.82c0,5.62,0,11.24,0,17.18
			C825.93,574.44,826.01,563.56,824.05,559.82z M740.62,538.51c5.4,1.18,7.53,6.53,11.99,9.65
			C751.24,543.79,744.32,538.33,740.62,538.51z M819.75,615.76c-0.19-0.04-0.38-0.08-0.57-0.12c-0.98,4.87-1.97,9.74-3.08,15.25
			C819.08,625.77,819.52,620.79,819.75,615.76z M753.4,637.01c4.34,0,8.68,0,12.95,0C765.83,635.61,763.13,635.45,753.4,637.01z
			 M684.32,333.64c-0.14,2.25,3.65,5.52,6.67,5.75C689.45,336.45,686.95,335.1,684.32,333.64z M701.23,154.8
			c0-0.29,0.01-0.59,0.01-0.88c-3.14-0.06-6.27-0.15-9.41-0.15c-0.37,0-0.75,0.47-1.12,0.71c0.06,0.27,0.11,0.53,0.17,0.8
			C694.33,155.12,697.78,154.96,701.23,154.8z M587.74,337.31c-0.2,0.18-0.39,0.35-0.59,0.53c1.79,2.33,3.58,4.65,5.38,6.98
			c0.25-0.2,0.5-0.4,0.74-0.59C591.38,341.96,590.54,338.86,587.74,337.31z M793.79,636.89c-0.01-0.22-0.02-0.44-0.04-0.67
			c-3.04,0-6.08,0-9.13,0c0,0.22,0,0.44,0.01,0.67C787.69,636.89,790.74,636.89,793.79,636.89z M746.19,636.03
			c0.01-0.31,0.03-0.61,0.04-0.92c-3.17-0.16-6.33-0.32-9.5-0.48c-0.01,0.27-0.02,0.54-0.03,0.81
			C739.86,635.64,743.03,635.84,746.19,636.03z M697.79,577.83c-1.08,2.17-2.16,4.34-3.43,6.87
			C697.85,583.27,697.46,580.34,697.79,577.83z M821.7,603.91c-0.29-0.02-0.58-0.04-0.88-0.06c-0.4,3.01-0.8,6.02-1.2,9.04
			c0.29,0.04,0.58,0.08,0.87,0.12C820.9,609.98,821.3,606.94,821.7,603.91z M678.53,154.2c1.21,1.71,4.29,1.45,5.6-0.35
			C681.96,153.99,680.25,154.1,678.53,154.2z M826.12,551.2c-0.35-0.05-0.7-0.11-1.05-0.16c-0.29,1.97-0.57,3.95-0.86,5.92
			c0.34,0.06,0.69,0.11,1.03,0.17C825.54,555.15,825.83,553.18,826.12,551.2z M657.18,337.78c1.09,1.62,2.07,3.07,3.04,4.51
			C660.41,339.51,659.06,337.71,657.18,337.78z M781.96,636.96c0.01-0.22,0.03-0.44,0.04-0.66c-1.76,0-3.52,0-5.27,0
			c0,0.22-0.01,0.44-0.01,0.66C778.47,636.96,780.22,636.96,781.96,636.96z M568.43,241.19c-0.01-0.28-0.03-0.57-0.04-0.85
			c-1.66-0.09-3.31-0.18-4.97-0.26c-0.01,0.37-0.03,0.74-0.04,1.11C565.07,241.19,566.75,241.19,568.43,241.19z"/>
		<path d="M708.23,481.46c-1.7,3.9-3.15,7.95-5.18,11.67c-1.88,3.45-4.12,6.77-6.67,9.75c-2.35,2.74-5.34,4.94-8.29,7.61
			c30.47-0.93,60.95-3.26,92.13-1.57c1.96-5.11,4.18-10.34,5.97-15.71c1.46-4.36,1.98-9.08,3.75-13.28c1.04-2.47,3.47-4.6,5.72-6.27
			c3.13-2.33,6.78-3.96,10.02-6.16c1.26-0.86,2.31-2.33,2.92-3.76c1.15-2.69,3.36-3.3,5.79-3.39c4.25-0.15,6.97,2.88,7.19,7.49
			c0.27,5.62-2.41,9.93-5.98,13.81c-4.36,4.73-8.12,9.84-11.08,15.57c-3.11,6.01-6.58,11.84-9.5,17.94
			c-2.87,5.99-5.41,12.15-7.8,18.35c-3.03,7.87-5.86,15.83-8.59,23.81c-1.98,5.79-3.9,11.61-5.41,17.53
			c-1.1,4.28-4.35,5.47-7.79,6.68c-1.13,0.4-2.33,0.62-3.77,1c0.4-0.47,0.76-1.29,1.2-1.34c5.73-0.68,8.22-4.23,9.3-9.56
			c0.67-3.34,2-6.55,3.14-9.79c4.24-12.03,8.33-24.13,12.86-36.05c2.19-5.77,5.12-11.27,7.95-16.77
			c3.47-6.77,6.98-13.53,10.88-20.06c2.04-3.42,4.82-6.43,7.47-9.44c3.06-3.46,5.63-7.15,5.07-11.96c-0.21-1.82-1.47-3.65-2.63-5.18
			c-0.89-1.16-5.37-0.28-6.04,1.2c-1.92,4.24-6.07,5.76-9.48,8.18c-2.07,1.46-4.19,2.85-6.26,4.31c-2.94,2.09-3.92,5.21-4.81,8.54
			c-1.34,5.01-3,9.94-4.72,14.84c-1.27,3.61-2.84,7.11-4.43,11.05c-4.88-0.23-10.05-0.57-15.23-0.66c-3.21-0.06-6.42,0.37-9.63,0.42
			c-7.47,0.11-14.95-0.06-22.42,0.22c-11.14,0.41-22.26,1.13-33.4,1.67c-4.18,0.2-8.43,0.75-12.54,0.24
			c-2.56-0.31-4.68-0.21-6.72,1.09c-3.91,2.5-8.38,3.15-12.77,3.76c-5.29,0.73-10.63,1.56-16.03,0.4c-3.73-0.8-7.03-2.4-10.07-4.64
			c-7.86-5.8-13.07-13.59-16.78-22.49c-1.61-3.86-0.88-7.94-0.9-11.94c-0.01-1.6,0.2-3.2,0.31-4.77c-4.91,5.7-9.75,11.32-14.6,16.95
			c-2.72,3.15-6.41,3.7-10.22,3.56c-6.86-0.24-11.76-3.48-14.76-9.8c-2.49-5.25-4.09-10.74-5.28-16.36
			c-1.01-4.8,1.24-9.07,2.63-13.47c2.23-7.1,4.34-14.24,6.47-21.36c1.28-4.27,2.5-8.56,3.81-12.83c0.14-0.46,0.76-1.17,1.03-1.12
			c0.69,0.14,1.32,0.64,2.3,1.18c3.82-7.45,10.33-12.65,17.28-17.16c5.23-3.4,11.07-5.86,16.59-8.81c6.64-3.54,14-4.59,21.21-6.02
			c3.47-0.69,7.13-0.53,10.71-0.6c10.03-0.21,20.02,0.09,29.96,1.78c4.33,0.73,8.77,0.76,13.15,1.28
			c5.77,0.68,11.63,1.19,16.79,4.27c5.49,3.28,9.92,7.58,12.88,13.37c1.93,3.78,4.12,7.43,6.15,11.17
			c2.35,4.34,3.84,8.96,4.48,13.87c0.88,6.78,2.49,13.55,2.51,20.33c0.02,7.81-1.17,15.64-2.17,23.42
			c-0.57,4.41-1.84,8.73-2.71,13.11c-0.77,3.89-3.55,6.07-6.8,7.49c-4.46,1.95-9.13,2.1-13.71,0.09l-0.05,0.05
			c3.04-0.05,6.09-0.05,9.13-0.16c3.9-0.14,8.66-3.59,9.5-7.34c1.23-5.46,2.18-10.99,3.02-16.53c0.7-4.65,1.21-9.33,1.55-14.02
			c0.28-4,0.82-8.02-0.49-12.03c-0.59-1.8-0.53-3.84-0.62-5.78c-0.29-6.15-1.01-12.25-3.62-17.88c-1.98-4.26-4.41-8.32-6.66-12.46
			c-1.28-2.36-2.34-4.9-3.96-7c-6.33-8.24-15.13-11.48-25.21-12.08c-4.77-0.28-9.54-0.75-14.29-1.26
			c-3.93-0.42-7.84-1.42-11.76-1.46c-9.03-0.11-18.12-0.29-27.1,0.5c-6.54,0.58-13.01,2.31-19.2,4.88
			c-9.93,4.12-19.35,9.1-27.35,16.33c-3.07,2.77-5.41,6.35-8.12,9.53c-0.78,0.91-2.09,1.56-2.48,2.58
			c-1.08,2.86-1.76,5.86-2.66,8.79c-2.25,7.34-4.45,14.69-6.84,21.98c-1.42,4.34-3.43,8.56-2.85,13.25
			c0.76,6.14,2.89,11.87,5.71,17.36c3.98,7.73,16.63,9.46,21.54,3.31c1.49-1.86,3.28-3.48,4.74-5.36
			c4.91-6.29,11.98-11.33,11.96-20.51c0-0.07,0.05-0.14,0.08-0.21c2.35-6.49,3.22-13.17,2.66-20.05c-0.08-1.03,0.18-2.09,0.32-3.45
			c0.49,0.47,0.71,0.58,0.79,0.76c2.69,6.55,1.59,13.15,0,19.68c-1.93,7.92-3.79,15.85-3.51,24.07c0.07,2.06,0.35,4.22,1.1,6.12
			c3.4,8.63,8.46,16.12,15.86,21.84c4.27,3.3,9.18,5.35,14.53,5.11c6.98-0.31,13.97-0.91,20.6-3.65
			c7.93-3.28,14.79-7.94,19.53-15.14c2.99-4.54,5.27-9.54,7.93-14.29c0.44-0.78,1.21-1.39,1.82-2.07L708.23,481.46z"/>
		<path d="M531.62,145.87c0,0.63,0.12,1.28-0.02,1.87c-2.27,9.57-2.03,19.34-2.13,29.06c-0.13,12.28-0.27,24.56,0.1,36.83
			c0.26,8.64,1.24,17.27,2.15,25.88c0.85,8.09,2.42,16.12,2.97,24.23c0.61,9.01,0.57,18.08,0.54,27.12
			c-0.02,6.06-0.41,12.13-0.85,18.17c-0.56,7.66-1.41,15.3-2.01,22.96c-0.4,5.05-0.57,10.11-0.87,15.17
			c-0.28,4.77-0.35,9.57-0.95,14.29c-0.75,5.93,0.75,11.52,1.81,17.22c1.04,5.65,2.27,11.35,2.42,17.05
			c0.4,16.01,0.28,32.04,0.35,48.06c0.01,2.47,0.03,4.93-0.07,7.39c-0.03,0.81-0.44,1.6-0.37,2.3c0.23,1.26,0.74,2.54,0.63,3.76
			c-0.53,5.93-1.3,11.83-1.82,17.76c-0.23,2.6-0.05,5.23-0.09,7.85c-0.14,8.68-0.54,17.36-0.39,26.03
			c0.15,9.38,0.84,18.75,1.21,28.12c0.15,3.82-0.01,7.65,0.16,11.46c0.45,9.92,1.13,19.81,3.17,29.59
			c0.94,4.49,0.69,9.22,1.13,13.83c0.69,7.19,1.54,14.37,2.24,21.56c0.49,5.06,0.9,10.13,1.19,15.21c0.1,1.86,0.55,2.6,2.61,2.48
			c6.04-0.37,12.09-0.75,18.13-0.67c7.77,0.1,15.53,0.65,23.29,0.99c3.5,0.15,7.01,0.25,10.51,0.4c7.25,0.31,14.49,0.77,21.75,0.93
			c11.29,0.26,22.59,0.28,33.88,0.49c5.98,0.11,11.95,0.56,17.93,0.6c6.71,0.04,13.42-0.26,20.12-0.3
			c6.95-0.05,13.9,0.04,20.85,0.07c5.58,0.02,11.17,0.03,16.75,0.08c0.73,0.01,1.46,0.18,2.19,0.28c0.01,0.21,0.02,0.42,0.04,0.63
			c-1.33,0.14-2.67,0.44-4,0.38c-4.02-0.16-8.04-0.66-12.06-0.66c-5.41,0-10.82,0.4-16.23,0.51c-8.59,0.17-17.18,0.31-25.77,0.32
			c-7.75,0-15.5-0.15-23.25-0.3c-11.43-0.22-22.86-0.43-34.29-0.76c-7.31-0.21-14.61-0.6-21.91-0.98c-3.09-0.16-6.16-0.6-9.24-0.73
			c-6.37-0.27-12.74-0.54-19.11-0.58c-3.49-0.02-6.98,0.39-10.47,0.67c-3.09,0.25-6.16,0.64-9.25,0.86
			c-2.88,0.21-3.55-0.47-3.78-3.26c-0.55-6.72-0.49-13.56-1.86-20.11c-1.93-9.25-1-18.64-2.41-27.86c-0.84-5.45-2.16-10.84-2.9-16.3
			c-0.57-4.21-0.61-8.5-0.81-12.76c-0.42-8.88-1.01-17.77-1.13-26.65c-0.15-10.92,0.14-21.84,0.17-32.75
			c0.01-3.96-0.42-7.93-0.26-11.88c0.24-5.82,0.98-11.62,1.21-17.44c0.26-6.42,0.2-12.85,0.27-19.27c0.1-9.36,0.2-18.72,0.27-28.08
			c0.08-11.09-0.14-22.16-1.83-33.14c-0.56-3.62-1.91-7.14-2.21-10.76c-0.42-5.04-0.32-10.13-0.22-15.19
			c0.1-5.08,0.37-10.17,0.77-15.24c0.83-10.66,1.78-21.31,2.71-31.96c1.11-12.61,1.79-25.24,1.13-37.89
			c-0.26-4.99-1.02-9.95-1.53-14.93c-0.62-6.08-1.18-12.18-1.84-18.26c-0.48-4.45-1.1-8.89-1.62-13.34
			c-0.13-1.11-0.14-2.24-0.16-3.35c-0.17-16.23-0.37-32.46-0.47-48.69c-0.03-4.86,0-9.74,0.37-14.59c0.32-4.23,1.14-8.42,1.8-12.62
			c0.07-0.45,0.51-0.84,0.78-1.27C531.26,145.79,531.44,145.83,531.62,145.87z"/>
		<path d="M535.11,366.69c0.77-0.47,1.49-1.2,2.33-1.38c9.97-2.21,19.98-4.3,30.24-4.51c17.94-0.35,35.88-0.55,53.82-0.82
			c5.97-0.09,11.95-0.24,17.92-0.32c4.84-0.07,9.69-0.24,14.53-0.05c4.08,0.16,8.14,0.8,12.22,1.15c8.67,0.75,17.3,0.24,25.97-0.48
			c7.34-0.61,14.79-0.54,22.16-0.18c13.06,0.64,26.1,1.71,39.15,2.63c11.63,0.82,23.24,1.93,34.88,2.43
			c5.18,0.22,10.41-0.69,15.61-1.2c8.39-0.83,16.77-1.78,25.16-2.59c0.64-0.06,1.33,0.52,2,0.8c-0.04,0.23-0.07,0.46-0.11,0.69
			c-2.59,0.43-5.17,1.03-7.78,1.26c-3.91,0.35-7.88,0.22-11.77,0.7c-4.09,0.5-8.1,1.62-12.19,2.19c-2.61,0.36-5.29,0.23-7.94,0.25
			c-3.29,0.03-6.6,0.17-9.88-0.07c-3.96-0.29-7.88-1.06-11.84-1.36c-6.24-0.47-12.51-0.64-18.75-1.11
			c-3.49-0.26-6.94-1.03-10.43-1.26c-7.88-0.52-15.77-1.04-23.67-1.22c-8.14-0.18-16.29-0.06-24.43,0.1
			c-7.17,0.15-14.33,0.79-21.49,0.76c-5.66-0.03-11.31-0.87-16.97-1.14c-4.54-0.22-9.1-0.18-13.66-0.17c-2.61,0-5.22,0.1-7.82,0.27
			c-1.63,0.1-3.23,0.5-4.86,0.59c-1.3,0.07-2.83,1-3.87-0.69c-0.1-0.16-0.56-0.15-0.84-0.15c-10.6,0.17-21.21,0.38-31.81,0.52
			c-5.02,0.06-10.05-0.28-15.05,0.05c-8.1,0.54-16.2,1.31-24.26,2.35c-4.41,0.57-8.72,1.93-13.09,2.83
			c-1.06,0.22-2.19,0.03-3.29,0.03C535.24,367.28,535.17,366.99,535.11,366.69z"/>
		<path d="M537.36,339.71c1.55-0.27,3.1-0.59,4.67-0.8c8.51-1.15,17.02-2.3,25.53-3.39c6.16-0.79,12.31-1.73,18.49-2.2
			c11.84-0.89,23.7-1.92,35.57-2.1c10.58-0.17,21.17,0.72,31.76,1.15c7.1,0.29,14.16-0.02,21.23-0.81c7.2-0.8,14.43-1.34,21.66-1.71
			c13.82-0.71,27.64-1.25,41.47-1.78c8.36-0.32,16.74-0.44,25.1-0.72c9.49-0.32,19.04-0.2,28.46-1.22
			c10.53-1.14,21.05-1.28,31.59-1.3c4.1-0.01,8.21-0.17,12.3-0.04c1.56,0.05,3.1,0.69,4.65,1.06c-0.06,0.32-0.12,0.64-0.18,0.96
			c-2.5,0-5-0.02-7.5,0c-6.27,0.07-12.54,0.04-18.8,0.26c-9.09,0.33-18.17,0.84-27.26,1.29c-8.11,0.4-16.22,0.95-24.34,1.19
			c-6.86,0.2-13.73-0.05-20.59,0.06c-3.73,0.06-7.45,0.46-11.17,0.69c-6.4,0.4-12.79,0.88-19.19,1.16
			c-7.38,0.32-14.78,0.32-22.15,0.72c-6.18,0.34-12.34,1-18.5,1.64c-2.76,0.29-5.5,0.86-8.35,1.31c0.33,1.8,3.09,3.72,1.01,6.48
			c-0.7-2.12-1.25-4.06-2.01-5.91c-0.21-0.51-1.01-1.06-1.57-1.1c-8.5-0.58-17-1.47-25.51-1.51c-11.34-0.05-22.7,0.27-34.01,0.98
			c-10.34,0.65-20.64,1.89-30.93,3.12c-7.16,0.86-14.27,2.19-21.41,3.22c-2.66,0.38-5.36,0.55-8.05,0.72
			c-0.65,0.04-1.32-0.3-1.97-0.46C537.36,340.35,537.36,340.03,537.36,339.71z"/>
		<path d="M824.99,549.85c0.38-4.29,0.73-8.58,1.15-12.86c0.99-10.03,2.15-20.05,3-30.1c1.04-12.37,1.54-24.79,2.83-37.14
			c1.14-10.91,1.03-21.76,0.68-32.68c-0.36-11-0.36-22.03-0.07-33.04c0.18-6.71,0.87-13.46,1.97-20.08
			c1.05-6.36,3.23-12.54,4.37-18.89c1.51-8.39,2.49-16.87,3.69-25.32c0.88-6.14,2.05-12.26,2.53-18.44
			c0.47-6.09,0.47-12.24,0.25-18.35c-0.17-4.68-0.52-9.47-1.67-13.98c-1.39-5.43-3.63-10.65-5.65-15.91
			c-1.23-3.18-2.86-6.2-4.11-9.36c-1.2-3.02-1.99-6.21-3.24-9.21c-2.1-5.05-4.62-9.93-6.57-15.02c-1.6-4.17-2.66-8.55-3.89-12.85
			c-0.39-1.35-0.59-2.75-0.86-4.13c-0.2-1.07-0.37-2.14-0.56-3.21c0.19-0.04,0.38-0.08,0.57-0.13c0.47,1.36,1.15,2.69,1.39,4.09
			c1.27,7.56,4.35,14.53,6.92,21.65c2.1,5.81,4.71,11.43,7.11,17.13c1.37,3.27,2.72,6.55,4.15,9.8c1.59,3.63,3.45,7.17,4.84,10.87
			c1.01,2.69,1.76,5.55,2.1,8.4c0.54,4.51,0.8,9.08,0.88,13.63c0.1,5.6,0.14,11.22-0.26,16.8c-0.37,5.11-1.38,10.18-2.06,15.27
			c-0.79,5.98-1.36,12-2.32,17.96c-0.83,5.14-1.9,10.25-3.17,15.29c-1.82,7.18-3.35,14.36-4.04,21.76
			c-1.1,11.81-1.13,23.62-0.91,35.44c0.15,7.77,0.71,15.53,0.85,23.3c0.06,3.27-0.49,6.55-0.78,9.83
			c-0.42,4.69-0.92,9.37-1.28,14.07c-0.88,11.52-1.57,23.07-2.58,34.58c-0.79,8.99-1.98,17.94-2.95,26.91
			c-0.42,3.92-0.75,7.86-1.12,11.79c-0.07,0.75-0.19,1.5-0.29,2.25C825.58,549.93,825.29,549.89,824.99,549.85z"/>
		<path d="M558.57,238.62c-0.81,1.2-1.98,0.92-2.71,0.09c-1.94-2.2-4.26-4.33-5.38-6.94c-1.76-4.08-3.39-8.47-3.72-12.84
			c-0.41-5.52,0.05-11.23,1.11-16.67c0.49-2.52,3.04-4.82,5.04-6.84c4.74-4.77,10.34-8.48,16.84-10.2
			c6.74-1.78,13.65-2.25,20.45,0.21c5.48,1.98,9.65,5.56,13.48,9.9c2.97,3.37,5.29,7.22,6.56,11.21c1.44,4.5,1.2,9.48-0.32,14.32
			c-2.17,6.92-6.13,12.61-11.17,17.54c-3.96,3.88-8.7,6.74-14.33,7.71c-4.42,0.76-8.85,1.5-13.29,0.25
			c-0.77-0.22-1.46-0.74-2.01-1.62c0.71,0.05,1.42,0.08,2.12,0.17c15.71,2.01,26.85-4.41,34.06-17.4c1.47-2.65,2.51-5.59,3.42-8.5
			c1.66-5.33,0.32-10.38-2.1-15.16c-3.05-6.04-7.1-11.28-13.05-14.73c-9.02-5.24-18.32-4.69-27.6-0.82
			c-5.75,2.4-10.45,6.34-14.46,11.06c-2.75,3.24-2.82,7.38-2.93,11.31c-0.13,4.68-0.34,9.42,1.19,13.99c1.34,4,2.26,8.21,5.37,11.35
			C556.11,236.98,557.33,237.68,558.57,238.62z"/>
		<path d="M693.4,586.26c-1.76,3.33-4.62,5.35-7.96,6.58c-3.05,1.12-6.09,2.1-9.52,2.13c-2.89,0.03-5.76,1.38-8.64,2.12
			c-5.32,1.36-9.95,0.09-13.68-3.93c-2.66-2.87-1.63-7.32,2.03-8.58c1.91-0.66,3.94-2.28,6.14-0.47c0.14,0.12,0.73,0.01,0.81-0.15
			c1.54-2.8,4.8-2.35,7.1-3.78c5.95-3.71,11.48-7.74,14.68-14.26c0.1-0.2,0.2-0.4,0.31-0.6c1.64-2.92,1.74-3.07-1.05-4.87
			c-4.64-3-8.42-6.81-11.57-11.31c-1.41-2.01-2.71-4.1-4.21-6.04c-2.55-3.29-5.14-6.55-7.87-9.7c-2.75-3.18-3.87-8.69-2.1-11.62
			c0.31-0.52,0.79-0.94,1.35-1.35c-2.15,5.87,0.42,10.29,3.99,14.52c2.3,2.73,4.38,5.66,6.57,8.49c3.37,4.35,6.62,8.81,10.18,12.99
			c1.55,1.82,3.74,3.13,5.71,4.56c0.25,0.18,0.98-0.31,1.49-0.48c0.66-0.23,1.73-0.81,1.92-0.61c0.99,1.08,2.31,0.27,3.08,0.63
			c1.63,0.75,3.59,2,4.2,3.53c2.17,5.41,3.83,11.03,5.69,16.57c0.48,1.41,1.01,2.81,1.44,4.24c0.11,0.34-0.06,0.77-0.1,1.16
			c-0.42-0.16-1.09-0.21-1.23-0.5c-0.59-1.27-1.1-2.59-1.51-3.93c-1.12-3.67-2.1-7.39-3.29-11.04c-0.8-2.46-1.88-4.84-2.82-7.26
			c-0.79-2.02-2.53-1.12-3.85-1.12c-0.66,0-1.55,0.68-1.95,1.31c-2.18,3.38-3.87,7.15-6.45,10.17c-2.27,2.66-5.43,4.58-8.31,6.68
			c-4.26,3.09-9.25,4.21-14.31,5.28c-1.79,0.38-3.77,1.69-4.84,3.17c-1.54,2.13,0.07,4.82,3.41,6.02c3.23,1.16,6.55,0.93,9.89,0.2
			c4.83-1.06,9.72-1.88,14.56-2.93c2.65-0.57,5.21-1.38,7.22-3.48C690.88,587.64,692.23,587.04,693.4,586.26z"/>
		<path d="M571.26,230.93c3.03-0.58,6.04-1.23,9.09-1.72c4.49-0.73,8.99-1.37,13.49-2.01c0.51-0.07,1.1-0.09,1.55,0.11
			c0.4,0.18,0.66,0.7,0.98,1.06c-0.36,0.3-0.74,0.88-1.08,0.86c-6.6-0.4-12.8,1.79-19.16,2.95c-2.11,0.38-4.14,1.17-6.24,1.59
			c-0.85,0.17-1.79-0.16-3.5-0.34c2.82-3.79,5.04-7.12,7.62-10.16c3.05-3.59,6.54-6.85,7.93-11.54c0.97-3.26,1.84-6.65-0.97-9.46
			c-0.75-0.75-2.17-1.12-3.3-1.14c-5.58-0.09-9.5,3.35-13.49,6.59c-0.39,0.31-0.78,0.61-1.2,0.94c-1.45-1.36-1.26-2.4,0.05-3.63
			c3.51-3.3,7.61-5.6,12.2-6.8c5.11-1.34,8.41,1.88,9.05,7.02c0.89,7.12-2.46,12.67-7.14,17.65c-2.21,2.36-4.18,4.95-6.26,7.43
			C571,230.53,571.13,230.73,571.26,230.93z"/>
		<path d="M755.75,220.73c-4.24,2.66-8.5,2.88-12.83,3.13c-6.05,0.35-10.87-2.78-16-5.11c-1.56-0.7-3.17-1.33-4.81-1.8
			c-1.64-0.47-2.88,0.05-4.05,1.52c-3.66,4.59-7.53,9.02-11.34,13.5c-0.43,0.5-0.94,1.05-1.53,1.27c-0.41,0.15-1.11-0.13-1.49-0.44
			c-0.16-0.13-0.01-1.03,0.27-1.27c5.93-5.22,9.59-12.1,13.69-18.67c4.77-7.66,9.63-15.26,14.47-22.88c0.32-0.5,0.66-1.05,1.13-1.38
			c0.38-0.26,0.98-0.23,1.48-0.32c0.04,0.51,0.31,1.17,0.09,1.52c-2.12,3.34-4.37,6.6-6.51,9.93c-2.87,4.46-5.68,8.96-8.49,13.46
			c-0.26,0.41-0.32,0.94-0.31,0.9c4.45,1.94,8.78,3.65,12.96,5.69c4.73,2.31,9.69,2.28,14.7,1.99
			C749.82,221.6,752.46,221.14,755.75,220.73z"/>
		<path d="M752.98,548.29c3.67,1.25,2.67,4.13,3.69,6.75c0.17-0.41,0.23-1.04,0.53-1.19c0.34-0.17,0.99-0.06,1.33,0.18
			c0.22,0.16,0.33,0.96,0.15,1.14c-4.78,4.69-1.99,10.19-1.73,15.43c0.18,3.59,1.92,6.46,4.02,9.4c-2.28-0.93-4.69-4.28-5.16-7.16
			c-0.48-2.97-0.82-5.97-1.27-9.36c-1.59,2.04-2.8,3.89-4.3,5.46c-4.02,4.21-7.98,8.51-12.33,12.35c-2.95,2.61-3.23,6.26-4.78,9.4
			c-0.15,0.3,0.78,1.55,1.39,1.72c1.62,0.45,3.41,0.95,5.01,0.7c4.3-0.65,8.56-1.65,12.81-2.6c0.75-0.17,1.36-0.88,2.09-1.24
			c0.74-0.37,1.53-0.62,2.41-0.62c-3.31,3.6-11.11,5.9-13.9,4.5c-1.86,1.97-4.34,1.64-6.55,1.52c-2.31-0.12-4.21-1.45-5.35-3.61
			c-0.07-0.13-0.09-0.3-0.07-0.44c0.3-2.44,0.53-4.9,0.97-7.32c0.16-0.89,0.39-2.25,2.04-1.33c0.28,0.16,1.08-0.28,1.44-0.64
			c3.49-3.44,7.08-6.8,10.37-10.42c4.34-4.79,8.45-9.7,8.96-16.7C754.9,552.04,754.08,550.5,752.98,548.29z"/>
		<path d="M655.15,231.17c-0.6-4.47-4.17-5.16-6.73-6.91c0.14-0.23,0.28-0.46,0.43-0.69c2.52,1.23,5.05,2.46,8,3.89
			c1.01-1.36,2.27-2.98,3.45-4.66c2.65-3.79,4.72-7.91,5.04-12.54c0.23-3.31,0.69-7.05-2.55-9.44c-3.37-2.49-4.94-1.94-7.15,1.55
			c-1.59,2.52-2.9,5.28-4.85,7.47c-1.25,1.4-1.52,2.71-1.7,4.36c-0.18,1.66-4.44,5.86-6.47,6.18c0.51-0.99,0.73-1.81,1.24-2.37
			c1.89-2.06,3.48-4.2,3.85-7.12c0.12-0.93,0.93-1.79,1.49-2.64c1.65-2.51,3.32-5,4.72-7.71c-5.86,2.64-11.35,5.6-12.49,12.94
			c-0.26-0.06-0.52-0.11-0.78-0.17c-0.15-0.65-0.56-1.36-0.42-1.93c0.89-3.72,3-6.74,6.15-8.77c2.79-1.79,5.98-2.93,8.83-4.64
			c1.27-0.76,2.13-2.18,3.61-3.76c0.16,0.37,0.55,0.82,0.48,1.17c-0.47,2.25,0.99,2.45,2.62,3.1c3.39,1.34,4.87,3.85,5.12,7.78
			c0.54,8.34-3.08,14.82-7.95,20.94C658.06,228.46,656.78,229.52,655.15,231.17z"/>
		<path d="M818.08,217.91c-0.44-1.28-1.03-2.53-1.31-3.85c-0.72-3.43-1.35-6.87-1.93-10.33c-0.52-3.13-0.97-6.27-1.39-9.41
			c-0.5-3.75-1.08-7.5-1.35-11.27c-0.23-3.19,0.01-6.41-0.1-9.61c-0.17-4.92-0.51-9.83-0.69-14.74c-0.08-2.15-1.32-2.92-3.15-2.94
			c-8.73-0.09-17.46-0.23-26.19-0.11c-6.11,0.09-12.22,0.55-18.32,0.9c-1.36,0.08-2.72,0.36-4.64,0.63
			c0.53-0.79,0.73-1.41,1.02-1.45c2.39-0.34,4.78-0.68,7.18-0.82c7-0.4,14-0.76,21-1.01c4.31-0.15,8.64-0.18,12.95-0.06
			c3.75,0.11,7.49,0.5,11.7,0.8c0.24,7.82,0.42,15.47,0.73,23.12c0.18,4.63,0.48,9.26,0.88,13.87c0.36,4.15,0.81,8.3,1.43,12.42
			c0.32,2.11,1.22,4.14,1.65,6.24c0.5,2.47,0.78,4.99,1.16,7.49C818.49,217.82,818.29,217.87,818.08,217.91z"/>
		<path d="M703.42,587.3c1.88,0.43,3.15,0.73,4.35,1c3.89-7.33,5.23-15.1,6.36-22.91c0.5-3.44,0.89-6.95,0.82-10.42
			c-0.08-4.23-0.63-8.46-1.1-12.68c-0.15-1.31,0.32-1.71,1.48-1.94c5.73-1.14,11.45-2.33,17.19-3.49c0.23-0.05,0.52,0.15,0.83,0.54
			c-5.46,2.59-11.54,2.78-17.61,4.62c0.28,3.4,0.14,7.05,0.96,10.47c1.54,6.46,0.13,12.65-0.96,18.89
			c-0.93,5.3-2.22,10.49-4.72,15.35c-1.22,2.37-2.9,3.22-5.43,2.02C704.99,588.47,704.47,588.01,703.42,587.3z"/>
		<path d="M639.9,152.78c-5.24-0.38-10.48-0.73-15.72-1.15c-5.19-0.42-10.38-0.94-15.57-1.35c-6.14-0.48-12.28-1.02-18.43-1.3
			c-4.72-0.22-9.47-0.07-14.2-0.11c-0.7-0.01-1.41-0.15-2.11-0.24c-0.02-0.21-0.05-0.42-0.07-0.63c0.88-0.27,1.75-0.78,2.63-0.78
			c10.22-0.08,20.43-0.63,30.63,0.72c8.06,1.07,16.16,1.8,24.24,2.65c2.37,0.25,4.76,0.32,7.13,0.57c0.6,0.06,1.17,0.48,1.75,0.74
			C640.09,152.19,639.99,152.49,639.9,152.78z"/>
		<path d="M575.46,345.53c1.27,1.36,2.05,2.63,3.19,3.33c2.15,1.32,4.53,2.26,6.76,3.45c1.02,0.54,1.92,1.31,2.69,2.24
			c-5.17,0.18-8.64-3.24-12.37-5.44c-2.02,1.57-3.73,3.43-5.86,4.42c-2.79,1.29-5.89,1.94-8.89,2.75c-0.47,0.13-1.12-0.36-1.68-0.57
			c0.49-0.34,0.93-0.87,1.47-0.99c5.37-1.23,10.11-3.4,12.95-8.47c-1.61,0.35-3.29,0.78-4.98,1.03c-0.54,0.08-1.15-0.34-1.73-0.52
			c0.49-0.47,0.91-1.19,1.49-1.37c1.69-0.52,3.45-0.82,5.67-1.31c-1.16-2.18-2.17-4.09-3.26-6.15c2.22-0.49,2.95,1.07,3.71,2.31
			c1.83,2.95,2.09,3.08,5.44,2.15c1.43-0.39,2.9-0.67,4.37-0.92c0.46-0.08,0.97,0.13,1.54,0.51
			C583,343.94,579.46,344.29,575.46,345.53z"/>
		<path d="M638.29,340.28c-1.27,0.97-2.03,1.68-2.92,2.18c-0.38,0.22-1.01,0-1.53-0.02c0.06-0.47-0.05-1.18,0.22-1.38
			c2.04-1.49,4.1-2.96,6.26-4.26c0.47-0.28,1.94,0.1,1.97,0.3c0.11,0.85,0.16,2.01-0.33,2.6c-2.55,3.07-2.32,6.64-1.87,10.15
			c0.23,1.83,1.78,2.09,3.47,0.96c2.66-1.76,2.74-4.83,3.86-7.38c0.03-0.06-0.01-0.16,0.02-0.22c0.69-1.27,1.38-2.54,2.07-3.81
			c1.08,0.91,2.2,1.77,3.23,2.73c1.04,0.97,2.04,1.98,2.95,3.07c0.5,0.61,0.76,1.42,1.13,2.13c-0.22,0.17-0.44,0.33-0.65,0.5
			c-1-1-2.02-1.98-3-3c-0.61-0.65-1.12-1.4-1.75-2.03c-0.34-0.34-0.83-0.52-1.26-0.77c-0.22,0.42-0.48,0.82-0.65,1.26
			c-0.9,2.41-1.65,4.89-2.71,7.23c-0.94,2.08-2.73,3.07-5.08,2.85c-2.34-0.22-3.33-1.85-3.78-3.85c-0.32-1.44-0.49-2.95-0.44-4.42
			C637.58,343.64,637.97,342.19,638.29,340.28z"/>
		<path d="M618.7,348.93c0.22-0.94,0.43-1.88,0.67-2.82c0.09-0.36,0.25-0.7,0.39-1.05c1.54-3.82,1.18-4.78-2.57-6.03
			c-2.69-0.89-5.44-1.56-8.17-0.01c1.44,2.04,1.73,8.1,0.03,9.75c-0.82,0.8-2.99,1.12-3.98,0.59c-1.22-0.65-2.64-2.45-2.59-3.7
			c0.26-7.68,6.37-10.18,12.99-9.05c1.09,0.18,2.12,0.69,3.18,1.02c4.22,1.33,5.56,5.96,2.76,9.49c-0.63,0.8-1.17,1.66-1.76,2.5
			C619.33,349.38,619.02,349.15,618.7,348.93z M607.31,339.6c-2.61,1.61-4,4.02-3.28,6.21c0.24,0.73,1.22,1.31,2,1.72
			c0.37,0.19,1.24-0.01,1.53-0.34C608.63,345.96,608.4,341.21,607.31,339.6z"/>
		<path d="M773.73,343.24c-1.93,1.83-3.46,3.32-5.03,4.77c-0.55,0.5-1.11,1.16-1.77,1.32c-0.76,0.19-1.64-0.08-2.47-0.16
			c0.29-0.65,0.4-1.48,0.88-1.92c4.35-3.96,8.27-8.28,11.58-13.16c0.25-0.38,0.9-0.48,1.37-0.71c0.19,0.44,0.66,1.03,0.52,1.28
			c-1.06,1.92-2.25,3.77-3.4,5.64c-0.11,0.18-0.28,0.34-0.47,0.56c0.95,2.25,1.86,4.53,2.85,6.77c1.66,3.77,3.38,4.35,6.98,2.42
			c0.38-0.2,0.78-0.36,1.23-0.57c-0.09,1.84-2.58,3.67-4.61,3.52c-2.57-0.19-4.31-1.57-5.33-3.84
			C775.27,347.41,774.65,345.58,773.73,343.24z"/>
		<path d="M722.66,498.12c-5.2,0.25-8.6-2.28-10.48-6.97c-0.99-2.47-1.75-5.03-2.69-7.52c-0.29-0.77-0.84-1.45-1.26-2.17
			c0,0,0.04,0.06,0.04,0.06c-0.25-1.83-0.23-3.76-0.8-5.49c-1.76-5.28-2.45-10.59-1.57-16.14c0.22-1.37-0.31-2.85-0.48-4.16
			c2.03,0.33,2.56,1.08,2.29,3.86c-0.47,4.79-0.63,9.53,0.86,14.23c1.99,6.24,2.8,12.87,6.14,18.68c1.46,2.54,3.24,4.43,6.36,4.69
			c0.54,0.04,1.03,0.64,1.54,0.97L722.66,498.12z"/>
		<path d="M537.79,146.37c0.54-0.24,1.06-0.64,1.61-0.68c9.05-0.72,18.1-2.22,27.17-0.31c2.85,0.6,3.51,1.38,3.23,3.84
			c-4.68-4.02-10.18-2.31-15.4-2.52c-2.79-0.11-5.59,0-8.39,0.11c-2.27,0.08-4.53,0.32-6.79,0.45c-0.4,0.02-0.82-0.14-1.23-0.21
			C537.93,146.82,537.86,146.6,537.79,146.37z"/>
		<path d="M720.03,154.63c6.1,0.34,12.21,0.6,18.3,1.06c1.4,0.11,2.76,0.86,4.67,1.49c1.94-1.01,12.62-1.63,14.61,0
			c-2.34,0.23-4.67,0.51-7.02,0.66c-2.97,0.2-5.95,0.31-8.93,0.43c-0.74,0.03-1.57,0.12-2.22-0.16c-4.6-1.99-9.53-1.43-14.31-2.01
			c-1.76-0.21-3.5-0.59-5.24-0.89C719.94,155.02,719.98,154.83,720.03,154.63z"/>
		<path d="M690.8,357.15c0.95-1.54,1.91-3.07,2.84-4.62c1.87-3.11,2.14-5.37,0.82-6.59c-1.36-1.26-4.91-0.99-7.36,0.49
			c-1.5,0.91-3.06,1.74-4.61,2.56c-0.29,0.15-0.69,0.09-1.01,0.12c-0.1-0.25-0.24-0.43-0.2-0.5c2.07-3.45,9-5.87,12.74-4.46
			c2.39,0.9,3.78,3.44,2.89,6.04c-1.02,2.99-2.73,5.61-5.47,7.36C691.22,357.42,691.01,357.28,690.8,357.15z"/>
		<path d="M702.48,340.75c1.99-0.35,2.8,1.14,3.49,2.29c1.44,2.43,2.57,5.04,3.88,7.54c0.5,0.96,1.15,1.85,1.94,3.1
			c1.1-1.83,2.02-3.35,2.93-4.87c0.19,0.06,0.37,0.13,0.56,0.19c-0.28,2.16-0.05,4.48-1.54,6.31c-0.33,0.41-1.91,0.29-2.53-0.15
			c-1.07-0.74-2.04-1.81-2.68-2.94C706.45,348.49,704.53,344.66,702.48,340.75z"/>
		<path d="M665.61,357.26c-1.9,0-3.37,0-4.25,0c-1.04,0.95-1.67,2-2.39,2.05c-0.74,0.05-1.77-0.71-2.24-1.41
			c-0.22-0.33,0.57-1.34,1.06-2.39c-0.46-0.67-1.17-1.7-1.88-2.74c0.23-0.17,0.47-0.34,0.7-0.51c0.83,0.86,1.65,1.73,2.9,3.04
			c0.7-0.92,1.23-1.85,1.99-2.52c0.46-0.4,1.29-0.4,1.95-0.57c-0.32,0.7-0.59,1.43-0.99,2.07c-0.21,0.34-0.68,0.51-1.15,0.85
			C662.96,355.5,665.14,354.34,665.61,357.26z"/>
		<path d="M675.09,189.3c4.54,5.11,7.28,11.31,10.37,17.3C683.39,205.82,675.59,192.96,675.09,189.3z"/>
		<path d="M664.19,154.34c-2.55,0-5.1,0.06-7.65-0.02c-2.65-0.08-5.3-0.47-7.95-0.41c-1.83,0.04-3.08-0.27-3.5-2.88
			c0.95,0.58,1.54,0.94,2.47,1.52c5.2-1.12,10.88,0.27,16.61,0.73C664.19,153.63,664.19,153.99,664.19,154.34z"/>
		<path d="M824.15,577.81c1.11,7.98-1.21,15.63-2.24,23.4C821.89,593.35,822.97,585.57,824.15,577.81z"/>
		<path d="M735.98,337.45c1.08,0.59,2.1,0.8,2.34,1.35c1.46,3.41,3.07,6.8,2.89,10.67c-0.08,1.63-1.01,2.28-2.85,2.84
			C741.11,346.75,736.97,342.76,735.98,337.45z"/>
		<path d="M824.05,559.82c1.96,3.73,1.88,14.61,0,17.18C824.05,571.06,824.05,565.44,824.05,559.82z"/>
		<path d="M740.62,538.51c3.7-0.18,10.63,5.28,11.99,9.65C748.15,545.03,746.02,539.69,740.62,538.51z"/>
		<path d="M819.75,615.76c-0.23,5.03-0.68,10.01-3.65,15.13c1.11-5.51,2.1-10.38,3.08-15.25
			C819.37,615.68,819.56,615.72,819.75,615.76z"/>
		<path d="M753.4,637.01c9.72-1.56,12.42-1.41,12.95,0C762.08,637.01,757.74,637.01,753.4,637.01z"/>
		<path d="M684.32,333.64c2.63,1.46,5.12,2.81,6.67,5.75C687.98,339.15,684.18,335.88,684.32,333.64z"/>
		<path d="M701.23,154.8c-3.45,0.16-6.9,0.32-10.35,0.48c-0.06-0.27-0.11-0.53-0.17-0.8c0.37-0.25,0.75-0.72,1.12-0.71
			c3.14,0,6.27,0.09,9.41,0.15C701.24,154.22,701.23,154.51,701.23,154.8z"/>
		<path d="M587.74,337.31c2.81,1.55,3.65,4.64,5.53,6.92c-0.25,0.2-0.5,0.4-0.74,0.59c-1.79-2.33-3.58-4.65-5.38-6.98
			C587.34,337.67,587.54,337.49,587.74,337.31z"/>
		<path d="M793.79,636.89c-3.05,0-6.11,0-9.16,0c0-0.22,0-0.44-0.01-0.67c3.04,0,6.08,0,9.13,0
			C793.77,636.44,793.78,636.66,793.79,636.89z"/>
		<path d="M746.19,636.03c-3.16-0.2-6.33-0.39-9.49-0.59c0.01-0.27,0.02-0.54,0.03-0.81c3.17,0.16,6.33,0.32,9.5,0.48
			C746.22,635.42,746.2,635.73,746.19,636.03z"/>
		<path d="M697.79,577.83c-0.33,2.51,0.07,5.43-3.43,6.87C695.62,582.17,696.71,580,697.79,577.83z"/>
		<path d="M821.7,603.91c-0.4,3.03-0.8,6.07-1.2,9.1c-0.29-0.04-0.58-0.08-0.87-0.12c0.4-3.01,0.8-6.02,1.2-9.04
			C821.11,603.87,821.41,603.89,821.7,603.91z"/>
		<path d="M678.53,154.2c1.71-0.11,3.43-0.21,5.6-0.35C682.82,155.65,679.74,155.91,678.53,154.2z"/>
		<path d="M826.12,551.2c-0.29,1.97-0.59,3.95-0.88,5.92c-0.34-0.06-0.69-0.11-1.03-0.17c0.29-1.97,0.57-3.95,0.86-5.92
			C825.42,551.09,825.77,551.15,826.12,551.2z"/>
		<path d="M657.18,337.78c1.88-0.07,3.23,1.73,3.04,4.51C659.24,340.85,658.27,339.4,657.18,337.78z"/>
		<path d="M781.96,636.96c-1.75,0-3.49,0-5.24,0c0-0.22,0.01-0.44,0.01-0.66c1.76,0,3.52,0,5.27,0
			C781.99,636.52,781.98,636.74,781.96,636.96z"/>
		<path d="M568.43,241.19c-1.68,0-3.36,0-5.04,0c0.01-0.37,0.03-0.74,0.04-1.11c1.66,0.09,3.31,0.18,4.97,0.26
			C568.41,240.62,568.42,240.9,568.43,241.19z"/>
		<path class="volume_2_st0" d="M722.61,498.17c-0.51-0.34-1-0.93-1.54-0.97c-3.12-0.26-4.9-2.15-6.36-4.69c-3.34-5.81-4.15-12.43-6.14-18.68
			c-1.5-4.7-1.33-9.44-0.86-14.23c0.27-2.78-0.26-3.53-2.29-3.86c0.17,1.31,0.7,2.79,0.48,4.16c-0.88,5.54-0.19,10.85,1.57,16.14
			c0.57,1.73,0.55,3.65,0.8,5.49c-0.62,0.69-1.38,1.29-1.82,2.07c-2.66,4.76-4.94,9.76-7.93,14.29
			c-4.74,7.2-11.61,11.86-19.53,15.14c-6.63,2.74-13.62,3.34-20.6,3.65c-5.35,0.24-10.27-1.81-14.53-5.11
			c-7.41-5.73-12.47-13.22-15.86-21.84c-0.75-1.89-1.03-4.06-1.1-6.12c-0.28-8.22,1.58-16.14,3.51-24.07
			c1.59-6.53,2.69-13.12,0-19.68c-0.07-0.18-0.3-0.3-0.79-0.76c-0.14,1.35-0.4,2.42-0.32,3.45c0.57,6.88-0.31,13.56-2.66,20.05
			c-0.03,0.07-0.08,0.14-0.08,0.21c0.03,9.18-7.05,14.22-11.96,20.51c-1.46,1.88-3.25,3.5-4.74,5.36
			c-4.91,6.15-17.56,4.42-21.54-3.31c-2.82-5.49-4.96-11.22-5.71-17.36c-0.58-4.69,1.44-8.92,2.85-13.25
			c2.38-7.29,4.58-14.65,6.84-21.98c0.9-2.93,1.58-5.93,2.66-8.79c0.39-1.02,1.7-1.67,2.48-2.58c2.71-3.18,5.05-6.76,8.12-9.53
			c8-7.23,17.42-12.21,27.35-16.33c6.19-2.57,12.66-4.3,19.2-4.88c8.98-0.8,18.06-0.61,27.1-0.5c3.93,0.05,7.83,1.04,11.76,1.46
			c4.75,0.51,9.52,0.98,14.29,1.26c10.07,0.6,18.87,3.84,25.21,12.08c1.62,2.11,2.68,4.65,3.96,7c2.25,4.14,4.68,8.19,6.66,12.46
			c2.61,5.63,3.32,11.73,3.62,17.88c0.09,1.94,0.03,3.98,0.62,5.78c1.31,4.01,0.77,8.03,0.49,12.03c-0.33,4.69-0.84,9.37-1.55,14.02
			c-0.84,5.54-1.79,11.07-3.02,16.53c-0.84,3.75-5.61,7.2-9.5,7.34C728.7,498.12,725.65,498.12,722.61,498.17z M682.24,479.27
			c4.99-2.98,7.55-11.43,7.96-15.84c0.17-1.87-0.4-4.15-2.77-5.58c-1.38,1.54-2.82,2.95-4.02,4.56c-1.27,1.7-2.41,3.52-3.4,5.39
			c-2.07,3.89-2.02,3.92-1.28,5.37c0.2-0.64,0.37-1.19,0.54-1.74C679.59,474.37,680.02,477.14,682.24,479.27z M658.35,459.02
			c-2.82,0.02-5.07,1.55-5.85,4.43c-0.78,2.85-1.36,5.77-1.71,8.7c-0.11,0.91,0.58,2.44,1.33,2.8c0.84,0.4,2.45,0.15,3.2-0.47
			c1.33-1.1,2.56-2.55,3.3-4.1c1.16-2.44,1.96-5.07,2.75-7.66C662.15,460.1,661.17,459,658.35,459.02z M674.79,488.32
			c-1.36-0.11-2.53-0.35-3.67-0.25c-1.55,0.13-2.16-0.5-1.8-1.91c0.39-1.54,1.03-3.02,1.49-4.55c0.22-0.73,0.61-1.75,0.29-2.2
			c-0.4-0.58-1.43-1-2.2-1.01c-2.2-0.03-3.27,2.4-2.48,4.84c0.49,1.52,0.6,3.16,0.83,4.43c-3.93,0.9-7.21,1.65-10.82,2.47
			c1.35,1.28,2.37,2.05,3.14,3.03c1.6,2.02,3.73,2.19,5.88,1.63c1.54-0.4,3.04-1.22,4.36-2.15
			C671.38,491.55,672.72,490.15,674.79,488.32z M663.88,443.57c-1.57-1.57-2.62-0.89-3.61-0.09c-2.96,2.37-5.87,4.8-8.87,7.11
			c-1.38,1.06-2.93,1.91-4.55,2.94c1.34,1.48,2.87,1.39,3.95,0.57C655.16,450.74,659.39,447.2,663.88,443.57z M697.71,444.34
			c-0.91-1.74-2.05-1.19-3.2-0.52c-2.45,1.41-4.92,2.77-7.33,4.25c-2.3,1.41-4.53,2.93-6.79,4.4c0.04,0.28,0.09,0.57,0.13,0.85
			c0.85,0,1.78,0.22,2.52-0.06c0.95-0.35,1.73-1.15,2.62-1.69C689.65,449.16,693.66,446.77,697.71,444.34z"/>
		<path class="volume_2_st0" d="M607.31,339.6c1.09,1.61,1.32,6.36,0.25,7.59c-0.29,0.33-1.16,0.53-1.53,0.34c-0.77-0.41-1.76-0.99-2-1.72
			C603.31,343.62,604.71,341.21,607.31,339.6z"/>
		<path d="M682.24,479.27c-2.23-2.12-2.65-4.9-2.98-7.84c-0.17,0.55-0.34,1.09-0.54,1.74c-0.74-1.45-0.79-1.48,1.28-5.37
			c1-1.87,2.14-3.69,3.4-5.39c1.2-1.6,2.64-3.02,4.02-4.56c2.37,1.43,2.94,3.71,2.77,5.58C689.8,467.84,687.23,476.28,682.24,479.27
			z M685.72,462.81c-0.85,1.34-1.38,2.85-2.45,3.71c-1.69,1.36-0.98,3-1.56,4.56c0.97-0.75,1.67-1.31,2.78-2.17
			c-0.84,2.31-1.45,3.97-2.25,6.17C686.01,471.92,687.57,465.67,685.72,462.81z"/>
		<path d="M658.35,459.02c2.82-0.02,3.79,1.08,3.01,3.69c-0.79,2.6-1.59,5.22-2.75,7.66c-0.74,1.56-1.97,3-3.3,4.1
			c-0.74,0.61-2.36,0.87-3.2,0.47c-0.75-0.36-1.44-1.89-1.33-2.8c0.35-2.93,0.93-5.85,1.71-8.7
			C653.28,460.57,655.53,459.04,658.35,459.02z M654.06,471c2.11-1.27,3.83-5.61,3.24-8.12C656.09,465.56,653.3,467.51,654.06,471z"
			/>
		<path d="M674.79,488.32c-2.07,1.83-3.41,3.23-4.98,4.33c-1.32,0.92-2.82,1.75-4.36,2.15c-2.15,0.56-4.28,0.39-5.88-1.63
			c-0.77-0.97-1.8-1.75-3.14-3.03c3.61-0.82,6.89-1.57,10.82-2.47c-0.23-1.27-0.33-2.91-0.83-4.43c-0.79-2.44,0.28-4.87,2.48-4.84
			c0.76,0.01,1.79,0.43,2.2,1.01c0.31,0.45-0.07,1.47-0.29,2.2c-0.46,1.53-1.1,3-1.49,4.55c-0.36,1.41,0.26,2.04,1.8,1.91
			C672.26,487.97,673.43,488.21,674.79,488.32z M671.01,489.78c-3.74,0.24-7.25,0.46-10.9,0.69
			C661.85,494.77,667.91,493.53,671.01,489.78z"/>
		<path d="M663.88,443.57c-4.49,3.64-8.72,7.17-13.09,10.52c-1.08,0.83-2.61,0.91-3.95-0.57c1.61-1.03,3.17-1.87,4.55-2.94
			c3-2.31,5.91-4.74,8.87-7.11C661.27,442.67,662.31,442,663.88,443.57z"/>
		<path d="M697.71,444.34c-4.06,2.43-8.06,4.82-12.05,7.24c-0.89,0.54-1.67,1.33-2.62,1.69c-0.74,0.28-1.67,0.06-2.52,0.06
			c-0.04-0.28-0.09-0.57-0.13-0.85c2.26-1.47,4.49-2.99,6.79-4.4c2.41-1.47,4.88-2.84,7.33-4.25
			C695.66,443.15,696.8,442.6,697.71,444.34z"/>
		<path class="volume_2_st0" d="M685.72,462.81c1.85,2.86,0.29,9.12-3.49,12.27c0.8-2.19,1.41-3.85,2.25-6.17c-1.11,0.86-1.81,1.41-2.78,2.17
			c0.58-1.55-0.13-3.2,1.56-4.56C684.34,465.66,684.87,464.14,685.72,462.81z"/>
		<path class="volume_2_st0" d="M654.06,471c-0.76-3.49,2.03-5.44,3.24-8.12C657.89,465.39,656.17,469.73,654.06,471z"/>
		<path class="volume_2_st0" d="M671.01,489.78c-3.1,3.75-9.16,5-10.9,0.69C663.76,490.23,667.27,490.01,671.01,489.78z"/>
	</g>
</g>
<g id="mask">
	<path class="volume_2_st1" d="M482,186c58.33-35.38,100.92-57.77,106-51c8.78,11.69-99.04,104.03-94,110c5.88,6.95,155.85-114.04,161-108
		c5.6,6.58-165.46,157.52-160,164c6.02,7.14,219.65-168.49,227-160c8.03,9.28-237.7,229.05-230,238c8.38,9.73,308.37-239.77,315-232
		c7.15,8.37-333.5,307.62-328,314c5.55,6.44,358.41-292.57,365-285c6.83,7.85-364.88,337.88-357,347
		c7.56,8.75,357.55-286.72,366-277c8.6,9.9-345.73,325.94-337,336c8.47,9.77,352.23-276.67,357-271c4.89,5.81-353.08,308.8-344,320
		c8.51,10.49,333.65-241.83,339-235c5.22,6.66-299.81,252.6-294,260c5.32,6.78,266.37-193.84,276-182
		c8.52,10.48-185.44,180.25-178,189c6.63,7.79,165.85-120.58,176-109c8.39,9.57-93.68,105.09-83,118c6,7.26,45.25-14.44,93-45"/>
</g>
</svg>
