<?xml version="1.0" encoding="utf-8"?>
<!-- Generator: Adobe Illustrator 26.3.1, SVG Export Plug-In . SVG Version: 6.00 Build 0)  -->
<svg version="1.1" xmlns="http://www.w3.org/2000/svg" xmlns:xlink="http://www.w3.org/1999/xlink" x="0px" y="0px"
	 viewBox="0 0 1366 768" style="enable-background:new 0 0 1366 768;" xml:space="preserve">
<style type="text/css">
	.title_st0{fill:#ffffff;}
	.title_st1{fill:none;stroke:#000000;stroke-width:73.7008;stroke-miterlimit:10;}
</style>
<g id="base">
	<g>
		<path class="title_st0" d="M915,708.8c-150,0-300,0-450,0c0-216.6,0-433.2,0-649.8c150,0,300,0,450,0C915,275.6,915,492.2,915,708.8z
			 M710.28,547.93c-0.21-0.04-0.43-0.09-0.64-0.13c0-0.67,0.01-1.35,0-2.02c-0.14-5.31-1.82-7.05-7.11-7.35
			c-0.52-0.03-1.05-0.03-1.57-0.04c-10.05-0.19-19.54,2.31-28.81,5.93c-0.81,0.32-1.81,0.36-2.69,0.26
			c-1.83-0.19-2.91,0.83-2.55,2.66c1.07,5.35,1.94,10.75,3.33,16.01c1.16,4.38,2.84,8.64,4.52,12.87c0.75,1.9,2.66,2.3,3.44,0.86
			c0.88-1.64,2.22-1.5,3.56-1.62c1.49-0.13,2.99-0.05,4.48-0.16c4.76-0.34,9.52-0.84,14.29-1.04c2.77-0.11,4.23-0.6,4.85-3.26
			C707.14,563.27,708.66,555.59,710.28,547.93z M686.99,494.82c-0.28,3.79-0.59,7.04-0.73,10.3c-0.05,1.3-0.7,1.67-1.76,2.14
			c-3.13,1.38-6.31,2.75-9.23,4.52c-2.57,1.55-2.86,3.86-1.27,6.4c1.7,2.7,4.15,4.54,7.2,5.4c4.63,1.31,7.45-0.45,8.26-5.17
			c0.36-2.13,0.28-4.33,0.57-6.47c0.09-0.65,0.77-1.74,1.19-1.74c4.9-0.03,9.81-0.01,14.7,0.29c1.39,0.09,2.6,0.4,3.15-1.1
			c0.55-1.49-0.34-2.56-1.69-2.93c-1.79-0.49-3.65-0.86-5.49-0.93c-3.77-0.14-7.55-0.04-11.39-0.04c0.11-1.45,0.2-3.09,0.38-4.71
			c0.27-2.44-0.25-5.73,1.12-7.09c1.49-1.49,4.75-1.29,7.26-1.64c1.54-0.22,3.05-0.49,2.86-2.36c-0.2-1.87-1.85-1.95-3.32-1.76
			c-2.56,0.33-5.11,0.76-7.87,1.18c-0.09-1.76-0.18-3.44-0.29-5.39c1.62-0.1,3.02-0.26,4.42-0.25c1.4,0.02,2.69-0.18,2.84-1.81
			c0.16-1.76-1.2-2.3-2.63-2.41c-1.55-0.12-3.11-0.03-4.84-0.03c-0.12-2.23-0.05-4.57-0.47-6.83c-0.17-0.9-1.33-2.18-2.15-2.27
			c-1.48-0.16-2.09,1.15-2,2.62c0.11,1.79,0.15,3.6,0.37,5.37c0.22,1.75-0.28,2.62-2.11,3.2c-2.91,0.92-5.68,2.27-8.48,3.53
			c-0.79,0.36-1.8,0.89-2.08,1.59c-0.34,0.87-0.4,2.36,0.12,2.9c0.51,0.53,2.07,0.55,2.89,0.18c3.19-1.47,6.28-3.19,9.88-5.07
			c0.12,2.54,0.2,4.29,0.27,5.99c-4.38,1.8-8.61,3.49-12.8,5.27c-1.36,0.58-2.68,1.54-1.76,3.26c0.9,1.69,2.24,1.36,3.82,0.6
			C679.42,497.9,683.03,496.5,686.99,494.82z M686.36,611.94c-7.63,2.54-14.06,5.91-16.53,14.25c-1.4-1.61-2.39-3.05-3.69-4.13
			c-0.7-0.58-1.9-0.56-2.88-0.81c-0.22,1.06-0.8,2.21-0.55,3.15c0.26,0.98,1.29,1.79,2.04,2.61c1.97,2.15,4.05,4.2,5.93,6.41
			c0.88,1.04,1.62,2.12,3.1,1.41c1.45-0.69,1.35-1.97,0.92-3.29c-0.75-2.35-0.94-4.68,0.27-6.97c2.52-4.74,6.97-6.63,12.35-8.47
			c0,4.42,0.15,8.37-0.06,12.3c-0.11,2.03,0.2,4.41-2.14,5.76c-0.31,0.18-0.25,1.08-0.29,1.66c-0.08,1.17,0.15,2.45-0.22,3.51
			c-0.77,2.18-1.86,4.24-2.8,6.36c-1.18,2.67-2.48,5.3-3.45,8.04c-0.29,0.81,0.36,1.94,0.57,2.92c0.96-0.3,1.97-0.51,2.86-0.96
			c0.39-0.19,0.58-0.85,0.78-1.33c2.31-5.27,4.58-10.57,6.96-15.81c0.34-0.76,1.14-1.54,1.9-1.84c4.37-1.72,7.97-4.41,10.69-8.24
			c5.18-7.28,0.99-16.36-7.93-17.21c-1.26-0.12-2.53-0.13-3.69-0.19c-0.83-2.35-1.52-4.65-2.47-6.82c-0.56-1.28-1.75-1.97-3.14-1.07
			c-1.18,0.76-1.27,1.8-0.66,3.12C685.07,608.06,685.62,609.91,686.36,611.94z M695.96,142.59c0.18,1.77,0.27,3.19,0.48,4.58
			c0.25,1.65-0.25,2.57-1.96,3.15c-2.19,0.73-4.29,1.77-6.35,2.83c-1.86,0.95-3.72,1.97-5.35,3.25c-0.64,0.5-1.17,2.1-0.84,2.62
			c0.45,0.71,1.75,1.06,2.73,1.17c0.59,0.06,1.27-0.63,1.9-0.98c3.19-1.8,6.38-3.6,9.9-5.58c0,3.71,0,6.67,0,9.51
			c-2.24,0.69-4.35,1.22-6.37,2c-2.01,0.77-4.26,1.53-4.49,4.16c-0.25,2.84,1.83,4.23,3.88,5.56c0.44,0.28,0.94,0.47,1.42,0.67
			c3.95,1.68,6.69,0.63,8.3-3.32c0.67-1.63,1.04-3.39,1.55-5.11c1.95-0.06,3.75-0.82,5.49,0.96c0.98,1.01,2.26,0.02,2.79-1.23
			c0.81-1.91-0.45-3.97-2.71-4.22c-1.69-0.18-3.42-0.04-5.39-0.04c0-0.84-0.02-1.79,0-2.75c0.07-2.45-0.77-5.7,0.48-7.15
			c1.45-1.68,4.71-1.84,7.22-2.55c1.45-0.41,3.03-0.8,2.57-2.68c-0.47-1.92-2.13-1.8-3.68-1.4c-2.22,0.58-4.44,1.19-6.82,1.83
			c-0.15-2.24-0.3-4.3-0.47-6.76c1.84-0.14,3.6-0.14,5.31-0.46c0.82-0.15,2.09-0.81,2.16-1.37c0.1-0.78-0.51-2.06-1.2-2.44
			c-0.89-0.49-2.18-0.51-3.24-0.37c-6.47,0.87-12.47,3.13-17.89,6.76c-0.99,0.66-1.86,1.79-2.28,2.89
			c-0.23,0.62,0.37,1.92,0.99,2.37c0.46,0.33,1.89,0.08,2.31-0.41C688.93,145.13,692.49,144.19,695.96,142.59z M691.59,90.14
			c0.17,0.19,0.35,0.38,0.52,0.57c-6,8.57-11.99,17.15-18.01,25.72c-2.23,3.19-4.52,6.33-6.75,9.52c-0.79,1.13-1.2,2.4,0.18,3.35
			c1.39,0.96,2.4,0.03,3.21-1.04c0.85-1.14,1.57-2.38,2.47-3.47c2.98-3.63,5.78-7.46,9.11-10.74c3.22-3.17,4.28-2.86,7.31,0.38
			c3.71,3.97,10.96,6.22,14.94,4.08c4.12-2.22,7.93-5.03,11.81-7.66c1.15-0.78,2.15-1.97,0.89-3.36c-1.15-1.26-2.27-0.37-3.35,0.4
			c-2.68,1.91-5.29,3.93-8.11,5.6c-4.85,2.87-9.84,1.96-13.68-2.25c-1.79-1.97-3.62-3.84-7.03-3.17c0.66-1.07,1.06-1.75,1.5-2.42
			c3.64-5.49,7.36-10.92,10.85-16.5c0.58-0.92,0.67-2.9,0.07-3.6c-0.61-0.7-2.67-0.97-3.56-0.47c-7.35,4.13-14.6,8.44-21.81,12.82
			c-0.63,0.38-1.04,1.64-1,2.46c0.03,0.52,1.1,1.38,1.7,1.38c0.99-0.01,2.05-0.47,2.94-0.97c0.51-0.29,0.65-1.22,1.16-1.55
			C681.82,96.15,686.71,93.15,691.59,90.14z M685.46,206.84c2.51-4.65,4.79-8.92,7.12-13.17c0.75-1.36,1.28-2.72-0.3-3.73
			c-1.67-1.06-2.68,0.16-3.38,1.46c-5.61,10.48-11.18,20.99-16.75,31.49c-0.69,1.3-0.97,2.69,0.52,3.55
			c1.63,0.95,2.68-0.15,3.44-1.48c1.41-2.47,2.61-5.07,4.19-7.42c1.4-2.08,3.13-3.97,4.85-5.81c0.95-1.02,1.96-0.86,2.65,0.52
			c0.64,1.27,1.33,2.52,2.11,3.7c3,4.55,7.89,5.57,12.17,2.24c2.21-1.72,4.04-3.96,5.9-6.09c0.98-1.12,1.97-2.65,0.29-3.9
			c-1.7-1.28-2.59,0.28-3.63,1.39c-1.83,1.94-3.73,3.84-5.74,5.6c-1.4,1.22-3.05,0.94-4.23-0.36c-1.14-1.26-2.17-2.69-2.9-4.21
			C690.55,208.1,688.75,206.76,685.46,206.84z M677.1,336.23c0.09,0.1,0.18,0.2,0.27,0.3c-2.09,5.04-4.24,10.07-6.24,15.14
			c-0.62,1.58-0.95,3.3-1.23,4.99c-0.23,1.39,0.52,2.4,1.94,2.51c1.41,0.11,2.12-0.76,2.33-2.17c0.2-1.32,0.42-2.68,0.94-3.89
			c2.42-5.72,5.03-11.36,7.37-17.11c0.78-1.91,2.09-1.82,3.6-1.74c1.64,0.09,2.08,1.33,2.3,2.61c0.53,3.22-0.84,5.85-2.82,8.22
			c-0.88,1.06-1.3,2.11-0.19,3.15c1.16,1.09,2.5,0.8,3.33-0.35c1.25-1.75,2.5-3.59,3.27-5.57c2.35-6.01-0.05-10.77-6.25-12.61
			c0.19-0.41,0.37-0.8,0.55-1.19c1.01-2.25,2.11-4.47,2.99-6.77c0.46-1.22,0.09-2.46-1.32-2.92c-1.44-0.47-2.17,0.4-2.72,1.64
			c-1.21,2.73-2.55,5.41-3.74,8.15c-0.61,1.41-1.54,2.15-3.01,2.68c-2.09,0.75-4.1,1.81-5.98,3c-1.18,0.75-1.57,2.13-0.43,3.29
			c1.16,1.19,2.52,1.17,3.77,0.01C676.27,337.16,676.67,336.68,677.1,336.23z M678.4,442.01c0.16-0.03,0.33-0.07,0.49-0.11
			c0.23-5.6,0.48-11.2,0.66-16.81c0.05-1.48-0.52-2.77-2.27-2.73c-1.64,0.04-2.02,1.32-2.07,2.7c-0.22,6.73-0.68,13.47-0.5,20.19
			c0.08,3.03,1.07,6.21,2.34,9c2.06,4.53,5.86,5.59,10.27,3.22c5.29-2.84,8.77-7.63,12.45-12.15c0.4-0.49,0.19-2.06-0.31-2.51
			c-0.48-0.44-1.86-0.38-2.53,0c-0.93,0.53-1.55,1.59-2.35,2.37c-2.72,2.66-5.3,5.5-8.25,7.88c-2.86,2.31-4.76,1.77-5.96-1.73
			C679.34,448.36,679.03,445.13,678.4,442.01z M689.48,240.91c-1.34,0.63-2.32,0.99-3.21,1.52c-4.09,2.44-8.21,4.85-12.19,7.45
			c-1.25,0.82-1.86,2.33-0.48,3.64c1.3,1.24,2.38,0.38,3.48-0.59c3.9-3.47,8.6-5.54,13.67-7.84c0.19,4.36,0.33,8.38,0.56,12.39
			c0.09,1.48,0.53,3.04,2.44,2.81c1.72-0.21,1.8-1.65,1.73-3.11c-0.22-4.53-0.36-9.07-0.54-13.92c1.89-0.59,4-1.27,6.13-1.9
			c1.42-0.42,2.96-0.88,2.49-2.76c-0.46-1.83-2.06-1.74-3.5-1.35c-2.28,0.61-4.52,1.33-6.54,1.94c-1.29-1.88-2.3-3.75-3.73-5.22
			c-0.57-0.58-2.31-0.72-3.06-0.27c-1.21,0.71-0.85,2.02-0.03,3.12C687.62,238.07,688.45,239.38,689.48,240.91z M674.32,144.22
			c-0.28-0.23-0.97-1.28-1.8-1.41c-1.59-0.24-2.48,1.01-2.64,2.46c-0.73,6.98-1.61,13.95-1.94,20.95
			c-0.21,4.32,0.55,8.66,2.49,12.66c0.91,1.88,2.07,3.61,4.3,3.87c0.76,0.09,2.03-0.5,2.32-1.12c0.28-0.6-0.27-1.73-0.72-2.48
			c-0.82-1.36-2.18-2.48-2.69-3.92c-1.98-5.63-1.7-11.49-1.12-17.31C672.96,153.6,673.64,149.32,674.32,144.22z M716.52,346.7
			c-0.22-0.59-0.29-0.98-0.49-1.28c-2.52-3.71-4.93-7.51-7.63-11.07c-2.98-3.92-6.23-7.63-9.38-11.42c-0.89-1.07-1.96-1.77-3.3-0.85
			c-1.35,0.92-1.19,2.2-0.35,3.34c1.64,2.23,3.24,4.51,5.12,6.53c3.85,4.11,7.61,8.25,10.3,13.26c0.58,1.09,1.49,2.07,2.45,2.87
			c0.44,0.37,1.47,0.41,2.04,0.15C715.83,347.99,716.15,347.18,716.52,346.7z M680.16,702.62c1.4-0.96,2.93-1.79,4.12-2.97
			c0.44-0.44,0.39-1.91-0.02-2.52c-0.32-0.47-1.67-0.68-2.34-0.42c-3.31,1.26-4.33,1.12-5.41-2.27c-1.33-4.18-2.1-8.54-3.09-12.83
			c-0.08-0.34,0.01-0.73,0.09-1.09c0.46-2.06-0.2-3.28-1.93-3.4c-1.99-0.13-2.7,1.17-2.65,2.84c0.04,1.63,0.28,3.29,0.68,4.87
			c1.04,4.12,1.97,8.29,3.41,12.28C674.08,700.05,676.28,702.13,680.16,702.62z M708.25,289.14c0.23,0.26,0.45,0.52,0.68,0.78
			c-0.49,1.33-0.85,2.73-1.49,3.99c-0.87,1.73-2.14,3.28-2.82,5.07c-0.28,0.73,0.55,1.88,0.88,2.84c0.9-0.33,2.07-0.41,2.63-1.04
			c1.08-1.21,2.02-2.64,2.64-4.14c0.9-2.16,1.79-4.42,2.08-6.72c0.29-2.26-1.38-4.12-3.53-4.54c-2.99-0.59-5.82,0.1-8.36,1.71
			c-1.26,0.8-1.87,2.07-0.77,3.44c1.01,1.26,2.15,1.12,3.55,0.29C705.1,290.01,706.74,289.68,708.25,289.14z M690.22,282.57
			c0.33-0.32,1.74-1.12,1.67-1.76c-0.09-0.86-1.22-2.13-2.08-2.3c-3.37-0.67-6.25-2.15-8.53-4.64c-2.01-2.2-3.88-4.56-5.65-6.96
			c-0.95-1.29-1.9-2.34-3.46-1.35c-1.58,1-1.2,2.49-0.23,3.71c2.29,2.86,4.54,5.77,7.08,8.4
			C681.79,280.55,685.3,282.22,690.22,282.57z M706.36,691c-0.28-0.1-0.57-0.2-0.85-0.31c0.99-6.56-1.05-12.51-3.31-18.41
			c-0.51-1.34-1.34-2.54-3-1.84c-1.65,0.69-1.59,1.97-1.03,3.56c1.18,3.38,2.3,6.81,3.09,10.29c0.48,2.16,0.24,4.47,0.44,6.7
			c0.13,1.44,0.75,2.92,2.45,2.47C705.03,693.22,705.63,691.85,706.36,691z M689.04,80.76c-1.04-3.11-1.88-5.99-3.02-8.74
			c-0.24-0.57-1.66-1.05-2.39-0.9c-0.55,0.11-1.37,1.42-1.23,1.99c0.7,2.82,1.6,5.61,2.64,8.32c0.24,0.61,1.46,1.33,2.04,1.2
			C687.8,82.48,688.34,81.48,689.04,80.76z"/>
		<path d="M710.28,547.93c-1.62,7.66-3.14,15.34-4.91,22.96c-0.62,2.66-2.08,3.15-4.85,3.26c-4.77,0.19-9.52,0.7-14.29,1.04
			c-1.49,0.11-2.99,0.03-4.48,0.16c-1.34,0.12-2.68-0.02-3.56,1.62c-0.78,1.44-2.69,1.04-3.44-0.86c-1.67-4.23-3.36-8.49-4.52-12.87
			c-1.39-5.26-2.26-10.66-3.33-16.01c-0.37-1.83,0.72-2.85,2.55-2.66c0.88,0.09,1.88,0.05,2.69-0.26
			c9.27-3.61,18.76-6.11,28.81-5.93c0.52,0.01,1.05,0.01,1.57,0.04c5.29,0.3,6.97,2.04,7.11,7.35c0.02,0.67,0,1.35,0,2.02
			C709.85,547.84,710.07,547.89,710.28,547.93z M704.76,555.13c0.22-2.96,0.48-6.07,0.67-9.18c0.13-1.98-0.48-3.37-2.83-3.27
			c-3.57,0.17-7.14,0.27-10.7,0.5c-0.43,0.03-1.16,0.63-1.17,0.98c-0.09,3.55-0.05,7.1-0.05,10.65c2.76-0.15,4.91-0.4,7.06-0.35
			C699.94,554.51,702.14,554.86,704.76,555.13z M673.46,558.44c4.08-2.84,8.84-1.84,12.99-3.05c0-3.73,0-7.35,0-11.51
			c-4.79,1.67-9.2,3.19-13.58,4.8c-0.42,0.16-0.91,1.01-0.85,1.47C672.41,552.89,672.95,555.59,673.46,558.44z M703.91,559.5
			c-4.18-1.34-8.03-1.03-11.86-0.38c-0.5,0.08-1.27,0.65-1.3,1.05c-0.28,3.38-0.42,6.78-0.6,10.17c3.46-0.15,6.73-0.24,9.99-0.51
			c0.58-0.05,1.44-0.76,1.6-1.33C702.54,565.57,703.18,562.59,703.91,559.5z M673.9,561.37c1.02,3.21,2.12,6.67,3.19,10.04
			c3.1-0.15,5.82-0.29,8.7-0.43c0.23-3.78,0.45-7.36,0.68-11.17C682.09,560.36,678.18,560.84,673.9,561.37z"/>
		<path d="M686.99,494.82c-3.96,1.68-7.56,3.08-11.04,4.75c-1.59,0.76-2.93,1.09-3.82-0.6c-0.92-1.72,0.4-2.68,1.76-3.26
			c4.19-1.79,8.42-3.48,12.8-5.27c-0.08-1.7-0.16-3.45-0.27-5.99c-3.61,1.88-6.69,3.6-9.88,5.07c-0.81,0.38-2.38,0.35-2.89-0.18
			c-0.52-0.54-0.46-2.04-0.12-2.9c0.28-0.7,1.28-1.23,2.08-1.59c2.79-1.26,5.57-2.61,8.48-3.53c1.83-0.58,2.33-1.45,2.11-3.2
			c-0.23-1.78-0.26-3.58-0.37-5.37c-0.09-1.47,0.52-2.78,2-2.62c0.82,0.09,1.99,1.37,2.15,2.27c0.41,2.25,0.35,4.59,0.47,6.83
			c1.73,0,3.3-0.09,4.84,0.03c1.43,0.11,2.79,0.65,2.63,2.41c-0.15,1.64-1.43,1.83-2.84,1.81c-1.4-0.02-2.8,0.15-4.42,0.25
			c0.1,1.95,0.19,3.63,0.29,5.39c2.76-0.42,5.31-0.85,7.87-1.18c1.48-0.19,3.12-0.1,3.32,1.76c0.2,1.87-1.32,2.14-2.86,2.36
			c-2.51,0.36-5.77,0.16-7.26,1.64c-1.37,1.37-0.86,4.65-1.12,7.09c-0.18,1.62-0.27,3.26-0.38,4.71c3.84,0,7.62-0.1,11.39,0.04
			c1.84,0.07,3.7,0.44,5.49,0.93c1.34,0.36,2.23,1.44,1.69,2.93c-0.55,1.5-1.76,1.19-3.15,1.1c-4.89-0.3-9.8-0.32-14.7-0.29
			c-0.41,0-1.1,1.09-1.19,1.74c-0.3,2.14-0.21,4.34-0.57,6.47c-0.8,4.72-3.63,6.48-8.26,5.17c-3.05-0.87-5.51-2.7-7.2-5.4
			c-1.6-2.54-1.3-4.85,1.27-6.4c2.92-1.76,6.1-3.13,9.23-4.52c1.06-0.47,1.71-0.84,1.76-2.14
			C686.4,501.86,686.71,498.6,686.99,494.82z M677.03,515.28c1.91,2.54,3.65,4.34,6.51,4.23c0.57-0.02,1.52-0.61,1.59-1.05
			c0.37-2.29,0.51-4.62,0.79-7.52C682.66,512.53,680.02,513.82,677.03,515.28z"/>
		<path d="M686.36,611.94c-0.74-2.03-1.29-3.89-2.1-5.62c-0.61-1.32-0.52-2.37,0.66-3.12c1.39-0.89,2.58-0.2,3.14,1.07
			c0.95,2.18,1.63,4.47,2.47,6.82c1.16,0.06,2.43,0.07,3.69,0.19c8.92,0.85,13.11,9.92,7.93,17.21c-2.72,3.83-6.31,6.52-10.69,8.24
			c-0.77,0.3-1.56,1.08-1.9,1.84c-2.38,5.24-4.64,10.54-6.96,15.81c-0.21,0.48-0.4,1.13-0.78,1.33c-0.89,0.44-1.9,0.65-2.86,0.96
			c-0.22-0.98-0.86-2.12-0.57-2.92c0.97-2.74,2.26-5.37,3.45-8.04c0.94-2.12,2.03-4.18,2.8-6.36c0.37-1.06,0.14-2.34,0.22-3.51
			c0.04-0.57-0.03-1.48,0.29-1.66c2.35-1.35,2.04-3.72,2.14-5.76c0.21-3.93,0.06-7.88,0.06-12.3c-5.38,1.84-9.82,3.73-12.35,8.47
			c-1.21,2.28-1.02,4.62-0.27,6.97c0.42,1.33,0.53,2.6-0.92,3.29c-1.48,0.71-2.22-0.37-3.1-1.41c-1.88-2.22-3.96-4.27-5.93-6.41
			c-0.76-0.82-1.78-1.63-2.04-2.61c-0.25-0.93,0.33-2.09,0.55-3.14c0.98,0.25,2.18,0.22,2.88,0.81c1.29,1.08,2.29,2.52,3.69,4.13
			C672.3,617.85,678.73,614.48,686.36,611.94z M691.4,615.6c0,5.44,0,10.88,0,17.02c2.3-1.93,4.4-3.36,6.07-5.19
			c1.2-1.32,2.33-3.08,2.59-4.79C700.76,618.07,696.49,614.76,691.4,615.6z"/>
		<path d="M695.96,142.59c-3.47,1.6-7.03,2.54-9.55,5.49c-0.42,0.49-1.85,0.74-2.31,0.41c-0.62-0.45-1.22-1.75-0.99-2.37
			c0.42-1.1,1.29-2.23,2.28-2.89c5.42-3.64,11.42-5.89,17.89-6.76c1.07-0.14,2.36-0.12,3.24,0.37c0.69,0.38,1.3,1.66,1.2,2.44
			c-0.07,0.56-1.34,1.22-2.16,1.37c-1.71,0.31-3.47,0.32-5.31,0.46c0.17,2.46,0.31,4.53,0.47,6.76c2.38-0.64,4.6-1.25,6.82-1.83
			c1.55-0.4,3.22-0.52,3.68,1.4c0.45,1.88-1.12,2.26-2.57,2.68c-2.51,0.71-5.77,0.87-7.22,2.55c-1.25,1.45-0.41,4.7-0.48,7.15
			c-0.03,0.96,0,1.91,0,2.75c1.97,0,3.7-0.15,5.39,0.04c2.26,0.25,3.52,2.3,2.71,4.22c-0.53,1.25-1.81,2.24-2.79,1.23
			c-1.73-1.78-3.54-1.02-5.49-0.96c-0.51,1.73-0.88,3.48-1.55,5.11c-1.62,3.95-4.35,5-8.3,3.32c-0.48-0.2-0.98-0.39-1.42-0.67
			c-2.04-1.32-4.13-2.72-3.88-5.56c0.23-2.63,2.48-3.39,4.49-4.16c2.02-0.77,4.13-1.31,6.37-2c0-2.85,0-5.8,0-9.51
			c-3.52,1.98-6.71,3.78-9.9,5.58c-0.63,0.36-1.31,1.05-1.9,0.98c-0.98-0.11-2.28-0.46-2.73-1.17c-0.33-0.52,0.2-2.13,0.84-2.62
			c1.64-1.28,3.5-2.3,5.35-3.25c2.06-1.06,4.16-2.09,6.35-2.83c1.7-0.57,2.21-1.49,1.96-3.15
			C696.23,145.78,696.14,144.36,695.96,142.59z M696.26,168.25c-0.21-0.18-0.43-0.35-0.64-0.53c-1.83,0.64-3.65,1.28-5.48,1.91
			c-0.03,0.28-0.05,0.56-0.08,0.84c1.38,0.48,2.95,1.59,4.09,1.25C695.11,171.44,695.57,169.48,696.26,168.25z"/>
		<path d="M691.59,90.14c-4.88,3.01-9.77,6.01-14.62,9.07c-0.51,0.32-0.65,1.26-1.16,1.55c-0.9,0.5-1.95,0.96-2.94,0.97
			c-0.6,0-1.67-0.86-1.7-1.38c-0.05-0.82,0.36-2.08,1-2.46c7.21-4.38,14.46-8.69,21.81-12.82c0.89-0.5,2.95-0.23,3.56,0.47
			c0.6,0.7,0.5,2.68-0.07,3.6c-3.49,5.58-7.21,11.01-10.85,16.5c-0.44,0.66-0.84,1.35-1.5,2.42c3.41-0.67,5.24,1.2,7.03,3.17
			c3.84,4.21,8.82,5.12,13.68,2.25c2.82-1.67,5.43-3.69,8.11-5.6c1.08-0.77,2.2-1.66,3.35-0.4c1.27,1.4,0.26,2.58-0.89,3.36
			c-3.88,2.64-7.69,5.44-11.81,7.66c-3.98,2.14-11.23-0.11-14.94-4.08c-3.03-3.24-4.1-3.55-7.31-0.38
			c-3.33,3.28-6.13,7.11-9.11,10.74c-0.9,1.1-1.62,2.34-2.47,3.47c-0.81,1.08-1.81,2-3.21,1.04c-1.38-0.95-0.97-2.22-0.18-3.35
			c2.23-3.19,4.52-6.34,6.75-9.52c6.01-8.57,12-17.14,18.01-25.72C691.94,90.52,691.77,90.33,691.59,90.14z"/>
		<path d="M685.46,206.84c3.29-0.07,5.09,1.26,6.29,3.77c0.73,1.52,1.77,2.96,2.9,4.21c1.18,1.3,2.83,1.58,4.23,0.36
			c2.01-1.76,3.91-3.65,5.74-5.6c1.04-1.11,1.93-2.66,3.63-1.39c1.67,1.26,0.69,2.78-0.29,3.9c-1.86,2.13-3.69,4.37-5.9,6.09
			c-4.28,3.33-9.17,2.31-12.17-2.24c-0.78-1.18-1.47-2.44-2.11-3.7c-0.7-1.37-1.7-1.54-2.65-0.52c-1.72,1.84-3.45,3.73-4.85,5.81
			c-1.58,2.35-2.78,4.95-4.19,7.42c-0.76,1.33-1.8,2.43-3.44,1.48c-1.49-0.86-1.21-2.26-0.52-3.55c5.57-10.5,11.14-21,16.75-31.49
			c0.7-1.31,1.71-2.53,3.38-1.46c1.58,1.01,1.05,2.37,0.3,3.73C690.25,197.91,687.97,202.19,685.46,206.84z"/>
		<path d="M677.1,336.23c-0.43,0.45-0.82,0.94-1.28,1.36c-1.25,1.16-2.61,1.18-3.77-0.01c-1.13-1.16-0.75-2.54,0.43-3.29
			c1.88-1.19,3.89-2.25,5.98-3c1.48-0.53,2.4-1.27,3.01-2.68c1.19-2.74,2.53-5.42,3.74-8.15c0.55-1.24,1.29-2.1,2.72-1.64
			c1.41,0.46,1.78,1.7,1.32,2.92c-0.87,2.3-1.98,4.52-2.99,6.77c-0.18,0.39-0.36,0.78-0.55,1.19c6.2,1.85,8.6,6.61,6.25,12.61
			c-0.78,1.98-2.02,3.82-3.27,5.57c-0.82,1.15-2.16,1.45-3.33,0.35c-1.11-1.04-0.69-2.1,0.19-3.15c1.98-2.37,3.35-5,2.82-8.22
			c-0.21-1.29-0.65-2.52-2.3-2.61c-1.51-0.08-2.82-0.17-3.6,1.74c-2.34,5.75-4.95,11.39-7.37,17.11c-0.51,1.21-0.74,2.57-0.94,3.89
			c-0.21,1.42-0.92,2.28-2.33,2.17c-1.42-0.11-2.17-1.12-1.94-2.51c0.28-1.69,0.61-3.41,1.23-4.99c2-5.08,4.15-10.1,6.24-15.14
			C677.28,336.43,677.19,336.33,677.1,336.23z"/>
		<path d="M678.4,442.01c0.63,3.12,0.94,6.35,1.97,9.33c1.2,3.51,3.1,4.05,5.96,1.73c2.95-2.38,5.53-5.22,8.25-7.88
			c0.8-0.78,1.42-1.85,2.35-2.37c0.68-0.38,2.05-0.44,2.53,0c0.49,0.45,0.7,2.02,0.31,2.51c-3.67,4.52-7.16,9.31-12.45,12.15
			c-4.41,2.37-8.21,1.3-10.27-3.22c-1.27-2.8-2.26-5.97-2.34-9c-0.18-6.72,0.28-13.46,0.5-20.19c0.04-1.37,0.43-2.65,2.07-2.7
			c1.75-0.05,2.31,1.25,2.27,2.73c-0.18,5.6-0.43,11.21-0.66,16.81C678.73,441.94,678.56,441.98,678.4,442.01z"/>
		<path d="M689.48,240.91c-1.03-1.53-1.87-2.84-2.79-4.09c-0.81-1.1-1.17-2.41,0.03-3.12c0.75-0.44,2.5-0.31,3.06,0.27
			c1.43,1.47,2.44,3.34,3.73,5.22c2.02-0.61,4.27-1.33,6.54-1.94c1.44-0.39,3.04-0.48,3.5,1.35c0.48,1.89-1.07,2.34-2.49,2.76
			c-2.13,0.63-4.25,1.31-6.13,1.9c0.18,4.85,0.32,9.39,0.54,13.92c0.07,1.46-0.01,2.91-1.73,3.11c-1.91,0.23-2.35-1.33-2.44-2.81
			c-0.24-4.01-0.37-8.03-0.56-12.39c-5.07,2.3-9.77,4.37-13.67,7.84c-1.1,0.98-2.18,1.83-3.48,0.59c-1.38-1.32-0.78-2.83,0.48-3.64
			c3.99-2.6,8.1-5.01,12.19-7.45C687.16,241.9,688.15,241.53,689.48,240.91z"/>
		<path d="M674.32,144.22c-0.68,5.11-1.36,9.39-1.79,13.69c-0.58,5.82-0.86,11.68,1.12,17.31c0.51,1.44,1.87,2.56,2.69,3.92
			c0.45,0.74,0.99,1.88,0.72,2.48c-0.29,0.62-1.56,1.21-2.32,1.12c-2.23-0.26-3.4-1.99-4.3-3.87c-1.94-4-2.7-8.34-2.49-12.66
			c0.34-7,1.22-13.98,1.94-20.95c0.15-1.45,1.05-2.7,2.64-2.46C673.35,142.93,674.05,143.98,674.32,144.22z"/>
		<path d="M716.52,346.7c-0.37,0.49-0.68,1.29-1.24,1.54c-0.57,0.25-1.59,0.22-2.04-0.15c-0.96-0.79-1.87-1.78-2.45-2.87
			c-2.69-5.01-6.46-9.15-10.3-13.26c-1.88-2.01-3.48-4.3-5.12-6.53c-0.84-1.14-1-2.42,0.35-3.34c1.35-0.92,2.42-0.22,3.3,0.85
			c3.15,3.79,6.4,7.5,9.38,11.42c2.71,3.57,5.11,7.37,7.63,11.07C716.23,345.72,716.3,346.1,716.52,346.7z"/>
		<path d="M680.16,702.62c-3.87-0.49-6.08-2.58-7.14-5.51c-1.44-3.98-2.37-8.16-3.41-12.28c-0.4-1.58-0.63-3.24-0.68-4.87
			c-0.04-1.66,0.67-2.97,2.65-2.84c1.73,0.12,2.39,1.34,1.93,3.4c-0.08,0.35-0.17,0.75-0.09,1.09c0.99,4.29,1.76,8.65,3.09,12.83
			c1.07,3.39,2.1,3.53,5.41,2.27c0.67-0.26,2.02-0.05,2.34,0.42c0.41,0.61,0.47,2.08,0.02,2.52
			C683.09,700.83,681.55,701.66,680.16,702.62z"/>
		<path d="M708.25,289.14c-1.51,0.54-3.15,0.87-4.51,1.68c-1.4,0.83-2.54,0.97-3.55-0.29c-1.09-1.36-0.49-2.63,0.77-3.44
			c2.54-1.61,5.37-2.3,8.36-1.71c2.16,0.43,3.82,2.28,3.53,4.54c-0.29,2.3-1.18,4.55-2.08,6.72c-0.62,1.5-1.56,2.93-2.64,4.14
			c-0.56,0.63-1.73,0.71-2.63,1.04c-0.33-0.96-1.16-2.11-0.88-2.84c0.68-1.79,1.95-3.34,2.82-5.07c0.63-1.26,1-2.66,1.49-3.99
			C708.71,289.66,708.48,289.4,708.25,289.14z"/>
		<path d="M690.22,282.57c-4.92-0.35-8.43-2.02-11.2-4.91c-2.53-2.63-4.78-5.54-7.08-8.4c-0.97-1.21-1.35-2.71,0.23-3.71
			c1.57-0.99,2.51,0.06,3.46,1.35c1.77,2.41,3.63,4.76,5.65,6.96c2.28,2.49,5.15,3.97,8.53,4.64c0.86,0.17,1.99,1.44,2.08,2.3
			C691.96,281.45,690.55,282.25,690.22,282.57z"/>
		<path d="M706.36,691c-0.73,0.86-1.33,2.22-2.23,2.46c-1.7,0.46-2.32-1.03-2.45-2.47c-0.2-2.23,0.05-4.55-0.44-6.7
			c-0.78-3.49-1.91-6.91-3.09-10.29c-0.56-1.59-0.62-2.87,1.03-3.56c1.66-0.7,2.49,0.5,3,1.84c2.26,5.9,4.29,11.85,3.31,18.41
			C705.79,690.79,706.07,690.9,706.36,691z"/>
		<path d="M689.04,80.76c-0.7,0.72-1.24,1.72-1.96,1.88c-0.59,0.13-1.81-0.59-2.04-1.2c-1.05-2.71-1.94-5.5-2.64-8.32
			c-0.14-0.57,0.68-1.88,1.23-1.99c0.74-0.15,2.16,0.32,2.39,0.9C687.15,74.77,688,77.65,689.04,80.76z"/>
		<path class="title_st0" d="M704.76,555.13c-2.62-0.26-4.82-0.61-7.02-0.67c-2.15-0.05-4.3,0.2-7.06,0.35c0-3.55-0.03-7.1,0.05-10.65
			c0.01-0.35,0.74-0.95,1.17-0.98c3.56-0.23,7.14-0.34,10.7-0.5c2.34-0.11,2.95,1.29,2.83,3.27
			C705.23,549.05,704.98,552.16,704.76,555.13z"/>
		<path class="title_st0" d="M673.46,558.44c-0.51-2.85-1.05-5.55-1.43-8.28c-0.06-0.46,0.42-1.32,0.85-1.47
			c4.38-1.62,8.79-3.13,13.58-4.8c0,4.16,0,7.77,0,11.51C682.3,556.6,677.55,555.6,673.46,558.44z"/>
		<path class="title_st0" d="M703.91,559.5c-0.73,3.09-1.36,6.07-2.18,9c-0.16,0.57-1.01,1.28-1.6,1.33c-3.26,0.27-6.53,0.35-9.99,0.51
			c0.18-3.39,0.32-6.78,0.6-10.17c0.03-0.4,0.81-0.97,1.3-1.05C695.88,558.47,699.73,558.16,703.91,559.5z"/>
		<path class="title_st0" d="M673.9,561.37c4.28-0.53,8.18-1.02,12.58-1.56c-0.23,3.8-0.45,7.39-0.68,11.17c-2.88,0.14-5.6,0.28-8.7,0.43
			C676.02,568.04,674.92,564.59,673.9,561.37z"/>
		<path class="title_st0" d="M677.03,515.28c2.99-1.46,5.63-2.75,8.89-4.33c-0.28,2.9-0.42,5.23-0.79,7.52c-0.07,0.44-1.03,1.03-1.59,1.05
			C680.68,519.61,678.93,517.82,677.03,515.28z"/>
		<path class="title_st0" d="M691.4,615.6c5.09-0.84,9.36,2.47,8.66,7.04c-0.26,1.7-1.39,3.47-2.59,4.79c-1.66,1.83-3.77,3.26-6.07,5.19
			C691.4,626.47,691.4,621.04,691.4,615.6z"/>
		<path class="title_st0" d="M696.26,168.25c-0.68,1.22-1.15,3.18-2.11,3.47c-1.14,0.34-2.71-0.77-4.09-1.25
			c0.03-0.28,0.05-0.56,0.08-0.84c1.83-0.64,3.65-1.28,5.48-1.91C695.83,167.9,696.04,168.08,696.26,168.25z"/>
	</g>
</g>
</svg>
